<?xml version="1.0" encoding="utf-8"?>
<!-- Generator: Adobe Illustrator 21.1.0, SVG Export Plug-In . SVG Version: 6.00 Build 0)  -->
<svg version="1.1" id="圖層_1" xmlns="http://www.w3.org/2000/svg" xmlns:xlink="http://www.w3.org/1999/xlink" x="0px" y="0px"
	 viewBox="0 0 855 605" style="enable-background:new 0 0 855 605;" xml:space="preserve">
<style type="text/css">
	.st0{fill:#BFC0C0;}
	.st1{fill:#FFFFFF;}
	.st2{opacity:0.8;fill:#FFFFFF;enable-background:new    ;}
	.st3{opacity:0.3;}
	.st4{fill:#FFF3D6;}
	.st5{fill:#FFF2C2;}
	.st6{fill:#F3FAFE;}
	.st7{fill:#F3FAFE;stroke:#F3FAFE;stroke-miterlimit:10;}
	.st8{opacity:0.5;}
	.st9{fill:#D4F2FA;}
	.st10{fill:#EBF6FB;}
	.st11{fill:#CFEBF8;}
	.st12{fill:#80B94A;}
	.st13{opacity:0.3;clip-path:url(#SVGID_2_);}
	.st14{opacity:0.3;clip-path:url(#SVGID_4_);}
	.st15{clip-path:url(#SVGID_6_);}
	.st16{clip-path:url(#SVGID_8_);}
	.st17{clip-path:url(#SVGID_10_);}
	.st18{enable-background:new    ;}
	.st19{fill:#0095D8;}
	.st20{fill:#F8B500;}
	.st21{clip-path:url(#SVGID_12_);}
	.st22{font-family:'DFHeiStd-W7-B5pc-H';}
	.st23{font-size:56.0393px;}
	.st24{fill:#F7C7C6;}
	.st25{fill:#FFFFFF;stroke:#BFC0C0;stroke-width:2.2603;stroke-miterlimit:10;}
	.st26{fill:#BFC0C0;stroke:#BFC0C0;stroke-width:2.2603;stroke-miterlimit:10;}
	.st27{fill:#EB6164;}
	.st28{fill:#FDD762;}
	.st29{fill:#3DB4E8;}
	.st30{fill:#EBF6FB;stroke:#8FD3F3;stroke-width:1.0586;stroke-miterlimit:10;}
	.st31{fill:#EBF6FB;stroke:#8FD3F3;stroke-width:2.2603;stroke-miterlimit:10;}
	.st32{fill:#B9D98F;}
	.st33{fill:none;stroke:#FFFFFF;stroke-width:1.8913;stroke-linecap:round;stroke-linejoin:round;stroke-miterlimit:10;}
	.st34{fill:#EF8582;}
	.st35{fill:#333333;}
	.st36{fill:#FFBF9D;}
	.st37{fill:#FF9A6C;}
	.st38{fill:#F1D3C8;}
	.st39{fill:#E6E6E6;}
	.st40{fill:#8FD3F3;}
	.st41{fill:#1A1A1A;}
	.st42{fill:#D7766D;}
	.st43{fill:#DCDDDD;}
	.st44{fill:#AAABAB;}
	.st45{fill:#C9CACA;}
	.st46{fill:#B5B5B6;}
	.st47{fill:#007BC2;}
	.st48{fill:#EFEFEF;}
	.st49{fill:#F0F5FB;}
	.st50{fill:#EBBF9E;}
	.st51{fill:#12151D;}
	.st52{fill:#D26070;}
</style>
<g id="圖層_1_1_">
	<g>
		<rect x="28.3" class="st0" width="826.7" height="578"/>
	</g>
	<g>
		<rect x="0.1" y="29.1" class="st1" width="826.7" height="575.9"/>
	</g>
	<path class="st2" d="M318,141.8"/>
	<g class="st3">
		<path class="st4" d="M56.7,139.3l10.1,25.3c0.4,1-0.1,2.1-1,2.4l-44,17.6c-1,0.4-2.1-0.1-2.4-1L9.2,158.2c-0.4-1,0.1-2.1,1-2.4
			l44-17.6C55.2,137.8,56.3,138.3,56.7,139.3z"/>
		<path class="st5" d="M56.7,139.3l0.6,1.4L43,163.1c-1.4,2.2-4,3.3-6.6,2.7L9.5,159l-0.3-0.8c-0.4-1,0.1-2.1,1-2.4l44-17.6
			C55.2,137.8,56.3,138.3,56.7,139.3z"/>
	</g>
	<ellipse transform="matrix(0.7071 -0.7071 0.7071 0.7071 63.5958 611.541)" class="st6" cx="770" cy="229" rx="9.9" ry="9.9"/>
	<g>
		<circle class="st7" cx="265.5" cy="178.8" r="16.7"/>
		<circle class="st7" cx="246.1" cy="152.9" r="7.7"/>
	</g>
	<g class="st8">
		<g>
			<path class="st6" d="M47.6,346.6c-11.1,0-20.1-9-20.1-20.1s9-20.1,20.1-20.1s20.1,9,20.1,20.1S58.7,346.6,47.6,346.6z
				 M47.6,313.2c-7.3,0-13.3,6-13.3,13.3s6,13.3,13.3,13.3s13.3-6,13.3-13.3C60.9,319.2,55,313.2,47.6,313.2z"/>
		</g>
		<circle class="st6" cx="65.6" cy="290.6" r="8.9"/>
	</g>
	<circle class="st9" cx="428" cy="360" r="8.9"/>
	<g class="st3">
		<path class="st10" d="M789,68.9l-9.8,29c-0.4,1.1-1.6,1.7-2.7,1.3l-50.3-17.1c-1.1-0.4-1.7-1.6-1.3-2.7l9.8-29
			c0.4-1.1,1.6-1.7,2.7-1.3l50.3,17.1C788.8,66.6,789.4,67.8,789,68.9z"/>
		<path class="st11" d="M789,68.9l-0.5,1.6L760,79.2c-2.8,0.9-5.9-0.1-7.6-2.5l-18-25.3l0.3-0.9c0.4-1.1,1.6-1.7,2.7-1.3l50.3,17.1
			C788.8,66.6,789.4,67.8,789,68.9z"/>
	</g>
	<g>
		<g>
			<circle class="st12" cx="521.9" cy="72.7" r="18.7"/>
			<polygon class="st12" points="503.3,89.7 515.6,86.7 509,78.5 			"/>
		</g>
		<g>
			<path class="st1" d="M522.6,76.7c0.7,0.7,0.7,1.9,0,2.7l-1.5,1.5c-0.7,0.7-1.9,0.7-2.7,0l-6.5-6.6c-0.7-0.7-0.7-1.9,0-2.7
				l1.5-1.5c0.7-0.7,1.9-0.7,2.7,0L522.6,76.7z"/>
			<path class="st1" d="M528.3,65.3c0.7-0.7,1.9-0.7,2.7,0l1.5,1.5c0.7,0.7,0.7,1.9,0,2.7l-11.3,11.2c-0.7,0.7-1.9,0.7-2.7,0
				l-1.5-1.5c-0.7-0.7-0.7-1.9,0-2.7L528.3,65.3z"/>
		</g>
	</g>
	<g>
		<g>
			<defs>
				<rect id="SVGID_1_" x="0.1" y="29.1" width="826.7" height="575.9"/>
			</defs>
			<clipPath id="SVGID_2_">
				<use xlink:href="#SVGID_1_"  style="overflow:visible;"/>
			</clipPath>
			<g class="st13">
				<g>
					<path class="st10" d="M795,620.7l-64.8-25.1c-4.1-1.6-6.2-6.2-4.6-10.3l29.4-75.9c1.6-4.1,6.2-6.2,10.3-4.6l64.8,25.1
						c4.1,1.6,6.2,6.2,4.6,10.3l-29.4,75.9C803.8,620.3,799.2,622.3,795,620.7z"/>
					<g>
						
							<rect x="733" y="558.2" transform="matrix(0.3618 -0.9323 0.9323 0.3618 -36.3766 1070.0298)" class="st1" width="60.7" height="6.8"/>
						
							<rect x="742.5" y="561.9" transform="matrix(0.3618 -0.9323 0.9323 0.3618 -33.7723 1081.2334)" class="st1" width="60.7" height="6.8"/>
						
							<rect x="752" y="565.6" transform="matrix(0.3618 -0.9323 0.9323 0.3618 -31.1256 1092.455)" class="st1" width="60.7" height="6.8"/>
						
							<rect x="761.4" y="569.2" transform="matrix(0.3618 -0.9322 0.9322 0.3618 -28.4973 1103.5356)" class="st1" width="60.7" height="6.8"/>
						
							<rect x="771.1" y="573" transform="matrix(0.3618 -0.9323 0.9323 0.3618 -25.858 1114.9865)" class="st1" width="60.7" height="6.8"/>
						
							<rect x="774" y="526.2" transform="matrix(0.3618 -0.9322 0.9322 0.3618 1.2102 1061.03)" class="st1" width="3.2" height="6.8"/>
						
							<rect x="762.6" y="527.6" transform="matrix(0.3618 -0.9323 0.9323 0.3618 -7.2985 1051.3755)" class="st1" width="3.2" height="6.8"/>
						
							<rect x="759" y="537.1" transform="matrix(0.3617 -0.9323 0.9323 0.3617 -18.371 1054.1289)" class="st1" width="3.2" height="6.8"/>
						
							<rect x="755.3" y="546.5" transform="matrix(0.3618 -0.9323 0.9323 0.3618 -29.5733 1056.6356)" class="st1" width="3.2" height="6.8"/>
						
							<rect x="751.6" y="556" transform="matrix(0.3618 -0.9323 0.9323 0.3618 -40.8069 1059.2115)" class="st1" width="3.2" height="6.8"/>
						
							<rect x="751.6" y="556" transform="matrix(0.3618 -0.9323 0.9323 0.3618 -40.8069 1059.2115)" class="st1" width="3.2" height="6.8"/>
						
							<rect x="748" y="565.4" transform="matrix(0.3618 -0.9323 0.9323 0.3618 -51.8997 1061.8735)" class="st1" width="3.2" height="6.8"/>
						
							<rect x="744.4" y="574.8" transform="matrix(0.3618 -0.9323 0.9323 0.3618 -62.9673 1064.4485)" class="st1" width="3.2" height="6.8"/>
						
							<rect x="783.6" y="530" transform="matrix(0.3618 -0.9323 0.9323 0.3618 3.8309 1072.4674)" class="st1" width="3.2" height="6.8"/>
						
							<rect x="793.1" y="533.7" transform="matrix(0.3618 -0.9323 0.9323 0.3618 6.4429 1083.675)" class="st1" width="3.2" height="6.8"/>
						
							<rect x="802.6" y="537.4" transform="matrix(0.3618 -0.9323 0.9323 0.3618 9.0614 1094.885)" class="st1" width="3.2" height="6.8"/>
						
							<rect x="812.1" y="541.1" transform="matrix(0.3618 -0.9323 0.9323 0.3618 11.7152 1106.1084)" class="st1" width="3.2" height="6.8"/>
					</g>
					<path class="st1" d="M819.8,538.8l-49.7-19.3c-1.9-0.7-2.9-2.9-2.1-4.8l0,0c0.7-1.9,2.9-2.9,4.8-2.1l49.7,19.3
						c1.9,0.7,2.9,2.9,2.1,4.8l0,0C823.9,538.6,821.7,539.5,819.8,538.8z"/>
				</g>
			</g>
		</g>
		<g>
			<defs>
				<rect id="SVGID_3_" x="0.1" y="29.1" width="826.7" height="575.9"/>
			</defs>
			<clipPath id="SVGID_4_">
				<use xlink:href="#SVGID_3_"  style="overflow:visible;"/>
			</clipPath>
			<g class="st14">
				<path class="st10" d="M40.2,567.4l-12.4,22.7c-0.5,0.9-1.6,1.2-2.4,0.7l-39.5-21.6c-0.9-0.5-1.2-1.6-0.7-2.4l12.4-22.7
					c0.5-0.9,1.6-1.2,2.4-0.7L39.5,565C40.4,565.5,40.7,566.6,40.2,567.4z"/>
				<path class="st11" d="M40.2,567.4l-0.7,1.3l-25,3.1c-2.5,0.4-4.9-0.9-5.9-3.2l-11.3-23.7l0.4-0.7c0.5-0.9,1.6-1.2,2.4-0.7
					L39.5,565C40.4,565.5,40.7,566.6,40.2,567.4z"/>
			</g>
		</g>
	</g>
</g>
<g id="圖層_4">
	<g>
		<g>
			<defs>
				<rect id="SVGID_5_" x="0.1" y="29.1" width="826.7" height="575.9"/>
			</defs>
			<clipPath id="SVGID_6_">
				<use xlink:href="#SVGID_5_"  style="overflow:visible;"/>
			</clipPath>
			<g class="st15">
				<path class="st10" d="M43,119.1c37-3.1,74.1-4.7,111.1-5.9c37-1.1,74.1-1.6,111.1-1.6s74.1,0.5,111.1,1.6
					c37,1.2,74.1,2.8,111.1,5.9c-37,3.1-74.1,4.7-111.1,5.9c-37,1.1-74.1,1.6-111.1,1.6s-74.1-0.5-111.1-1.6S80,122.2,43,119.1z"/>
			</g>
		</g>
		<g>
			<defs>
				<rect id="SVGID_7_" x="0.1" y="29.1" width="826.7" height="575.9"/>
			</defs>
			<clipPath id="SVGID_8_">
				<use xlink:href="#SVGID_7_"  style="overflow:visible;"/>
			</clipPath>
			<g class="st16">
				<path class="st10" d="M359.5,187.6c37-3.1,74.1-4.7,111.1-5.9c37-1.1,74.1-1.6,111.1-1.6s74.1,0.5,111.1,1.6
					c37,1.2,74.1,2.8,111.1,5.9c-37,3.1-74.1,4.7-111.1,5.9c-37,1.1-74.1,1.6-111.1,1.6s-74.1-0.5-111.1-1.6
					S396.5,190.7,359.5,187.6z"/>
			</g>
		</g>
		<g>
			<defs>
				<rect id="SVGID_9_" x="0.1" y="29.1" width="826.7" height="575.9"/>
			</defs>
			<clipPath id="SVGID_10_">
				<use xlink:href="#SVGID_9_"  style="overflow:visible;"/>
			</clipPath>
			<g class="st17">
				<g class="st18">
					<path class="st19" d="M91.1,61.9l-0.6,3.4h15.7l-1.1,6.2H70.3l-2.7,15.1c-1.5,7.6-3.5,13.3-5.9,17.1c-2.5,3.8-5.3,6.9-8.3,9.4
						l-3.5-5.3c2.8-2.5,5.2-5.7,7.3-9.6c0.5-1,1-2.2,1.5-3.4c-2.2,1.5-4.4,2.9-6.6,4.2L50.5,93c3.8-2,7.4-4.3,10.7-6.8
						c0.2-1.1,0.5-2.3,0.7-3.6l0.3-1.5l-5.9,2.3c-0.3-4-1-7.5-1.9-10.6l6.3-2.7c0.9,2.9,1.4,6,1.9,9.3l2.5-14.2h18.6l0.6-3.4H91.1z
						 M97.7,89.7l-0.8,4.7c-2.7,3.8-5.7,6.8-8.8,9.2c3.1,1.3,7,2.2,11.6,2.8l-3.6,6.7c-6-0.9-11-2.6-15-5.1
						c-5,2.5-10.4,4.3-16.4,5.5l-2.1-6c5.1-0.8,9.6-2,13.4-3.6c-2.1-2.3-3.7-5-5-8.2h-2.7l1.1-6H97.7z M96.6,73.2l-1.2,6.9
						c-0.3,1.4-0.3,2.3,0,2.5c0.2,0.1,0.4,0.1,0.7,0.1c0.3,0,0.6,0,1-0.1c0.2,0,0.5-0.1,0.7-0.3c0.4-0.2,0.7-1.1,1.1-2.5l5.3,2.8
						c-0.7,2.6-1.8,4.2-3.2,4.8c-0.7,0.3-1.6,0.5-2.4,0.6c-1.3,0.1-2.4,0.1-3.4,0.1c-2.7,0-4.3-0.3-4.9-0.9c-1.5-0.3-2-2.2-1.3-5.6
						l0.6-3.1h-8c-0.9,3-2.1,5.2-3.5,6.6c-1.5,1.6-3.8,2.9-6.8,3.9l-1.9-5.6c1.9-0.6,3.4-1.4,4.5-2.5c1.1-1.2,2.1-3.8,2.9-7.9h2.9
						H96.6z M82.5,100.6c2.3-1.5,4.4-3.1,6.1-4.9H77.9C79.2,97.6,80.7,99.2,82.5,100.6z"/>
					<path class="st19" d="M117.3,73.4c-1.4,5.9-3.2,11.4-5.3,16.4l-4.7-2.6c2.2-5.1,3.9-10.1,5.1-15.1L117.3,73.4z M125.7,61.9
						l-1.4,8.1l4.1-1.8c0.9,2.8,1.5,6,1.9,9.6l-6,2.4c-0.1-2.2-0.3-4.2-0.7-6.1l-6.9,39.2h-6l9.1-51.3H125.7z M154.5,106.1
						c-0.8,4.7-4.2,7.1-9.9,7.1h-3.8l-0.3-6.3c1.8,0.3,3.5,0.5,5,0.5c1.3,0,2.1-0.6,2.6-1.8h-16.8l-1.3,7.6H124l4.7-26.7H158
						L154.5,106.1z M143.6,64.8l0.5-2.9h6.4l-0.5,2.9h13.4l-1,5.8H149l-0.3,1.8h11.1l-1,5.6h-11.1l-0.3,1.5h14l-1,5.7H127l1-5.7H141
						l0.3-1.5h-10.4l1-5.6h10.4l0.3-1.8H130l1-5.8H143.6z M149.4,100.3l0.2-1.3h-16.9l-0.2,1.3H149.4z M150.5,93.7l0.2-1.4h-16.9
						l-0.2,1.4H150.5z"/>
					<path class="st19" d="M191.8,66.5l0.8-4.7h6.4l-0.8,4.7H218l-1.1,6.3h-19.8l-2.4,13.7c1.8,3.2,4.1,6.2,7,9
						c3.4,3.4,7.6,6,12.6,8l-4.7,6.7c-3.7-1.7-7.2-3.9-10.4-6.7c-2.2-1.8-4.3-4.3-6.2-7.3l-3,16.9h-6.4l3-17.2
						c-2.6,2.6-5.3,4.8-8.2,6.9c-5.3,3.8-10,6.4-14.2,8.1l-2.3-5.8c6.1-2.5,11.5-5.6,16.2-9.2c3.7-2.7,7.1-5.7,10.1-8.9l2.5-14.1
						h-20.5l1.1-6.3H191.8z M183.2,76.1c-1,1.8-1.9,3.5-2.7,4.8c1.9,1.7,3.5,3.5,5.1,5.4l-5.8,5.3c-1-1.6-2.1-3.2-3.2-4.5
						c-1.8,2.6-3.8,5-5.9,7.2l-4.4-3.8c2.1-2.4,4.1-5,5.8-7.7c2-3.1,3.7-6,5.1-9L183.2,76.1z M211.9,75.6c-1,1.8-2,3.4-2.8,4.8
						c2.2,1.8,4.3,3.8,6.2,5.9l-5.6,5.1c-1.5-1.9-3-3.7-4.7-5.2c-1.3,1.7-2.7,3.2-4.1,4.7l-4.5-3.8c1.9-2,3.6-4.1,5.1-6.3
						c1.7-2.5,3.2-4.9,4.4-7.3L211.9,75.6z"/>
					<path class="st19" d="M246.7,88.5c-0.2,1.3-0.7,2.3-1.3,3.1h3c-0.4-0.6-0.5-1.2-0.3-2l3-16.9h17.1l0.2-0.9h-17.1l1.7-9.6h5.6
						l-0.2,0.9h18l-0.7,3.8h-18l-0.2,1.1h17.1l-1.5,8.4H256l-0.2,0.9h16.7l-0.5,3.1h-16.7l-0.2,0.9h16.7l-0.6,3.1h-16.7l-0.2,0.9
						h16.7l-0.4,2.3l2.8,1.7c-0.7,2-1.7,3.2-2.9,3.8c-0.8,0.2-1.8,0.4-3.2,0.5c-0.9,0.2-3.3,0.2-7.4,0.2c-2.2,0-4-0.1-5.7-0.2
						c-2,0-3.5-0.3-4.4-0.8l-0.3,1.6h21.5l-0.9,4.8h-9l3.1,3.1c-1.2,0.9-2.6,1.7-4.2,2.4c2.4,0.9,5.6,1.6,9.6,2.4l-4.2,6
						c-4-1-7.9-2.4-11.6-4.3c-2.8-1.5-5-3.2-6.5-5.2c-1.2-1.4-2.1-2.9-2.7-4.6h-2.3c-1.6,1-3.2,1.8-4.8,2.6l-0.8,4.3
						c3.3-0.3,6.5-0.7,9.5-1.1l0,4.9c-6.5,1.3-13.7,2.3-21.5,3.4l-1-5.8c2.2-0.2,4.4-0.4,6.5-0.6l0.4-2.3c-3.7,1.3-6.9,2.2-9.6,2.7
						l-2-5.3c3.6-0.5,7.4-1.2,11.5-2.2c0.6-0.1,1.2-0.3,1.7-0.5h-11.6l0.9-4.8h21.3l0.2-1.4c-1.2,0.6-2.7,0.9-4.4,0.9
						c-1,0-2.2-0.1-3.5-0.5l0-4.9c1.5,0.6,2.9,0.9,4.3,0.9c0.7,0,1.2-0.5,1.5-1.4h-11.7l-0.9,5.1h-5.3l3.3-18.7h22.5L246.7,88.5z
						 M243,61.9l-0.3,1.8h8.2l-0.7,4.2h-3.1c-0.3,0.6-0.6,1.2-0.9,1.8h4.5l-0.7,4.2h-24.7l0.7-4.2h4.4c0-0.6-0.1-1.2-0.1-1.8h-2.9
						l0.7-4.2h8.6l0.3-1.8H243z M242.1,84.6l0.2-0.9h-11.8l-0.2,0.9H242.1z M242.9,79.9l0.2-0.9h-11.8l-0.2,0.9H242.9z M240.4,69.7
						c0.3-0.6,0.6-1.2,0.9-1.8h-5c0.1,0.6,0.1,1.2,0.2,1.8H240.4z M256.7,100.8c0.9-0.5,1.8-0.9,2.5-1.4h-7.7c0.7,1,1.5,1.8,2.3,2.4
						c0.1,0.1,0.1,0.2,0.3,0.2C254.9,101.6,255.7,101.3,256.7,100.8z M254,88.5c0.2,0.7,1.2,1,2.9,1c0.9,0.1,2.2,0.1,3.9,0.1
						c3.4,0,5.4-0.1,6-0.2c0.7-0.1,1.2-0.4,1.4-0.8c0.1,0,0.1-0.1,0.1-0.2H254z"/>
				</g>
				<g class="st18">
					<path class="st20" d="M316.9,57.9c-3.3,0.5-6.6,0.9-10,1.2l-1.4,7.8h12.6c0.5-5.2,1.4-10.9,2.5-17.2h8.2
						c-1.1,6.5-2,12.2-2.6,17.2h20.1l-1.4,8h-19.5c-0.1,2.4-0.2,4.5-0.2,6.4c0,2.5,0.1,4.7,0.3,6.8c2.8-3.4,5.4-7.1,7.9-11.3l7,3.8
						c-4.4,7-8.8,12.7-13.3,17.2c1,3.8,2.1,5.7,3.2,5.7c0.4,0,0.9-0.3,1.4-1c0.7-1.3,1.6-3.8,2.5-7.4l7.3,3.3
						c-1.9,5.7-4.2,9.7-7.1,11.9c-1.8,1.3-3.8,2-5.7,2c-2.2,0-4.4-2.4-6.8-7.1c-0.4-0.7-0.7-1.4-0.9-2.2c-4.5,3.4-9.3,6.2-14.5,8.5
						l-2.6-6.9c5.9-2.9,10.9-6,14.8-9.5c-0.6-2.8-1-5.9-1.2-9.2c-0.3-3.1-0.3-6.8,0-11h-13.3l-1.5,8.3c3.5-0.6,6.6-1.1,9.6-1.8
						l-0.3,7.7c-3.5,0.8-7.1,1.6-10.8,2.3l-1.8,9.9c-0.7,4.2-1.8,6.9-3.2,8.5c-1.6,1.7-4.2,2.5-7.5,2.5c-3.2,0-6-0.4-8.6-1.1
						l0.1-8.5c2.8,1,5.8,1.4,8.8,1.4c0.6,0,1.1-0.3,1.5-1c0.3-0.8,0.7-2,1-3.7l1.1-6.5c-4.1,0.7-8.4,1.3-12.7,1.9l-0.2-8.5
						c5.1-0.6,9.9-1.1,14.3-1.8l1.7-9.7h-14l1.4-8h14l1.2-7c-2.9,0.3-5.9,0.6-8.9,0.7l-1.5-7.6c9.5-0.5,18.3-1.2,26.4-2.2
						L316.9,57.9z M344.5,59.8l-8.2,4.3c-0.8-3.4-2.2-6.7-4-9.8l7.9-4.4C342.1,53.1,343.6,56.4,344.5,59.8z"/>
					<path class="st20" d="M360.7,60.6l2-11.2h7.9l-2,11.2h5.7l-1.4,7.7h-5.7l-1.9,10.8c1.2-0.3,2.4-0.6,3.5-1l0,6.6
						c-1.7,0.7-3.3,1.4-4.8,2l-2.8,15.8c-0.7,3.8-1.7,6.4-3,7.8c-1.5,1.5-4,2.4-7.3,2.4c-1.5,0-3-0.2-4.2-0.6l0-7.9
						c1.4,0.6,2.9,0.8,4.6,0.8c0.6,0,1.1-0.3,1.4-0.8c0.3-0.8,0.7-2,1-3.5l1.9-11c-1.3,0.4-2.6,0.8-3.8,1.1l-1.3-8.2
						c2.2-0.4,4.4-0.8,6.5-1.3l2.3-12.9h-6.3l1.4-7.7H360.7z M391.9,51.4l-1,5.7c-2.3,4.5-5.1,8.9-8.4,13.1h7.2
						c-3,11.3-6.2,19.9-9.6,25.6c-0.7,1.3-1.4,2.5-2.2,3.6c0.1,0.1,0.2,0.3,0.4,0.4c2.2,2.3,7.6,3.5,16.4,3.6
						c4.8,0,9.9-0.3,15.6-0.8l-4.3,9h-12.7c-10.4-0.1-17.1-1.7-20.2-4.8c-0.2-0.1-0.3-0.3-0.3-0.4c-1.9,2.2-4,4.3-6.3,6.3l-4.4-6
						c2.6-2.1,4.9-4.3,6.8-6.6c-1.3-3.2-1.9-7.3-1.9-12l6.8-2.7c0.1,2.5,0.4,4.6,0.9,6.5c2.1-3.8,3.9-8.5,5.4-14.1h-3.8
						c-1,1-2,2-3,3l-4.6-5c5.2-5,9.7-10.7,13.6-16.9h-7.4l1.3-7.3H391.9z M417.6,56.3c-2.9,1.1-5.9,2-9,2.8l-2.1,12h9.3l-1.3,7.6
						h-9.3l-2.3,12.9h7.1l-1.3,7.6h-23.5l1.3-7.6h8.7l2.3-12.9H389l1.3-7.6h8.5l1.8-10.1c-2.2,0.6-4.4,1-6.7,1.3l-1.2-7.1
						c8-1.3,15.5-3.2,22.6-5.7L417.6,56.3z"/>
					<path class="st20" d="M448.2,51.8c-2.4,4.7-5,9.2-7.9,13.7l-8.2,46.8h-8l5.8-32.7c-1.9,2.2-3.8,4.3-5.7,6.2l-3-8.2
						c8.3-8.9,14.8-18.3,19.5-28.2L448.2,51.8z M454.9,78.7c-2.7,9.2-6.9,17.8-12.5,25.7l-7-3.8c5.6-8,9.6-16,12.1-23.8L454.9,78.7z
						 M462,51.1c-1,2.4-2.2,4.7-3.4,6.8h30c-2.4,5.7-5.2,11.3-8.4,16.7l-7-2c1.4-2.2,2.6-4.6,3.8-7.1h-23c-2.9,4.3-5.9,8.1-9.1,11.2
						l-4.4-6c3.2-3.2,5.8-6.6,7.9-10.1c2.5-3.8,4.5-7.5,6.3-11.3L462,51.1z M468.8,69.9l-5.6,31.7c-0.7,4.1-1.8,6.7-3.2,8.3
						c-1.8,1.6-4.4,2.5-8,2.5c-2.1,0-3.9-0.4-5.5-1.1l0-8.2c1.8,0.9,3.8,1.3,5.8,1.3c0.8,0,1.5-0.3,1.9-0.9c0.4-0.8,0.8-2,1.1-3.7
						l5.3-29.8H468.8z M480.5,101.1l-8.5,3.2c-0.4-9.2-1.5-17.5-3.2-24.8l7.7-3.3C478.4,83.8,479.7,92.1,480.5,101.1z"/>
				</g>
			</g>
		</g>
		<g>
			<defs>
				<rect id="SVGID_11_" x="0.1" y="29.1" width="826.7" height="575.9"/>
			</defs>
			<clipPath id="SVGID_12_">
				<use xlink:href="#SVGID_11_"  style="overflow:visible;"/>
			</clipPath>
			<g class="st21">
				<text transform="matrix(0.9699 0 -0.1736 0.9848 356.2215 181.5934)" class="st22 st23"> </text>
				<g class="st18">
					<path class="st19" d="M431.5,150.3l-27.7,3.2l-2.9,16.4c-0.4,2,0,3.1,1.2,3.1c0.5,0.3,1.8,0.4,4,0.4c5.9,0,8.9-0.1,8.9-0.3
						c1.2-0.1,2.3-0.3,3.5-0.6c1.2-0.2,2.4-3,3.9-8.6l5.9,2.8c-1.7,5.4-3.4,9-5.1,10.8c-1.1,0.7-2.6,1.2-4.6,1.4
						c-4.5,0.4-9,0.7-13.5,0.7h-2.7c-1.9,0-3.4-0.2-4.5-0.6c-3.2-0.1-4.5-2.3-3.7-6.7l3.2-18l-14.5,1.7l0.1-6.5l15.6-1.8l3-16.8h6.4
						l-2.8,16.1l27.1-3.1L431.5,150.3z"/>
					<path class="st19" d="M459.1,142.7l2.1-11.9h6.6l-2.1,11.9h19.7l-1.1,6.2h-18c0.6,5.5,2,10.3,4.3,14.3
						c2.4,4.6,6.2,8.2,11.3,10.8l-4.6,6.7c-5.3-2.8-9.5-7-12.6-12.6c-1.7-3-3.1-6.5-4-10.5c-1.7,3-3.8,5.9-6.2,8.6
						c-5.5,6-11.8,10.8-19.1,14.5l-2.6-5.9c7.9-4.3,14.1-9,18.6-14.3c3-3.8,5.1-7.6,6.5-11.6h-19.2l1.1-6.2H459.1z"/>
					<path class="st19" d="M501.6,136.4l1-5.6h5.7l-2.1,11.9h2.6l2.1-11.9h5.8l-1,5.9c1.1-1.4,2.1-2.9,2.9-4.4l5.4,1.9
						c-1.6,3-3.3,5.5-4.9,7.6l-3.8-2.3l-0.6,3.1h6.4l-1,5.9h-6.5l2.5,0.8c-0.8,1.4-1.7,2.8-2.8,4.3c-0.3,0.3-0.5,0.7-0.7,0.9h5.7
						l-1,5.8H507l-0.5,2.8h8.9l-1,5.6h-8.9l-0.5,2.9c3.6-0.4,7-0.9,10.2-1.4l0.1,5.4c-8.2,1.6-17.2,3-27.1,4.3l-1-6.2
						c4-0.4,7.8-0.8,11.5-1.3l0.7-3.7h-9.5l1-5.6h9.5l0.5-2.8h-10.4l1-5.8h5.4c-0.4-1.5-0.9-3.1-1.6-4.5l2.5-1.5h-5.5l1-5.9h7.2
						l0.6-3.2l-5,1.9c-0.3-2.5-0.7-4.9-1.3-6.9l5.5-2.4C500.8,133.5,501.2,135,501.6,136.4z M506.4,154.6c0.4-0.7,0.8-1.3,1.2-2
						c0.8-1.3,1.4-2.6,2-4h-7.6c0.5,1.4,1,2.9,1.3,4.3l-3.3,1.7H506.4z M527.5,161.9l-6.6,2.6c-0.4-3.9-1-7.3-2-10.4l5.9-2.6
						C526,154.7,526.9,158.2,527.5,161.9z M532.5,140.6l1.7-9.7h6.1l-1.7,9.7h3.2l-1.1,6.5h-3.2l-4.4,25.2c-0.6,3.2-1.4,5.3-2.5,6.5
						c-1.3,1.3-3.4,2-6.2,2c-1.7,0-3.3-0.2-4.8-0.7l0.1-6.5c1.6,0.6,3.2,0.8,5,0.8c0.8,0,1.3-0.2,1.6-0.7c0.3-0.6,0.7-1.6,0.9-2.9
						l4.2-23.7h-9.6l1.1-6.5H532.5z"/>
					<path class="st19" d="M583.1,131.7c-0.3,0.6-0.6,1.2-0.9,1.7h15.1l-1,5.9h-6.8c0.5,0.7,1,1.3,1.4,1.9l-5.9,3.2
						c-0.8-1.8-1.6-3.5-2.6-5.1h-3.7c-1.2,1.8-2.5,3.4-3.8,4.7l-0.6-0.5l-0.3,1.5h20.4l-1,5.9h-20.4l-0.4,2.2h18.3l-1.4,7.7
						c-0.8,4.6-3.6,6.9-8.2,6.9c-1,0-2.1-0.1-3.3-0.4l-0.2-6c1.6,0.6,3.1,0.9,4.5,0.9c0.5,0,1-0.9,1.4-2.8l0-0.2h-12.1l-0.5,3
						c1.9,2.1,4.2,4,6.9,5.8c3.3,2.3,7.5,4.1,12.4,5.4l-4.3,6.2c-3.6-1.2-7-2.7-10.1-4.7c-2.2-1.3-4.3-3.1-6.2-5.2l-2,11.2h-6.1
						l2.1-11.9c-2.2,1.7-4.6,3.2-7.1,4.5c-4.7,2.5-8.9,4.3-12.7,5.4l-2-5.6c5.5-1.7,10.3-3.7,14.4-6.1c3.2-1.8,6.1-3.6,8.7-5.7
						l0.4-2.4h-11.7l-1.6,9.3h-6.1l2.7-15.3h17.8l0.4-2.2h-20.2l1-5.9h20.2l0.5-2.6h4.8l-2.9-2.6c1.4-1.4,2.8-3,4.1-4.8
						c1.3-1.8,2.4-3.5,3.2-5.1L583.1,131.7z M560.6,131.7c-0.3,0.6-0.6,1.2-0.9,1.7h11.6l-1,5.9h-5.2c0.3,0.7,0.7,1.3,1,1.9
						l-5.9,3.2c-0.6-1.8-1.2-3.5-2-5.1H556c-1.4,2-2.9,3.7-4.4,5.1l-4.6-4.1c1.7-1.4,3.2-3.1,4.5-5c1.5-1.9,2.7-3.6,3.5-5.3
						L560.6,131.7z"/>
				</g>
				<g class="st18">
					<path class="st20" d="M614.7,150.3l-0.6,3.2H646l0.6-3.2h7.3l-5.2,29.5h-7.3l1.7-9.9h-33.5c-0.6,1.2-1.1,2.2-1.7,3.2
						c-1.9,2.9-4.4,5.4-7.5,7.4l-4.3-5.3c2.4-1.6,4.4-3.7,6-6.3c1.6-2.6,3-6.5,4-11.6l1.2-7H614.7z M640.7,118.7l-0.5,2.9h24.6
						l-1.2,6.9h-5l4.2,5.8c-1.4,0.5-2.8,1.1-4.2,1.5c0,1.8,0.2,3.5,0.7,5.1c0.4,2.1,1.3,3.9,2.7,5.4l-5.7,5.6
						c-1.6-1.6-2.8-3.9-3.5-6.9c-0.7-2.4-1-4.8-1-7.3c-1.5,0.3-2.9,0.6-4.4,0.9l-0.7,4.2c1.6-0.1,3.2-0.3,4.6-0.5l-0.1,6.1
						c-4.4,0.8-9.2,1.6-14.5,2.1l0-6.9c1,0,2-0.1,2.9-0.2l1.6-9.1c-2.1,2.3-4.1,4.2-6,5.7l-2,11.1h-7.1l2.1-12
						c-0.7-1.1-1.4-2.1-2-3.2c-1.4,5.8-3,9.6-4.6,11.3c-1.5,1.5-3.5,2.2-5.9,2.2c-1.1,0-2.6-0.2-4.6-0.7l-0.1-2.9
						c-0.1,0.1-0.2,0.2-0.2,0.2c-2.1,2.3-4.9,4.1-8.1,5.4l-1.8-6.1c2.3-1,4.1-2.2,5.3-3.7c0.7-1,1.4-2.4,1.9-4.2h-3.9l1.2-6.7h18.9
						l3.4-2.1h-22.7l1.2-6.9h25.9l0.5-2.9H640.7z M644.3,163.4l0.6-3.2h-32c-0.3,1.2-0.5,2.2-0.8,3.2H644.3z M613,142.5
						c1.4,0.3,2.7,0.4,3.8,0.4c0.3,0,0.6-0.2,1-0.7c0.3-0.7,0.7-2.2,1.3-4.8h-4.3C614.3,139.4,613.6,141.1,613,142.5z M637.7,128.6
						h-7.3c1.1,1.5,2.3,3,3.4,4.6C635.2,131.7,636.4,130.2,637.7,128.6z M644,131c-0.6,0.7-1.1,1.4-1.6,1.9
						c5.7-1.1,10.8-2.5,15.3-4.3h-17.1L644,131z"/>
					<path class="st20" d="M679.5,129.4l1.9-10.7h7.6l-1.9,10.7h5.8l-1.3,7.4h-5.8l-1.9,10.7c2.2-0.5,4.4-1.1,6.5-1.6l0.1,6.9
						c-2.6,1-5.3,1.8-8,2.5l-2.6,15c-0.6,3.7-1.6,6.2-2.9,7.5c-1.5,1.5-3.9,2.3-7,2.3c-2,0-3.9-0.2-5.6-0.5l0-7.7
						c1.9,0.5,3.9,0.7,5.9,0.7c0.6,0,1.1-0.3,1.3-0.8c0.3-0.7,0.7-1.9,0.9-3.4l1.9-11c-2,0.5-4.1,1-6,1.4l-1.2-7.9
						c3-0.5,5.9-1.1,8.7-1.6l2.2-12.4h-7.6l1.3-7.4H679.5z M720.6,140l-5.1,28.7c-0.3,1.7-0.3,2.7-0.1,3c0.2,0.1,0.5,0.2,0.8,0.2
						c0.1,0,0.1-0.1,0.3-0.2c0-0.1,0.1-0.3,0.3-0.7c0.2-0.6,0.6-2.8,1.3-6.5l6.7,3.7c-1.2,5-2.4,8.2-3.9,9.4c-0.8,0.5-1.6,1-2.4,1.2
						c-1.3,0.1-2.5,0.3-3.5,0.3c-3.3,0-5.2-0.4-5.8-1.1c-1.8-0.4-2.3-2.9-1.5-7.4l4.1-23.1h-7.9l-2.1,11.8c-1.2,6-3,10.5-5.5,13.5
						c-2.5,2.9-5.4,5.4-8.6,7.4l-4.1-6.1c3-2,5.6-4.6,7.6-7.7c2-3.1,3.4-7.2,4.3-12.4l2.5-13.9h3.7H720.6z M717.2,118.7l-1.5,8.5
						h14.4l-1.3,7.5h-35.5l1.3-7.5h13.3l1.5-8.5H717.2z"/>
					<path class="st20" d="M781,118.7l-0.7,4h18.5l-1.3,7.4h-41l-3.2,18c-1.8,9.1-4.1,15.9-7,20.4c-2.9,4.6-6.2,8.3-9.8,11.3
						l-4.1-6.4c3.3-3,6.2-6.9,8.6-11.5c0.6-1.2,1.2-2.6,1.8-4.1c-2.6,1.8-5.2,3.5-7.8,5l-1.9-6.9c4.5-2.4,8.7-5.1,12.6-8.1
						c0.2-1.4,0.6-2.8,0.8-4.3l0.3-1.8l-7,2.7c-0.4-4.8-1.2-9-2.2-12.7l7.4-3.2c1,3.5,1.7,7.2,2.2,11.1l3-17h21.9l0.7-4H781z
						 M788.8,152l-1,5.6c-3.2,4.5-6.7,8.2-10.4,11c3.7,1.5,8.2,2.6,13.7,3.3l-4.3,7.9c-7-1.1-13-3.1-17.7-6
						c-5.9,3-12.3,5.2-19.3,6.6l-2.4-7.2c6-1,11.3-2.4,15.7-4.3c-2.5-2.7-4.4-6-5.8-9.8h-3.2l1.3-7.1H788.8z M787.5,132.3l-1.4,8.2
						c-0.3,1.7-0.3,2.7,0,3c0.2,0.1,0.4,0.1,0.8,0.1c0.3,0,0.7,0,1.1-0.1c0.3,0,0.6-0.1,0.8-0.3c0.4-0.3,0.8-1.3,1.3-3l6.2,3.4
						c-0.8,3.1-2.1,5-3.8,5.8c-0.9,0.4-1.8,0.6-2.8,0.7c-1.5,0.1-2.8,0.1-4,0.1c-3.2,0-5.1-0.3-5.7-1c-1.8-0.3-2.3-2.6-1.6-6.7
						l0.7-3.7h-9.4c-1,3.6-2.4,6.3-4.1,7.9c-1.7,1.9-4.4,3.5-8,4.6l-2.2-6.7c2.2-0.7,4-1.6,5.3-3c1.3-1.4,2.5-4.6,3.5-9.4h3.4H787.5
						z M770.8,165c2.7-1.8,5.1-3.7,7.2-5.9h-12.6C766.9,161.4,768.7,163.4,770.8,165z"/>
				</g>
			</g>
		</g>
	</g>
</g>
<g id="圖層_2">
	<g>
		<g>
			<g>
				<g>
					<g>
						<g>
							<path class="st24" d="M129.8,261.8H71.9c-4.7,0-8.5-3.8-8.5-8.5v-54c0-3.6,2.9-6.5,6.5-6.5h59.9c3.6,0,6.5,2.9,6.5,6.5v56
								C136.3,258.9,133.4,261.8,129.8,261.8z"/>
						</g>
					</g>
				</g>
			</g>
		</g>
		<g>
			<path class="st1" d="M108.3,221.5c0-4.7-3.8-8.4-8.4-8.4c-4.7,0-8.4,3.8-8.4,8.4c0,4.7,3.8,8.4,8.4,8.4S108.3,226.2,108.3,221.5z
				 M93.5,221.5c0-3.5,2.8-6.3,6.3-6.3s6.3,2.8,6.3,6.3s-2.8,6.3-6.3,6.3C96.4,227.8,93.5,225,93.5,221.5z"/>
			<g>
				<path class="st1" d="M99,246.4c0.3,0.5,1,0.6,1.5,0.2c0.1-0.1,0.2-0.1,0.2-0.2c0.1-0.1,0.5-0.7,1.1-1.5l6.2-9.6
					c2.9-4.9,5.5-10.4,5.5-13.7c0-7.6-6.1-13.7-13.7-13.7s-13.7,6.1-13.7,13.7c0,3.3,2.5,8.5,5.3,13.3l6.5,10.1
					C98.5,245.7,98.9,246.3,99,246.4z M99.9,209.9c6.4,0,11.6,5.2,11.6,11.6c0,5-7.7,17-11.6,22.4c-3.9-5.5-11.6-17.4-11.6-22.4
					C88.3,215.1,93.5,209.9,99.9,209.9z"/>
			</g>
		</g>
	</g>
	<g>
		<g>
			<g>
				<path class="st25" d="M126.3,571.1c0,3.8,3.1,6.9,6.9,6.9H693c3.8,0,6.9-3.1,6.9-6.9V260.7H126.3V571.1z"/>
				<path class="st26" d="M693,223.1H133.2c-3.8,0-6.9,3.1-6.9,6.9v30.7h573.6V230C699.9,226.2,696.8,223.1,693,223.1z"/>
			</g>
			<g>
				<circle class="st27" cx="158.8" cy="242.3" r="5.2"/>
				<circle class="st28" cx="179.2" cy="242.3" r="5.2"/>
				<circle class="st29" cx="199.6" cy="242.3" r="5.2"/>
			</g>
		</g>
	</g>
	<g>
		<g>
			<g>
				<g>
					<path class="st30" d="M782.6,413.4H646c-3.3,0-6-2.7-6-6V280.9c0-3.3,2.7-6,6-6h136.6c3.3,0,6,2.7,6,6v126.5
						C788.6,410.7,785.9,413.4,782.6,413.4z"/>
					<path class="st31" d="M782.6,413.4H646c-3.3,0-6-2.7-6-6V280.9c0-3.3,2.7-6,6-6h136.6c3.3,0,6,2.7,6,6v126.5
						C788.6,410.7,785.9,413.4,782.6,413.4z"/>
				</g>
			</g>
		</g>
		<g>
			<g>
				<g>
					<g>
						<path class="st32" d="M678.6,377.3h71.9c3.3,0,6-2.7,6-6v-59.2c0-3.3-2.7-6-6-6h-71.9c-3.3,0-6,2.7-6,6v59.2
							C672.6,374.7,675.3,377.3,678.6,377.3z"/>
					</g>
				</g>
			</g>
			<g>
				<polygon class="st33" points="733.7,353.6 700.9,353.6 694.9,353.6 694.9,327.6 733.7,327.6 733.7,334.1 				"/>
				<polyline class="st33" points="694.9,327.6 714.3,342.9 733.7,327.6 				"/>
			</g>
		</g>
	</g>
	<g>
		<g>
			<g>
				<g>
					<path class="st30" d="M170.2,493.8H39.9c-3.2,0-5.7-2.6-5.7-5.7V374.3c0-3.2,2.6-5.7,5.7-5.7h130.3c3.2,0,5.7,2.6,5.7,5.7V488
						C175.9,491.2,173.3,493.8,170.2,493.8z"/>
					<path class="st31" d="M170.2,493.8H39.9c-3.2,0-5.7-2.6-5.7-5.7V374.3c0-3.2,2.6-5.7,5.7-5.7h130.3c3.2,0,5.7,2.6,5.7,5.7V488
						C175.9,491.2,173.3,493.8,170.2,493.8z"/>
				</g>
			</g>
		</g>
		<g>
			<path class="st28" d="M139,469.6H70.4c-3.7,0-6.6-3-6.6-6.6v-66.4c0-3.7,3-6.6,6.6-6.6H139c3.7,0,6.6,3,6.6,6.6V463
				C145.7,466.7,142.7,469.6,139,469.6z"/>
			<g>
				<path class="st1" d="M88.8,414.2c-9,9-9,23.8,0,32.8s23.8,9,32.8,0s9-23.8,0-32.8S97.8,405.2,88.8,414.2z M121.5,417.5h-7.4
					c-0.7-2.3-1.7-4.6-2.9-7C115.4,411.8,118.9,414.3,121.5,417.5z M96.7,429.2c0-3,0.4-6,1.1-9h14.8c0.7,3,1.1,6,1.1,9H96.7z
					 M113.6,431.9c-0.2,3-0.7,6-1.6,9H98.4c-0.8-3-1.4-6-1.6-9H113.6z M105.2,409.7c1.1,0,2.2,0.1,3.3,0.3c1.4,2.5,2.5,5.1,3.4,7.6
					H98.6c0.8-2.5,1.9-5.1,3.4-7.6C103,409.7,104.1,409.7,105.2,409.7z M99.1,410.6c-1.2,2.3-2.1,4.6-2.9,7h-7.4
					C91.5,414.3,95.1,411.8,99.1,410.6z M87.1,420.2h8.5c-0.7,3-1.1,6-1.2,9h-10C84.6,425.9,85.5,422.9,87.1,420.2z M87.1,440.9
					c-1.5-2.7-2.5-5.7-2.7-9h10c0.1,3,0.6,6,1.4,9H87.1z M88.9,443.6h7.7c0.8,2.3,1.7,4.7,2.9,7C95.2,449.4,91.6,446.9,88.9,443.6z
					 M105.2,451.5c-0.9,0-1.8-0.1-2.7-0.2c-1.3-2.6-2.4-5.1-3.2-7.7h12c-0.9,2.6-2,5.1-3.2,7.7C107.1,451.4,106.2,451.5,105.2,451.5
					z M111,450.6c1.1-2.3,2.1-4.7,2.9-7h7.7C118.9,446.9,115.2,449.4,111,450.6z M123.4,440.9h-8.7c0.8-3,1.3-6,1.4-9h10
					C125.9,435.2,124.9,438.2,123.4,440.9z M126.1,429.2h-10c-0.1-3-0.4-6-1.2-9h8.5C124.9,422.9,125.9,425.9,126.1,429.2z"/>
			</g>
		</g>
	</g>
	<path class="st20" d="M779.1,443.9h-56.5c-2.4,0-4.4-2-4.4-4.4l0,0c0-2.4,2-4.4,4.4-4.4h56.5c2.4,0,4.4,2,4.4,4.4l0,0
		C783.5,441.9,781.5,443.9,779.1,443.9z"/>
	<path class="st34" d="M740,494.3h-7.8c-1.6,0-2.9-1.3-2.9-2.9v-7.3c0-1.6,1.3-2.9,2.9-2.9h7.8c1.6,0,2.9,1.3,2.9,2.9v7.3
		C742.8,493,741.5,494.3,740,494.3z"/>
	<path class="st29" d="M85.2,554.4h-7.8c-1.6,0-2.9-1.3-2.9-2.9v-7.3c0-1.6,1.3-2.9,2.9-2.9h7.8c1.6,0,2.9,1.3,2.9,2.9v7.3
		C88,553.2,86.8,554.4,85.2,554.4z"/>
</g>
<g id="圖層_3">
	<g>
		<g>
			<path class="st35" d="M169.6,360.6c0,0,1.1,18.7-5.9,35.6c0,0-1.3,4.2,1.6,6.7c2.8,2.5,22.6,9.4,47.8,9.4s45-6.9,47.8-9.4
				s1.6-6.7,1.6-6.7c-7-16.8-5.9-35.6-5.9-35.6l-43.4-4.3L169.6,360.6z"/>
			<path class="st36" d="M158.3,605c3.9-20.6,1.1-39.6-2.9-67.7c-7.6-14.7-13.4-41.5-9.4-60.7s4.5-46.9,4.5-46.9s37.8-8.3,41.2-10
				c3.3-1.7,3.7-8.7,3.7-8.7l17.7-3.8l17.7,3.8c0,0,0.3,7,3.7,8.7c3.3,1.7,41.2,10,41.2,10s0.5,27.7,4.5,46.9
				c4,19.2-1.8,46-9.4,60.7c-4,28.1-6.8,47.1-2.9,67.7H158.3z"/>
			<path class="st36" d="M213,366.4L213,366.4c9.7,0,17.7,8,17.7,17.7V418c0,9.7-8,17.7-17.7,17.7l0,0c-9.7,0-17.7-8-17.7-17.7
				v-33.8C195.3,374.4,203.3,366.4,213,366.4z"/>
			<g>
				<path class="st37" d="M251.6,350.9c0.3,0,0.6,0.1,0.8,0.1l0,0l0,0c5,1.1,8.8,5.5,8.9,10.9c0.1,6.2-4.9,11.3-11.1,11.4
					c-6.2,0.1-11.3-4.9-11.4-11.1c0-3.6,1.6-6.8,4.2-8.9c-0.3,3.3,0.2,7.4,4.4,7.9l-0.1-6.5C247.3,352,249.8,350.8,251.6,350.9z"/>
				<path class="st37" d="M174.6,350.3c-0.3,0-0.6,0.1-0.8,0.1l0,0l0,0c-5,1-8.9,5.4-9,10.7c-0.2,6.2,4.7,11.4,11,11.5
					c6.2,0.2,11.4-4.7,11.5-11c0.1-3.6-1.5-6.9-4.1-9c0.3,3.3-0.3,7.4-4.5,7.8l0.2-6.5C178.8,351.5,176.4,350.3,174.6,350.3z"/>
			</g>
			<path class="st36" d="M213,407.2c-21,0-38.5-25.9-38.5-46.4v-27.2c0-21.2,17.3-38.5,38.5-38.5l0,0c21.2,0,38.5,17.3,38.5,38.5
				v26.6C251.5,382.7,236.2,407.2,213,407.2z"/>
			<path class="st37" d="M178.7,316.2c2.2-4.4,5.3-8.2,8.9-11.5l43.8,6c0,0,15.8,10.9,20,19.4c0.1,1.1,0.2,2.3,0.2,3.5v2.9
				c-0.9,1.2-2.5,2.1-5.1,2.7c-19.6,4.5-33.1-10.9-33.1-10.9s12.8,0.4-4.5,5.9S180,324,180,324L178.7,316.2z"/>
			<g>
				
					<ellipse transform="matrix(0.9998 -1.846953e-02 1.846953e-02 0.9998 -6.8755 4.5149)" class="st24" cx="241" cy="374.5" rx="6.4" ry="6.4"/>
				
					<ellipse transform="matrix(0.9998 -1.860882e-02 1.860882e-02 0.9998 -6.9554 3.5076)" class="st24" cx="185" cy="375.5" rx="6.4" ry="6.4"/>
			</g>
			<path class="st35" d="M201.5,341.4c0.8,0.4,1.2,1.3,0.8,2.1c-0.4,0.8-1.3,1.2-2.1,0.8c0,0-4.9-2.3-9.5,0.6
				c-0.8,0.5-1.8,0.2-2.2-0.5c-0.5-0.8-0.2-1.8,0.5-2.2C195.1,338.4,201.5,341.4,201.5,341.4z"/>
			<path class="st35" d="M239.6,342.1c0.8,0.4,1.1,1.4,0.6,2.2c-0.4,0.8-1.4,1.1-2.2,0.6c0,0-4.7-2.7-9.5-0.2
				c-0.8,0.4-1.8,0.1-2.2-0.7c-0.4-0.8-0.1-1.8,0.7-2.2C233.5,338.6,239.6,342.1,239.6,342.1z"/>
			<path class="st1" d="M203.5,379.5c-0.1,6.3,5,11.5,11.3,11.5c6.3,0.1,11.4-5,11.5-11.3l0,0c0-1.1-0.9-2-2-2l-18.8-0.2
				C204.4,377.6,203.5,378.5,203.5,379.5L203.5,379.5z"/>
			<path class="st1" d="M207.6,388.5c1.9,1.6,4.4,2.6,7.1,2.6c2.2,0,4.3-0.6,6-1.7c-0.9-2.3-3.4-4.1-6.5-4.3
				C211.4,385,208.8,386.4,207.6,388.5z"/>
			<path class="st1" d="M223.7,377.7l-17.7-0.2c-0.3,2,0.6,3.9,1.9,4.4c1.6,0.5,14.4,0.3,15.3-0.7
				C223.6,380.8,223.7,379.2,223.7,377.7z"/>
			<path class="st38" d="M215.6,361.7c0.8,2.3,2.3,6.6,2.1,7.3c-0.2,0.9-5.1,1.2-6.4-0.2c-0.9-0.9,0.2-4.5,1.1-6.8
				C213.8,358.7,214.5,358.5,215.6,361.7z"/>
			<path class="st1" d="M254.8,425l-7.6,102.5l15.6,0.4c0,0,3,49.5,8.7,77.2H154.9c5.7-27.6,8.7-77.2,8.7-77.2l15.6-0.4L171.7,425
				C193.9,461.4,232.6,461.4,254.8,425z"/>
			<g>
				<path class="st39" d="M197.8,605h-42.9c5.7-27.6,8.7-77.2,8.7-77.2l15.6-0.4l-6.1-82.5c5.3-0.9,10-1.6,14-2.2
					c4.1,3.2,8.4,5.5,12.8,7.1c-0.9,146.8-2.2,154.4-2.2,154.4L197.8,605z"/>
				<path class="st39" d="M253.3,445l-6.1,82.5l15.6,0.4c0,0,3,49.5,8.7,77.2h-42.9v-0.6c0,0-1.3-7.7-2.2-154.4
					c4.4-1.6,8.7-4,12.8-7.1C243.3,443.4,248,444.1,253.3,445z"/>
			</g>
			<path class="st34" d="M231.5,437.5c0,0-1.9-2.4-2.6-4.1c-0.6-1.7-0.4-2.9,1.5-4.9c1.9-1.9,9.3-8.7,10.7-10s2.9-0.7,3.6,0.1
				c0.8,0.8,3.6,4.2,3.6,4.2S243.4,431.9,231.5,437.5z"/>
			<path class="st24" d="M231.5,437.5c0,0-0.8,2.6-0.8,6.4s1.3,56.3,2.2,82.6c0.9,26.3,1.3,69.2,1.3,72.5c0,3.2,1.5,4.3,4.1,3.9
				c2.6-0.4,34.3-7.3,45.1-9.9c0,0,4.1-2.4,4.1-6.7s-5-81.5-5-81.5s-9.8-51.7,6.5-66.6c0,0-1.6-2.7-4.8-5.2
				c-3.2-2.5-35.9-10.2-35.9-10.2L231.5,437.5z"/>
			<path class="st34" d="M195,437.5c0,0,1.9-2.4,2.6-4.1c0.6-1.7,0.4-2.9-1.5-4.9c-1.9-1.9-9.3-8.7-10.7-10s-2.9-0.7-3.6,0.1
				c-0.8,0.8-3.6,4.2-3.6,4.2S183.1,431.9,195,437.5z"/>
			<path class="st24" d="M195,437.5c0,0,0.8,2.6,0.8,6.4s-1.3,56.3-2.2,82.6c-0.9,26.3-1.3,69.2-1.3,72.5c0,3.2-1.5,4.3-4.1,3.9
				c-2.6-0.4-34.3-7.3-45.1-9.9c0,0-4.1-2.4-4.1-6.7s5-81.5,5-81.5s9.8-51.7-6.5-66.6c0,0,1.6-2.7,4.8-5.2s35.9-10.2,35.9-10.2
				L195,437.5z"/>
			<path class="st37" d="M230.7,410.4V402c-5.1,3.3-10.9,5.3-17.4,5.3c-0.1,0-0.2,0-0.2,0c-0.1,0-0.2,0-0.2,0
				c-6.2-0.1-12.2-2.4-17.4-6.2v10.2c-0.1,1.3-0.7,7-3.6,8.5c-0.5,0.3-1.8,0.7-3.7,1.2c0.4,0.3,2.3,2.3,2.7,2.7L230.7,410.4z"/>
			<path class="st35" d="M174.5,359.5c0,0,8.7-3.5,5.2-13.7c0,0,9.8-6.5,7.5-24c1.1,4.3,14.4,19.6,29.3,15
				c9.3-2.9,4.5-10.1,4.5-10.1s7.5,9.3,21.2,8.1c0,0-3.5,11.2,6,13.7c0,0-1.1,10.4,3.3,11.2c0,0,0.9-9.2,4.9-7
				c0,0,5.8-28.2,3.3-43.5c-2.6-15.2-42.6-27.6-54.1-27.6s-30.5,13.5-31.6,23.6c0,0-12.7,2.9-13.5,9.8c-0.9,6.9,7.4,38.7,7.4,38.7
				S174.5,351.6,174.5,359.5z"/>
			<path class="st35" d="M192.8,353.9c-1.1,0-2.2,0.4-3,1c-0.3-0.1-0.7-0.3-0.9-0.7c-0.1-0.3-0.5-0.4-0.8-0.2
				c-0.3,0.1-0.4,0.5-0.2,0.8c0.3,0.5,0.7,0.9,1.1,1.1v0.1c-0.5-0.1-1-0.4-1.4-0.9c-0.2-0.2-0.6-0.3-0.8-0.1
				c-0.2,0.2-0.3,0.6-0.1,0.8c0.5,0.6,1.1,1,1.7,1.2l0,0c-0.5,0-1.1-0.2-1.7-0.6c-0.3-0.2-0.6-0.1-0.8,0.2c-0.2,0.3-0.1,0.6,0.2,0.8
				c0.6,0.4,1.2,0.6,1.8,0.7h0.2c-0.1,0.3-0.1,0.6-0.1,0.9c0,2.7,2.2,5,5,5c2.7,0,5-2.2,5-5C197.8,356.2,195.6,353.9,192.8,353.9
				L192.8,353.9z M233.2,353.9c-2.7,0-5,2.2-5,5c0,2.7,2.2,5,5,5c2.7,0,5-2.2,5-5c0-0.3,0-0.6-0.1-0.9h0.1c0.6-0.1,1.2-0.3,1.8-0.7
				c0.3-0.2,0.3-0.5,0.2-0.8c-0.2-0.3-0.5-0.3-0.8-0.2c-0.6,0.4-1.1,0.5-1.7,0.6l0,0c0.6-0.2,1.1-0.6,1.6-1.2
				c0.2-0.2,0.2-0.6-0.1-0.8c-0.2-0.2-0.6-0.2-0.8,0.1c-0.4,0.5-0.9,0.7-1.3,0.9l-0.1-0.1c0.4-0.2,0.8-0.5,1-1
				c0.1-0.3,0-0.6-0.2-0.8c-0.3-0.1-0.6,0-0.8,0.2c-0.2,0.4-0.6,0.6-0.9,0.7C235.4,354.3,234.3,353.9,233.2,353.9z"/>
			<g>
				<path class="st40" d="M242,367.5c-0.1,0.3-0.4,0.5-0.8,0.4c-0.3-0.1-0.5-0.4-0.4-0.8c0,0,9.1-15.4,13.9-14.6l-1.4,1.1
					C248.6,357.9,242.1,367.4,242,367.5z"/>
				<path class="st40" d="M184.2,367.2c0.1,0.3,0.4,0.5,0.8,0.4c0.3-0.1,0.5-0.4,0.4-0.8c0,0-9.2-13.9-14-13.1l0.7,0.3l0.6,0.4
					C177.5,358.8,184.2,367.2,184.2,367.2z"/>
				<path class="st40" d="M185.6,390.8c0.3,0,0.7-0.2,0.7-0.6c0-0.3-0.2-0.7-0.6-0.7h-0.2c-7-0.9-13.2-11.3-13.7-17.5
					c-0.4-0.2-0.9-0.5-1.3-0.8c0.3,7,6.9,18.6,14.8,19.6H185.6z"/>
				<path class="st40" d="M240.2,390.8c-0.3,0-0.7-0.2-0.7-0.6c0-0.3,0.2-0.7,0.6-0.7h0.2c7-0.9,14.5-11.3,14.9-17.5
					c0.4-0.2,0.9-0.5,1.3-0.8c-0.3,7-8.2,18.6-16.1,19.6H240.2z"/>
				<g>
					<path class="st1" d="M213,364.5l28.6,1.5c0,0,1.1,0.3,1.1,1.4c0,1-1,21.3-1,21.3s0,1.8-1.2,3.4c-1.1,1.6-10.1,16.4-27.5,16.4
						c-17.3,0-26.3-14.8-27.5-16.4c-1.1-1.6-1.2-3.4-1.2-3.4s-1-20.2-1-21.3c0-1,1.1-1.4,1.1-1.4L213,364.5z"/>
					<path class="st11" d="M213,366.7l-27.5,1.5c0.2,6.8,0.7,13.6,1,20.4c0,0.7,0.4,1.6,0.8,2.2c0.8,1.1,1.4,2.1,2.3,3.1
						c1.5,1.9,3.2,3.7,5,5.3c5.2,4.5,11.4,7.1,18.4,7.1s13.1-2.6,18.4-7.1c1.8-1.6,3.5-3.4,5-5.3c0.8-1,1.5-2.1,2.3-3.1
						c0.4-0.6,0.7-1.5,0.8-2.2c0.3-6.8,0.8-13.6,1-20.4L213,366.7z"/>
					<path class="st40" d="M185.9,377c0.1,2.7,0.3,5.3,0.4,8l25.3-9.8L185.9,377L185.9,377z M186.5,387.7v0.9c0,0.7,0.4,1.6,0.8,2.2
						c0.8,1.1,1.4,2.1,2.3,3.1c1.5,1.9,3.2,3.7,5,5.3c5.2,4.5,11.4,7.1,18.4,7.1s13.1-2.6,18.4-7.1c1.8-1.6,3.5-3.4,5-5.3
						c0.8-1,1.5-2.1,2.3-3.1c0.1-0.2,0.2-0.3,0.3-0.5c0,0-4.5,4.8-19.9,4.8C203.6,395.1,186.5,387.7,186.5,387.7L186.5,387.7z
						 M239.5,386.7c0.1-1.9,0.2-3.9,0.3-5.9l-18.9-1.3L239.5,386.7z"/>
				</g>
			</g>
			<path class="st34" d="M142.3,432.9c0,0-9,3-13.3,11.6s-34.5,78.2-35.9,85.6c-1.4,7.2-3.8,27.6,9.3,74.9H139
				c-1.4-6.1-9.5-56.6-10.7-58l15.9-43.2C144.2,503.8,162.8,451.7,142.3,432.9z"/>
			<path class="st34" d="M284.2,432.9c0,0,9,3,13.3,11.6s34.5,78.2,35.9,85.6c1.4,7.2,3.8,27.6-9.3,74.9h-36.6
				c1.4-6.1,9.5-56.6,10.7-58l-15.9-43.2C282.3,503.8,263.7,451.7,284.2,432.9z"/>
		</g>
		<g>
			<path class="st41" d="M565.2,361.5l-6.8,2.9c0,0,0.9,29.5-5.9,49.8c-6.9,20.3-1.4,37.5,9.7,33.4c0,0,0.6,12.4,9.8,15.2
				c9.2,2.9,20.6,5.1,20.6,5.1l30.9,1.9c0,0,29.3,9.2,31.5-29.8c0,0,10-0.5,10.1-14c0.2-13.5-13.6-35.6-13.6-63.6
				C651.6,334.4,565.2,361.5,565.2,361.5L565.2,361.5z M561.1,338.3l-2.2-3.8c0,0-4.1-22.9-3.8-30.9s7.4-18,27.7-27.2
				s36.3,9.7,40.9,13.7c0,0,21.7-0.9,27.2,5.1c5.4,6,1.3,41.5,1.3,41.5L561.1,338.3z"/>
			<path class="st36" d="M550.8,604.8c3.9-20.6,1.1-39.6-2.9-67.7c-7.6-14.7-13.4-41.5-9.4-60.7s2.9-40.9,2.9-40.9
				s39.3-14.4,42.7-16c3.3-1.7,3.7-8.7,3.7-8.7l17.7-3.8l17.7,3.8c0,0,0.3,7,3.7,8.7c3.3,1.7,41.2,10,41.2,10s0.5,27.7,4.5,46.9
				c4,19.2-1.8,46-9.4,60.7c-4,28.1-6.8,47.1-2.9,67.7H550.8z"/>
			<path class="st36" d="M605.5,366.2L605.5,366.2c9.7,0,17.7,8,17.7,17.7v33.8c0,9.7-8,17.7-17.7,17.7l0,0c-9.7,0-17.7-8-17.7-17.7
				v-33.8C587.8,374.2,595.8,366.2,605.5,366.2z"/>
			<g>
				<path class="st37" d="M644.1,350.6c0.3,0,0.6,0.1,0.8,0.1l0,0l0,0c5,1.1,8.8,5.5,8.9,10.9c0.1,6.2-4.9,11.3-11.1,11.4
					c-6.2,0.1-11.3-4.9-11.4-11.1c0-3.6,1.6-6.8,4.2-8.9c-0.3,3.3,0.2,7.4,4.4,7.9l-0.1-6.5C639.8,351.7,642.3,350.6,644.1,350.6z"
					/>
				<path class="st37" d="M567.1,350.1c-0.3,0-0.6,0.1-0.8,0.1l0,0l0,0c-5,1-8.9,5.4-9,10.7c-0.2,6.2,4.7,11.4,11,11.5
					c6.2,0.2,11.4-4.7,11.5-11c0.1-3.6-1.5-6.9-4.1-9c0.3,3.3-0.3,7.4-4.5,7.8l0.2-6.5C571.4,351.3,568.9,350,567.1,350.1z"/>
			</g>
			<path class="st36" d="M605.5,407c-21,0-38.5-25.9-38.5-46.4v-27.2c0-21.2,17.3-38.5,38.5-38.5l0,0c21.2,0,38.5,17.3,38.5,38.5
				V360C644,382.5,628.8,407,605.5,407z"/>
			<path class="st42" d="M628.3,319.6c0,0-6.5-2.9-14,1.4s-18.7,22-39.6,19.7c-20.9-2.3,27.3-22.2,27.3-22.2s24.3-12.2,25.6-11.4
				C628.9,307.9,628.3,319.6,628.3,319.6z"/>
			<g>
				
					<ellipse transform="matrix(0.9998 -1.853722e-02 1.853722e-02 0.9998 -6.8294 11.8073)" class="st24" cx="633.5" cy="374.3" rx="6.4" ry="6.4"/>
				
					<ellipse transform="matrix(0.9998 -1.846493e-02 1.846493e-02 0.9998 -6.8312 10.7272)" class="st24" cx="577.5" cy="375.3" rx="6.4" ry="6.4"/>
			</g>
			<path class="st35" d="M594.1,341.2c0.8,0.4,1.2,1.3,0.8,2.1c-0.4,0.8-1.3,1.2-2.1,0.8c0,0-4.9-2.3-9.5,0.6
				c-0.8,0.5-1.8,0.2-2.2-0.5c-0.5-0.8-0.2-1.8,0.5-2.2C587.6,338.1,594,341.2,594.1,341.2z"/>
			<path class="st35" d="M632.2,341.9c0.8,0.4,1.1,1.4,0.6,2.2c-0.4,0.8-1.4,1.1-2.2,0.6c0,0-4.7-2.7-9.5-0.2
				c-0.8,0.4-1.8,0.1-2.2-0.7c-0.4-0.8-0.1-1.8,0.7-2.2C626,338.3,632.1,341.9,632.2,341.9z"/>
			<path class="st1" d="M596,379.3c-0.1,6.3,5,11.5,11.3,11.5c6.3,0.1,11.5-5,11.5-11.3l0,0c0-1.1-0.9-2-1.9-2l-18.8-0.2
				C596.9,377.3,596,378.2,596,379.3L596,379.3z"/>
			<path class="st1" d="M600.1,388.2c1.9,1.6,4.4,2.6,7.1,2.6c2.2,0,4.3-0.6,6-1.7c-0.9-2.3-3.4-4.1-6.5-4.3
				C603.9,384.7,601.3,386.1,600.1,388.2z"/>
			<path class="st1" d="M616.2,377.5l-17.7-0.2c-0.3,2,0.6,3.9,1.9,4.4c1.6,0.5,14.4,0.3,15.3-0.7
				C616.1,380.6,616.2,379,616.2,377.5z"/>
			<path class="st38" d="M608.1,361.4c0.8,2.3,2.3,6.6,2.1,7.3c-0.2,0.9-5.1,1.2-6.4-0.2c-0.9-0.9,0.2-4.5,1.1-6.8
				C606.3,358.4,607,358.3,608.1,361.4z"/>
			<path class="st1" d="M647.3,424.8l-7.6,102.5l15.6,0.4c0,0,3,49.5,8.7,77.2H547.4c5.7-27.6,8.7-77.2,8.7-77.2l15.6-0.4
				l-7.6-102.5C586.4,461.2,625.1,461.2,647.3,424.8z"/>
			<path class="st1" d="M624,437.2c0,0-1.9-2.4-2.6-4.1c-0.6-1.7-0.4-2.9,1.5-4.9c1.9-1.9,9.3-8.7,10.7-10s2.9-0.7,3.6,0.1
				c0.8,0.8,3.6,4.2,3.6,4.2S635.9,431.7,624,437.2z"/>
			<path class="st43" d="M624,437.2c-0.2,0.8-16.2,75.8-18.9,93.2c-0.2,1.6-5.5,30.8-5.5,31.3c0,0.7,8.7,23.3,16.2,43.3h66.9
				c-4.2-23.1-11.5-61.5-11.5-62.8c-0.1-2.8,3.8-37.8,3.8-37.8s-9.8-51.7,6.5-66.6c0,0-1.6-2.7-4.8-5.2s-35.9-10.2-35.9-10.2
				L624,437.2z"/>
			<path class="st44" d="M607.9,515.2c-1.3,6.6-2.3,12-2.8,15.3c-0.2,1.6-5.5,30.8-5.5,31.3c0,0.7,8.7,23.3,16.2,43.3h20.5
				l-24.9-69.5l13.5-26.4l-8.7-0.8C616.3,508.4,612.7,511.2,607.9,515.2z"/>
			<path class="st0" d="M617.5,468.2c-5.6,26.8-12.7,61.7-12.7,65.5l34.9-42.3l-8-30.6C631.6,460.8,625.2,464.1,617.5,468.2z"/>
			<path class="st37" d="M587.9,419.2l26.3-10.4l9-3.5v-3.6c-5.1,3.3-10.9,5.3-17.4,5.3c-0.1,0-0.2,0-0.2,0c-0.1,0-0.2,0-0.2,0
				c-6.2-0.1-12.2-2.4-17.4-6.2V411c-0.1,1.3-0.7,7-3.6,8.4c-0.5,0.3-1.8,0.7-3.7,1.2c0.4,0.3,0.7,0.7,1.1,1.1L587.9,419.2z"/>
			<path class="st35" d="M585.3,351.5c-1.1,0-2.2,0.4-3,1c-0.3-0.1-0.7-0.3-0.9-0.7c-0.1-0.3-0.5-0.4-0.8-0.3s-0.4,0.5-0.3,0.8
				c0.3,0.5,0.7,0.9,1.1,1.1v0.1c-0.5-0.1-1-0.4-1.4-0.9c-0.2-0.2-0.6-0.3-0.8-0.1c-0.2,0.2-0.3,0.6-0.1,0.8c0.5,0.6,1.1,1,1.7,1.2
				l0,0c-0.5,0-1.1-0.2-1.7-0.6c-0.3-0.2-0.6-0.1-0.8,0.2c-0.2,0.3-0.1,0.6,0.2,0.8c0.6,0.4,1.2,0.6,1.8,0.7h0.2
				c-0.1,0.3-0.1,0.6-0.1,0.9c0,2.7,2.2,5,5,5c2.7,0,5-2.2,5-5C590.3,353.7,588.1,351.5,585.3,351.5L585.3,351.5z M625.7,351.5
				c-2.7,0-5,2.2-5,5c0,2.7,2.2,5,5,5c2.7,0,5-2.2,5-5c0-0.3,0-0.6-0.1-0.9h0.1c0.6-0.1,1.2-0.3,1.8-0.7c0.3-0.2,0.3-0.5,0.2-0.8
				c-0.2-0.3-0.5-0.3-0.8-0.2c-0.6,0.4-1.1,0.5-1.7,0.6l0,0c0.6-0.2,1.1-0.6,1.6-1.2c0.2-0.2,0.2-0.6-0.1-0.8
				c-0.2-0.2-0.6-0.2-0.8,0.1c-0.4,0.5-0.9,0.7-1.3,0.9l-0.1-0.1c0.4-0.2,0.8-0.5,1-1c0.1-0.3,0-0.6-0.3-0.8c-0.3-0.1-0.6,0-0.8,0.3
				c-0.2,0.4-0.6,0.6-0.9,0.7C627.9,351.9,626.8,351.5,625.7,351.5z"/>
			<g>
				<path class="st40" d="M634.6,367.2c-0.1,0.3-0.4,0.5-0.8,0.4c-0.3-0.1-0.5-0.4-0.4-0.8c0,0,9.1-15.4,13.9-14.6l-1.4,1.1
					C641.1,357.7,634.6,367.2,634.6,367.2z"/>
				<path class="st40" d="M576.7,367c0.1,0.3,0.4,0.5,0.8,0.4c0.3-0.1,0.5-0.4,0.4-0.8c0,0-9.2-13.9-14-13.1l0.7,0.3l0.6,0.4
					C570,358.5,576.7,367,576.7,367z"/>
				<path class="st40" d="M578.2,390.5c0.3,0,0.7-0.2,0.7-0.6c0-0.3-0.2-0.7-0.6-0.7h-0.2c-7-0.9-13.2-11.3-13.7-17.5
					c-0.4-0.2-0.9-0.5-1.3-0.8c0.3,7,6.9,18.6,14.8,19.6H578.2z"/>
				<path class="st40" d="M632.7,390.5c-0.3,0-0.7-0.2-0.7-0.6c0-0.3,0.2-0.7,0.6-0.7h0.2c7-0.9,14.5-11.3,14.9-17.5
					c0.4-0.2,0.9-0.5,1.3-0.8c-0.3,7-8.2,18.6-16.1,19.6H632.7z"/>
				<g>
					<path class="st1" d="M605.5,364.2l28.6,1.5c0,0,1.1,0.3,1.1,1.4s-1,21.3-1,21.3s0,1.8-1.2,3.4c-1.1,1.6-10.1,16.4-27.5,16.4
						c-17.3,0-26.3-14.8-27.5-16.4c-1.1-1.6-1.2-3.4-1.2-3.4s-1-20.2-1-21.3c0-1,1.1-1.4,1.1-1.4L605.5,364.2z"/>
					<path class="st11" d="M605.5,366.4l-27.5,1.5c0.2,6.8,0.7,13.6,1,20.4c0,0.7,0.3,1.6,0.8,2.2c0.8,1.1,1.4,2.1,2.3,3.1
						c1.5,1.9,3.2,3.7,5,5.3c5.2,4.5,11.4,7.1,18.4,7.1s13.1-2.6,18.4-7.1c1.8-1.6,3.5-3.4,5-5.3c0.8-1,1.5-2.1,2.3-3.1
						c0.4-0.6,0.7-1.5,0.8-2.2c0.3-6.8,0.8-13.6,1-20.4L605.5,366.4z"/>
					<path class="st40" d="M578.5,376.7c0.1,2.7,0.3,5.3,0.4,8l25.3-9.8L578.5,376.7L578.5,376.7z M579,387.5v0.9
						c0,0.7,0.3,1.6,0.8,2.2c0.8,1.1,1.4,2.1,2.3,3.1c1.5,1.9,3.2,3.7,5,5.3c5.2,4.5,11.4,7.1,18.4,7.1s13.1-2.6,18.4-7.1
						c1.8-1.6,3.5-3.4,5-5.3c0.8-1,1.5-2.1,2.3-3.1c0.1-0.2,0.2-0.3,0.3-0.5c0,0-4.5,4.8-19.9,4.8C596.1,394.8,579,387.5,579,387.5
						L579,387.5z M632.1,386.5c0.1-1.9,0.2-3.9,0.3-5.9l-18.9-1.3L632.1,386.5z"/>
				</g>
			</g>
			<path class="st45" d="M676.7,432.7c0,0,9,3,13.3,11.6s34.5,78.2,35.9,85.6c1.4,7.2,3.8,27.6-9.3,74.9H680
				c1.4-6.1,9.5-56.6,10.7-58l-17.4-34.9C673.3,511.9,656.2,451.5,676.7,432.7z"/>
			<path class="st41" d="M567,360.6c0,0,4.5-3.2,4.5-11c0,0,7.1-6.6,6.6-13.7c-0.6-7-8.5-16.3-8.5-16.3s-7.1,4.4-9.7,9.3
				c-2.6,4.9,0.7,24.9,0.7,24.9S565.5,350.2,567,360.6z"/>
			<path class="st41" d="M644,360.6c0,0-4.5-3.2-4.5-11c0,0-7.1-6.6-6.6-13.7c0.6-7,8.5-16.3,8.5-16.3s7.1,4.4,9.7,9.3
				c2.6,4.9-0.7,24.9-0.7,24.9S645.6,350.2,644,360.6z"/>
			<path class="st41" d="M625.9,317.2l-0.1-0.1c-0.2,0.1-0.4,0.1-0.6,0c-5.7-3.3-10.9,1.5-17,7.1c-6.2,5.7-13.3,12.1-22.9,12.5
				c-0.9,0.2-1.7,0.4-2.6,0.5c-16.4,1.9-23.9-20.4-8.7-35.2c16.3-15.8,51.9-18.2,55.9,7.3C629.8,309.3,630.6,314.7,625.9,317.2
				L625.9,317.2z M615.6,316.3c-8.8,2.5-16,12.7-24.9,17.9c6.4-2,11.7-6.8,16.4-11.1C610.1,320.4,612.9,317.9,615.6,316.3z"/>
			<path class="st41" d="M625.2,317.1c0,0-0.9,18.8,9.9,21.5c10.7,2.7,14.4-11.2,9.2-24.6c-5.3-13.4-18.6-19.4-21.3-18.4
				C620.1,296.6,625.2,317.1,625.2,317.1z"/>
			<path class="st46" d="M624,437.2c-0.1,0.5-5.9,27.6-11.1,53l38.7-40.9l-6.3-25.7c-2.8-0.7-4.6-1.1-4.6-1.1L624,437.2z"/>
			<path class="st1" d="M587,437.2c0,0,1.9-2.4,2.6-4.1c0.6-1.7,0.4-2.9-1.5-4.9c-1.9-1.9-9.3-8.7-10.7-10s-2.9-0.7-3.6,0.1
				c-0.8,0.8-3.6,4.2-3.6,4.2S575.1,431.7,587,437.2z"/>
			<path class="st43" d="M587,437.2c0.2,0.9,19.2,90.4,19.2,96.5c0,0.9-0.1,41.9-0.1,71.3h-77.8c4.2-23.1,11.5-61.5,11.5-62.8
				c0.1-2.8-3.8-37.8-3.8-37.8s9.8-51.7-6.5-66.6c0,0,1.6-2.7,4.8-5.2s35.9-10.2,35.9-10.2L587,437.2z"/>
			<path class="st0" d="M593.6,468.2c5.6,26.8,12.7,61.7,12.7,65.5l-34.9-42.3l8-30.6C579.4,460.8,585.8,464.1,593.6,468.2z"/>
			<path class="st45" d="M534.3,432.7c0,0-9,3-13.3,11.6s-34.5,78.2-35.9,85.6c-1.4,7.2-3.8,27.6,9.3,74.9H531
				c-1.4-6.1-9.5-56.6-10.7-58l17.5-36.4C537.9,510.4,554.9,451.5,534.3,432.7z"/>
			<path class="st46" d="M587,437.2c0.1,0.5,5.9,27.6,11.1,53l-38.7-40.9l6.3-25.7c2.8-0.7,4.6-1.1,4.6-1.1L587,437.2z"/>
			<circle class="st1" cx="600.7" cy="540.4" r="2"/>
			<circle class="st1" cx="600.7" cy="559.7" r="2"/>
		</g>
		<g>
			<path class="st36" d="M410.1,322.3L410.1,322.3c12.2,0,22.1,17,22.1,37.8v30.7c0,20.8-10,37.8-22.1,37.8l0,0
				c-12.2,0-22.1-17-22.1-37.8v-30.7C388,339.3,398,322.3,410.1,322.3z"/>
			<path class="st19" d="M480.1,397.4c0,0,12.9,3.5,20.4,19.5c7.4,16,25.4,66.6,29.9,80.8s-11.9,74.9-32.7,107.3h-27.4
				c0,0,26.5-80.9,27.6-88.7s-25.1-53.1-25.1-53.1C465.6,440.5,466.1,417.8,480.1,397.4z"/>
			<path class="st47" d="M530.3,514.7c-3.4,24.4-16.7,65.6-32.6,90.3h-17c-2.7-3.7-4.7-6.5-4.7-6.5l2.6-19.2
				C509.2,610.7,526.9,534,530.3,514.7z"/>
			<path class="st1" d="M415.9,399.9l-3.6,0.4l-2.2,1.5l-2.2-1.5l-3.6-0.4l-21.1-16.6l-45.9,18.6l-2.3,44
				c3.4,43.7,13.7,113.8,13.7,117.2c0,3.4-7.3,27.1-11.8,41.6H410h72.6c-4.5-14.4-11.8-38.2-11.8-41.6c0-3.4,10.8-73.5,14.2-117.2
				l-2.3-44l-45.9-18.6L415.9,399.9z"/>
			<polygon class="st28" points="415.1,411.4 416.1,416.7 426.1,547.1 410.1,580.9 394.2,547.1 404.2,416.7 405.2,411.4 
				410.1,414.7 			"/>
			<path class="st20" d="M415.1,411.4l1,5.3l10,130.3l-15.9,33.9c0,0,9.4-29.2,9.7-33.7c0.4-4.5-5.6-128.8-7.4-130s-5.3-1-5.3-1
				l2.2-2l0.7,0.4L415.1,411.4z"/>
			<path class="st45" d="M405.8,400.7l2.1-0.3c0,0,0.4,0.4,0.5,1.1s0.1,2.7,0.1,2.7l-1.6,0.5c0,0-3.2,0.1-3.2,0
				C403.7,404.4,405.8,400.7,405.8,400.7z"/>
			<path class="st45" d="M414.5,400.7l-2.1-0.3c0,0-0.4,0.4-0.5,1.1s-0.1,2.7-0.1,2.7l1.6,0.5c0,0,3.2,0.1,3.2,0
				C416.6,404.4,414.5,400.7,414.5,400.7z"/>
			<path class="st28" d="M404.2,416.7l-4.7-10.2c4-3.8,17.2-3.8,21.2,0l-4.7,10.2C412.8,415.8,407.5,415.8,404.2,416.7z"/>
			<path class="st20" d="M401.4,410.5l-1.9-4.1c1.5-1.4,4.1-2.2,7-2.6L401.4,410.5L401.4,410.5z M410.2,403.6c4.3,0,8.5,1,10.5,2.8
				l-4.7,10.2c-1.3-0.3-2.8-0.5-4.5-0.6c0.9-0.7,2-1.7,2.1-1.9c0.1-0.4,0-9.2-0.4-9.3L410.2,403.6z"/>
			<path class="st48" d="M432.3,374.5c0,0,1.9-0.3,2.6,0s5.5,13.6,4.6,16.3c-0.9,2.7-13,24.8-13,24.8s-0.9,1.2-2.2,0
				c-1.4-1.1-11.9-15.2-11.9-15.2l19.9-24.1V374.5z"/>
			<path class="st19" d="M438.8,382.5l40.6,14.7c0.8,0.3,9.3,3.7,10.3,15.8c0.5,5.7-3.5,32.8-6.9,64.5c-4.1,39-7.8,83.4-7.8,85.7
				c0,4.1,7.3,27.4,11.8,41.8h-59.1L438,384.1C438,384.1,438,382.9,438.8,382.5z"/>
			<path class="st48" d="M388,374.4c0,0-1.9-0.3-2.6,0s-2.9,10.1-4.3,12.1c0,0-1.3,1.6-0.3,4.3c0.9,2.7,13,24.8,13,24.8
				s0.9,1.2,2.2,0c1.4-1.1,11.9-15.2,11.9-15.2L388,376.2V374.4z"/>
			<path class="st19" d="M381.4,383.7l-40.6,13.4c-0.8,0.3-9.3,3.7-10.3,15.8c-0.5,5.9,4.1,34.1,7.6,66.7
				c4.1,38.2,7.1,81.2,7.1,83.4c0,4.1-7.3,27.4-11.8,41.8h59.1l-11.2-214.7C381.4,390.2,382.2,384.1,381.4,383.7z"/>
			<path class="st47" d="M488.4,401.8c-3.7,10.5-14,45.1-4.2,80.7c0.1,0.3-0.1,0.5-0.3,0.6c-0.5-1-1-1.9-1.5-2.8
				c-8.9-35.5,1.5-69.4,5-79.3C487.7,401.3,488.1,401.6,488.4,401.8z"/>
			<path class="st19" d="M340.9,397.4c0,0-13,3.5-20.4,19.5s-25.4,66.6-29.9,80.8s11.9,74.9,32.7,107.3h27.4
				c0,0-26.5-80.9-27.6-88.7s25.1-53.1,25.1-53.1C355.4,440.5,354.9,417.8,340.9,397.4z"/>
			<path class="st47" d="M290.7,514.7c3.4,24.4,16.7,65.6,32.6,90.3h12.6c0.2-0.3,5.1-25.8,5.4-28.4c-4.9,3.5-9.1,7.4-19.9,3.8
				C307.7,575.9,294.2,534.6,290.7,514.7z"/>
			<path class="st47" d="M323.6,518.6c-0.3-1-0.4-1.8-0.5-2.3c-0.7-4.6,7.2-21.4,14.5-35.1c1.2-2.2,2.1,20.8,3.1,18.9
				c-0.4-4.5,0.5-32.9,0.4-33.1c-0.3-1.3-18.3,35.4-19.3,38.2C320.8,508.1,323.6,518.6,323.6,518.6L323.6,518.6z"/>
			<path class="st47" d="M332.6,401.8c3.7,10.5,14,45.1,4.2,80.7c-0.1,0.3,0.1,0.5,0.3,0.6c0.5-1,1-1.9,1.5-2.8
				c8.9-35.5-1.5-69.4-5-79.3C333.3,401.3,332.9,401.6,332.6,401.8z"/>
			<g>
				<path class="st47" d="M439.1,382.9l10.8,4c2.9,6.5,13.1,29.3,12.6,30.1c-0.5,0.9-15.9,3.5-15.9,3.5s11.8,4.9,12.2,5.1
					c0.4,0.3,1.1,0.8,0.8,2.5c-0.2,1.5-24.2,108.1-30.5,136.1l9.2-179.9C438.3,384.5,438.3,383.4,439.1,382.9z"/>
				<path class="st49" d="M440.2,417.3l15.5,5.6c0,0,1.6,0.9,1.4,1.9c-0.1,1-27.9,133.5-27.9,133.5l5-139.6L440.2,417.3z"/>
				<path class="st29" d="M431.1,507.4l3.2-88.7l0.9-0.2c-1.7,36.1-4.1,89-4.1,89V507.4z"/>
				<path class="st1" d="M438.4,382.3l8,2.8c0,0,0.7,0.2,0.9,1c0.2,0.8,11.3,26.8,11.6,27.7c0.3,0.9-0.5,1.9-2,2.3
					c-1.5,0.5-22.7,6.2-22.7,6.2l3.1-38.9C437.3,383.5,437.4,382.3,438.4,382.3z"/>
			</g>
			<g>
				<path class="st47" d="M380.4,383.5l-10,3.4c-2.9,6.5-13.1,29.3-12.6,30.1c0.5,0.9,15.9,3.5,15.9,3.5s-11.8,4.9-12.2,5.1
					c-0.4,0.3-1.1,0.8-0.8,2.5c0.2,1.5,24.2,108.1,30.5,136.1L380.7,388C380.7,388,381.2,384,380.4,383.5z"/>
				<path class="st49" d="M380,417.3l-15.5,5.6c0,0-1.6,0.9-1.4,1.9c0.1,1,27.9,133.5,27.9,133.5l-5-139.6L380,417.3z"/>
				<path class="st29" d="M389.2,507.4l-3.2-88.7l-0.9-0.2c1.7,36.1,4.1,89,4.1,89V507.4z"/>
				<path class="st1" d="M382.2,382.8l-8.3,2.3c0,0-0.7,0.2-0.9,1c-0.2,0.8-11.3,26.8-11.6,27.7c-0.3,0.9,0.5,1.9,2,2.3
					c1.5,0.5,22.7,6.2,22.7,6.2S382.8,391.7,382.2,382.8z"/>
			</g>
			<g>
				<path class="st37" d="M450.3,316c0.3,0,0.6,0.1,0.9,0.2l0,0l0,0c5.4,1.2,9.4,5.9,9.5,11.6c0.1,6.7-5.3,12.1-11.9,12.2
					c-6.7,0.1-12.1-5.3-12.2-11.9c0-3.9,1.7-7.3,4.5-9.6c-0.3,3.6,0.2,8,4.7,8.4l-0.1-7C445.7,317.2,448.4,315.9,450.3,316z"/>
				<path class="st37" d="M370.9,316c-0.3,0-0.6,0.1-0.9,0.1l0,0l0,0c-5.4,1.1-9.5,5.8-9.6,11.5c-0.2,6.7,5.1,12.2,11.7,12.4
					c6.7,0.2,12.2-5.1,12.4-11.7c0.1-3.9-1.6-7.4-4.4-9.6c0.3,3.6-0.3,8-4.9,8.4l0.2-6.9C375.4,317.3,372.8,315.9,370.9,316z"/>
			</g>
			<path class="st36" d="M410.5,376.4c-22.5,0-41.3-27.8-41.3-49.7v-29.1c0-22.7,18.6-41.3,41.3-41.3l0,0
				c22.7,0,41.3,18.6,41.3,41.3v28.5C451.8,350.1,435.4,376.4,410.5,376.4z"/>
			<path class="st42" d="M369.7,288.9c3-19.8,20.2-35.1,40.8-35.1l0,0c19.9,0,36.7,14.3,40.5,33.2c-5.7,0-12.1,7.2-12.1,7.2
				c-38.6,18.4-62.4,0.2-62.4,0.2C373.8,292.7,371.5,290.8,369.7,288.9z"/>
			<g>
				
					<ellipse transform="matrix(0.9998 -1.850347e-02 1.850347e-02 0.9998 -6.0789 8.1797)" class="st24" cx="439" cy="332.6" rx="7" ry="7"/>
				
					<ellipse transform="matrix(0.9998 -1.846451e-02 1.846451e-02 0.9998 -6.0963 7.1101)" class="st24" cx="382" cy="333.7" rx="7" ry="7"/>
			</g>
			<g>
				<path class="st35" d="M396.8,306.5c0.9,0.4,1.3,1.4,0.9,2.3s-1.4,1.3-2.3,0.9c0,0-5.2-2.5-10.2,0.7c-0.8,0.5-1.9,0.3-2.4-0.5
					s-0.3-1.9,0.5-2.4C389.9,303.2,396.8,306.5,396.8,306.5z"/>
				<path class="st35" d="M437.6,307.2c0.8,0.5,1.1,1.5,0.7,2.4c-0.5,0.8-1.5,1.1-2.4,0.7c0,0-5-2.9-10.2-0.2
					c-0.8,0.4-1.9,0.1-2.3-0.7c-0.4-0.8-0.1-1.9,0.7-2.3C431,303.4,437.6,307.2,437.6,307.2z"/>
			</g>
			<path class="st50" d="M411.6,327.6c0.8,2.1,2.1,5.9,2,6.5c-0.2,0.9-4.7,1.7-5.9,0.5c-0.8-0.8,0.2-4.2,1.1-6.5
				C409.9,325.1,410.6,324.8,411.6,327.6z"/>
			<g>
				<path class="st51" d="M419.2,344.1c0,4.8-3.9,8.7-8.7,8.7c-4.8,0-8.7-3.9-8.7-8.7c0-0.9,0.7-1.6,1.6-1.6h14.2
					C418.5,342.5,419.2,343.2,419.2,344.1z"/>
				<path class="st1" d="M404.3,342.5h12.4v1.5c0,0.8-0.6,1.4-1.4,1.4h-9.6c-0.8,0-1.4-0.6-1.4-1.4V342.5z"/>
				<path class="st52" d="M416.8,350.1c-1.6,1.7-3.8,2.7-6.3,2.7s-4.7-1-6.3-2.7c1.6-1.7,3.8-2.7,6.3-2.7S415.2,348.4,416.8,350.1z"
					/>
			</g>
			<g>
				<path class="st35" d="M390.3,324.6c2.7,0,5-2.2,5-5c0-2.7-2.2-5-5-5c-2.7,0-5,2.2-5,5S387.6,324.6,390.3,324.6z"/>
				<path class="st35" d="M430.7,324.6c2.7,0,5-2.2,5-5c0-2.7-2.2-5-5-5c-2.7,0-5,2.2-5,5S427.9,324.6,430.7,324.6z"/>
			</g>
			<path d="M369.2,325.5l4-16.1c0,0,12.8-9.4,8.3-22.5c-4.6-13.1-5.5-11.8-5.5-11.8s-17.1,7.7-9.5,42.5L369.2,325.5z"/>
			<path d="M451.8,325.5l-4-16.1c0,0-12.8-9.4-8.3-22.5c4.6-13.1,5.5-11.8,5.5-11.8s17.1,7.7,9.5,42.5L451.8,325.5z"/>
			<path class="st40" d="M442.6,333.8c-0.1,0.3-0.4,0.5-0.8,0.4c-0.3-0.1-0.5-0.4-0.4-0.8c0,0,3.2-10.8,8.6-15.2l0.3,1.3
				C445.5,323.8,442.6,333.7,442.6,333.8z"/>
			<path class="st40" d="M441,358.6c-0.3,0-0.7-0.2-0.7-0.6c0-0.3,0.2-0.7,0.6-0.7h0.2c3.7-0.5,6.8-3.9,8.9-8.1
				c1.6-3.2,2.6-6.9,2.8-9.9c0.4-0.2,0.9-0.3,1.3-0.6c-0.2,3.4-1.2,7.5-3,11c-2.2,4.5-5.6,8.3-9.8,8.8L441,358.6z"/>
			<path class="st40" d="M378.5,333.8c0.1,0.3,0.4,0.5,0.8,0.4c0.3-0.1,0.5-0.4,0.4-0.8c0,0-3.2-10.8-8.6-15.2l-0.3,1.3
				C375.5,323.8,378.4,333.7,378.5,333.8z"/>
			<path class="st40" d="M380,358.6c0.3,0,0.7-0.2,0.7-0.6c0-0.3-0.2-0.7-0.6-0.7h-0.2c-3.7-0.5-6.8-3.9-8.9-8.1
				c-1.6-3.2-2.6-6.9-2.8-9.9c-0.4-0.2-0.9-0.3-1.3-0.6c0.2,3.4,1.2,7.5,3,11c2.2,4.5,5.6,8.3,9.8,8.8L380,358.6z"/>
			<g>
				<path class="st1" d="M410.5,329l32.1,1.7c0,0,1.3,0.4,1.2,1.5c0,1.2-1.2,24-1.2,24s-0.1,2-1.3,3.8c-1.3,1.8-11.4,18.4-30.9,18.4
					s-29.6-16.7-30.9-18.4c-1.3-1.8-1.3-3.8-1.3-3.8s-1.1-22.8-1.2-24c0-1.2,1.2-1.5,1.2-1.5L410.5,329z"/>
				<path class="st11" d="M410.5,331.4l-30.9,1.6c0.3,7.6,0.8,15.3,1.1,23c0,0.8,0.4,1.8,0.9,2.5c0.9,1.2,1.6,2.4,2.6,3.5
					c1.7,2.1,3.6,4.1,5.7,5.9c5.9,5.1,12.8,8,20.7,8c7.8,0,14.8-2.9,20.7-8c2.1-1.8,4-3.8,5.7-5.9c0.9-1.2,1.7-2.3,2.6-3.5
					c0.5-0.7,0.8-1.7,0.9-2.5c0.3-7.7,0.9-15.3,1.1-23L410.5,331.4z"/>
				<path class="st40" d="M380.1,343c0.2,3,0.3,6,0.5,9l28.5-11L380.1,343L380.1,343z M380.7,355.1v1c0,0.8,0.4,1.8,0.9,2.5
					c0.9,1.2,1.6,2.4,2.6,3.5c1.7,2.1,3.6,4.1,5.7,5.9c5.9,5.1,12.8,8,20.7,8c7.8,0,14.8-2.9,20.7-8c2.1-1.8,4-3.8,5.7-5.9
					c0.9-1.2,1.7-2.3,2.6-3.5c0.1-0.2,0.3-0.4,0.4-0.6c0,0-5,5.4-22.4,5.4C400,363.4,380.7,355.1,380.7,355.1L380.7,355.1z
					 M440.4,353.9c0.1-2.2,0.2-4.4,0.3-6.6l-21.2-1.5L440.4,353.9z"/>
			</g>
			<path d="M380.7,291c0,0,22.1,18.2,57.9-0.2c0,0,9.2-11.2,14.9-5.7c0,0,2.3-30.9-19.9-31.2c0,0,4-4.3,2.9-7.8s-10.5-11.9-30.2,0.5
				c0,0-1.5-9.1-8.9-9.4C383,236.7,349.8,269.5,380.7,291z"/>
			<path class="st47" d="M497.4,518.6c0.3-1,0.4-1.8,0.5-2.3c0.7-4.7-7.1-21.6-14.5-35.4c-1-1.9-3.3,30.8-4.2,29.2
				c0.4-4.5,0.6-42.8,0.7-43c0.3-1.3,18.3,35.4,19.3,38.2C500.2,508.1,497.4,518.6,497.4,518.6L497.4,518.6z"/>
		</g>
	</g>
</g>
</svg>
