<svg xmlns="http://www.w3.org/2000/svg" viewBox="0 0 715 506"><g style="isolation:isolate"><path d="M590.8,86.9A12.83,12.83,0,0,0,578,74.06H62.29A12.84,12.84,0,0,0,49.46,86.9v5.45H590.8Z" fill="#bfc0c0"/><path d="M49.46,92.35V416.17A12.84,12.84,0,0,0,62.29,429H578a12.83,12.83,0,0,0,12.83-12.84V92.35Z" fill="#f3fafe"/><circle cx="65.6" cy="83.21" r="3.05" fill="#fdd762"/><circle cx="77.02" cy="83.21" r="3.05" fill="#fdd762"/><circle cx="88.44" cy="83.21" r="3.05" fill="#fdd762"/><rect x="230.36" y="126.47" width="104.91" height="0.74" fill="#005085"/><path d="M140.73,137.13a26.85,26.85,0,0,0-2.88-1.95,14.69,14.69,0,0,1-4.34,2.57,6.89,6.89,0,0,0-1.17-1.51c2.39-.78,4.61-2.09,5.71-3.86l1.87.43a7.29,7.29,0,0,1-.76,1.06,21.09,21.09,0,0,1,2.94,1.82Zm5.11-15.5c-.2.16-.4.32-.57.48,2,1.33,5.89,2.5,9.2,3a9.76,9.76,0,0,0-1.45,1.77,29,29,0,0,1-5.4-1.75l-.12,1.33h-7.74l.11-1.26a39,39,0,0,1-5.3,1.81,6.18,6.18,0,0,0-1-1.7c3.84-.85,8.26-2.45,10.69-4.59Zm-8-2a20.71,20.71,0,0,1-2.62,3.2,12,12,0,0,0-1.66-1.18,15,15,0,0,0,3.83-5.23l2,.52c-.17.37-.33.69-.53,1.06h5.56l-.14,1.63H140.4a8.91,8.91,0,0,1,.84,2.18l-1.8.88a11.56,11.56,0,0,0-.8-2.39l1.49-.67Zm-1.82,7.74h7.21l-.42,4.85h-7.21Zm1.45,3.4h3.63l.17-1.95h-3.63Zm9.79-5.81a16.6,16.6,0,0,1-3.35-2,25.74,25.74,0,0,1-3.61,2Zm1.41,7.72a6.92,6.92,0,0,1-.65,1.17,49.36,49.36,0,0,1,5.09,2.16l-1.44,1.52a36.84,36.84,0,0,0-4.86-2.21,12.13,12.13,0,0,1-3.84,2.39,11.74,11.74,0,0,0-1.21-1.4c2.3-.76,4.2-2,5-3.93Zm-4.29-5.31h7.33l-.43,4.85H144Zm2.83-7.69a11.78,11.78,0,0,1-1.58,1.58,7.76,7.76,0,0,0-1.65-1.17,10.72,10.72,0,0,0,3.13-3.7l2,.51c-.2.39-.41.76-.65,1.15h6.47l-.14,1.63h-4a9.14,9.14,0,0,1,1.49,2.46l-1.81.92a11.28,11.28,0,0,0-1.53-2.72l1.44-.66Zm-1.36,11.09h3.7l.17-1.95h-3.7Z" fill="#005085"/><path d="M159.15,131.76a32.46,32.46,0,0,1-2,5.49,12.38,12.38,0,0,0-1.78-.62,25.89,25.89,0,0,0,1.93-5.24Zm4.78-1.38c0-.35-.09-.76-.17-1.22-5.68.9-6.53,1.1-7,1.36a19.76,19.76,0,0,0-.52-2,5,5,0,0,0,2.06-1.45,32.22,32.22,0,0,0,2.25-2.36c-2.51.3-3.09.41-3.43.59a17.27,17.27,0,0,0-.52-1.93c.46-.07.94-.52,1.53-1.19a31.12,31.12,0,0,0,3.87-5.65l1.88.85a43.1,43.1,0,0,1-4.29,5.72l2.47-.21c.72-.89,1.43-1.86,2.06-2.82l1.72,1.17a59.26,59.26,0,0,1-5.94,6.71l3.58-.49c-.15-.66-.34-1.35-.52-2l1.76-.44a28.49,28.49,0,0,1,1.1,4.76Zm-2.14.85a43.41,43.41,0,0,1,.32,5l-1.84.48a47.68,47.68,0,0,0-.19-5.1Zm2.69-.53a28.54,28.54,0,0,1,1.09,4.27l-1.7.62a37.4,37.4,0,0,0-1-4.36Zm12.67-9.95s-.09.78-.11,1.08c-1.15,10-1.73,13.49-2.7,14.59a2.79,2.79,0,0,1-2.07,1.1,20.93,20.93,0,0,1-3.47,0,5.22,5.22,0,0,0-.51-2.11c1.39.11,2.68.11,3.25.11a1.1,1.1,0,0,0,1-.36c.7-.72,1.31-4,2.27-12.39h-6.06a23,23,0,0,1-2.07,3.2c-.39-.3-1.25-.92-1.76-1.22a22.59,22.59,0,0,0,4.23-8.13l2.08.41c-.44,1.26-.94,2.53-1.45,3.72Zm-6.42,10.91a19.7,19.7,0,0,0-3.51-5l1.59-1.08a19.78,19.78,0,0,1,3.62,4.82Z" fill="#005085"/><path d="M187,129.64a37.41,37.41,0,0,1,2.65,5.88l-2,1.06c-.18-.57-.41-1.33-.73-2.14-5.77,1.89-6.63,2.23-7.22,2.65a6.52,6.52,0,0,0-.68-2.19,1.85,1.85,0,0,0,1.14-1.51l1.37-15.62h9.12l-1,11h-6.94l-.44,5.13,3.86-1.15c-.34-.76-.67-1.49-1-2.16Zm.68-2.82.24-2.69h-4.8l-.24,2.69Zm-4.17-7.15-.23,2.55h4.8l.23-2.55ZM198.91,131c-.09,1.06-.33,1.68-1,2a8,8,0,0,1-3.34.39,6.26,6.26,0,0,0-.44-2c1,0,2,0,2.27,0s.42-.11.45-.41l1-11.12h-3.53l-1.56,17.8h-2.14l1.73-19.75h7.76Z" fill="#005085"/><path d="M205.27,133a35.2,35.2,0,0,1-2.64,4.41,9.47,9.47,0,0,0-1.34-1,22.92,22.92,0,0,0,2.41-3.92Zm3.67-1.08h-6.31l1.24-14.2h6.32Zm-1.37-4.25h-2.89l-.23,2.53h2.9Zm.36-4.13H205l-.22,2.48h2.89Zm.36-4.09h-2.9l-.21,2.45h2.89Zm-.75,13a24.4,24.4,0,0,1,1.7,3.4l-1.46,1a27.81,27.81,0,0,0-1.64-3.59Zm15.25-12.82-.71,8H210.55l.71-8h2.8a12.88,12.88,0,0,0-1.1-2.41l1.76-.62a11.45,11.45,0,0,1,1.26,2.57l-1.12.46h3.33a29,29,0,0,0,1.91-3.08l1.87.65c-.58.8-1.25,1.7-1.85,2.43Zm-11.34,9.1H221l-.77,8.82h-1.89l.08-.85h-5.91l-.08.94h-1.79Zm.92-2.69h3.33l.42-4.78h-3.33Zm6.22,9,.14-1.58h-5.91l-.14,1.58Zm-5.49-4.7L213,132h5.91l.14-1.65Zm1.18-8.53a22.85,22.85,0,0,1,1,3.13l-1.26.46a19.42,19.42,0,0,0-.93-3.24Zm6.57-.6h-3.3l-.42,4.78h3.31Zm-3.11,3.82a22.47,22.47,0,0,0,1.52-3.22l1.28.41c-.56,1.13-1.17,2.35-1.71,3.2Z" fill="#005085"/><rect x="92.36" y="378.15" width="339.01" height="15.22" fill="#fadbda"/><path d="M120.7,363.13s0,1.16,0,1.6c-.44,12.37-.88,16.93-1.9,18.3a3.07,3.07,0,0,1-2.25,1.55,16,16,0,0,1-3.34.15,9.66,9.66,0,0,0-1-3.6c1,.09,2,.12,2.48.12a1.11,1.11,0,0,0,1-.56c.64-.84,1.08-4.47,1.43-14.14h-2.87c-.35,7.36-1.43,14.09-4.91,18.73a9.35,9.35,0,0,0-2.75-2.48c3.1-4,4-9.82,4.21-16.25h-3.42v-3.4h3.51c0-1.66,0-3.39,0-5.08h3.51c0,1.69,0,3.42-.06,5.08ZM133,361.31v23.16h-3.62v-1.82H125.5v2H122V361.31Zm-3.62,18V364.65H125.5v14.64Z" fill="#fff"/><path d="M141.23,381.75V384h-3v-7.55a12.54,12.54,0,0,1-.76,1.14,16.88,16.88,0,0,0-1.87-3.33c2-2.89,3.12-7.34,3.74-12.1h-3v-3.13H147.4v3.13h-4.83a56,56,0,0,1-1.17,6.14h5.15v13.42Zm2.31-10.44h-2.31v7.43h2.31ZM146,382.65c1.14-1.49,1.7-3.94,2-6.31l2.52.61c-.27,2.6-.76,5.32-2.08,7Zm17-10.14s0,.85-.06,1.26c-.26,6.75-.59,9.44-1.35,10.37a2.82,2.82,0,0,1-2,1.09,21.69,21.69,0,0,1-3.19.08,7.32,7.32,0,0,0-.88-3,21.48,21.48,0,0,0,2.46.12,1,1,0,0,0,.91-.35,5.63,5.63,0,0,0,.58-2.37l-1.23.53a16.44,16.44,0,0,0-1.52-3.42l1.7-.71a14.08,14.08,0,0,1,1.17,2.08c.06-.79.11-1.67.17-2.72H148.33V359h14.15v3h-5.06v1.61h4.18v2.72h-4.18V368h4.18v2.69h-4.18v1.78Zm-10,4.73a27.42,27.42,0,0,1,.53,5.3l-2.4.38a26.27,26.27,0,0,0-.38-5.35ZM151.49,362v1.61h2.86V362Zm2.86,4.33h-2.86V368h2.86Zm-2.86,6.17h2.86v-1.78h-2.86Zm4.44,4.3a18.06,18.06,0,0,1,1.17,4.35l-2.22.64a25.82,25.82,0,0,0-1-4.41Z" fill="#fff"/><path d="M192.65,378.62h-3.33v2.89c0,1.76-.38,2.69-1.61,3.22s-2.92.58-5.38.58a12.43,12.43,0,0,0-1.2-3.27c1.61.09,3.48.06,4,.06s.7-.15.7-.65v-2.83H172.07v6.69h-3.45v-6.69h-3.33V375.4h3.33V364.67h8.51v-1.93H166.49v-3.18h25v3.18H180.61v1.93h8.71V375.4h3.33ZM172.07,367.8v2.28h5.06V367.8Zm0,7.6h5.06V373h-5.06Zm8.54-7.6v2.28h5.23V367.8Zm5.23,7.6V373h-5.23v2.36Z" fill="#fff"/><path d="M204.73,373.59l-3.16.88v7.16c0,1.67-.29,2.51-1.26,3s-2.36.64-4.38.64a11.89,11.89,0,0,0-1-3.15c1.14.06,2.31.06,2.69.06s.56-.15.56-.56V375.4c-1.11.3-2.13.53-3.1.79l-.88-3.3c1.14-.24,2.52-.56,4-.91v-5.26H194.7v-3.24h3.51V358h3.36v5.47h2.81v3.24h-2.81v4.42l2.72-.71Zm16.54-9.12V385h-3.45v-1.9h-9.44v2.11h-3.33V364.47h6.31V358h3.28v6.46Zm-12.89,3.3V372h3v-4.24Zm0,12h3v-4.53h-3Zm6.26-12V372h3.18v-4.24Zm3.18,12v-4.53h-3.18v4.53Z" fill="#fff"/><path d="M230.6,378.93l3-4.13a10.11,10.11,0,0,0,7.15,3.29c3.38,0,5.75-2.15,5.75-6s-2.2-5.88-5.49-5.88c-1.92,0-3,.49-4.86,1.71L233.19,366l.88-15.74h17.36v5.39H239.64l-.62,6.89a8.43,8.43,0,0,1,3.9-.92c5.44,0,10,3.24,10,10.3,0,7.24-5.35,11.4-11.35,11.4A14.79,14.79,0,0,1,230.6,378.93Z" fill="#f8b500"/><path d="M290.74,370.76c-1.17.9-2.49,1.84-3.77,2.71a12.11,12.11,0,0,0,6.84,7.69A12.3,12.3,0,0,0,291.5,384c-3.51-1.67-5.82-4.8-7.25-8.77-.29.2-.62.38-.91.55.82,3.51.12,6.87-1.37,8.1a4.31,4.31,0,0,1-3.48,1.37c-.64,0-1.52,0-2.37,0a8,8,0,0,0-.93-3.31,22.82,22.82,0,0,0,2.63.15,1.58,1.58,0,0,0,1.57-.7,4.27,4.27,0,0,0,.85-3A46.11,46.11,0,0,1,268.43,384a14.07,14.07,0,0,0-1.81-2.9c4.62-1,10.23-3.51,13.13-6-.12-.35-.27-.73-.44-1.11a48.76,48.76,0,0,1-10.53,4.76,15.07,15.07,0,0,0-1.72-2.69A37,37,0,0,0,278,371.84c-.26-.33-.52-.65-.82-1a38.73,38.73,0,0,1-8.12,3.07,16.71,16.71,0,0,0-1.79-2.72,35.44,35.44,0,0,0,9.42-3.21h-5v-3H288v3H281.5a15.21,15.21,0,0,1-1.75,1.34,11.32,11.32,0,0,1,2.57,3.54,38.37,38.37,0,0,0,5.52-4.42Zm-20-3.86h-3.42v-6.61H277.9a11.23,11.23,0,0,0-.7-1.55l3.69-1.05a15.51,15.51,0,0,1,1.25,2.6h10.41v6.61H289v-3.45H270.74Z" fill="#fff"/><path d="M304.71,377.52h7V357h-5.88v-4a21,21,0,0,0,7.54-2.72h4.78v27.23h6.1v5.22H304.71Z" fill="#fff"/><path d="M328.88,366.38c0-11.22,4.38-16.7,11-16.7s11,5.52,11,16.7-4.39,17-11,17S328.88,377.57,328.88,366.38Zm15.87,0c0-9.07-2.1-11.7-4.87-11.7s-4.91,2.63-4.91,11.7,2.11,11.93,4.91,11.93S344.75,375.51,344.75,366.38Z" fill="#fff"/><path d="M354.71,366.38c0-11.22,4.38-16.7,11-16.7s11,5.52,11,16.7-4.38,17-11,17S354.71,377.57,354.71,366.38Zm15.87,0c0-9.07-2.11-11.7-4.87-11.7s-4.91,2.63-4.91,11.7,2.11,11.93,4.91,11.93S370.58,375.51,370.58,366.38Z" fill="#fff"/><path d="M405.66,372.27a16.5,16.5,0,0,0,11.49,9.56,12.73,12.73,0,0,0-2.4,3.25,18.77,18.77,0,0,1-11.49-9.94c-1.6,3.89-4.91,7.57-11.48,10a13.34,13.34,0,0,0-2.28-3c6.75-2.4,9.61-6.17,10.81-9.89h-9.79v-3.56H401c.06-.79.09-1.52.09-2.25v-2.95h-9.56v-3.57h23.15v3.57h-9.94v3c0,.7,0,1.43,0,2.19h11.13v3.56Z" fill="#fff"/><path d="M120.7,363.13s0,1.16,0,1.6c-.44,12.37-.88,16.93-1.9,18.3a3.07,3.07,0,0,1-2.25,1.55,16,16,0,0,1-3.34.15,9.66,9.66,0,0,0-1-3.6c1,.09,2,.12,2.48.12a1.11,1.11,0,0,0,1-.56c.64-.84,1.08-4.47,1.43-14.14h-2.87c-.35,7.36-1.43,14.09-4.91,18.73a9.35,9.35,0,0,0-2.75-2.48c3.1-4,4-9.82,4.21-16.25h-3.42v-3.4h3.51c0-1.66,0-3.39,0-5.08h3.51c0,1.69,0,3.42-.06,5.08ZM133,361.31v23.16h-3.62v-1.82H125.5v2H122V361.31Zm-3.62,18V364.65H125.5v14.64Z" fill="none" stroke="#005085" stroke-linecap="round" stroke-linejoin="round" stroke-width="8"/><path d="M141.23,381.75V384h-3v-7.55a12.54,12.54,0,0,1-.76,1.14,16.88,16.88,0,0,0-1.87-3.33c2-2.89,3.12-7.34,3.74-12.1h-3v-3.13H147.4v3.13h-4.83a56,56,0,0,1-1.17,6.14h5.15v13.42Zm2.31-10.44h-2.31v7.43h2.31ZM146,382.65c1.14-1.49,1.7-3.94,2-6.31l2.52.61c-.27,2.6-.76,5.32-2.08,7Zm17-10.14s0,.85-.06,1.26c-.26,6.75-.59,9.44-1.35,10.37a2.82,2.82,0,0,1-2,1.09,21.69,21.69,0,0,1-3.19.08,7.32,7.32,0,0,0-.88-3,21.48,21.48,0,0,0,2.46.12,1,1,0,0,0,.91-.35,5.63,5.63,0,0,0,.58-2.37l-1.23.53a16.44,16.44,0,0,0-1.52-3.42l1.7-.71a14.08,14.08,0,0,1,1.17,2.08c.06-.79.11-1.67.17-2.72H148.33V359h14.15v3h-5.06v1.61h4.18v2.72h-4.18V368h4.18v2.69h-4.18v1.78Zm-10,4.73a27.42,27.42,0,0,1,.53,5.3l-2.4.38a26.27,26.27,0,0,0-.38-5.35ZM151.49,362v1.61h2.86V362Zm2.86,4.33h-2.86V368h2.86Zm-2.86,6.17h2.86v-1.78h-2.86Zm4.44,4.3a18.06,18.06,0,0,1,1.17,4.35l-2.22.64a25.82,25.82,0,0,0-1-4.41Z" fill="none" stroke="#005085" stroke-linecap="round" stroke-linejoin="round" stroke-width="8"/><path d="M192.65,378.62h-3.33v2.89c0,1.76-.38,2.69-1.61,3.22s-2.92.58-5.38.58a12.43,12.43,0,0,0-1.2-3.27c1.61.09,3.48.06,4,.06s.7-.15.7-.65v-2.83H172.07v6.69h-3.45v-6.69h-3.33V375.4h3.33V364.67h8.51v-1.93H166.49v-3.18h25v3.18H180.61v1.93h8.71V375.4h3.33ZM172.07,367.8v2.28h5.06V367.8Zm0,7.6h5.06V373h-5.06Zm8.54-7.6v2.28h5.23V367.8Zm5.23,7.6V373h-5.23v2.36Z" fill="none" stroke="#005085" stroke-linecap="round" stroke-linejoin="round" stroke-width="8"/><path d="M204.73,373.59l-3.16.88v7.16c0,1.67-.29,2.51-1.26,3s-2.36.64-4.38.64a11.89,11.89,0,0,0-1-3.15c1.14.06,2.31.06,2.69.06s.56-.15.56-.56V375.4c-1.11.3-2.13.53-3.1.79l-.88-3.3c1.14-.24,2.52-.56,4-.91v-5.26H194.7v-3.24h3.51V358h3.36v5.47h2.81v3.24h-2.81v4.42l2.72-.71Zm16.54-9.12V385h-3.45v-1.9h-9.44v2.11h-3.33V364.47h6.31V358h3.28v6.46Zm-12.89,3.3V372h3v-4.24Zm0,12h3v-4.53h-3Zm6.26-12V372h3.18v-4.24Zm3.18,12v-4.53h-3.18v4.53Z" fill="none" stroke="#005085" stroke-linecap="round" stroke-linejoin="round" stroke-width="8"/><path d="M230.6,378.93l3-4.13a10.11,10.11,0,0,0,7.15,3.29c3.38,0,5.75-2.15,5.75-6s-2.2-5.88-5.49-5.88c-1.92,0-3,.49-4.86,1.71L233.19,366l.88-15.74h17.36v5.39H239.64l-.62,6.89a8.43,8.43,0,0,1,3.9-.92c5.44,0,10,3.24,10,10.3,0,7.24-5.35,11.4-11.35,11.4A14.79,14.79,0,0,1,230.6,378.93Z" fill="none" stroke="#005085" stroke-linecap="round" stroke-linejoin="round" stroke-width="8"/><path d="M290.74,370.76c-1.17.9-2.49,1.84-3.77,2.71a12.11,12.11,0,0,0,6.84,7.69A12.3,12.3,0,0,0,291.5,384c-3.51-1.67-5.82-4.8-7.25-8.77-.29.2-.62.38-.91.55.82,3.51.12,6.87-1.37,8.1a4.31,4.31,0,0,1-3.48,1.37c-.64,0-1.52,0-2.37,0a8,8,0,0,0-.93-3.31,22.82,22.82,0,0,0,2.63.15,1.58,1.58,0,0,0,1.57-.7,4.27,4.27,0,0,0,.85-3A46.11,46.11,0,0,1,268.43,384a14.07,14.07,0,0,0-1.81-2.9c4.62-1,10.23-3.51,13.13-6-.12-.35-.27-.73-.44-1.11a48.76,48.76,0,0,1-10.53,4.76,15.07,15.07,0,0,0-1.72-2.69A37,37,0,0,0,278,371.84c-.26-.33-.52-.65-.82-1a38.73,38.73,0,0,1-8.12,3.07,16.71,16.71,0,0,0-1.79-2.72,35.44,35.44,0,0,0,9.42-3.21h-5v-3H288v3H281.5a15.21,15.21,0,0,1-1.75,1.34,11.32,11.32,0,0,1,2.57,3.54,38.37,38.37,0,0,0,5.52-4.42Zm-20-3.86h-3.42v-6.61H277.9a11.23,11.23,0,0,0-.7-1.55l3.69-1.05a15.51,15.51,0,0,1,1.25,2.6h10.41v6.61H289v-3.45H270.74Z" fill="none" stroke="#005085" stroke-linecap="round" stroke-linejoin="round" stroke-width="8"/><path d="M304.71,377.52h7V357h-5.88v-4a21,21,0,0,0,7.54-2.72h4.78v27.23h6.1v5.22H304.71Z" fill="none" stroke="#005085" stroke-linecap="round" stroke-linejoin="round" stroke-width="8"/><path d="M328.88,366.38c0-11.22,4.38-16.7,11-16.7s11,5.52,11,16.7-4.39,17-11,17S328.88,377.57,328.88,366.38Zm15.87,0c0-9.07-2.1-11.7-4.87-11.7s-4.91,2.63-4.91,11.7,2.11,11.93,4.91,11.93S344.75,375.51,344.75,366.38Z" fill="none" stroke="#005085" stroke-linecap="round" stroke-linejoin="round" stroke-width="8"/><path d="M354.71,366.38c0-11.22,4.38-16.7,11-16.7s11,5.52,11,16.7-4.38,17-11,17S354.71,377.57,354.71,366.38Zm15.87,0c0-9.07-2.11-11.7-4.87-11.7s-4.91,2.63-4.91,11.7,2.11,11.93,4.91,11.93S370.58,375.51,370.58,366.38Z" fill="none" stroke="#005085" stroke-linecap="round" stroke-linejoin="round" stroke-width="8"/><path d="M405.66,372.27a16.5,16.5,0,0,0,11.49,9.56,12.73,12.73,0,0,0-2.4,3.25,18.77,18.77,0,0,1-11.49-9.94c-1.6,3.89-4.91,7.57-11.48,10a13.34,13.34,0,0,0-2.28-3c6.75-2.4,9.61-6.17,10.81-9.89h-9.79v-3.56H401c.06-.79.09-1.52.09-2.25v-2.95h-9.56v-3.57h23.15v3.57h-9.94v3c0,.7,0,1.43,0,2.19h11.13v3.56Z" fill="none" stroke="#005085" stroke-linecap="round" stroke-linejoin="round" stroke-width="8"/><path d="M120.7,363.13s0,1.16,0,1.6c-.44,12.37-.88,16.93-1.9,18.3a3.07,3.07,0,0,1-2.25,1.55,16,16,0,0,1-3.34.15,9.66,9.66,0,0,0-1-3.6c1,.09,2,.12,2.48.12a1.11,1.11,0,0,0,1-.56c.64-.84,1.08-4.47,1.43-14.14h-2.87c-.35,7.36-1.43,14.09-4.91,18.73a9.35,9.35,0,0,0-2.75-2.48c3.1-4,4-9.82,4.21-16.25h-3.42v-3.4h3.51c0-1.66,0-3.39,0-5.08h3.51c0,1.69,0,3.42-.06,5.08ZM133,361.31v23.16h-3.62v-1.82H125.5v2H122V361.31Zm-3.62,18V364.65H125.5v14.64Z" fill="#fff"/><path d="M141.23,381.75V384h-3v-7.55a12.54,12.54,0,0,1-.76,1.14,16.88,16.88,0,0,0-1.87-3.33c2-2.89,3.12-7.34,3.74-12.1h-3v-3.13H147.4v3.13h-4.83a56,56,0,0,1-1.17,6.14h5.15v13.42Zm2.31-10.44h-2.31v7.43h2.31ZM146,382.65c1.14-1.49,1.7-3.94,2-6.31l2.52.61c-.27,2.6-.76,5.32-2.08,7Zm17-10.14s0,.85-.06,1.26c-.26,6.75-.59,9.44-1.35,10.37a2.82,2.82,0,0,1-2,1.09,21.69,21.69,0,0,1-3.19.08,7.32,7.32,0,0,0-.88-3,21.48,21.48,0,0,0,2.46.12,1,1,0,0,0,.91-.35,5.63,5.63,0,0,0,.58-2.37l-1.23.53a16.44,16.44,0,0,0-1.52-3.42l1.7-.71a14.08,14.08,0,0,1,1.17,2.08c.06-.79.11-1.67.17-2.72H148.33V359h14.15v3h-5.06v1.61h4.18v2.72h-4.18V368h4.18v2.69h-4.18v1.78Zm-10,4.73a27.42,27.42,0,0,1,.53,5.3l-2.4.38a26.27,26.27,0,0,0-.38-5.35ZM151.49,362v1.61h2.86V362Zm2.86,4.33h-2.86V368h2.86Zm-2.86,6.17h2.86v-1.78h-2.86Zm4.44,4.3a18.06,18.06,0,0,1,1.17,4.35l-2.22.64a25.82,25.82,0,0,0-1-4.41Z" fill="#fff"/><path d="M192.65,378.62h-3.33v2.89c0,1.76-.38,2.69-1.61,3.22s-2.92.58-5.38.58a12.43,12.43,0,0,0-1.2-3.27c1.61.09,3.48.06,4,.06s.7-.15.7-.65v-2.83H172.07v6.69h-3.45v-6.69h-3.33V375.4h3.33V364.67h8.51v-1.93H166.49v-3.18h25v3.18H180.61v1.93h8.71V375.4h3.33ZM172.07,367.8v2.28h5.06V367.8Zm0,7.6h5.06V373h-5.06Zm8.54-7.6v2.28h5.23V367.8Zm5.23,7.6V373h-5.23v2.36Z" fill="#fff"/><path d="M204.73,373.59l-3.16.88v7.16c0,1.67-.29,2.51-1.26,3s-2.36.64-4.38.64a11.89,11.89,0,0,0-1-3.15c1.14.06,2.31.06,2.69.06s.56-.15.56-.56V375.4c-1.11.3-2.13.53-3.1.79l-.88-3.3c1.14-.24,2.52-.56,4-.91v-5.26H194.7v-3.24h3.51V358h3.36v5.47h2.81v3.24h-2.81v4.42l2.72-.71Zm16.54-9.12V385h-3.45v-1.9h-9.44v2.11h-3.33V364.47h6.31V358h3.28v6.46Zm-12.89,3.3V372h3v-4.24Zm0,12h3v-4.53h-3Zm6.26-12V372h3.18v-4.24Zm3.18,12v-4.53h-3.18v4.53Z" fill="#fff"/><path d="M230.6,378.93l3-4.13a10.11,10.11,0,0,0,7.15,3.29c3.38,0,5.75-2.15,5.75-6s-2.2-5.88-5.49-5.88c-1.92,0-3,.49-4.86,1.71L233.19,366l.88-15.74h17.36v5.39H239.64l-.62,6.89a8.43,8.43,0,0,1,3.9-.92c5.44,0,10,3.24,10,10.3,0,7.24-5.35,11.4-11.35,11.4A14.79,14.79,0,0,1,230.6,378.93Z" fill="#fff"/><path d="M290.74,370.76c-1.17.9-2.49,1.84-3.77,2.71a12.11,12.11,0,0,0,6.84,7.69A12.3,12.3,0,0,0,291.5,384c-3.51-1.67-5.82-4.8-7.25-8.77-.29.2-.62.38-.91.55.82,3.51.12,6.87-1.37,8.1a4.31,4.31,0,0,1-3.48,1.37c-.64,0-1.52,0-2.37,0a8,8,0,0,0-.93-3.31,22.82,22.82,0,0,0,2.63.15,1.58,1.58,0,0,0,1.57-.7,4.27,4.27,0,0,0,.85-3A46.11,46.11,0,0,1,268.43,384a14.07,14.07,0,0,0-1.81-2.9c4.62-1,10.23-3.51,13.13-6-.12-.35-.27-.73-.44-1.11a48.76,48.76,0,0,1-10.53,4.76,15.07,15.07,0,0,0-1.72-2.69A37,37,0,0,0,278,371.84c-.26-.33-.52-.65-.82-1a38.73,38.73,0,0,1-8.12,3.07,16.71,16.71,0,0,0-1.79-2.72,35.44,35.44,0,0,0,9.42-3.21h-5v-3H288v3H281.5a15.21,15.21,0,0,1-1.75,1.34,11.32,11.32,0,0,1,2.57,3.54,38.37,38.37,0,0,0,5.52-4.42Zm-20-3.86h-3.42v-6.61H277.9a11.23,11.23,0,0,0-.7-1.55l3.69-1.05a15.51,15.51,0,0,1,1.25,2.6h10.41v6.61H289v-3.45H270.74Z" fill="#fff"/><path d="M304.71,377.52h7V357h-5.88v-4a21,21,0,0,0,7.54-2.72h4.78v27.23h6.1v5.22H304.71Z" fill="#fff"/><path d="M328.88,366.38c0-11.22,4.38-16.7,11-16.7s11,5.52,11,16.7-4.39,17-11,17S328.88,377.57,328.88,366.38Zm15.87,0c0-9.07-2.1-11.7-4.87-11.7s-4.91,2.63-4.91,11.7,2.11,11.93,4.91,11.93S344.75,375.51,344.75,366.38Z" fill="#fff"/><path d="M354.71,366.38c0-11.22,4.38-16.7,11-16.7s11,5.52,11,16.7-4.38,17-11,17S354.71,377.57,354.71,366.38Zm15.87,0c0-9.07-2.11-11.7-4.87-11.7s-4.91,2.63-4.91,11.7,2.11,11.93,4.91,11.93S370.58,375.51,370.58,366.38Z" fill="#fff"/><path d="M405.66,372.27a16.5,16.5,0,0,0,11.49,9.56,12.73,12.73,0,0,0-2.4,3.25,18.77,18.77,0,0,1-11.49-9.94c-1.6,3.89-4.91,7.57-11.48,10a13.34,13.34,0,0,0-2.28-3c6.75-2.4,9.61-6.17,10.81-9.89h-9.79v-3.56H401c.06-.79.09-1.52.09-2.25v-2.95h-9.56v-3.57h23.15v3.57h-9.94v3c0,.7,0,1.43,0,2.19h11.13v3.56Z" fill="#fff"/><path d="M229.62,377.9l3-4.12a10.1,10.1,0,0,0,7.15,3.28c3.38,0,5.74-2.14,5.74-6s-2.19-5.88-5.48-5.88c-1.93,0-3,.49-4.87,1.71L232.21,365l.87-15.75h17.37v5.4h-11.8l-.61,6.88a8.43,8.43,0,0,1,3.9-.92c5.44,0,10,3.24,10,10.3,0,7.24-5.35,11.41-11.36,11.41A14.79,14.79,0,0,1,229.62,377.9Z" fill="#f8b500"/><path d="M303.72,376.49h7V356h-5.88v-4a21,21,0,0,0,7.55-2.72h4.78v27.23h6.09v5.22H303.72Z" fill="#f8b500"/><path d="M327.88,365.36c0-11.23,4.39-16.71,11-16.71s11,5.52,11,16.71-4.38,17-11,17S327.88,376.54,327.88,365.36Zm15.87,0c0-9.08-2.1-11.71-4.86-11.71S334,356.28,334,365.36s2.1,11.92,4.91,11.92S343.75,374.48,343.75,365.36Z" fill="#f8b500"/><path d="M353.71,365.36c0-11.23,4.38-16.71,11-16.71s11,5.52,11,16.71-4.39,17-11,17S353.71,376.54,353.71,365.36Zm15.87,0c0-9.08-2.1-11.71-4.86-11.71s-4.91,2.63-4.91,11.71,2.1,11.92,4.91,11.92S369.58,374.48,369.58,365.36Z" fill="#f8b500"/><path d="M126.1,145.33a22.53,22.53,0,0,0-21.93,20.17L92.83,295.15a18.24,18.24,0,0,0,18.4,20.17H350.15l14.87-170Z" fill="#fdd762"/><path d="M575.56,293.88a22.52,22.52,0,0,0,21.93-20.16l11.35-129.65a18.24,18.24,0,0,0-18.41-20.17H351.51l-14.87,170Z" fill="#ef8582"/><path d="M189,234.18H174.55l4-46L164,192.3l1-11,28.16-9.45h1.33Z" fill="none" stroke="#f8b500" stroke-width="5"/><path d="M222.44,200.14c-1.16,2.64-2.48,5.33-4,8l-2.61,29.76h-4.74L213,216.38c-1,1.3-2.07,2.52-3.13,3.61a32.81,32.81,0,0,0-1.87-5.41,49.66,49.66,0,0,0,9.94-15.87Zm25.58.63-3.21,36.64h-4.74l.18-2.06H224.47l-.21,2.44h-4.53l3.24-37ZM240.63,231l2.27-25.94H227.12L224.85,231Zm-4.54-17.16-.32,3.6h4l-1,11.25H227.19l1-11.25h3.73l.32-3.6H227.4l.32-3.61h4.83l.37-4.29h3.86l-.37,4.29h5.07l-.31,3.61Zm-.32,7h-4.28l-.39,4.4h4.28Z" fill="none" stroke="#f8b500" stroke-width="5"/><path d="M284,231.45c-.27,3-1.11,4.45-3.11,5.29s-5,1-9.36,1a19.41,19.41,0,0,0-1.64-5.24c2.93.17,6.45.12,7.38.12s1.37-.33,1.45-1.21l.53-6.09h-18a25.24,25.24,0,0,1-8.19,12.55,17.11,17.11,0,0,0-3.55-3.61c6.81-5.41,8.1-13.43,8.66-19.81l1.21-13.81h27.27Zm-4.33-11,.45-5.13H263.28c-.18,1.6-.42,3.36-.74,5.13Zm-15.51-15-.45,5.12h16.82l.45-5.12Z" fill="none" stroke="#f8b500" stroke-width="5"/><path d="M171.11,275.63a18.34,18.34,0,0,1-2.48,6.15,33.07,33.07,0,0,0,11.82,3,19.44,19.44,0,0,0-2.83,3.75,30.4,30.4,0,0,1-11.77-3.71,20.22,20.22,0,0,1-7.57,3.78,20.32,20.32,0,0,0-2.31-3.5,18.07,18.07,0,0,0,6.67-2.72,17.91,17.91,0,0,1-3.89-5.27l3.52-1.06a12.92,12.92,0,0,0,3,3.64,12.45,12.45,0,0,0,1.66-4H159l.9-10.32h8.13l.22-2.47H159.4l.28-3.25c-.75,1.34-1.58,2.72-2.47,4.06l-2.19,25h-4l1.66-19c-1.06,1.2-2.12,2.33-3.19,3.32a25,25,0,0,0-1.85-4.31,42.39,42.39,0,0,0,9.7-13.18l3.78,1.27c-.38.74-.77,1.48-1.15,2.26h8.62l.28-3.22h4.17l-.28,3.22h9.37l-.33,3.82h-9.37l-.22,2.47h8.41l-.9,10.32Zm-3.66-3.39,0-.46.26-3H163.4l-.3,3.5Zm4.47-3.5-.27,3.07,0,.43H176l.3-3.5Z" fill="none" stroke="#f8b500" stroke-width="5"/><path d="M213.63,283.58c-.19,2.27-.79,3.4-2.26,4s-3.67.78-6.85.75a14.77,14.77,0,0,0-1-4c2,.1,4.31.07,4.94.07s.94-.22,1-.85l.46-5.3h-7.46l-.86,9.86h-4.24l.86-9.86H191c-1,3.85-2.58,7.74-5.37,10.49a13.88,13.88,0,0,0-3.08-2.72c4.22-4.24,5.09-10.53,5.52-15.48l1.1-12.62h26.69Zm-15-9.29.38-4.35h-6.65l-.05.64c-.1,1.13-.25,2.4-.43,3.71ZM193,261.92l-.36,4.1h6.64l.36-4.1Zm17.26,12.37.38-4.35H203.2l-.38,4.35Zm1.08-12.37H203.9l-.36,4.1H211Z" fill="none" stroke="#f8b500" stroke-width="5"/><path d="M239.52,272.84c2,5.62,6.15,9.75,12.88,11.56a17.18,17.18,0,0,0-3.24,3.92,20,20,0,0,1-12.84-12c-2.35,4.7-6.74,9.16-14.95,12.13a14.16,14.16,0,0,0-2.44-3.64c8.42-2.9,12.28-7.46,14.12-12H221.21l.38-4.31h12.73c.15-1,.26-1.84.34-2.72l.31-3.57H223.42l.37-4.32h28l-.37,4.32h-12l-.32,3.64c-.07.84-.19,1.73-.3,2.65h13.46l-.37,4.31Z" fill="none" stroke="#f8b500" stroke-width="5"/><path d="M287.33,265.66a51.77,51.77,0,0,1-4.2,13.33,13.28,13.28,0,0,0,5,6.25,12.86,12.86,0,0,0-2.62,2.87,14.94,14.94,0,0,1-4.63-5.59,23,23,0,0,1-6.88,6.26,12.42,12.42,0,0,0-1.36-2.55l-2.44,1.95a33.14,33.14,0,0,0-4.34-2.44,39.58,39.58,0,0,1-10.13,2.62,9.94,9.94,0,0,0-1.28-2.69,45.13,45.13,0,0,0,7.59-1.59,46.53,46.53,0,0,0-4.55-1.63,18.92,18.92,0,0,0,1.73-2.05l-3.2.18-.07-2.79c1.56-.07,3.41-.14,5.47-.25a24.61,24.61,0,0,0,1.42-2.19h-5.19l.56-6.4h6.32l.09-1h-5.37l.32-3.71h-2.68l.26-3h2.68l.32-3.57h5.37l.19-2.15h3.18l-.19,2.15h5.69l-.31,3.57h2.4l-.26,3h-2.4l-.33,3.71h-5.69l-.08,1h6.46l-.22,2.58c2.66-3.78,4.35-9.79,5.52-15.87l3.49.46c-.42,2-.87,4-1.43,5.87H290l-.32,3.67Zm-26,7.14h2.9l.11-1.3h-2.9Zm1.21,8.35c1.14.38,2.3.81,3.43,1.27a7,7,0,0,0,2.69-2.51l-5.4.28Zm2.34-15.84L265,264h-1.91l-.11,1.27Zm-1.47-4.95-.1,1.13h1.91l.1-1.13Zm8.87,19.34a8.51,8.51,0,0,1-3,4.17c1.22.56,2.31,1.13,3.25,1.62a17.72,17.72,0,0,0,6.88-6.75,47.8,47.8,0,0,1-1.46-7,21.56,21.56,0,0,1-1.57,2.58,19.29,19.29,0,0,0-2.36-2.58l-.32,3.64h-7.07c-.41.67-.86,1.34-1.31,2l4.16-.21.11-1.24h3.28l-.09,1.1,1.13-.08-.26,2.66Zm-4.76-8.2-.11,1.3h2.83l.11-1.3Zm2.59-6.19.11-1.27h-2.05l-.11,1.27Zm-1.61-4.95-.1,1.13h2.05l.1-1.13Zm12,5.3a57.39,57.39,0,0,0,1.06,8.49,49.25,49.25,0,0,0,2.27-8.49Z" fill="none" stroke="#f8b500" stroke-width="5"/><path d="M192,231.18H177.55l4-46L167,189.3l1-11,28.16-9.45h1.33Z" fill="#fff"/><path d="M225.44,197.14c-1.16,2.64-2.48,5.33-4,8l-2.61,29.76h-4.74L216,213.38c-1,1.3-2.07,2.52-3.13,3.61a32.81,32.81,0,0,0-1.87-5.41,49.66,49.66,0,0,0,9.94-15.87Zm25.58.63-3.21,36.64h-4.74l.18-2.06H227.47l-.21,2.44h-4.53l3.24-37ZM243.63,228l2.27-25.94H230.12L227.85,228Zm-4.54-17.16-.32,3.6h4l-1,11.25H230.19l1-11.25h3.73l.32-3.6H230.4l.32-3.61h4.83l.37-4.29h3.86l-.37,4.29h5.07l-.31,3.61Zm-.32,7h-4.28l-.39,4.4h4.28Z" fill="#fff"/><path d="M287,228.45c-.27,3-1.11,4.45-3.11,5.29s-5,1-9.36,1a19.41,19.41,0,0,0-1.64-5.24c2.93.17,6.45.12,7.38.12s1.37-.33,1.45-1.21l.53-6.09h-18a25.24,25.24,0,0,1-8.19,12.55,17.11,17.11,0,0,0-3.55-3.61c6.81-5.41,8.1-13.43,8.66-19.81l1.21-13.81h27.27Zm-4.33-11,.45-5.13H266.28c-.18,1.6-.42,3.36-.74,5.13Zm-15.51-15-.45,5.12h16.82l.45-5.12Z" fill="#fff"/><path d="M174.11,272.63a18.34,18.34,0,0,1-2.48,6.15,33.07,33.07,0,0,0,11.82,3,19.44,19.44,0,0,0-2.83,3.75,30.4,30.4,0,0,1-11.77-3.71,20.22,20.22,0,0,1-7.57,3.78,20.32,20.32,0,0,0-2.31-3.5,18.07,18.07,0,0,0,6.67-2.72,17.91,17.91,0,0,1-3.89-5.27l3.52-1.06a12.92,12.92,0,0,0,3,3.64,12.45,12.45,0,0,0,1.66-4H162l.9-10.32h8.13l.22-2.47H162.4l.28-3.25c-.75,1.34-1.58,2.72-2.47,4.06l-2.19,25h-4l1.66-19c-1.06,1.2-2.12,2.33-3.19,3.32a25,25,0,0,0-1.85-4.31,42.39,42.39,0,0,0,9.7-13.18l3.78,1.27c-.38.74-.77,1.48-1.15,2.26h8.62l.28-3.22h4.17l-.28,3.22h9.37l-.33,3.82h-9.37l-.22,2.47h8.41l-.9,10.32Zm-3.66-3.39,0-.46.26-3H166.4l-.3,3.5Zm4.47-3.5-.27,3.07,0,.43H179l.3-3.5Z" fill="#fff"/><path d="M216.63,280.58c-.19,2.27-.79,3.4-2.26,4s-3.67.78-6.85.75a14.77,14.77,0,0,0-1-4c2,.1,4.31.07,4.94.07s.94-.22,1-.85l.46-5.3h-7.46l-.86,9.86h-4.24l.86-9.86H194c-1,3.85-2.58,7.74-5.37,10.49a13.88,13.88,0,0,0-3.08-2.72c4.22-4.24,5.09-10.53,5.52-15.48l1.1-12.62h26.69Zm-15-9.29.38-4.35h-6.65l-.05.64c-.1,1.13-.25,2.4-.43,3.71ZM196,258.92l-.36,4.1h6.64l.36-4.1Zm17.26,12.37.38-4.35H206.2l-.38,4.35Zm1.08-12.37H206.9l-.36,4.1H214Z" fill="#fff"/><path d="M242.52,269.84c2,5.62,6.15,9.75,12.88,11.56a17.18,17.18,0,0,0-3.24,3.92,20,20,0,0,1-12.84-12c-2.35,4.7-6.74,9.16-14.95,12.13a14.16,14.16,0,0,0-2.44-3.64c8.42-2.9,12.28-7.46,14.12-12H224.21l.38-4.31h12.73c.15-1,.26-1.84.34-2.72l.31-3.57H226.42l.37-4.32h28l-.37,4.32h-12l-.32,3.64c-.07.84-.19,1.73-.3,2.65h13.46l-.37,4.31Z" fill="#fff"/><path d="M290.33,262.66a51.77,51.77,0,0,1-4.2,13.33,13.28,13.28,0,0,0,5,6.25,12.86,12.86,0,0,0-2.62,2.87,14.94,14.94,0,0,1-4.63-5.59,23,23,0,0,1-6.88,6.26,12.42,12.42,0,0,0-1.36-2.55l-2.44,1.95a33.14,33.14,0,0,0-4.34-2.44,39.58,39.58,0,0,1-10.13,2.62,9.94,9.94,0,0,0-1.28-2.69,45.13,45.13,0,0,0,7.59-1.59,46.53,46.53,0,0,0-4.55-1.63,18.92,18.92,0,0,0,1.73-2.05l-3.2.18-.07-2.79c1.56-.07,3.41-.14,5.47-.25a24.61,24.61,0,0,0,1.42-2.19h-5.19l.56-6.4h6.32l.09-1h-5.37l.32-3.71h-2.68l.26-3h2.68l.32-3.57h5.37l.19-2.15h3.18l-.19,2.15h5.69l-.31,3.57h2.4l-.26,3h-2.4l-.33,3.71h-5.69l-.08,1h6.46l-.22,2.58c2.66-3.78,4.35-9.79,5.52-15.87l3.49.46c-.42,2-.87,4-1.43,5.87H293l-.32,3.67Zm-26,7.14h2.9l.11-1.3h-2.9Zm1.21,8.35c1.14.38,2.3.81,3.43,1.27a7,7,0,0,0,2.69-2.51l-5.4.28Zm2.34-15.84L268,261h-1.91l-.11,1.27Zm-1.47-4.95-.1,1.13h1.91l.1-1.13Zm8.87,19.34a8.51,8.51,0,0,1-3,4.17c1.22.56,2.31,1.13,3.25,1.62a17.72,17.72,0,0,0,6.88-6.75,47.8,47.8,0,0,1-1.46-7,21.56,21.56,0,0,1-1.57,2.58,19.29,19.29,0,0,0-2.36-2.58l-.32,3.64h-7.07c-.41.67-.86,1.34-1.31,2l4.16-.21.11-1.24h3.28l-.09,1.1,1.13-.08-.26,2.66Zm-4.76-8.2-.11,1.3h2.83l.11-1.3Zm2.59-6.19.11-1.27h-2.05l-.11,1.27Zm-1.61-4.95-.1,1.13h2.05l.1-1.13Zm12,5.3a57.39,57.39,0,0,0,1.06,8.49,49.25,49.25,0,0,0,2.27-8.49Z" fill="#fff"/><path d="M437.49,212.49H423l4-46-14.57,4.14,1-10.95,28.17-9.45h1.32Z" fill="none" stroke="#e60012" stroke-width="5"/><path d="M503.51,187q-1.11,12.63-7.38,19.47t-16.57,6.84q-10.4,0-15.49-6.88t-4-19.43l1-11.38q1.1-12.61,7.37-19.46t16.62-6.85q10.35,0,15.44,6.89t4,19.47Zm-13.26-13.22q.58-6.7-.88-10a5.28,5.28,0,0,0-5.27-3.31,6.31,6.31,0,0,0-5.68,3.08q-2,3.07-2.64,9.32l-1.39,15.92q-.61,7,.86,10.2a5.3,5.3,0,0,0,5.28,3.23,6.44,6.44,0,0,0,5.71-3.14q2-3.15,2.66-9.86Z" fill="none" stroke="#e60012" stroke-width="5"/><path d="M523.14,197.34s-.15,1.26-.25,1.89c-1.33,9.48-2.14,13.51-3.48,14.9a4.76,4.76,0,0,1-3.3,1.72A32.21,32.21,0,0,1,511,216a10.23,10.23,0,0,0-1.08-4.91c1.83.17,3.51.21,4.34.21a2,2,0,0,0,1.56-.5c.69-.67,1.33-3.19,2.18-9.15h-7.72c.65-3.61,1.4-9.28,1.75-13.77h7.18l.41-4.66h-7.81l.39-4.45h12.38l-1.19,13.56H515.9c-.19,1.72-.38,3.44-.6,5Zm24.09,6.25c-2,1.26-4.09,2.56-5.89,3.53a21,21,0,0,0,6.32,4.49,23.13,23.13,0,0,0-3.71,4.07c-5.57-3-9.63-8.9-11.86-15.61H530l-.86,9.82,5.55-1.56a24.48,24.48,0,0,0-.07,4.07c-8.06,2.48-9.5,3.15-10.44,3.82a16.28,16.28,0,0,0-1.75-4,4.51,4.51,0,0,0,2.14-3.44l.77-8.73h-1.85l.37-4.24h2.56l1.5-17.17h21l-.34,3.9H532.45l-.18,2h14.48l-.3,3.48H532l-.19,2.14H546.3l-.3,3.49H531.48l-.19,2.14h16.83l-.37,4.24H536.63a20.42,20.42,0,0,0,2.39,4.32,41,41,0,0,0,4.79-3.91Z" fill="none" stroke="#e60012" stroke-width="5"/><path d="M406.43,247.26h-3.85l.69-7.95h13.36l.12-1.41H405l.24-2.76h27.71l-.24,2.76H420.86l-.13,1.41h13.64l-.69,7.95h-4.07l-1,2.55a50.93,50.93,0,0,0-8-2l1-2.37a44.43,44.43,0,0,1,7.8,1.66l.45-5.05H428l1.11,1.8a37.17,37.17,0,0,1-6.44,1.69l-1.13-2a47,47,0,0,0,5-1.52h-6l-.64,7.35h-4.1l.64-7.35h-6.75a36.28,36.28,0,0,1,5.39,1.44l-1.33,2.27a41.47,41.47,0,0,0-5.93-1.74l1.16-2H407l-.43,4.84c2.18-.25,5.18-.67,8.26-1.13l-.07,2.4-7.64,1.7Zm21.15,15.94c1.81,0,2.17-.53,2.68-3.5a9.86,9.86,0,0,0,3.38,1.31c-.86,4.24-2.13,5.37-6,5.37h-7.42c-4.81,0-6.1-1-5.78-4.66v-.11H408.6l-.13,1.52h-4l1.12-12.83h24.49l-1,11.31H418.5v.11c-.11,1.27.29,1.48,2.41,1.48Zm-12.86-4.42.14-1.59H409l-.14,1.59Zm-5.38-5.65-.13,1.59h5.86l.14-1.59Zm15.8,5.65.14-1.59h-6.4l-.13,1.59Zm.5-5.65h-6.4l-.14,1.59h6.4Z" fill="none" stroke="#e60012" stroke-width="5"/><path d="M469.69,253.34H456l-.74,8.52c-.21,2.37-.84,3.53-2.56,4.2s-4.2.78-7.45.75a15.6,15.6,0,0,0-1.42-4.35c2.46.14,5.22.14,6,.1s1-.21,1.1-.81l.73-8.41h-14l.37-4.21h14l.43-4.91a49.8,49.8,0,0,0,7.19-4.17H442.26l.36-4.17h22l1-.21,3,2.44a59.83,59.83,0,0,1-12,8.34l-.24,2.68h13.72Z" fill="none" stroke="#e60012" stroke-width="5"/><path d="M504.73,254c-2.11,1.48-4.57,2.93-6.69,4.13a18.24,18.24,0,0,0,7.61,4.24,19.35,19.35,0,0,0-3.08,3.71c-7.09-2.51-11-7.63-13-14.95a41.11,41.11,0,0,1-4.9,3.93l-.53,6,7.82-2.08a22.54,22.54,0,0,0,.38,3.75c-10.37,3-12,3.5-13.12,4.13a12.47,12.47,0,0,0-1.41-3.71,3.4,3.4,0,0,0,2-2.79l.23-2.58a39.17,39.17,0,0,1-5,2.15,18.27,18.27,0,0,0-2.43-3.39,40.07,40.07,0,0,0,11.78-5.8h-10l.31-3.57H488l.18-2H478l.3-3.36h10.14l.16-1.84H476.76l.31-3.57h11.87l.23-2.54h4.24l-.23,2.54h12.3l-.31,3.57h-12.3l-.16,1.84h10.92l-.29,3.36H492.42l-.18,2h13.51l-.32,3.57H493.56a17.52,17.52,0,0,0,2.3,4.81,51.08,51.08,0,0,0,5.59-4.13Z" fill="none" stroke="#e60012" stroke-width="5"/><path d="M540.67,262.39H526.92l-.39,4.49h-4.31l.39-4.49H509.18l.32-3.61h13.43l.16-1.83H513l1.15-13.26h25.06L538.07,257H527.4l-.16,1.83H541Zm-15-20.08H513l.62-7.07h12.62Zm-3.52-4.56h-5L517,239.8h5Zm1.25,16,.17-1.91h-6l-.16,1.91Zm-5.54-4.91h6l.16-1.88h-6Zm16.38,3h-6.36l-.17,1.91H534Zm6.27-9.51H527.8l.61-7.07H541.1Zm-5.84,4.63h-6.37l-.16,1.88h6.36Zm2.32-9.19h-5.05l-.18,2.05h5Z" fill="none" stroke="#e60012" stroke-width="5"/><path d="M440.49,209.49H426l4-46-14.57,4.14,1-10.95,28.17-9.45h1.32Z" fill="#fff"/><path d="M506.51,184q-1.11,12.63-7.38,19.47t-16.57,6.84q-10.4,0-15.49-6.88t-4-19.43l1-11.38q1.1-12.61,7.37-19.46t16.62-6.85q10.35,0,15.44,6.89t4,19.47Zm-13.26-13.22q.58-6.7-.88-10a5.28,5.28,0,0,0-5.27-3.31,6.31,6.31,0,0,0-5.68,3.08q-2,3.07-2.64,9.32l-1.39,15.92q-.61,7,.86,10.2a5.3,5.3,0,0,0,5.28,3.23,6.44,6.44,0,0,0,5.71-3.14q2-3.15,2.66-9.86Z" fill="#fff"/><path d="M526.14,194.34s-.15,1.26-.25,1.89c-1.33,9.48-2.14,13.51-3.48,14.9a4.76,4.76,0,0,1-3.3,1.72A32.21,32.21,0,0,1,514,213a10.23,10.23,0,0,0-1.08-4.91c1.83.17,3.51.21,4.34.21a2,2,0,0,0,1.56-.5c.69-.67,1.33-3.19,2.18-9.15h-7.72c.65-3.61,1.4-9.28,1.75-13.77h7.18l.41-4.66h-7.81l.39-4.45h12.38l-1.19,13.56H518.9c-.19,1.72-.38,3.44-.6,5Zm24.09,6.25c-2,1.26-4.09,2.56-5.89,3.53a21,21,0,0,0,6.32,4.49,23.13,23.13,0,0,0-3.71,4.07c-5.57-3-9.63-8.9-11.86-15.61H533l-.86,9.82,5.55-1.56a24.48,24.48,0,0,0-.07,4.07c-8.06,2.48-9.5,3.15-10.44,3.82a16.28,16.28,0,0,0-1.75-4,4.51,4.51,0,0,0,2.14-3.44l.77-8.73h-1.85l.37-4.24h2.56l1.5-17.17h21l-.34,3.9H535.45l-.18,2h14.48l-.3,3.48H535l-.19,2.14H549.3l-.3,3.49H534.48l-.19,2.14h16.83l-.37,4.24H539.63a20.42,20.42,0,0,0,2.39,4.32,41,41,0,0,0,4.79-3.91Z" fill="#fff"/><path d="M409.43,244.26h-3.85l.69-7.95h13.36l.12-1.41H408l.24-2.76h27.71l-.24,2.76H423.86l-.13,1.41h13.64l-.69,7.95h-4.07l-1,2.55a50.93,50.93,0,0,0-8-2l1-2.37a44.43,44.43,0,0,1,7.8,1.66l.45-5.05H431l1.11,1.8a37.17,37.17,0,0,1-6.44,1.69l-1.13-2a47,47,0,0,0,5-1.52h-6l-.64,7.35h-4.1l.64-7.35h-6.75a36.28,36.28,0,0,1,5.39,1.44l-1.33,2.27a41.47,41.47,0,0,0-5.93-1.74l1.16-2H410l-.43,4.84c2.18-.25,5.18-.67,8.26-1.13l-.07,2.4-7.64,1.7Zm21.15,15.94c1.81,0,2.17-.53,2.68-3.5a9.86,9.86,0,0,0,3.38,1.31c-.86,4.24-2.13,5.37-6,5.37h-7.42c-4.81,0-6.1-1-5.78-4.66v-.11H411.6l-.13,1.52h-4l1.12-12.83h24.49l-1,11.31H421.5v.11c-.11,1.27.29,1.48,2.41,1.48Zm-12.86-4.42.14-1.59H412l-.14,1.59Zm-5.38-5.65-.13,1.59h5.86l.14-1.59Zm15.8,5.65.14-1.59h-6.4l-.13,1.59Zm.5-5.65h-6.4l-.14,1.59h6.4Z" fill="#fff"/><path d="M472.69,250.34H459l-.74,8.52c-.21,2.37-.84,3.53-2.56,4.2s-4.2.78-7.45.75a15.6,15.6,0,0,0-1.42-4.35c2.46.14,5.22.14,6,.1s1-.21,1.1-.81l.73-8.41h-14l.37-4.21h14l.43-4.91a49.8,49.8,0,0,0,7.19-4.17H445.26l.36-4.17h22l1-.21,3,2.44a59.83,59.83,0,0,1-12,8.34l-.24,2.68h13.72Z" fill="#fff"/><path d="M507.73,251c-2.11,1.48-4.57,2.93-6.69,4.13a18.24,18.24,0,0,0,7.61,4.24,19.35,19.35,0,0,0-3.08,3.71c-7.09-2.51-11-7.63-13-14.95a41.11,41.11,0,0,1-4.9,3.93l-.53,6,7.82-2.08a22.54,22.54,0,0,0,.38,3.75c-10.37,3-12,3.5-13.12,4.13a12.47,12.47,0,0,0-1.41-3.71,3.4,3.4,0,0,0,2-2.79l.23-2.58a39.17,39.17,0,0,1-5,2.15,18.27,18.27,0,0,0-2.43-3.39,40.07,40.07,0,0,0,11.78-5.8h-10l.31-3.57H491l.18-2H481l.3-3.36h10.14l.16-1.84H479.76l.31-3.57h11.87l.23-2.54h4.24l-.23,2.54h12.3l-.31,3.57h-12.3l-.16,1.84h10.92l-.29,3.36H495.42l-.18,2h13.51l-.32,3.57H496.56a17.52,17.52,0,0,0,2.3,4.81,51.08,51.08,0,0,0,5.59-4.13Z" fill="#fff"/><path d="M543.67,259.39H529.92l-.39,4.49h-4.31l.39-4.49H512.18l.32-3.61h13.43l.16-1.83H516l1.15-13.26h25.06L541.07,254H530.4l-.16,1.83H544Zm-15-20.08H516l.62-7.07h12.62Zm-3.52-4.56h-5L520,236.8h5Zm1.25,16,.17-1.91h-6l-.16,1.91Zm-5.54-4.91h6l.16-1.88h-6Zm16.38,3h-6.36l-.17,1.91H537Zm6.27-9.51H530.8l.61-7.07H544.1Zm-5.84,4.63h-6.37l-.16,1.88h6.36Zm2.32-9.19h-5.05l-.18,2.05h5Z" fill="#fff"/><g opacity="0.05" style="mix-blend-mode:multiply"><ellipse cx="338.13" cy="220.54" rx="19.23" ry="17.62" transform="translate(-58.64 295.03) rotate(-43.75)"/></g><ellipse cx="343.13" cy="215.54" rx="19.23" ry="17.62" transform="translate(-53.79 297.1) rotate(-43.75)" fill="#fff"/><polygon points="354.57 217.87 331.28 217.87 331.68 213.21 354.98 213.21 354.57 217.87" fill="#f5a200"/><polygon points="339.78 227.19 341.82 203.9 346.48 203.9 344.44 227.19 339.78 227.19" fill="#f5a200"/><polygon points="336.64 293.88 352.03 293.88 350.15 315.32 336.64 293.88" fill="#eb6164"/><g opacity="0.05" style="mix-blend-mode:multiply"><path d="M99.56,187.78H36.64a9.28,9.28,0,0,1-9.39-10.3l4.29-49A11.45,11.45,0,0,1,42.73,118.2h62.92A9.28,9.28,0,0,1,115,128.49l-4.28,49A11.47,11.47,0,0,1,99.56,187.78Z"/></g><path d="M104.56,182.78H41.64a9.28,9.28,0,0,1-9.39-10.3l4.29-49A11.45,11.45,0,0,1,47.73,113.2h62.92A9.28,9.28,0,0,1,120,123.49l-4.28,49A11.47,11.47,0,0,1,104.56,182.78Z" fill="#fff"/><path d="M68.67,173.17H65.46a1,1,0,0,1-.93-1.16L68,156.66a1,1,0,0,1,.93-.74h5.38a1,1,0,0,1,.94,1.17l-3,13.21A3.68,3.68,0,0,1,68.67,173.17Z" fill="#3db4e8"/><path d="M95.85,146l-3,.67L90.58,136.5l3-.67a5.22,5.22,0,0,1,6.24,3.94h0A5.22,5.22,0,0,1,95.85,146Z" fill="#f8b500"/><path d="M56.93,137.66H67a0,0,0,0,1,0,0v22.6a0,0,0,0,1,0,0H56.93a4.17,4.17,0,0,1-4.17-4.17V141.83A4.17,4.17,0,0,1,56.93,137.66Z" transform="translate(-31.39 16.88) rotate(-12.75)" fill="#f8b500"/><path d="M64.32,136.37l25.82-10.46a2.26,2.26,0,0,1,3,1.59l5.92,26.19a2.25,2.25,0,0,1-2,2.75l-27.77,2Z" fill="#ffe893"/><path d="M61.89,142.45l-5.37,1.21a.6.6,0,0,1-.73-.46h0a.6.6,0,0,1,.46-.73l5.37-1.22a.62.62,0,0,1,.73.47h0A.61.61,0,0,1,61.89,142.45Z" fill="#ffe893"/><path d="M62.4,144.69,57,145.9a.62.62,0,0,1-.74-.46h0a.62.62,0,0,1,.47-.73l5.37-1.22a.62.62,0,0,1,.73.47h0A.62.62,0,0,1,62.4,144.69Z" fill="#ffe893"/><rect x="573.3" y="394.23" width="12.73" height="24.12" rx="6.13" transform="translate(227.88 -207.98) rotate(25.17)" fill="#cce7f3"/><path d="M577.8,419.05a6,6,0,0,1-2.54-.57l-2.17-1a6,6,0,0,1-2.88-8L576.07,397a6,6,0,0,1,8-2.88l2.17,1a6,6,0,0,1,2.89,8l-5.87,12.49a6,6,0,0,1-3.4,3.09A6.12,6.12,0,0,1,577.8,419.05Zm3.72-23.83a4.34,4.34,0,0,0-3.92,2.48l-5.86,12.48a4.34,4.34,0,0,0,2.07,5.75l2.17,1a4.34,4.34,0,0,0,5.75-2.07l5.87-12.48a4.33,4.33,0,0,0-2.08-5.75l-2.17-1A4.27,4.27,0,0,0,581.52,395.22Z" fill="#8bcae8"/><path d="M572,407.67l-2.84,6-2-.93a5.43,5.43,0,0,0-4.62,9.82l8.59,4a5.44,5.44,0,0,0,7.22-2.61l5.14-10.94Z" fill="#fdd762"/><path d="M573.44,428a6.32,6.32,0,0,1-2.66-.6l-8.59-4A6.27,6.27,0,0,1,567.53,412l1.21.57,2.84-6,13,6.14-5.51,11.71A6.27,6.27,0,0,1,573.44,428Zm-8.57-14.89a4.58,4.58,0,0,0-2,8.72l8.59,4a4.57,4.57,0,0,0,6.09-2.2l4.79-10.18-10-4.7-2.84,6-2.74-1.29A4.63,4.63,0,0,0,564.87,413.11Z" fill="#f8b500"/><rect x="598.64" y="398.55" width="12.73" height="24.12" rx="6.13" transform="translate(284.33 -246.51) rotate(29.82)" fill="#cce7f3"/><path d="M602.61,423.2a6,6,0,0,1-3-.79h0l-2.09-1.2a6,6,0,0,1-2.23-8.2l6.87-12a6,6,0,0,1,8.19-2.22l2.09,1.19a6,6,0,0,1,2.23,8.2l-6.86,12A6,6,0,0,1,602.61,423.2Zm-2.13-2.26a4.32,4.32,0,0,0,5.89-1.6l6.86-12a4.32,4.32,0,0,0-1.6-5.89l-2.09-1.2a4.24,4.24,0,0,0-3.27-.41,4.29,4.29,0,0,0-2.62,2l-6.86,12a4.32,4.32,0,0,0,1.6,5.89Z" fill="#8bcae8"/><path d="M597.14,411.53l-3.22,5.62L592,416.06a5.43,5.43,0,1,0-5.4,9.42l8.24,4.72a5.42,5.42,0,0,0,7.4-2l5.92-10.33Z" fill="#fdd762"/><path d="M597.55,431.76a6.24,6.24,0,0,1-3.1-.83l-8.24-4.72a6.27,6.27,0,0,1,6.24-10.88l1.16.67,3.22-5.62,12.52,7.17L603,428.61A6.26,6.26,0,0,1,597.55,431.76Zm-8.21-15.57a4.57,4.57,0,0,0-1.21.16,4.58,4.58,0,0,0-3.22,5.62,4.57,4.57,0,0,0,2.14,2.78l8.24,4.72a4.59,4.59,0,0,0,6.25-1.7l5.5-9.59-9.58-5.5-3.23,5.62-2.62-1.5A4.57,4.57,0,0,0,589.34,416.19Z" fill="#f8b500"/><path d="M618.51,412.07a38.63,38.63,0,0,0,19.43-74.66,31.76,31.76,0,0,0-60.52,1.72,31.8,31.8,0,0,0-9.1,62.85Z" fill="#cce7f3"/><path d="M626.14,413.67a39.13,39.13,0,0,1-7.79-.78l-50.2-10.09a32.64,32.64,0,0,1,8.65-64.57,32.61,32.61,0,0,1,61.8-1.5,39.48,39.48,0,0,1-12.46,76.94Zm-7.46-2.43a37.79,37.79,0,0,0,19-73l-.4-.13-.14-.4a30.91,30.91,0,0,0-58.91,1.67l-.2.67-.69-.06a31,31,0,0,0-8.86,61.18Z" fill="#8bcae8"/><path d="M552.92,356l-7.15-12.67a4.75,4.75,0,0,1,1.8-6.45h0a4.76,4.76,0,0,1,6.46,1.8l7.14,12.67" fill="#cce7f3"/><path d="M552.92,356.86a.84.84,0,0,1-.74-.43L545,343.76a5.58,5.58,0,0,1,9.72-5.48L561.91,351a.85.85,0,0,1-.33,1.15.84.84,0,0,1-1.15-.32l-7.14-12.67a3.88,3.88,0,0,0-7.13.87,3.84,3.84,0,0,0,.35,2.95l7.14,12.67a.84.84,0,0,1-.32,1.15A.77.77,0,0,1,552.92,356.86Z" fill="#8bcae8"/><path d="M658.32,377.71l13.25-6a4.75,4.75,0,0,0,2.37-6.27h0a4.76,4.76,0,0,0-6.27-2.37l-13.25,6" fill="#cce7f3"/><path d="M658.32,378.56a.85.85,0,0,1-.35-1.62l13.26-6a3.88,3.88,0,0,0,2-2.18,3.83,3.83,0,0,0-.09-3,3.9,3.9,0,0,0-5.15-1.95l-13.25,6a.85.85,0,0,1-1.12-.42.84.84,0,0,1,.42-1.12l13.26-6a5.58,5.58,0,0,1,4.59,10.18l-13.25,6A.77.77,0,0,1,658.32,378.56Z" fill="#8bcae8"/><circle cx="578.38" cy="353.41" r="9.86" fill="#f7d8d7"/><path d="M591.07,359a.34.34,0,0,0-.42.35c.11,1.64.9,7.3,6.71,8.73a10.05,10.05,0,0,0,11.18-4.31.34.34,0,0,0-.2-.51Z" fill="#0d74b4"/><path d="M595.14,360l-.76,3.07a.48.48,0,0,0,.35.59l5.6,1.38a.5.5,0,0,0,.59-.35l.75-3.08Z" fill="#fff"/><circle cx="625.91" cy="364.24" r="9.86" fill="#f7d8d7"/><ellipse cx="592.59" cy="343.27" rx="8.38" ry="7.47" transform="translate(116.62 835.65) rotate(-76.05)" fill="#fff"/><ellipse cx="614.84" cy="348" rx="8.38" ry="7.47" transform="translate(128.9 860.84) rotate(-76.05)" fill="#fff"/><ellipse cx="592.53" cy="343.52" rx="5.23" ry="4.34" transform="translate(116.32 835.78) rotate(-76.05)" fill="#0d74b4"/><ellipse cx="614.79" cy="347.99" rx="5.23" ry="4.34" transform="translate(128.88 860.78) rotate(-76.05)" fill="#0d74b4"/><ellipse cx="587.64" cy="440.25" rx="32.91" ry="6.04" fill="#e5e5e5"/><path d="M537.28,373.16c-2.44.48-12.16,13.52-12.16,13.52l-.35.9s17.6-2,18.24-2.71C544.73,382.84,539.28,372.77,537.28,373.16Zm-12,13.8c3.21-4.11,10.53-10.1,12.11-11.38a20,20,0,0,1,3.82,7.62C539.15,383.61,530.37,386.34,525.24,387Z" fill="#eb6164"/><path d="M516.87,370.49c-3.8-5.15-5.82-4.28-7.26-3.66s-6.78,7.28-5.11,10.75,18.11,10.29,18.11,10.29l.6-1.28S520.67,375.63,516.87,370.49Zm-10.43,6.15c-.83-1.73,2.71-6.94,4.1-7.86a2.4,2.4,0,0,1,.89-.27c.31,0,1.48.24,3.71,3.26a66.16,66.16,0,0,1,7.27,14.85C515.79,383.68,507.24,378.1,506.44,376.64Z" fill="#eb6164"/><rect x="521.95" y="384.93" width="3.62" height="5.16" rx="1.42" fill="#eb6164"/><path d="M550.42,433.19h-50a5.14,5.14,0,0,1-5.12-4.79l-2.62-40.18h65.14l-2.73,41.85C555,431.82,552.9,433.19,550.42,433.19Z" fill="#fdd762"/><path d="M560.48,397l-70.71.14-.76-4.55a4.48,4.48,0,0,1,4.42-5.2l64,.18c2.27,0,4.05,1.41,3.85,3Z" fill="#ffe893"/><rect x="523.69" y="387.44" width="1.35" height="9.64" fill="#eb6164"/><rect x="525.05" y="397.03" width="1.68" height="36.23" fill="#eb6164"/><polygon points="714.99 0.61 714.99 483.06 691.38 483.06 691.38 24.87 23.61 24.87 23.61 0.61 714.99 0.61" fill="#e6e6e6"/><rect x="-0.02" y="1.29" width="23.63" height="23.58" fill="#fff"/><rect x="691.38" y="483.06" width="23.6" height="23.55" fill="#fff"/><path d="M690.89,25.37V504.75H.49V25.37h690.4m.5-.5H0V505.25h691.4V24.87Z" fill="#e6e6e6"/></g></svg>