<svg xmlns="http://www.w3.org/2000/svg" xmlns:xlink="http://www.w3.org/1999/xlink" viewBox="0 0 855 605">
  <defs>
    <clipPath id="a255e0e0-7b82-47ad-9a81-fa399a90e300">
      <rect x="0.06" y="29.06" width="826.72" height="575.94" style="fill: none"/>
    </clipPath>
  </defs>
  <title>首頁_BANNER_Blog推廣</title>
  <g style="isolation: isolate">
    <g id="961da2ca-894d-46c3-8453-fec6b8629f9c" data-name="圖層 1">
      <rect x="28.28" width="826.72" height="578" style="fill: #bfc0c0"/>
      <g>
        <rect x="0.06" y="29.06" width="826.72" height="575.94" style="fill: #fff"/>
        <g style="opacity: 0.30000000000000004">
          <path d="M56.68,80.51l10.11,25.31a1.88,1.88,0,0,1-1,2.44l-44,17.57a1.88,1.88,0,0,1-2.44-1L9.2,99.48a1.88,1.88,0,0,1,1-2.44l44-17.57A1.88,1.88,0,0,1,56.68,80.51Z" style="fill: #fff3d6"/>
          <path d="M56.68,80.51l.56,1.4-14.29,22.4A6,6,0,0,1,36.39,107L9.52,100.28l-.32-.8a1.88,1.88,0,0,1,1-2.44l44-17.57A1.88,1.88,0,0,1,56.68,80.51Z" style="fill: #fff2c2"/>
        </g>
        <circle cx="770" cy="211.67" r="9.9" transform="translate(75.86 606.47) rotate(-45)" style="fill: #fffaec"/>
        <circle cx="427.09" cy="468.33" r="8.86" style="fill: #fff2c2"/>
        <g style="opacity: 0.30000000000000004">
          <path d="M789,68.88l-9.83,29a2.11,2.11,0,0,1-2.67,1.32L726.2,82.07a2.11,2.11,0,0,1-1.32-2.67l9.83-29a2.11,2.11,0,0,1,2.67-1.32L787.73,66.2A2.11,2.11,0,0,1,789,68.88Z" style="fill: #fdeeed"/>
          <path d="M789,68.88l-.54,1.6L760,79.16a6.72,6.72,0,0,1-7.55-2.49l-18-25.32.31-.91a2.11,2.11,0,0,1,2.68-1.32L787.72,66.2A2.11,2.11,0,0,1,789,68.88Z" style="fill: #fadbda"/>
        </g>
        <g style="clip-path: url(#a255e0e0-7b82-47ad-9a81-fa399a90e300)">
          <g style="opacity: 0.30000000000000004">
            <g>
              <path d="M799.35,637.61l-83.71-32.48a10.33,10.33,0,0,1-5.89-13.36l38-98a10.33,10.33,0,0,1,13.36-5.89l83.71,32.48a10.33,10.33,0,0,1,5.89,13.36l-38,98A10.33,10.33,0,0,1,799.35,637.61Z" style="fill: #ebf6fb"/>
              <g>
                <rect x="753.9" y="521.95" width="8.84" height="78.47" transform="translate(254.41 -236.34) rotate(21.21)" style="fill: #fff"/>
                <rect x="766.21" y="526.72" width="8.84" height="78.47" transform="translate(256.95 -240.46) rotate(21.21)" style="fill: #fff"/>
                <rect x="778.53" y="531.5" width="8.84" height="78.47" transform="translate(259.53 -244.61) rotate(21.21)" style="fill: #fff"/>
                <rect x="790.84" y="536.28" width="8.84" height="78.47" transform="translate(262.11 -248.75) rotate(21.21)" style="fill: #fff"/>
                <rect x="803.15" y="541.06" width="8.84" height="78.47" transform="translate(264.65 -252.86) rotate(21.21)" style="fill: #fff"/>
                <rect x="769.88" y="517.94" width="8.84" height="4.14" transform="translate(240.62 -244.93) rotate(21.21)" style="fill: #fff"/>
                <rect x="755.17" y="519.74" width="8.84" height="4.14" transform="translate(240.23 -239.46) rotate(21.21)" style="fill: #fff"/>
                <rect x="750.44" y="531.93" width="8.84" height="4.14" transform="translate(244.29 -236.9) rotate(21.21)" style="fill: #fff"/>
                <rect x="745.71" y="544.12" width="8.84" height="4.14" transform="translate(248.43 -234.39) rotate(21.21)" style="fill: #fff"/>
                <rect x="740.98" y="556.31" width="8.84" height="4.14" transform="translate(252.5 -231.85) rotate(21.21)" style="fill: #fff"/>
                <rect x="740.98" y="556.31" width="8.84" height="4.14" transform="translate(252.5 -231.85) rotate(21.21)" style="fill: #fff"/>
                <rect x="736.24" y="568.51" width="8.84" height="4.14" transform="translate(256.58 -229.3) rotate(21.21)" style="fill: #fff"/>
                <rect x="731.51" y="580.7" width="8.84" height="4.14" transform="matrix(0.93, 0.36, -0.36, 0.93, 260.7, -226.78)" style="fill: #fff"/>
                <rect x="782.19" y="522.72" width="8.84" height="4.14" transform="translate(243.15 -249.04) rotate(21.21)" style="fill: #fff"/>
                <rect x="794.5" y="527.49" width="8.84" height="4.14" transform="translate(245.7 -253.16) rotate(21.21)" style="fill: #fff"/>
                <rect x="806.81" y="532.27" width="8.84" height="4.14" transform="translate(248.26 -257.29) rotate(21.21)" style="fill: #fff"/>
                <rect x="819.12" y="537.05" width="8.84" height="4.14" transform="translate(250.84 -261.43) rotate(21.21)" style="fill: #fff"/>
              </g>
              <path d="M831.31,531.81l-64.14-24.89a4.84,4.84,0,0,1-2.76-6.26h0a4.84,4.84,0,0,1,6.26-2.76l64.14,24.89a4.84,4.84,0,0,1,2.76,6.26h0A4.84,4.84,0,0,1,831.31,531.81Z" style="fill: #fff"/>
            </g>
          </g>
          <g style="opacity: 0.30000000000000004">
            <path d="M83.82,567.65,61.21,609a3.25,3.25,0,0,1-4.41,1.3L-15.09,571a3.25,3.25,0,0,1-1.29-4.41L6.22,525.25A3.25,3.25,0,0,1,10.63,524l71.89,39.29A3.25,3.25,0,0,1,83.82,567.65Z" style="fill: #ebf6fb"/>
            <path d="M83.82,567.65l-1.25,2.29L37,575.56a10.35,10.35,0,0,1-10.81-5.79L5.51,526.55l.71-1.31A3.25,3.25,0,0,1,10.64,524l71.89,39.29A3.25,3.25,0,0,1,83.82,567.65Z" style="fill: #cfebf8"/>
          </g>
        </g>
      </g>
    </g>
    <g id="d6b77611-8ae0-481a-bdbd-e05e30e2b2c9" data-name="圖層 4">
      <g>
        <path d="M398.62,285.86c1.57-42.45-13.69-85.43-47.31-105.88-16.6-10.1-36-16-55.42-15.14-20.82.93-40.44,9.41-60.08,16.38s-40.91,12.58-61.15,7.62c-14.65-3.59-27.54-12.46-42.07-16.5C75.52,156.47,25.8,221.26,53.74,272.74,60.6,285.37,71.18,295.5,80,306.81s16.34,25,15.15,39.28c-1,11.86-7.75,22.42-10.55,34-5.36,22.15,5.26,46.52,23.62,60s43.13,16.68,65.23,11.13,41.61-19.15,57-36c8.22-9,16.23-19.56,28-22.62,11.32-2.94,23,1.84,34.49,4a79.41,79.41,0,0,0,61.27-13.94C382,362.19,397.2,324.24,398.62,285.86Z" style="fill: #f3fafe"/>
        <g>
          <ellipse cx="215.96" cy="493.33" rx="138.6" ry="27.72" style="fill: #ebf6fb"/>
          <ellipse cx="215.96" cy="493.33" rx="138.6" ry="27.72" style="fill: #ebf6fb;opacity: 0.5"/>
        </g>
        <g id="420f14ce-5bcd-4046-9f03-9b985e5096f0" data-name="&lt;群組&gt;">
          <rect id="423d2921-1f13-4fe6-8d99-b443485d6332" data-name="&lt;矩形&gt;" x="256.99" y="124.6" width="112.3" height="122.53" rx="6.03" ry="6.03" style="fill: #fff;stroke: #bfc0c0;stroke-linecap: round;stroke-linejoin: round;stroke-width: 1.02509383985076px"/>
          <path id="f7a3a651-5f3c-49fd-ad53-d2505697233c" data-name="&lt;矩形&gt;" d="M263,124.6H363.25a6,6,0,0,1,6,6v6.57a0,0,0,0,1,0,0H257a0,0,0,0,1,0,0v-6.57A6,6,0,0,1,263,124.6Z" style="fill: #bfc0c0;stroke: #bfc0c0;stroke-linecap: round;stroke-linejoin: round;stroke-width: 1.02509383985076px"/>
          <g id="0c4ebd1d-c91c-42bd-a8c2-203643db35f3" data-name="&lt;群組&gt;">
            <g id="d74136c7-068d-4a41-aa52-e4586db2ddea" data-name="&lt;群組&gt;">
              <line id="8675e89b-4700-411b-b3e6-7fb2b6df9059" data-name="&lt;路徑&gt;" x1="263.11" y1="190.01" x2="308.3" y2="190.01" style="fill: #898989;stroke: #bfc0c0;stroke-linecap: round;stroke-linejoin: round;stroke-width: 1.02509383985076px"/>
              <line id="c0d1fc80-b6be-496a-907c-98d617322153" data-name="&lt;路徑&gt;" x1="263.11" y1="195.85" x2="308.3" y2="195.85" style="fill: #898989;stroke: #bfc0c0;stroke-linecap: round;stroke-linejoin: round;stroke-width: 1.02509383985076px"/>
              <line id="7f110944-27f7-4f0b-92d1-381abe517de1" data-name="&lt;路徑&gt;" x1="263.11" y1="201.68" x2="308.3" y2="201.68" style="fill: #898989;stroke: #bfc0c0;stroke-linecap: round;stroke-linejoin: round;stroke-width: 1.02509383985076px"/>
              <line id="69f2177c-7357-4f19-9790-a23ed7782658" data-name="&lt;路徑&gt;" x1="263.11" y1="207.52" x2="308.3" y2="207.52" style="fill: #898989;stroke: #bfc0c0;stroke-linecap: round;stroke-linejoin: round;stroke-width: 1.02509383985076px"/>
              <line id="f45f9901-a047-4eb7-b8ee-cac9734b47b6" data-name="&lt;路徑&gt;" x1="263.11" y1="213.36" x2="308.3" y2="213.36" style="fill: #898989;stroke: #bfc0c0;stroke-linecap: round;stroke-linejoin: round;stroke-width: 1.02509383985076px"/>
              <line id="41ee1b30-b5e8-4074-8c8e-e162a788257d" data-name="&lt;路徑&gt;" x1="263.11" y1="219.19" x2="308.3" y2="219.19" style="fill: #898989;stroke: #bfc0c0;stroke-linecap: round;stroke-linejoin: round;stroke-width: 1.02509383985076px"/>
              <line id="a7370d6b-3074-44bf-ab1d-b72c65556edc" data-name="&lt;路徑&gt;" x1="263.11" y1="225.03" x2="308.3" y2="225.03" style="fill: #898989;stroke: #bfc0c0;stroke-linecap: round;stroke-linejoin: round;stroke-width: 1.02509383985076px"/>
              <line id="a94660e7-432b-44be-aa58-cbe421cac738" data-name="&lt;路徑&gt;" x1="263.11" y1="230.86" x2="308.3" y2="230.86" style="fill: #898989;stroke: #bfc0c0;stroke-linecap: round;stroke-linejoin: round;stroke-width: 1.02509383985076px"/>
              <line id="1ece04b6-9f0e-4031-9a97-7e9296922dfe" data-name="&lt;路徑&gt;" x1="263.11" y1="236.7" x2="308.3" y2="236.7" style="fill: #898989;stroke: #bfc0c0;stroke-linecap: round;stroke-linejoin: round;stroke-width: 1.02509383985076px"/>
            </g>
            <g id="9fe3af96-d05e-43aa-9213-db75a0260452" data-name="&lt;群組&gt;">
              <line id="b28fd32d-78d3-4e47-9623-23a2a26ff433" data-name="&lt;路徑&gt;" x1="316.25" y1="190.01" x2="361.43" y2="190.01" style="fill: #898989;stroke: #bfc0c0;stroke-linecap: round;stroke-linejoin: round;stroke-width: 1.02509383985076px"/>
              <line id="688b6930-56a1-4bc2-996c-afb6ca535c95" data-name="&lt;路徑&gt;" x1="316.25" y1="195.85" x2="361.43" y2="195.85" style="fill: #898989;stroke: #bfc0c0;stroke-linecap: round;stroke-linejoin: round;stroke-width: 1.02509383985076px"/>
              <line id="9c52e2f7-74cf-41f0-804b-8d94a7486f8c" data-name="&lt;路徑&gt;" x1="316.25" y1="201.68" x2="361.43" y2="201.68" style="fill: #898989;stroke: #bfc0c0;stroke-linecap: round;stroke-linejoin: round;stroke-width: 1.02509383985076px"/>
              <line id="ae631cb9-26cf-42e9-8ec2-5c329c3ec99f" data-name="&lt;路徑&gt;" x1="316.25" y1="207.52" x2="361.43" y2="207.52" style="fill: #898989;stroke: #bfc0c0;stroke-linecap: round;stroke-linejoin: round;stroke-width: 1.02509383985076px"/>
              <line id="43a260e8-9446-4a28-b06c-18f5d42561b8" data-name="&lt;路徑&gt;" x1="316.25" y1="213.36" x2="361.43" y2="213.36" style="fill: #898989;stroke: #bfc0c0;stroke-linecap: round;stroke-linejoin: round;stroke-width: 1.02509383985076px"/>
              <line id="459b2032-bb2c-4665-a797-d89284425546" data-name="&lt;路徑&gt;" x1="316.25" y1="219.19" x2="361.43" y2="219.19" style="fill: #898989;stroke: #bfc0c0;stroke-linecap: round;stroke-linejoin: round;stroke-width: 1.02509383985076px"/>
              <line id="54b6a54e-0a1d-4c18-bb29-4f291a6dfae6" data-name="&lt;路徑&gt;" x1="316.25" y1="225.03" x2="361.43" y2="225.03" style="fill: #898989;stroke: #bfc0c0;stroke-linecap: round;stroke-linejoin: round;stroke-width: 1.02509383985076px"/>
              <line id="2ca473ff-509b-4b3c-aa81-1915869a3a0f" data-name="&lt;路徑&gt;" x1="316.25" y1="230.86" x2="361.43" y2="230.86" style="fill: #898989;stroke: #bfc0c0;stroke-linecap: round;stroke-linejoin: round;stroke-width: 1.02509383985076px"/>
              <line id="6989daed-5809-4ce9-87dd-741a17731f10" data-name="&lt;路徑&gt;" x1="316.25" y1="236.7" x2="361.43" y2="236.7" style="fill: #898989;stroke: #bfc0c0;stroke-linecap: round;stroke-linejoin: round;stroke-width: 1.02509383985076px"/>
            </g>
          </g>
          <g id="87269e43-bb1d-49d6-accf-d73e23622000" data-name="&lt;群組&gt;">
            <rect id="7a832eaa-d1a2-4af7-a237-6365fdffa6a8" data-name="&lt;矩形&gt;" x="315.25" y="141.7" width="46.5" height="42.02" style="fill: #8fd3f3;stroke: #bfc0c0;stroke-linecap: round;stroke-linejoin: round;stroke-width: 2.05018767970152px"/>
            <path id="ff77b9b9-d0ec-4fe1-b386-df32f9a6c8ad" data-name="&lt;路徑&gt;" d="M361.75,159.26a28.68,28.68,0,0,0-4.64.65c-7.06,1.54-8.91,11.67-16.89,11.67-7.07,0-7.68-9.52-17.81-10.75a11.13,11.13,0,0,0-7.15,1.27v21.61h46.5Z" style="fill: #bfc0c0;stroke: #bfc0c0;stroke-linecap: round;stroke-linejoin: round;stroke-width: 1.02509383985076px"/>
            <circle id="d0b520ae-c2b6-4863-a9f9-bee1c3b454ac" data-name="&lt;路徑&gt;" cx="325.48" cy="151.32" r="5.22" style="fill: #fff;stroke: #bfc0c0;stroke-linecap: round;stroke-linejoin: round;stroke-width: 1.02509383985076px"/>
          </g>
          <rect id="33869f04-0de9-4482-8fe8-422be6e7e30b" data-name="&lt;矩形&gt;" x="260.37" y="128.28" width="103.5" height="3.99" style="fill: #fff;stroke: #bfc0c0;stroke-linecap: round;stroke-linejoin: round;stroke-width: 1.02509383985076px"/>
          <g style="opacity: 0.5">
            <g>
              <path d="M291.84,171.21a.58.58,0,0,1-.39-.14.55.55,0,0,1,0-.78.56.56,0,0,1,.39-.15.58.58,0,0,1,.38.14.49.49,0,0,1,.17.4.5.5,0,0,1-.16.4A.56.56,0,0,1,291.84,171.21Zm.54,1v2.88a.71.71,0,0,1-.16.5.52.52,0,0,1-.4.17.5.5,0,0,1-.39-.17.73.73,0,0,1-.15-.5v-2.85a.71.71,0,0,1,.15-.49.51.51,0,0,1,.39-.17.53.53,0,0,1,.4.17A.64.64,0,0,1,292.38,172.19Z" style="fill: #e50012"/>
              <path d="M273.43,170.79l2.11,3.2v-3.23a.71.71,0,0,1,.14-.47.46.46,0,0,1,.36-.16.47.47,0,0,1,.37.16.7.7,0,0,1,.14.47V175q0,.71-.59.71a.79.79,0,0,1-.27,0,.68.68,0,0,1-.22-.14,1.34,1.34,0,0,1-.19-.22l-.18-.25L273,171.94v3.18a.68.68,0,0,1-.14.47.48.48,0,0,1-.37.16.47.47,0,0,1-.37-.16.69.69,0,0,1-.14-.47v-4.19a1.19,1.19,0,0,1,.06-.42.6.6,0,0,1,.23-.27.63.63,0,0,1,.35-.11.58.58,0,0,1,.44.18,1.35,1.35,0,0,1,.16.21Z" style="fill: #0094d7"/>
              <path d="M278.71,173.41V170.8a.73.73,0,0,1,.15-.5.5.5,0,0,1,.39-.17.52.52,0,0,1,.41.17.73.73,0,0,1,.15.5v2.67a2.45,2.45,0,0,0,.1.76.88.88,0,0,0,.36.47,1.32,1.32,0,0,0,.73.17,1.09,1.09,0,0,0,.91-.34,1.68,1.68,0,0,0,.27-1V170.8a.73.73,0,0,1,.15-.5.51.51,0,0,1,.4-.17.52.52,0,0,1,.4.17.71.71,0,0,1,.15.5v2.61a3.86,3.86,0,0,1-.12,1.06,1.64,1.64,0,0,1-.47.75,1.82,1.82,0,0,1-.69.4,3,3,0,0,1-.92.13,3.78,3.78,0,0,1-1.08-.14,1.72,1.72,0,0,1-.74-.42,1.68,1.68,0,0,1-.42-.73A3.7,3.7,0,0,1,278.71,173.41Z" style="fill: #0094d7"/>
              <path d="M289,171h-2.48v1.52h2.28a.54.54,0,0,1,.38.11.38.38,0,0,1,.12.3.4.4,0,0,1-.12.3.53.53,0,0,1-.38.12h-2.28v1.54h2.56a.56.56,0,0,1,.39.12.41.41,0,0,1,.13.32.4.4,0,0,1-.13.31.56.56,0,0,1-.39.12h-3a.58.58,0,0,1-.67-.67v-4.27a.91.91,0,0,1,.07-.39.44.44,0,0,1,.22-.22.92.92,0,0,1,.38-.07H289a.57.57,0,0,1,.39.12.4.4,0,0,1,.13.31.4.4,0,0,1-.13.31A.57.57,0,0,1,289,171Z" style="fill: #359f57"/>
              <path d="M296.25,173.45h-1v1.63a.71.71,0,0,1-.16.5.55.55,0,0,1-.79,0,.72.72,0,0,1-.15-.49v-4.28a.68.68,0,0,1,.17-.52.76.76,0,0,1,.53-.16h1.41a3.7,3.7,0,0,1,1,.1,1.43,1.43,0,0,1,.58.31,1.38,1.38,0,0,1,.37.53,1.85,1.85,0,0,1,.13.7,1.55,1.55,0,0,1-.51,1.26A2.32,2.32,0,0,1,296.25,173.45ZM296,171h-.74v1.66H296a2.23,2.23,0,0,0,.65-.08.76.76,0,0,0,.4-.27.79.79,0,0,0,.14-.48.82.82,0,0,0-.21-.58A1.41,1.41,0,0,0,296,171Z" style="fill: #f7b400"/>
              <g>
                <path d="M293.65,152.17a8,8,0,0,0-3.14-1,6.45,6.45,0,0,0-12.05,3.22,6.46,6.46,0,0,0,0,12.92h11.32a8.09,8.09,0,0,0,3.87-15.18Z" style="fill: #9e9e9f"/>
                <path d="M290.95,150.78A6.45,6.45,0,0,0,278.9,154a6.46,6.46,0,0,0,0,12.92h0l15.17-15.18A8,8,0,0,0,290.95,150.78Z" style="fill: #0094d7"/>
                <path d="M284.83,153.9a2.57,2.57,0,0,0-1.69,4.6l2.1,2.1,2.18-2.18-2.1-2.1a.73.73,0,0,1,1-1l2.1,2.1.6-.61-2.09-2.09A2.89,2.89,0,0,0,284.83,153.9Z" style="fill: none"/>
                <path d="M287.25,154.39a2.9,2.9,0,0,0-4.11,0l-.17.19a2.9,2.9,0,0,1,3.92.17l2.09,2.09.36-.36Z" style="fill: gray"/>
                <path d="M289.12,164.59a2.63,2.63,0,0,1-1.87-.78l-2.62-2.62-2.1-2.1a3.76,3.76,0,0,1-.15-5.15l-.21.19a3.77,3.77,0,0,0,0,5.32l2.1,2.1,2.62,2.62a2.65,2.65,0,0,0,3.75,0l.17-.19A2.63,2.63,0,0,1,289.12,164.59Z" style="fill: gray"/>
                <path d="M290.39,160.67l-2.62-2.62-2.1-2.1a.43.43,0,0,1-.12-.37.43.43,0,0,0-.24.73l2.1,2.1L290,161a1.8,1.8,0,0,1,.17,2.34l.19-.17A1.8,1.8,0,0,0,290.39,160.67Z" style="fill: gray"/>
                <path d="M291,160.07l-2.62-2.62-2.1-2.1a.43.43,0,0,0-.61.61l2.1,2.1,2.62,2.62a1.8,1.8,0,0,1,0,2.54l-.19.17a1.79,1.79,0,0,1-2.34-.17l-2.62-2.62-2.1-2.1a2.91,2.91,0,0,1-.17-3.92l.17-.19a2.9,2.9,0,0,1,4.11,0l2.09,2.09.25-.25.36-.36-2.09-2.09a3.74,3.74,0,0,0-2.66-1.1h0a3.74,3.74,0,0,0-2.66,1.1l-.15.17a3.76,3.76,0,0,0,.15,5.15l2.1,2.1,2.62,2.62a2.65,2.65,0,0,0,3.56.17l.19-.17A2.65,2.65,0,0,0,291,160.07Z" style="fill: #fff"/>
                <g>
                  <path d="M289.12,163.74A1.47,1.47,0,0,0,290,161l-2.62-2.62-2.18,2.18,2.62,2.62A1.78,1.78,0,0,0,289.12,163.74Z" style="fill: #f7b400"/>
                  <path d="M294.09,151.74l-4.14,4.14-.36.36-.25.25-.36.36-.6.61,2.62,2.62a2.65,2.65,0,0,1,0,3.75l-.19.17-.17.19a2.65,2.65,0,0,1-3.75,0l-2.62-2.62-5.35,5.36h11.3a8.09,8.09,0,0,0,3.87-15.18Z" style="fill: #f7b400"/>
                </g>
              </g>
            </g>
          </g>
        </g>
        <g>
          <path id="b1d6b0c7-3cab-4ee7-87df-8297990f45a8" data-name="&lt;路徑&gt;" d="M357.42,271.58H312.6a6.64,6.64,0,0,0-6.64,6.64v24a6.64,6.64,0,0,0,6.64,6.64H314c-1.39,3.09-4.07,7.79-8.38,10.59,0,0,9.09-.63,18.56-10.59h33.23a6.64,6.64,0,0,0,6.64-6.64v-24A6.64,6.64,0,0,0,357.42,271.58Z" style="fill: #3db4e8"/>
          <g>
            <circle id="ab16f959-5fe0-4c7d-a11e-a9cd3c661b21" data-name="&lt;路徑&gt;" cx="323.89" cy="289.35" r="3.42" style="fill: #fff"/>
            <circle id="983d6695-30d2-4517-985a-cda6a575dd23" data-name="&lt;路徑&gt;" cx="335.51" cy="289.35" r="3.42" style="fill: #fff"/>
            <circle id="9b430e90-af63-46a0-a7bb-8c8f7ed5641c" data-name="&lt;路徑&gt;" cx="347.12" cy="289.35" r="3.42" style="fill: #fff"/>
          </g>
        </g>
        <g id="2a2fe9d1-8598-4746-9068-923c4286ef73" data-name="&lt;群組&gt;">
          <rect id="0393b490-e4dc-45ab-9266-049c8ab5ec8b" data-name="&lt;矩形&gt;" x="68.33" y="217.93" width="88.33" height="37.25" rx="2.82" ry="2.82" style="fill: #fdd762"/>
          <path d="M78.85,223l.43.71c-2,1.09-3.76,3-3.76,5.23A2.88,2.88,0,0,0,78.28,232c.29,0,.48-.14.48-.43s-.14-.38-.43-.43a1.69,1.69,0,0,1-1.24-1.81,2.35,2.35,0,0,1,2.52-2.28,2.58,2.58,0,0,1,2.57,2.66,3.23,3.23,0,0,1-3.38,3.19,3.86,3.86,0,0,1-4.14-4C74.67,226.34,76.66,224.24,78.85,223Zm8.8,0,.43.71c-2,1.09-3.76,3-3.76,5.23A2.88,2.88,0,0,0,87.09,232c.29,0,.48-.14.48-.43s-.14-.38-.43-.43a1.69,1.69,0,0,1-1.24-1.81,2.34,2.34,0,0,1,2.52-2.28A2.58,2.58,0,0,1,91,229.76a3.23,3.23,0,0,1-3.38,3.19,3.86,3.86,0,0,1-4.14-4C83.47,226.34,85.47,224.24,87.66,223Z" style="fill: #fff"/>
          <line id="773db320-f024-4255-a18c-f18f3dbcf839" data-name="&lt;路徑&gt;" x1="96.09" y1="230.59" x2="146.35" y2="230.59" style="fill: none;stroke: #fff;stroke-linecap: round;stroke-linejoin: round;stroke-width: 1.02509383985076px"/>
          <line id="0806ce09-264e-4722-bef7-1e4d898872cd" data-name="&lt;路徑&gt;" x1="96.09" y1="234.91" x2="146.35" y2="234.91" style="fill: none;stroke: #fff;stroke-linecap: round;stroke-linejoin: round;stroke-width: 1.02509383985076px"/>
          <line id="f3e3fd87-8f3a-475e-a06a-53f20b34f920" data-name="&lt;路徑&gt;" x1="96.09" y1="239.23" x2="146.35" y2="239.23" style="fill: none;stroke: #fff;stroke-linecap: round;stroke-linejoin: round;stroke-width: 1.02509383985076px"/>
          <line id="dec2c961-15f2-41d9-967e-3f80af34c75a" data-name="&lt;路徑&gt;" x1="96.09" y1="243.55" x2="146.35" y2="243.55" style="fill: none;stroke: #fff;stroke-linecap: round;stroke-linejoin: round;stroke-width: 1.02509383985076px"/>
        </g>
        <g>
          <g>
            <path id="b157106f-30eb-421a-beff-a26db75d8dc3" data-name="&lt;剪裁路徑&gt;" d="M253.47,294.17s10.91,23.3,10.91,24.53-9.69,6.5-11.53,7.6a44.18,44.18,0,0,1-4.41,2.21l1.1,10.79s16.68-3.8,23.67-7.6,6.75-8.09,5.15-14.47-12.39-31-12.39-31Z" style="fill: #ffbf9d"/>
            <path id="7647669f-7386-4e44-b6e6-8a4b431728e1" data-name="&lt;剪裁路徑&gt;" d="M174.73,289s-8,29.19-8.22,34.34,15.82,15.33,16.43,15.94-.91-17.74-.91-17.74l5.45-26.66Z" style="fill: #ffbf9d"/>
          </g>
          <g>
            <path id="5ef6d475-b86a-4396-95e2-2115ed319019" data-name="&lt;路徑&gt;" d="M212.14,259.71s-3.07,2.21-9.08,2.45-6.28-4.08-13.74-4c-9,0-20.36,28.58-20.36,28.58s5.64,5.52,11.16,7.85a39.52,39.52,0,0,0,9.57,2.82l.86,18.76h60.83l.74-18.76,19-12.39s-9.32-16.68-13.86-22.93-12.14-3.92-14.47-2.33-9.2,2-11.77,1.59a101.43,101.43,0,0,1-9.81-2.7S217.29,255.29,212.14,259.71Z" style="fill: #fdd762"/>
            <line id="d7fe53ac-6284-4b8f-bd33-b15dd4f5e76e" data-name="&lt;路徑&gt;" x1="190.31" y1="266.33" x2="190.06" y2="297.48" style="fill: none;stroke: #fff3d6;stroke-miterlimit: 10;stroke-width: 0.912760317325592px"/>
            <path id="1ae1f936-933b-432c-b644-6461d8f250f7" data-name="&lt;路徑&gt;" d="M192.51,269.15s.86,15.21,4,23.67" style="fill: none"/>
            <path id="1efa617c-299e-4540-ad7a-6ac1d0a49cbd" data-name="&lt;路徑&gt;" d="M197.17,294a42.55,42.55,0,0,0,2.58,6" style="fill: none"/>
            <path id="a783ef79-4384-49c9-98c4-1e788473b275" data-name="&lt;路徑&gt;" d="M194.48,267.43a96.92,96.92,0,0,0,4.91,16.19" style="fill: none"/>
            <path id="6e23bb3a-555a-4c83-87d0-05729fc81b8e" data-name="&lt;路徑&gt;" d="M247.33,270.13s-2.94,12-5.52,17.41" style="fill: none"/>
            <line id="609f4c84-bb7b-48ae-a524-af2d71ca797b" data-name="&lt;路徑&gt;" x1="252.12" y1="297.36" x2="251.99" y2="273.08" style="fill: none;stroke: #fff3d6;stroke-miterlimit: 10;stroke-width: 0.912760317325592px"/>
            <path id="5bf29b95-0013-4a3d-b3b6-449d726c357a" data-name="&lt;路徑&gt;" d="M250.77,273.57s-2.21,15.33-7.6,23.42" style="fill: none"/>
            <path id="2a241b9b-d17a-4dbe-adf2-1af0ddb5ae89" data-name="&lt;路徑&gt;" d="M248.07,293.92s-2.45,4.66-4.17,7.11" style="fill: none"/>
            <path id="6aba6499-38b3-4d32-8ff2-6010a3e6e6eb" data-name="&lt;路徑&gt;" d="M208.7,261.55s1.72,10.55,4.17,15.94,6.75,6.5,10.42,4.91,6.38-9.44,6.13-19.5" style="fill: none"/>
          </g>
          <g>
            <g>
              <g>
                <path id="35ea3a3d-9969-4693-8012-02383cad65f1" data-name="&lt;路徑&gt;" d="M200,239.47s-2.33-4-4.17-2,1.47,6.87,3.31,8.46,3.19.61,3.07-1.1S200,239.47,200,239.47Z" style="fill: #ff9a6c"/>
                <path id="3a814618-1fd0-4fe3-9ec4-6c50c210d60d" data-name="&lt;路徑&gt;" d="M200,239.47s-2.33-4-4.17-2,1.47,6.87,3.31,8.46,3.19.61,3.07-1.1S200,239.47,200,239.47Z" style="fill: #ff9a6c;opacity: 0.5"/>
              </g>
              <path id="b8d9c4bf-f0a5-4f7c-a263-7a94e0cde04d" data-name="&lt;路徑&gt;" d="M200,239.47s-2.33-4-4.17-2,1.47,6.87,3.31,8.46,3.19.61,3.07-1.1S200,239.47,200,239.47Z" style="fill: #ff9a6c"/>
            </g>
            <g>
              <g>
                <path id="f31b166c-397f-43c2-92d7-5a46a7cce3cf" data-name="&lt;路徑&gt;" d="M236.83,239.47s2.33-4,4.17-2-1.47,6.87-3.31,8.46-3.19.61-3.07-1.1S236.83,239.47,236.83,239.47Z" style="fill: #ff9a6c"/>
                <path id="eb1498fc-4902-4dee-a52b-a8cd3be5fea1" data-name="&lt;路徑&gt;" d="M236.83,239.47s2.33-4,4.17-2-1.47,6.87-3.31,8.46-3.19.61-3.07-1.1S236.83,239.47,236.83,239.47Z" style="fill: #ff9a6c;opacity: 0.5"/>
              </g>
              <path id="925aced0-897f-4e96-879b-718100a82654" data-name="&lt;路徑&gt;" d="M236.83,239.47s2.33-4,4.17-2-1.47,6.87-3.31,8.46-3.19.61-3.07-1.1S236.83,239.47,236.83,239.47Z" style="fill: #ff9a6c"/>
            </g>
            <path id="1bbd0410-0df0-43f4-82e1-72e81468048e" data-name="&lt;路徑&gt;" d="M211,258.85s2.21,9.93,4.42,15.45,6.38,5.52,8.09,2,2.82-16.8,2.82-16.8S214.83,261.06,211,258.85Z" style="fill: #ffbf9d;stroke: #ffe893;stroke-miterlimit: 10;stroke-width: 0.912760317325592px"/>
            <path d="M211.39,259.34l1.59,5.34a3.83,3.83,0,0,0,.33.8c.79,1.41,3.83,5.5,8.66,2.08a10.73,10.73,0,0,0,2.86-3,43,43,0,0,0,2.59-4.54Z" style="fill: #ff9a6c"/>
            <path id="530026df-1064-4eb5-9cbf-6cbb6739eeb3" data-name="&lt;剪裁路徑&gt;" d="M200.24,240.82s3.19,11.28,9.2,17.91,8.22,8.22,11.41,7.73,6.62-4.66,11.41-13.37,5.15-15.33,5.52-15.94-1-12.88-7.85-18.15-14.47-7.6-21.09-1.84S198,232.36,200.24,240.82Z" style="fill: #ffbf9d"/>
          </g>
          <g>
            <path id="1665858c-9e4e-4acc-9cf1-125e99e8cc35" data-name="&lt;路徑&gt;" d="M133.19,347.44l-.51,124.26a1.47,1.47,0,0,0,1.47,1.48h0a1.47,1.47,0,0,0,1.47-1.42l3.54-124.15Z" style="fill: #e08800"/>
            <path id="b18ab526-6dde-405f-a826-4b4b49f9e8ec" data-name="&lt;路徑&gt;" d="M124.81,376.48,124.31,505a1.47,1.47,0,0,0,1.47,1.48h0a1.47,1.47,0,0,0,1.47-1.42l3.54-128.37Z" style="fill: #e08800"/>
            <path id="15850371-e876-41ae-8b3b-f24ecb3a1d2d" data-name="&lt;路徑&gt;" d="M305,347.44l.51,124.26a1.47,1.47,0,0,1-1.47,1.48h0a1.47,1.47,0,0,1-1.47-1.42L299,347.61Z" style="fill: #e08800"/>
            <path id="6115e875-f4ed-4065-8929-9026db42a476" data-name="&lt;路徑&gt;" d="M313.36,376.48,313.87,505a1.47,1.47,0,0,1-1.47,1.48h0a1.47,1.47,0,0,1-1.47-1.42l-3.54-128.37Z" style="fill: #e08800"/>
          </g>
          <g>
            <path id="9454b120-1489-4b6b-8730-307b0de2bb6c" data-name="&lt;路徑&gt;" d="M183.07,381.82l-.32,114a1.1,1.1,0,0,0,.94,1.22h0a1.09,1.09,0,0,0,.94-1.17L186.87,382Z" style="fill: #ffe893"/>
            <path id="bd437219-7d31-432e-aa4a-2e491150ab53" data-name="&lt;路徑&gt;" d="M255.24,378.15l.27,99.52a.93.93,0,0,1-.79,1h0a.92.92,0,0,1-.79-1L252,378.27Z" style="fill: #ffe893"/>
            <path id="3dbe1260-04ca-4fa9-8f52-7a164266d183" data-name="&lt;路徑&gt;" d="M181.95,378.15l.27,99.52a.93.93,0,0,1-.79,1h0a.92.92,0,0,1-.79-1l-1.9-99.44Z" style="fill: #ffe893"/>
            <path id="dbba0cc6-2ca5-4ff3-adaa-811953ed6c9d" data-name="&lt;路徑&gt;" d="M253.18,381.82l.32,114a1.1,1.1,0,0,1-.94,1.22h0a1.09,1.09,0,0,1-.94-1.17L249.38,382Z" style="fill: #ffe893"/>
            <ellipse id="2216fd7f-652c-4256-aa01-6ed9fc249800" data-name="&lt;路徑&gt;" cx="217.62" cy="379.38" rx="45.62" ry="10.42" style="fill: #fff3d6"/>
          </g>
          <g>
            <path id="79962c98-b919-499f-bd11-855ef162e302" data-name="&lt;路徑&gt;" d="M203.41,467.88s-2.39,3.42-.68,5.13,3.42,1,3.25,2.73-2.9,7.52-5.3,13.67,2.56,12.3,7.18,10.59,4.1-18.79,4.78-21.87,1.2-3.59,1-6.49-.34-6-2.56-6.32S204.43,466.69,203.41,467.88Z" style="fill: #fff"/>
            <path id="7ba4413e-10e5-4a10-a93e-697b0b1f79e8" data-name="&lt;路徑&gt;" d="M210.74,495.29c-3.08-1.16-7.79-.92-10.45-.66.89,3.86,4.31,6.58,7.56,5.37C209.2,499.5,210.11,497.68,210.74,495.29Z" style="fill: #fdd762"/>
            <path id="8dbb6845-3cad-4540-8438-c1f08e54a1fc" data-name="&lt;路徑&gt;" d="M198.11,460.37s5,8.37,6.32,10.59,6,1.54,6.49-1.54S209,457.8,209,457.8l-10.25,2.56Z" style="fill: #ffbf9d"/>
            <path id="99542d75-f33f-46ea-8991-36718c8fda7a" data-name="&lt;路徑&gt;" d="M186.32,447s-1.37,2.22-.68,3.76,2.56,6,3.76,8.2,6.66,3.59,13,2.56,9.91-3.93,10.08-6.49-1-6-1.88-10.08-3.08-3.93-6.15-3.93S188.89,444.65,186.32,447Z" style="fill: #fdd762"/>
            <path d="M204.78,396.81c.09-4.2,2.53-6.27,2.71-9.15a36.3,36.3,0,0,0-.93-11.39l-4.68-6.39c-13.45.17-23.09.4-23.24.45-.51.17-.85,3.08-1.2,5.47,0,0-5.7.72-4.68,16.61.14,2.22,5.9,27.84,6.32,30.74,2.56,17.85,8.27,26.79,8.27,26.79s.51,2.22,7.18,1.71,13.33-5,13.33-5S204.43,412,204.78,396.81Z" style="fill: #898989;stroke: #898989;stroke-linecap: round;stroke-linejoin: round;stroke-width: 1.02509383985076px"/>
            <path d="M202.13,372.63l14.13-1.12,12.63,1,4.88,4.5-6.25,2.79-8.92-.94a14,14,0,0,0-3.41.06l-7.8,1.09-6.25-1.87Z" style="fill: #898989"/>
          </g>
          <g>
            <path id="e0200f91-7fd0-46c6-8347-d82968b01d01" data-name="&lt;路徑&gt;" d="M230.92,467.88s2.39,3.42.68,5.13-3.42,1-3.25,2.73,2.9,7.52,5.3,13.67-2.56,12.3-7.18,10.59-4.1-18.79-4.78-21.87-1.2-3.59-1-6.49.34-6,2.56-6.32S229.9,466.69,230.92,467.88Z" style="fill: #fff"/>
            <path id="78ec1e08-1633-427f-a05a-c80dd2d2fd5a" data-name="&lt;路徑&gt;" d="M223.59,495.29c3.08-1.16,7.79-.92,10.45-.66-.89,3.86-4.31,6.58-7.56,5.37C225.13,499.5,224.22,497.68,223.59,495.29Z" style="fill: #fdd762"/>
            <path id="67b4f626-4711-4bf9-8801-b8b3b7034a42" data-name="&lt;路徑&gt;" d="M236.22,460.37s-5,8.37-6.32,10.59-6,1.54-6.49-1.54,1.88-11.62,1.88-11.62l10.25,2.56Z" style="fill: #ffbf9d"/>
            <path id="5542dd1d-1a36-448c-9b8e-23635750fdfa" data-name="&lt;路徑&gt;" d="M248,447s1.37,2.22.68,3.76-2.56,6-3.76,8.2-6.66,3.59-13,2.56-9.91-3.93-10.08-6.49,1-6,1.88-10.08,3.08-3.93,6.15-3.93S245.44,444.65,248,447Z" style="fill: #fdd762"/>
            <path d="M229.55,396.81c-.09-4.2-2.53-6.27-2.71-9.15a36.3,36.3,0,0,1,.93-11.39l4.68-6.39c13.45.17,23.09.4,23.24.45.51.17.85,3.08,1.2,5.47,0,0,5.7.72,4.68,16.61-.14,2.22-5.9,27.84-6.32,30.74C252.69,441,247,449.95,247,449.95s-.51,2.22-7.18,1.71-13.33-5-13.33-5S229.9,412,229.55,396.81Z" style="fill: #898989;stroke: #898989;stroke-linecap: round;stroke-linejoin: round;stroke-width: 1.02509383985076px"/>
          </g>
          <g>
            <path id="0aa1405e-7806-4f4b-9921-455cf2dc36a9" data-name="&lt;路徑&gt;" d="M318.55,369.53l-3.69-3.32-8.53-18.42a4.91,4.91,0,0,0-4.48-2.78H136.2a4.91,4.91,0,0,0-4.48,2.78l-10.63,23-1.75-.64v5.26l.09-.07a2.91,2.91,0,0,0,2.94,2.5H315.69a2.89,2.89,0,0,0,2.95-2.72Z" style="fill: #898989;stroke: #898989;stroke-linecap: round;stroke-linejoin: round;stroke-width: 1.02509383985076px"/>
            <path id="448725fb-14fd-4dc9-8653-bee2ad830472" data-name="&lt;路徑&gt;" d="M315.69,373H122.37a2.83,2.83,0,0,1-2.71-4L131.73,343a4.91,4.91,0,0,1,4.48-2.78H301.86a4.91,4.91,0,0,1,4.48,2.78L318.4,369A2.83,2.83,0,0,1,315.69,373Z" style="fill: #fff;stroke: #898989;stroke-linecap: round;stroke-linejoin: round;stroke-width: 1.02509383985076px"/>
            <path d="M132.16,355.47s-4.38,3-1.64,4.1,34.2.27,38-.82,8.21-11.22,8.21-12.86-5.51-2.81-7.54-2.91-28.84,1.54-28.84,1.54Z" style="fill: #efefef;opacity: 0.5;mix-blend-mode: multiply"/>
            <ellipse cx="288.65" cy="356.02" rx="11.22" ry="4.65" style="fill: #efefef;opacity: 0.5;mix-blend-mode: multiply"/>
            <ellipse cx="217.25" cy="358.89" rx="40.22" ry="7.52" style="fill: #efefef;opacity: 0.5;mix-blend-mode: multiply"/>
          </g>
          <g>
            <path id="9680c0fa-fb97-4117-88ae-8d39f272ed97" data-name="&lt;路徑&gt;" d="M280.45,337.71s-.74-2.94-3.19-2-2.21,7.48-1.72,11.16,3.8,2,3.8,2v-2.21s-1.23,1-1.84-.37-.49-8.09.12-8,1.84,2.21,1.84,2.21S279.83,340.28,280.45,337.71Z" style="fill: #ef8582"/>
            <path id="62532d65-17a4-4fbc-90fa-1e56d85e333e" data-name="&lt;路徑&gt;" d="M278.68,338.2v16.12c0,1.89,4.36,3.42,9.73,3.42s9.73-1.53,9.73-3.42V338.2Z" style="fill: #ef8582"/>
            <ellipse id="a1ec5083-4ee1-481e-aa5e-a1988a98ac9e" data-name="&lt;路徑&gt;" cx="288.42" cy="338.2" rx="9.73" ry="2.96" style="fill: #fff"/>
            <ellipse id="cdb0ebee-f3b2-4047-96f3-06ae78b63d32" data-name="&lt;路徑&gt;" cx="288.42" cy="338.2" rx="8.46" ry="2.58" style="fill: #fff"/>
            <path id="f53ba502-26c4-4857-a316-df1c7295ba71" data-name="&lt;路徑&gt;" d="M281.89,339.84a23.22,23.22,0,0,0,13.05,0,23.22,23.22,0,0,0-13.05,0Z" style="fill: #8fd3f3;stroke: #8fd3f3;stroke-linecap: round;stroke-linejoin: round;stroke-width: 1.02509383985076px"/>
          </g>
          <g>
            <polygon id="e0dcac26-a7f7-450e-9780-91e815b29499" data-name="&lt;路徑&gt;" points="130.95 345.56 131.07 351.07 168.23 351.44 168.23 345.07 130.95 345.56" style="fill: #f7c7c6"/>
            <polygon id="acec39e9-b17c-4f8e-8762-ff87de61165e" data-name="&lt;路徑&gt;" points="168.23 351.44 173.63 340.84 173.63 336.36 167.99 346.17 168.23 351.44" style="fill: #ef8582"/>
            <polygon id="074d5a1e-0ad0-40db-b730-fb00674a96ca" data-name="&lt;路徑&gt;" points="130.95 350.58 131.07 356.1 168.23 356.47 168.23 350.09 130.95 350.58" style="fill: #cfebf8"/>
            <polygon id="91d20c08-7d9f-4edb-b4c3-bf19ba68f353" data-name="&lt;路徑&gt;" points="168.23 356.47 173.63 344.82 173.63 340.73 167.99 350.17 168.23 356.47" style="fill: #8fd3f3"/>
            <g id="7697e39b-281c-4645-b9dd-016f8b3caded" data-name="&lt;群組&gt;">
              <path id="bf3e62a9-1b00-413d-86dd-cce3a3939ee3" data-name="&lt;路徑&gt;" d="M145.3,331.58s.86-1.72-.37-2.45-2.58,1-3.31,1.59-16.19,10.79-16.68,12.39,0,5.15,3.31,5.52,6.25-1.84,7.73-2.21,2.08-.49,2.08-.49l10.18-13.74Z" style="fill: #fff2c2"/>
              <path id="3361f7ee-7f1d-42b1-9693-3ed790bcb40d" data-name="&lt;路徑&gt;" d="M128.25,348.62c3.31.37,6.25-1.84,7.73-2.21s2.08-.49,2.08-.49l.37-.5-9.57-2a3.21,3.21,0,0,0-3.92-.37C124.45,344.7,124.94,348.25,128.25,348.62Z" style="fill: #ffe893"/>
              <path id="693fe9f4-b9b3-415d-bc64-6f5f29edc23f" data-name="&lt;路徑&gt;" d="M128.86,343.47h28.7c9,0,11.65-.49,11.65-.49l5.52-11.41s-17.41,1.1-22.81.74a40.59,40.59,0,0,1-6.62-.74Z" style="fill: #fff2c2"/>
              <path id="85077401-4a5c-4dba-9868-1d407245eca5" data-name="&lt;路徑&gt;" d="M128.86,343.47l.49,2.21s23.3.12,29.43.12,10.79.25,10.79.25l-.37-3.07Z" style="fill: #ffe893"/>
              <polygon id="37765e01-66bd-4067-be59-fff6602a68be" data-name="&lt;路徑&gt;" points="169.58 346.05 174.73 334.27 174.73 331.57 169.21 342.98 169.58 346.05" style="fill: #fdd762"/>
            </g>
          </g>
          <g>
            <path id="310cbf2f-ce8e-45b0-831b-e34fb3d733c7" data-name="&lt;路徑&gt;" d="M252.37,359.83H182.09a1.18,1.18,0,0,1-1.18-1.18h0a1.18,1.18,0,0,1,1.18-1.18h70.27a1.18,1.18,0,0,1,1.18,1.18h0A1.18,1.18,0,0,1,252.37,359.83Z" style="fill: #bfc0c0"/>
            <path id="e4992754-dd9b-4c51-b554-f64ee107aa52" data-name="&lt;路徑&gt;" d="M253,357.45H181.49a1.06,1.06,0,0,1-1.06-1l-3.89-46.69a1.06,1.06,0,0,1,1.06-1.15h79.25a1.06,1.06,0,0,1,1.06,1.15L254,356.48A1.06,1.06,0,0,1,253,357.45Z" style="fill: #efefef"/>
            <ellipse id="b427fdd1-1d45-4692-b962-337f94d934f3" data-name="&lt;路徑&gt;" cx="217.23" cy="333.85" rx="6.75" ry="5.04" style="fill: #fff"/>
          </g>
          <g>
            <path id="619550bf-1622-4df4-afc9-352895cebc56" data-name="&lt;路徑&gt;" d="M293.82,297.35a6.12,6.12,0,0,0,2.18-3.42,6.2,6.2,0,0,0-.07-3" style="fill: none;stroke: #cfebf8;stroke-linecap: round;stroke-linejoin: round;stroke-width: 1.02509383985076px"/>
            <path id="cf65499b-23eb-411a-94b0-78d8d24d0841" data-name="&lt;路徑&gt;" d="M285.64,333.93s6.82-4.07,4.59-8.79-9.74-7.79-9.74-15.09c0-6.29,6.69-8.62,11.05-11.15" style="fill: none;stroke: #cfebf8;stroke-linecap: round;stroke-linejoin: round;stroke-width: 1.02509383985076px"/>
            <path id="5208c4e8-88d2-44d0-b1cc-3904f785daab" data-name="&lt;路徑&gt;" d="M291.93,333.8s3.8-2.53,3.8-6.56c0-2.7-2.89-4.46-6.69-8.79" style="fill: none;stroke: #cfebf8;stroke-linecap: round;stroke-linejoin: round;stroke-width: 1.02509383985076px"/>
            <path id="66f4938b-adf6-47ea-9384-ed79f45b1932" data-name="&lt;路徑&gt;" d="M286.95,315.83s-2.49-2-.66-5.64" style="fill: none;stroke: #cfebf8;stroke-linecap: round;stroke-linejoin: round;stroke-width: 1.02509383985076px"/>
          </g>
          <path d="M229.23,208.45c1.22-.25,3.83-1.27,5.6-5.35a.51.51,0,1,0-.94-.41c-1.62,3.75-3.94,4.58-4.9,4.76a11.75,11.75,0,0,0,2.69-7.41c0-7.11-6.59-12.88-14.72-12.88s-14.72,5.77-14.72,12.88a11.71,11.71,0,0,0,2.47,7.13c-1.55-.08-4.16.58-7.48,4.44a.51.51,0,1,0,.78.67c4.23-4.94,7-4.12,7.6-3.88a15.21,15.21,0,0,0-2.68,1.88c-4.73,4.26-7.6,12.26-7.24,19s4.66,12.26,4.66,12.26a28.61,28.61,0,0,0,8.34-9.32,79.79,79.79,0,0,0,4.12-8.38c0,3,.39,6.64,2,9.21a13.1,13.1,0,0,0,11.5,6.73,11,11,0,0,0,2.41-.24.51.51,0,0,0,.32-.26c4,.84,7.89.77,8.5-.07,1-1.35,2.36-5.54,2.82-10.67C241.11,220,235.63,212.42,229.23,208.45Zm-13.57,24.08c-2-3.25-1.93-8.55-1.69-11.59l.12-.35a20.9,20.9,0,0,0,8.34,16.07,14.84,14.84,0,0,0,4.54,2.12C224.47,238.94,219.3,238.47,215.66,232.53Z" style="fill: #666464"/>
        </g>
      </g>
    </g>
    <g id="b56ab2b0-b233-4618-94e8-38e60a6ba1a1" data-name="圖層 2">
      <g>
        <rect x="444" y="332.53" width="326.87" height="114.67" rx="16.33" ry="16.33" style="fill: #fffaec"/>
        <g>
          <g>
            <polygon points="431.7 189.48 425.07 227.09 488.81 227.09 483.08 244.42 502.08 227.09 508.71 189.48 431.7 189.48" style="fill: #f8b500"/>
            <g>
              <path d="M457.05,215.35h-3l-4.1-9.67-1.71,9.67h-3l2.59-14.7h3l4.11,9.69,1.71-9.69h3Z" style="fill: #fff"/>
              <path d="M469.49,209h-5.73l-.69,3.94h6.72l-.43,2.43h-9.71l2.59-14.7h9.69l-.43,2.45h-6.7l-.62,3.5h5.73Z" style="fill: #fff"/>
              <path d="M483.14,211.11l3.79-10.46h3l-5.81,14.7h-3l-.62-9.84-4.09,9.84h-3l-.62-14.7h3l.12,10.44,4.23-10.44h2.53Z" style="fill: #fff"/>
            </g>
          </g>
          <g>
            <path d="M424.33,292.47c30.17-2.07,60.33-3.15,90.5-3.89s60.33-1.09,90.5-1.11,60.33.3,90.5,1.1,60.33,1.82,90.5,3.9c-30.17,2.08-60.33,3.17-90.5,3.9s-60.33,1.09-90.5,1.1-60.33-.32-90.5-1.11S454.5,294.54,424.33,292.47Z" style="fill: #fffaec"/>
            <g>
              <path d="M440.72,290.68,451.1,231.8h20.62q10.72,0,15.53,4.1t3.42,12a15.77,15.77,0,0,1-3.57,7.62,16.42,16.42,0,0,1-7,4.83A9.84,9.84,0,0,1,486.4,265a12.11,12.11,0,0,1,1.12,8.41q-1.5,8.49-7.69,12.86t-16.23,4.45ZM457.37,265l-2.8,15.89H465a11.56,11.56,0,0,0,7.05-2,8.57,8.57,0,0,0,3.4-5.64q1.43-8.09-6.92-8.21Zm1.51-8.57h9q9.21-.16,10.47-7.32.71-4-1.31-5.76t-7-1.76H461.5Z" style="fill: #0095d8"/>
              <path d="M505.13,290.68H493.41l11-62.11h11.73Z" style="fill: #0095d8"/>
              <path d="M516.87,268.4a30,30,0,0,1,4.55-11.61,23.59,23.59,0,0,1,20-10.68q8.85,0,13.5,5.42t3.65,14.72l-.45,3a27.55,27.55,0,0,1-8.47,16.15,23.17,23.17,0,0,1-16.16,6.09q-9.46,0-14-6.07t-2.73-16.5Zm11.54.83q-1.1,6.24.66,9.54t6.13,3.3a9.38,9.38,0,0,0,7.21-3.26q3-3.26,4.22-10.43,1.08-6.11-.71-9.48t-6.12-3.36a9.25,9.25,0,0,0-7.22,3.34Q529.64,262.22,528.41,269.23Z" style="fill: #0095d8"/>
              <path d="M563.8,268.48q1.78-10.07,7.65-16.22a18.71,18.71,0,0,1,14-6.15q7.2,0,10.33,4.93l1.21-4.12h10.59l-7.46,42.3a22,22,0,0,1-4.37,10,21.56,21.56,0,0,1-8.48,6.47,28.52,28.52,0,0,1-11.47,2.22,21.62,21.62,0,0,1-9-1.92,13,13,0,0,1-6-5l6.43-7.12a11.3,11.3,0,0,0,9.73,4.89,11.7,11.7,0,0,0,7.68-2.49,11.29,11.29,0,0,0,3.83-7.06l.41-2.34a16.13,16.13,0,0,1-11.44,4.57q-7.89,0-11.67-6.17t-2-16.36Zm11.53.87q-1,6,.74,9.33a6.21,6.21,0,0,0,6,3.38,9.86,9.86,0,0,0,8.35-4l3.25-18.43q-1.64-4-6.86-4a9.28,9.28,0,0,0-7.22,3.44Q576.54,262.5,575.33,269.35Z" style="fill: #0095d8"/>
            </g>
            <g>
              <path d="M640.21,252.61a38.73,38.73,0,0,0,15.85,12.07l-3.28,5.05a29.4,29.4,0,0,1-4.28-2.09L648,270.4h-9.67l-.89,5.05h10.78l-.8,4.55H636.65l-.9,5.1h14.81l-.8,4.55h-34.1l.8-4.55h14.48l.9-5.1h-10l.8-4.55h10l.89-5.05h-9.63l.36-2c-1.43.67-2.77,1.25-4,1.71l-1.92-4.72a61.89,61.89,0,0,0,10.23-4.85c1.83-1,3.54-2.09,5.13-3.17h-5.1l.83-4.72Zm5.44,13.24a41.18,41.18,0,0,1-7.2-6.31,79.41,79.41,0,0,1-7.14,5c-.83.5-1.56.92-2.24,1.29Z" style="fill: #f8b500"/>
              <path d="M674.14,252.44l-.52,3h6.58l-.74,4.22h-1.77c-.78,1.84-1.57,3.55-2.44,5.22h3.95l-.75,4.26H671l-.46,2.59h6.91l-.75,4.26h-6.25a61.69,61.69,0,0,1,5.15,4.39l-3.41,3.93c-1.07-1.42-2.12-2.67-3.19-3.84l-1.72,9.73H663l1.58-8.94c-.21.25-.4.42-.51.58a36.8,36.8,0,0,1-6.12,5.1L656.38,283a28.14,28.14,0,0,0,5.18-4,38.68,38.68,0,0,0,2.76-3h-5.39l.75-4.26h6.58l.46-2.59h-7.24l.75-4.26h3.91c.07-1.8.13-3.55.18-5.22H662l.74-4.22H669l.52-3Zm-3.22,12.41c.88-1.71,1.68-3.47,2.44-5.22h-5.06c0,1.67.1,3.38.11,5.22Zm26.74-8.15a66.33,66.33,0,0,1-11.54,2.46l-1,5.85h11.77l-.75,4.26H692.9l-3.68,20.89h-4.52l3.68-20.89H684.3q-1.84,9.4-3.77,13.66a26.48,26.48,0,0,1-4.85,7.23L672.57,287a23.19,23.19,0,0,0,4-6.1c1.32-2.8,2.73-8.27,4.16-16.38l1.64-9.32a63.26,63.26,0,0,0,13.66-2.8Z" style="fill: #f8b500"/>
              <path d="M722.28,252.94l-2,11.4h15.1l-.84,4.76h-15.1l-2.73,15.5h16.87l-.83,4.72H697.39l.83-4.72h13.49l5.58-31.67Z" style="fill: #f8b500"/>
              <path d="M745.21,276.92C744,281,742.95,284.36,742,287l-4-1.3q1.79-4.89,3.21-9.77Zm8.71-23q-3,4.39-5.54,7.65c.43.33.79.67,1.15,1,1.48-2.09,2.87-4.14,4.13-6.14l4.18,2c-1.85,2.55-3.61,4.85-5.25,6.94l3.21-.92a44.62,44.62,0,0,1,.87,8.82l-4.43,1.34,0-1.63c-.59.08-1.18.17-1.72.21l-3,16.75h-4.32l2.87-16.29c-1.68.17-3.39.33-5.06.46l0-4.43,3.11-.12c.78-.92,1.52-1.88,2.26-2.8-1.56-1.42-3.11-2.88-4.7-4.39l3.32-3.42a1,1,0,0,0,.25.21,81.92,81.92,0,0,0,4.66-7.06Zm-2.08,12.28c-.85,1.09-1.64,2-2.37,3,.91,0,1.83-.08,2.7-.17C752.09,268,752,267.06,751.83,266.18Zm19.29-13.08a20.14,20.14,0,0,1-1.27,2.3h9.67l-2.84,16.13h-7.2l-.62,3.51c.15.33.34.67.52,1a32.25,32.25,0,0,0,5.78-3.17l2.1,3.72a30.87,30.87,0,0,1-5.64,2.84,14.35,14.35,0,0,0,5,4.18l-3.2,4.6a16,16,0,0,1-4.35-3.8,11.12,11.12,0,0,1-1.5-2.21l-.34,1.92a9.44,9.44,0,0,1-1.7,4.51,5.65,5.65,0,0,1-4.19,1.38,7.49,7.49,0,0,1-3.51-.84l0-3.09a33.33,33.33,0,0,1-3.58,2.59l-1.94-3.72a1.27,1.27,0,0,0,.32-.17l-2.17.63a58.34,58.34,0,0,0,.08-8.65l4.07-1.13a54.19,54.19,0,0,1,.28,7.73,18.15,18.15,0,0,0,3-2.59,24.8,24.8,0,0,0,2.55-3h-5l.72-4.09h8.35l.38-2.13h-7.69l2.84-16.13h5.06a27,27,0,0,0,1.45-3.3Zm-9.34,29.16a30.67,30.67,0,0,1-2.8,2.84,6.81,6.81,0,0,0,2.55.46.89.89,0,0,0,.83-.5,9.44,9.44,0,0,0,.57-2.09l.51-2.88C762.9,280.85,762.36,281.6,761.79,282.27Zm11.12-14.79.38-2.13H762.84l-.38,2.13Zm1.07-6.06.35-2H763.88l-.35,2Z" style="fill: #f8b500"/>
            </g>
          </g>
        </g>
        <g>
          <path d="M493,367.32h-1.86l-.72,4.1q.62-.15,1.77-.55l-.33,2.16-1.83.61-1.39,7.91h-2.11l1.28-7.24q-2.65.67-4,.91l.06-2.09q1.9-.35,4.29-1l.85-4.8h-1.32a32.27,32.27,0,0,1-1.53,3.43l-1.67-.84a36,36,0,0,0,2.72-7.51l1.87.27q-.2.86-.69,2.54h1l.81-4.58h2.11l-.81,4.58h1.86Zm11.56,6.41h-2.19l-1,5.8a2.33,2.33,0,0,1-.61,1.29,2.14,2.14,0,0,1-1,.59,8.6,8.6,0,0,1-1.81.13l-2,0-.18-2.11q1.16.08,2,.08a3.6,3.6,0,0,0,1.29-.12.54.54,0,0,0,.25-.39l.92-5.23h-7.87l.35-2h7.87l.28-1.58H503l-.28,1.58h2.19Zm-7.14,3.89-2.1,1.2a11.1,11.1,0,0,0-2.36-3.36l2.12-1.17A15.47,15.47,0,0,1,497.44,377.62ZM506,365h-4.92l-.43,2.45h4.4l-.37,2h-11l.35-2h4.51L499,365h-5l.34-1.94h5l.42-2.39h2.08l-.42,2.39h4.92Z" style="fill: #898989"/>
          <path d="M527.48,379.39l-.9,1.9q-4.72.14-9.2.14-5.48,0-7.23-2.61a23.06,23.06,0,0,1-2.59,2.93l-1.46-1.37a14.78,14.78,0,0,0,4.62-6.74h-2.82l.31-1.76a50.57,50.57,0,0,0,3.37-4.51H508.7l.33-1.9h5.11l-.33,1.9q-1.21,1.83-3.13,4.35h2.37l-.34,1.92a24.72,24.72,0,0,1-1.49,3.35,4.27,4.27,0,0,0,1.63,1.68,5.82,5.82,0,0,0,2.2.73q1.18.15,4.9.15Q523.44,379.54,527.48,379.39Zm-13-16-1.75,1.51a15.46,15.46,0,0,0-2.43-3.09l1.58-1.63A14.64,14.64,0,0,1,514.47,363.41Zm7.31,8.33h-4.72a5.42,5.42,0,0,1-.27,1H521q-.68,3.85-1.56,4.9t-3.5.88l-.26-1.86c.56,0,1.09,0,1.59,0a1,1,0,0,0,1-.65,6.19,6.19,0,0,0,.5-1.66h-2.46a9.67,9.67,0,0,1-3,4L512.25,377a8.08,8.08,0,0,0,3-5.3H513.5l.3-1.71h3.14a4.88,4.88,0,0,0-.36-.78l1.47-.53h-3.43l1.2-6.8h1.85q.58-.82,1-1.53l1.94.36a10.85,10.85,0,0,1-.75,1.17h2.93l-1.2,6.8h-3q.35.79.54,1.31h3ZM520,367.13l.2-1.11h-3.07l-.2,1.11Zm.46-2.58.19-1.1h-3.07l-.19,1.1Zm9.25,1h-1.22a30.44,30.44,0,0,1-2.54,7.42,24.59,24.59,0,0,1,1.59,4.64l-1.8,1.13a22.63,22.63,0,0,0-1.1-3.68,24.7,24.7,0,0,1-3.22,3.66l-1.16-1.47a20,20,0,0,0,3.56-4.21,26.89,26.89,0,0,0-1.38-2.75l1.62-1.15q.64,1.14.92,1.7a26.13,26.13,0,0,0,1.65-5.29h-1.15a23.09,23.09,0,0,1-2.08,3.5L522,367.85a31,31,0,0,0,3.44-7.49l1.78.39a30.4,30.4,0,0,1-1,2.93H530Z" style="fill: #898989"/>
        </g>
        <g>
          <path d="M588.43,382.21h-2.15l.19-1.08H574l-.19,1.08H571.7l1.75-9.93h16.73ZM592.68,370l-2.09,1.49a18.28,18.28,0,0,0-1.09-2.11q-9.31,1.09-17.13,1.31l-.14-2q3.59-1.11,8.7-7.58l2.3.48a42.08,42.08,0,0,1-6.81,6.89q4.66-.17,11.84-.94a24.9,24.9,0,0,0-3-3.36l2.07-1.42A29.25,29.25,0,0,1,592.68,370ZM586.84,379l.82-4.68H575.24l-.82,4.68Z" style="fill: #898989"/>
          <path d="M598.86,374.58a75.83,75.83,0,0,1-4.07,7.9l-1.52-1.39a56.36,56.36,0,0,0,3.9-7.65Zm.51-4.24-1.77,1.58a14,14,0,0,0-2.12-3l1.67-1.56A12.89,12.89,0,0,1,599.36,370.34Zm1.49-6.15-1.75,1.46a14.07,14.07,0,0,0-2.23-2.93l1.75-1.49A11.05,11.05,0,0,1,600.85,364.19Zm13,14.19a6.58,6.58,0,0,1-1.28,3.13,2.71,2.71,0,0,1-2,.81h-5.48l-.25-1.54h5.7q.5,0,.8-1h-13l2-4h11.07l.18-1h-12.2l.25-1.42h14.25l-.69,3.89H601.81l-.6,1.1ZM601.25,370a17.72,17.72,0,0,1-1.4,2.86l-1.21-.34a20.58,20.58,0,0,0,1.43-2.84Zm4.1-1-1.29.46a1.58,1.58,0,0,0,0-.53q-1.27.11-3.79.48l-.19-1.35a18.9,18.9,0,0,0,2.56-2.06l-1.56.14-.24-1.31a17,17,0,0,0,3.35-3.68l1.27.53a23.79,23.79,0,0,1-2.75,3,4.58,4.58,0,0,0,1.29-.12l1-1.22,1.18.69a24.57,24.57,0,0,1-3.86,3.77,10.29,10.29,0,0,0,1.57-.2c0-.33-.06-.56-.09-.69l1.2-.41A20.71,20.71,0,0,1,605.35,369Zm-2.77,3.67-1.33.27a15.72,15.72,0,0,0,.23-2.84l1.21-.23A13.38,13.38,0,0,1,602.58,372.66Zm2.1-.53-1.29.34a12.19,12.19,0,0,0,0-2.5l1.22-.32Q604.69,371,604.68,372.14Zm4.83.36h-4.44l.65-3.69h4.44Zm.84-4.49h-4.49l.21-1.22h4.49Zm1.43-4.13h-5.6l.24-1.35h1.81a4,4,0,0,0-.21-1l1.7-.43a6.08,6.08,0,0,1,.36,1.44H612ZM610.71,366h-4.49l.22-1.25h4.49Zm-2.49,5.27.21-1.2H607l-.21,1.2Zm3.76-1a17.66,17.66,0,0,1-1,2.79l-1.19-.41a13.2,13.2,0,0,0,1-2.64Zm4.17-1.15-1.36.46-.06-.6q-2,.3-3.89.48l-.09-1.3a15.71,15.71,0,0,0,2.71-2.18l-1.88.12-.2-1.29a15,15,0,0,0,3.42-3.61l1.28.66a29.42,29.42,0,0,1-2.73,2.8,6.81,6.81,0,0,0,1.4-.12,8.84,8.84,0,0,0,1.06-1.28l1.19.63a22.39,22.39,0,0,1-4.14,4.05,13.67,13.67,0,0,0,1.6-.22,2.68,2.68,0,0,0-.16-.62l1.32-.5A11.28,11.28,0,0,1,616.15,369.11Zm-2.7,3.64-1.36.29a12.35,12.35,0,0,0,.24-2.79l1.23-.16A14.07,14.07,0,0,1,613.46,372.76Zm2.19-.23-1.37.39a23.1,23.1,0,0,0-.16-2.7l1.34-.33A14.18,14.18,0,0,1,615.65,372.52Z" style="fill: #898989"/>
          <path d="M639.48,371.49H628.92l-.31,1.77a33.62,33.62,0,0,1,8.68,3.59L636,378.79a33.43,33.43,0,0,0-7.77-3.5l-1.22,6.9h-2.23l1.89-10.7h-7.87l.36-2.06h7.89l1.43-8.09h2.2l-.47,2.68h9.16l-.37,2.09h-9.16l-.58,3.32h10.56Z" style="fill: #898989"/>
          <path d="M660.5,379.94a3.13,3.13,0,0,1-.85,1.63q-.69.73-2.92.73-.91,0-1.82-.08l-.37-2.27q1.78,0,2.9,0a1.14,1.14,0,0,0,.71-.25,1,1,0,0,0,.39-.62l2-11.61h-5.41a13,13,0,0,0,3.48,8.52l-1.58,1.68a14.53,14.53,0,0,1-3.89-8.11,25.63,25.63,0,0,1-6.8,8.13l-1-1.65q5.23-4.5,7.06-8.57h-6.09l-2.59,14.71h-2.11l3-16.77H653q.07-1.05.19-2H651l.38-2.13h4.18q-.18,1-.37,4.15h7.92Z" style="fill: #898989"/>
          <path d="M686.11,376.94l-1.5,1.77a11.69,11.69,0,0,1-3.26-2.13L681.1,378h-4.75l-.34,1.92h8.49l-.33,1.87H665.23l.33-1.87h8.3l.34-1.92h-4.58l.25-1.44a19,19,0,0,1-4.05,2.18l-.83-1.82a13.13,13.13,0,0,0,5.17-3h-4.42l.33-1.9h3.83l1.29-7.29h-3.34l.33-1.87h3.34l.28-1.58h2.08l-.28,1.58h8.61l.28-1.58h2.12l-.28,1.58h3.38l-.33,1.88H684l-1.29,7.29h3.88l-.33,1.9H681.9A10.68,10.68,0,0,0,686.11,376.94Zm-5.31-.84a12.31,12.31,0,0,1-1.71-2.13h-6.43a12.61,12.61,0,0,1-2.17,2.13h4l.27-1.54h2.15l-.27,1.54Zm-.21-4,.25-1.39h-8.61l-.25,1.39Zm.54-3,.23-1.32h-8.61l-.23,1.32Zm.53-3,.22-1.27h-8.61L673,366Z" style="fill: #898989"/>
          <path d="M695.58,381.64h-2l.17-1h-2.93l-.27,1.56h-2l1.45-8.2h7Zm1.7-9.23h-7.1l.34-1.92h7.1Zm.62-3.53h-7.1l.34-1.92h7.1Zm1.22-3.6h-8.25l.34-1.94h3.24a7.92,7.92,0,0,0-.53-1.44l2.14-.75a13.35,13.35,0,0,1,.73,2.19h2.67Zm-5.05,13.41.47-2.68h-2.93l-.47,2.68Zm7.32-4.15a15.42,15.42,0,0,1-3.73,7.85l-1.47-1.28a16,16,0,0,0,3.4-7.92l2.1-11.93h2Zm2.92,5.68h-2l3.08-17.44h2Zm3.68,2h-2.08l3.7-21h2.08Z" style="fill: #898989"/>
          <path d="M715.32,376.67a33.53,33.53,0,0,1-2.24,5.67l-1.61-.89a29.77,29.77,0,0,0,2-5.29Zm5.62-1.68-1.88.71a3.7,3.7,0,0,0-.08-1.12q-2.44.62-5.68,1.13l-.38-1.79a28.52,28.52,0,0,0,4.87-4.94,33.79,33.79,0,0,1-3.42.5l-.1-1.92a28.1,28.1,0,0,0,4.84-6.43l1.8.8a35.24,35.24,0,0,1-4.25,5.34,25,25,0,0,0,2.81-.5,21.82,21.82,0,0,0,1.42-2l1.67.87a47.52,47.52,0,0,1-6.67,7.76q1.22-.19,2.81-.57a4.5,4.5,0,0,0-.22-1.23l1.88-.79A17.81,17.81,0,0,1,720.93,375Zm-3.64,6.16-1.94.39a28.29,28.29,0,0,0,.42-4.83l1.75-.3A23.25,23.25,0,0,1,717.29,381.16Zm3-2.52-1.72.53a13.28,13.28,0,0,0-.21-2.71l1.69-.5A10.21,10.21,0,0,1,720.34,378.64Zm12.36,1.67-1.44,1.7a10.26,10.26,0,0,1-3.69-5.18l-1,5.41h-2l1-5.41a27.89,27.89,0,0,1-6,5.13l-.81-1.8a20,20,0,0,0,6.33-5.34h-3.61l1.45-8.24h4.47l.3-1.68h-5.3l.34-1.94H728l.29-1.63h2l-.29,1.63h5.27l-.34,1.94h-5.27l-.3,1.68h4.44l-1.45,8.24H729Q729.24,377.36,732.69,380.3Zm-6.43-7.37.8-4.53h-2.48l-.8,4.53ZM726,372l-1.27.41a18.65,18.65,0,0,0,0-3.12l1.17-.41A20.31,20.31,0,0,1,726,372Zm4.73.91.8-4.53H729l-.8,4.53Zm.29-3.64a22.37,22.37,0,0,1-1.25,3.21l-1.08-.32a33.19,33.19,0,0,0,1.2-3.21Z" style="fill: #898989"/>
          <path d="M582,414.71a104,104,0,0,1-12.14,3l-.11-1.91q1.2-.19,3.38-.66a17.89,17.89,0,0,0-.62-3.28l1.74-.89h-2.55l1-5.61h9.75l-1,5.61h-2.33l1.4.77a11.08,11.08,0,0,1-1.09,1.84q1.3-.3,2.82-.81Zm2.37-14.34h-5l-.32,1.79h4.47l-.32,1.8H572.28l.32-1.8H577l.32-1.79h-4.94l.32-1.83h4.94l.32-1.79H580l-.32,1.79h5Zm-4.65,8.78.37-2.09h-5.62l-.37,2.09Zm-1,1.83h-4.21a31,31,0,0,1,.63,3.71l1.6-.37A21.13,21.13,0,0,0,578.73,411Zm12.82-1.1a27.44,27.44,0,0,1-9.62,7.87l-1.23-1.59a24.89,24.89,0,0,0,9.15-7.24Zm.88-6.65a25.48,25.48,0,0,1-8.73,7l-1-1.69a25.76,25.76,0,0,0,8.28-6.43Zm.54-5.74a25.79,25.79,0,0,1-7.84,6.12L584,402a21.3,21.3,0,0,0,7.28-5.5Z" style="fill: #898989"/>
          <path d="M598.4,410.42a32.41,32.41,0,0,1-4.14,6.72L593,415.9a32.93,32.93,0,0,0,3.76-6.22Zm9.06-8-1.67,1.42a12.53,12.53,0,0,0-.74-1l-.32,1.79h-2.53l-.36,2.06h4l-.35,2h-4l-1.27,7.18q-.33,1.89-2.91,1.89a7.05,7.05,0,0,1-.85,0l-.45-2q.49,0,1.67,0a.6.6,0,0,0,.68-.53l1.15-6.53H595.1l.35-2h4.44l.36-2.06H598l.17-1q-1,.81-2.12,1.54l-.86-1.65a28.33,28.33,0,0,0,6.9-6.84l1.81.59a3.18,3.18,0,0,1-.45.67A30.69,30.69,0,0,1,607.47,402.41Zm-2.58.16a32,32,0,0,0-2.66-3,35.06,35.06,0,0,1-2.85,3Zm.22,11.88-1.91.77a26.53,26.53,0,0,0-1-4.71l1.83-.84A22.5,22.5,0,0,1,605.11,414.46Zm8.87,1.81-1.5,1.7a19.88,19.88,0,0,1-3.45-3.32,29,29,0,0,1-5,3.34l-1.13-1.53a24.65,24.65,0,0,0,5.13-3.39,15.78,15.78,0,0,1-1.3-6.71h-.57l.35-2h2.88l1.32-7.51h2l-.49,2.78h4.49l-.34,1.95h-4.49l-.49,2.79h4.08A25.68,25.68,0,0,1,610.6,413,11.94,11.94,0,0,0,614,416.26Zm-1.37-9.92h-3.92a12.62,12.62,0,0,0,.93,5A20.25,20.25,0,0,0,612.61,406.35Z" style="fill: #898989"/>
          <path d="M625.09,414.75H623l.25-1.39H620l-.34,1.94H617.6l3.08-17.47h7.4Zm-1.45-3.41.85-4.8h-3.28l-.85,4.8Zm1.2-6.8.82-4.65h-3.28l-.82,4.65Zm12.2,10.6a3.64,3.64,0,0,1-.65,1.7,2,2,0,0,1-1,.67,10,10,0,0,1-2.15.15q-1,0-2,0l-.34-2.11q1.9,0,3.14,0a.81.81,0,0,0,.9-.72l.79-4.49h-5.5a18.23,18.23,0,0,1-3.88,7.51l-1.55-1.25a18.2,18.2,0,0,0,3.89-8.91l1.84-10.43h9.65Zm-.93-6.83.62-3.53h-5.38l-.62,3.53Zm1-5.65.58-3.3h-5.38l-.58,3.3Z" style="fill: #898989"/>
          <path d="M654.58,402.27,652.8,405l-2.23,12.62h-2.1l1.65-9.35q-1.49,1.34-1.86,1.61l-.66-2.14a23.31,23.31,0,0,0,5.22-6.28Zm.58-4.92a22.23,22.23,0,0,1-5.48,5.61l-.8-1.9a18.31,18.31,0,0,0,4.55-4.68Zm12.06,17.4h-6.79l-.51,2.89h-2.05l.51-2.89h-6.31l.33-1.88h6.31l.29-1.66h-5.53l.32-1.82h5.53l.31-1.76h-4.85l.32-1.79h4.85l.33-1.9h-5.6l.33-1.87h5.6l.34-1.92h-4.85l.31-1.77h4.85l.29-1.66h2.05l-.29,1.66h5.08l-.65,3.69h1.71l-.33,1.88h-1.71l-.65,3.69h-5.08l-.31,1.76h5.48l-.32,1.82h-5.48l-.29,1.66h6.79ZM665,405.84l.33-1.9h-3l-.33,1.9Zm.67-3.77.34-1.92h-3l-.34,1.92Z" style="fill: #898989"/>
          <path d="M678.34,416.4h-5.69l-.22,1.24h-1.89l3.24-18.4H676a17.13,17.13,0,0,0,1.56-2.7l2,.43q-.83,1.52-1.3,2.26h2.6l-1.24,7.05h-5.17l-.44,2.47h5.69Zm-1.62-1.95.67-3.77h-3.73l-.67,3.77ZM678,404.33l.56-3.15h-3.21l-.56,3.15Zm15.68-5.12h-4.8l-.48,2.7h4l-2.12,12a2.8,2.8,0,0,1-.82,1.62q-.64.6-2.8.47l-.06-2.06a8.86,8.86,0,0,0,1.21,0,.49.49,0,0,0,.53-.46l1.71-9.69h-2l-2.43,13.79h-2L686,403.85h-1.94l-2.16,12.23h-2l2.5-14.18h3.92l.48-2.7h-4.89l.35-2H694Z" style="fill: #898989"/>
        </g>
        <circle cx="557.33" cy="371.5" r="4" style="fill: #898989"/>
        <circle cx="557.33" cy="406.83" r="4" style="fill: #898989"/>
      </g>
    </g>
  </g>
</svg>
