<?xml version="1.0" encoding="utf-8"?>
<!-- Generator: Adobe Illustrator 21.1.0, SVG Export Plug-In . SVG Version: 6.00 Build 0)  -->
<svg version="1.1" baseProfile="tiny" xmlns="http://www.w3.org/2000/svg" xmlns:xlink="http://www.w3.org/1999/xlink" x="0px"
	 y="0px" viewBox="0 0 855 605" xml:space="preserve">
<g id="圖層_1">
	<rect x="28.3" fill="#BFC0C0" width="826.7" height="578"/>
	<path fill="#FFFFFF" d="M318,141.8"/>
	<rect y="29" fill="#EBF6FB" width="827" height="576"/>
</g>
<g id="圖層_3">
	<g>
		<path fill="#71CC6C" d="M1908.8,392.1c4.8-1.4,7.8-13.1,1.3-21.1c-4.7-5.8-17.1-9.3-19.5,1.9S1902.5,393.9,1908.8,392.1z"/>
		<path fill="#003705" d="M1902.2,375.2c2.4,1.1,4.4,2.8,6,4.9c1.6,2.1,2.7,4.5,3.4,7c0.6,2.5,0.9,5.1,0.8,7.7
			c0,1.3-0.3,2.5-0.5,3.8c-0.3,1.2-0.6,2.4-1,3.6c-0.1,0.4-0.6,0.6-1,0.5c-0.3-0.1-0.5-0.4-0.5-0.7l0-0.1c0-1.2,0.2-2.4,0.2-3.6
			c0-1.2,0.1-2.4,0-3.5c-0.1-2.3-0.4-4.6-1-6.8c-0.6-2.2-1.5-4.3-2.7-6.2c-1.2-1.9-2.7-3.8-4.4-5.2l-0.1-0.1
			c-0.3-0.3-0.4-0.8-0.1-1.1C1901.5,375.1,1901.9,375,1902.2,375.2z"/>
	</g>
	<g>
		<path fill="#71CC6C" d="M1973.6,399.9c1.4-4.9-14.1-9.8-26.1-4.1c-12.1,5.7-16.4,14.2-16.7,16.8
			C1930.5,415.2,1966.2,425,1973.6,399.9z"/>
		<path fill="#003705" d="M1968.1,401.1c-1.9,0.2-3.9,0.5-5.8,0.8c-1.9,0.3-3.9,0.7-5.8,1.2c-3.8,0.9-7.6,2-11.2,3.4
			c-3.7,1.3-7.2,3.1-10.6,5l-2.5,1.5l-2.4,1.7l-1.2,0.8l-1.1,0.9c-0.8,0.6-1.5,1.2-2.3,1.9l0,0c-0.2,0.2-0.6,0.2-0.8-0.1
			c-0.2-0.2-0.2-0.5,0-0.7c2.8-2.9,5.8-5.7,9.2-7.8c3.4-2.2,7.1-4,10.8-5.4c3.8-1.4,7.7-2.5,11.6-3.2c4-0.7,8-1.2,12-1
			c0.3,0,0.6,0.3,0.6,0.6C1968.6,400.9,1968.4,401.1,1968.1,401.1L1968.1,401.1z"/>
		<path fill="#003705" d="M1964.4,409.1c-1.4-0.9-2.6-1.8-3.8-2.9c-0.6-0.5-1.2-1.1-1.8-1.6c-0.6-0.6-1.1-1.1-1.7-2
			c-0.1-0.1-0.2-0.5-0.3-0.7c0-0.2,0-0.4,0-0.6c0-0.1,0-0.2,0.1-0.3l0.1-0.1c0.2-0.4,0.3-0.5,0.5-0.7c0.3-0.4,0.6-0.7,0.9-1
			c0.6-0.6,1.3-1.1,1.9-1.6c1.3-1,2.7-1.8,4.3-2.5c0.3-0.1,0.6,0,0.7,0.3c0.1,0.2,0,0.5-0.2,0.7l0,0c-1.2,1-2.3,2.1-3.5,3.1
			c-0.6,0.5-1.1,1-1.7,1.6c-0.2,0.3-0.5,0.5-0.7,0.8c-0.1,0.1-0.2,0.2-0.2,0.2l0,0c0,0,0-0.1,0-0.1c0-0.1,0-0.2,0-0.3
			c0-0.1-0.1-0.2,0-0.2c0.3,0.4,0.9,1.1,1.4,1.6l1.6,1.7c1.1,1.1,2.1,2.3,3.1,3.6c0.2,0.2,0.2,0.6-0.1,0.8
			C1964.9,409.2,1964.6,409.2,1964.4,409.1z"/>
		<path fill="#003705" d="M1954.9,411.5c-1.6-1-3.1-2-4.5-3.1c-0.7-0.6-1.4-1.2-2.1-1.8c-0.3-0.3-0.7-0.7-1-1.1
			c-0.1-0.2-0.5-0.6-0.5-1.3c0-0.4,0.1-0.6,0.1-0.7c0.1-0.2,0.1-0.3,0.2-0.4c1.1-1.9,2.3-3.1,3.6-4.5c1.4-1.3,2.7-2.5,4.7-3.3
			c0.3-0.1,0.6,0,0.7,0.3c0.1,0.2,0,0.5-0.2,0.7l-0.1,0.1c-1.3,0.9-2.5,2.4-3.6,3.7c-1.1,1.3-2.3,2.8-3,4.1
			c-0.1,0.1-0.1,0.1-0.1,0.2c0,0,0,0.1,0-0.1c-0.1-0.3-0.1-0.3,0-0.1c0.2,0.3,0.5,0.6,0.8,0.9c0.6,0.6,1.3,1.2,1.9,1.9
			c1.3,1.2,2.6,2.5,3.8,3.8c0.2,0.2,0.2,0.6,0,0.8C1955.4,411.6,1955.1,411.6,1954.9,411.5z"/>
		<path fill="#003705" d="M1946.6,414.1c-1.4-0.8-2.7-1.7-4-2.7c-0.6-0.5-1.3-1-1.9-1.6c-0.3-0.3-0.6-0.6-0.9-0.9
			c-0.2-0.2-0.3-0.3-0.5-0.5c-0.1-0.1-0.2-0.2-0.3-0.6c-0.1-0.2-0.1-0.4,0-0.7c0.1-0.2,0.2-0.5,0.5-0.7c0.3-0.2,0.2-0.1,0.2-0.1
			c-0.1,0-0.1,0.1-0.1,0.1c0.1,0,0.3-0.4,0.5-0.7l0.7-1c0.5-0.7,0.9-1.3,1.4-2c1-1.3,2.1-2.5,3.2-3.7c0.2-0.2,0.6-0.2,0.8,0
			c0.2,0.2,0.2,0.5,0.1,0.7c-0.8,1.4-1.6,2.8-2.4,4.1l-1.2,2c-0.2,0.3-0.4,0.7-0.6,1c-0.3,0.4-0.4,0.7-0.9,1.2
			c-0.1,0.1-0.2,0.2-0.4,0.3c0,0-0.2,0.1,0.1-0.1c0.2-0.2,0.4-0.4,0.4-0.7c0.1-0.2,0-0.4,0-0.6c-0.1-0.2-0.1-0.1,0-0.1
			c0.1,0.1,0.2,0.2,0.3,0.4l0.8,0.8l1.7,1.7c1.1,1.1,2.3,2.3,3.3,3.5c0.2,0.2,0.2,0.6,0,0.8C1947.1,414.2,1946.8,414.3,1946.6,414.1
			z"/>
	</g>
	<path fill="#EE4E84" d="M1938.9,365.6c0,0-0.7-18.2-11.1-13c-8.2,4.1-4.5,28.5,5.5,32.4c10.1,3.9,27.5-11.3,23.4-19.4
		C1950.1,352.5,1938.9,365.6,1938.9,365.6z"/>
	<g>
		<path fill="#71CC6C" d="M1561.5,257.5c2.3-3.6-2.4-12.9-11.2-14.3c-6.4-1-16.3,3.8-11.5,12.3
			C1543.6,264.2,1558.4,262.3,1561.5,257.5z"/>
		<path fill="#003705" d="M1547.5,250.5c2.2-0.7,4.4-0.7,6.6-0.2c2.2,0.4,4.3,1.3,6.2,2.5c1.8,1.3,3.5,2.8,4.8,4.5
			c0.7,0.8,1.2,1.8,1.8,2.7c0.5,1,1,1.9,1.4,2.9c0.1,0.3,0,0.7-0.3,0.9c-0.3,0.1-0.6,0-0.8-0.2l0-0.1c-0.7-0.8-1.3-1.6-1.9-2.4
			c-0.7-0.7-1.3-1.5-2-2.2c-1.4-1.4-2.9-2.7-4.5-3.8c-1.6-1-3.4-1.9-5.3-2.4c-1.8-0.5-3.9-0.9-5.8-0.9l-0.1,0
			c-0.4,0-0.7-0.3-0.7-0.6C1547.1,250.8,1547.3,250.5,1547.5,250.5z"/>
	</g>
	<g>
		<path fill="#71CC6C" d="M1591.5,279.9c-1.9-4-14.6,1.7-19.2,12.3s-2.5,18.5-1.2,20.3C1572.4,314.3,1601,300.2,1591.5,279.9z"/>
		<path fill="#003705" d="M1588.6,283.8c-1.1,1.2-2.3,2.5-3.3,3.9c-1.1,1.3-2.1,2.7-3.1,4c-2,2.8-3.7,5.6-5.3,8.6
			c-1.6,2.9-2.9,6.1-4,9.2l-0.8,2.4l-0.6,2.5l-0.3,1.2l-0.2,1.2c-0.1,0.8-0.3,1.7-0.4,2.5l0,0c0,0.3-0.3,0.4-0.6,0.4
			c-0.2,0-0.4-0.3-0.4-0.5c0.1-3.5,0.5-6.9,1.5-10.3c0.9-3.4,2.3-6.6,3.9-9.7c1.7-3.1,3.5-6,5.7-8.7c2.2-2.7,4.5-5.3,7.1-7.5
			c0.2-0.2,0.5-0.1,0.7,0.1C1588.8,283.3,1588.8,283.6,1588.6,283.8L1588.6,283.8z"/>
		<path fill="#003705" d="M1590.8,291c-1.4,0.2-2.7,0.3-4.1,0.3c-0.7,0-1.4,0-2.1,0c-0.7-0.1-1.3-0.1-2.2-0.3
			c-0.1,0-0.4-0.2-0.6-0.3c-0.1-0.1-0.2-0.2-0.3-0.4c0-0.1-0.1-0.2-0.1-0.2l0-0.1c-0.1-0.3-0.1-0.5-0.1-0.8c0-0.4,0-0.8,0.1-1.1
			c0.1-0.7,0.2-1.4,0.4-2.1c0.3-1.4,0.7-2.7,1.3-4c0.1-0.2,0.4-0.3,0.7-0.2c0.2,0.1,0.3,0.3,0.3,0.5l0,0c-0.2,1.3-0.3,2.6-0.5,4
			c-0.1,0.7-0.1,1.3-0.2,2c0,0.3,0,0.6,0,0.9c0,0.1,0,0.2,0,0.2l0,0c0,0,0-0.1,0-0.1c0-0.1-0.1-0.1-0.2-0.2c0-0.1-0.2-0.1-0.1-0.1
			c0.4,0.1,1.2,0.2,1.8,0.2l2,0.2c1.3,0.1,2.7,0.3,4.1,0.5c0.3,0,0.5,0.3,0.4,0.6C1591.2,290.8,1591,291,1590.8,291z"/>
		<path fill="#003705" d="M1586.1,298c-1.6,0.3-3.1,0.5-4.7,0.6c-0.8,0.1-1.6,0.1-2.4,0c-0.4,0-0.8,0-1.3-0.1
			c-0.2-0.1-0.7-0.1-1.1-0.6c-0.2-0.3-0.3-0.4-0.3-0.5c-0.1-0.1-0.1-0.3-0.1-0.4c-0.4-1.8-0.3-3.3-0.2-4.9c0.2-1.6,0.3-3.2,1.2-4.8
			c0.1-0.2,0.4-0.3,0.7-0.2c0.2,0.1,0.3,0.3,0.2,0.5l0,0.1c-0.3,1.3-0.2,2.9-0.2,4.4c0.1,1.5,0.1,3.1,0.4,4.4c0,0.1,0,0.1,0,0.2
			c0,0,0.1,0.1,0,0c-0.2-0.2-0.2-0.1-0.1-0.1c0.3,0.1,0.7,0.1,1,0.1c0.7,0.1,1.5,0.1,2.3,0.1c1.5,0.1,3.1,0.2,4.7,0.3
			c0.3,0,0.5,0.3,0.5,0.5C1586.5,297.8,1586.3,297.9,1586.1,298z"/>
		<path fill="#003705" d="M1582.2,304.4c-1.4,0.3-2.7,0.4-4.1,0.5c-0.7,0.1-1.4,0.1-2.1,0.1c-0.4,0-0.7,0-1.1,0
			c-0.2,0-0.4,0-0.6-0.1c-0.1,0-0.3,0-0.6-0.2c-0.2-0.1-0.3-0.2-0.4-0.4c-0.1-0.2-0.2-0.5-0.1-0.7c0.1-0.3,0.1-0.2,0.1-0.2
			c0,0,0,0.1,0,0.1c0-0.1,0-0.5-0.1-0.8l-0.1-1c-0.1-0.7-0.2-1.4-0.2-2.1c-0.1-1.4-0.1-2.8,0-4.2c0-0.3,0.3-0.5,0.5-0.5
			c0.2,0,0.4,0.2,0.4,0.4c0.3,1.3,0.6,2.7,0.8,4l0.4,2c0.1,0.3,0.1,0.7,0.2,1c0,0.4,0.1,0.7,0.1,1.3c0,0.1,0,0.3-0.1,0.4
			c0,0,0,0.2,0-0.1c0.1-0.2,0-0.5-0.1-0.7c-0.1-0.2-0.2-0.3-0.3-0.4c-0.2-0.1-0.1,0-0.1,0c0.1,0,0.3,0,0.4,0.1l1,0.1l2,0.1
			c1.4,0.1,2.7,0.2,4.1,0.3c0.3,0,0.5,0.3,0.4,0.5C1582.6,304.2,1582.4,304.4,1582.2,304.4z"/>
	</g>
	<path fill="#EE4E84" d="M1542.3,292.5c0,0,0.7-12.4,7.7-8.7c5.5,2.9,2.8,19.5-4.2,22c-6.9,2.5-18.6-8-15.7-13.5
		C1534.8,283.4,1542.3,292.5,1542.3,292.5z"/>
	<path fill="#FAD931" d="M1612.8,263.8c0-0.3-0.1-0.5-0.2-0.8c-0.1-0.4-0.3-0.7-0.6-1c-0.2-0.2-0.4-0.3-0.6-0.5
		c-0.2-0.1-0.5-0.2-0.7-0.3c-0.5-0.1-1.1-0.1-1.6,0c-0.1,0-0.2,0-0.3,0.1c-0.2,0-0.4,0.1-0.6,0.2c-0.2,0.1-0.5,0.2-0.6,0.4
		c-0.1,0.1-0.2,0.3-0.3,0.4c-0.1,0.2-0.2,0.5-0.2,0.7c0,0.1-0.1,0.3-0.1,0.4c-0.1,0.4-0.1,0.8-0.1,1.2c0,0.3,0.1,0.5,0.2,0.8
		c0.1,0.4,0.3,0.7,0.6,1c0.2,0.2,0.4,0.3,0.6,0.5c0.2,0.1,0.5,0.2,0.7,0.3c0.4,0.1,0.8,0.1,1.2,0.1c0.3,0,0.5-0.1,0.8-0.2
		c0.4-0.1,0.7-0.3,1-0.6c0.2-0.2,0.3-0.4,0.5-0.6c0.1-0.2,0.2-0.5,0.3-0.7C1612.9,264.6,1612.9,264.2,1612.8,263.8z"/>
	<path fill="#FAD931" d="M1630.6,277.4c0-0.2,0-0.3-0.1-0.5c-0.1-0.2-0.2-0.4-0.4-0.6c-0.1-0.1-0.3-0.2-0.4-0.3
		c-0.2-0.1-0.3-0.1-0.5-0.2c-0.3-0.1-0.5-0.1-0.8,0c-0.1,0-0.2,0-0.2,0c-0.2,0-0.3,0-0.5-0.1c-0.4,0-0.8,0.1-1.1,0.2
		c-0.4,0.1-0.7,0.3-0.9,0.6c-0.3,0.3-0.5,0.6-0.6,0.9c-0.2,0.3-0.3,0.7-0.2,1.1c0,0.4,0.1,0.8,0.2,1.1c0.1,0.4,0.3,0.7,0.6,0.9
		c0.2,0.1,0.4,0.3,0.6,0.4c0.4,0.3,0.9,0.4,1.4,0.4c0.3,0,0.5-0.1,0.8-0.1c0.5-0.1,0.9-0.4,1.3-0.7c0.1-0.2,0.3-0.4,0.4-0.6
		c0.2-0.3,0.3-0.7,0.3-1.1c0.1-0.3,0.1-0.6,0-0.9C1630.6,277.9,1630.6,277.7,1630.6,277.4z"/>
	<path fill="#FAD931" d="M1609.2,279.7c-2.7,0-2.7,4.1,0,4.1C1611.8,283.9,1611.8,279.7,1609.2,279.7z"/>
	<path fill="#FAD931" d="M1915.3,422.3c-0.1-0.3-0.2-0.6-0.5-0.8c-0.2-0.3-0.4-0.5-0.6-0.6c-0.2-0.2-0.5-0.4-0.8-0.5
		c-0.3-0.2-0.6-0.2-0.9-0.2c-0.3-0.1-0.6-0.1-0.9,0c-0.3,0-0.6,0.1-0.9,0.2c-0.3,0.1-0.6,0.2-0.8,0.5c-0.4,0.2-0.7,0.6-0.9,1
		c-0.1,0.1-0.2,0.3-0.2,0.4c-0.1,0.1-0.1,0.3-0.2,0.4c-0.1,0.1-0.2,0.3-0.3,0.4c-0.2,0.3-0.3,0.6-0.4,1c-0.1,0.3-0.1,0.6,0,0.9
		c0,0.3,0.1,0.6,0.3,0.8c0.3,0.5,0.7,0.8,1.3,1c0.4,0.1,0.7,0.2,1.1,0.2c0.1,0,0.3,0,0.4,0c0.1,0,0.1,0,0.2,0c0.3,0,0.6,0.1,0.9,0.1
		c0.3,0,0.6-0.1,0.9-0.1c0.3-0.1,0.6-0.2,0.8-0.4c0.2-0.2,0.5-0.4,0.7-0.5c0.2-0.2,0.4-0.5,0.5-0.7c0.1-0.3,0.2-0.6,0.4-0.8
		c0-0.3,0.1-0.6,0.1-0.9C1915.6,423.2,1915.5,422.7,1915.3,422.3z"/>
	<path fill="#FAD931" d="M1885.8,430.8c-2.8,0-2.8,4.3,0,4.3C1888.5,435.2,1888.5,430.8,1885.8,430.8z"/>
	<path fill="#FAD931" d="M1890.9,414.2c0-0.3,0-0.5-0.2-0.8c-0.1-0.3-0.2-0.5-0.4-0.7c-0.2-0.2-0.4-0.3-0.7-0.4
		c-0.2-0.1-0.5-0.2-0.8-0.2c-0.2,0-0.4,0-0.5,0.1c-0.3,0.1-0.6,0.3-0.9,0.5c-0.1,0.1-0.2,0.3-0.3,0.4c-0.2,0.3-0.3,0.7-0.3,1
		c0,0.3,0,0.6,0,0.9c0,0.3,0,0.5,0.2,0.8c0.1,0.3,0.2,0.5,0.4,0.7c0.2,0.2,0.4,0.3,0.7,0.4c0.2,0.1,0.5,0.2,0.8,0.2
		c0.2,0,0.4,0,0.5-0.1c0.3-0.1,0.6-0.3,0.9-0.5c0.1-0.1,0.2-0.3,0.3-0.4c0.2-0.3,0.3-0.7,0.3-1
		C1890.9,414.8,1890.9,414.5,1890.9,414.2z"/>
	<path fill="#FAD931" d="M1977,506.7c-2.8,0-2.8,4.3,0,4.3C1979.7,511,1979.7,506.7,1977,506.7z"/>
	<path fill="#FAD931" d="M1984.7,524c0-0.2-0.1-0.4-0.2-0.6c-0.1-0.1-0.2-0.3-0.2-0.4c-0.1-0.1-0.2-0.3-0.3-0.4
		c-0.2-0.2-0.3-0.3-0.5-0.3c-0.1-0.1-0.2-0.1-0.4-0.1c-0.1,0-0.3-0.1-0.4-0.1c-0.1,0-0.3,0-0.4,0.1c-0.3,0.1-0.5,0.2-0.7,0.4
		c-0.2,0.2-0.3,0.4-0.4,0.7c0,0.1,0,0.3-0.1,0.4c0,0.2,0,0.3,0.1,0.4c0,0.1,0.1,0.2,0.1,0.4c0.1,0.2,0.2,0.4,0.3,0.5
		c0.1,0.1,0.3,0.2,0.4,0.3c0.1,0.1,0.3,0.2,0.4,0.2c0.1,0.1,0.2,0.1,0.4,0.2c0.2,0.1,0.4,0.1,0.6,0c0.1,0,0.3,0,0.4-0.1
		c0.2-0.1,0.4-0.2,0.5-0.3l0.2-0.3c0.1-0.1,0.1-0.2,0.2-0.4C1984.8,524.4,1984.8,524.2,1984.7,524z"/>
	<path fill="#FAD931" d="M1988.7,509.7c-0.1-0.2-0.2-0.3-0.3-0.4c-0.2-0.2-0.4-0.3-0.6-0.4c-0.2-0.1-0.5-0.1-0.7,0
		c-0.2,0.1-0.4,0.1-0.7,0.2c-0.1,0-0.2,0.1-0.3,0.1c-0.1,0.1-0.3,0.2-0.3,0.3c-0.1,0.1-0.1,0.2-0.2,0.3c-0.1,0.1-0.1,0.3-0.1,0.5
		c0,0.1,0,0.2,0,0.3c0,0.1,0.1,0.2,0.1,0.3c0.1,0.1,0.2,0.3,0.3,0.3c0.1,0.1,0.3,0.2,0.4,0.2c0.2,0.1,0.4,0.1,0.7,0.2
		c0.2,0.1,0.5,0.1,0.7,0c0.2-0.1,0.4-0.2,0.6-0.4c0.1-0.1,0.1-0.2,0.2-0.3c0.1-0.2,0.2-0.5,0.2-0.7
		C1988.8,510.1,1988.8,509.9,1988.7,509.7z"/>
	<g>
		<path fill="#009160" d="M1669,214.5c0-2.7,7.3-18.1,15-17.7c7.7,0.3,3.6,9.4,3.6,9.4s13.5-10.1,18.4-6.6s-1,8.5-1,8.5
			s15.1-3.8,19.4,1.7c4.2,5.4-2.5,6-2.5,6s12.9,3.9,13.5,10.3c0.6,6.4-9.6,2.7-9.6,2.7s3.7,4.3,0.8,5.4c-4.4,1.6-11.9-5.9-11.9-5.9
			s1.1,3.9-3,3.9c-4.1,0-10.2-7.2-10.2-7.2s2.5,3.4-1,4.4c-3.6,1-10.8-6.8-10.8-6.8s3,4.3,0.2,5.5
			C1685.6,229.7,1669,219.9,1669,214.5z"/>
		<path fill="#003705" d="M1725,223.2c-2.8-1-5.6-2-8.5-2.8c-1.4-0.4-2.9-0.8-4.3-1.2c-1.5-0.3-2.9-0.7-4.4-1
			c-5.8-1.3-11.7-2.2-17.7-2.6l-2.2-0.2c-0.7-0.1-1.5-0.1-2.2-0.1l-4.5-0.1c-3,0.1-6,0-8.9,0.3c-1.5,0.1-3,0.2-4.5,0.4l-4.4,0.6
			c-0.7,0.1-1.5,0.2-2.2,0.3l-2.2,0.4c-1.5,0.3-2.9,0.6-4.4,0.9l-0.1,0c-0.4,0.1-0.8-0.2-0.8-0.6c-0.1-0.4,0.2-0.7,0.5-0.8
			c1.5-0.4,2.9-0.9,4.4-1.3l2.2-0.6c0.7-0.2,1.5-0.3,2.2-0.5l4.5-0.9c1.5-0.3,3-0.4,4.5-0.6c3-0.5,6.1-0.4,9.2-0.6
			c1.5,0,3.1,0.1,4.6,0.1c0.8,0,1.5,0,2.3,0.1l2.3,0.2c3.1,0.2,6.1,0.6,9.1,1.1l4.5,0.9c1.5,0.3,3,0.7,4.5,1.1
			c1.5,0.4,2.9,0.8,4.4,1.2c1.5,0.5,2.9,0.9,4.3,1.4c2.9,1.1,5.7,2.2,8.4,3.6c0.4,0.2,0.5,0.6,0.3,1
			C1725.7,223.2,1725.4,223.4,1725,223.2L1725,223.2z"/>
	</g>
	<g>
		<path fill="#009160" d="M1931.8,453.1c1.5-2,14.9-9.3,20.3-5c5.5,4.3-2.3,8.7-2.3,8.7s15.2-0.3,16.9,4.9c1.7,5.2-5.2,5.7-5.2,5.7
			s13,5.2,13.3,11.5c0.2,6.1-5,3-5,3s7.4,9.6,4.5,14.6c-2.9,5-8.5-3.1-8.5-3.1s0.4,5.1-2.3,4.3c-4.1-1.2-5.6-10.6-5.6-10.6
			s-1.3,3.5-4.2,1.3c-3-2.2-3.7-10.6-3.7-10.6s0.1,3.8-3.1,2.6s-4.3-10.7-4.3-10.7s0,4.7-2.7,4.1
			C1935.8,473,1928.9,457.1,1931.8,453.1z"/>
		<path fill="#003705" d="M1968.1,489c-1.5-2.2-3-4.4-4.7-6.5c-0.8-1.1-1.7-2.1-2.5-3.1c-0.9-1-1.7-2.1-2.7-3
			c-3.6-4-7.4-7.8-11.6-11.2l-1.5-1.3c-0.5-0.4-1.1-0.8-1.6-1.2l-3.2-2.5c-2.2-1.5-4.4-3.1-6.7-4.5c-1.2-0.7-2.3-1.4-3.4-2.1
			l-3.6-1.9c-0.6-0.3-1.2-0.7-1.8-0.9l-1.8-0.8c-1.2-0.6-2.5-1.1-3.7-1.7l0,0c-0.3-0.2-0.5-0.5-0.3-0.9c0.1-0.3,0.5-0.4,0.8-0.3
			c1.3,0.4,2.6,0.9,3.9,1.4l1.9,0.7c0.7,0.2,1.3,0.5,1.9,0.8l3.7,1.7c1.2,0.6,2.4,1.3,3.6,2c2.5,1.3,4.7,2.9,7,4.4
			c1.1,0.8,2.2,1.7,3.3,2.5c0.5,0.4,1.1,0.8,1.6,1.3l1.6,1.3c2.1,1.8,4.1,3.7,6.1,5.6l2.8,3c0.9,1,1.8,2.1,2.7,3.1
			c0.9,1.1,1.7,2.2,2.6,3.2c0.8,1.1,1.6,2.2,2.4,3.3c1.5,2.3,3,4.6,4.2,7.1c0.2,0.3,0,0.7-0.3,0.9
			C1968.6,489.4,1968.2,489.3,1968.1,489L1968.1,489z"/>
	</g>
	<g>
		<path fill="#71CC6C" d="M1622.3,240.3c2.1-6.5,2.1-17.1-7.1-23.6c-11.8-8.5-34.8-4.9-36.8-0.7c-1.9,4,12.5,24.5,21.3,28.9
			C1605.6,247.7,1619.9,247.6,1622.3,240.3z"/>
		<path fill="#003705" d="M1583.9,217.5c2.7,0.5,5.3,1.3,7.8,2.3c1.3,0.5,2.5,1,3.8,1.6l3.7,1.8c4.8,2.5,9.6,5.2,14.1,8.3
			c1.1,0.8,2.3,1.5,3.3,2.4l3.2,2.6c1.1,0.9,2,1.8,3,2.8l1.5,1.4c0.5,0.5,0.9,1,1.4,1.5c0.9,1,1.8,2,2.7,3.1l2.5,3.3
			c0.4,0.5,0.8,1.1,1.2,1.6l1.1,1.7c0.7,1.2,1.4,2.4,2,3.6c0.1,0.1,0,0.3-0.1,0.4c-0.1,0.1-0.2,0-0.3-0.1l0,0
			c-3.4-4.2-6.5-8.6-10.4-12.2c-0.5-0.5-0.9-1-1.4-1.4l-1.5-1.4c-1-0.9-1.9-1.8-3-2.7c-2.1-1.7-4.1-3.4-6.3-5
			c-4.3-3.2-8.8-6.1-13.7-8.4c-4.9-2.3-9.8-4.4-14.8-6.4l0,0c-0.2-0.1-0.2-0.2-0.2-0.4C1583.6,217.5,1583.8,217.4,1583.9,217.5z"/>
		<path fill="#003705" d="M1593,212.9c0.7,1.7,1.2,3.3,1.7,5c0.5,1.6,1.4,3.2,2.6,4.3c0.3,0.3,0.3,0.8,0,1.2
			c-0.1,0.1-0.2,0.2-0.3,0.2l-0.1,0c-0.9,0.3-1.8,0.6-2.7,0.9c-0.9,0.3-1.8,0.6-2.7,0.8l-2.7,0.7c-0.9,0.3-1.8,0.5-2.8,0.6l0,0
			c-0.2,0-0.3-0.1-0.3-0.2c0-0.1,0-0.2,0.1-0.2c0.7-0.7,1.6-1.2,2.5-1.6c0.9-0.4,1.8-0.8,2.7-1.1c0.9-0.3,1.8-0.6,2.7-0.9
			c0.9-0.3,1.9-0.5,2.8-0.7l-0.4,1.4c-0.6-0.8-1.1-1.6-1.5-2.4c-0.4-0.8-0.8-1.7-1.2-2.5c-0.4-0.9-0.7-1.7-0.8-2.6
			c-0.2-0.9-0.2-1.8-0.1-2.8c0-0.2,0.2-0.3,0.3-0.3C1592.9,212.7,1593,212.8,1593,212.9L1593,212.9z"/>
		<path fill="#003705" d="M1604.5,214.7c0.6,1.3,1,2.6,1.5,4l1.3,4c0.4,1.3,0.9,2.6,1.6,3.8c0.6,1.2,1.4,2.4,2.2,3.4
			c0.3,0.4,0.3,0.9-0.1,1.2c-0.1,0.1-0.2,0.2-0.4,0.2l-0.1,0c-1.4,0.3-2.9,0.6-4.3,0.9c-1.4,0.3-2.9,0.6-4.3,1
			c-1.4,0.3-2.8,0.7-4.2,1.2c-1.4,0.5-2.7,1-4,1.7l0,0c-0.1,0.1-0.3,0-0.4-0.1c-0.1-0.1,0-0.2,0-0.3c1-1.3,2.4-2,3.8-2.7
			c1.4-0.6,2.8-1.2,4.2-1.6c1.4-0.4,2.9-0.8,4.4-1.1c1.5-0.3,2.9-0.5,4.5-0.7l-0.6,1.4c-0.9-1.2-1.5-2.5-2.1-3.9
			c-0.6-1.3-1.1-2.6-1.7-4c-0.5-1.3-1-2.7-1.3-4.1c-0.3-1.4-0.6-2.8-0.6-4.2c0-0.2,0.1-0.3,0.3-0.3
			C1604.3,214.5,1604.4,214.5,1604.5,214.7L1604.5,214.7z"/>
		<path fill="#003705" d="M1613.7,219.1c0.6,1.5,1.1,3,1.5,4.5c0.4,1.5,0.8,3,1.2,4.5c0.4,1.5,0.9,3,1.5,4.4c0.6,1.4,1.2,2.8,2,4
			c0.3,0.4,0.2,1-0.3,1.3c-0.1,0.1-0.3,0.1-0.4,0.2l-0.1,0c-1.3,0.1-2.6,0.3-4,0.5c-1.3,0.2-2.6,0.4-3.9,0.6
			c-1.3,0.2-2.6,0.5-3.9,0.8c-1.3,0.4-2.5,0.7-3.8,1.2l0,0c-0.1,0-0.3,0-0.3-0.2c0-0.1,0-0.2,0.1-0.3c1-1,2.3-1.6,3.6-2.1
			c1.3-0.5,2.6-0.9,4-1.2c1.3-0.3,2.7-0.6,4.1-0.8c1.4-0.2,2.7-0.3,4.1-0.4l-0.7,1.4c-0.8-1.5-1.4-3-1.9-4.5c-0.5-1.5-1-3-1.4-4.5
			c-0.5-1.5-0.9-3-1.3-4.6c-0.3-1.5-0.6-3.1-0.6-4.7c0-0.2,0.1-0.3,0.3-0.3C1613.6,218.9,1613.7,219,1613.7,219.1z"/>
	</g>
	<path fill="#FAD931" d="M149.4,367.3c-0.1-0.2-0.3-0.3-0.4-0.5c-0.2-0.2-0.5-0.4-0.8-0.4c-0.2,0-0.4-0.1-0.6-0.1
		c-0.2,0-0.4,0-0.6,0.1c-0.3,0.1-0.6,0.2-0.9,0.4c-0.1,0.1-0.2,0.1-0.2,0.2c-0.2,0.1-0.4,0.1-0.6,0.2c-0.4,0.2-0.8,0.5-1.1,0.9
		c-0.3,0.3-0.6,0.8-0.7,1.2c-0.2,0.5-0.2,0.9-0.1,1.4c0,0.5,0.1,1,0.4,1.4c0.2,0.4,0.5,0.8,0.9,1.1c0.3,0.3,0.8,0.6,1.2,0.7
		c0.3,0,0.6,0.1,0.9,0.1c0.7,0,1.3-0.1,1.9-0.4c0.3-0.2,0.5-0.4,0.8-0.6c0.5-0.4,0.8-1,1-1.6c0-0.3,0.1-0.6,0.1-0.9
		c0-0.5-0.1-1-0.3-1.4c-0.1-0.4-0.3-0.7-0.5-1C149.7,367.8,149.6,367.5,149.4,367.3z"/>
	<path fill="#FAD931" d="M126.8,382.9c-3,1.6-0.5,6.2,2.5,4.6C132.3,385.9,129.7,381.3,126.8,382.9z"/>
	<g>
		<g>
			<path fill="#B9D98F" d="M61.9,441.9c0.4-6.1-11.8-14.6-23.8-10.3c-8.7,3.1-18,15.9-6.1,23.4C43.9,462.5,61.3,450,61.9,441.9z"/>
			<path fill="#007C29" d="M39.5,442.5c2.3-2.3,5.1-3.9,8.2-4.8c3.1-1,6.3-1.3,9.5-1.1c3.2,0.3,6.3,1.1,9.2,2.3
				c1.5,0.6,2.8,1.4,4.2,2.1c1.3,0.9,2.6,1.8,3.8,2.7c0.4,0.3,0.5,0.9,0.2,1.3c-0.3,0.3-0.7,0.4-1.1,0.3l-0.1,0
				c-1.4-0.5-2.7-1.2-4.1-1.7c-1.4-0.5-2.7-1-4.1-1.4c-2.7-0.9-5.5-1.4-8.3-1.7c-2.8-0.2-5.6,0-8.3,0.5c-2.7,0.6-5.5,1.5-7.9,2.9
				l-0.1,0.1c-0.5,0.3-1,0.1-1.3-0.4C39.1,443.3,39.2,442.8,39.5,442.5z"/>
		</g>
		<g>
			<path fill="#B9D98F" d="M114.9,449.6c-5.1-3.8-17.2,12.2-15.7,28.5c1.5,16.3,9.5,24.9,12.4,26.3
				C114.5,505.9,140.8,468.6,114.9,449.6z"/>
			<path fill="#007C29" d="M114,456.5c-0.6,2.3-1.1,4.7-1.5,7.1c-0.5,2.4-0.8,4.8-1.1,7.2c-0.6,4.8-0.9,9.6-0.8,14.4
				c-0.1,4.8,0.5,9.6,1.3,14.3l0.7,3.5l1,3.5l0.5,1.8l0.6,1.7c0.4,1.1,0.8,2.3,1.2,3.4l0,0.1c0.1,0.4-0.1,0.8-0.4,0.9
				c-0.3,0.1-0.7,0-0.9-0.4c-2.2-4.4-4.1-9.1-5.1-14c-1.1-4.9-1.7-9.8-1.7-14.8c0-5,0.3-10,1.2-14.8c0.9-4.9,2-9.7,3.9-14.4
				c0.1-0.4,0.6-0.5,0.9-0.4C113.9,455.7,114.1,456.1,114,456.5L114,456.5z"/>
			<path fill="#007C29" d="M121.7,464.1c-1.6,1.2-3.2,2.3-5,3.2c-0.9,0.5-1.7,0.9-2.6,1.4c-0.9,0.4-1.7,0.8-3,1.2
				c-0.1,0-0.6,0.1-0.9,0c-0.2,0-0.4-0.1-0.7-0.3c-0.1-0.1-0.2-0.1-0.3-0.2l-0.1-0.1c-0.3-0.4-0.5-0.6-0.7-0.9
				c-0.3-0.5-0.5-1-0.7-1.5c-0.4-1-0.7-1.9-1-2.9c-0.6-1.9-1-3.9-1.1-6c0-0.4,0.3-0.7,0.7-0.7c0.3,0,0.6,0.2,0.7,0.5l0,0.1
				c0.6,1.7,1.4,3.6,2.1,5.3c0.4,0.9,0.7,1.8,1.1,2.6c0.2,0.4,0.4,0.8,0.6,1.1c0.1,0.1,0.2,0.3,0.2,0.3l0,0c0,0-0.1-0.1-0.1-0.1
				c-0.1-0.1-0.2-0.1-0.3-0.1c-0.1-0.1-0.3,0-0.2,0c0.6-0.2,1.6-0.6,2.4-0.9l2.7-1.1c1.8-0.8,3.6-1.5,5.5-2.1
				c0.4-0.1,0.8,0.1,0.9,0.4C122.1,463.6,122,463.9,121.7,464.1z"/>
			<path fill="#007C29" d="M120.5,476.1c-1.8,1.4-3.6,2.7-5.5,3.9c-1,0.6-2,1.1-3,1.7c-0.5,0.3-1,0.5-1.7,0.7
				c-0.3,0.1-0.9,0.4-1.8,0c-0.5-0.2-0.6-0.3-0.8-0.5c-0.2-0.1-0.3-0.3-0.4-0.4c-1.7-2-2.7-4-3.7-6.1c-0.9-2.1-1.8-4.2-1.8-6.8
				c0-0.4,0.3-0.7,0.7-0.7c0.3,0,0.6,0.2,0.7,0.5l0,0.1c0.5,1.9,1.7,3.8,2.7,5.7c1.1,1.8,2.3,3.8,3.5,5.2c0.1,0.1,0.1,0.1,0.2,0.2
				c0,0.1,0.1,0.1-0.1,0c-0.4-0.1-0.4,0-0.1-0.1c0.4-0.1,0.9-0.3,1.4-0.5c1-0.4,2-0.9,3-1.4c2-1,4-1.9,6.1-2.8
				c0.4-0.2,0.8,0,0.9,0.4C120.8,475.5,120.7,475.9,120.5,476.1z"/>
			<path fill="#007C29" d="M120,486.8c-1.5,1.3-3.2,2.4-4.8,3.5c-0.8,0.5-1.7,1-2.6,1.5c-0.4,0.2-0.9,0.5-1.4,0.7
				c-0.2,0.1-0.5,0.2-0.8,0.3c-0.2,0-0.3,0.1-0.8,0.1c-0.3,0-0.5-0.1-0.9-0.3c-0.3-0.2-0.5-0.5-0.6-0.8c-0.1-0.5-0.1-0.3-0.1-0.3
				c0,0.1,0.1,0.2,0,0.2c0-0.1-0.4-0.6-0.6-0.9l-0.9-1.2c-0.6-0.8-1.2-1.6-1.7-2.5c-1.1-1.7-2.1-3.4-2.9-5.3c-0.2-0.4,0-0.8,0.4-0.9
				c0.3-0.1,0.6,0,0.8,0.2c1.3,1.5,2.6,3,3.8,4.5l1.9,2.3c0.3,0.4,0.6,0.8,0.9,1.2c0.3,0.4,0.6,0.7,1,1.5c0,0.1,0.1,0.4,0.2,0.5
				c0,0,0.1,0.2,0-0.2c-0.1-0.3-0.3-0.6-0.6-0.8c-0.3-0.2-0.4-0.2-0.7-0.2c-0.2,0-0.2,0-0.1,0c0.1,0,0.3-0.1,0.5-0.2l1.3-0.6
				l2.6-1.3c1.8-0.9,3.6-1.7,5.4-2.4c0.4-0.1,0.8,0,0.9,0.4C120.3,486.3,120.2,486.6,120,486.8z"/>
		</g>
		<path fill="#EF8582" d="M61.7,499c0,0-7.6-16.1,3.7-16.3c8.9-0.1,16.8,22.6,9.8,30.6c-7,7.9-28.9,2.6-29-6.3
			C46,492.7,61.7,499,61.7,499z"/>
		<path fill="#FAD931" d="M130.8,414.8c-0.2-0.3-0.5-0.6-0.8-0.8c-0.4-0.4-0.9-0.7-1.5-0.8c-0.4-0.1-0.7-0.1-1.1-0.2
			c-0.4,0-0.8,0.1-1.1,0.1c-0.8,0.2-1.5,0.6-2.1,1.1c-0.1,0.1-0.2,0.2-0.3,0.3c-0.3,0.2-0.5,0.4-0.7,0.6c-0.3,0.3-0.4,0.6-0.5,0.9
			c0,0.2-0.1,0.5-0.1,0.7c0,0.4,0.1,0.7,0.2,1.1c0.1,0.2,0.1,0.4,0.2,0.6c0.1,0.6,0.4,1.1,0.8,1.6c0.2,0.3,0.5,0.6,0.8,0.8
			c0.4,0.4,0.9,0.7,1.5,0.8c0.4,0.1,0.7,0.1,1.1,0.2c0.4,0,0.8-0.1,1.1-0.1c0.6-0.1,1.1-0.4,1.6-0.8c0.3-0.2,0.6-0.5,0.8-0.8
			c0.4-0.4,0.7-0.9,0.8-1.5c0.1-0.4,0.1-0.7,0.2-1.1c0-0.4-0.1-0.8-0.1-1.1C131.4,415.8,131.2,415.3,130.8,414.8z"/>
	</g>
</g>
<g id="圖層_2">
	<g>
		<g>
			<path fill="#F8B500" d="M199.9,131.2c-1.6,0-3.2-0.4-4.5-1c-1.1,0.5-2.4,0.8-3.8,0.8c-2.2,0-4.2-0.6-5.8-1.8
				c-2.1,0.7-4.6,1-7.4,1c-7.2,0-10.5-5.1-10.5-9.9c0-5.2,3.5-9,8.4-9.5c-6.3-0.8-9.2-5.5-9.2-10.1c0-0.9,0.1-1.8,0.4-3
				c-2.9-1.6-4.7-4.6-4.7-8.2c0-2.7,1-5.1,2.7-6.7c-0.5-1.4-0.8-3-0.8-4.7v-7.1c0-7.3,4.9-12.2,12.2-12.2h10.2
				c7,0,11.9,4.5,12.2,11.4c0.2,0,0.4,0,0.6,0c0.2,0,0.5,0,0.8,0h0.7v-4.2c0-5.5,4-9.5,9.6-9.5c3.6,0,6.6,1.7,8.3,4.4h6.5
				c5.6,0,9.7,3.9,9.7,9.3c0,1.4-0.3,2.6-0.7,3.8c1.5,1.7,3.1,4.5,2.8,9l0,4.5c0,1.6-0.3,3.1-1,4.5c0.1,0.7,0.2,1.4,0.2,2.2
				c0,2.7-0.3,4.9-0.9,6.7c-0.5,1.4-1.1,2.6-1.9,3.6c2.5,1.6,4.4,4.5,4.4,8.9c0,2.2-0.1,3.9-0.2,5.3c-0.2,2.1-0.9,4.1-1.9,5.7
				c-1,1.6-2.9,3.8-6.6,4.9c-2.1,0.6-4.5,1-7.6,1c-6.2,0-9.7-1.9-11.7-4.2c-1.1,1.1-2.2,2-3.3,2.7c-0.1,0-0.1,0.1-0.2,0.1
				c-0.9,0.6-1.7,1-2.3,1.2C203,130.8,201.5,131.2,199.9,131.2z"/>
		</g>
		<g>
			<path fill="#F8B500" d="M294.8,129.4c-0.4,0-0.8,0-1.2,0l-33.5,0c-0.3,0-0.7,0-1,0c-5.3,0-8.4-2.1-10.1-3.9
				c-1.7-1.8-3.6-5.1-3.3-10.5l0-10.8c0-0.6,0-1.1,0-1.7c-1.6-0.5-3-1.5-4-2.8c-1.5-1.8-2.2-4.1-2.2-6.9c0-4,2.6-8.7,9.8-9.9
				c3.8-0.6,6.5-1.8,8.2-3.9h-5.1c-7.1,0-10.3-5-10.3-9.7c0-4.7,3.2-9.7,10.3-9.7h44.3c7.8,0,12.8,4.7,12.8,12
				c0,3.1-0.4,7.2-1.2,12.2c-0.6,4-1.8,7.2-3.4,9.7c0,0,0,0,0,0c1.7,1.8,3.6,5.1,3.3,10.5l0,10.8c0.3,5.4-1.7,8.7-3.4,10.5
				C303,127.3,299.9,129.4,294.8,129.4z M288.4,110.3V109h-23.1v1.4H288.4z M274.7,88.4c-0.3,0.5-0.6,1-0.9,1.4h0.7
				C274.5,89.3,274.6,88.9,274.7,88.4z M278.4,79.1c-0.4,1.7-0.9,3.4-1.6,5c1.8-2,4.5-3.2,7.7-3.2c0.1,0,0.1,0,0.2,0l3.4,0.1
				l0.4-1.9H278.4z"/>
		</g>
		<g>
			<path fill="#22AC38" d="M325.5,131.4c-5.8,0-9.9-4-9.9-9.7c0-2.1,0.8-3.8,1.5-4.9c0.3-0.4,0.4-0.8,0.5-0.9c0-0.1,0.1-0.2,0.2-0.3
				c0.4-0.7,0.8-1.5,1.2-2.2c-1.8-1.7-2.9-4.1-2.9-7c0-3.5,1.6-6.4,4.3-8c-4.1-1.5-6-5.3-6-8.8c0-1.6,0.3-3.1,1-4.4
				c-0.6-1.3-1-2.8-1-4.5c0-3.9,2.7-6.7,5.3-8.9c2.6-2.3,5.1-5.2,7.2-8.8c2.6-4.4,6-6.6,9.9-6.6c5.2,0,8.4,3.1,9.4,6.8h32
				c7.1,0,10.3,5,10.3,9.6c0,3-1.4,6.2-4.2,8c3.9,1.6,5.8,5.3,5.8,8.8c0,3.5-1.9,7.3-6,8.8c2.7,1.6,4.3,4.5,4.3,8
				c0,2.8-1,5.1-2.7,6.8c2.4,3.8,3.2,5.9,3.2,8c0,5.9-4.1,10-10.1,10c-3.6,0-6.8-2-8.8-5.4c-1.5,3.2-4.7,5.2-8.8,5.2
				c-2.6,0-5.6-1-7.7-3.7c-1.7,2.4-4.5,3.8-8,3.8c-4.6,0-8.3-2.8-9.6-7.3c-0.4,0.7-0.8,1.4-1.3,2.1
				C331.5,130.7,327.6,131.4,325.5,131.4z"/>
		</g>
		<g>
			<path fill="#22AC38" d="M410,132c-4.5,0-8-2.6-9.2-6.6c-0.5,0.1-0.9,0.1-1.4,0.1c-5.5,0-9.5-3.9-9.5-9.3c0-1.4,0.3-3,1-4.9
				c0.6-1.5,1.3-4.4,1.7-9.2c0-0.1,0-0.1,0-0.2c-0.1-0.1-0.3-0.3-0.4-0.4c-1.5-1.7-2.3-4-2.3-6.6c0-4.3,2.5-7.7,6.4-8.9
				c-2.7-2-5.7-4.9-5.7-9c0-5.2,3.6-9.1,8.7-9.4c0.7-1.4,1.3-2.8,1.9-4.1c1.6-4.2,5.2-6.8,9.6-6.8c5.6,0,9.6,3.7,9.8,9.1
				c0.2,0.1,0.4,0.1,0.6,0.2c1.2-1.4,2.7-2.4,4.5-3.2c0.1,0,0.1-0.1,0.2-0.1c1.5-0.5,3.4-0.9,6.4-1.2c5.9-0.7,11.4-1.8,16.4-3.4
				c1.5-0.4,2.7-0.6,3.8-0.6c5.7,0,9.7,4.1,9.7,9.9c0,4.5-2.9,8.1-7.4,9.4c-0.7,0.2-1.5,0.4-2.3,0.5c0,1,0,2.1,0,3.3h2.1
				c6.9,0,10,4.9,10,9.5c0,4.6-3.1,9.5-10,9.5h-0.9c0.1,0.5,0.2,1,0.3,1.5c0.7-0.2,1.5-0.3,2.2-0.3c2.9,0,5.6,1.3,7.3,3.6
				c1.3,1.8,1.9,4,1.9,6.7c0,5-0.6,8.8-1.8,11.8c-1.9,4.8-5.7,7.6-10.3,7.6c-2.3,0-5.6-0.7-9-4c-0.8-0.8-1.6-1.7-2.3-2.8
				c-0.3,0.2-0.6,0.3-0.8,0.4c-4.5,2-8.2,3.6-11.2,4.7c-3.8,1.4-6.1,1.9-8,1.9c-1.9,0-3.6-0.5-5.1-1.4C415.1,131,412.7,132,410,132z
				"/>
		</g>
		<g>
			<path fill="#22AC38" d="M485.8,131.6c-4.7,0-9.8-3.3-9.8-10.4v-16.6c-0.2,0-0.5,0-0.7,0c-2.4,0-4.7-0.9-6.5-2.5
				c-2-1.9-3.2-4.3-3.2-7c0-1.6,0.5-4.2,2.6-6.8c0,0,0.1-0.1,0.1-0.1c3-3.4,5.9-7.4,8.6-12c2.8-4.7,5-9.2,6.8-13.4
				c0.7-1.8,2-3.5,3.6-4.6c1.7-1.2,3.7-1.9,5.8-1.9c1.1,0,2.2,0.2,3.4,0.6c0.1,0,0.2,0.1,0.3,0.1c1.1,0.4,2.1,1,2.9,1.8
				c1.5-1,3.4-1.6,5.5-1.6c5.8,0,9.9,4.2,9.9,10.3V77c2.4-1.7,4.7-3.5,7.2-5.4c0.1,0,0.1-0.1,0.2-0.1c2.1-1.5,4.3-2.3,6.6-2.3
				c3,0,5.6,1.3,7.6,3.6c0,0,0,0.1,0.1,0.1c1.5,1.9,2.2,4,2.2,6.1c0,3.1-1.5,5.9-4.2,8c-6.1,4.7-12.7,8.9-19.6,12.4v11.7
				c0.6,0,1.3,0,2.1,0h2.1c0.8,0,1.5,0,2.1-0.1c0-0.7,0.1-1.6,0.1-2.7c0-0.1,0-0.1,0-0.2c0.3-5.6,4.2-9.4,9.5-9.4
				c3,0,5.6,1.1,7.3,3.2c1.6,1.8,2.4,4.1,2.4,6.7c0.1,5.8-0.4,9.7-1.3,12.5c-1.4,4.1-4.5,7-8.7,8.2c-2.6,0.7-6.4,1-12.2,1
				c-4.8,0-8.2-0.1-10.6-0.4c-3.5-0.4-6.3-1.4-8.4-3.3c-1.7-1.4-3.6-4-4-8.3v2.9C495.6,128.4,490.5,131.6,485.8,131.6z"/>
		</g>
		<g>
			<path fill="#22AC38" d="M598.2,131.9c-4.7,0-8.3-2.8-9.3-7.2c-1.3,1.6-2.9,2.7-4.9,3.5c-2.3,0.9-5.1,1.3-8.9,1.3
				c-1.6,0-3-0.3-4.3-0.8c-1.5,1-3.2,1.6-5.2,1.6c-2.9,0-5.3-1.1-6.9-3c-2.2,1.8-5,3.5-8.1,3.5c-5.5,0-9.5-4.1-9.5-9.8
				c0-2.9,1.3-5.4,3.8-7.6c-0.3-0.3-0.6-0.5-0.9-0.8c-1.7-1.7-2.5-4-2.5-6.6c0-2.7,1.1-5.1,3-6.8c-1.9-1.7-3-4.1-3-7
				c0-3.5,1.7-6.4,4.5-8l-0.3-2.5c-2.3-1.7-3.6-4.3-3.6-7.3c0-4.9,3.3-8.5,8-9.2c0.5-5,4.3-8.6,9.5-8.6c3.5,0,6.4,1.7,8,4.3
				c0.2-0.3,0.4-0.5,0.6-0.7c1.8-2,4.4-3.2,7.3-3.2c5.4,0,9.3,4,9.4,9.6c1.2-0.8,2.6-1.3,4.1-1.5c0.5-5.1,4.3-8.6,9.5-8.6
				s9,3.5,9.5,8.6c4.9,0.6,8.3,4.3,8.3,9.3c0,3.3-1.6,6.1-4.1,7.7c-0.1,0.7-0.2,1.5-0.2,2.3c3,1.5,4.9,4.6,4.9,8.3
				c0,2.8-1.1,5.2-2.8,6.9c1.4,1.7,2.1,3.9,2.1,6c0,4.1-2.6,8.6-8.3,9.3v7C607.8,127.8,603.8,131.9,598.2,131.9z"/>
		</g>
		<g>
			<path fill="#22AC38" d="M678.6,131c-2.5,0-6.1-1-9.1-5.7c-1.2,0.1-3.1,0.4-5.9,0.7c-3.8,0.5-8.2,0.9-13.1,1.4l-19,1.6
				c-0.4,0-0.7,0-1,0c-2.7,0-5-0.9-6.8-2.6c-1.4-1.3-3-3.6-3-7.4c0-3.2,1.4-6,3.9-7.8c0.1-0.1,0.2-0.1,0.3-0.2
				c1.8-1.2,4-1.7,7.5-1.9c1-2.1,2-4.3,2.9-6.5c-0.2,0.2-0.4,0.5-0.7,0.7c0,0-0.1,0.1-0.1,0.1c-1,0.9-1.8,1.5-2.6,2
				c-1.5,0.9-3.2,1.4-4.9,1.4c-5.7,0-9.6-4.1-9.6-10.1c0-3.3,1.9-5.8,6.1-10.4c3-3.3,5.9-8.2,8.5-14.6c0.8-2,1.7-3.5,2.7-4.8
				c1.9-2.3,4.5-3.5,7.3-3.5c1.1,0,2.1,0.1,3,0.4c1.6-3.1,4.9-5,9-5h8.5c6.6,0,11.4,4.1,12.6,10.8c1.4,7.5,4.9,13,10.8,16.8
				c4.3,2.7,6.5,6,6.5,9.8c0,5.9-4,10-9.7,10c-0.7,0-1.3-0.1-2-0.2c1.5,1.9,2.9,3.7,4.1,5.5c2.7,3.8,4,6.7,4,9.6
				C688.7,127,684.5,131,678.6,131z M655.3,104.9c-0.4,1.1-0.9,2.1-1.3,3.1l2.9-0.2C656.3,106.9,655.8,105.9,655.3,104.9z M649.8,82
				c1.9,0,3.9,0.6,5.9,1.9l0.1,0.1c0.6,0.4,1.1,0.8,1.5,1.3l0.1,0.1c1.5,1.9,2.3,4,2.3,6.2c0,0.7-0.1,1.4-0.3,2.1
				c1.4-0.7,3-1.1,4.8-1.2c-3.3-4.6-5.6-9.4-7-14.3h-3.4c-1.2,0-2.3-0.2-3.3-0.5c-0.2,0.7-0.5,1.4-0.8,2.1c-0.3,0.7-0.6,1.4-1,2.2
				C649.1,82,649.4,82,649.8,82z"/>
		</g>
	</g>
	<g>
		<path fill="#E9F4FA" d="M188.8,387.5h-87.2c-0.6,0.8-1.1,1.9-1.5,3.2H187c0.4-0.6,0.7-1.2,1.1-1.9
			C188.3,388.4,188.6,388,188.8,387.5z"/>
		<path fill="#E9F4FA" d="M169.2,373.3c1-2.7,2.3-4.4,3.8-5.6c-1.4-4.9-4.3-10.5-10.6-13.1C169.7,361.5,169.2,373.3,169.2,373.3z"/>
		<path fill="#FFFFFF" d="M188.9,387.5c0.9-1.5,1.8-3,2.7-4.5c0.3-0.5,0.6-1,1-1.6c0.9-1.5,1.9-3,2.8-4.5c0.3-0.4,0.5-0.9,0.8-1.3
			c2.5-3.8,5.1-7.6,7.8-11.3c0.2-0.3,0.4-0.5,0.6-0.8c1.1-1.6,2.3-3.1,3.5-4.6c0.1-0.1,0.1-0.2,0.2-0.2
			c-16.5,0.2-20.4,10.9-20.4,10.9s-8.6-6.7-14.7-1.9c-1.4,1.1-2.8,2.9-3.8,5.6c0,0,0.5-11.8-6.8-18.7c-3.8-3.5-9.7-5.7-18.8-4.3
			c-26.8,4.2-17.9,24.8-17.9,24.8s-4.8-4.8-10.4-2.4c-5.7,2.4-4.8,10.9-4.8,10.9s-11.6-7.6-15.2,3.9h6.4L188.9,387.5
			C188.9,387.5,188.9,387.5,188.9,387.5z"/>
		<path fill="#3DB4E8" d="M427.2,249.6c-2.1,0-4.1,0-6.2,0.1c-0.4,0-0.7,0-1.1,0c2.5-0.1,4.9-0.1,7.4-0.1
			C427.3,249.6,427.2,249.6,427.2,249.6z"/>
		<path fill="#3DB4E8" d="M386.3,252.7c-1,0.2-2,0.3-3.1,0.5c-0.3,0.1-0.7,0.1-1,0.2c1.6-0.3,3.3-0.5,4.9-0.8
			C386.9,252.6,386.6,252.6,386.3,252.7z"/>
		<path fill="#3DB4E8" d="M406.5,250.4c-0.6,0-1.2,0.1-1.8,0.1c1.6-0.1,3.1-0.2,4.7-0.3C408.5,250.3,407.5,250.3,406.5,250.4z"/>
		<path fill="#3DB4E8" d="M375.5,254.5c-0.3,0.1-0.7,0.1-1,0.2c0.9-0.2,1.8-0.3,2.7-0.5C376.6,254.3,376.1,254.4,375.5,254.5z"/>
		<path fill="#3DB4E8" d="M413.9,249.9c-0.5,0-1,0.1-1.5,0.1c1.6-0.1,3.3-0.2,5-0.2C416.2,249.8,415,249.9,413.9,249.9z"/>
		<path fill="#3DB4E8" d="M400.5,250.9c-0.9,0.1-1.7,0.2-2.6,0.3c-0.2,0-0.4,0.1-0.7,0.1c1.5-0.2,3.1-0.3,4.7-0.5
			C401.4,250.8,400.9,250.9,400.5,250.9z"/>
		<path fill="#3DB4E8" d="M393.5,251.7c-0.9,0.1-1.8,0.2-2.7,0.3c-0.3,0-0.7,0.1-1,0.1c1.6-0.2,3.1-0.4,4.7-0.6
			C394.1,251.6,393.8,251.6,393.5,251.7z"/>
		<path fill="#3DB4E8" d="M172.7,419.8c0.7-1.6,1.4-3.2,2.1-4.8C174,416.6,173.4,418.2,172.7,419.8z"/>
		<path fill="#3DB4E8" d="M181.5,400.9c1.1-2.1,2.2-4.2,3.3-6.2C183.6,396.8,182.6,398.8,181.5,400.9z"/>
		<path fill="#3DB4E8" d="M213.2,352.2c1.1-1.4,2.3-2.8,3.4-4.2C215.5,349.4,214.4,350.8,213.2,352.2z"/>
		<path fill="#3DB4E8" d="M232.6,330.7c1.1-1.1,2.3-2.3,3.4-3.4C234.9,328.5,233.7,329.6,232.6,330.7z"/>
		<path fill="#3DB4E8" d="M217.5,347.1c2.9-3.4,5.9-6.8,9-10.1C223.5,340.2,220.5,343.6,217.5,347.1z"/>
		<path fill="#3DB4E8" d="M227.6,335.8c1.2-1.2,2.4-2.5,3.6-3.7C230,333.3,228.8,334.6,227.6,335.8z"/>
		<path fill="#3DB4E8" d="M209,357.6c1-1.3,2.1-2.7,3.2-4C211.1,355,210,356.3,209,357.6z"/>
		<path fill="#3DB4E8" d="M427.5,249.6c0,0-0.1,0-0.1,0c0,0,0,0,0,0s0,0,0,0c0.1,0,0.3,0,0.4,0C427.7,249.6,427.6,249.6,427.5,249.6
			z"/>
		<path fill="#3DB4E8" d="M167.1,434.1c1.6-4.3,3.2-8.6,5-12.8C170.3,425.5,168.6,429.8,167.1,434.1z"/>
		<path fill="#3DB4E8" d="M367.3,256.2c0.8-0.2,1.6-0.3,2.4-0.5C368.9,255.9,368.1,256.1,367.3,256.2z"/>
		<path fill="#3DB4E8" d="M178.5,407c0.8-1.8,1.7-3.5,2.6-5.2C180.2,403.5,179.3,405.2,178.5,407z"/>
		<path fill="#3DB4E8" d="M175.6,413.2c0.7-1.5,1.4-3.1,2.1-4.6C177,410.1,176.3,411.7,175.6,413.2z"/>
		<path fill="#3DB4E8" d="M337.9,264.6c1.2-0.4,2.5-0.8,3.8-1.3C340.4,263.7,339.1,264.2,337.9,264.6z"/>
		<path fill="#3DB4E8" d="M344.4,262.4c2-0.6,4-1.2,6-1.8C348.4,261.2,346.4,261.8,344.4,262.4z"/>
		<path fill="#3DB4E8" d="M353.7,259.6c1-0.3,2.1-0.6,3.1-0.9C355.8,259.1,354.8,259.4,353.7,259.6z"/>
		<path fill="#3DB4E8" d="M360.5,257.8c0.9-0.2,1.9-0.5,2.8-0.7C362.4,257.4,361.5,257.6,360.5,257.8z"/>
		<path fill="#3DB4E8" d="M237.5,326c1.3-1.2,2.6-2.4,3.9-3.6C240,323.5,238.8,324.7,237.5,326z"/>
		<path fill="#3DB4E8" d="M316.2,273.1c2-0.9,4.1-1.8,6.1-2.6C320.3,271.3,318.2,272.2,316.2,273.1z"/>
		<path fill="#3DB4E8" d="M310,276c1.5-0.7,3-1.4,4.4-2.1C312.9,274.6,311.4,275.3,310,276z"/>
		<path fill="#3DB4E8" d="M331.3,267c1.2-0.5,2.5-0.9,3.7-1.4C333.8,266,332.5,266.5,331.3,267z"/>
		<path fill="#3DB4E8" d="M324.3,269.7c1.4-0.6,2.9-1.2,4.4-1.7C327.2,268.5,325.7,269.1,324.3,269.7z"/>
		<path fill="#3DB4E8" d="M461.2,251.7c-1.5-0.2-2.9-0.4-4.4-0.5c-0.1,0-0.2,0-0.3,0c1.9,0.2,3.8,0.4,5.7,0.7
			C461.8,251.8,461.5,251.7,461.2,251.7z"/>
		<path fill="#3DB4E8" d="M150.3,530.4L150.3,530.4c0-2.4,0-4.8,0.1-7.1C150.4,525.6,150.3,528,150.3,530.4z"/>
		<path fill="#3DB4E8" d="M152,499.3c0.3-2.3,0.5-4.7,0.8-7C152.5,494.7,152.3,497,152,499.3z"/>
		<path fill="#3DB4E8" d="M153,491.2c0.3-1.9,0.5-3.8,0.8-5.7C153.6,487.4,153.3,489.3,153,491.2z"/>
		<path fill="#3DB4E8" d="M154.2,483.2c0.3-1.6,0.5-3.1,0.8-4.7C154.8,480.1,154.5,481.7,154.2,483.2z"/>
		<path fill="#3DB4E8" d="M155.5,476.2c0.3-1.6,0.6-3.1,1-4.7C156.1,473,155.8,474.6,155.5,476.2z"/>
		<path fill="#3DB4E8" d="M276.2,321.7c8-7.4,17.3-17.4,29.1-14.5c4.1,1,5.8,5.3,5.1,9.2c-1.2,6.4-5.9,10.7-11.3,14.3
			c22.6,11.6,40.1,30.6,26.1,50.8c-3.8,5.4-10,8.8-16.5,8.8c-3,0-6.1-0.5-8.8-2c-1.1-0.6-5.6-6.5-6.1-6.5c-1.2,1.2-2.4,2.3-3.6,3.5
			c-4.3,1.8-4.8,3.8-1.5,6.1c0.8,3.1,6.4,7.9,8.5,10.4c3.9,4.8,8.1,9.4,11.7,14.4c3.1,4.4,4.9,8.7,5.9,13.1c1.7-3,8.9-5.2,17.6-5.2
			c9.9,0,18,2.9,18,6.5c0,3.6-8,6.5-18,6.5c-7.9,0-14.5-1.8-17-4.4c1,6.9,0.4,14,0.3,22.2c0,3.6-3.2,7.5-7.1,7.2
			c-15.5-1.4-30.9-2.9-45.4-9.1c-10.6-4.5-19.3-12.7-30.7-1.2c-3.8,3.8-5.7,9.9-8.8,14.2c-5.9,8.2-12.1,11-20.7,15.1
			c-2.4,1.1-8.4,1.7-8.9,5.1c-0.5,4,15.4,12.2,14.8,12c8.8,3.2,18,0.8,26-3.5c19.1-10.3,35.2-30.9,58.9-28.4
			c9.7,1,18.2,6.3,21.7,15.7c1.8,4.8,1.2,8.9,1.9,13.8c1.5,10.6,3.8,17.2,9.7,25.8c1.9,2.8,3.8,5.7,5.6,8.8
			c13.8,1.1,27.8,1.6,41.6,1.8c0.6-0.9,1.5-1.7,2.5-2.3v-99.3c0-3.9,3.2-7.1,7.1-7.1h89.4c3.9,0,7.1,3.2,7.1,7.1v34.4
			c3.2-0.3,6.2,0.3,8.8,1.6c-1.9,3.5-5,5.8-8.8,6.6v54.2c0.8,0.7,1.6,1.5,2.1,2.3c35.6-5.1,71.5-10.4,106.4-18.6
			c-1.6-14.2-6.5-27.7-14.5-40.2c-0.6-1-1.3-2-2-2.9c-0.2-0.3-0.4-0.6-0.6-0.9c-0.5-0.7-1-1.3-1.5-2c-0.2-0.3-0.4-0.6-0.7-0.9
			c-0.6-0.7-1.2-1.5-1.8-2.2c-0.1-0.2-0.3-0.3-0.4-0.5c-0.7-0.9-1.5-1.7-2.3-2.5c-0.2-0.2-0.3-0.4-0.5-0.5c-0.6-0.7-1.2-1.3-1.9-2
			c-0.2-0.2-0.4-0.4-0.6-0.7c-0.7-0.7-1.3-1.3-2-1.9c-0.1-0.1-0.3-0.3-0.4-0.4c-1.7-1.6-3.5-3.2-5.2-4.8c0,0-0.1-0.1-0.1-0.1
			c-3.9-3.5-8-6.8-12-10.3c0,0,0,0,0,0l0,0c-3.4-2.9-6.8-6-10.1-9.2c-19.6-19.6-16.2-54.5,12.4-64.9c12.3-4.5,18.6,5.4,27.6,11.3
			c0.1,0.1,0.2,0.1,0.3,0.2c0.2,0.1,0.4,0.3,0.6,0.4c0.2,0.1,0.3,0.2,0.5,0.3c0.2,0.1,0.4,0.2,0.6,0.3c0.2,0.1,0.4,0.2,0.6,0.3
			c0.2,0.1,0.3,0.2,0.5,0.3c0.2,0.1,0.5,0.2,0.8,0.4c0.1,0.1,0.3,0.1,0.4,0.2c0.4,0.2,0.8,0.3,1.2,0.5c7.2,2.6,20.3,0.5,21.4-9.2
			c0.8-7.1-5-9.9-8.8-13.2c-4-3.5-6.6-3.9-9.1-8.9c-2.7-5.3-4.3-15.5-4.4-21.4c-0.1-5.3,1.2-9.8,5-13.7c3.6-3.7,7.6-5.4,11.9-5.7
			c19.8,15.2,37.6,33,52.8,52.9c0,0,0.4,0.5,1.1,1.3c-39.5-52.5-96.9-90.5-162.9-104.6c9.4,2,18.6,4.5,27.5,7.4c0,0,0,0,0,0
			c1.6,0.5,3.2,1.1,4.8,1.6c0,0,0,0,0,0c0,0,0,0,0,0c2.2,3.2,3.2,7.2,2.3,12c-0.1,0.5-0.2,1-0.3,1.5c0,0.1-0.1,0.3-0.1,0.4
			c-0.1,0.3-0.2,0.7-0.3,1c0,0.1-0.1,0.3-0.1,0.4c-0.4,0.9-0.8,1.6-1.2,2.4c-0.1,0.1-0.1,0.2-0.2,0.3c-0.2,0.3-0.4,0.6-0.6,0.8
			c-0.1,0.1-0.1,0.2-0.2,0.2c-0.6,0.7-1.2,1.3-1.9,1.8c0,0-0.1,0.1-0.1,0.1c-0.3,0.3-0.6,0.5-1,0.7c0,0-0.1,0.1-0.1,0.1
			c-6.2,4.2-15.6,4.8-22.8,6c-14.2,2.4-26.4,1.8-28.9,18.8c-1.2,8.1,0.6,17-0.5,25.4c-1.9,13.6-5.2,42.3-16.7,51.4
			c-22.7,17.9-48.3-37.8-57-50.8c-5.7-8.5-11.9-16.6-20-22.8c-10.5-8-23.3-10.3-35-15.8c-10.4-4.9-18.8-11.8-23.3-22.1
			c-24.5,11.7-47,27-66.9,45.1c2.6-0.9,5.3-1.6,7.9-2.2C256.5,318,266,318.9,276.2,321.7z M527.1,430.5c0,3.6-8,6.5-18,6.5
			c-9.9,0-18-2.9-18-6.5c0-3.6,8-6.5,18-6.5C519,424,527.1,426.9,527.1,430.5z M461.6,387c2.1,4.8,5.4,7.6,10.6,8.7
			c4.9,1.1,16.4-0.3,14.5-8c-1.3-5.2,6.6-7.4,7.9-2.2c2.6,10.5-6.3,17.5-15.7,18.7c-10.1,1.3-20.2-3.5-24.4-13
			C452.3,386.4,459.4,382.1,461.6,387z M338.3,387c0.4-5.3,8.7-5.4,8.2,0c-0.5,6.6,6.2,9.3,11.7,9.3c6.4,0,11-3.7,12.8-9.9
			c1.4-5.2,9.4-3,7.9,2.2c-2.9,10.5-12.1,16.9-22.9,15.8C346.9,403.6,337.5,397.5,338.3,387z"/>
		<path fill="#3DB4E8" d="M151.4,506.4c0.1-1.7,0.3-3.5,0.5-5.2C151.7,502.9,151.5,504.6,151.4,506.4z"/>
		<path fill="#3DB4E8" d="M156.9,469.3c0.4-2,0.9-3.9,1.3-5.8C157.8,465.4,157.3,467.4,156.9,469.3z"/>
		<path fill="#3DB4E8" d="M614.3,589.5c10-8.2,20.2-20.3,26.9-31.4c2.2-3.7,4.4-7.9,5.4-12.2c0,0,2.2-3.9,0-9.7
			c-0.4-1.4-1-2.8-1.9-4.2c-9.8-15.5-21.9-5.5-32,1.2c-6.7,4.4-10.7,6.4-18.6,4.7c-2.8-0.6-5.5-4-5.2-6.9c0.4-3.4,0.5-6.9,0.5-10.2
			c-34.7,8.1-70.3,13.3-105.7,18.4c-0.4,1-0.8,1.8-1.4,2.5c-0.4,1.2-1.1,2.3-2,3.1v40.6c0,3.9-3.2,7.1-7.1,7.1H384
			c-3.9,0-7.1-3.2-7.1-7.1v-39.3c-0.3-0.4-0.5-0.9-0.8-1.3c0,0-0.1-0.1-0.1-0.1c-0.9-0.9-1.6-1.9-2-2.9c-11.9-0.1-23.9-0.5-35.7-1.3
			c9.8,19.6,16.1,42.4,12.9,63.3c-0.1,0.5-0.2,0.9-0.3,1.3h207.6c9-2.8,18.2-3.5,28.3,0h5.4C597,597.4,607.5,595.1,614.3,589.5z"/>
		<path fill="#3DB4E8" d="M150.8,513.5c0.1-1.6,0.2-3.1,0.3-4.7C151,510.4,150.9,512,150.8,513.5z"/>
		<path fill="#3DB4E8" d="M150.5,521c0.1-1.6,0.1-3.3,0.2-4.9C150.6,517.7,150.6,519.3,150.5,521z"/>
		<path fill="#3DB4E8" d="M162.7,447.2c0.5-1.5,1-3.1,1.5-4.6C163.7,444.1,163.2,445.7,162.7,447.2z"/>
		<path fill="#3DB4E8" d="M164.8,440.6c0.5-1.6,1.1-3.3,1.7-4.9C165.9,437.3,165.4,438.9,164.8,440.6z"/>
		<path fill="#3DB4E8" d="M158.5,462.6c0.6-2.3,1.1-4.5,1.7-6.7C159.6,458.1,159,460.4,158.5,462.6z"/>
		<path fill="#3DB4E8" d="M442.6,250c-0.6,0-1.2-0.1-1.8-0.1c-0.2,0-0.4,0-0.6,0c1.1,0.1,2.2,0.1,3.3,0.2
			C443.2,250.1,442.9,250,442.6,250z"/>
		<path fill="#3DB4E8" d="M450,250.5c-0.6-0.1-1.3-0.1-1.9-0.2c-0.6,0-1.1-0.1-1.7-0.1c1.2,0.1,2.5,0.2,3.7,0.3
			C450.1,250.5,450.1,250.5,450,250.5z"/>
		<path fill="#3DB4E8" d="M480.9,254.9c-0.6-0.1-1.2-0.2-1.7-0.3c-1.8-0.3-3.5-0.7-5.3-1c-0.8-0.1-1.6-0.3-2.4-0.4
			c-1-0.2-2-0.3-3.1-0.5c-1.5-0.2-3-0.4-4.5-0.6c-0.6-0.1-1.1-0.1-1.7-0.2c7.5,1,14.9,2.2,22.2,3.8
			C483.2,255.3,482.1,255.1,480.9,254.9z"/>
		<path fill="#3DB4E8" d="M454.2,250.9c-0.7-0.1-1.3-0.1-2-0.2c1.4,0.1,2.8,0.3,4.2,0.4C455.7,251.1,454.9,251,454.2,250.9z"/>
		<path fill="#3DB4E8" d="M694.4,605c0.4-1.6,0.9-3.2,1.3-4.9C695.3,601.8,694.9,603.4,694.4,605L694.4,605z"/>
		<path fill="#3DB4E8" d="M160.6,454.4c0.5-1.7,1-3.4,1.5-5.1C161.6,451,161.1,452.7,160.6,454.4z"/>
		<path fill="#3DB4E8" d="M435,249.7c-0.4,0-0.7,0-1.1,0c0.8,0,1.7,0.1,2.5,0.1C436,249.7,435.5,249.7,435,249.7z"/>
		<path fill="#3DB4E8" d="M188.1,388.8c-0.4,0.6-0.7,1.2-1.1,1.9c-0.7,1.3-1.4,2.5-2.1,3.8C185.9,392.6,187,390.7,188.1,388.8z"/>
		<path fill="#3DB4E8" d="M204.5,363.6c1.1-1.6,2.3-3.1,3.5-4.6C206.7,360.5,205.6,362.1,204.5,363.6z"/>
		<path fill="#3DB4E8" d="M191.6,383c-0.9,1.5-1.8,3-2.7,4.5C189.8,386,190.7,384.5,191.6,383z"/>
		<path fill="#3DB4E8" d="M195.3,377c-1,1.5-1.9,3-2.8,4.5C193.4,379.9,194.4,378.4,195.3,377z"/>
		<path fill="#3DB4E8" d="M203.9,364.4c-2.7,3.7-5.3,7.5-7.8,11.3C198.6,371.9,201.2,368.1,203.9,364.4z"/>
		<path fill="#CCE7F4" d="M310.4,316.3c0.7-3.9-1-8.2-5.1-9.2c-11.7-2.9-21.1,7.2-29.1,14.5c0.8,0.2,1.7,0.5,2.6,0.7
			c0.2,0.1,0.4,0.1,0.6,0.2c0.8,0.3,1.7,0.5,2.5,0.8c0,0,0,0,0.1,0c0.9,0.3,1.8,0.6,2.6,0.9c0.2,0.1,0.3,0.1,0.5,0.2
			c0.9,0.3,1.7,0.6,2.6,1c0,0,0,0,0,0c0.9,0.3,1.8,0.7,2.7,1.1c0.1,0.1,0.3,0.1,0.4,0.2c1.8,0.8,3.6,1.6,5.4,2.4
			c0.1,0,0.2,0.1,0.3,0.1c0.9,0.4,1.8,0.9,2.6,1.3c0,0,0,0,0,0h0c0,0,0,0,0,0C304.5,327,309.2,322.7,310.4,316.3z"/>
		<path fill="#B9D98F" d="M560.3,453.8c0.7,0.6,1.3,1.3,2,1.9C561.6,455.1,561,454.5,560.3,453.8z"/>
		<path fill="#B9D98F" d="M559.9,365.9c4.2,2.6,8,6.5,12.4,9.5c-8.9-5.9-15.2-15.8-27.6-11.3c-28.6,10.4-32,45.3-12.4,64.9
			c3.3,3.3,6.7,6.3,10.1,9.2c1.5-3,2.8-5.9,3.7-8.6C553.7,408.3,557.8,386.6,559.9,365.9z"/>
		<path fill="#B9D98F" d="M576.3,377.6c0.1,0.1,0.3,0.1,0.4,0.2C576.5,377.7,576.4,377.7,576.3,377.6z"/>
		<path fill="#B9D98F" d="M569.7,464.1c-0.6-0.7-1.2-1.5-1.8-2.2C568.6,462.6,569.1,463.4,569.7,464.1z"/>
		<path fill="#B9D98F" d="M573.8,376.3c0.2,0.1,0.4,0.2,0.6,0.3C574.2,376.6,574,376.4,573.8,376.3z"/>
		<path fill="#B9D98F" d="M554.5,448.6c-3.9-3.5-8-6.8-12-10.3C546.5,441.7,550.6,445.1,554.5,448.6z"/>
		<path fill="#B9D98F" d="M572.7,375.6c0.2,0.1,0.4,0.3,0.6,0.4C573.1,375.9,572.9,375.8,572.7,375.6z"/>
		<path fill="#B9D98F" d="M564.8,458.4c-0.6-0.7-1.2-1.3-1.9-2C563.6,457.1,564.2,457.7,564.8,458.4z"/>
		<path fill="#B9D98F" d="M571.9,467c-0.5-0.7-1-1.3-1.5-2C570.9,465.6,571.4,466.3,571.9,467z"/>
		<path fill="#B9D98F" d="M559.9,453.4c-1.7-1.6-3.5-3.2-5.2-4.8C556.4,450.2,558.2,451.8,559.9,453.4z"/>
		<path fill="#B9D98F" d="M567.6,461.5c-0.7-0.9-1.5-1.7-2.3-2.5C566.1,459.8,566.8,460.6,567.6,461.5z"/>
		<path fill="#B9D98F" d="M574.5,470.8c-0.6-1-1.3-2-2-2.9C573.2,468.8,573.9,469.8,574.5,470.8z"/>
		<path fill="#B9D98F" d="M575,377c0.2,0.1,0.3,0.2,0.5,0.3C575.3,377.2,575.2,377.1,575,377z"/>
		<path fill="#B9D98F" d="M338.3,540.4c-31-2.1-61.8-7.1-91-18.4c-5.7-2.2-3-11.5,2.8-9.3c26.7,10.4,54.5,15.3,82.7,17.6
			c-1.8-3-3.7-6-5.6-8.8c-5.9-8.6-8.2-15.2-9.7-25.8c-0.7-4.9-0.1-9-1.9-13.8c-3.6-9.4-12-14.7-21.7-15.7
			c-23.7-2.5-39.8,18.2-58.9,28.4c-8,4.3-17.2,6.7-26,3.5c0.6,0.2-15.4-8-14.8-12c0.5-3.4,6.4-3.9,8.9-5.1
			c8.7-4.1,14.9-6.9,20.7-15.1c3.1-4.3,5.1-10.5,8.8-14.2c11.4-11.5,20.1-3.3,30.7,1.2c14.5,6.2,29.9,7.7,45.4,9.1
			c3.9,0.3,7.1-3.6,7.1-7.2c0.1-8.2,0.6-15.3-0.3-22.2c-0.6-0.7-1-1.4-1-2.1c0-0.4,0.1-0.9,0.4-1.3c-1-4.4-2.8-8.7-5.9-13.1
			c-3.6-5-7.8-9.7-11.7-14.4c-2.1-2.5-7.7-7.3-8.5-10.4c-3.3-2.3-2.8-4.3,1.5-6.1c1.2-1.2,2.4-2.3,3.6-3.5c0.4,0.1,4.9,5.9,6.1,6.5
			c2.7,1.5,5.8,2,8.8,2c6.6,0,12.7-3.3,16.5-8.8c14-20.3-3.5-39.2-26.1-50.8c0,0,0,0,0,0c-3.7,2.5-7.7,4.6-11,6.8
			c-10.2,6.8-20.1,14.1-29.5,22c-3.1,2.6-6.6,2-8.6-0.1c-0.1-0.1-0.3-0.3-0.4-0.4c-0.4-0.4-0.6-0.9-0.9-1.4
			c-0.1-0.2-0.1-0.3-0.2-0.5c-0.1-0.4-0.2-0.7-0.3-1.1c-0.3-1.7,0.1-3.6,1.6-5.4c8.2-10.2,16.8-19.9,26.4-28.8c0,0,0,0,0,0
			c0.8,0.2,1.7,0.5,2.6,0.7c-0.9-0.3-1.7-0.5-2.6-0.7c-10.2-2.7-19.7-3.7-26.1-2.3c-2.6,0.6-5.2,1.3-7.9,2.2c0,0,0,0,0,0
			c-0.3,0.2-0.5,0.5-0.8,0.7c-1.3,1.2-2.6,2.4-3.9,3.6c-0.5,0.5-1,0.9-1.4,1.4c-1.1,1.1-2.3,2.2-3.4,3.4c-0.5,0.5-0.9,1-1.4,1.4
			c-1.2,1.2-2.4,2.4-3.6,3.7c-0.4,0.4-0.7,0.8-1.1,1.1c-3.1,3.3-6.1,6.7-9,10.1c-0.3,0.3-0.6,0.7-0.8,1c-1.2,1.4-2.3,2.8-3.4,4.2
			c-0.4,0.5-0.8,0.9-1.1,1.4c-1.1,1.3-2.1,2.7-3.2,4c-0.3,0.4-0.6,0.7-0.9,1.1c-0.1,0.1-0.1,0.2-0.2,0.2c-1.2,1.5-2.3,3.1-3.5,4.6
			c-0.2,0.3-0.4,0.5-0.6,0.8c-2.7,3.7-5.3,7.5-7.8,11.3c-0.3,0.4-0.5,0.9-0.8,1.3c-1,1.5-1.9,3-2.8,4.5c-0.3,0.5-0.6,1-1,1.6
			c-0.9,1.5-1.8,3-2.7,4.5c0,0,0,0,0,0.1c-0.3,0.4-0.5,0.9-0.8,1.3c-1.1,1.9-2.1,3.8-3.2,5.7c0,0.1-0.1,0.1-0.1,0.2
			c-1.1,2.1-2.2,4.1-3.3,6.2c-0.1,0.3-0.3,0.5-0.4,0.8c-0.9,1.7-1.7,3.5-2.6,5.2c-0.3,0.5-0.5,1.1-0.8,1.6c-0.7,1.5-1.4,3-2.1,4.6
			c-0.3,0.6-0.5,1.2-0.8,1.8c-0.7,1.6-1.4,3.2-2.1,4.8c-0.2,0.5-0.4,1-0.6,1.5c-1.8,4.2-3.4,8.5-5,12.8c-0.2,0.5-0.4,1-0.6,1.6
			c-0.6,1.6-1.1,3.3-1.7,4.9c-0.2,0.7-0.4,1.4-0.7,2c-0.5,1.5-1,3.1-1.5,4.6c-0.2,0.7-0.4,1.4-0.6,2c-0.5,1.7-1,3.4-1.5,5.1
			c-0.1,0.5-0.3,1-0.4,1.5c-0.6,2.2-1.2,4.5-1.7,6.7c-0.1,0.3-0.1,0.6-0.2,0.9c-0.5,1.9-0.9,3.9-1.3,5.8c-0.2,0.7-0.3,1.4-0.4,2.1
			c-0.3,1.6-0.6,3.1-1,4.7c-0.2,0.8-0.3,1.6-0.4,2.4c-0.3,1.6-0.6,3.1-0.8,4.7c-0.1,0.7-0.3,1.5-0.4,2.2c-0.3,1.9-0.6,3.8-0.8,5.7
			c-0.1,0.4-0.1,0.8-0.2,1.2c-0.3,2.3-0.6,4.6-0.8,7c-0.1,0.6-0.1,1.2-0.2,1.8c-0.2,1.7-0.3,3.4-0.5,5.2c-0.1,0.8-0.1,1.6-0.2,2.5
			c-0.1,1.6-0.2,3.1-0.3,4.7c0,0.9-0.1,1.7-0.1,2.6c-0.1,1.6-0.1,3.3-0.2,4.9c0,0.8-0.1,1.5-0.1,2.3c-0.1,2.4-0.1,4.8-0.1,7.1l0,0
			c0,4.9,0.1,9.7,0.4,14.5c0,0.5,0.1,1,0.1,1.4c3.8-0.9,6.9-0.7,6.9-0.7c11.2,0,17.1,2.9,20.1,6.7c6.1,4.4,5.8,11.2,4.6,15.8
			c7.9-3,12.3-0.9,14.8,2.6c6.1,3.8,5.9,14,5.9,14h-47.6c1.3,6.9,2.9,13.6,4.7,20.3h190.6c0.1-0.4,0.2-0.9,0.3-1.3
			C354.4,582.7,348.1,560,338.3,540.4z M180.9,535.4c-0.9,6.3-11.3,5-11.1-1.3c0.9-23.1,5.5-46.3,11.8-68.4
			c3.9-13.9,12.8-58.1,34.4-51.9c23.9,6.8-9.7,40.3-15.2,49.5C188,485.1,184.6,510.7,180.9,535.4z"/>
		<path fill="#B9D98F" d="M285.1,324.5c0.9,0.3,1.7,0.6,2.6,1C286.8,325.1,285.9,324.8,285.1,324.5z"/>
		<path fill="#B9D98F" d="M296.4,329.2c0.9,0.4,1.8,0.9,2.6,1.3C298.2,330.1,297.3,329.7,296.4,329.2z"/>
		<path fill="#B9D98F" d="M287.7,325.4c0.9,0.3,1.8,0.7,2.7,1.1C289.5,326.2,288.6,325.8,287.7,325.4z"/>
		<path fill="#B9D98F" d="M281.9,323.4c0.9,0.3,1.8,0.6,2.6,0.9C283.7,324,282.8,323.7,281.9,323.4z"/>
		<path fill="#B9D98F" d="M290.8,326.7c1.8,0.8,3.6,1.6,5.4,2.4C294.4,328.2,292.6,327.4,290.8,326.7z"/>
		<path fill="#B9D98F" d="M279.3,322.6c0.8,0.3,1.7,0.5,2.5,0.8C281,323.1,280.2,322.8,279.3,322.6z"/>
		<path fill="#B9D98F" d="M514.4,285.7c-0.3,0.3-0.6,0.5-1,0.7C513.8,286.1,514.1,285.9,514.4,285.7z"/>
		<path fill="#B9D98F" d="M517.2,282.7c-0.2,0.3-0.4,0.6-0.6,0.8C516.8,283.2,517,282.9,517.2,282.7z"/>
		<path fill="#B9D98F" d="M519.1,278.6c-0.1,0.3-0.2,0.7-0.3,1C518.9,279.3,519,279,519.1,278.6z"/>
		<path fill="#B9D98F" d="M519.6,276.8c-0.1,0.5-0.2,1-0.3,1.5C519.4,277.8,519.5,277.3,519.6,276.8z"/>
		<path fill="#B9D98F" d="M514.5,285.5c0.7-0.6,1.3-1.2,1.9-1.8C515.8,284.4,515.2,285,514.5,285.5z"/>
		<path fill="#B9D98F" d="M518.6,280c-0.4,0.9-0.8,1.6-1.2,2.4C517.9,281.7,518.3,280.9,518.6,280z"/>
		<path fill="#B9D98F" d="M519.6,276.8c0.9-4.9-0.1-8.8-2.3-12c0,0,0,0,0,0C519.4,268,520.5,271.9,519.6,276.8z"/>
		<path fill="#B9D98F" d="M332.3,298.6c11.7,5.5,24.5,7.9,35,15.8c8.2,6.2,14.3,14.3,20,22.8c8.7,13,34.3,68.6,57,50.8
			c11.5-9.1,14.9-37.8,16.7-51.4c1.2-8.4-0.7-17.3,0.5-25.4c2.5-17,14.8-16.4,28.9-18.8c7.2-1.2,16.6-1.8,22.8-6
			c-3.1,2.1-7,3.3-11,4.1c4-9.7,7.3-18.8,10.1-27.4c-9-2.9-18.2-5.4-27.5-7.4c-0.2,0-0.3-0.1-0.5-0.1c-7.3-1.6-14.7-2.8-22.2-3.8
			c0,0,0,0-0.1,0c-1.9-0.2-3.8-0.5-5.7-0.7c0,0-0.1,0-0.1,0c-1.4-0.1-2.8-0.3-4.2-0.4c-0.7-0.1-1.4-0.1-2-0.2
			c-1.2-0.1-2.5-0.2-3.7-0.3c-1-0.1-2-0.1-3-0.2c-1.1-0.1-2.2-0.1-3.3-0.2c-1.2-0.1-2.5-0.1-3.7-0.1c-0.8,0-1.7-0.1-2.5-0.1
			c-2.1,0-4.1-0.1-6.2-0.1c-0.1,0-0.3,0-0.4,0c-2.5,0-4.9,0-7.4,0.1c-0.9,0-1.7,0.1-2.6,0.1c-1.7,0.1-3.3,0.1-5,0.2
			c-1,0.1-2,0.1-2.9,0.2c-1.6,0.1-3.1,0.2-4.7,0.3c-1,0.1-1.9,0.2-2.9,0.3c-1.6,0.1-3.1,0.3-4.7,0.5c-0.9,0.1-1.8,0.2-2.8,0.3
			c-1.6,0.2-3.2,0.4-4.7,0.6c-0.9,0.1-1.7,0.2-2.6,0.4c-1.7,0.2-3.3,0.5-4.9,0.8c-1.7,0.3-3.3,0.6-5,0.9c-0.9,0.2-1.8,0.3-2.7,0.5
			c-1.6,0.3-3.2,0.7-4.8,1c-0.8,0.2-1.6,0.3-2.4,0.5c-1.3,0.3-2.6,0.6-3.9,0.9c-0.9,0.2-1.9,0.5-2.8,0.7c-1.2,0.3-2.5,0.6-3.7,0.9
			c-1,0.3-2.1,0.6-3.1,0.9c-1.1,0.3-2.3,0.6-3.4,0.9c-2,0.6-4,1.2-6,1.8c-0.9,0.3-1.9,0.6-2.8,0.9c-1.3,0.4-2.5,0.8-3.8,1.3
			c-1,0.3-1.9,0.7-2.9,1c-1.2,0.4-2.5,0.9-3.7,1.4c-0.9,0.3-1.8,0.7-2.7,1c-1.5,0.6-2.9,1.1-4.4,1.7c-0.6,0.3-1.3,0.5-1.9,0.8
			c-2.1,0.9-4.1,1.7-6.1,2.6c-0.6,0.3-1.2,0.5-1.8,0.8c-1.5,0.7-3,1.4-4.4,2.1c-0.3,0.1-0.6,0.3-0.9,0.4c0,0,0,0,0,0
			C313.5,286.7,321.9,293.6,332.3,298.6z M403.3,270.1c1.3,2.4,1.1,3.6,0,6.1c-0.8,1.9-3.2,2.9-5.1,3c-6.5,0.3-12.7,0.1-18.9,2.7
			c-5.3,2.3-10.3,5.1-16,2.9c-4-1.5-7-7.5-2.8-10.8c9.7-7.8,25.9-6.2,37.7-6.8C400.2,267,402.4,268.3,403.3,270.1z"/>
		<path fill="#656464" d="M356.1,404.6c10.8,1.1,19.9-5.4,22.9-15.8c1.5-5.2-6.5-7.4-7.9-2.2c-1.7,6.1-6.4,9.9-12.8,9.9
			c-5.5,0-12.3-2.7-11.7-9.3c0.4-5.4-7.8-5.3-8.2,0C337.5,397.5,346.9,403.6,356.1,404.6z"/>
		<path fill="#656464" d="M478.9,404.2c9.4-1.2,18.3-8.2,15.7-18.7c-1.3-5.2-9.2-3-7.9,2.2c1.9,7.7-9.6,9.1-14.5,8
			c-5.2-1.1-8.5-3.9-10.6-8.7c-2.2-4.9-9.3-0.6-7.1,4.2C458.7,400.7,468.8,405.5,478.9,404.2z"/>
		<path fill="#B9D98F" d="M646.7,545.9c-1,4.3-3.2,8.5-5.4,12.2c-6.7,11-17,23.1-26.9,31.4c-6.8,5.7-17.3,8-22.1,15.5h33.7
			l20.7-12.1V545.9z"/>
		<path fill="#B9D98F" d="M593.8,306.1c-4.2,0.4-8.3,2.1-11.9,5.7c-3.8,3.9-5.1,8.4-5,13.7c0.1,5.9,1.8,16.1,4.4,21.4
			c2.5,5,5.2,5.5,9.1,8.9c3.8,3.3,9.6,6.1,8.8,13.2c-1.1,9.6-14.3,11.7-21.4,9.2c-0.4-0.1-0.8-0.3-1.2-0.5c-0.1-0.1-0.3-0.1-0.4-0.2
			c-0.3-0.1-0.5-0.2-0.8-0.4c-0.2-0.1-0.3-0.2-0.5-0.3c-0.2-0.1-0.4-0.2-0.6-0.3c-0.2-0.1-0.4-0.2-0.6-0.3c-0.2-0.1-0.3-0.2-0.5-0.3
			c-0.2-0.1-0.4-0.3-0.6-0.4c-0.1-0.1-0.2-0.1-0.3-0.2c-4.4-2.9-8.2-6.8-12.4-9.5c-2.1,20.6-6.3,42.3-13.7,63.7
			c-1,2.8-2.2,5.6-3.7,8.6l0,0c0,0,0,0,0,0c4,3.5,8.1,6.8,12,10.3c0,0,0.1,0.1,0.1,0.1c1.8,1.6,3.5,3.1,5.2,4.8
			c0.1,0.1,0.3,0.3,0.4,0.4c0.7,0.6,1.3,1.3,2,1.9c0.2,0.2,0.4,0.4,0.6,0.7c0.6,0.6,1.3,1.3,1.9,2c0.2,0.2,0.3,0.4,0.5,0.5
			c0.8,0.8,1.5,1.7,2.3,2.5c0.1,0.2,0.3,0.3,0.4,0.5c0.6,0.7,1.2,1.4,1.8,2.2c0.2,0.3,0.4,0.6,0.7,0.9c0.5,0.7,1,1.3,1.5,2
			c0.2,0.3,0.4,0.6,0.6,0.9c0.7,1,1.3,1.9,2,2.9c8,12.5,12.9,26,14.5,40.2c0.9-0.2,1.8-0.4,2.7-0.6c6-1.4,8.3,8,2.3,9.4
			c-1.5,0.4-2.9,0.7-4.4,1c0,3.4-0.1,6.8-0.5,10.2c-0.3,3,2.5,6.3,5.2,6.9c7.9,1.8,11.9-0.3,18.6-4.7c10.1-6.7,22.1-16.6,32-1.2
			c0.9,1.4,1.5,2.7,1.9,4.2V359C631.5,339,613.7,321.2,593.8,306.1z"/>
		<path fill="#B9D98F" d="M558.5,605h28.3C576.7,601.5,567.5,602.2,558.5,605z"/>
		<path fill="#B3D28C" d="M513.3,286.4c0,0,0.1-0.1,0.1-0.1c0.3-0.2,0.7-0.5,1-0.7c0,0,0.1-0.1,0.1-0.1c0.7-0.6,1.3-1.2,1.9-1.8
			c0.1-0.1,0.1-0.2,0.2-0.2c0.2-0.3,0.4-0.5,0.6-0.8c0.1-0.1,0.1-0.2,0.2-0.3c0.5-0.7,0.9-1.5,1.2-2.4c0.1-0.1,0.1-0.2,0.1-0.4
			c0.1-0.3,0.2-0.7,0.3-1c0-0.1,0.1-0.3,0.1-0.4c0.1-0.5,0.2-1,0.3-1.5c0.9-4.9-0.2-8.8-2.3-12c0,0,0,0,0,0
			c-1.6-0.6-3.2-1.1-4.8-1.6c0,0,0,0,0,0c-2.8,8.6-6.1,17.8-10.1,27.4C506.3,289.7,510.2,288.5,513.3,286.4z"/>
		<path fill="#E3807D" d="M350.3,430.5c0-3.6-8-6.5-18-6.5c-8.7,0-15.9,2.2-17.6,5.2c-0.2,0.4-0.4,0.9-0.4,1.3c0,0.7,0.4,1.4,1,2.1
			c2.4,2.5,9.1,4.4,17,4.4C342.2,436.9,350.3,434,350.3,430.5z"/>
		<ellipse fill="#E3807D" cx="509.1" cy="430.5" rx="18" ry="6.5"/>
		<path fill="#CCE7F4" d="M216,413.8c-21.6-6.2-30.5,37.9-34.4,51.9c-6.3,22.2-10.9,45.3-11.8,68.4c-0.2,6.4,10.1,7.7,11.1,1.3
			c3.7-24.7,7.1-50.3,20-72.1C206.3,454.1,239.9,420.6,216,413.8z"/>
		<path fill="#CCE7F4" d="M299.1,330.5c-0.9-0.4-1.7-0.9-2.6-1.3c-0.1,0-0.2-0.1-0.3-0.1c-1.8-0.8-3.6-1.7-5.4-2.4
			c-0.1-0.1-0.3-0.1-0.4-0.2c-0.9-0.4-1.8-0.7-2.7-1.1c0,0,0,0,0,0c-0.9-0.3-1.7-0.7-2.6-1c-0.2-0.1-0.3-0.1-0.5-0.2
			c-0.9-0.3-1.8-0.6-2.6-0.9c0,0,0,0-0.1,0c-0.8-0.3-1.7-0.5-2.5-0.8c-0.2-0.1-0.4-0.1-0.6-0.2c-0.9-0.3-1.7-0.5-2.6-0.7
			c0,0,0,0,0,0c-9.6,8.8-18.2,18.6-26.4,28.8c-1.4,1.8-1.8,3.7-1.6,5.4c0.1,0.4,0.2,0.7,0.3,1.1c0.1,0.2,0.1,0.3,0.2,0.5
			c0.2,0.5,0.5,1,0.9,1.4c0.1,0.1,0.2,0.3,0.4,0.4c2.1,2.1,5.5,2.7,8.6,0.1c9.4-7.9,19.3-15.2,29.5-22
			C291.4,335.1,295.4,333,299.1,330.5L299.1,330.5C299.1,330.5,299.1,330.5,299.1,330.5z"/>
		<path fill="#FFFFFF" d="M474.8,473.3v49.6c0.1,0.1,0.3,0.2,0.4,0.4c1.5,1.2,3.5,2.5,5.2,4V473c-0.7,0.2-1.4,0.3-2.1,0.4
			C477.3,473.5,476.1,473.4,474.8,473.3z"/>
		<path fill="#FFFFFF" d="M474.8,547v24.7h-92.3v-21.1c-2.2-1.2-4.3-2.7-5.7-4.6v39.3c0,3.9,3.2,7.1,7.1,7.1h89.4
			c3.9,0,7.1-3.2,7.1-7.1v-40.6c-1.2,1.1-2.7,1.9-4.8,2.2C475.4,547,475.1,547,474.8,547z M428.7,588.1c-3.4,0-6.1-2.7-6.1-6.1
			c0-3.4,2.7-6.1,6.1-6.1c3.4,0,6.1,2.7,6.1,6.1C434.8,585.4,432.1,588.1,428.7,588.1z"/>
		<path fill="#FFFFFF" d="M382.6,526.3v-87.4h92.3v13.2c1.1-0.8,2.3-1.5,3.5-1.9c1.5,4.5,0.6,9-2.3,12.7c-0.3,0.4-0.7,0.9-1.1,1.3
			v1.8c1.9-0.7,3.8-1.2,5.7-1.3v-34.4c0-3.9-3.2-7.1-7.1-7.1H384c-3.9,0-7.1,3.2-7.1,7.1v99.3C378.7,528.4,380.9,527.4,382.6,526.3
			C382.5,526.3,382.5,526.3,382.6,526.3z"/>
		<path fill="#BFBFBF" d="M394.9,495.5c0-1.8,1.4-3.2,3.2-3.2h10.3c-0.6-3.7-0.4-7.5,0.4-11c0.1-0.4,0.5-0.4,0.7-0.1
			c3.1,3.6,8.2,4.3,11,8.1l7.7-26.7c0.1-0.2,0.3-0.3,0.5-0.3l34.7,10c0.8-0.8,1.6-1.6,2.3-2.4l0,0c0.2-6.4,3.9-13.9,8.9-17.7v-13.2
			h-92.3v87.4c3.4-2.2,6.6-4.9,10.4-6.3c0.8-0.3,1.8,0.7,1.4,1.5c-1.4,3.3-4.1,6-6.9,8.3c0.5,0.4,1,0.8,1.4,1.2
			c1-0.2,1.9-0.4,2.8-0.7c1-0.3,2.1-0.6,3.1-0.9v-25.4V495.5z"/>
		<path fill="#BFBFBF" d="M394.9,537.1v-1.5c-0.3,0.1-0.7,0.3-1,0.4c-0.7,0.3-1.3,0.6-2,0.9c0,0.4,0.1,0.8,0.1,1.2
			c0,0.4-0.1,0.8-0.1,1.1c0.6,0.1,1.1,0.3,1.7,0.4c1,0.2,2.1,0.3,3.3,0.5C395.7,539.5,394.9,538.4,394.9,537.1z"/>
		<path fill="#BFBFBF" d="M467.3,471.4c-0.9,0.3-1.8,0.7-2.7,1.3c0,0,0,0,0,0c0,0.1,0,0.2,0,0.3l-8.8,30.6h0.2c1.7,0,3,1.3,3,3v21.5
			c1,0.2,2.1,0.5,3.1,0.7c1.5,0.3,3.2,0.5,4.8,0.8c0.8-1,1.8-1.8,2.9-2.4c-2.7-2.8-5.1-6-6.7-9.6c-0.6-1.3,0.7-2.6,1.9-1.9
			c3.4,2,6.6,4.5,9.7,7.1v-49.6C472.2,473,469.5,472.2,467.3,471.4z"/>
		<path fill="#BFBFBF" d="M456.1,539.1h-0.8c-0.2,0.2-0.4,0.4-0.6,0.5c1.8-0.3,3.6-0.5,5.3-0.8c0.9-0.2,1.8-0.4,2.8-0.6
			c-0.1-0.9,0-1.7,0.1-2.5c-0.9-0.3-1.8-0.7-2.6-1c-0.4-0.2-0.9-0.3-1.3-0.5v1.9C459.1,537.8,457.7,539.1,456.1,539.1z"/>
		<path fill="#BFBFBF" d="M466.9,470.1c-0.4,0.4-0.7,0.9-1.1,1.3c0.4-0.2,0.8-0.4,1.2-0.5c2.5-2.2,5.2-3.8,7.8-4.8v-1.8
			C472.6,466.6,469.5,468.8,466.9,470.1z"/>
		<path fill="#BFBFBF" d="M405.1,542.7c0.5,0.4,0.5,1.1,0,1.4c-4.2,2.9-11.2,1.9-16,1.2c-0.3,0-0.7-0.1-1.1-0.1
			c-0.1,0.1-0.2,0.1-0.2,0.2c-0.2,0.2-0.5,0.4-0.8,0.6c0.5,0.3,0.9,0.5,1.4,0.7c4.5,2,9.3,3.1,13.8,5c0.9,0.4,1.1,1.9-0.1,2
			c-5.8,1-11,0.7-16.6-1.7c-1-0.4-2-0.9-3-1.4v21.1h92.3V547c-0.3,0-0.6,0-0.9,0c-1.8,2.6-4.6,5.1-6.2,6.5
			c-2.9,2.4-8.6,7.1-12.6,4.8c-0.5-0.3-0.7-0.9-0.6-1.5c0.5-1.8,2.2-2.9,3.6-4c2-1.4,3.9-2.7,5.6-4.3c1.2-1.1,2.3-2.2,3.3-3.5
			c-0.4-0.2-0.8-0.5-1.1-0.7c-1.8,0.3-3.7,0.5-5.3,0.6c-4.5,0.5-9.6,0.6-13.7-1.6c-0.5-0.3-0.5-1.1,0-1.4c1.4-0.8,3-1.3,4.6-1.7h-53
			C401,540.7,403.3,541.4,405.1,542.7z"/>
		<circle fill="#E6E6E5" cx="428.7" cy="582" r="6.1"/>
		<path fill="#CCE7F4" d="M363.3,284.8c5.7,2.2,10.7-0.7,16-2.9c6.1-2.6,12.3-2.4,18.9-2.7c1.9-0.1,4.3-1,5.1-3
			c1.1-2.4,1.3-3.7,0-6.1c-0.9-1.8-3.1-3.1-5.1-3c-11.8,0.6-28.1-0.9-37.7,6.8C356.4,277.3,359.3,283.3,363.3,284.8z"/>
		<path fill="#1EAA39" d="M467,470.9c5-1.8,10.7-0.6,16.1-2.7c0,0,0.1,0.1,0,0.1c-5.3,2.1-10.8,1.4-15.8,3.2
			c2.2,0.8,4.9,1.5,7.5,1.8c1.2,0.1,2.4,0.2,3.5,0.1c0.7-0.1,1.4-0.2,2.1-0.4c3.8-0.9,6.9-3.1,8.8-6.6c-2.6-1.3-5.6-1.9-8.8-1.6
			c-1.9,0.2-3.8,0.6-5.7,1.3C472.1,467.1,469.5,468.7,467,470.9z"/>
		<path fill="#0A9431" d="M464.6,472.7c0.9-0.5,1.8-0.9,2.7-1.3c5-1.8,10.5-1.1,15.8-3.2c0,0,0-0.1,0-0.1
			c-5.4,2.2-11.1,0.9-16.1,2.7c-0.4,0.1-0.8,0.3-1.2,0.5C465.4,471.8,465,472.3,464.6,472.7z"/>
		<path fill="#1EAA39" d="M465.9,469.8L465.9,469.8c0.1-0.1,0.2-0.2,0.3-0.3c3.6-4.2,7-8.6,9.7-13.5c0.1-0.1,0.3,0,0.3,0.1
			c-2.4,5.1-5.5,9.6-9.2,13.9c0,0,0,0,0,0c2.6-1.3,5.8-3.5,8-5.8c0.4-0.4,0.8-0.9,1.1-1.3c2.9-3.7,3.9-8.2,2.3-12.7
			c-1.2,0.4-2.4,1.1-3.5,1.9C469.8,455.9,466.1,463.4,465.9,469.8z"/>
		<path fill="#0A9431" d="M466.9,470.1C466.9,470.1,466.9,470.1,466.9,470.1c3.7-4.3,6.9-8.8,9.3-13.9c0.1-0.1-0.2-0.3-0.3-0.1
			c-2.6,4.9-6.1,9.3-9.7,13.5c-0.1,0.1-0.2,0.2-0.3,0.3c-0.7,0.8-1.5,1.6-2.3,2.4l0.8,0.2c0.1,0,0.2,0.1,0.3,0.3c0,0,0,0,0,0
			c0.4-0.4,0.7-0.9,1.1-1.3C466.1,471,466.5,470.5,466.9,470.1z"/>
		<path fill="#F7B400" d="M456.1,503.6h-0.2l-0.1,0.2c0.2,0.4,0.3,0.9,0.3,1.4v22.2c1,0.2,2,0.4,3,0.7v-21.5
			C459.1,504.9,457.7,503.6,456.1,503.6z"/>
		<path fill="#F7B400" d="M455.3,539.1h0.8c1.7,0,3-1.3,3-3v-1.9c-1-0.4-2-0.8-3-1.3v4.1C456.1,537.9,455.8,538.6,455.3,539.1z"/>
		<path fill="#FFFFFF" d="M464.3,472.5l-0.8-0.2l-34.7-10c-0.2-0.1-0.4,0.1-0.5,0.3l-7.7,26.7c0.1,0.2,0.2,0.3,0.4,0.5
			c1.4,2.1,2.1,4.6,2,7l17.1,4.9l-0.1,0.3h1.5l1.8-6.1l8.7,2.5l-1,3.6h1.9c1.3,0,2.4,0.8,2.9,1.9l0.1-0.2l8.8-30.6
			c0-0.1,0-0.2,0-0.3C464.6,472.6,464.5,472.5,464.3,472.5z M440.9,498.7l-17.6-5.1l0.2-0.6l17.6,5.1L440.9,498.7z M452.4,497.8
			l-27.9-8l0.2-0.6l27.9,8L452.4,497.8z M453.5,494l-27.9-8l0.2-0.6l27.9,8L453.5,494z M454.5,490.5l-27.9-8l0.2-0.6l27.9,8
			L454.5,490.5z M455.4,487.4l-23.8-6.8l0.2-0.6l23.8,6.8L455.4,487.4z M428.3,475.8l2.6-9.1l28.9,8.3l-2.6,9.1L428.3,475.8z"/>
		<path fill="#FFFFFF" d="M423,497.3c-0.1,0.9-0.2,1.7-0.5,2.6l7,2h9.4L423,497.3z"/>
		<path fill="#FFFFFF" d="M422.3,500.5c-0.1,0.2-0.1,0.4-0.2,0.6c0,0,0,0.1,0,0.1c0,0,0,0,0,0.1c0,0,0,0,0,0c0,0,0,0.1,0,0.1
			c-0.1,0.2-0.2,0.4-0.4,0.6h5.7L422.3,500.5z"/>
		
			<rect x="443.3" y="471.3" transform="matrix(0.2769 -0.9609 0.9609 0.2769 -143.9446 776.0126)" fill="#E6E6E5" width="0.6" height="24.7"/>
		
			<rect x="440.4" y="471.6" transform="matrix(0.2769 -0.9609 0.9609 0.2769 -148.4871 774.9626)" fill="#E6E6E5" width="0.6" height="29"/>
		
			<rect x="439.3" y="475.1" transform="matrix(0.2769 -0.9609 0.9609 0.2769 -152.601 776.5308)" fill="#E6E6E5" width="0.6" height="29"/>
		
			<rect x="438.2" y="479" transform="matrix(0.2769 -0.9609 0.9609 0.2769 -157.0943 778.2474)" fill="#E6E6E5" width="0.6" height="29"/>
		<path fill="#E6E6E5" d="M423,496.7c0,0.2,0,0.4,0,0.6l15.9,4.6h1.1l0.1-0.3L423,496.7z"/>
		
			<rect x="431.9" y="486.7" transform="matrix(0.2769 -0.9609 0.9609 0.2769 -163.9321 773.9288)" fill="#E6E6E5" width="0.6" height="18.3"/>
		<path fill="#E6E6E5" d="M422.5,499.9c-0.1,0.2-0.1,0.4-0.2,0.6l5,1.4h2.2L422.5,499.9z"/>
		
			<rect x="439.4" y="460.4" transform="matrix(0.2769 -0.9609 0.9609 0.2769 -135.7384 770.5403)" fill="#0096D8" width="9.4" height="30.1"/>
		<polygon fill="#3EB3E8" points="443.3,495.8 441.5,501.9 450.9,501.9 452,498.3 		"/>
		<path fill="#1EAA39" d="M417.2,497.4v1.2c0,1.6,1.2,3,2.8,3.2C419.6,500.1,418.4,498.8,417.2,497.4z"/>
		<path fill="#1EAA39" d="M422,501.3C422,501.2,422,501.2,422,501.3c0-0.1,0-0.1,0-0.1c0,0,0-0.1,0-0.1c0.1-0.2,0.1-0.4,0.2-0.6
			c0.1-0.2,0.1-0.4,0.2-0.6c0.3-0.8,0.4-1.7,0.5-2.6c0-0.2,0-0.4,0-0.6c0.1-2.5-0.6-4.9-2-7c-0.1-0.2-0.2-0.3-0.4-0.5
			c-2.9-3.8-8-4.6-11-8.1c-0.2-0.3-0.6-0.2-0.7,0.1c-0.8,3.5-1.1,7.4-0.4,11h4.7c-0.8-1.5-1.4-3.2-1.6-4.9c0-0.1,0.2-0.1,0.2,0
			c0.4,1.8,1,3.4,1.8,4.9h0.4c1.8,0,3.2,1.4,3.2,3.2v1.5c1.3,1.5,2.7,3,3,4.9c0.1,0,0.1,0,0.2,0h1.2
			C421.7,501.7,421.9,501.6,422,501.3C422,501.3,422,501.3,422,501.3z"/>
		<path fill="#0A9431" d="M411.6,487.4c0.2,1.7,0.7,3.4,1.6,4.9h0.4c-0.8-1.5-1.4-3.1-1.8-4.9C411.8,487.2,411.6,487.3,411.6,487.4z
			"/>
		<path fill="#0A9431" d="M417.2,497v0.4c1.2,1.3,2.3,2.7,2.8,4.4c0.1,0,0.2,0,0.2,0C419.9,500,418.6,498.5,417.2,497z"/>
		<path fill="#FCD661" d="M455.8,503.8c-0.5-1.1-1.6-1.9-2.9-1.9h-1.9h-9.4H440h-1.1h-9.4h-2.2h-5.7h-1.2c-0.1,0-0.1,0-0.2,0
			c-0.1,0-0.2,0-0.2,0c-1.6-0.2-2.8-1.6-2.8-3.2v-1.2V497v-1.5c0-1.8-1.4-3.2-3.2-3.2h-0.4h-0.4h-4.7h-10.3c-1.8,0-3.2,1.4-3.2,3.2
			v8.6v25.4c3.1-0.9,6.2-1.9,9.4-2.2c1.1-0.1,1.5,1.5,0.8,2.2c-2.8,2.8-6.6,4.5-10.3,6.1v1.5c0,1.3,0.8,2.4,1.9,2.9
			c0.6,0.1,1.2,0.2,1.8,0.3h53c1-0.3,2.1-0.5,3.1-0.6c0.2-0.2,0.4-0.3,0.6-0.5c0.5-0.6,0.8-1.3,0.8-2.1v-4.1
			c-2.4-1.2-4.7-2.6-6.7-4.4c-0.7-0.7-0.1-2,0.9-2c2,0.1,3.9,0.4,5.8,0.8v-22.2C456.1,504.7,455.9,504.2,455.8,503.8z"/>
		<path fill="#656464" d="M382.6,550.7c1,0.5,2,1,3,1.4c5.5,2.4,10.7,2.7,16.6,1.7c1.1-0.2,0.9-1.7,0.1-2c-4.5-1.9-9.3-3.1-13.8-5
			c-0.5-0.2-1-0.5-1.4-0.7c0.3-0.2,0.6-0.4,0.8-0.6c0.1-0.1,0.2-0.1,0.2-0.2c0.4,0,0.7,0.1,1.1,0.1c4.8,0.6,11.8,1.7,16-1.2
			c0.5-0.4,0.6-1,0-1.4c-1.8-1.4-4.1-2-6.5-2.4c-0.6-0.1-1.2-0.2-1.8-0.3c-1.1-0.2-2.2-0.3-3.3-0.5c-0.6-0.1-1.1-0.2-1.7-0.4
			c0.1-0.4,0.1-0.7,0.1-1.1c0-0.4,0-0.8-0.1-1.2c0.7-0.3,1.4-0.6,2-0.9c0.3-0.1,0.7-0.3,1-0.4c3.6-1.6,7.4-3.3,10.3-6.1
			c0.7-0.7,0.3-2.3-0.8-2.2c-3.2,0.3-6.3,1.3-9.4,2.2c-1,0.3-2.1,0.6-3.1,0.9c-0.9,0.2-1.9,0.5-2.8,0.7c-0.4-0.4-0.9-0.8-1.4-1.2
			c2.8-2.3,5.4-4.9,6.9-8.3c0.4-0.8-0.6-1.8-1.4-1.5c-3.8,1.4-7,4.1-10.4,6.3c0,0,0,0,0,0c-1.6,1.1-3.8,2.1-5.6,3.3
			c-1,0.7-1.9,1.4-2.5,2.3c-13.9-0.2-27.8-0.7-41.6-1.8c-28.2-2.3-56-7.2-82.7-17.6c-5.8-2.2-8.5,7.1-2.8,9.3
			c29.3,11.4,60,16.3,91,18.4c11.9,0.8,23.8,1.2,35.7,1.3c0.4,1.1,1.1,2.1,2,2.9c0,0,0.1,0.1,0.1,0.1c0.2,0.5,0.5,0.9,0.8,1.3
			C378.3,548,380.4,549.5,382.6,550.7z"/>
		<path fill="#656464" d="M591.7,510.3c-0.9,0.2-1.8,0.4-2.7,0.6c-34.9,8.2-70.8,13.5-106.4,18.6c-0.6-0.8-1.3-1.6-2.1-2.3
			c-1.7-1.5-3.7-2.8-5.2-4c-0.1-0.1-0.3-0.2-0.4-0.4c-3.1-2.6-6.2-5.1-9.7-7.1c-1.2-0.7-2.5,0.6-1.9,1.9c1.6,3.6,4,6.8,6.7,9.6
			c-1.1,0.6-2.1,1.4-2.9,2.4c-1.7-0.3-3.4-0.5-4.8-0.8c-1-0.2-2.1-0.5-3.1-0.7c-1-0.2-2-0.5-3-0.7c-1.9-0.4-3.8-0.7-5.8-0.8
			c-1-0.1-1.6,1.3-0.9,2c2,1.9,4.3,3.3,6.7,4.4c1,0.5,2,0.9,3,1.3c0.4,0.2,0.9,0.3,1.3,0.5c0.8,0.3,1.7,0.6,2.6,1
			c-0.2,0.8-0.2,1.6-0.1,2.5c-0.9,0.2-1.9,0.5-2.8,0.6c-1.7,0.3-3.5,0.5-5.3,0.8c-1.1,0.2-2.1,0.4-3.1,0.6c-1.6,0.4-3.1,0.9-4.6,1.7
			c-0.5,0.3-0.6,1.1,0,1.4c4.1,2.3,9.2,2.1,13.7,1.6c1.6-0.2,3.5-0.3,5.3-0.6c0.4,0.3,0.7,0.5,1.1,0.7c-1,1.2-2.1,2.4-3.3,3.5
			c-1.8,1.6-3.7,2.9-5.6,4.3c-1.5,1-3.2,2.2-3.6,4c-0.1,0.5,0,1.2,0.6,1.5c3.9,2.3,9.7-2.4,12.6-4.8c1.6-1.4,4.4-3.8,6.2-6.5
			c0.3,0,0.6,0,0.9,0c0.3,0,0.6,0,0.9-0.1c2-0.2,3.6-1,4.8-2.2c0.9-0.9,1.6-1.9,2-3.1c0.6-0.7,1.1-1.6,1.4-2.5
			c35.3-5.1,70.9-10.3,105.7-18.4c1.5-0.3,2.9-0.7,4.4-1C600,518.3,597.7,508.9,591.7,510.3z"/>
		<path fill="#B8D88E" d="M655.3,557.4c0.3-1,0.7-1.9,1-2.6h-3.8c4.7-14.7,16.8-6.1,16.8-6.1s-0.9-5.9,9.6-9.1
			c10.5-3.2,16.3,4.7,16.3,4.8c0,0,0,0,0,0c0,0-0.4-7.5,7.4-10.9c0.7-0.3,1.4-0.5,2-0.6c1-96.4-48.8-162.5-56.9-172.5
			c-0.7-0.9-1.1-1.3-1.1-1.3v177.3c2.2,5.8,0,9.7,0,9.7v46.9L625.9,605h68.5c0.4-1.6,0.9-3.2,1.3-4.9c3.8-14.7,6.2-29,7.6-42.7
			H655.3z"/>
		<path fill="#E9F4FA" d="M116.4,560.6c-1.2-3.2-3.2-7.1-6.7-9.7c4.5,5.4,5.4,12.8,5.4,12.8C115.3,562.7,115.7,561.6,116.4,560.6z"
			/>
		<path fill="#E9F4FA" d="M136.5,561.8c-0.6-0.6-1.2-1.2-1.9-1.7c1.2,1.4,1.8,2.5,1.8,2.5C136.4,562.3,136.5,562,136.5,561.8z"/>
		<path fill="#E9F4FA" d="M203.1,584.7c0,0,0.2-10.2-5.9-14c3.3,4.6,3.2,11.4,3.2,11.4h-150c-0.3,0.8-0.5,1.6-0.7,2.6h105.8H203.1z"
			/>
		<path fill="#E9F4FA" d="M178,570.1c1.6-0.8,3-1.5,4.4-2c1.1-4.6,1.5-11.4-4.6-15.8C183.3,559.5,178,570.1,178,570.1z"/>
		<path fill="#FFFFFF" d="M200.4,582.1c0,0,0.1-6.8-3.2-11.4c-2.5-3.5-6.9-5.6-14.8-2.6c-1.4,0.5-2.8,1.2-4.4,2
			c0,0,5.3-10.5-0.3-17.8c-2.9-3.8-8.8-6.7-20.1-6.7c0,0-3.1-0.2-6.9,0.7c-5.6,1.4-12.9,5.1-14.3,15.5c0,0.3-0.1,0.5-0.1,0.8
			c0,0-0.7-1.2-1.8-2.5c-2-2.4-5.5-5.4-9.8-4.3c-4.4,1.2-7,3-8.3,4.9c-0.7,1-1.1,2.1-1.3,3.1c0,0-0.9-7.4-5.4-12.8
			c-3.4-4-8.8-7-17.4-4.9c-20.1,4.8-12.5,21.8-12.5,21.8s-6.9-3.6-10.7-0.9c-3.8,2.7-2.5,8.8-2.5,8.8s-16.5-10-19.7,6.4h3.4H200.4z"
			/>
		<path fill="#E9F4FA" d="M717.1,538.5c-0.1-0.1-0.1-0.1-0.2-0.2c0.2,0.2,0.3,0.3,0.3,0.3S717.1,538.6,717.1,538.5z"/>
		<path fill="#E9F4FA" d="M752.3,545.2c1.2-0.5,2.3-0.8,3.4-1.1c0.3-4.1-0.2-10.5-5.7-14.3C754.8,536.1,752.3,545.2,752.3,545.2z"/>
		<path fill="#E9F4FA" d="M656.4,554.7c-0.4,0.8-0.7,1.7-1,2.6h48h70.8c0,0-0.5-6.7-5.4-9.8c2.3,3.2,2.6,7.1,2.6,7.1H656.4z"/>
		<polygon fill="#E9F4FA" points="695.2,544.3 695.2,544.3 695.2,544.3 		"/>
		<path fill="#FFFFFF" d="M702.6,533.4c-7.8,3.4-7.4,10.9-7.4,10.9v0l0,0c0,0-5.8-7.9-16.3-4.8c-10.5,3.2-9.6,9.1-9.6,9.1
			s-12.1-8.6-16.8,6.1h3.8h114.9c0,0-0.3-3.9-2.6-7.1c-2.1-3-6-5.3-13-3.5c-1.1,0.3-2.2,0.6-3.4,1.1c0,0,2.6-9.1-2.3-15.4
			c-2.6-3.3-7.3-5.9-15.6-5.7c-22.4,0.4-18,12.7-17.3,14.3c0,0.1,0.1,0.2,0.1,0.2s-0.1-0.1-0.3-0.3c-1.2-1.4-6.2-6.7-12.2-5.5
			C704,532.9,703.3,533.1,702.6,533.4z"/>
	</g>
	<g>
		<path fill="#22AC38" d="M655.3,209.6H199.7c-9.9,0-18-8.1-18-18v-28c0-9.9,8.1-18,18-18h455.7c9.9,0,18,8.1,18,18v28
			C673.4,201.5,665.2,209.6,655.3,209.6z"/>
		<g>
			<path fill="#FFFFFF" d="M517.2,191.7c-1.5,0-3.5-0.2-4.6-1.6c-0.5-0.6-0.8-1.4-0.9-2.4H506c-1.6,0-2.8-0.4-3.6-1.3
				c-0.6-0.6-1.3-1.7-1.2-3.7V178c0-0.9,0.1-1.6,0.4-2.3c-1.5-0.4-2.5-1.7-2.5-3.5v-3.9c0-1.6,0.5-2.9,1.3-3.8
				c0.2-0.2,0.4-0.4,0.6-0.5c-0.1-0.4-0.2-0.8-0.2-1.2c0-2,1.5-3.4,3.6-3.4h22.1c2.1,0,3.6,1.4,3.6,3.4c0,0.4-0.1,0.8-0.2,1.2
				c0.2,0.1,0.5,0.3,0.7,0.5c0.7,0.6,1.4,1.8,1.3,3.8v3.7c0,1.8-1,3.1-2.6,3.5c0.3,0.6,0.5,1.4,0.4,2.5v4c1.7,0.3,2.8,1.6,2.8,3.5
				c0,2.2-0.6,3.9-1.9,4.9c-1,0.8-2.9,1.4-8.7,1.4C521.9,191.8,517.2,191.7,517.2,191.7z"/>
			<path fill="#FFFFFF" d="M546.9,192c-1.2,0-2.1-0.3-2.8-1c-0.5-0.5-1.1-1.3-1.1-2.8c0-2.2,1.6-3.7,3.9-3.7h1.2l0-5.5h-9.5
				c-2.7,0-3.9-1.8-3.9-3.6c0-1.1,0.4-2.1,1.2-2.7c0.7-0.5,1.6-0.8,2.6-0.8h9.5c0-1.6,0.4-2.9,1.1-3.8c0.2-0.3,0.6-0.7,1.6-1.3h-9.2
				c-1.1,0-2-0.3-2.6-0.8c-0.8-0.6-1.2-1.6-1.2-2.7c0-1.1,0.4-2.1,1.2-2.7c0.7-0.5,1.5-0.8,2.6-0.8h19.6c1.3,0,2.3,0.3,3,0.9
				c0.9,0.7,1.4,1.8,1.4,3.1c0,1.5-1.2,2.6-2.5,3.7c-1.2,0.9-2.7,1.9-4.8,3.1l-1.3,0.8c-0.6,0.3-1,0.5-1.3,0.7h8.8
				c2.7,0,3.9,1.8,3.9,3.5c0,1.8-1.2,3.6-3.9,3.6h-9.2v6.8c0,1.9-0.5,3.5-1.6,4.5c-1.1,1.1-2.5,1.6-4.3,1.6H546.9z"/>
			<path fill="#FFFFFF" d="M578.1,192.2c-1.3,0-2.1-0.5-2.5-1c-0.4-0.4-0.9-1.2-0.9-2.5c0-0.4,0.1-0.8,0.2-1.2c-0.1,0-0.3,0-0.4,0
				c-2.1,0-3.5-1.4-3.5-3.6c0-1.2,0.6-2.7,3.3-3.7c1-0.3,2.2-0.9,3.7-1.8c0.1-0.1,0.3-0.2,0.4-0.3H575c-2.6,0-3.7-1.7-3.7-3.4
				s1.2-3.4,3.7-3.4h0.3c-0.2-0.5-0.4-1-0.4-1.6c0-0.7,0.2-1.2,0.4-1.7c-1.9-0.4-2.8-1.8-2.8-3.3c0-1.7,1.2-3.4,3.7-3.4h7.9
				c0.1-1,0.6-1.7,1-2c0.4-0.4,1.3-0.9,2.6-0.9c1.3,0,2.1,0.5,2.6,0.9c0.4,0.4,0.9,1,1,2h8.2c2.6,0,3.7,1.7,3.7,3.4
				c0,1.5-0.9,2.9-2.8,3.3c0.2,0.4,0.4,1,0.4,1.7c0,0.7-0.1,1.2-0.4,1.6h0.3c2.5,0,3.7,1.7,3.7,3.4c0,1.4-0.7,2.7-2.3,3.2
				c0,0.1,0,0.3,0,0.4c0,1.4-1,2.7-3.7,4.6c0.9,0.5,2,1,3.1,1.4c2.9,0.9,3.3,2.7,3.3,3.7c0,2.3-1.5,3.8-3.7,3.8c-0.8,0-2-0.2-5-1.9
				c-1.3-0.7-2.4-1.5-3.5-2.4c-0.3,0.6-0.8,1.1-1.5,1.4c-0.5,0.3-1.4,0.6-6.4,1.9C579.9,192.1,578.7,192.2,578.1,192.2z M586,183.3
				l2.2-0.5c-0.4-0.6-0.8-1.3-1.2-2c-0.3,0.3-0.6,0.5-1,0.8V183.3z M593.3,178.4C593.3,178.3,593.3,178.3,593.3,178.4L593.3,178.4
				C593.3,178.3,593.3,178.3,593.3,178.4z"/>
			<path fill="#FFFFFF" d="M624.1,192.4c-2.1,0-3.6-1.4-3.6-3.6v-1.3h-9.8c-2.1,0-3.6-1.4-3.6-3.4c0-1.9,1.3-3.2,3.2-3.4
				c-0.3-0.6-0.5-1.4-0.4-2.5V173c0-1.1,0.2-2.1,0.7-2.9c-1.1-0.8-1.8-2.2-1.8-3.9v-2c0-2.9,1.8-4.8,4.8-4.8h6.7
				c1.6,0,2.8,0.5,3.7,1.5c0.8-1,2.1-1.5,3.6-1.5h7.1c2.9,0,4.8,1.9,4.8,4.8v2c0,1.7-0.6,3.1-1.8,3.9c0.4,0.7,0.7,1.6,0.6,3v5.1
				c0,0.9-0.2,1.7-0.4,2.4c1.9,0.1,3.3,1.5,3.3,3.4c0,2-1.5,3.4-3.6,3.4h-9.9v1.3C627.7,190.9,626.2,192.4,624.1,192.4z"/>
		</g>
		<g>
			<path fill="#EEAF18" d="M502.5,173.6c-0.8,0-1.2-0.5-1.2-1.4v-3.9c0-1,0.2-1.7,0.7-2.2c0.5-0.5,1.2-0.7,2.1-0.6h10.1V164h-9.8
				c-0.9,0-1.3-0.4-1.3-1.2c0-0.8,0.4-1.1,1.3-1.1h22.1c0.9,0,1.3,0.4,1.3,1.1c0,0.8-0.4,1.2-1.3,1.2h-10v1.5h10.3
				c1,0,1.7,0.2,2.2,0.7c0.5,0.4,0.7,1.1,0.6,2.1v3.8c0,0.9-0.4,1.3-1.3,1.3c-0.8,0-1.2-0.4-1.2-1.3v-3.2c0-0.4-0.1-0.7-0.3-0.9
				c-0.2-0.2-0.5-0.3-1-0.3h-9.3v5.9c0,0.8-0.4,1.2-1.2,1.2c-0.4,0-0.7-0.1-0.9-0.3c-0.2-0.2-0.3-0.5-0.3-0.9v-5.9H505
				c-0.4,0-0.7,0.1-0.9,0.3c-0.2,0.2-0.3,0.5-0.3,1v3.3C503.8,173.1,503.4,173.6,502.5,173.6z M530.2,185.5c0,1.5-0.4,2.6-1.1,3.2
				c-0.7,0.6-3.1,0.9-7.2,0.9l-4.6-0.1c-1.5,0-2.4-0.3-2.8-0.7c-0.3-0.4-0.5-0.9-0.5-1.5v-1.8h-8c-0.9,0-1.6-0.2-2.1-0.6
				c-0.4-0.4-0.6-1.1-0.5-2V178c0-0.9,0.2-1.6,0.6-2c0.4-0.4,1.1-0.6,2-0.6h18.8c0.9,0,1.6,0.2,2.1,0.6c0.4,0.4,0.6,1.1,0.5,2v4.8
				c0,0.9-0.2,1.6-0.6,2c-0.4,0.4-1.1,0.6-2,0.6h-8.4v0.7c0,0.6,0.2,0.9,0.5,1c0.2,0.1,1,0.1,2.2,0.2c1.2,0,2.8,0.1,4.8,0.1
				c1.6,0,2.6-0.1,3.1-0.3c0.4-0.2,0.6-0.7,0.7-1.5c0.1-0.8,0.5-1.3,1.4-1.3C529.8,184.3,530.2,184.7,530.2,185.5z M513,169.9
				c0,0.3-0.1,0.5-0.3,0.7c-0.2,0.2-0.5,0.2-0.8,0.2h-6c-0.7,0-1.1-0.3-1.1-0.9c0-0.6,0.4-1,1.1-1h6
				C512.7,168.9,513,169.2,513,169.9z M511.9,172c0.7,0,1.1,0.3,1.1,1c0,0.3-0.1,0.5-0.3,0.7c-0.2,0.2-0.5,0.2-0.8,0.2h-6
				c-0.7,0-1.1-0.3-1.1-0.9c0-0.6,0.4-1,1.1-1H511.9z M514,177.4h-7.2c-0.6,0-0.9,0.3-0.9,1v0.9h8.1V177.4z M514,181.3h-8.1v1.1
				c0,0.6,0.3,0.9,0.9,0.9h7.2V181.3z M516.4,179.3h8.5v-0.9c0-0.6-0.3-1-0.9-1h-7.6V179.3z M516.4,183.4h7.6c0.6,0,0.9-0.3,0.9-0.9
				v-1.1h-8.5V183.4z M526,169.9c0,0.6-0.4,0.9-1.1,0.9h-6.2c-0.3,0-0.6-0.1-0.8-0.2c-0.2-0.2-0.3-0.4-0.3-0.7c0-0.6,0.4-1,1.1-1
				h6.2C525.6,168.9,526,169.2,526,169.9z M524.9,172c0.7,0,1.1,0.3,1.1,1c0,0.6-0.4,0.9-1.1,0.9h-6.2c-0.3,0-0.6-0.1-0.8-0.2
				c-0.2-0.2-0.3-0.4-0.3-0.7c0-0.6,0.4-1,1.1-1H524.9z"/>
			<path fill="#EEAF18" d="M545.7,189.4c-0.3-0.2-0.4-0.6-0.4-1.1c0-0.9,0.5-1.4,1.6-1.4h1.9c1.1,0,1.6-0.5,1.5-1.5v-8.5h-11.8
				c-1.1,0-1.6-0.4-1.6-1.3c0-0.4,0.1-0.7,0.4-1c0.3-0.2,0.7-0.3,1.2-0.3h11.8V172c0-1.1,0.2-1.9,0.6-2.5c0.3-0.3,1.5-1.1,3.8-2.3
				c1.4-0.7,2.3-1.2,2.8-1.5c0.5-0.3,0.7-0.6,0.7-0.7c0-0.1,0-0.2-0.1-0.2c-0.1-0.1-0.2-0.1-0.3-0.1h-16.4c-0.5,0-0.9-0.1-1.2-0.3
				c-0.2-0.2-0.4-0.5-0.4-1c0-0.4,0.1-0.7,0.4-1c0.2-0.2,0.6-0.3,1.2-0.3h19.6c0.8,0,1.3,0.1,1.7,0.4c0.4,0.3,0.5,0.7,0.5,1.2
				c0,0.4-0.5,1-1.6,1.9c-1.1,0.8-2.6,1.8-4.5,2.9l-1.4,0.8c-1.5,0.8-2.4,1.4-2.5,1.5c-0.2,0.3-0.4,0.8-0.4,1.5v1.9h11.5
				c1.1,0,1.6,0.4,1.6,1.3c0,0.9-0.5,1.3-1.6,1.3H553v9c0,1.3-0.3,2.3-0.9,2.9c-0.6,0.6-1.5,0.9-2.7,0.9h-2.4
				C546.4,189.7,545.9,189.6,545.7,189.4z"/>
			<path fill="#EEAF18" d="M602.6,188.2c0,1-0.5,1.5-1.4,1.5c-0.7,0-2-0.5-3.9-1.6c-4.5-2.5-7.6-6.2-9.5-11.2h-0.1
				c-1.1,1.2-2.3,2.4-3.9,3.5v5.7l5.5-1.3l0.3,0c0.4,0,0.6,0.1,0.8,0.3c0.2,0.2,0.3,0.5,0.3,1c0,0.4-0.2,0.8-0.7,1
				c-0.5,0.3-2.5,0.8-5.9,1.7c-3.4,0.8-5.4,1.2-6,1.2c-0.4,0-0.7-0.1-0.9-0.3c-0.2-0.2-0.3-0.5-0.3-0.9c0-0.4,0.1-0.7,0.4-0.9
				c0.3-0.2,0.7-0.4,1.2-0.5l2.7-0.6v-4.6c-3.5,2.2-5.7,3.3-6.7,3.3c-0.8,0-1.3-0.4-1.3-1.3c0-0.6,0.6-1.1,1.8-1.5
				c1.1-0.4,2.5-1.1,4.1-2c2.9-1.7,5-3.2,6.3-4.5H575c-1,0-1.4-0.4-1.4-1.2c0-0.8,0.5-1.2,1.4-1.2h11.4V171h-7.9
				c-0.9,0-1.3-0.4-1.3-1.1c0-0.4,0.1-0.7,0.3-0.9c0.2-0.2,0.5-0.3,1-0.3h7.9V166h-10.2c-1,0-1.5-0.4-1.5-1.1c0-0.8,0.5-1.2,1.5-1.2
				h10.2V162c0-0.5,0.1-0.8,0.3-1c0.2-0.2,0.5-0.3,1-0.3c0.5,0,0.8,0.1,1,0.3c0.2,0.2,0.3,0.5,0.3,1v1.7h10.4c1,0,1.5,0.4,1.5,1.2
				c0,0.8-0.5,1.1-1.5,1.1h-10.4v2.7h8.3c0.5,0,0.8,0.1,1,0.3c0.2,0.2,0.3,0.5,0.3,0.9s-0.1,0.7-0.3,0.9c-0.2,0.2-0.5,0.3-1,0.3
				h-8.3v2.8h11.7c0.9,0,1.4,0.4,1.4,1.2c0,0.8-0.5,1.2-1.4,1.2h-11.1c0.8,2.1,1.8,3.9,3.2,5.5l0.1,0c1.3-1,2.6-2.1,3.9-3.4
				c0.7-0.6,1.2-0.9,1.6-0.9c0.5,0,0.8,0.1,1,0.3c0.2,0.2,0.3,0.5,0.3,1c0,0.8-1.8,2.2-5.3,4.3l-0.2,0.2c1.6,1.5,3.8,2.7,6.4,3.6
				C602,187,602.6,187.5,602.6,188.2z"/>
			<path fill="#EEAF18" d="M622.8,188.8v-3.6h-12.1c-0.9,0-1.3-0.4-1.3-1.1c0-0.8,0.4-1.2,1.3-1.2h12.1v-2h-7.8
				c-1,0-1.8-0.2-2.2-0.6c-0.5-0.4-0.6-1.1-0.6-2.1V173c0-1,0.2-1.7,0.7-2.2c0.4-0.5,1.2-0.6,2.1-0.6h18.2c1,0,1.8,0.2,2.2,0.7
				s0.6,1.1,0.6,2.1v5.2c0,1-0.2,1.7-0.7,2.1s-1.2,0.6-2.1,0.6h-7.9v2h12.2c0.9,0,1.3,0.4,1.3,1.2c0,0.8-0.4,1.1-1.3,1.1h-12.2v3.6
				c0,0.9-0.4,1.3-1.3,1.3C623.3,190.1,622.8,189.7,622.8,188.8z M611.1,166.2v-2c0-1.7,0.8-2.5,2.5-2.5h6.7c1.7,0,2.5,0.8,2.5,2.5
				v2c0,1.7-0.8,2.5-2.4,2.5h-6.8C612,168.8,611.1,167.9,611.1,166.2z M620.3,165.7v-0.9c0-0.6-0.3-0.9-0.9-0.9h-4.9
				c-0.5,0-0.8,0.3-0.9,0.9v0.9c0,0.5,0.3,0.8,0.9,0.9h4.9C620,166.6,620.3,166.3,620.3,165.7z M622.9,172.3h-7.1
				c-0.6,0-1,0.3-1,0.9v1.4h8.1V172.3z M622.9,176.5h-8.1v1.5c0,0.6,0.3,0.9,1,1h7.1V176.5z M625.2,166.3v-2.1
				c0-1.7,0.8-2.5,2.5-2.5h7.1c1.7,0,2.5,0.8,2.5,2.5v2c0,1.7-0.8,2.5-2.4,2.5h-7.1C626,168.8,625.2,167.9,625.2,166.3z
				 M633.5,173.2c0-0.6-0.3-0.9-1-0.9h-7.2v2.3h8.2V173.2z M633.3,178.7c0.2-0.2,0.3-0.4,0.3-0.7v-1.5h-8.2v2.4h7.2
				C632.9,178.9,633.1,178.8,633.3,178.7z M634.5,166.4c0.1-0.2,0.2-0.4,0.3-0.6v-0.9c0-0.6-0.3-0.9-0.9-0.9h-5.2
				c-0.3,0-0.5,0.1-0.6,0.2c-0.2,0.2-0.2,0.4-0.2,0.7v0.9c0,0.5,0.3,0.8,0.9,0.9h5.2C634.1,166.6,634.3,166.5,634.5,166.4z"/>
		</g>
		<g>
			<g>
				<path fill="#FFFFFF" d="M217.3,189.1c-1.7,0-1.9-1-1.9-1.6c0-0.5,0.2-0.9,0.5-1.2c0.3-0.3,0.8-0.4,1.4-0.4h5.3l1.7-8.9h-3.7
					c-1.7,0-1.9-1-1.9-1.6c0-0.6,0.3-1.7,1.9-1.7h4.3l1.1-6.3h-6.7c-1.6,0-1.9-1-1.9-1.6c0-0.6,0.2-1.6,1.9-1.6h20.4
					c1.7,0,1.9,1,1.9,1.6c0,0.6-0.3,1.6-1.9,1.6h-10.3l-1.1,6.3h6.7c0.1,0,0.3,0,0.5,0c1,0,1.7,0.3,2.2,0.7c0.6,0.6,0.8,1.5,0.7,2.7
					l0,8.8h3.4c1.7,0,1.9,1,1.9,1.6c0,0.6-0.2,1.6-1.9,1.6H217.3z M235.1,185.9V178c0-0.4-0.1-0.6-0.2-0.8c-0.1-0.1-0.4-0.2-0.8-0.2
					h-6.4l-1.6,8.9H235.1z"/>
			</g>
			<g>
				<path fill="#FFFFFF" d="M266.9,190.4c-0.6,0-1.1-0.1-1.4-0.4c-0.3-0.3-0.5-0.7-0.5-1.3c0-0.6,0.2-1.7,1.9-1.7h2.6
					c0.8,0,1.1-0.3,1.1-1.1v-5.1h-13.4c-0.2,1.5-0.5,2.7-0.9,3.7c-0.4,1.1-0.9,2.1-1.6,3.1c-1.3,2-2.3,2.9-3.1,2.9
					c-0.6,0-1-0.1-1.3-0.4c-0.3-0.3-0.5-0.7-0.5-1.2c0-0.4,0.1-0.7,0.3-1.1c0.2-0.3,0.4-0.6,0.7-1l0.6-0.7c1.2-1.4,1.9-3.1,2.3-4.9
					c0-0.1,0.1-0.4,0.2-0.9c0.2-0.9,0.3-1.8,0.4-2.9c0.1-1,0.1-3.3,0.1-7c0-0.6,0-1,0-1.3c0-0.7,0-1.4,0-2c-0.1-1.3,0.2-2.3,0.8-2.9
					c0.5-0.6,1.4-0.9,2.4-0.9c0.1,0,0.2,0,0.3,0l12.3,0c1.1,0,2,0.3,2.6,0.9c0.7,0.7,1,1.6,1,2.7v19.7c0,1.2-0.3,2.2-1,2.9
					c-0.6,0.7-1.6,1-2.9,1L266.9,190.4z M270.7,177.5v-4h-12.8c0,1.4-0.1,2.7-0.2,4H270.7z M270.7,170.2v-2.3c0-0.5-0.1-0.8-0.3-1
					c-0.2-0.2-0.5-0.3-1-0.3H259c-0.4,0-0.7,0.1-0.9,0.3c-0.2,0.2-0.3,0.5-0.3,0.9v2.6H270.7z"/>
			</g>
			<g>
				<path fill="#FFFFFF" d="M309.1,190.2c-1.7,0-3.4-1.2-4.9-3.5c-1.4-2.2-2.4-4.7-2.9-7.5h-6.7v4.4l5.6-1.3c0,0,0,0,0,0
					c1,0,1.5,0.5,1.5,1.4c0,0.4-0.2,1-1.1,1.3c-0.6,0.2-2.4,0.7-5.7,1.6l-1.6,0.4c0,0,9.7,0,9.7,0c1,0,1.6,0.5,1.6,1.5
					c0,0.9-0.6,1.5-1.6,1.5h-9.6c-1.4,0-1.6-0.9-1.6-1.5c0-0.4,0.1-0.9,0.6-1.2l-1.5,0.3l-0.9,0.1c-0.1,0-0.1,0-0.2,0
					c-0.4,0-0.7-0.1-0.9-0.4c-0.2-0.3-0.4-0.7-0.4-1.2c0-0.5,0.3-1.3,1.5-1.6l1.5-0.3v-11.3c0-1.1,0.2-1.8,0.7-2.2
					c0.5-0.4,1.6-0.7,3.3-0.8c4.7-0.3,8.6-0.8,11.8-1.5l1-0.1c0.1,0,0.2,0,0.3,0c0.4,0,0.8,0.1,1,0.4c0.3,0.3,0.5,0.8,0.5,1.3
					c0,0.5-0.2,1.1-1.3,1.4c-0.8,0.2-1.9,0.4-3.5,0.5l-1.6,0.2c0,1.4,0.1,2.7,0.3,4h5.9c1.5,0,1.7,0.9,1.7,1.5s-0.2,1.5-1.7,1.5
					h-5.4c0.3,1.5,0.8,2.8,1.3,4c0.5,1.1,1.2,2.1,2.2,3.1c0.5,0.5,0.6,0.5,0.6,0.5c0,0,0.3-0.2,0.5-1.6c0.3-1.4,1-1.6,1.5-1.6
					c1.4,0,1.6,0.9,1.6,1.5c0,1.4-0.3,2.6-0.9,3.6c-0.3,0.5-0.7,1-1,1.2C310.1,190,309.6,190.2,309.1,190.2z M300.9,176.1
					c-0.2-1.6-0.3-2.9-0.3-3.7l-4.8,0.4c-0.5,0-0.8,0.2-0.9,0.2c-0.1,0.1-0.2,0.2-0.2,0.5l0,2.6H300.9z M285.5,189.8
					c-0.5,0-0.9-0.1-1.2-0.4c-0.3-0.3-0.4-0.7-0.4-1.2c0-0.4,0.1-0.8,0.4-1.3c1.2-2.1,1.9-5.7,2-10.6l0-8.2c0-1.4,0.6-3,3.3-3h7.7
					v-1.4c0-0.5,0.2-1.4,1.7-1.4c1.5,0,1.7,0.9,1.7,1.4v1.4h9.6c1.5,0,1.7,0.9,1.7,1.5c0,0.6-0.2,1.5-1.7,1.5h-19.8
					c-0.5,0-1,0.1-1,1.2l0.1,4.7v1.2c0,4.2-0.4,7.7-1.2,10.4C287.6,188.4,286.6,189.8,285.5,189.8z"/>
			</g>
			<g>
				<path fill="#FFFFFF" d="M321.5,190.6c-1.1,0-1.6-0.6-1.6-1.8v-15.1c0-1,0.2-1.7,0.7-2.2c0.4-0.4,1.1-0.7,2-0.7
					c0.1,0,0.2,0,0.3,0l6.5,0c1,0,1.8,0.2,2.2,0.7c0.5,0.5,0.7,1.2,0.6,2.2l0,13.2c0.1,1.1-0.2,2-0.7,2.6c-0.5,0.6-1.3,0.8-2.4,0.8
					l-0.2,0l-1.4,0c-1.6,0-1.8-1-1.8-1.6c0-1,0.6-1.6,1.6-1.6h1.1c0.4,0,0.6-0.1,0.7-0.7l0-2.9h-5.8v5.2
					C323.1,190.4,322.1,190.6,321.5,190.6z M328.9,180.7v-1.9h-5.8v1.9H328.9z M328.9,175.9v-1.4c0-0.4-0.2-0.6-0.6-0.6l-4.7,0
					c-0.3,0-0.5,0.1-0.5,0.6l0,1.3H328.9z M341.2,190.4c-0.1,0-0.2,0-0.4,0l-2,0c-1.2,0-1.8-0.6-1.8-1.7c0-1.1,0.6-1.7,1.8-1.7h1.4
					c0.6,0,0.8-0.3,0.9-0.9v-13.7c0-1.1,0.6-1.8,1.6-1.8c1,0,1.6,0.6,1.6,1.8v14.5c0,1.2-0.3,2.1-0.9,2.7
					C343,190.1,342.2,190.4,341.2,190.4z M336.1,185.4c-1,0-1.6-0.6-1.6-1.6v-10.6c0-1.1,0.6-1.6,1.6-1.6s1.6,0.6,1.6,1.6v10.6
					C337.7,184.8,337.1,185.4,336.1,185.4z M319.9,169.5c-1.6,0-1.8-1-1.8-1.6c0-0.6,0.2-1.6,1.8-1.6h5.3l-0.5-1.1l-0.3-0.7
					c-0.4-0.9-0.4-1-0.4-1.1c0-0.5,0.2-1.3,1.7-1.3c0.9,0,1.7,0.7,2.3,2.2l0.9,2h6.3l1.1-3c0.3-0.9,0.9-1.3,1.8-1.3
					c1.6,0,1.8,1,1.8,1.5c0,0.5-0.3,1.2-0.9,2.3l-0.3,0.5h6c1.6,0,1.9,1,1.9,1.6c0,0.6-0.2,1.6-1.9,1.6H319.9z"/>
			</g>
			<g>
				<path fill="#FFFFFF" d="M378.6,190.6c-0.2,0-0.6-0.1-2-0.8c-1.3-0.7-2.9-1.5-4.7-2.3c-0.7,0.8-1.6,1.5-2.7,2.1
					c-1.2,0.6-2,0.9-2.6,0.9c-0.9,0-1.4-0.5-1.5-1.3c-0.2,0.1-0.6,0.2-0.9,0.2c-0.1,0-0.4,0-2.5-1.1l-1.9-0.9
					c-0.7,0.8-1.6,1.4-2.7,2c-1.3,0.7-2.3,1.1-2.9,1.1c-0.9,0-1.5-0.6-1.5-1.5c0-0.6,0.5-1.1,1.5-1.4c2.3-0.7,3.7-1.7,4.2-3.1h-0.7
					c-0.9,0-1.6-0.2-2-0.6c-0.5-0.4-0.7-1.1-0.7-2v-1.9c0-1.8,0.9-2.7,2.6-2.7l0.2,0l5.2,0c0.9,0,1.6,0.2,2,0.7
					c0.5,0.4,0.7,1.1,0.7,2v1.9c0,1.7-0.9,2.6-2.5,2.6c-0.1,0-0.2,0-0.2,0l-1.4,0l-0.2,0.6l3.5,1.4c0.9,0.4,1,0.9,1,1.3c0,0,0,0,0,0
					c0.2-0.1,0.5-0.3,0.8-0.4c1.9-0.7,3.1-1.7,3.7-3h-0.4c-0.9,0-1.6-0.2-2-0.6c-0.5-0.4-0.7-1.1-0.7-2v-1.9c0-1.8,0.9-2.7,2.5-2.7
					l0.2,0l5.4,0c0.9,0,1.6,0.2,2,0.7c0.5,0.4,0.7,1.1,0.7,2v1.9c0,2.2-1.3,2.7-2.4,2.7c-0.1,0-0.2,0-0.3,0l-1.8,0l-0.2,0.6l0.8,0.3
					c5.4,1.9,6.1,2.9,6.1,3.6c0,0.5-0.1,0.9-0.4,1.1C379.5,190.5,379.1,190.6,378.6,190.6z M370.6,180c-0.3,0-0.4,0.1-0.4,0.1
					c-0.1,0.1-0.1,0.2-0.1,0.4v1c0,0.3,0.1,0.5,0.5,0.5l3.9,0c0.4,0,0.5-0.1,0.5-0.5l0-1c0-0.3-0.1-0.5-0.6-0.5L370.6,180z
					 M358.5,180c-0.3,0-0.5,0.1-0.5,0.5l0,1c0,0.3,0.1,0.5,0.5,0.5l3.7,0c0.4,0,0.5-0.1,0.5-0.5v-1c0-0.3-0.1-0.5-0.5-0.5L358.5,180
					z M353.8,177.6c-1,0-1.5-0.6-1.5-1.7c0-0.7,0.5-1.2,1.5-1.5c3.2-0.9,6-2.2,8.3-3.8c-0.2,0.1-0.4,0.1-0.7,0.1
					c-0.6,0-1-0.2-1.3-0.6c-0.1-0.2-0.3-0.5-0.7-2l-0.3-0.9h-1.5c-2.3,2.6-3.2,2.9-3.7,2.9c-0.9,0-1.5-0.6-1.5-1.5
					c0-0.4,0.3-0.8,1-1.4c1.2-1.1,2.5-2.6,3.6-4.3c0.4-0.6,0.9-0.9,1.5-0.9c1.4,0,1.6,0.8,1.6,1.2c0,0.3-0.2,0.7-0.5,1.2h5.4
					c1,0,1.5,0.5,1.5,1.4c0,0.9-0.6,1.4-1.5,1.4h-2.9c0.5,1.4,0.6,1.8,0.6,2c0,0.4-0.1,0.7-0.3,1c0.9-0.6,1.7-1.3,2.4-2
					c0.6-0.5,1-0.8,1.5-0.8c0-0.1,0-0.2,0-0.3c0-0.2,0.1-0.5,1-1.9c0.3-0.5,0.6-1.1,0.9-1.7c0.4-1,1-1.5,1.7-1.5
					c1.5,0,1.7,0.8,1.7,1.3c0,0.2-0.1,0.4-0.4,1.1h7.7c1,0,1.5,0.5,1.5,1.4c0,0.9-0.6,1.4-1.5,1.4h-3.8c0.6,1.4,0.7,1.9,0.7,2.2
					c0,0.9-0.6,1.4-1.5,1.4c-0.8,0-1.3-0.4-1.6-1.1l-0.7-2.4h-2.4c-0.6,0.8-1.1,1.2-1.5,1.3c0,0.1,0,0.2,0,0.3c0,0.1,0,0.2-0.1,0.3
					c3,2,6.6,3.6,10.8,4.7c1.1,0.3,1.7,0.8,1.7,1.6c0,1-0.6,1.6-1.6,1.6c-1.3,0-3.2-0.6-5.9-1.9c0,0-0.1,0-0.1-0.1c0,0,0,0.1,0,0.1
					c0,0.5-0.1,0.8-0.4,1c-0.3,0.2-0.7,0.3-1.2,0.3h-10.4c-1.3,0-1.6-0.8-1.6-1.3C355.5,177.3,354.4,177.6,353.8,177.6z M370.7,174
					c-1.6-0.9-3.1-1.8-4.5-2.8l-0.4,0.3c-1.1,0.8-2.3,1.7-3.7,2.5H370.7z"/>
			</g>
			<g>
				<path fill="#FFFFFF" d="M393.2,190.6c-0.6,0-1.5-0.2-1.5-1.8v-11.1l-2.8,0.3l-0.8,0.1l-0.1,0c-0.5,0-0.8-0.1-1-0.4
					c-0.3-0.3-0.4-0.7-0.4-1.2c0-0.9,0.5-1.4,1.5-1.5l1.9-0.1l1.6-2.2c-1.2-0.9-2.5-1.9-3.7-2.7c-0.6-0.4-1-0.9-1-1.5
					c0-0.9,0.5-1.5,1.5-1.5c0.3,0,0.8,0.2,1.3,0.5l0.1,0.1c0.7-1.2,1.5-2.7,2.3-4.4c0.4-1,1.1-1.2,1.6-1.2c1,0,1.6,0.6,1.6,1.6
					c0,0.6-0.3,1.7-3.3,5.6l1.4,1l2-3.1c0.3-0.5,0.6-0.8,0.8-1.1c0.3-0.3,0.6-0.4,1-0.4c1,0,1.5,0.6,1.5,1.5c0,0.3-0.2,0.9-2,3.4
					c-1.4,2-2.4,3.4-3.1,4.2l2.7-0.2l-0.1-0.3c-0.2-0.6-0.3-0.8-0.3-1c0-0.8,0.5-1.3,1.3-1.3c0.6,0,1,0.4,1.4,1.2c0,0,0-0.1,0-0.1
					c0-0.3,0.2-0.7,0.5-1.3c1.4-2.1,2.4-4.6,3.1-7.4c0.1-0.6,0.6-2.3,1.8-2.3c0.5,0,1,0.1,1.2,0.4c0.3,0.3,0.4,0.7,0.4,1.2
					c0,0.4-0.1,1.1-1.1,3.8h6.2c2.8,0,3.4,1.6,3.4,2.9l0,1.6c-0.1,3.8-0.2,7.1-0.4,9.8c-0.2,2.6-0.5,4.4-0.8,5.4
					c-0.4,1.1-1,1.9-1.9,2.3c-0.9,0.4-2.5,0.6-4.8,0.6c-1.7,0-2-1.1-2-1.7c0-0.6,0.2-1.7,1.9-1.7l1.7,0c1.5,0,2.2-0.6,2.5-1.9
					l0.3-2.9l0.5-10.5c0-0.3,0-0.5-0.2-0.6c-0.1-0.1-0.4-0.2-0.7-0.2h-6.9c-1.7,3.6-2.6,4.1-3.2,4.1c-0.4,0-0.8-0.1-1-0.3l0.6,1.4
					c0.5,1.3,0.5,1.4,0.5,1.5c0,0.9-0.5,1.4-1.5,1.4c-0.5,0-1.2-0.2-1.5-1.4l-0.1-0.3l-2.1,0.3v11.4
					C394.8,190.4,393.8,190.6,393.2,190.6z M388,187.8c-0.5,0-0.9-0.1-1.1-0.4c-0.2-0.3-0.4-0.7-0.4-1.2c0-0.3,0.1-0.7,0.3-1.1
					c0.6-1.2,1-2.9,1.1-4.9c0.1-1.5,1-1.7,1.5-1.7c0.9,0,1.4,0.5,1.4,1.5c0,2.2-0.4,4.4-1.3,6.6C389.1,187.4,388.6,187.8,388,187.8z
					 M398.4,187.1c-0.5,0-0.9-0.2-1.2-0.5c-0.3-0.3-0.4-0.8-0.5-1.4c-0.1-1.1-0.3-2.1-0.4-2.8c-0.1-0.8-0.3-1.3-0.4-1.8l-0.1-0.6
					c0-0.9,0.5-1.4,1.4-1.4c0.5,0,1.1,0.2,1.5,1.3c0.9,2.8,1.3,4.7,1.3,5.6C399.9,186.5,399.3,187.1,398.4,187.1z M405.5,182.6
					c-0.7,0-1.4-0.5-1.8-1.6c-0.5-1.3-1.1-2.5-1.7-3.5c0-0.1-0.1-0.2-0.2-0.3c-0.2-0.3-0.3-0.6-0.3-0.7c0-1,0.6-1.5,1.5-1.5
					c0.6,0,1.3,0.5,1.9,1.4c1.4,2.3,2.1,3.8,2.1,4.7C407.2,182.1,406.6,182.6,405.5,182.6z"/>
			</g>
			<g>
				<path fill="#FFFFFF" d="M438.2,190.6c-0.6,0-1.6-0.2-1.6-1.7v-22.2c0-1,0.2-1.8,0.7-2.2c0.4-0.4,1-0.7,1.9-0.7
					c0.1,0,0.2,0,0.4,0l5.2,0c1,0,1.9,0.3,2.4,0.8c0.6,0.5,0.8,1.3,0.8,2.4v16.8c0,1.1-0.3,2-0.8,2.6c-0.5,0.6-1.4,0.9-2.4,0.9h-1.8
					c-1.7,0-2-1.1-2-1.7c0-1.1,0.6-1.7,1.7-1.7h1.3c0.5,0,0.7-0.2,0.8-0.7v-15.5c0-0.5-0.2-0.6-0.6-0.6h-3.5c-0.4,0-0.6,0.2-0.6,0.6
					l0,21.2C439.8,190,439.3,190.6,438.2,190.6z M422.3,188.2c-0.6,0-1.5-0.2-1.5-1.7c0-0.5,0.2-1,0.5-1.2c0.1-0.1,0.3-0.2,1.5-0.5
					v-18.3c0-1,0.2-1.8,0.7-2.2c0.4-0.4,1-0.7,1.8-0.7c0.1,0,0.2,0,0.4,0l6.3,0c1,0,1.7,0.2,2.2,0.7c0.5,0.5,0.7,1.2,0.7,2.2v8.8
					c0,1-0.2,1.8-0.7,2.2c-0.4,0.4-1,0.6-1.8,0.6c-0.1,0-0.2,0-0.4,0l-6.1,0v6c1.7-0.4,3.6-0.9,5.5-1.4l-0.7-1.3
					c-0.1-0.1-0.2-0.3-0.3-0.5c-0.2-0.3-0.3-0.5-0.3-0.7c0-0.9,0.5-1.4,1.5-1.4c0.6,0,1.2,0.4,1.7,1.4c2.7,4.2,3,5.2,3,5.7
					c0,1-0.6,1.6-1.6,1.6c-0.8,0-1.4-0.6-1.9-1.8l-0.2-0.4c-2,0.8-4.2,1.5-6.4,2C422.5,188.2,422.4,188.2,422.3,188.2z M431.2,175.2
					c0.4,0,0.6-0.1,0.6-0.6v-2.4h-5.9v2.9H431.2z M431.8,169.4v-2.3c0-0.3-0.1-0.5-0.6-0.6l-4.7,0c-0.3,0-0.5,0.1-0.5,0.6l0,2.3
					H431.8z"/>
			</g>
			<g>
				<path fill="#FFFFFF" d="M456.5,190.2c-1,0-1.6-0.6-1.6-1.6c0-0.2,0.1-0.5,0.5-1.4c0.4-0.7,0.9-1.7,1.3-2.7
					c0.2-0.5,0.4-0.8,0.6-1c0.1-0.1,0.2-0.2,0.4-0.3c-1-0.3-1.6-1.2-1.6-2.6v-14.6c0-1.8,0.9-2.7,2.7-2.7h3.1c1.8,0,2.7,0.9,2.7,2.7
					v3.5c0.1-0.1,0.3-0.3,0.4-0.4c1.2-1.1,2.2-2.3,3.1-3.8c0.5-0.8,1.1-1.2,1.7-1.2c1,0,1.5,0.5,1.5,1.4c0,0.5-0.3,1.4-2.5,3.8h9.5
					c-0.7-0.9-1.2-1.8-1.6-2.8c-0.1-0.2-0.2-0.4-0.3-0.5c-0.1-0.1-0.2-0.1-0.4-0.1h-2.5c-1,0-1.5-0.5-1.5-1.4c0-0.9,0.6-1.4,1.5-1.4
					h2.9c1,0,1.6,0.2,2,0.7c0.1,0.1,0.2,0.3,0.5,0.9c0.1,0.2,0.2,0.5,0.4,0.8c0.5,1.2,1.5,2.3,2.9,3.3c0.7,0.5,1,1.1,1,1.7
					c0,1.5-0.8,1.8-1.3,1.8c-0.2,0-0.5-0.1-0.7-0.2c0,1.2,0.1,2.7,0.1,4.5c0,1.7-0.9,2.6-2.6,2.6h-10.1c-2.2,0-2.7-1.4-2.7-2.5v-4.4
					c-0.2,0.1-0.5,0.2-0.7,0.2c-0.3,0-0.5,0-0.7-0.1v8.6c0,0.9-0.2,1.5-0.7,2c-0.3,0.3-0.6,0.5-1.1,0.6c0.2,0.1,0.3,0.2,0.5,0.4
					c0.3,0.3,0.6,0.9,1,1.5c0.9,1.8,1,2.3,1,2.6c0,0.9-0.6,1.5-1.5,1.5c-0.4,0-1-0.2-1.5-1.2l-1.2-2.9c-0.1-0.3-0.2-0.6-0.2-0.8
					c0-0.4,0.1-0.8,0.4-1h-2c0.3,0.2,0.5,0.6,0.5,1.1c0,0.5-0.2,1.5-1.9,4.6C457.5,189.8,457.1,190.2,456.5,190.2z M459,180
					c0,0.3,0.1,0.5,0.6,0.6l1.7,0c0.3,0,0.5-0.1,0.6-0.6l0-2.6H459V180z M478.2,176.5c0.3,0,0.4-0.1,0.5-0.5l0-3.8
					c0-0.3-0.1-0.5-0.5-0.5H475v4.7H478.2z M469.3,171.8c-0.3,0-0.4,0.1-0.4,0.4v3.8c0,0.3,0.1,0.4,0.4,0.4h3v-4.7H469.3z
					 M461.9,174.6v-2.8H459v2.8H461.9z M461.9,169v-2.2c0-0.3-0.1-0.5-0.6-0.6l-1.7,0c-0.3,0-0.5,0.1-0.6,0.6l0,2.2H461.9z
					 M469.6,190c-1.8,0-2.7-0.9-2.7-2.7v-5c0-1.7,0.9-2.6,2.7-2.6h8.4c1.8,0,2.7,0.9,2.7,2.6v5c0,1.7-0.9,2.7-2.7,2.7H469.6z
					 M469.8,187c0,0.3,0.1,0.4,0.4,0.4h7c0.4,0,0.5-0.1,0.5-0.4v-1h-7.9V187z M477.7,183.5v-0.8c0-0.3-0.1-0.4-0.5-0.4h-7
					c-0.4,0-0.4,0.1-0.4,0.4v0.8H477.7z M476.4,176.5c-0.4,0-0.6-0.1-0.9-0.3c-0.2-0.2-0.3-0.5-0.3-0.9c0-0.1,0-0.2,0.7-2.2
					c0.3-1,0.9-1.2,1.3-1.2c0.8,0,1.2,0.4,1.2,1.2l-0.1,0.6l-0.3,0.9c-0.2,0.6-0.4,1.1-0.6,1.4C477.1,176.3,476.8,176.5,476.4,176.5
					z M470.9,176.4c-0.6,0-1.1-0.4-1.3-1.3l-0.6-1.9c0,0,0-0.1,0-0.1c0-0.4,0.1-0.7,0.4-0.9c0.2-0.2,0.5-0.3,0.9-0.3
					c0.3,0,0.5,0.1,0.8,0.3c0.2,0.2,0.4,0.4,0.5,0.8c0.6,1.5,0.7,2,0.7,2.2c0,0.4-0.1,0.7-0.3,0.9
					C471.6,176.3,471.4,176.4,470.9,176.4z"/>
			</g>
		</g>
	</g>
	<g>
		<g>
			<path fill="#FFFFFF" d="M199.9,125.2c-2.1,0-3.3-1.3-3.3-3.5c0-1.4,0.8-2.5,2.4-3.5c1.7-1,2.9-2.3,3.7-4c0.8-1.7,1.2-4,1.2-6.7
				c0-1.5,0.3-2.6,0.8-3.4c0.4-0.6,1.2-1.3,2.6-1.3c2.2,0,3.4,1.3,3.4,3.7c0,8.3-2.4,14-7.2,17.1c-0.8,0.5-1.4,0.8-1.9,1.1
				C201.1,125.1,200.5,125.2,199.9,125.2z M191.7,125c-2.3,0-3.7-1.3-3.7-3.6c0-0.3,0.1-0.7,0.4-1.4c-0.5,0.9-1.1,1.6-1.7,2.1
				c-1.7,1.4-4.4,2-8.2,2c-4,0-4.5-2.4-4.5-3.9c0-2.3,1.3-3.6,3.5-3.6l3.7,0.1c0.7,0,1.5-0.2,2.1-2c0.7-1.8,1.2-4.6,1.6-8.5l0.2-1.4
				v0c-0.1,0-0.3-0.1-0.6-0.1h-6c-4.5,0-5.2-2.6-5.2-4.2c0-0.8,0.3-2.2,0.9-4.2l0.9-3.6h-2.6c-2.2,0-3.5-1.2-3.5-3.4
				c0-2.2,1.3-3.4,3.5-3.4h19.2c1,0,1.8,0.3,2.4,0.7v-2.9c0-1.3,0-2.3,0.1-3.1c0.1-0.8,0.3-1.6,0.7-2.1c1.1-1.8,2.8-2.6,5.3-2.6
				c0.2,0,0.4,0,0.6,0l6.8,0V65.9c0-2.2,1.3-3.5,3.6-3.5c2.3,0,3.7,1.3,3.7,3.5v0.9h11.1c2.3,0,3.7,1.2,3.7,3.3s-1.3,3.3-3.7,3.3
				h-11.1v2.6h10.2c2.3,0,4,0.5,5.2,1.6c1.1,1.1,1.6,2.8,1.5,5l0,4.7c0,2-1,3.3-2.8,3.6c1.3,0.4,2,1.5,2,3.1c0,2-0.2,3.6-0.6,4.8
				c-0.5,1.4-1.2,2.4-2.3,3c-0.9,0.5-3,1.1-10.2,1.1c-0.1,0-0.2,0-0.3,0c2,0.1,3.1,1.4,3.1,3.7v9.4c0,0.8,0.2,1,1,1
				c1.4,0,2.4,0,3.1-0.1c0.4,0,0.6-0.1,0.7-0.1c0.1-0.1,0.2-0.2,0.2-0.6c0.1-0.5,0.1-1.4,0.2-2.5l0.1-1.8c0.1-0.9,0.3-1.7,0.8-2.2
				c0.5-0.6,1.4-0.8,2.5-0.8c1.3,0,3.4,0.6,3.4,4.3c0,2-0.1,3.6-0.2,4.7c-0.1,1.2-0.5,2.3-1.1,3.2c-0.6,1.1-1.8,1.9-3.4,2.4
				c-1.5,0.5-3.4,0.7-5.8,0.7c-6.9,0-8.3-2.8-8.3-5.2v-12.4c0-2.2,1.1-3.6,3.1-3.7c-3.2,0-5.5-0.3-7.2-0.8c-1-0.3-1.7-0.9-2.2-1.9
				c-0.5-0.8-0.7-1.9-0.7-3.2v-4.1l-3,0.3c-0.2,0-0.4,0-0.6,0c-1,0-1.7-0.3-2.3-0.8c-0.1,5.2-0.3,9.3-0.6,12.3
				c-0.5,5.2-1.5,9.7-3,13.4C195.4,122.9,193.7,125,191.7,125z M180.7,98.1h5.1c5.5,0,6.4,3.3,6.4,5.3c0,1.6-0.4,4.5-1.4,9.1
				c-0.5,2.5-1.1,4.5-1.8,6.1c0,0,0.1-0.1,0.1-0.1c1.7-3.1,3-7,3.8-11.6c0.5-2.9,0.8-7.8,0.9-14.7c-0.6,0.5-1.4,0.7-2.4,0.7h-9.6
				l-1.2,4.5l-0.1,0.8C180.6,98.1,180.6,98.1,180.7,98.1z M213.3,95.6c0,0.3,0,0.8,1.5,1c1.6,0.1,3.4,0.2,5.4,0.2
				c2.6,0,3.4-0.4,3.6-0.5c0-0.1,0.1-0.3,0.2-0.6c0.1-0.5,0.2-0.9,0.2-1.3c0-1.1,0.3-2,0.9-2.6c0.5-0.5,1.1-0.8,1.8-0.9
				c-0.6-0.2-1-0.4-1.4-0.8c-0.4,0.8-1.3,1.6-3.1,1.8l-9,0.8V95.6z M201.9,82.8c-0.4,0-0.7,0.1-0.8,0.2c-0.1,0.1-0.2,0.3-0.2,0.7
				c0,1.5,0,2.9,0,4.2c0,0,0,0,0.1-0.1c0.6-0.6,1.5-0.9,2.6-0.9l3.2-0.3v-3.8H201.9z M213.3,86.1l8.6-0.8c0.2,0,0.4,0,0.6,0
				c0.8,0,1.5,0.2,2,0.5v-2c0-0.6-0.2-1-1.1-1l-10.1,0V86.1z M176.9,84.1c-4,0-6.2-2.2-6.2-6.2v-7.1c0-4,2.2-6.2,6.2-6.2h10.2
				c4,0,6.2,2.2,6.2,6.2V78c0,4-2.2,6.2-6.1,6.2H176.9z M178.2,71.4c-0.5,0-0.6,0.1-0.6,0.6v4.8c0,0.5,0.1,0.6,0.6,0.6h7.5
				c0.4,0,0.6,0,0.6-0.6V72c0-0.6-0.1-0.6-0.6-0.6H178.2z"/>
		</g>
		<g>
			<path fill="#FFFFFF" d="M294.8,123.4c-0.3,0-0.7,0-1,0l-33.9,0c-0.3,0-0.6,0-0.9,0c-2.5,0-4.4-0.7-5.7-2
				c-1.3-1.4-1.9-3.5-1.7-6.2l0-11.2c-0.2-2.7,0.4-4.8,1.7-6.2c1.2-1.3,3.1-2,5.6-2c0.3,0,0.7,0,1,0l33.9,0c0.3,0,0.6,0,0.9,0
				c2.5,0,4.4,0.7,5.6,2c1.3,1.4,1.9,3.5,1.7,6.3l0,11.2c0.2,2.7-0.4,4.8-1.7,6.2C299,122.8,297.2,123.4,294.8,123.4z M261.9,103
				c-1.9,0-2.6,0.8-2.6,2.6v8c0,1.9,0.7,2.7,2.5,2.7h30c0.9,0,1.6-0.2,2-0.7c0.4-0.4,0.7-1.1,0.7-2.1v-8c0-1.9-0.7-2.6-2.6-2.6
				H261.9z M248.5,97c-0.9,0-1.7-0.4-2.2-1c-0.6-0.7-0.9-1.8-0.9-3.1c0-1.5,0.8-3.3,4.7-3.9c9.6-1.5,14.7-6.7,15.5-15.8h-13.4
				c-3.9,0-4.3-2.6-4.3-3.7c0-1.1,0.4-3.7,4.3-3.7h44.3c5.6,0,6.8,3.3,6.8,6c0,2.8-0.4,6.6-1.2,11.2c-0.8,4.8-2.3,7.9-4.7,9.5
				c-2.2,1.5-6.4,2.2-12.6,2.2c-2.9,0-4.5-1.5-4.5-4.1c0-2.4,1.5-3.8,4.1-3.8l4,0.1l0.2,0c1.3,0,2.3-0.3,3.2-1
				c0.9-0.7,1.5-1.7,1.9-3.1l1.2-6.4l0.3-2.3c0-0.5-0.2-0.7-0.2-0.8c-0.2-0.2-0.7-0.3-1.3-0.3h-20.5c-0.7,6.5-2.8,11.7-6.3,15.5
				c-3.6,3.8-9,6.5-16.1,8.1l-1.7,0.3C249,97,248.7,97,248.5,97z"/>
		</g>
		<g>
			<path fill="#FFFFFF" d="M325.5,125.4c-2.5,0-3.9-1.4-3.9-3.7c0-0.5,0.2-1.1,0.7-1.9c0.3-0.6,0.6-1,0.6-1.2
				c1.1-1.9,2.1-3.9,2.9-5.9c0.9-2.1,2.4-2.5,3.5-2.5c3.5,0,3.9,2.3,3.9,3.3c0,2-1.3,5-3.9,9.3C328.2,124.5,326.9,125.4,325.5,125.4
				z M378.4,125.3c-1,0-2.5-0.4-3.6-2.5c-1.9-3.6-3.2-6-3.9-7.2c-0.6-0.9-0.9-1.7-0.9-2.3c0-1.4,0.6-2.2,1.1-2.5
				c0.7-0.5,1.6-0.7,2.9-0.7c1.2,0,2.4,0.8,3.6,2.5c4.4,6.2,5,7.9,5,8.8C382.5,123.8,381,125.3,378.4,125.3z M345.2,125.1
				c-2.1,0-3.5-1.2-3.9-3.3l-1.7-7.3v-0.1c0-2.2,1.3-3.5,3.7-3.5c1.7,0,3,1.2,3.9,3.7c1.7,4.5,1.9,6,1.9,6.7
				C349,123.7,347.6,125.1,345.2,125.1z M360.9,125c-1.3,0-3.1-0.6-4-3.5c-0.6-1.9-1.2-3.6-1.8-5.1c-0.5-1.1-0.7-1.9-0.7-2.5
				c0-2.2,1.3-3.5,3.7-3.5c1,0,2.5,0.4,3.6,2.6c2.8,5.7,3.1,7.4,3.1,8.2C364.7,123.6,363.3,125,360.9,125z M326,110
				c-2.5,0-4-1.3-4-3.5s1.5-3.5,4-3.5h4.2v-9.8h-5.9c-3.7,0-4.1-2.4-4.1-3.5c0-2.3,1.5-3.6,4.1-3.6h5.9v-6.3
				c-3.9,4.1-5.6,4.7-6.5,4.7c-2.2,0-3.4-1.3-3.4-3.7c0-1.1,1-2.5,3.2-4.4c3.1-2.7,6-6.1,8.5-10.2c1.5-2.5,3.1-3.7,4.7-3.7
				c3.3,0,3.7,2.2,3.7,3.1c0,0.6-0.2,1.6-1.6,3.7h39.2c3.9,0,4.3,2.5,4.3,3.6c0,1.1-0.4,3.5-4.1,3.5H374V86h5.6
				c3.7,0,4.1,2.5,4.1,3.6c0,1-0.4,3.5-4.1,3.5H374v9.8h4c2.5,0,4,1.3,4,3.5s-1.5,3.5-4,3.5H326z M367,102.9v-9.8h-5.4v9.8H367z
				 M354.6,102.9v-9.8h-5.2v9.8H354.6z M342.4,102.9v-9.8h-5.2v9.8H342.4z M367,86v-9.7h-5.4V86H367z M354.6,86v-9.7h-5.2V86H354.6z
				 M342.4,86v-9.7h-5.2V86H342.4z"/>
		</g>
		<g>
			<path fill="#FFFFFF" d="M410,126c-2.3,0-3.6-1.4-3.6-3.7V97.7l-7,0.8c-0.1,0-0.3,0-0.4,0c-0.9,0-1.6-0.3-2.2-1
				c-0.6-0.7-0.9-1.6-0.9-2.7c0-1.8,1-3,2.8-3.4l0.1,0l3.4-0.3l3.9-5.4l-2.4-1.9l-3.6-2.6c-2.5-1.8-3.6-3.1-3.6-4.4
				c0-2.2,1.2-3.5,3.4-3.5c0.7,0,1.5,0.3,2.4,0.8c1.8-3,3.2-5.9,4.3-8.6c1-2.5,2.7-3,4-3c2.4,0,3.8,1.3,3.8,3.6
				c0,1.2-0.8,3.7-6.8,11.9L410,80l3.7-6.2c1-1.7,2.3-2.6,3.6-2.6c2.4,0,3.7,1.3,3.7,3.7c0,0.7-0.4,2-3.3,6l-1.5,2.1
				c-0.9,1.2-2.1,2.9-3.6,4.9c-0.8,1.1-1.5,2.1-2.2,2.9l4.4-0.3c-0.5-1.3-0.7-2.2-0.7-2.9c0-0.9,0.3-1.6,1-2.1
				c0.6-0.5,1.4-0.7,2.3-0.7c1.5,0,2.7,1.3,3.8,3.8l1,2.4c1.4,3.3,1.6,4.4,1.6,4.9c0,2.1-1.2,3.3-3.4,3.3c-1.5,0-2.6-1-3.4-3
				l-3.4,0.5v25.4C413.6,124.7,412.3,126,410,126z M421.9,124.7c-2.1,0-3.3-1.2-3.3-3.3c0-2,1.7-3.5,4.9-4.5c0.2,0,0.3-0.1,0.4-0.1
				V75c0-3.4,1.3-5.7,3.7-6.6c1-0.4,2.7-0.7,5.1-0.9c6.2-0.8,12.1-2,17.5-3.6c0.9-0.3,1.5-0.4,2-0.4c2.3,0,3.7,1.4,3.7,3.9
				c0,1.8-1,3-2.9,3.6c-1.8,0.5-4,0.9-6.7,1.4l-0.1,4.2c0,2.8,0,6.1,0.1,10h8c3.6,0,4,2.4,4,3.5c0,1-0.4,3.5-4,3.5h-7.7
				c0.5,5.7,1.5,11,2.9,15.7c1.4,4.5,2.4,6,2.8,6.4c0-0.1,0.1-0.2,0.1-0.3c0.2-0.8,0.3-2.3,0.4-4.2c0.1-3.7,2-4.2,3.1-4.2
				c1.3,0,2,0.6,2.4,1.1c0.5,0.7,0.7,1.7,0.7,3.2c0,4.1-0.5,7.4-1.3,9.6c-1.3,3.2-3.2,3.8-4.7,3.8c-1.6,0-3.3-0.8-4.8-2.3
				c-1.4-1.4-2.7-3.5-3.8-6.1c-0.3-0.7-0.6-1.4-0.9-2.2c-0.1,1.7-1.7,3.2-5.1,4.7c-4.3,2-7.9,3.5-10.7,4.5
				C424.8,124.2,422.9,124.7,421.9,124.7z M431.2,114.4c2.2-0.8,3.9-1.6,5.1-2.1c2-1,3.4-1.5,4.4-1.5c0.9,0,1.7,0.3,2.2,0.8
				c-0.5-1.6-0.9-3.4-1.3-5.3c-0.8-3.8-1.3-7.9-1.6-12.1l0-0.7h-8.8V114.4z M439.6,86.6c-0.2-3.6-0.3-7.9-0.3-13.1
				c-1.8,0.3-3.9,0.6-6,0.8c-1.8,0.2-2,0.9-2,1.7v10.5H439.6z M399.4,119.5c-2.2,0-3.5-1.2-3.5-3.3c0-0.7,0.2-1.6,0.7-2.9
				c1-2.7,1.7-6.4,2-10.8c0.2-3.1,2.2-3.6,3.3-3.6c1.1,0,1.9,0.3,2.5,1c0.6,0.6,0.8,1.5,0.8,2.7c0,2.6-0.3,5.4-0.9,8.3
				c-0.3,1.7-0.6,3.1-0.9,4.2c-0.4,1.7-0.7,2.3-0.9,2.5c-0.3,0.5-0.7,1-1.3,1.3C400.7,119.3,400.1,119.5,399.4,119.5z M419.5,117.2
				c-2,0-3.2-1.9-3.7-5.5c-0.1-0.6-0.3-2.3-0.8-5.1c-0.1-0.6-0.2-1.2-0.3-1.9c-0.1-0.7-0.2-1.4-0.3-2.1l-0.1-0.6v-0.1
				c0-0.9,0.3-1.7,0.9-2.3c0.6-0.5,1.3-0.8,2.3-0.8c0.9,0,1.7,0.3,2.3,1c0.6,0.6,1,1.4,1.1,2.4l2,11.4c0.2,1.4-0.3,2.2-0.8,2.7
				C421.5,116.9,420.6,117.2,419.5,117.2z"/>
		</g>
		<g>
			<path fill="#FFFFFF" d="M485.8,125.6c-1.4,0-3.8-0.6-3.8-4.4V93c-1.2,1.6-2.4,3-3.5,4.2c-0.9,1-2,1.5-3.2,1.5
				c-0.9,0-1.7-0.3-2.4-0.9c-0.8-0.7-1.2-1.6-1.2-2.5c0-1,0.4-1.9,1.2-2.9c3.2-3.7,6.3-8,9.2-12.9c2.9-4.9,5.3-9.7,7.2-14.2
				c0.3-0.8,0.9-1.5,1.5-2c0.7-0.5,1.5-0.8,2.3-0.8c0.5,0,1,0.1,1.5,0.3c1.4,0.6,2.2,1.7,2.2,3.1c0,0.7-0.2,1.4-0.5,2.2
				c-1.7,4.2-4,8.8-6.8,13.5v39.7C489.6,125,487.2,125.6,485.8,125.6z M518.6,124.3c-4.5,0-7.8-0.1-9.9-0.3c-2.3-0.2-4-0.9-5.2-1.9
				c-1.3-1.1-1.9-2.8-1.9-5.1V67.5c0-2.7,1.4-4.3,3.7-4.3c2.5,0,3.9,1.6,3.9,4.3v20.7c5.4-3.3,11.1-7.3,16.9-11.9
				c1-0.8,2.1-1.2,3-1.2c1.1,0,2.1,0.5,2.9,1.4c0.6,0.8,1,1.6,1,2.4c0,1.2-0.6,2.3-1.9,3.3c-6.8,5.2-14.2,9.7-21.9,13.4v18.8
				c0,0.8,0.2,1.4,0.4,1.7c0.3,0.3,0.9,0.5,1.7,0.6c1.4,0.2,3.4,0.3,5.9,0.3h2.2c2.2,0,3.8-0.1,4.9-0.2c1.2-0.1,1.7-0.4,2-0.5
				c0,0,0.4-0.4,0.7-1.9c0.3-1.2,0.4-3.2,0.4-6c0.1-2.4,1.4-3.7,3.5-3.7c1.2,0,2.2,0.4,2.8,1.1c0.6,0.7,0.9,1.6,0.9,2.8
				c0,5-0.3,8.5-1,10.6c-0.8,2.3-2.3,3.7-4.6,4.3C527.2,124.1,523.7,124.3,518.6,124.3z"/>
		</g>
		<g>
			<path fill="#FFFFFF" d="M598.2,125.9c-2.3,0-3.6-1.4-3.6-3.9v-12.9h-3.7c-3.3,0-3.8-2.1-3.9-3.2c-0.4,6.6-0.9,10.8-1.6,12.8
				c-0.7,2-1.9,3.3-3.6,3.9c-1.5,0.6-3.8,0.9-6.8,0.9c-2.5,0-4-1.4-4-3.7c0-0.2,0-0.3,0-0.5c-2,3.4-3.7,5-5.5,5
				c-2.1,0-3.3-1.3-3.3-3.6c0-0.6,0.2-1.4,1.9-3.6c1.8-2.6,3.4-5.9,4.6-9.9c0.2-0.8,0.5-1.6,0.7-2.5c-0.1,0.2-0.3,0.4-0.5,0.6
				c-0.6,0.5-1.5,0.9-2.6,1.2c-1.1,0.3-2.1,0.5-2.9,0.6c-0.3,0.1-0.5,0.1-0.7,0.2c-0.3,2.3-0.9,4.8-1.9,7.2
				c-1.2,2.9-2.7,5.2-4.6,6.9c-2.4,2.2-4.2,3.3-5.6,3.3c-2.2,0-3.5-1.4-3.5-3.8c0-1.5,1.1-2.8,3.4-4.2c1.5-0.9,2.6-2.1,3.5-3.7
				c0.7-1.3,1.2-2.8,1.5-4.4l-3.7,0.7c-0.2,0.1-0.5,0.1-0.9,0.1c-1,0-1.9-0.3-2.5-1c-0.6-0.6-0.9-1.5-0.9-2.5c0-1,0.4-1.9,1.2-2.5
				c0.7-0.5,1.7-0.9,3-1.1l4.1-0.5v-6.4h-4.6c-2.3,0-3.7-1.2-3.7-3.3c0-2.1,1.3-3.3,3.7-3.3h1.3l-1.1-11.3c-2.8-0.3-3.3-2.1-3.3-3.2
				c0-2.1,1.3-3.3,3.6-3.3h4.3v-4.7c0-2.4,1.3-3.7,3.5-3.7c2.2,0,3.5,1.4,3.5,3.7V71h3.5c2.3,0,3.7,1.2,3.7,3.3c0,0.6-0.1,1.6-1,2.4
				c0.5-0.2,1.1-0.3,1.7-0.3h0.8v-9.4c0-1.3,0.3-2.3,0.9-3c0.7-0.8,1.6-1.1,2.8-1.1c2.2,0,3.4,1.4,3.4,3.8v9.7h2.4
				c4.4,0,6.7,2.2,6.7,6.4c0,2.2,0,4.6-0.1,6.9c0.6-0.3,1.3-0.4,2.1-0.4h1.4l-1.3-11.7c-1-0.1-1.7-0.3-2.2-0.7
				c-0.5-0.4-1.1-1.2-1.1-2.6c0-2.2,1.3-3.4,3.7-3.4h4.5v-4.7c0-2.4,1.3-3.8,3.6-3.8s3.6,1.4,3.6,3.8V71h4.5c2.3,0,3.7,1.2,3.7,3.4
				c0,2.1-1.3,3.3-3.7,3.3h0c-0.2,2.9-0.6,6.8-1.3,11.6h2c2.3,0,3.6,1.2,3.6,3.4c0,2.2-1.3,3.4-3.6,3.4h-5.4v6.1h4.3
				c3.6,0,3.9,2.4,3.9,3.4c0,1-0.4,3.4-3.9,3.4h-4.3V122C601.8,124.5,600.5,125.9,598.2,125.9z M578.6,83.4
				c-0.1,3.3-0.3,6.6-0.6,9.9c-0.3,3.6-0.7,6.8-1.1,9.5c-0.7,4.7-2.2,9.5-4.4,14c0.6-0.5,1.5-0.7,2.5-0.7h2.6c0.6,0,1-0.2,1.3-0.5
				c0.4-0.4,0.6-1.1,0.7-1.9c1.1-9,1.7-19,1.7-29.7c0-0.4-0.1-0.5-0.5-0.5H578.6z M587.6,95.6c-0.1,2.2-0.2,4.4-0.3,6.7
				c0,0.9-0.1,1.8-0.1,2.7c0.2-1.1,1-2.7,3.8-2.7h3.7v-6.1h-4.7C588.9,96.2,588.2,96,587.6,95.6z M567.3,100.3
				c1.6,0,2.6,0.8,2.8,2.1c0.5-2.7,0.9-5.7,1.1-8.8c0.2-3.4,0.3-6.8,0.4-10.2h-0.7c-2.5,0-3.9-1.3-3.9-3.5c0-1.1,0.4-2,1.1-2.6
				c-0.3,0.1-0.7,0.2-1.1,0.2l-1.4,11.3h1.6c2.3,0,3.7,1.2,3.7,3.3c0,2.1-1.3,3.3-3.7,3.3h-4.3v5.3l3.3-0.5
				C566.4,100.3,566.8,100.3,567.3,100.3z M599.2,89.4l1-11.6h-4.2l1,11.6H599.2z M559.6,88.8l1-11.2h-3.3l1.2,11.2H559.6z"/>
		</g>
		<g>
			<path fill="#FFFFFF" d="M678.6,125c-1.6,0-2.9-1.1-4.3-3.3l-1.6-2.8l-0.4,0.1l-2.5,0.3c-0.8,0.1-3.1,0.4-6.9,0.8
				c-3.8,0.5-8.1,0.9-12.9,1.4l-19,1.6c-0.2,0-0.4,0-0.5,0c-1.1,0-2-0.3-2.7-1c-0.8-0.7-1.1-1.8-1.1-3.1c0-1.6,0.8-2.5,1.4-3
				c0.7-0.5,2-0.9,6.2-0.9l1.7-0.1c3.7-7,7-15.1,9.7-23.9c0.8-2.6,2.6-3.2,4-3.2c0.8,0,1.7,0.3,2.7,1l0.1,0.1l0.1,0.1
				c0.7,0.9,1,1.7,1,2.4c0,0.4-0.1,0.8-0.3,1.2c-0.1,0.3-0.2,0.5-0.2,0.6c-2.9,8.6-6,15.8-9.2,21.3l24.7-1.9
				c-2.3-3.1-4.1-5.4-5.4-6.8c-1.8-1.9-2.6-3.3-2.6-4.3c0-2,1.3-3.2,3.5-3.2c1.1,0,3,0.7,7.5,6.3c3,3.7,5.7,7.1,8,10.3
				c2,2.7,2.9,4.6,2.9,6.1C682.7,123.6,681.2,125,678.6,125z M627,100.9c-2.3,0-3.6-1.5-3.6-4.1c0-0.7,0.3-1.8,4.5-6.3
				c3.5-3.8,6.8-9.3,9.6-16.4c0.6-1.4,1.2-2.4,1.8-3.2c0.7-0.9,1.6-1.3,2.6-1.3c2.3,0,3.6,1.2,3.6,3.3c0,1.1-0.4,2.6-1.3,4.7
				c-0.8,2-2,4.4-3.6,7.2c-3.4,6.1-6.9,10.9-10.3,14.2c-0.7,0.6-1.2,1-1.7,1.3C628.1,100.7,627.6,100.9,627,100.9z M682.6,100.4
				c-1.5,0-3.1-0.7-5.1-2.2c-1.8-1.4-3.8-3.5-6.2-6.2c-4.6-5.5-7.6-11.3-8.7-17.2c-0.5-2.5-1.5-2.5-1.8-2.5l-6.9,0
				c-2.6,0-4.1-1.3-4.1-3.7c0-2.3,1.5-3.6,4.1-3.6h8.5c3.7,0,6,2,6.7,5.9c1.7,9.2,6.2,16.2,13.5,20.8c2.5,1.6,3.7,3.1,3.7,4.7
				C686.2,99,684.9,100.4,682.6,100.4z"/>
		</g>
	</g>
	<g>
		<g>
			<path fill="#B9D98F" d="M671.3,295.9c7.7-2,13.1-20.3,3.1-33.3c-7.2-9.4-26.6-15.7-31,1.9C638.9,282.1,661.1,298.5,671.3,295.9z"
				/>
			<path fill="#007C29" d="M661.6,268.8c3.8,1.9,6.8,4.7,9.2,8.1c2.4,3.4,4.1,7.2,5.1,11.2c0.9,4,1.2,8.1,0.8,12.2
				c-0.1,2-0.6,4-1,5.9c-0.6,1.9-1.1,3.8-1.8,5.7c-0.2,0.6-0.9,1-1.6,0.7c-0.5-0.2-0.8-0.7-0.8-1.2l0-0.1c0.1-1.9,0.4-3.8,0.5-5.6
				c0-1.9,0.2-3.7,0.1-5.6c0-3.7-0.4-7.3-1.2-10.8c-0.9-3.5-2.2-6.8-3.9-9.9c-1.8-3.1-4-6.1-6.7-8.5l-0.1-0.1
				c-0.5-0.4-0.5-1.2-0.1-1.7C660.5,268.7,661.1,268.6,661.6,268.8z"/>
		</g>
		<g>
			<path fill="#D2E7BF" d="M784,323.2c2.6-7.8-21.8-16.2-41.2-7.9c-19.4,8.4-26.7,21.6-27.3,25.6C714.9,345.1,771.1,362.5,784,323.2
				z"/>
			<path fill="#007C29" d="M775.2,324.8c-3.1,0.2-6.2,0.5-9.3,1c-3.1,0.4-6.2,0.9-9.2,1.5c-6.1,1.2-12.1,2.7-18,4.8
				c-5.9,1.8-11.6,4.5-17,7.3l-4.1,2.3l-3.9,2.6l-2,1.3l-1.8,1.4c-1.2,1-2.5,1.9-3.7,2.8l-0.1,0c-0.4,0.3-1,0.2-1.3-0.2
				c-0.3-0.4-0.2-0.9,0.1-1.2c4.5-4.5,9.5-8.7,15.1-11.9c5.5-3.3,11.4-6,17.4-8c6.1-2,12.3-3.6,18.6-4.5c6.3-0.9,12.7-1.4,19.1-1
				c0.5,0,0.9,0.5,0.9,1C776.1,324.4,775.7,324.8,775.2,324.8L775.2,324.8z"/>
			<path fill="#007C29" d="M769,337.3c-2.1-1.5-4.1-3.1-5.9-4.8c-1-0.8-1.8-1.8-2.8-2.7c-0.9-1-1.7-1.8-2.7-3.2
				c-0.1-0.1-0.4-0.7-0.4-1.1c0-0.3,0-0.6,0.1-0.9c0-0.2,0.1-0.3,0.1-0.4l0.1-0.2c0.3-0.6,0.6-0.9,0.8-1.2c0.5-0.6,1-1,1.5-1.5
				c1-0.9,2.1-1.6,3.1-2.4c2.1-1.4,4.3-2.7,6.9-3.7c0.5-0.2,1,0.1,1.2,0.5c0.1,0.4,0,0.8-0.3,1l-0.1,0.1c-1.9,1.5-3.8,3.1-5.7,4.7
				c-0.9,0.8-1.9,1.6-2.7,2.4c-0.4,0.4-0.8,0.8-1.2,1.2c-0.1,0.2-0.3,0.4-0.3,0.4l0,0c0-0.1,0.1-0.1,0.1-0.2c0-0.1,0-0.3,0-0.4
				c0.1-0.1-0.1-0.4,0-0.3c0.4,0.7,1.3,1.7,2.1,2.6l2.4,2.8c1.7,1.9,3.3,3.8,4.8,5.8c0.3,0.4,0.2,1-0.2,1.3
				C769.8,337.5,769.3,337.5,769,337.3z"/>
			<path fill="#007C29" d="M753.8,340.6c-2.4-1.6-4.8-3.3-7-5.2c-1.1-0.9-2.2-1.9-3.3-3c-0.5-0.6-1-1.1-1.6-1.8
				c-0.2-0.3-0.8-0.9-0.8-2.1c0-0.7,0.2-0.9,0.3-1.1c0.1-0.3,0.2-0.5,0.3-0.7c1.8-2.9,3.8-4.9,6-6.9c2.2-1.9,4.5-3.9,7.6-4.9
				c0.5-0.2,1,0.1,1.1,0.6c0.1,0.4,0,0.8-0.4,1l-0.1,0.1c-2.1,1.4-4,3.6-5.9,5.6c-1.8,2.1-3.8,4.3-5,6.3c-0.1,0.1-0.1,0.2-0.1,0.3
				c-0.1,0.1-0.1,0.2,0-0.1c-0.1-0.5-0.2-0.5,0-0.2c0.3,0.4,0.8,0.9,1.2,1.4c0.9,1,1.9,2,2.9,3.1c2,2,3.9,4.1,5.8,6.3
				c0.3,0.4,0.3,1-0.1,1.3C754.6,340.8,754.2,340.8,753.8,340.6z"/>
			<path fill="#007C29" d="M740.5,344.3c-2.2-1.4-4.2-2.9-6.2-4.5c-1-0.8-1.9-1.7-2.9-2.6c-0.5-0.5-0.9-0.9-1.4-1.4
				c-0.2-0.3-0.5-0.5-0.7-0.9c-0.1-0.2-0.3-0.4-0.5-1c-0.1-0.4-0.1-0.7,0-1.1c0.1-0.4,0.4-0.8,0.8-1.1c0.5-0.3,0.3-0.2,0.3-0.2
				c-0.1,0-0.2,0.1-0.2,0.1c0.1-0.1,0.6-0.7,0.9-1.1l1.1-1.5c0.8-1,1.5-2.1,2.3-3.1c1.6-2,3.4-3.9,5.3-5.6c0.4-0.3,1-0.3,1.3,0.1
				c0.3,0.3,0.3,0.8,0.1,1.1c-1.3,2.2-2.6,4.3-4,6.4l-2,3.2c-0.3,0.5-0.7,1.1-1.1,1.6c-0.4,0.6-0.7,1-1.5,1.8
				c-0.1,0.1-0.4,0.3-0.6,0.4c0,0-0.3,0.2,0.2-0.1c0.3-0.2,0.6-0.7,0.7-1c0.1-0.4,0.1-0.6,0-0.9c-0.1-0.3-0.1-0.2,0-0.1
				c0.1,0.2,0.3,0.4,0.5,0.6l1.2,1.3l2.6,2.7c1.7,1.8,3.4,3.7,5.1,5.6c0.3,0.4,0.3,1-0.1,1.3C741.2,344.5,740.8,344.5,740.5,344.3z"
				/>
		</g>
		<path fill="#EF8582" d="M730.9,266.9c0,0-0.2-28.9-16.9-21.2c-13.2,6.1-8.7,44.9,7,51.7s44.1-16.4,38.1-29.5
			C749.4,246.8,730.9,266.9,730.9,266.9z"/>
		<path fill="#FAD931" d="M690.5,355.5c-0.1-0.5-0.3-0.9-0.7-1.2c-0.2-0.4-0.6-0.8-1-1c-0.3-0.4-0.7-0.6-1.2-0.8
			c-0.4-0.3-0.9-0.4-1.4-0.4c-0.5-0.1-1-0.2-1.5-0.1c-0.5,0-1,0.1-1.4,0.3c-0.5,0.1-0.9,0.3-1.2,0.7c-0.6,0.4-1.1,0.9-1.5,1.5
			c-0.1,0.2-0.3,0.5-0.4,0.7c-0.1,0.2-0.3,0.5-0.4,0.7c-0.1,0.2-0.3,0.4-0.5,0.6c-0.3,0.4-0.5,1-0.7,1.5c-0.2,0.5-0.2,0.9-0.1,1.4
			c0,0.5,0.1,0.9,0.4,1.3c0.5,0.8,1.1,1.4,2,1.6c0.6,0.2,1.1,0.3,1.7,0.3c0.2,0,0.5,0,0.7,0.1c0.1,0,0.2,0,0.3,0.1
			c0.5,0.1,1,0.2,1.5,0.2c0.5,0,1-0.1,1.5-0.1c0.4-0.2,0.9-0.3,1.3-0.5c0.4-0.3,0.8-0.6,1.2-0.8c0.3-0.4,0.6-0.7,0.9-1.1
			c0.2-0.4,0.4-0.9,0.6-1.3c0.1-0.5,0.2-1,0.2-1.5C690.9,356.9,690.8,356.2,690.5,355.5z"/>
		<path fill="#FAD931" d="M656.8,339.9c0-0.4,0-0.9-0.2-1.2c-0.1-0.4-0.3-0.8-0.6-1.1c-0.3-0.3-0.6-0.6-1-0.7
			c-0.4-0.2-0.8-0.3-1.2-0.3c-0.3,0-0.6,0.1-0.9,0.1c-0.5,0.1-1,0.4-1.4,0.8c-0.2,0.2-0.3,0.4-0.5,0.6c-0.3,0.5-0.5,1-0.5,1.6
			c0,0.5-0.1,1-0.1,1.5c0,0.4,0,0.9,0.2,1.3c0.1,0.4,0.3,0.8,0.6,1.1c0.3,0.3,0.6,0.6,1,0.7c0.4,0.2,0.8,0.3,1.2,0.3
			c0.3,0,0.6-0.1,0.9-0.1c0.6-0.1,1-0.4,1.5-0.8c0.2-0.2,0.4-0.4,0.5-0.6c0.3-0.5,0.5-1,0.5-1.6
			C656.8,340.9,656.8,340.4,656.8,339.9z"/>
		<path fill="#FAD931" d="M783.7,492.6c-4.4-0.1-4.6,6.7-0.2,6.8C787.8,499.6,788.1,492.7,783.7,492.6z"/>
		<path fill="#FAD931" d="M795.1,520.5c0-0.3-0.1-0.6-0.3-0.9c-0.1-0.2-0.2-0.4-0.3-0.6c-0.1-0.2-0.3-0.5-0.4-0.7
			c-0.2-0.3-0.5-0.5-0.8-0.6c-0.2-0.1-0.4-0.2-0.6-0.2c-0.2-0.1-0.5-0.1-0.7-0.1c-0.2,0-0.4,0-0.7,0.1c-0.4,0.1-0.8,0.3-1.1,0.6
			c-0.3,0.3-0.5,0.6-0.7,1.1c0,0.2-0.1,0.4-0.1,0.7c0,0.2,0,0.5,0.1,0.7c0,0.2,0.1,0.4,0.2,0.6c0.1,0.3,0.3,0.6,0.5,0.9
			c0.2,0.2,0.4,0.3,0.6,0.5c0.2,0.1,0.4,0.3,0.6,0.4c0.2,0.1,0.4,0.2,0.6,0.3c0.3,0.1,0.6,0.1,1,0.1c0.2,0,0.4,0,0.6-0.1
			c0.3-0.1,0.6-0.2,0.8-0.5l0.4-0.5c0.1-0.2,0.2-0.4,0.3-0.6C795.1,521.1,795.1,520.8,795.1,520.5z"/>
		<path fill="#FAD931" d="M802.1,498c-0.1-0.3-0.2-0.5-0.4-0.7c-0.3-0.3-0.6-0.5-1-0.6c-0.4-0.1-0.8-0.1-1.2,0
			c-0.3,0.1-0.7,0.1-1,0.2c-0.2,0.1-0.3,0.1-0.5,0.2c-0.2,0.1-0.4,0.3-0.6,0.5c-0.1,0.1-0.2,0.3-0.3,0.4c-0.1,0.2-0.2,0.5-0.2,0.7
			c0,0.2,0,0.3,0.1,0.5c0.1,0.2,0.1,0.3,0.2,0.5c0.1,0.2,0.3,0.4,0.5,0.6c0.2,0.2,0.4,0.3,0.7,0.4c0.3,0.1,0.7,0.2,1,0.3
			c0.4,0.1,0.8,0.1,1.2,0c0.4-0.1,0.7-0.3,1-0.5c0.1-0.1,0.2-0.3,0.4-0.4c0.2-0.3,0.3-0.7,0.3-1.1
			C802.3,498.5,802.3,498.3,802.1,498z"/>
		<g>
			<path fill="#B9D98F" d="M715,405.2c2.4-3.1,24.1-14,32.5-6.8c8.4,7.2-4.2,13.7-4.2,13.7s24.1,0.4,26.5,8.7
				c2.4,8.3-8.6,8.7-8.6,8.7s20.4,8.9,20.4,18.9c0,9.7-8.1,4.5-8.1,4.5s11.1,15.7,6.3,23.4c-4.9,7.7-13.3-5.4-13.3-5.4
				s0.4,8.1-3.8,6.8c-6.4-2.1-8.3-17.1-8.3-17.1s-2.2,5.4-6.8,1.8c-4.6-3.6-5.2-17.1-5.2-17.1s-0.1,6-5,4c-4.9-2-6.3-17.2-6.3-17.2
				s-0.3,7.5-4.5,6.4C720.3,436.9,710.2,411.4,715,405.2z"/>
			<path fill="#007C29" d="M770.5,464.1c-2.2-3.6-4.6-7.2-7.1-10.6c-1.3-1.7-2.5-3.4-3.8-5.1c-1.4-1.7-2.7-3.3-4-5
				c-5.5-6.5-11.4-12.7-17.7-18.4l-2.3-2.2c-0.8-0.7-1.6-1.4-2.4-2.1l-4.9-4.1c-3.4-2.5-6.8-5.2-10.4-7.4c-1.8-1.2-3.5-2.4-5.4-3.5
				l-5.5-3.2c-0.9-0.5-1.8-1.1-2.8-1.6l-2.9-1.4c-1.9-0.9-3.8-1.9-5.7-2.9l-0.1,0c-0.5-0.3-0.7-0.9-0.4-1.4c0.2-0.5,0.8-0.7,1.3-0.5
				c2,0.8,4,1.6,6.1,2.4l3,1.2c1,0.4,2,0.9,3,1.4l5.8,3c1.9,1,3.8,2.2,5.6,3.3c3.8,2.1,7.3,4.8,10.9,7.3c1.7,1.3,3.4,2.7,5.1,4.1
				c0.8,0.7,1.7,1.4,2.5,2.1l2.4,2.2c3.3,2.9,6.3,6.1,9.3,9.2l4.3,4.9c1.4,1.7,2.8,3.4,4.1,5.1c1.3,1.7,2.6,3.5,3.9,5.3
				c1.2,1.8,2.5,3.6,3.7,5.4c2.3,3.7,4.5,7.4,6.4,11.5c0.2,0.5,0,1.1-0.5,1.4C771.4,464.7,770.8,464.5,770.5,464.1L770.5,464.1z"/>
		</g>
	</g>
</g>
</svg>
