<svg xmlns="http://www.w3.org/2000/svg" viewBox="0 0 1080 1080"><g style="isolation:isolate"><path d="M939.21,68.44a22,22,0,0,0-22-22H162.76a22,22,0,0,0-22,22v9.34H939.21Z" fill="#bfc0c0"/><path d="M140.79,77.78v930.75a22,22,0,0,0,22,22H917.24a22,22,0,0,0,22-22V77.78Z" fill="#f3fafe"/><circle cx="168.41" cy="62.12" r="5.22" fill="#fdd762"/><circle cx="187.96" cy="62.12" r="5.22" fill="#fdd762"/><circle cx="207.51" cy="62.12" r="5.22" fill="#fdd762"/><path d="M809.85,233c1.61-18.39-12.12-33.44-30.51-33.44H339.41C321,199.51,304.65,214.56,303,233L269.16,620.19H776Z" fill="#fdd762"/><path d="M268.48,955.26C266.87,973.65,280.6,988.7,299,988.7H738.92c18.39,0,34.76-15.05,36.36-33.44L809.16,568H302.36Z" fill="#ef8582"/><line x1="665.84" y1="150.56" x2="780.85" y2="150.56" fill="none" stroke="#005085"/><path d="M460.42,170a60.35,60.35,0,0,0-6.36-4.31,32.85,32.85,0,0,1-9.57,5.68,15.42,15.42,0,0,0-2.6-3.35c5.27-1.72,10.19-4.61,12.61-8.51l4.12,1a16,16,0,0,1-1.67,2.33,48.86,48.86,0,0,1,6.49,4Zm11.26-34.21c-.44.35-.87.71-1.26,1.06,4.35,2.94,13,5.53,20.3,6.64a22.53,22.53,0,0,0-3.18,3.9,62.94,62.94,0,0,1-11.93-3.85l-.25,2.94H458.27l.25-2.78a84.29,84.29,0,0,1-11.71,4,13,13,0,0,0-2.31-3.75c8.48-1.88,18.22-5.42,23.6-10.14Zm-17.57-4.31a46.15,46.15,0,0,1-5.79,7.05,27,27,0,0,0-3.67-2.59,33.29,33.29,0,0,0,8.46-11.55l4.31,1.16c-.38.81-.74,1.52-1.17,2.33h12.27l-.32,3.6h-8.51a19.82,19.82,0,0,1,1.86,4.82l-4,1.92a27.44,27.44,0,0,0-1.77-5.27l3.27-1.47Zm-4,17.08H466l-.94,10.69H449.15Zm3.2,7.5h8l.37-4.31h-8Zm21.6-12.82a37.08,37.08,0,0,1-7.38-4.31,58.61,58.61,0,0,1-8,4.31Zm3.12,17a14.93,14.93,0,0,1-1.44,2.58,103.87,103.87,0,0,1,11.24,4.77l-3.18,3.34a81.42,81.42,0,0,0-10.73-4.86,27.26,27.26,0,0,1-8.47,5.27,23.55,23.55,0,0,0-2.67-3.1c5.07-1.67,9.27-4.51,11.1-8.66Zm-9.47-11.71H484.7l-.93,10.69H467.6Zm6.25-17a26.89,26.89,0,0,1-3.5,3.5,16.4,16.4,0,0,0-3.62-2.58,23.66,23.66,0,0,0,6.9-8.16l4.36,1.11c-.43.86-.91,1.67-1.44,2.53h14.3l-.32,3.6h-8.87a20.27,20.27,0,0,1,3.28,5.43l-4,2a25.85,25.85,0,0,0-3.38-6l3.17-1.47Zm-3,24.48h8.16l.38-4.31h-8.16Z" fill="#005085"/><path d="M501,158.11a70.1,70.1,0,0,1-4.4,12.11,28.84,28.84,0,0,0-3.94-1.37A54.79,54.79,0,0,0,497,157.3Zm10.56-3c-.09-.76-.21-1.67-.37-2.69-12.55,2-14.41,2.43-15.57,3-.18-.86-.7-3.09-1.14-4.36,1.29-.25,2.6-1.36,4.53-3.19a67.1,67.1,0,0,0,5-5.22c-5.53.66-6.82.91-7.56,1.32a36,36,0,0,0-1.15-4.26c1-.15,2.08-1.16,3.37-2.63a68.07,68.07,0,0,0,8.54-12.47l4.15,1.87a93.59,93.59,0,0,1-9.47,12.62l5.46-.45c1.6-2,3.15-4.11,4.55-6.24l3.78,2.59a125.7,125.7,0,0,1-13.1,14.8l7.9-1.07c-.33-1.47-.76-3-1.15-4.31l3.89-1a62.43,62.43,0,0,1,2.42,10.49Zm-4.73,1.87a94.32,94.32,0,0,1,.7,11.1l-4,1.07a105,105,0,0,0-.44-11.25Zm5.93-1.16a62,62,0,0,1,2.42,9.42l-3.77,1.37a75.74,75.74,0,0,0-2.2-9.63Zm28-21.95s-.2,1.73-.26,2.39c-2.54,22.09-3.82,29.74-6,32.18a6.2,6.2,0,0,1-4.57,2.43,48.43,48.43,0,0,1-7.66,0,11.34,11.34,0,0,0-1.11-4.66c3.07.25,5.91.25,7.18.25a2.42,2.42,0,0,0,2.1-.81c1.55-1.57,2.91-8.92,5-27.32H522.14a48.08,48.08,0,0,1-4.57,7.05c-.85-.66-2.76-2-3.87-2.69,3.92-4.31,7.21-11.15,9.32-17.94l4.59.91c-1,2.79-2.06,5.58-3.2,8.21Zm-14.17,24.08a43.07,43.07,0,0,0-7.76-11l3.5-2.38c3.13,3.09,6.64,7.6,8,10.64Z" fill="#005085"/><path d="M562.42,153.45a83.82,83.82,0,0,1,5.87,13l-4.52,2.33c-.39-1.27-.91-2.94-1.61-4.71-12.73,4.15-14.63,4.91-15.92,5.83a14.17,14.17,0,0,0-1.51-4.82,4.17,4.17,0,0,0,2.53-3.34l3-34.46H570.4l-2.12,24.17H553l-1,11.3,8.54-2.53c-.77-1.68-1.49-3.3-2.27-4.77Zm1.51-6.24.52-5.93H553.86l-.52,5.93Zm-9.21-15.76-.49,5.63h10.59l.49-5.63Zm34,25c-.2,2.33-.73,3.7-2.26,4.41s-3.93.86-7.37.86a14,14,0,0,0-1-4.46c2.22.1,4.4.1,5,0s.94-.26,1-.91l2.15-24.53H578.5l-3.43,39.27h-4.72l3.82-43.58H591.3Z" fill="#005085"/><path d="M602.79,160.74a74.45,74.45,0,0,1-5.82,9.73,21,21,0,0,0-3-2.18,52.26,52.26,0,0,0,5.32-8.66Zm8.12-2.38H597L599.71,127h13.94Zm-3-9.37h-6.38l-.49,5.57h6.38Zm.8-9.13h-6.39l-.47,5.48h6.38Zm.79-9h-6.39l-.47,5.43H609Zm-1.65,28.74a52.8,52.8,0,0,1,3.75,7.5l-3.23,2.13a58.19,58.19,0,0,0-3.61-7.91Zm33.65-28.28L639.9,149H614.46L616,131.3h6.18a27.26,27.26,0,0,0-2.42-5.32l3.87-1.37a25,25,0,0,1,2.8,5.68l-2.47,1h7.35a65.79,65.79,0,0,0,4.19-6.79l4.14,1.42c-1.27,1.77-2.77,3.75-4.07,5.37Zm-25,20.07h21.14l-1.7,19.46h-4.16l.17-1.88h-13l-.18,2.08h-4Zm2-5.93h7.35l.93-10.54H619.4Zm13.72,20,.3-3.5h-13l-.3,3.5ZM620.07,155l-.32,3.65h13l.31-3.65Zm2.61-18.8a48.56,48.56,0,0,1,2.23,6.89l-2.77,1a44.75,44.75,0,0,0-2.06-7.14Zm14.51-1.32h-7.3L629,145.44h7.3Zm-6.87,8.41a49.83,49.83,0,0,0,3.36-7.09l2.81.91c-1.24,2.48-2.59,5.17-3.76,7Z" fill="#005085"/><g opacity="0.05" style="mix-blend-mode:multiply"><ellipse cx="533.91" cy="586.06" rx="42.42" ry="38.87" transform="translate(-257.03 531.89) rotate(-43.75)"/></g><ellipse cx="538.91" cy="581.06" rx="42.42" ry="38.87" transform="translate(-252.19 533.96) rotate(-43.75)" fill="#fff"/><polygon points="564.16 586.2 512.76 586.2 513.66 575.92 565.06 575.92 564.16 586.2" fill="#f5a200"/><polygon points="531.53 606.76 536.02 555.36 546.3 555.36 541.81 606.76 531.53 606.76" fill="#f5a200"/><g opacity="0.05" style="mix-blend-mode:multiply"><path d="M374.21,251.8h-115A17,17,0,0,1,242,233l7.83-89.57a21,21,0,0,1,20.47-18.82h115a17,17,0,0,1,17.17,18.82L394.67,233A21,21,0,0,1,374.21,251.8Z"/></g><path d="M379.21,246.8h-115A17,17,0,0,1,247,228l7.83-89.57a21,21,0,0,1,20.47-18.82h115a17,17,0,0,1,17.17,18.82L399.67,228A21,21,0,0,1,379.21,246.8Z" fill="#fff"/><path d="M313.58,229.24h-5.86a1.74,1.74,0,0,1-1.7-2.13l6.34-28.05a1.75,1.75,0,0,1,1.71-1.36h9.84a1.74,1.74,0,0,1,1.7,2.13L320.15,224A6.73,6.73,0,0,1,313.58,229.24Z" fill="#3db4e8"/><path d="M363.29,179.59l-5.42,1.23-4.22-18.62,5.43-1.23a9.55,9.55,0,0,1,11.41,7.21h0A9.54,9.54,0,0,1,363.29,179.59Z" fill="#f8b500"/><path d="M288.68,164.32h21.84a0,0,0,0,1,0,0v41.33a0,0,0,0,1,0,0H288.68a4.17,4.17,0,0,1-4.17-4.17v-33a4.17,4.17,0,0,1,4.17-4.17Z" transform="translate(-33.48 70.19) rotate(-12.75)" fill="#f8b500"/><path d="M305.64,162l47.21-19.13a4.12,4.12,0,0,1,5.56,2.91l10.83,47.89a4.1,4.1,0,0,1-3.72,5l-50.76,3.62Z" fill="#ffe893"/><path d="M301.2,173.07l-9.82,2.22a1.11,1.11,0,0,1-1.34-.84h0a1.12,1.12,0,0,1,.84-1.34l9.82-2.22a1.11,1.11,0,0,1,1.34.84h0A1.12,1.12,0,0,1,301.2,173.07Z" fill="#ffe893"/><path d="M302.12,177.16l-9.82,2.22a1.12,1.12,0,0,1-1.34-.84h0a1.13,1.13,0,0,1,.85-1.34l9.82-2.22a1.12,1.12,0,0,1,1.34.84h0A1.12,1.12,0,0,1,302.12,177.16Z" fill="#ffe893"/><path d="M466.08,388.61H434.17l8.89-101.56-32.14,9.15L413,272l62.14-20.86h2.92Z" fill="none" stroke="#f8b500" stroke-width="5"/><path d="M539.83,313.52a194.54,194.54,0,0,1-8.77,17.59l-5.74,65.65H514.86L519,349.35a104.68,104.68,0,0,1-6.89,8A71.85,71.85,0,0,0,508,345.37c8.42-8.42,16.61-21.66,21.95-35Zm56.45,1.39-7.08,80.83H578.74l.4-4.54H544.33l-.47,5.37h-10L541,314.91ZM580,381.66l5-57.21H550.17l-5,57.21ZM570,343.8l-.69,8h8.89L576,376.57H550.33l2.17-24.81h8.24l.7-8H550.79l.69-8h10.65l.83-9.44h8.52l-.83,9.44h11.2l-.69,8Zm-.71,15.55H559.8l-.85,9.72h9.44Z" fill="none" stroke="#f8b500" stroke-width="5"/><path d="M675.63,382.59c-.59,6.67-2.44,9.81-6.86,11.67-4.61,1.94-11.11,2.13-20.65,2.13a43.41,43.41,0,0,0-3.61-11.58c6.45.37,14.23.28,16.27.28,2.22,0,3-.74,3.2-2.68L665.15,369H625.52c-3.31,10.37-8.82,20.46-18.07,27.68a38.3,38.3,0,0,0-7.82-8c15-11.94,17.87-29.63,19.1-43.7l2.67-30.46h60.18Zm-9.55-24.26,1-11.29H629.94c-.4,3.51-.92,7.4-1.63,11.29Zm-34.23-33.05-1,11.29H668l1-11.29Z" fill="none" stroke="#f8b500" stroke-width="5"/><path d="M426.58,480.06a40.09,40.09,0,0,1-5.48,13.57c6.88,3.43,15.65,5.61,26.1,6.55a43.43,43.43,0,0,0-6.26,8.26q-15.62-2-25.95-8.18c-4,3.43-9.6,6.31-16.72,8.34a44.85,44.85,0,0,0-5.09-7.72c6.36-1.4,11.14-3.43,14.72-6a39.52,39.52,0,0,1-8.58-11.62l7.77-2.34a28.22,28.22,0,0,0,6.55,8,27.73,27.73,0,0,0,3.66-8.89H399.91l2-22.76h17.93l.48-5.46H400.75l.62-7.17c-1.66,3-3.49,6-5.46,9l-4.82,55.12h-8.81l3.66-41.86a99.1,99.1,0,0,1-7,7.33,54.14,54.14,0,0,0-4.08-9.52c8-7,16.24-18,21.42-29.08l8.33,2.81c-.85,1.64-1.69,3.28-2.54,5h19l.62-7.09h9.2l-.62,7.09h20.67l-.74,8.42H429.52L429,457.3H447.6l-2,22.76Zm-8.08-7.48.09-1,.59-6.7h-9.59l-.68,7.72Zm9.88-7.72-.6,6.78-.08.94h9.67l.68-7.72Z" fill="none" stroke="#f8b500" stroke-width="5"/><path d="M520.4,497.6c-.44,5-1.75,7.49-5,8.89-3.33,1.56-8.1,1.72-15.11,1.64a32.59,32.59,0,0,0-2.19-8.89c4.35.24,9.5.16,10.91.16s2.06-.47,2.19-1.87l1-11.7H495.78l-1.91,21.75h-9.35l1.9-21.75h-15.9c-2.15,8.5-5.71,17.08-11.86,23.16a30.18,30.18,0,0,0-6.8-6c9.32-9.35,11.23-23.23,12.19-34.14L466.48,441h58.87Zm-33.21-20.5.83-9.59H473.37l-.13,1.41c-.22,2.49-.54,5.3-.95,8.18Zm-12.28-27.29-.79,9.05h14.66l.79-9.05ZM513,477.1l.84-9.59H497.38l-.84,9.59Zm2.39-27.29H498.93l-.79,9.05h16.45Z" fill="none" stroke="#f8b500" stroke-width="5"/><path d="M577.52,473.9c4.37,12.4,13.55,21.52,28.41,25.5a37.81,37.81,0,0,0-7.15,8.65c-14.25-4.68-22.89-13.72-28.32-26.51-5.2,10.37-14.87,20.2-33,26.75a31.46,31.46,0,0,0-5.38-8c18.57-6.4,27.1-16.45,31.16-26.36H537.13l.83-9.51H566c.34-2.1.59-4.05.76-6l.69-7.88H542l.83-9.51h61.76l-.83,9.51H577.22l-.7,8c-.16,1.88-.41,3.83-.67,5.85h29.71l-.83,9.51Z" fill="none" stroke="#f8b500" stroke-width="5"/><path d="M683,458.08c-2.25,11.46-5.13,21.2-9.28,29.39,2.53,5.93,6.17,10.68,11.12,13.8a27.72,27.72,0,0,0-5.78,6.31,32.85,32.85,0,0,1-10.23-12.31,50.83,50.83,0,0,1-15.16,13.8,27.48,27.48,0,0,0-3-5.62l-5.37,4.29a74.54,74.54,0,0,0-9.58-5.38c-5.36,2.34-12.55,4.37-22.34,5.77a22.3,22.3,0,0,0-2.84-5.92,98,98,0,0,0,16.76-3.51,100.26,100.26,0,0,0-10-3.59,43.78,43.78,0,0,0,3.82-4.52l-7,.39-.16-6.16c3.44-.16,7.51-.31,12-.55a57.72,57.72,0,0,0,3.16-4.83H617.57l1.24-14.11h14l.19-2.19H621.11l.71-8.18H615.9l.57-6.55h5.92l.69-7.87h11.86l.41-4.76h7l-.42,4.76h12.56l-.69,7.87h5.3l-.57,6.55h-5.3l-.72,8.18H640l-.19,2.19h14.27l-.5,5.69c5.88-8.34,9.61-21.6,12.19-35l7.71,1c-.93,4.36-1.93,8.73-3.16,12.94h18.48l-.71,8.11Zm-57.36,15.75H632l.26-2.89h-6.4Zm2.68,18.4c2.5.85,5.07,1.79,7.55,2.8a15.38,15.38,0,0,0,5.94-5.53l-11.91.62Zm5.16-34.93.24-2.81H629.5l-.24,2.81Zm-3.26-10.92-.22,2.5h4.22l.21-2.5ZM649.79,489a18.66,18.66,0,0,1-6.73,9.2c2.7,1.25,5.09,2.49,7.18,3.59a39.32,39.32,0,0,0,15.18-14.9,102.23,102.23,0,0,1-3.24-15.51,43.51,43.51,0,0,1-3.47,5.69,42.94,42.94,0,0,0-5.19-5.69l-.7,8h-15.6c-.91,1.48-1.89,3-2.89,4.52l9.17-.47.23-2.73H651l-.21,2.42,2.5-.15-.59,5.84Zm-10.5-18.09-.25,2.89h6.24l.25-2.89ZM645,457.3l.24-2.81h-4.52l-.24,2.81Zm-3.57-10.92-.22,2.5h4.53l.21-2.5Zm26.42,11.7a125,125,0,0,0,2.34,18.71,108.4,108.4,0,0,0,5-18.71Z" fill="none" stroke="#f8b500" stroke-width="5"/><path d="M469.08,385.61H437.17l8.89-101.56-32.14,9.15L416,269l62.14-20.86h2.92Z" fill="#fff"/><path d="M542.83,310.52a194.54,194.54,0,0,1-8.77,17.59l-5.74,65.65H517.86L522,346.35a104.68,104.68,0,0,1-6.89,8A71.85,71.85,0,0,0,511,342.37c8.42-8.42,16.61-21.66,21.95-35Zm56.45,1.39-7.08,80.83H581.74l.4-4.54H547.33l-.47,5.37h-10L544,311.91ZM583,378.66l5-57.21H553.17l-5,57.21ZM573,340.8l-.69,8h8.89L579,373.57H553.33l2.17-24.81h8.24l.7-8H553.79l.69-8h10.65l.83-9.44h8.52l-.83,9.44h11.2l-.69,8Zm-.71,15.55H562.8l-.85,9.72h9.44Z" fill="#fff"/><path d="M678.63,379.59c-.59,6.67-2.44,9.81-6.86,11.67-4.61,1.94-11.11,2.13-20.65,2.13a43.41,43.41,0,0,0-3.61-11.58c6.45.37,14.23.28,16.27.28,2.22,0,3-.74,3.2-2.68L668.15,366H628.52c-3.31,10.37-8.82,20.46-18.07,27.68a38.3,38.3,0,0,0-7.82-8c15-11.94,17.87-29.63,19.1-43.7l2.67-30.46h60.18Zm-9.55-24.26,1-11.29H632.94c-.4,3.51-.92,7.4-1.63,11.29Zm-34.23-33.05-1,11.29H671l1-11.29Z" fill="#fff"/><path d="M429.58,477.06a40.09,40.09,0,0,1-5.48,13.57c6.88,3.43,15.65,5.61,26.1,6.55a43.43,43.43,0,0,0-6.26,8.26q-15.62-2-25.95-8.18c-4,3.43-9.6,6.31-16.72,8.34a44.85,44.85,0,0,0-5.09-7.72c6.36-1.4,11.14-3.43,14.72-6a39.52,39.52,0,0,1-8.58-11.62l7.77-2.34a28.22,28.22,0,0,0,6.55,8,27.73,27.73,0,0,0,3.66-8.89H402.91l2-22.76h17.93l.48-5.46H403.75l.62-7.17c-1.66,3-3.49,6-5.46,9l-4.82,55.12h-8.81l3.66-41.86a99.1,99.1,0,0,1-7,7.33,54.14,54.14,0,0,0-4.08-9.52c8-7,16.24-18,21.42-29.08l8.33,2.81c-.85,1.64-1.69,3.28-2.54,5h19l.62-7.09h9.2l-.62,7.09h20.67l-.74,8.42H432.52L432,454.3H450.6l-2,22.76Zm-8.08-7.48.09-1,.59-6.7h-9.59l-.68,7.72Zm9.88-7.72-.6,6.78-.08.94h9.67l.68-7.72Z" fill="#fff"/><path d="M523.4,494.6c-.44,5-1.75,7.49-5,8.89-3.33,1.56-8.1,1.72-15.11,1.64a32.59,32.59,0,0,0-2.19-8.89c4.35.24,9.5.16,10.91.16s2.06-.47,2.19-1.87l1-11.7H498.78l-1.91,21.75h-9.35l1.9-21.75h-15.9c-2.15,8.5-5.71,17.08-11.86,23.16a30.18,30.18,0,0,0-6.8-6c9.32-9.35,11.23-23.23,12.19-34.14L469.48,438h58.87Zm-33.21-20.5.83-9.59H476.37l-.13,1.41c-.22,2.49-.54,5.3-.95,8.18Zm-12.28-27.29-.79,9.05h14.66l.79-9.05ZM516,474.1l.84-9.59H500.38l-.84,9.59Zm2.39-27.29H501.93l-.79,9.05h16.45Z" fill="#fff"/><path d="M580.52,470.9c4.37,12.4,13.55,21.52,28.41,25.5a37.81,37.81,0,0,0-7.15,8.65c-14.25-4.68-22.89-13.72-28.32-26.51-5.2,10.37-14.87,20.2-33,26.75a31.46,31.46,0,0,0-5.38-8c18.57-6.4,27.1-16.45,31.16-26.36H540.13l.83-9.51H569c.34-2.1.59-4.05.76-6l.69-7.88H545l.83-9.51h61.76l-.83,9.51H580.22l-.7,8c-.16,1.88-.41,3.83-.67,5.85h29.71l-.83,9.51Z" fill="#fff"/><path d="M686,455.08c-2.25,11.46-5.13,21.2-9.28,29.39,2.53,5.93,6.17,10.68,11.12,13.8a27.72,27.72,0,0,0-5.78,6.31,32.85,32.85,0,0,1-10.23-12.31,50.83,50.83,0,0,1-15.16,13.8,27.48,27.48,0,0,0-3-5.62l-5.37,4.29a74.54,74.54,0,0,0-9.58-5.38c-5.36,2.34-12.55,4.37-22.34,5.77a22.3,22.3,0,0,0-2.84-5.92,98,98,0,0,0,16.76-3.51,100.26,100.26,0,0,0-10-3.59,43.78,43.78,0,0,0,3.82-4.52l-7,.39-.16-6.16c3.44-.16,7.51-.31,12-.55a57.72,57.72,0,0,0,3.16-4.83H620.57l1.24-14.11h14l.19-2.19H624.11l.71-8.18H618.9l.57-6.55h5.92l.69-7.87h11.86l.41-4.76h7l-.42,4.76h12.56l-.69,7.87h5.3l-.57,6.55h-5.3l-.72,8.18H643l-.19,2.19h14.27l-.5,5.69c5.88-8.34,9.61-21.6,12.19-35l7.71,1c-.93,4.36-1.93,8.73-3.16,12.94h18.48l-.71,8.11Zm-57.36,15.75H635l.26-2.89h-6.4Zm2.68,18.4c2.5.85,5.07,1.79,7.55,2.8a15.38,15.38,0,0,0,5.94-5.53l-11.91.62Zm5.16-34.93.24-2.81H632.5l-.24,2.81Zm-3.26-10.92-.22,2.5h4.22l.21-2.5ZM652.79,486a18.66,18.66,0,0,1-6.73,9.2c2.7,1.25,5.09,2.49,7.18,3.59a39.32,39.32,0,0,0,15.18-14.9,102.23,102.23,0,0,1-3.24-15.51,43.51,43.51,0,0,1-3.47,5.69,42.94,42.94,0,0,0-5.19-5.69l-.7,8h-15.6c-.91,1.48-1.89,3-2.89,4.52l9.17-.47.23-2.73H654l-.21,2.42,2.5-.15-.59,5.84Zm-10.5-18.09-.25,2.89h6.24l.25-2.89ZM648,454.3l.24-2.81h-4.52l-.24,2.81Zm-3.57-10.92-.22,2.5h4.53l.21-2.5Zm26.42,11.7a125,125,0,0,0,2.34,18.71,108.4,108.4,0,0,0,5-18.71Z" fill="#fff"/><polygon points="269.16 620.19 297.79 620.19 302.36 568.01 269.16 620.19" fill="#eb6164"/><path d="M455.25,797.31H423.34l8.89-101.57-32.14,9.16,2.12-24.16,62.13-20.86h2.93Z" fill="none" stroke="#e60012" stroke-width="5"/><path d="M600.89,741.15q-2.45,27.84-16.27,42.94t-36.57,15.1q-22.93,0-34.16-15.19t-8.81-42.85l2.2-25.11q2.43-27.84,16.27-42.95T560.21,658q22.85,0,34.07,15.2t8.8,42.94ZM571.63,712q1.3-14.82-1.93-22.13t-11.63-7.32a14,14,0,0,0-12.54,6.8q-4.32,6.79-5.81,20.57L536.65,745q-1.35,15.39,1.9,22.52t11.65,7.12a14.17,14.17,0,0,0,12.59-6.94q4.47-6.93,5.87-21.75Z" fill="none" stroke="#e60012" stroke-width="5"/><path d="M644.21,763.88s-.33,2.78-.54,4.17c-2.95,20.92-4.74,29.81-7.7,32.87a10.43,10.43,0,0,1-7.27,3.79,69.85,69.85,0,0,1-11.32.28A22.4,22.4,0,0,0,615,794.16c4,.37,7.74.46,9.59.46a4.4,4.4,0,0,0,3.43-1.11c1.52-1.48,2.93-7,4.82-20.18h-17c1.43-8,3.08-20.47,3.86-30.37h15.83l.9-10.28H619.17l.86-9.81h27.31l-2.62,29.9H628.24c-.42,3.8-.85,7.59-1.34,11.11Zm53.15,13.8c-4.41,2.78-9,5.64-13,7.77a45.85,45.85,0,0,0,13.95,9.91,52.53,52.53,0,0,0-8.19,9c-12.29-6.66-21.25-19.63-26.16-34.44h-4.62l-1.9,21.66,12.24-3.42a53.55,53.55,0,0,0-.13,9c-17.8,5.46-21,6.94-23,8.42a36.34,36.34,0,0,0-3.87-8.79,9.87,9.87,0,0,0,4.74-7.59l1.69-19.26H645l.82-9.35h5.65l3.31-37.87h46.39l-.75,8.61H664.75l-.39,4.45h31.95l-.68,7.68H663.69l-.41,4.72h32l-.67,7.69h-32l-.41,4.72h37.13l-.82,9.35H674a45.48,45.48,0,0,0,5.28,9.54,89.26,89.26,0,0,0,10.57-8.61Z" fill="none" stroke="#e60012" stroke-width="5"/><path d="M386.71,874h-8.5l1.54-17.54h29.47l.27-3.12h-26l.53-6.08h61.13l-.53,6.08H418.54l-.28,3.12h30.1L446.83,874h-9l-2.13,5.62a115.44,115.44,0,0,0-17.63-4.37l2.25-5.22a99.88,99.88,0,0,1,17.23,3.66l1-11.15h-4.21l2.46,4a82.77,82.77,0,0,1-14.21,3.74l-2.5-4.36a101.85,101.85,0,0,0,11-3.36H417.73l-1.42,16.22h-9l1.42-16.22h-14.9a79.69,79.69,0,0,1,11.89,3.2l-2.93,5a91.28,91.28,0,0,0-13.08-3.82l2.57-4.37H388l-.94,10.69c4.8-.55,11.44-1.49,18.23-2.5l-.15,5.3c-6,1.33-11.85,2.65-16.86,3.74Zm46.67,35.17c4,0,4.78-1.17,5.9-7.72a22,22,0,0,0,7.47,2.88c-1.91,9.36-4.71,11.85-13.2,11.85H417.17c-10.6,0-13.45-2.18-12.74-10.29l0-.23H391.5l-.29,3.35h-8.89l2.48-28.3h54l-2.18,24.95H413.34l0,.23c-.25,2.81.65,3.28,5.32,3.28ZM405,899.44l.31-3.51H392.36l-.31,3.51ZM393.14,887l-.31,3.51h12.95l.3-3.51ZM428,899.44l.3-3.51H414.19l-.31,3.51ZM429.09,887H415l-.3,3.51h14.11Z" fill="none" stroke="#e60012" stroke-width="5"/><path d="M526.27,887.43H496l-1.64,18.79c-.46,5.23-1.86,7.8-5.65,9.28-4,1.48-9.27,1.72-16.44,1.64a34.31,34.31,0,0,0-3.14-9.59c5.43.31,11.52.31,13.16.23s2.3-.46,2.42-1.79l1.62-18.56H455.47l.82-9.27h30.87l.95-10.84a109,109,0,0,0,15.85-9.2h-38.2l.8-9.2h48.58l2.22-.47,6.55,5.38a131.23,131.23,0,0,1-26.56,18.4l-.52,5.93h30.25Z" fill="none" stroke="#e60012" stroke-width="5"/><path d="M603.57,888.84c-4.65,3.27-10.08,6.47-14.75,9.12a40.26,40.26,0,0,0,16.8,9.36,42.62,42.62,0,0,0-6.8,8.18c-15.65-5.53-24.33-16.84-28.77-33a88.65,88.65,0,0,1-10.82,8.66l-1.16,13.25,17.25-4.6a47.49,47.49,0,0,0,.84,8.27c-22.88,6.62-26.49,7.71-28.95,9.12a27.75,27.75,0,0,0-3.1-8.19,7.5,7.5,0,0,0,4.43-6.16l.5-5.69a88.46,88.46,0,0,1-11.1,4.76,38.62,38.62,0,0,0-5.35-7.49,88.94,88.94,0,0,0,26-12.78H536.44l.69-7.88h29.55l.38-4.37H544.68l.65-7.4h22.38l.36-4.06h-26.2l.69-7.87h26.2l.49-5.61h9.35l-.49,5.61h27.14l-.69,7.87H577.42l-.35,4.06h24.09l-.65,7.4H576.42l-.38,4.37h29.78l-.69,7.88H578.94a38.58,38.58,0,0,0,5.07,10.6,114.07,114.07,0,0,0,12.34-9.12Z" fill="none" stroke="#e60012" stroke-width="5"/><path d="M682.88,907.39H652.55l-.87,9.9h-9.51l.87-9.9H613.41l.69-7.95h29.63l.35-4.05H621.86l2.56-29.24H679.7l-2.55,29.24H653.6l-.36,4.05h30.33Zm-33.16-44.28H621.88l1.36-15.59h27.84Zm-7.78-10.06H631l-.4,4.53h10.92Zm2.77,35.24.36-4.21H631.9l-.37,4.21Zm-12.23-10.83h13.17l.37-4.14H632.84Zm36.14,6.62h-14l-.37,4.21h14Zm13.84-21h-28l1.37-15.59h28Zm-12.9,10.21h-14l-.36,4.14h14Zm5.13-20.27H663.54l-.4,4.53h11.15Z" fill="none" stroke="#e60012" stroke-width="5"/><path d="M458.25,794.31H426.34l8.89-101.57-32.14,9.16,2.12-24.16,62.13-20.86h2.93Z" fill="#fff"/><path d="M603.89,738.15q-2.45,27.84-16.27,42.94t-36.57,15.1q-22.93,0-34.16-15.19t-8.81-42.85l2.2-25.11q2.43-27.84,16.27-42.95T563.21,655q22.85,0,34.07,15.2t8.8,42.94ZM574.63,709q1.3-14.82-1.93-22.13t-11.63-7.32a14,14,0,0,0-12.54,6.8q-4.32,6.79-5.81,20.57L539.65,742q-1.35,15.39,1.9,22.52t11.65,7.12a14.17,14.17,0,0,0,12.59-6.94q4.47-6.93,5.87-21.75Z" fill="#fff"/><path d="M647.21,760.88s-.33,2.78-.54,4.17c-2.95,20.92-4.74,29.81-7.7,32.87a10.43,10.43,0,0,1-7.27,3.79,69.85,69.85,0,0,1-11.32.28A22.4,22.4,0,0,0,618,791.16c4,.37,7.74.46,9.59.46a4.4,4.4,0,0,0,3.43-1.11c1.52-1.48,2.93-7,4.82-20.18h-17c1.43-8,3.08-20.47,3.86-30.37h15.83l.9-10.28H622.17l.86-9.81h27.31l-2.62,29.9H631.24c-.42,3.8-.85,7.59-1.34,11.11Zm53.15,13.8c-4.41,2.78-9,5.64-13,7.77a45.85,45.85,0,0,0,13.95,9.91,52.53,52.53,0,0,0-8.19,9c-12.29-6.66-21.25-19.63-26.16-34.44h-4.62l-1.9,21.66,12.24-3.42a53.55,53.55,0,0,0-.13,9c-17.8,5.46-21,6.94-23,8.42a36.34,36.34,0,0,0-3.87-8.79,9.87,9.87,0,0,0,4.74-7.59l1.69-19.26H648l.82-9.35h5.65l3.31-37.87h46.39l-.75,8.61H667.75l-.39,4.45h31.95l-.68,7.68H666.69l-.41,4.72h32l-.67,7.69h-32l-.41,4.72h37.13l-.82,9.35H677a45.48,45.48,0,0,0,5.28,9.54,89.26,89.26,0,0,0,10.57-8.61Z" fill="#fff"/><path d="M389.71,871h-8.5l1.54-17.54h29.47l.27-3.12h-26l.53-6.08h61.13l-.53,6.08H421.54l-.28,3.12h30.1L449.83,871h-9l-2.13,5.62a115.44,115.44,0,0,0-17.63-4.37l2.25-5.22a99.88,99.88,0,0,1,17.23,3.66l1-11.15h-4.21l2.46,4a82.77,82.77,0,0,1-14.21,3.74l-2.5-4.36a101.85,101.85,0,0,0,11-3.36H420.73l-1.42,16.22h-9l1.42-16.22h-14.9a79.69,79.69,0,0,1,11.89,3.2l-2.93,5a91.28,91.28,0,0,0-13.08-3.82l2.57-4.37H391l-.94,10.69c4.8-.55,11.44-1.49,18.23-2.5l-.15,5.3c-6,1.33-11.85,2.65-16.86,3.74Zm46.67,35.17c4,0,4.78-1.17,5.9-7.72a22,22,0,0,0,7.47,2.88c-1.91,9.36-4.71,11.85-13.2,11.85H420.17c-10.6,0-13.45-2.18-12.74-10.29l0-.23H394.5l-.29,3.35h-8.89l2.48-28.3h54l-2.18,24.95H416.34l0,.23c-.25,2.81.65,3.28,5.32,3.28ZM408,896.44l.31-3.51H395.36l-.31,3.51ZM396.14,884l-.31,3.51h12.95l.3-3.51ZM431,896.44l.3-3.51H417.19l-.31,3.51ZM432.09,884H418l-.3,3.51h14.11Z" fill="#fff"/><path d="M529.27,884.43H499l-1.64,18.79c-.46,5.23-1.86,7.8-5.65,9.28-4,1.48-9.27,1.72-16.44,1.64a34.31,34.31,0,0,0-3.14-9.59c5.43.31,11.52.31,13.16.23s2.3-.46,2.42-1.79l1.62-18.56H458.47l.82-9.27h30.87l.95-10.84a109,109,0,0,0,15.85-9.2h-38.2l.8-9.2h48.58l2.22-.47,6.55,5.38a131.23,131.23,0,0,1-26.56,18.4l-.52,5.93h30.25Z" fill="#fff"/><path d="M606.57,885.84c-4.65,3.27-10.08,6.47-14.75,9.12a40.26,40.26,0,0,0,16.8,9.36,42.62,42.62,0,0,0-6.8,8.18c-15.65-5.53-24.33-16.84-28.77-33a88.65,88.65,0,0,1-10.82,8.66l-1.16,13.25,17.25-4.6a47.49,47.49,0,0,0,.84,8.27c-22.88,6.62-26.49,7.71-28.95,9.12a27.75,27.75,0,0,0-3.1-8.19,7.5,7.5,0,0,0,4.43-6.16l.5-5.69a88.46,88.46,0,0,1-11.1,4.76,38.62,38.62,0,0,0-5.35-7.49,88.94,88.94,0,0,0,26-12.78H539.44l.69-7.88h29.55l.38-4.37H547.68l.65-7.4h22.38l.36-4.06h-26.2l.69-7.87h26.2l.49-5.61h9.35l-.49,5.61h27.14l-.69,7.87H580.42l-.35,4.06h24.09l-.65,7.4H579.42l-.38,4.37h29.78l-.69,7.88H581.94a38.58,38.58,0,0,0,5.07,10.6,114.07,114.07,0,0,0,12.34-9.12Z" fill="#fff"/><path d="M685.88,904.39H655.55l-.87,9.9h-9.51l.87-9.9H616.41l.69-7.95h29.63l.35-4.05H624.86l2.56-29.24H682.7l-2.55,29.24H656.6l-.36,4.05h30.33Zm-33.16-44.28H624.88l1.36-15.59h27.84Zm-7.78-10.06H634l-.4,4.53h10.92Zm2.77,35.24.36-4.21H634.9l-.37,4.21Zm-12.23-10.83h13.17l.37-4.14H635.84Zm36.14,6.62h-14l-.37,4.21h14Zm13.84-21h-28l1.37-15.59h28Zm-12.9,10.21h-14l-.36,4.14h14Zm5.13-20.27H666.54l-.4,4.53h11.15Z" fill="#fff"/><rect x="860.06" y="963.71" width="22.7" height="43.01" rx="6.13" transform="translate(501.85 -277.1) rotate(25.17)" fill="#cce7f3"/><path d="M868.09,1008a10.72,10.72,0,0,1-4.53-1l-3.88-1.83a10.74,10.74,0,0,1-5.14-14.25L865,968.61a10.74,10.74,0,0,1,14.25-5.14l3.89,1.83a10.73,10.73,0,0,1,5.14,14.25l-10.47,22.27a10.64,10.64,0,0,1-6.06,5.51A10.81,10.81,0,0,1,868.09,1008Zm6.62-42.5a7.71,7.71,0,0,0-7,4.43l-10.46,22.26A7.71,7.71,0,0,0,861,1002.4l3.88,1.83a7.74,7.74,0,0,0,10.24-3.69l10.47-22.27A7.7,7.7,0,0,0,881.86,968L878,966.2A7.7,7.7,0,0,0,874.71,965.47Z" fill="#8bcae8"/><path d="M857.7,987.67l-5.06,10.77-3.52-1.66a9.68,9.68,0,0,0-8.23,17.52l15.32,7.2a9.69,9.69,0,0,0,12.87-4.64l9.17-19.53Z" fill="#fdd762"/><path d="M860.3,1023.92a11.08,11.08,0,0,1-4.73-1.06l-15.32-7.2a11.18,11.18,0,0,1,9.51-20.24l2.16,1L857,985.67l23.28,10.94-9.82,20.89A11.2,11.2,0,0,1,860.3,1023.92ZM845,997.37a8.17,8.17,0,0,0-3.49,15.57l15.32,7.19a8.17,8.17,0,0,0,10.86-3.91l8.54-18.16-17.82-8.38-5.06,10.76-4.89-2.29A8.07,8.07,0,0,0,845,997.37Z" fill="#f8b500"/><rect x="905.25" y="971.41" width="22.7" height="43.01" rx="6.13" transform="translate(615.2 -324.35) rotate(29.82)" fill="#cce7f3"/><path d="M912.33,1015.37A10.66,10.66,0,0,1,907,1014h0l-3.72-2.13a10.72,10.72,0,0,1-4-14.62l12.24-21.35a10.73,10.73,0,0,1,14.62-4l3.72,2.13a10.74,10.74,0,0,1,4,14.62L921.64,1010A10.7,10.7,0,0,1,912.33,1015.37Zm-3.81-4a7.71,7.71,0,0,0,10.51-2.85l12.23-21.35a7.72,7.72,0,0,0-2.85-10.5l-3.72-2.14a7.73,7.73,0,0,0-10.51,2.85L902,998.7a7.68,7.68,0,0,0,2.85,10.5Z" fill="#8bcae8"/><path d="M902.58,994.56l-5.75,10-3.37-1.93a9.67,9.67,0,1,0-9.63,16.78l14.68,8.42a9.69,9.69,0,0,0,13.21-3.58l10.56-18.42Z" fill="#fdd762"/><path d="M903.31,1030.64a11.09,11.09,0,0,1-5.54-1.48l-14.69-8.42a11.18,11.18,0,0,1,11.12-19.4l2.07,1.18,5.75-10,22.31,12.8L913,1025A11.2,11.2,0,0,1,903.31,1030.64Zm-14.64-27.77a8.38,8.38,0,0,0-2.16.29,8.17,8.17,0,0,0-1.93,15l14.68,8.41a8.17,8.17,0,0,0,11.15-3l9.81-17.11-17.09-9.79-5.74,10-4.68-2.69A8.18,8.18,0,0,0,888.67,1002.87Z" fill="#f8b500"/><path d="M940.68,995.52a68.9,68.9,0,0,0,34.65-133.14,56.64,56.64,0,0,0-107.94,3.07,56.7,56.7,0,0,0-16.22,112.07Z" fill="#cce7f3"/><path d="M954.28,998.38A70.21,70.21,0,0,1,940.39,997l-89.52-18A58.21,58.21,0,0,1,866.3,863.85a58.14,58.14,0,0,1,110.2-2.67,70.4,70.4,0,0,1-22.22,137.2ZM941,994a67.39,67.39,0,0,0,33.89-130.22l-.72-.23-.24-.71a55.14,55.14,0,0,0-105.07,3l-.34,1.2-1.24-.11a55.2,55.2,0,0,0-15.8,109.1Z" fill="#8bcae8"/><path d="M823.71,895.57,811,873a8.46,8.46,0,0,1,3.21-11.5h0a8.46,8.46,0,0,1,11.51,3.21l12.73,22.59" fill="#cce7f3"/><path d="M823.71,897.07a1.51,1.51,0,0,1-1.32-.76l-12.73-22.6a10,10,0,0,1,3.78-13.56A10,10,0,0,1,827,863.94l12.74,22.59a1.51,1.51,0,0,1-2.63,1.48l-12.74-22.59a6.94,6.94,0,0,0-9.45-2.64,7,7,0,0,0-2.64,9.45L825,894.83a1.51,1.51,0,0,1-.57,2A1.54,1.54,0,0,1,823.71,897.07Z" fill="#8bcae8"/><path d="M1011.67,934.26l23.63-10.68a8.47,8.47,0,0,0,4.23-11.17h0a8.48,8.48,0,0,0-11.18-4.23l-23.64,10.68" fill="#cce7f3"/><path d="M1011.67,935.76a1.5,1.5,0,0,1-.62-2.88l23.63-10.67a6.94,6.94,0,0,0-5.71-12.65l-23.64,10.67a1.5,1.5,0,0,1-1.24-2.74l23.64-10.68a10,10,0,1,1,8.19,18.14l-23.63,10.68A1.5,1.5,0,0,1,1011.67,935.76Z" fill="#8bcae8"/><circle cx="869.11" cy="890.92" r="17.59" fill="#f7d8d7"/><path d="M891.74,900.91a.59.59,0,0,0-.74.61c.19,2.93,1.59,13,12,15.57a17.94,17.94,0,0,0,20-7.69.6.6,0,0,0-.37-.9Z" fill="#0d74b4"/><path d="M899,902.7l-1.35,5.48a.85.85,0,0,0,.63,1.05l10,2.46a.86.86,0,0,0,1-.63l1.36-5.49Z" fill="#fff"/><circle cx="953.88" cy="910.22" r="17.59" fill="#f7d8d7"/><ellipse cx="894.46" cy="872.82" rx="14.94" ry="13.32" transform="translate(-168.22 1530.54) rotate(-76.05)" fill="#fff"/><ellipse cx="934.13" cy="881.27" rx="14.94" ry="13.32" transform="translate(-146.31 1575.45) rotate(-76.05)" fill="#fff"/><ellipse cx="894.35" cy="873.27" rx="9.33" ry="7.74" transform="translate(-168.74 1530.77) rotate(-76.05)" fill="#0d74b4"/><ellipse cx="934.05" cy="881.25" rx="9.33" ry="7.74" transform="translate(-146.36 1575.36) rotate(-76.05)" fill="#0d74b4"/><ellipse cx="885.62" cy="1045.77" rx="58.69" ry="10.78" fill="#e5e5e5"/><path d="M795.82,926.14c-4.34.85-21.69,24.1-21.69,24.1l-.61,1.61S804.91,948.36,806,947C809.11,943.4,799.39,925.44,795.82,926.14Zm-21.47,24.6c5.73-7.32,18.78-18,21.6-20.28,2.52,2.57,6.31,10.15,6.81,13.57C799.15,944.78,783.51,949.63,774.35,950.74Z" fill="#eb6164"/><path d="M759.42,921.37c-6.77-9.17-10.38-7.63-12.94-6.52s-12.09,13-9.11,19.16,32.3,18.36,32.3,18.36l1.06-2.29S766.19,930.54,759.42,921.37Zm-18.6,11c-1.48-3.09,4.83-12.37,7.31-14a4.53,4.53,0,0,1,1.59-.48c.55,0,2.64.42,6.61,5.81,4.35,5.88,11.28,20.39,13,26.49C757.5,944.89,742.24,935,740.82,932.34Z" fill="#eb6164"/><rect x="768.49" y="947.13" width="6.46" height="9.19" rx="2.53" fill="#eb6164"/><path d="M819.25,1033.19H730a9.15,9.15,0,0,1-9.13-8.55L716.23,953H832.4l-4.87,74.62C827.33,1030.73,823.68,1033.19,819.25,1033.19Z" fill="#fdd762"/><path d="M837.2,968.62l-126.11.24-1.34-8.11a8,8,0,0,1,7.88-9.27l114.12.32c4.06,0,7.23,2.51,6.87,5.41Z" fill="#ffe893"/><rect x="771.59" y="951.59" width="2.4" height="17.19" fill="#eb6164"/><rect x="774.02" y="968.7" width="3" height="64.61" fill="#eb6164"/></g></svg>