<svg xmlns="http://www.w3.org/2000/svg" xmlns:xlink="http://www.w3.org/1999/xlink" viewBox="0 0 1080 1080">
  <defs>
    <clipPath id="5347f532-a977-46bd-8f14-51733412853a">
      <rect width="1080" height="1080" style="fill: none"/>
    </clipPath>
  </defs>
  <title>手機版_BANNER_Blog推廣</title>
  <g id="f27eab23-4b5c-4941-b761-bd5c08898cf0" data-name="圖層 1">
    <g style="clip-path: url(#5347f532-a977-46bd-8f14-51733412853a)">
      <rect width="1080" height="1080" style="fill: #fff"/>
      <g>
        <path d="M21,268.56l24.71,61.85a4.59,4.59,0,0,1-2.56,6L-64.32,379.31a4.59,4.59,0,0,1-6-2.56L-95,314.9a4.59,4.59,0,0,1,2.56-6L15.06,266A4.59,4.59,0,0,1,21,268.56Z" style="fill: #fffaec"/>
        <path d="M21,268.56,22.39,272l-34.92,54.74a14.62,14.62,0,0,1-16,6.56l-65.64-16.42-.78-2a4.59,4.59,0,0,1,2.56-6L15.05,266A4.59,4.59,0,0,1,21,268.56Z" style="fill: #fff3d6"/>
      </g>
      <g>
        <circle cx="723.98" cy="583.06" r="31.56" style="fill: #f3fafe;stroke: #f3fafe;stroke-miterlimit: 10;stroke-width: 1.89151525497437px"/>
        <circle cx="687.32" cy="534.16" r="14.6" style="fill: #f3fafe;stroke: #f3fafe;stroke-miterlimit: 10;stroke-width: 1.89151525497437px"/>
      </g>
      <g>
        <path d="M1094.75,1029.34,972.17,981.78a15.12,15.12,0,0,1-8.63-19.57l55.69-143.5a15.12,15.12,0,0,1,19.57-8.63l122.58,47.57a15.12,15.12,0,0,1,8.63,19.57l-55.69,143.5A15.12,15.12,0,0,1,1094.75,1029.34Z" style="fill: #ebf6fb"/>
        <g>
          <rect x="1028.19" y="859.97" width="12.95" height="114.91" transform="translate(402.02 -312.19) rotate(21.21)" style="fill: #fff"/>
          <rect x="1046.22" y="866.97" width="12.95" height="114.91" transform="translate(405.74 -318.23) rotate(21.21)" style="fill: #fff"/>
          <rect x="1064.25" y="873.96" width="12.95" height="114.91" transform="translate(409.52 -324.29) rotate(21.21)" style="fill: #fff"/>
          <rect x="1082.28" y="880.96" width="12.95" height="114.91" transform="translate(413.3 -330.35) rotate(21.21)" style="fill: #fff"/>
          <rect x="1100.31" y="887.96" width="12.95" height="114.91" transform="translate(417.01 -336.38) rotate(21.21)" style="fill: #fff"/>
          <rect x="1051.59" y="854.1" width="12.95" height="6.07" transform="translate(381.84 -324.77) rotate(21.21)" style="fill: #fff"/>
          <rect x="1030.05" y="856.74" width="12.95" height="6.07" transform="translate(381.26 -316.75) rotate(21.21)" style="fill: #fff"/>
          <rect x="1023.12" y="874.59" width="12.95" height="6.07" transform="translate(387.2 -313.01) rotate(21.21)" style="fill: #fff"/>
          <rect x="1016.19" y="892.44" width="12.95" height="6.07" transform="translate(393.26 -309.33) rotate(21.21)" style="fill: #fff"/>
          <rect x="1009.26" y="910.3" width="12.95" height="6.07" transform="translate(399.23 -305.61) rotate(21.21)" style="fill: #fff"/>
          <rect x="1009.26" y="910.3" width="12.95" height="6.07" transform="translate(399.23 -305.61) rotate(21.21)" style="fill: #fff"/>
          <rect x="1002.33" y="928.15" width="12.95" height="6.07" transform="translate(405.2 -301.88) rotate(21.21)" style="fill: #fff"/>
          <rect x="995.4" y="946.01" width="12.95" height="6.07" transform="translate(411.24 -298.19) rotate(21.21)" style="fill: #fff"/>
          <rect x="1069.61" y="861.1" width="12.95" height="6.07" transform="translate(385.53 -330.78) rotate(21.21)" style="fill: #fff"/>
        </g>
        <path d="M1141.54,874.41,1047.61,838a7.09,7.09,0,0,1-4-9.17h0a7.09,7.09,0,0,1,9.17-4l93.93,36.45a7.08,7.08,0,0,1,4,9.17h0A7.08,7.08,0,0,1,1141.54,874.41Z" style="fill: #fff"/>
      </g>
      <g style="opacity: 0.30000000000000004">
        <path d="M648.08,902.57l-23.47,42.95a3.37,3.37,0,0,1-4.58,1.34L545.4,906.06a3.37,3.37,0,0,1-1.34-4.58l23.47-42.95a3.37,3.37,0,0,1,4.58-1.34L646.74,898A3.37,3.37,0,0,1,648.08,902.57Z" style="fill: #ebf6fb"/>
        <path d="M648.08,902.57l-1.3,2.37-47.36,5.84a10.75,10.75,0,0,1-11.22-6L566.79,859.9l.74-1.36a3.37,3.37,0,0,1,4.58-1.34L646.74,898A3.37,3.37,0,0,1,648.08,902.57Z" style="fill: #cfebf8"/>
      </g>
      <g>
        <path d="M1047,33.91c7-19.65-9.27-39.41-33.8-37a25.36,25.36,0,0,0-14.84,6.69C989.43,12,987.62,24.5,989,35.93l1.66,47.32a7.49,7.49,0,0,0,13.17,4.61l30.85-36C1044.72,41.08,1047,33.91,1047,33.91ZM1021.17,44c-17.06,3.21-26-17.08-12.94-29.33a12.51,12.51,0,0,1,6.18-3.17c17.07-3.21,26,17.08,12.94,29.33A12.51,12.51,0,0,1,1021.17,44Z" style="fill: #fdeeed"/>
        <ellipse cx="997.71" cy="86.9" rx="11" ry="45.67" transform="translate(582.44 998.23) rotate(-70.48)" style="fill: none;stroke: #fdeeed;stroke-miterlimit: 10;stroke-width: 2px"/>
      </g>
      <g id="1a2661e0-1f06-488c-bbc3-702e218b80c9" data-name="&lt;群組&gt;">
        <circle id="30a63614-d0ae-419d-87b5-01f402dd730a" data-name="&lt;路徑&gt;" cx="323.37" cy="184.06" r="59.23" style="fill: #efefef"/>
        <circle id="513b2dd4-257d-4dce-b6d4-d2a9c31b717a" data-name="&lt;路徑&gt;" cx="323.37" cy="184.06" r="49.96" style="fill: #fff;stroke: #efefef;stroke-linecap: round;stroke-linejoin: round;stroke-width: 3.18876798290097px"/>
        <polyline id="e3e7c014-821c-4a99-96dc-8e9f6ffcb590" data-name="&lt;路徑&gt;" points="323.37 147.92 323.37 184.06 347.82 184.06" style="fill: none;stroke: #efefef;stroke-linecap: round;stroke-linejoin: round;stroke-width: 6.37753596580195px"/>
      </g>
    </g>
  </g>
  <g id="44575a85-3cf6-451b-868f-cc784ff6dbfb" data-name="圖層 3">
    <g id="3283a674-b335-4429-a317-778f034a6dbe" data-name="&lt;群組&gt;">
      <rect id="508690a9-6999-4757-9ac4-de3750954c8c" data-name="&lt;矩形&gt;" x="66.4" y="921.11" width="296.2" height="124.89" rx="2.82" ry="2.82" style="fill: #f6faed"/>
      <path d="M101.67,938.12l1.44,2.39c-6.54,3.67-12.6,10.05-12.6,17.55,0,6.54,4.63,10.37,9.25,10.37,1,0,1.59-.48,1.59-1.44q0-1.2-1.44-1.44c-2.23-.48-4.15-2.55-4.15-6.06,0-4.63,3.83-7.66,8.46-7.66a8.66,8.66,0,0,1,8.62,8.94c0,6.22-5.11,10.69-11.33,10.69-8,0-13.88-5.11-13.88-13.4C87.63,949.29,94.33,942.27,101.67,938.12Zm29.52,0,1.44,2.39c-6.54,3.67-12.6,10.05-12.6,17.55,0,6.54,4.63,10.37,9.25,10.37,1,0,1.6-.48,1.6-1.44q0-1.2-1.44-1.44c-2.23-.48-4.15-2.55-4.15-6.06,0-4.63,3.83-7.66,8.46-7.66a8.65,8.65,0,0,1,8.62,8.94c0,6.22-5.11,10.69-11.33,10.69-8,0-13.88-5.11-13.88-13.4C117.15,949.29,123.85,942.27,131.19,938.12Z" style="fill: #fff"/>
      <line id="ee85e393-dec4-4d47-bdb1-4c3cfa554f1b" data-name="&lt;路徑&gt;" x1="159.47" y1="963.57" x2="328.01" y2="963.57" style="fill: none;stroke: #fff;stroke-linecap: round;stroke-linejoin: round;stroke-width: 3.43735430667722px"/>
      <line id="652f9c73-0042-40e8-a6d7-e02fd0dc25e9" data-name="&lt;路徑&gt;" x1="159.47" y1="978.04" x2="328.01" y2="978.04" style="fill: none;stroke: #fff;stroke-linecap: round;stroke-linejoin: round;stroke-width: 3.43735430667722px"/>
      <line id="fabb562f-2a1f-4d19-99f7-8361d80997f9" data-name="&lt;路徑&gt;" x1="159.47" y1="992.52" x2="328.01" y2="992.52" style="fill: none;stroke: #fff;stroke-linecap: round;stroke-linejoin: round;stroke-width: 3.43735430667722px"/>
      <line id="1097528d-8b2f-4d3b-995d-fa4a20044543" data-name="&lt;路徑&gt;" x1="159.47" y1="1007" x2="328.01" y2="1007" style="fill: none;stroke: #fff;stroke-linecap: round;stroke-linejoin: round;stroke-width: 3.43735430667722px"/>
    </g>
    <g>
      <g>
        <polygon points="94.45 217.67 77.44 314.18 240.99 314.18 226.31 358.63 275.05 314.18 292.07 217.67 94.45 217.67" style="fill: #f8b500"/>
        <g>
          <path d="M159.51,284.07h-7.66l-10.53-24.82L137,284.07h-7.66l6.65-37.73h7.66l10.54,24.88,4.39-24.88h7.63Z" style="fill: #fff"/>
          <path d="M191.43,267.72h-14.7L175,277.82H192.2l-1.1,6.24H166.19l6.65-37.73H197.7l-1.11,6.3h-17.2l-1.59,9h14.7Z" style="fill: #fff"/>
          <path d="M226.45,273.19l9.74-26.84h7.63l-14.89,37.73h-7.71l-1.6-25.24-10.5,25.24h-7.71l-1.59-37.73h7.63l.3,26.79,10.85-26.79h6.48Z" style="fill: #fff"/>
        </g>
      </g>
      <g>
        <path d="M75.55,481.94q29-2.07,58.06-3.56c19.35-1,38.7-1.9,58.06-2.72q58.06-2.4,116.11-3.78,116.11-2.82,232.22-2.77t232.22,2.74q58.06,1.46,116.11,3.78c19.35.82,38.7,1.69,58.06,2.73s38.7,2.19,58.06,3.58q-29,2.09-58.06,3.58c-19.35,1-38.7,1.9-58.06,2.73q-58.06,2.41-116.11,3.78Q656.11,494.84,540,494.76T307.78,492q-58.06-1.47-116.11-3.78c-19.35-.82-38.7-1.68-58.06-2.72S94.9,483.32,75.55,481.94Z" style="fill: #fffaec"/>
        <g>
          <path d="M117.6,477.35l26.64-151.08h52.92q27.49,0,39.85,10.53t8.77,30.87a40.48,40.48,0,0,1-9.16,19.56,42.12,42.12,0,0,1-18.06,12.4q11.11,2.91,16.25,11.72t2.89,21.58q-3.84,21.79-19.72,33t-41.65,11.41Zm42.73-65.78-7.19,40.78H179.8q11,0,18.1-5.24a22,22,0,0,0,8.73-14.47q3.66-20.75-17.76-21.06Zm3.88-22h23q23.62-.41,26.87-18.78,1.81-10.27-3.36-14.79t-18-4.51H170.92Z" style="fill: #0095d8"/>
          <path d="M282.89,477.35H252.8L280.9,318H311Z" style="fill: #0095d8"/>
          <path d="M313,420.18a76.94,76.94,0,0,1,11.68-29.78A60.52,60.52,0,0,1,376.1,363q22.72,0,34.64,13.9t9.37,37.77L419,422.36q-4.56,25.84-21.73,41.45t-41.46,15.62q-24.28,0-36-15.56t-7-42.33Zm29.61,2.13q-2.82,16,1.7,24.47T360,455.25a24.05,24.05,0,0,0,18.49-8.37q7.6-8.37,10.84-26.76,2.77-15.69-1.83-24.32t-15.7-8.62a23.71,23.71,0,0,0-18.53,8.57Q345.78,404.33,342.61,422.31Z" style="fill: #0095d8"/>
          <path d="M433.42,420.39q4.56-25.84,19.63-41.61T489,363q18.47,0,26.51,12.66l3.11-10.58H545.8L526.66,473.62a56.37,56.37,0,0,1-11.21,25.63,55.36,55.36,0,0,1-21.76,16.6,73.22,73.22,0,0,1-29.44,5.71,55.49,55.49,0,0,1-23.2-4.93q-10.86-4.93-15.5-12.71L442,485.65q9,12.55,25,12.56,11.93,0,19.7-6.38t9.83-18.11l1.06-6a41.39,41.39,0,0,1-29.36,11.73q-20.23,0-29.95-15.82t-5.1-42ZM463,422.62q-2.69,15.28,1.9,24t15.28,8.68q13.7,0,21.42-10.29L510,397.68q-4.21-10.29-17.59-10.29-10.79,0-18.52,8.83T463,422.62Z" style="fill: #0095d8"/>
        </g>
        <g>
          <path d="M629.5,379.66a99.42,99.42,0,0,0,40.67,31l-8.41,13a75.29,75.29,0,0,1-11-5.36l-1.25,7.08H624.72l-2.29,13h27.66L648,450H620.37l-2.31,13.08h38L654,474.75H566.49l2.06-11.69h37.16L608,450H582.47l2.06-11.69h25.55l2.29-13H587.66l.93-5.25c-3.68,1.72-7.11,3.22-10.28,4.4l-4.94-12.11c7.53-2.57,16.29-6.75,26.26-12.44,4.7-2.68,9.07-5.36,13.16-8.15H599.7l2.14-12.11Zm14,34A105.79,105.79,0,0,1,625,397.46a203.34,203.34,0,0,1-18.32,12.86c-2.13,1.29-4,2.36-5.76,3.32Z" style="fill: #f8b500"/>
          <path d="M716.57,379.23l-1.34,7.61h16.89l-1.91,10.83h-4.54c-2,4.72-4,9.11-6.27,13.4h10.13L727.61,422h-19l-1.17,6.65h17.74l-1.93,10.93h-16a158.26,158.26,0,0,1,13.22,11.26l-8.74,10.08c-2.74-3.65-5.44-6.86-8.18-9.86l-4.4,25H688l4-22.94c-.54.64-1,1.07-1.32,1.5-6.38,6.22-11.58,10.61-15.71,13.08l-4-10.08a72.2,72.2,0,0,0,13.3-10.18,100.28,100.28,0,0,0,7.08-7.83H677.53l1.93-10.93h16.89l1.17-6.65H678.94l1.93-10.94h10c.18-4.61.34-9.11.46-13.4h-6l1.91-10.83h16l1.34-7.61Zm-8.25,31.84c2.25-4.4,4.31-8.9,6.27-13.4h-13c.09,4.29.26,8.68.28,13.4Zm68.61-20.9a170.2,170.2,0,0,1-29.62,6.33l-2.65,15h30.19l-1.93,10.93H764.7L755.25,476H743.63l9.45-53.6H742.63q-4.73,24.12-9.67,35.06A67.92,67.92,0,0,1,720.51,476l-8-8a59.53,59.53,0,0,0,10.15-15.65c3.38-7.18,7-21.23,10.68-42l4.22-23.91c14-1.5,25.72-4,35.05-7.18Z" style="fill: #f8b500"/>
          <path d="M840.08,380.52l-5.16,29.27h38.75L871.51,422H832.77l-7,39.77H869l-2.14,12.11H776.22l2.14-12.11H813l14.33-81.26Z" style="fill: #f8b500"/>
          <path d="M898.92,442.05c-3.1,10.4-5.79,19.08-8.27,25.94l-10.18-3.32q4.59-12.54,8.22-25.09ZM921.26,383Q913.58,394.24,907,402.6c1.12.86,2,1.72,2.94,2.47,3.8-5.36,7.36-10.61,10.59-15.76l10.72,5c-4.74,6.54-9.27,12.44-13.48,17.8l8.23-2.36a114.27,114.27,0,0,1,2.24,22.62l-11.37,3.43q.05-2.09.1-4.18c-1.52.21-3,.43-4.42.54l-7.58,43H893.92l7.37-41.81c-4.3.43-8.7.86-13,1.18l-.11-11.36,8-.32c2-2.36,3.91-4.82,5.81-7.18-4-3.64-8-7.4-12.06-11.26l8.52-8.79a2.49,2.49,0,0,0,.64.54,209.12,209.12,0,0,0,12-18.12Zm-5.35,31.52c-2.18,2.79-4.2,5.25-6.09,7.61,2.34-.11,4.68-.21,6.94-.43C916.58,419.11,916.26,416.75,915.92,414.5Zm49.52-33.55a52,52,0,0,1-3.26,5.9H987l-7.3,41.38H961.22l-1.59,9c.38.86.86,1.72,1.34,2.57a82.88,82.88,0,0,0,14.84-8.15l5.39,9.54a79.15,79.15,0,0,1-14.48,7.29,36.82,36.82,0,0,0,12.89,10.72L971.41,471a41.14,41.14,0,0,1-11.16-9.75,28.42,28.42,0,0,1-3.85-5.68l-.87,4.93c-1,5.68-2.53,9.54-4.36,11.58q-3.47,3.54-10.76,3.54a19.24,19.24,0,0,1-9-2.14l-.08-7.93a85.3,85.3,0,0,1-9.2,6.65l-5-9.54a3.3,3.3,0,0,0,.82-.43l-5.56,1.61a149.92,149.92,0,0,0,.22-22.19L923,438.73a139.24,139.24,0,0,1,.73,19.83,46.48,46.48,0,0,0,7.82-6.65,63.69,63.69,0,0,0,6.53-7.72H925.35l1.85-10.51h21.43l1-5.47H929.86l7.3-41.38h13a69.31,69.31,0,0,0,3.71-8.47Zm-24,74.83a78.39,78.39,0,0,1-7.2,7.29,17.48,17.48,0,0,0,6.55,1.18A2.28,2.28,0,0,0,943,463a24.22,24.22,0,0,0,1.47-5.36l1.3-7.4C944.33,452.13,942.94,454.06,941.47,455.78ZM970,417.83l1-5.47H944.17l-1,5.47Zm2.74-15.54.89-5H946.83l-.89,5Z" style="fill: #f8b500"/>
        </g>
      </g>
      <g>
        <rect x="116.44" y="565.16" width="847.13" height="297.17" rx="16.33" ry="16.33" style="fill: #fffaec"/>
        <g>
          <g>
            <path d="M259,653.33H254.2l-1.86,10.52q1.58-.39,4.54-1.41L256,668l-4.69,1.56-3.58,20.3h-5.42l3.28-18.58q-6.79,1.71-10.16,2.35l.14-5.35q4.87-.9,11-2.59l2.17-12.33H245.4a83.7,83.7,0,0,1-3.92,8.81l-4.3-2.16a92.46,92.46,0,0,0,7-19.28l4.79.69q-.51,2.2-1.77,6.53h2.55l2.07-11.76h5.42l-2.07,11.76h4.77Zm29.67,16.45H283l-2.62,14.88a6,6,0,0,1-1.56,3.31,5.48,5.48,0,0,1-2.5,1.5,21.92,21.92,0,0,1-4.63.33q-2,0-5-.09l-.47-5.41q3,.21,5.12.21a9.26,9.26,0,0,0,3.3-.32,1.4,1.4,0,0,0,.64-1l2.37-13.41H257.4l.9-5.11h20.2l.72-4.06h5.42l-.72,4.06h5.63Zm-18.31,10-5.4,3.07a28.56,28.56,0,0,0-6.06-8.63l5.45-3A39.5,39.5,0,0,1,270.32,679.76Zm22-32.42H279.74l-1.11,6.29h11.28l-1,5.05H260.83l.89-5.05H273.3l1.11-6.29H261.56l.88-5h12.85l1.08-6.13h5.33l-1.08,6.13h12.62Z" style="fill: #898989"/>
            <path d="M347.41,684.3l-2.31,4.87q-12.12.36-23.61.36-14.07,0-18.54-6.71a59.5,59.5,0,0,1-6.66,7.52l-3.73-3.52a38,38,0,0,0,11.84-17.29h-7.23L298,665a130.5,130.5,0,0,0,8.65-11.58h-7.4l.86-4.87h13.12l-.86,4.87q-3.11,4.69-8,11.16h6.07l-.87,4.93a63.13,63.13,0,0,1-3.83,8.6,11,11,0,0,0,4.17,4.3,15,15,0,0,0,5.65,1.88q3,.38,12.56.38Q337,684.69,347.41,684.3Zm-33.4-41-4.5,3.88a39.69,39.69,0,0,0-6.24-7.94l4.05-4.18A37.71,37.71,0,0,1,314,643.28Zm18.77,21.38H320.66a14.18,14.18,0,0,1-.7,2.65h10.9q-1.74,9.86-4,12.57t-9,2.26l-.67-4.78q2.14.12,4.1.12a2.69,2.69,0,0,0,2.54-1.67,15.88,15.88,0,0,0,1.28-4.25h-6.31a24.85,24.85,0,0,1-7.57,10.34l-2.94-3.64q6-4.54,7.61-13.59h-4.41l.77-4.39h8.05a12.45,12.45,0,0,0-.92-2l3.76-1.35h-8.79l3.08-17.44h4.74q1.5-2.1,2.56-3.94l5,.93a28.62,28.62,0,0,1-1.92,3h7.52l-3.08,17.44h-7.7q.89,2,1.39,3.37h7.58Zm-4.7-11.82.5-2.86H320.7l-.5,2.86Zm1.17-6.62.5-2.83h-7.88l-.5,2.83ZM353,648.88h-3.14a78.14,78.14,0,0,1-6.53,19,63.44,63.44,0,0,1,4.09,11.91l-4.63,2.89a58,58,0,0,0-2.84-9.44,63.27,63.27,0,0,1-8.26,9.38l-3-3.76a51.34,51.34,0,0,0,9.13-10.8,70.11,70.11,0,0,0-3.55-7.07l4.16-2.95q1.65,2.92,2.37,4.36A67,67,0,0,0,345,648.88h-3a59.46,59.46,0,0,1-5.35,9l-3.32-3.19a79.53,79.53,0,0,0,8.84-19.21l4.56,1a77.57,77.57,0,0,1-2.6,7.52h9.63Z" style="fill: #898989"/>
          </g>
          <g>
            <path d="M471.72,691.54h-5.51l.49-2.77H434.81l-.49,2.77h-5.54l4.49-25.47h42.94Zm10.9-31.39L477.26,664a46.65,46.65,0,0,0-2.81-5.41q-23.89,2.8-43.95,3.37l-.36-5.17q9.21-2.86,22.32-19.46l5.91,1.23a107.94,107.94,0,0,1-17.48,17.68q12-.45,30.39-2.41a64,64,0,0,0-7.6-8.63l5.32-3.64A75,75,0,0,1,482.62,660.15Zm-15,23.27,2.12-12H437.87l-2.12,12Z" style="fill: #898989"/>
            <path d="M498.48,672A194.83,194.83,0,0,1,488,692.23l-3.9-3.58a144.74,144.74,0,0,0,10-19.64Zm1.3-10.88-4.54,4.06a36,36,0,0,0-5.45-7.58l4.29-4A33.08,33.08,0,0,1,499.77,661.08Zm3.82-15.79-4.48,3.76a36,36,0,0,0-5.72-7.52l4.49-3.82A28.41,28.41,0,0,1,503.6,645.29ZM537,681.71q-1.26,6-3.3,8a7,7,0,0,1-5.18,2.08H514.43l-.64-3.94h14.63q1.27,0,2.06-2.47H497.14l5.13-10.29h28.4l.46-2.59h-31.3l.64-3.64H537l-1.76,10H506.05l-1.54,2.83Zm-32.37-21.5a45.55,45.55,0,0,1-3.6,7.34l-3.1-.87a53,53,0,0,0,3.68-7.28Zm10.52-2.59-3.32,1.17a4.1,4.1,0,0,0-.12-1.35q-3.25.27-9.72,1.23l-.49-3.46a48.19,48.19,0,0,0,6.56-5.29q-3.62.36-4,.36l-.62-3.37a43.53,43.53,0,0,0,8.59-9.44l3.26,1.35a61.44,61.44,0,0,1-7.05,7.76,11.79,11.79,0,0,0,3.31-.3l2.51-3.13,3,1.77a62.91,62.91,0,0,1-9.91,9.68,25.9,25.9,0,0,0,4-.51q-.13-1.26-.22-1.77l3.09-1.05A52.7,52.7,0,0,1,515.13,657.62ZM508,667l-3.41.69a40.06,40.06,0,0,0,.6-7.28l3.1-.6A34.33,34.33,0,0,1,508,667Zm5.39-1.35-3.32.87a31.11,31.11,0,0,0-.08-6.41l3.13-.81Q513.44,662.86,513.42,665.68Zm12.39.93h-11.4l1.67-9.47h11.4ZM528,655.1H516.44L517,652h11.52Zm3.67-10.58H517.27l.61-3.46h4.65a10.31,10.31,0,0,0-.55-2.59l4.37-1.11a15.5,15.5,0,0,1,.92,3.7h5Zm-2.75,5.35H517.36l.57-3.22h11.52ZM522.5,663.4l.54-3.07h-3.7l-.54,3.07Zm9.66-2.53a45,45,0,0,1-2.54,7.16l-3-1.05a33.92,33.92,0,0,0,2.64-6.77Zm10.71-2.95-3.49,1.17-.14-1.53q-5.17.78-10,1.23l-.24-3.34a40.37,40.37,0,0,0,7-5.59l-4.82.3-.51-3.31a38.34,38.34,0,0,0,8.77-9.26l3.29,1.68a75.25,75.25,0,0,1-7,7.19,17.26,17.26,0,0,0,3.61-.3,22.63,22.63,0,0,0,2.71-3.28l3.06,1.62a57.42,57.42,0,0,1-10.63,10.41,35.52,35.52,0,0,0,4.1-.57,6.8,6.8,0,0,0-.4-1.59l3.4-1.29A29,29,0,0,1,542.86,657.92Zm-6.92,9.35-3.48.75a31.73,31.73,0,0,0,.61-7.16l3.15-.42A36.1,36.1,0,0,1,535.94,667.28Zm5.61-.6-3.52,1a59.83,59.83,0,0,0-.41-6.92l3.44-.84A35.91,35.91,0,0,1,541.55,666.67Z" style="fill: #898989"/>
            <path d="M602.73,664h-27.1l-.8,4.54a86.11,86.11,0,0,1,22.28,9.2l-3.25,5a85.85,85.85,0,0,0-19.94-9l-3.12,17.71h-5.72L569.91,664h-20.2l.93-5.29h20.26L574.57,638h5.66L579,644.87h23.51l-.94,5.35H578.06l-1.5,8.51h27.1Z" style="fill: #898989"/>
            <path d="M656.65,685.71a8,8,0,0,1-2.17,4.18q-1.77,1.86-7.48,1.86-2.34,0-4.67-.21l-1-5.83q4.57.12,7.44.12a2.93,2.93,0,0,0,1.83-.63,2.51,2.51,0,0,0,1-1.59l5.25-29.8H643q.13,11.7,8.94,21.86l-4,4.3q-8-8.12-10-20.81Q632.57,670,620.46,680l-2.51-4.24q13.41-11.55,18.12-22H620.43l-6.65,37.74h-5.42l7.59-43h21.53q.18-2.71.5-5.17h-5.8l1-5.47h10.72q-.46,2.59-1,10.65h20.32Z" style="fill: #898989"/>
            <path d="M722.36,678l-3.85,4.54a29.94,29.94,0,0,1-8.36-5.47l-.64,3.64H697.3l-.87,4.93h21.8l-.85,4.81h-48.6l.85-4.81h21.29l.87-4.93H680l.65-3.7a48.8,48.8,0,0,1-10.4,5.59L668.15,678a33.72,33.72,0,0,0,13.27-7.58H670.07l.86-4.87h9.83l3.3-18.7H675.5l.85-4.81h8.56l.71-4.06H691l-.72,4.06h22.09l.72-4.06h5.45l-.72,4.06h8.68l-.85,4.81h-8.68l-3.3,18.7h10l-.86,4.87H711.56A27.34,27.34,0,0,0,722.36,678Zm-13.62-2.17a31.39,31.39,0,0,1-4.4-5.47h-16.5a32.29,32.29,0,0,1-5.55,5.47h10.37l.69-3.94h5.51l-.69,3.94Zm-.55-10.34.63-3.58H686.73l-.63,3.58Zm1.38-7.82.6-3.4H688.07l-.6,3.4Zm1.35-7.64.57-3.25H689.39l-.57,3.25Z" style="fill: #898989"/>
            <path d="M746.68,690.07h-5.21l.45-2.53h-7.52l-.71,4h-5.24l3.71-21h18ZM751,666.37H732.82l.87-4.93H751.9Zm1.6-9.05H734.42l.87-4.93H753.5Zm3.14-9.23H734.59l.88-5h8.32a20.15,20.15,0,0,0-1.36-3.7l5.49-1.92a34.4,34.4,0,0,1,1.88,5.62h6.84Zm-13,34.4,1.21-6.89h-7.52l-1.21,6.89Zm18.79-10.65A39.52,39.52,0,0,1,752,692l-3.78-3.28q6.45-7.37,8.74-20.33l5.4-30.61h5.21Zm7.5,14.58h-5.15l7.89-44.75H777Zm9.45,5.17h-5.33l9.49-53.83H788Z" style="fill: #898989"/>
            <path d="M797.31,677.32a86.41,86.41,0,0,1-5.73,14.55l-4.13-2.29A76.12,76.12,0,0,0,792.63,676Zm14.41-4.3-4.82,1.83a9.52,9.52,0,0,0-.2-2.89q-6.26,1.59-14.58,2.89l-1-4.6a73.07,73.07,0,0,0,12.48-12.69,85.34,85.34,0,0,1-8.79,1.29l-.26-4.93A72,72,0,0,0,807,637.42l4.62,2a90.77,90.77,0,0,1-10.92,13.71,63.19,63.19,0,0,0,7.22-1.29,55.41,55.41,0,0,0,3.64-5.17l4.29,2.23a122.06,122.06,0,0,1-17.1,19.91q3.13-.48,7.22-1.47a11.65,11.65,0,0,0-.57-3.16l4.83-2A45.81,45.81,0,0,1,811.72,673Zm-9.33,15.82-5,1a72.57,72.57,0,0,0,1.09-12.39l4.49-.78A59.88,59.88,0,0,1,802.39,688.84Zm7.8-6.46-4.41,1.35a34,34,0,0,0-.55-6.95l4.34-1.29A26.05,26.05,0,0,1,810.19,682.37Zm31.71,4.27L838.2,691a26.29,26.29,0,0,1-9.47-13.29l-2.45,13.89h-5.09l2.45-13.89q-5,6.17-15.44,13.17l-2.09-4.63a51.28,51.28,0,0,0,16.25-13.71h-9.27l3.73-21.14h11.46l.76-4.3H815.43l.88-5h13.59l.74-4.18h5.09l-.74,4.18h13.53l-.88,5H834.12l-.76,4.3h11.4L841,672.54h-8.68Q833,679.09,841.9,686.64Zm-16.51-18.91,2.05-11.64h-6.37L819,667.73Zm-.68-2.35-3.26,1.05a48.27,48.27,0,0,0-.13-8l3-1.05A52.09,52.09,0,0,1,824.71,665.38Zm12.14,2.35,2.05-11.64h-6.37l-2.05,11.64Zm.73-9.35a57.2,57.2,0,0,1-3.2,8.24l-2.76-.81a84.06,84.06,0,0,0,3.08-8.24Z" style="fill: #898989"/>
            <path d="M455.21,774.94a267.32,267.32,0,0,1-31.15,7.7l-.29-4.9q3.08-.48,8.68-1.68a46.05,46.05,0,0,0-1.6-8.42l4.46-2.29h-6.54l2.54-14.4h25l-2.54,14.4h-6l3.59,2a28.41,28.41,0,0,1-2.79,4.72q3.34-.78,7.24-2.07Zm6.08-36.81H448.4l-.81,4.6h11.46l-.82,4.63h-28l.82-4.63h11.22l.81-4.6H430.46l.83-4.69H444l.81-4.6H450l-.81,4.6h12.88Zm-11.94,22.52.94-5.35H435.87l-.94,5.35Zm-2.52,4.69H436a79.17,79.17,0,0,1,1.61,9.53l4.11-1A54.5,54.5,0,0,0,446.83,765.34Zm32.9-2.83q-9.18,12.24-24.68,20.21l-3.16-4.09q15.8-8,23.47-18.58ZM482,745.47a65.38,65.38,0,0,1-22.39,18L457,759.12a66.12,66.12,0,0,0,21.24-16.51Zm1.38-14.73q-6.82,8.45-20.12,15.7l-2.84-4.24q12.27-6.1,18.69-14.1Z" style="fill: #898989"/>
            <path d="M497.31,763.93a83.08,83.08,0,0,1-10.62,17.23L483.37,778A84.45,84.45,0,0,0,493,762Zm23.26-20.57L516.28,747a32.22,32.22,0,0,0-1.9-2.65l-.81,4.6h-6.49l-.93,5.29h10.37l-.89,5.05H505.26L502,777.73q-.85,4.84-7.46,4.84a17.57,17.57,0,0,1-2.17-.12l-1.14-5.11q1.26.06,4.28.06a1.55,1.55,0,0,0,1.75-1.35l3-16.75h-11.4l.89-5.05h11.4L502,749H496.3l.43-2.47q-2.59,2.07-5.43,3.94l-2.21-4.24a72.77,72.77,0,0,0,17.7-17.56l4.65,1.5a8.19,8.19,0,0,1-1.16,1.71A78.8,78.8,0,0,1,520.57,743.36Zm-6.62.42a82,82,0,0,0-6.82-7.7,89.76,89.76,0,0,1-7.31,7.7Zm.58,30.49-4.91,2A68.28,68.28,0,0,0,507,764.17l4.71-2.17A58,58,0,0,1,514.52,774.28Zm22.76,4.63-3.85,4.36a50.81,50.81,0,0,1-8.86-8.51,74.54,74.54,0,0,1-12.91,8.57l-2.89-3.94a63.19,63.19,0,0,0,13.17-8.69,40.48,40.48,0,0,1-3.33-17.23h-1.45l.9-5.11h7.4l3.4-19.28H534l-1.26,7.13h11.52l-.88,5H531.88l-1.26,7.16H541.1q-5.62,15.06-12.49,22.28Q531.08,774.61,537.28,778.91Zm-3.51-25.44H523.7a32.41,32.41,0,0,0,2.4,12.93A52,52,0,0,0,533.77,753.47Z" style="fill: #898989"/>
            <path d="M565.8,775h-5.27l.63-3.58h-8.41l-.88,5h-5.3l7.91-44.83h19Zm-3.73-8.75,2.17-12.33h-8.41l-2.17,12.33Zm3.08-17.44,2.1-11.94h-8.41l-2.1,11.94ZM596.45,776a9.35,9.35,0,0,1-1.66,4.36,5.09,5.09,0,0,1-2.61,1.71,25.64,25.64,0,0,1-5.52.39q-2.63,0-5-.12l-.88-5.41q4.86.12,8.06.12a2.07,2.07,0,0,0,2.31-1.83l2-11.52H579Q575.55,776,569.07,783l-4-3.22q7.48-8.69,10-22.85l4.72-26.76h24.76Zm-2.39-17.53,1.6-9.05h-13.8l-1.6,9.05ZM596.62,744l1.5-8.48h-13.8l-1.5,8.48Z" style="fill: #898989"/>
            <path d="M641.45,743l-4.57,6.95-5.71,32.39h-5.39l4.23-24q-3.83,3.43-4.78,4.12l-1.7-5.5q7.14-5.71,13.38-16.12Zm1.49-12.63a56.94,56.94,0,0,1-14.06,14.4l-2-4.87a46.93,46.93,0,0,0,11.68-12ZM673.89,775H656.48l-1.31,7.43H649.9l1.31-7.43H635l.85-4.81h16.2l.75-4.27H638.62l.82-4.66h14.18l.79-4.51H642l.81-4.6h12.44l.86-4.87H641.73l.85-4.81h14.36l.87-4.93H645.38l.8-4.54h12.44l.75-4.27h5.27l-.75,4.27h13l-1.67,9.47h4.38l-.85,4.81H674.4l-1.67,9.47h-13l-.79,4.51H673l-.82,4.66H658.08l-.75,4.27h17.41Zm-5.62-22.85.86-4.87h-7.76l-.86,4.87Zm1.71-9.68.87-4.93h-7.76l-.87,4.93Z" style="fill: #898989"/>
            <path d="M702.43,779.27h-14.6l-.56,3.19h-4.86l8.33-47.21h5.63a44.1,44.1,0,0,0,4-6.92l5.16,1.11q-2.14,3.91-3.33,5.8h6.66l-3.19,18.1H692.4l-1.12,6.34h14.6Zm-4.15-5,1.71-9.68h-9.57l-1.71,9.68Zm3.25-26,1.43-8.09h-8.23l-1.43,8.09Zm40.22-13.14H729.43l-1.22,6.92h10.25L733,772.92a7.18,7.18,0,0,1-2.11,4.15q-1.65,1.53-7.19,1.2l-.16-5.29a23.36,23.36,0,0,0,3.12.12,1.26,1.26,0,0,0,1.36-1.17l4.38-24.87h-5.09l-6.24,35.39h-5.21l6.24-35.39h-5l-5.54,31.39h-5.09l6.42-36.38H723l1.22-6.92H711.66l.9-5.08h30.09Z" style="fill: #898989"/>
          </g>
        </g>
      </g>
    </g>
    <g>
      <circle cx="399.35" cy="665.63" r="8.65" style="fill: #898989"/>
      <circle cx="399.35" cy="756.67" r="8.65" style="fill: #898989"/>
    </g>
  </g>
</svg>
