<?xml version="1.0" encoding="utf-8"?>
<!-- Generator: Adobe Illustrator 21.1.0, SVG Export Plug-In . SVG Version: 6.00 Build 0)  -->
<svg version="1.1" baseProfile="tiny" xmlns="http://www.w3.org/2000/svg" xmlns:xlink="http://www.w3.org/1999/xlink" x="0px"
	 y="0px" viewBox="0 0 1080 1080" xml:space="preserve">
<g id="圖層_1">
	<g>
		<g>
			<g>
				<path fill="#8FD3F3" d="M646.6,781.1H175.9V216.8c0-28.9,22.2-53.5,51.1-53.5l419.6,1.2V781.1z"/>
			</g>
			<g>
				<path fill="#EBF6FB" d="M842.4,212.9c0-27.8-22.5-50.3-50.3-50.3H271.9v0.3l-49.6-0.3c30.3,0,49.5,21.4,49.5,47.3l0.1-0.1v588.8
					c0,38.9,31.5,70.4,70.4,70.4h381.6l120.7-1.7L842.4,212.9z"/>
				<g>
					<g>
						<circle fill="#FDEEED" cx="385.8" cy="287" r="73.1"/>
						<g>
							<path fill="#CCE7F3" d="M446.3,327.1c-0.2-0.5,0-1.1,0.5-1.3h0l-3.7-8.2l0,0c-0.5,0.2-1.1,0-1.3-0.5s0-1.1,0.5-1.3l10-4.5
								c-3.7-14-14.3-25.8-29-30.5l-0.5-0.1l-0.2-0.5c-4.2-11.9-14.5-20.9-26.8-23.4c-18.2-3.7-36.5,7.5-41.6,25.3l-0.2,0.8
								l-0.8-0.1c-7.6-0.7-14.8,1-21,4.6l3.7,6.5c0.3,0.5,0.1,1.1-0.4,1.3c-0.5,0.3-1.1,0.1-1.3-0.4l-7.9,4.4
								c0.3,0.5,0.1,1.1-0.4,1.3c-0.2,0.1-0.3,0.1-0.5,0.1c-0.3,0-0.7-0.2-0.9-0.5L322,296c-2.7,3.4-4.9,7.3-6.3,11.6
								c8.9,30.3,36.9,52.5,70.1,52.5c25.4,0,47.7-12.9,60.8-32.5C446.5,327.5,446.3,327.3,446.3,327.1z M388.2,290.1
								c1.3-5.2,6.1-8.5,10.8-7.4c4.7,1.2,7.4,6.3,6.1,11.5c-1.3,5.2-6.1,8.5-10.8,7.4C389.7,300.5,386.9,295.4,388.2,290.1z
								 M364.9,294.2c0.8,2,1.1,4.3,0.6,6.6c-1.2,6.2-7.3,10.2-13.5,9s-10.2-7.3-9-13.5c1.2-6.2,7.3-10.2,13.5-9
								c2.4,0.5,4.5,1.7,6.1,3.4c-0.7-1.8-0.8-3.9-0.3-6.1c1.3-5.2,6.1-8.5,10.8-7.4c4.7,1.2,7.4,6.3,6.1,11.5
								c-1.3,5.2-6.1,8.5-10.8,7.4C367.1,295.8,365.9,295.1,364.9,294.2z M368.6,305.4c0-0.3,0.2-0.5,0.5-0.4l20.1,4.9
								c0.3,0.1,0.4,0.4,0.2,0.6c-1.1,1.6-5.2,6.9-13,5C369.6,313.9,368.7,307.3,368.6,305.4z M420.8,313.3
								c-1.2,6.2-7.3,10.2-13.5,9c-6.2-1.2-10.2-7.3-9-13.5s7.3-10.2,13.5-9S422,307.1,420.8,313.3z"/>
							<path fill="#8BCAE8" d="M315.7,307.6c1.4-4.3,3.6-8.2,6.3-11.6l-1-1.8c-2.5,3-4.6,6.4-6.2,10.1
								C315.1,305.4,315.4,306.5,315.7,307.6z"/>
							<path fill="#8BCAE8" d="M332.1,287.5c6.2-3.5,13.5-5.2,21-4.6l0.8,0.1l0.2-0.8c5.1-17.9,23.4-29,41.6-25.3
								c12.3,2.5,22.6,11.4,26.8,23.4l0.2,0.5l0.5,0.1c14.7,4.7,25.3,16.4,29,30.5l1.8-0.8c-3.9-14.4-14.8-26.4-29.7-31.4
								c-4.5-12.4-15.3-21.6-28.1-24.2c-18.9-3.8-38,7.5-43.7,25.9c-7.7-0.5-15.1,1.3-21.4,4.9L332.1,287.5z"/>
							<path fill="#CCE7F3" d="M334,294.9l-8.3-14.7c-1.2-2.2-4-2.9-6.2-1.7c-1,0.6-1.8,1.6-2.1,2.7c-0.3,1.2-0.2,2.4,0.4,3.4
								l8.3,14.7l0,0L334,294.9L334,294.9z"/>
							<path fill="#8BCAE8" d="M322,296l2.4,4.3c0.2,0.3,0.5,0.5,0.9,0.5c0.2,0,0.3,0,0.5-0.1c0.5-0.3,0.6-0.9,0.4-1.3l0,0
								l-8.3-14.7c-0.6-1-0.7-2.3-0.4-3.4c0.3-1.2,1.1-2.1,2.1-2.7c2.2-1.2,4.9-0.5,6.2,1.7l8.3,14.7l0,0c0.3,0.5,0.9,0.6,1.3,0.4
								c0.5-0.3,0.6-0.9,0.4-1.3l-3.7-6.5l-1-1.7l-3.7-6.5c-1.8-3.1-5.7-4.2-8.8-2.5c-1.5,0.8-2.6,2.2-3.1,3.9
								c-0.5,1.7-0.3,3.4,0.6,4.9l4.8,8.5L322,296z"/>
							<path fill="#CCE7F3" d="M443,317.6l3.7,8.2l1.3-0.6c2.5-4,4.5-8.3,6.2-12.7L443,317.6z"/>
							<path fill="#8BCAE8" d="M446.8,325.8c-0.5,0.2-0.7,0.8-0.5,1.3c0.1,0.2,0.2,0.3,0.3,0.4c0.5-0.8,1-1.5,1.5-2.3L446.8,325.8
								L446.8,325.8z"/>
							<path fill="#8BCAE8" d="M452.2,311.3l-10,4.5c-0.5,0.2-0.7,0.8-0.5,1.3s0.8,0.7,1.3,0.5l0,0l11.3-5.1
								c0.3-0.8,0.6-1.7,0.9-2.6l-1.2,0.5L452.2,311.3z"/>
							<path fill="#F7D8D7" d="M362.7,290.7c-1.6-1.7-3.7-2.9-6.1-3.4c-6.2-1.2-12.2,2.8-13.5,9c-1.2,6.2,2.8,12.2,9,13.5
								s12.2-2.8,13.5-9c0.5-2.3,0.2-4.6-0.6-6.6C363.9,293.3,363.2,292.1,362.7,290.7z"/>
							<path fill="#0D74B4" d="M389.4,310.6c0.1-0.2,0-0.5-0.2-0.6l-20.1-4.9c-0.3-0.1-0.5,0.1-0.5,0.4c0.1,1.9,1,8.5,7.8,10.1
								C384.2,317.5,388.3,312.2,389.4,310.6z M373.3,310.4c-0.3-0.1-0.5-0.4-0.4-0.7l0.9-3.6l7.6,1.9l-0.9,3.6
								c-0.1,0.3-0.4,0.5-0.7,0.4L373.3,310.4z"/>
							<path fill="#FFFFFF" d="M380.5,311.6l0.9-3.6l-7.6-1.9l-0.9,3.6c-0.1,0.3,0.1,0.6,0.4,0.7l6.5,1.6
								C380.1,312.1,380.4,311.9,380.5,311.6z"/>
							
								<ellipse transform="matrix(0.1971 -0.9804 0.9804 0.1971 23.8394 651.2802)" fill="#F7D8D7" cx="409.5" cy="311.1" rx="11.5" ry="11.5"/>
							<path fill="#FFFFFF" d="M379.2,288.8c1.3-5.2-1.4-10.4-6.1-11.5c-4.7-1.2-9.5,2.1-10.8,7.4c-0.5,2.1-0.4,4.2,0.3,6.1
								c0.5,1.3,1.2,2.5,2.2,3.5c1,0.9,2.2,1.6,3.6,2C373.1,297.3,378,294,379.2,288.8z M365.9,285.8c0.8-3.3,3.7-5.4,6.4-4.7
								c2.7,0.7,4.2,3.9,3.4,7.1s-3.7,5.4-6.4,4.7C366.6,292.2,365.1,289.1,365.9,285.8z"/>
							<path fill="#FFFFFF" d="M394.3,301.7c4.7,1.2,9.5-2.1,10.8-7.4c1.3-5.2-1.4-10.4-6.1-11.5c-4.7-1.2-9.5,2.1-10.8,7.4
								S389.7,300.5,394.3,301.7z M391.7,291c0.8-3.3,3.7-5.4,6.4-4.7c2.7,0.7,4.2,3.9,3.4,7.1c-0.8,3.3-3.7,5.4-6.4,4.7
								C392.4,297.4,390.9,294.3,391.7,291z"/>
							
								<ellipse transform="matrix(0.241 -0.9705 0.9705 0.241 2.8309 577.6649)" fill="#0D74B4" cx="370.8" cy="287" rx="6.1" ry="5"/>
							
								<ellipse transform="matrix(0.241 -0.9705 0.9705 0.241 17.4098 606.7016)" fill="#0D74B4" cx="396.6" cy="292.2" rx="6.1" ry="5"/>
						</g>
					</g>
					<g>
						<path fill="#FDD762" d="M496.2,233.7l1.3,4c0.2,0.6,0.7,0.9,1.3,0.9h4.2c1.3,0,1.9,1.7,0.8,2.5l-3.4,2.5
							c-0.5,0.3-0.7,1-0.5,1.5l1.3,4c0.4,1.3-1,2.3-2.1,1.5l-3.4-2.5c-0.5-0.3-1.1-0.3-1.6,0l-3.4,2.5c-1.1,0.8-2.5-0.3-2.1-1.5
							l1.3-4c0.2-0.6,0-1.2-0.5-1.5l-3.4-2.5c-1.1-0.8-0.5-2.5,0.8-2.5h4.2c0.6,0,1.1-0.4,1.3-0.9l1.3-4
							C494,232.4,495.8,232.4,496.2,233.7z"/>
						<path fill="#FDD762" d="M523.9,233.7l1.3,4c0.2,0.6,0.7,0.9,1.3,0.9h4.2c1.3,0,1.9,1.7,0.8,2.5l-3.4,2.5
							c-0.5,0.3-0.7,1-0.5,1.5l1.3,4c0.4,1.3-1,2.3-2.1,1.5l-3.4-2.5c-0.5-0.3-1.1-0.3-1.6,0l-3.4,2.5c-1.1,0.8-2.5-0.3-2.1-1.5
							l1.3-4c0.2-0.6,0-1.2-0.5-1.5l-3.4-2.5c-1.1-0.8-0.5-2.5,0.8-2.5h4.2c0.6,0,1.1-0.4,1.3-0.9l1.3-4
							C521.7,232.4,523.5,232.4,523.9,233.7z"/>
						<path fill="#FDD762" d="M551.7,233.7l1.3,4c0.2,0.6,0.7,0.9,1.3,0.9h4.2c1.3,0,1.9,1.7,0.8,2.5l-3.4,2.5
							c-0.5,0.3-0.7,1-0.5,1.5l1.3,4c0.4,1.3-1,2.3-2.1,1.5l-3.4-2.5c-0.5-0.3-1.1-0.3-1.6,0l-3.4,2.5c-1.1,0.8-2.5-0.3-2.1-1.5
							l1.3-4c0.2-0.6,0-1.2-0.5-1.5l-3.4-2.5c-1.1-0.8-0.5-2.5,0.8-2.5h4.2c0.6,0,1.1-0.4,1.3-0.9l1.3-4
							C549.5,232.4,551.2,232.4,551.7,233.7z"/>
						<path fill="#FDD762" d="M579.4,233.7l1.3,4c0.2,0.6,0.7,0.9,1.3,0.9h4.2c1.3,0,1.9,1.7,0.8,2.5l-3.4,2.5
							c-0.5,0.3-0.7,1-0.5,1.5l1.3,4c0.4,1.3-1,2.3-2.1,1.5l-3.4-2.5c-0.5-0.3-1.1-0.3-1.6,0l-3.4,2.5c-1.1,0.8-2.5-0.3-2.1-1.5
							l1.3-4c0.2-0.6,0-1.2-0.5-1.5l-3.4-2.5c-1.1-0.8-0.5-2.5,0.8-2.5h4.2c0.6,0,1.1-0.4,1.3-0.9l1.3-4
							C577.2,232.4,579,232.4,579.4,233.7z"/>
						<path fill="#E6E6E6" d="M607.1,233.7l1.3,4c0.2,0.6,0.7,0.9,1.3,0.9h4.2c1.3,0,1.9,1.7,0.8,2.5l-3.4,2.5
							c-0.5,0.3-0.7,1-0.5,1.5l1.3,4c0.4,1.3-1,2.3-2.1,1.5l-3.4-2.5c-0.5-0.3-1.1-0.3-1.6,0l-3.4,2.5c-1.1,0.8-2.5-0.3-2.1-1.5
							l1.3-4c0.2-0.6,0-1.2-0.5-1.5l-3.4-2.5c-1.1-0.8-0.5-2.5,0.8-2.5h4.2c0.6,0,1.1-0.4,1.3-0.9l1.3-4
							C605,232.4,606.7,232.4,607.1,233.7z"/>
					</g>
					<path fill="#FFFFFF" d="M631.3,279H480.7c-3.4,0-6.2-2.8-6.2-6.2v-5c0-3.4,2.8-6.2,6.2-6.2h150.6c3.4,0,6.2,2.8,6.2,6.2v5
						C637.5,276.2,634.7,279,631.3,279z"/>
					
						<rect x="730.9" y="296.9" fill="none" stroke="#FFFFFF" stroke-width="6.0325" stroke-miterlimit="10" width="54.8" height="54.8"/>
					
						<line fill="none" stroke="#FFFFFF" stroke-width="2.0108" stroke-miterlimit="10" x1="300.3" y1="387.9" x2="781.7" y2="387.9"/>
					
						<line fill="none" stroke="#FFFFFF" stroke-width="6.0325" stroke-miterlimit="10" x1="475.5" y1="300.9" x2="692.1" y2="300.9"/>
					<line fill="none" stroke="#FFFFFF" stroke-width="6.0325" stroke-miterlimit="10" x1="475.5" y1="325" x2="692.1" y2="325"/>
					
						<line fill="none" stroke="#FFFFFF" stroke-width="6.0325" stroke-miterlimit="10" x1="475.5" y1="350.1" x2="692.1" y2="350.1"/>
				</g>
				<g>
					<g>
						<circle fill="#ECF4D9" cx="385.8" cy="495.7" r="73.1"/>
						<g>
							<path fill="#8BCAE8" d="M439.2,473.9c-0.3,0.2-0.6,0.4-1,0.5c-5.7,0.9-25.8,2.7-45-11.6c-4.8-3.6-8.5-0.9-10.2,1
								c-0.7,0.7-1.7,0.9-2.5,0.4c-2.2-1.3-8-3.4-15.3,6.8c-8,11.1-25.4,13.4-30.6,13.8c-0.1,0-0.1,0-0.2,0c-0.2,0-0.5-0.1-0.7-0.1
								c-8.1,3.8-15.2,10.7-20.1,19.1c3.4,33.5,29.6,60.3,62.8,64.8l3.4-23.2c-0.3-0.2-0.5-0.5-0.7-0.8l-2.7-5.5
								c-0.5-0.9-0.2-2.1,0.6-2.9c1.7-1.7,5.3-3.5,9.3-3.5c3.2,0,6.1,1.2,8.9,3.7c0.8,0.7,1.1,1.8,0.7,2.8l-2.2,5.3
								c-0.1,0.3-0.3,0.6-0.5,0.8l3.8,23.2c16.1-2.3,30.4-9.8,41.3-20.8c-2,0-3.9-1-5.1-2.7l-9.8-13.7c-0.3-0.4-0.2-1.1,0.2-1.4
								c0.4-0.3,1.1-0.2,1.4,0.2l0,0l7.3-5.3c-0.3-0.4-0.2-1.1,0.2-1.4c0.4-0.3,1.1-0.2,1.4,0.2l9.8,13.7c0.6,0.8,1,1.8,1.1,2.7
								c9.2-12.2,14.7-27.5,14.7-44c0-1.2,0-2.3-0.1-3.5C454.5,484.7,447.6,478.1,439.2,473.9z M399.7,474.1c4.8-0.3,9.7,2.4,13,5.7
								c3.3,3.4-1.9,8.6-5.2,5.2c-1.6-1.6-3.3-2.8-5.6-3.3c-0.1,0-0.9-0.2-0.9-0.2c-0.2,0-0.4,0-0.6,0c-0.2,0-0.5,0-0.7,0
								C395,481.7,395,474.4,399.7,474.1z M399.7,484c5.5,0,9.9,5,9.9,11.1c0,6.1-4.4,11.1-9.9,11.1s-9.9-5-9.9-11.1
								C389.8,489,394.2,484,399.7,484z M341.7,517.8c-0.4,0.4-1,0.3-1.4-0.1l0,0l-6.8,5.9c0.4,0.4,0.3,1-0.1,1.4
								c-0.2,0.2-0.4,0.2-0.6,0.2c-0.3,0-0.5-0.1-0.7-0.3l-11-12.8c-1.1-1.3-1.7-3-1.5-4.7s0.9-3.3,2.2-4.4c1.3-1.1,3-1.7,4.7-1.5
								c1.7,0.1,3.3,0.9,4.4,2.2l11,12.8C342.1,516.9,342.1,517.5,341.7,517.8z M360,477c4.2-3.3,9.6-4.1,14.8-3.1
								c4.6,0.9,2.7,8-2,7.1c-2.1-0.4-4.2-0.3-6.2,0.5c-0.3,0.1-1,0.5-1.4,0.7c-0.4,0.2-1.5,1.1-0.1,0c-1.6,1.2-3.7,1.5-5.2,0
								C358.7,480.9,358.4,478.2,360,477z M369.5,484c5.5,0,9.9,5,9.9,11.1c0,6.1-4.4,11.1-9.9,11.1s-9.9-5-9.9-11.1
								C359.6,489,364.1,484,369.5,484z M386.6,523.7c-1.3,0-2.7-0.2-4.2-0.6c-0.5-0.2-0.8-0.7-0.7-1.2c0.2-0.5,0.7-0.8,1.2-0.7
								c7.5,2.3,12-2.8,13.6-5.1c0,0-0.1,0-0.1,0c-9-0.8-12.3-5.4-12.3-5.4s-0.1-0.1-0.2-0.2c-0.4,0.4-0.7,0.9-2.3,2.4
								c-3.8,3.7-13.8,2.8-17.4,2.4c-0.7-0.1-1-0.8-0.6-1.4c1.4-2.2,5-6.5,9.4-7.2c4.9-0.8,9.3,0.5,10.4,0.9c0.2,0.1,0.4,0.1,0.6,0
								c1.5-0.7,8.2-3.5,13.2-0.7c4,2.3,6.9,4.5,8.3,5.6c0.5,0.4,0.4,1.1-0.1,1.4c-1.2,0.8-3.5,1.9-6.8,2.1
								C398.1,517.3,394.1,523.7,386.6,523.7z"/>
							<path fill="#42A9D9" d="M439.8,473c-0.1,0.3-0.3,0.6-0.6,0.9c8.4,4.3,15.3,10.8,20.2,18.8c-0.1-1.3-0.2-2.7-0.3-4
								c-4.9-7-11.5-12.7-19.2-16.6C439.9,472.3,439.9,472.7,439.8,473z"/>
							<path fill="#42A9D9" d="M313.4,500.4c0.1,1.1,0.1,2.2,0.3,3.3c4.9-8.4,12-15.3,20.1-19.1c-0.3-0.1-0.6-0.3-0.8-0.5
								c-0.3-0.3-0.4-0.7-0.4-1C325,486.6,318.3,492.8,313.4,500.4z"/>
							<path fill="#0D74B4" d="M396.5,516.1c-1.6,2.3-6.1,7.4-13.6,5.1c-0.5-0.2-1.1,0.1-1.2,0.7c-0.2,0.5,0.1,1.1,0.7,1.2
								c1.5,0.5,2.9,0.6,4.2,0.6c7.4,0,11.5-6.4,12.2-7.6C398.1,516.2,397.3,516.2,396.5,516.1z"/>
							<path fill="#0D74B4" d="M398.8,516.1c3.3-0.2,5.6-1.3,6.8-2.1c0.5-0.3,0.5-1,0.1-1.4c-1.4-1.1-4.3-3.3-8.3-5.6
								c-5-2.8-11.7,0-13.2,0.7c-0.2,0.1-0.4,0.1-0.6,0c-1.2-0.4-5.6-1.7-10.4-0.9c-4.4,0.7-8,5.1-9.4,7.2c-0.4,0.5,0,1.3,0.6,1.4
								c3.6,0.4,13.6,1.3,17.4-2.4c1.6-1.6,1.8-2.1,2.3-2.4c0.1,0.1,0.2,0.2,0.2,0.2s3.3,4.5,12.3,5.4c0,0,0.1,0,0.1,0
								C397.3,516.2,398.1,516.2,398.8,516.1z"/>
							<path fill="#F4D064" d="M382.2,565.9c-1.4-3.5,0.4-7.5,3.9-8.8c2.5-1,5.2-0.4,7.1,1.3l-2.1-12.8c-0.1,0-0.2-0.1-0.3-0.1
								c-4.1-2.2-7.4-1-9,0c0,0,0,0,0,0l-3.4,23.3c2.2,0.2,4.4,0.4,6.6,0.4C383.7,568.4,382.8,567.3,382.2,565.9z"/>
							<path fill="#F4D064" d="M392.7,568.9c0.8-0.1,1.5-0.1,2.2-0.2l-0.3-2C394.1,567.6,393.5,568.3,392.7,568.9z"/>
							<path fill="#F4D064" d="M391.6,563.5l-2.1-0.6l-1.4-3.5c-0.1-0.2-0.3-0.3-0.4-0.2l-1.2,0.5c-0.2,0.1-0.3,0.3-0.2,0.4l1.7,4.3
								c0,0.1,0.1,0.2,0.2,0.2l2.9,0.8l0,0c0.2,0,0.4-0.1,0.4-0.2l0.3-1.3l0,0C391.9,563.8,391.8,563.6,391.6,563.5z"/>
							<path fill="#F4D064" d="M334.5,482.7c4.9-0.4,21.6-2.6,29.2-13c8.5-11.8,15.9-8.5,17.9-7.3l0,0c1.4-1.5,6.4-6.1,12.8-1.3
								c18.5,13.8,38,12.1,43.5,11.3c-3.5-3.7-12.5-12.9-21.4-19.6c-7.9-5.9-17.9-9-28.6-9c-6.1,0-12.4,1-18.7,3
								C343.1,455.3,336,476.5,334.5,482.7z"/>
							<path fill="#EB9D14" d="M333,484c0.2,0.2,0.5,0.4,0.8,0.5c0.2,0.1,0.5,0.1,0.7,0.1c0.1,0,0.1,0,0.2,0
								c5.1-0.4,22.6-2.7,30.6-13.8c7.3-10.1,13.1-8.1,15.3-6.8c0.8,0.5,1.8,0.4,2.5-0.4c1.8-1.9,5.4-4.6,10.2-1
								c19.1,14.3,39.3,12.5,45,11.6c0.4-0.1,0.7-0.2,1-0.5c0.3-0.2,0.5-0.5,0.6-0.9c0.1-0.3,0.1-0.7,0.1-1c-0.1-0.4-0.2-0.7-0.5-1
								c-3.5-3.7-12.6-13-21.7-19.8c-12.9-9.7-31.2-12-49-6.2c-27.1,8.8-34.4,30.7-36.1,37.3c-0.1,0.2-0.1,0.5,0,0.7
								C332.6,483.4,332.7,483.7,333,484z M387.9,443.8c10.7,0,20.7,3.1,28.6,9c8.9,6.7,17.9,15.9,21.4,19.6
								c-5.5,0.9-25,2.6-43.5-11.3c-6.4-4.8-11.4-0.2-12.8,1.3l0,0c-2.1-1.3-9.4-4.5-17.9,7.3c-7.5,10.4-24.2,12.6-29.2,13
								c1.6-6.3,8.6-27.4,34.8-35.9C375.5,444.8,381.8,443.8,387.9,443.8z"/>
							<path fill="#FFFFFF" d="M369.5,506.3c5.5,0,9.9-5,9.9-11.1c0-6.1-4.4-11.1-9.9-11.1s-9.9,5-9.9,11.1
								C359.6,501.3,364.1,506.3,369.5,506.3z M366.9,491.1c2.8,0,5,2.7,5,6s-2.2,6-5,6s-5-2.7-5-6S364.1,491.1,366.9,491.1z"/>
							<path fill="#FFFFFF" d="M399.7,506.3c5.5,0,9.9-5,9.9-11.1c0-6.1-4.4-11.1-9.9-11.1s-9.9,5-9.9,11.1
								C389.8,501.3,394.2,506.3,399.7,506.3z M397.4,491.1c2.8,0,5,2.7,5,6s-2.2,6-5,6c-2.8,0-5-2.7-5-6S394.6,491.1,397.4,491.1z"
								/>
							<ellipse fill="#0D74B4" cx="366.9" cy="497.2" rx="5" ry="6"/>
							<ellipse fill="#0D74B4" cx="397.4" cy="497.2" rx="5" ry="6"/>
							<path fill="#EDAF18" d="M394.6,566.7l-1.4-8.4c-1.9-1.7-4.6-2.3-7.1-1.3c-3.5,1.4-5.3,5.3-3.9,8.8c0.5,1.4,1.5,2.5,2.7,3.3
								c0.5,0,0.9,0,1.4,0c2.1,0,4.2-0.1,6.3-0.3C393.5,568.3,394.1,567.6,394.6,566.7z M391.8,563.9L391.8,563.9l-0.3,1.3
								c0,0.2-0.2,0.3-0.4,0.2l0,0l-2.9-0.8c-0.1,0-0.2-0.1-0.2-0.2l-1.7-4.3c-0.1-0.2,0-0.4,0.2-0.4l1.2-0.5c0.2-0.1,0.4,0,0.4,0.2
								l1.4,3.5l2.1,0.6C391.8,563.6,391.9,563.8,391.8,563.9z"/>
							<path fill="#0D74B4" d="M365.2,482.2C363.8,483.3,364.9,482.4,365.2,482.2c0.5-0.2,1.1-0.6,1.4-0.7c2-0.8,4.1-0.9,6.2-0.5
								c4.6,0.9,6.6-6.2,2-7.1c-5.2-1-10.6-0.3-14.8,3.1c-1.6,1.2-1.3,3.9,0,5.2C361.5,483.7,363.6,483.4,365.2,482.2z"/>
							<path fill="#0D74B4" d="M399.7,481.4c0.2,0,0.5,0,0.7,0c0.2,0,0.4,0,0.6,0c0,0,0.8,0.2,0.9,0.2c2.2,0.5,4,1.7,5.6,3.3
								c3.3,3.4,8.5-1.8,5.2-5.2c-3.3-3.4-8.2-6-13-5.7C395,474.4,395,481.7,399.7,481.4z"/>
							<path fill="#8BCAE8" d="M326.2,503.4c-1.2-0.1-2.4,0.3-3.3,1.1c-1.9,1.6-2.1,4.5-0.5,6.4l11,12.8l0,0l6.8-5.9l-11-12.8
								C328.5,504.1,327.4,503.5,326.2,503.4z"/>
							<path fill="#42A9D9" d="M330.8,503.7c-1.1-1.3-2.7-2.1-4.4-2.2c-1.7-0.1-3.4,0.4-4.7,1.5c-1.3,1.1-2.1,2.7-2.2,4.4
								s0.4,3.4,1.5,4.7l11,12.8c0.2,0.2,0.5,0.3,0.7,0.3c0.2,0,0.5-0.1,0.6-0.2c0.4-0.4,0.5-1,0.1-1.4l0,0l-11-12.8
								c-1.6-1.9-1.4-4.7,0.5-6.4c0.9-0.8,2.1-1.2,3.3-1.1c1.2,0.1,2.3,0.6,3.1,1.5l11,12.8l0,0c0.4,0.4,1,0.5,1.4,0.1
								c0.4-0.4,0.5-1,0.1-1.4L330.8,503.7z"/>
							<path fill="#8BCAE8" d="M442,538.5l-9.8-13.7c0,0,0,0,0,0l-7.3,5.3l9.8,13.7c1.4,1.9,4,2.4,6,1.2c0.6-0.7,1.2-1.4,1.8-2.1
								C443.1,541.5,442.9,539.8,442,538.5z"/>
							<path fill="#42A9D9" d="M433.8,523.7c-0.3-0.4-0.9-0.5-1.4-0.2c-0.4,0.3-0.5,0.9-0.2,1.4c0,0,0,0,0,0l9.8,13.7
								c0.9,1.3,1.1,3,0.5,4.4c0.8-0.9,1.5-1.9,2.2-2.8c-0.2-1-0.5-1.9-1.1-2.7L433.8,523.7z"/>
							<path fill="#42A9D9" d="M434.7,543.8l-9.8-13.7l0,0c-0.3-0.4-0.9-0.5-1.4-0.2c-0.4,0.3-0.5,0.9-0.2,1.4l9.8,13.7
								c1.2,1.7,3.1,2.6,5.1,2.7c0.8-0.9,1.7-1.7,2.5-2.6C438.7,546.2,436.1,545.7,434.7,543.8z"/>
							<path fill="#D68310" d="M393.1,545.2c-0.2,0.2-0.4,0.3-0.7,0.4c-0.4,0.1-0.9,0.1-1.3,0l2.1,12.8l1.4,8.4l0.3,2
								c0.6-0.1,1.3-0.2,1.9-0.2L393.1,545.2z"/>
							<path fill="#D68310" d="M381.8,545.4c-0.3,0.2-0.6,0.2-0.9,0.2c-0.2,0-0.3,0-0.5-0.1c-0.2-0.1-0.4-0.2-0.6-0.3l-3.4,23.2
								c0.6,0.1,1.3,0.2,1.9,0.2L381.8,545.4z"/>
							<path fill="#EDAF18" d="M380.9,543.7c1-0.6,2.9-1.4,5.3-1.4c1.6,0,3.5,0.4,5.5,1.5l2.2-5.3c0.1-0.2,0-0.4-0.2-0.6
								c-2.4-2.2-4.9-3.2-7.6-3.2c-3.6,0-6.7,1.8-7.9,2.9c-0.2,0.2-0.3,0.4-0.2,0.6L380.9,543.7
								C380.9,543.7,380.9,543.7,380.9,543.7z"/>
							<path fill="#D68310" d="M380.9,545.7c0.3,0,0.6-0.1,0.9-0.2c0,0,0,0,0,0c1.6-0.9,4.9-2.2,9,0c0.1,0,0.2,0.1,0.3,0.1
								c0.4,0.1,0.8,0.2,1.3,0c0.2-0.1,0.5-0.2,0.7-0.4c0.2-0.2,0.4-0.5,0.5-0.8l2.2-5.3c0.4-1,0.1-2.1-0.7-2.8
								c-2.8-2.5-5.7-3.7-8.9-3.7c-3.9,0-7.6,1.8-9.3,3.5c-0.8,0.8-1,1.9-0.6,2.9l2.7,5.5c0.2,0.3,0.4,0.6,0.7,0.8
								c0.2,0.1,0.4,0.2,0.6,0.3C380.6,545.7,380.8,545.7,380.9,545.7z M378.2,538.2c-0.1-0.2,0-0.5,0.2-0.6
								c1.2-1.2,4.3-2.9,7.9-2.9c2.7,0,5.2,1,7.6,3.2c0.1,0.1,0.2,0.4,0.2,0.6l-2.2,5.3c-2-1.1-3.9-1.5-5.5-1.5
								c-2.5,0-4.4,0.9-5.3,1.4c0,0,0,0,0,0L378.2,538.2z"/>
						</g>
					</g>
					<g>
						<path fill="#FDD762" d="M496.2,442.3l1.3,4c0.2,0.6,0.7,0.9,1.3,0.9h4.2c1.3,0,1.9,1.7,0.8,2.5l-3.4,2.5
							c-0.5,0.3-0.7,1-0.5,1.5l1.3,4c0.4,1.3-1,2.3-2.1,1.5l-3.4-2.5c-0.5-0.3-1.1-0.3-1.6,0l-3.4,2.5c-1.1,0.8-2.5-0.3-2.1-1.5
							l1.3-4c0.2-0.6,0-1.2-0.5-1.5l-3.4-2.5c-1.1-0.8-0.5-2.5,0.8-2.5h4.2c0.6,0,1.1-0.4,1.3-0.9l1.3-4
							C494,441,495.8,441,496.2,442.3z"/>
						<path fill="#FDD762" d="M523.9,442.3l1.3,4c0.2,0.6,0.7,0.9,1.3,0.9h4.2c1.3,0,1.9,1.7,0.8,2.5l-3.4,2.5
							c-0.5,0.3-0.7,1-0.5,1.5l1.3,4c0.4,1.3-1,2.3-2.1,1.5l-3.4-2.5c-0.5-0.3-1.1-0.3-1.6,0l-3.4,2.5c-1.1,0.8-2.5-0.3-2.1-1.5
							l1.3-4c0.2-0.6,0-1.2-0.5-1.5l-3.4-2.5c-1.1-0.8-0.5-2.5,0.8-2.5h4.2c0.6,0,1.1-0.4,1.3-0.9l1.3-4
							C521.7,441,523.5,441,523.9,442.3z"/>
						<path fill="#FDD762" d="M551.7,442.3l1.3,4c0.2,0.6,0.7,0.9,1.3,0.9h4.2c1.3,0,1.9,1.7,0.8,2.5l-3.4,2.5
							c-0.5,0.3-0.7,1-0.5,1.5l1.3,4c0.4,1.3-1,2.3-2.1,1.5l-3.4-2.5c-0.5-0.3-1.1-0.3-1.6,0l-3.4,2.5c-1.1,0.8-2.5-0.3-2.1-1.5
							l1.3-4c0.2-0.6,0-1.2-0.5-1.5l-3.4-2.5c-1.1-0.8-0.5-2.5,0.8-2.5h4.2c0.6,0,1.1-0.4,1.3-0.9l1.3-4
							C549.5,441,551.2,441,551.7,442.3z"/>
						<path fill="#FDD762" d="M579.4,442.3l1.3,4c0.2,0.6,0.7,0.9,1.3,0.9h4.2c1.3,0,1.9,1.7,0.8,2.5l-3.4,2.5
							c-0.5,0.3-0.7,1-0.5,1.5l1.3,4c0.4,1.3-1,2.3-2.1,1.5l-3.4-2.5c-0.5-0.3-1.1-0.3-1.6,0l-3.4,2.5c-1.1,0.8-2.5-0.3-2.1-1.5
							l1.3-4c0.2-0.6,0-1.2-0.5-1.5l-3.4-2.5c-1.1-0.8-0.5-2.5,0.8-2.5h4.2c0.6,0,1.1-0.4,1.3-0.9l1.3-4
							C577.2,441,579,441,579.4,442.3z"/>
						<path fill="#FDD762" d="M607.1,442.3l1.3,4c0.2,0.6,0.7,0.9,1.3,0.9h4.2c1.3,0,1.9,1.7,0.8,2.5l-3.4,2.5
							c-0.5,0.3-0.7,1-0.5,1.5l1.3,4c0.4,1.3-1,2.3-2.1,1.5l-3.4-2.5c-0.5-0.3-1.1-0.3-1.6,0l-3.4,2.5c-1.1,0.8-2.5-0.3-2.1-1.5
							l1.3-4c0.2-0.6,0-1.2-0.5-1.5l-3.4-2.5c-1.1-0.8-0.5-2.5,0.8-2.5h4.2c0.6,0,1.1-0.4,1.3-0.9l1.3-4
							C605,441,606.7,441,607.1,442.3z"/>
					</g>
					<path fill="#FFFFFF" d="M631.3,487.6H480.7c-3.4,0-6.2-2.8-6.2-6.2v-5c0-3.4,2.8-6.2,6.2-6.2h150.6c3.4,0,6.2,2.8,6.2,6.2v5
						C637.5,484.8,634.7,487.6,631.3,487.6z"/>
					
						<rect x="730.9" y="505.6" fill="none" stroke="#FFFFFF" stroke-width="6.0325" stroke-miterlimit="10" width="54.8" height="54.8"/>
					
						<line fill="none" stroke="#FFFFFF" stroke-width="2.0108" stroke-miterlimit="10" x1="300.3" y1="596.5" x2="781.7" y2="596.5"/>
					
						<line fill="none" stroke="#FFFFFF" stroke-width="6.0325" stroke-miterlimit="10" x1="475.5" y1="509.6" x2="692.1" y2="509.6"/>
					
						<line fill="none" stroke="#FFFFFF" stroke-width="6.0325" stroke-miterlimit="10" x1="475.5" y1="533.6" x2="692.1" y2="533.6"/>
					
						<line fill="none" stroke="#FFFFFF" stroke-width="6.0325" stroke-miterlimit="10" x1="475.5" y1="557.7" x2="692.1" y2="557.7"/>
				</g>
				<g>
					<g>
						<circle fill="#EFEFEF" cx="385.8" cy="705.6" r="73.1"/>
						<g>
							<path fill="#CCE7F3" d="M433.5,684.3l-0.3-0.5c-7.3-12.2-20.6-19.8-34.7-19.8c-20.9,0-38.5,16.3-40.2,37.1l-0.1,0.9l-0.9,0.1
								c-9,1-17,4.8-23.1,10.6l8.7,10.1c0.4,0.5,0.3,1.2-0.1,1.6c-0.5,0.4-1.2,0.3-1.6-0.1l-7.7,6.6c0.4,0.5,0.3,1.2-0.1,1.6
								c-0.2,0.2-0.5,0.3-0.7,0.3c-0.3,0-0.6-0.1-0.8-0.4l-6.5-7.6c-2.3,4.7-3.7,10-3.9,15.5c12.3,22.9,36.5,38.5,64.4,38.5
								c40.4,0,73.1-32.7,73.1-73.1c0-4-0.3-8-1-11.9c-6.8-5-14.9-8.4-23.9-9.4L433.5,684.3z M404.7,710.4
								c0.3-5.8,4.6-10.4,9.7-10.5l0.1-0.2l0.1,0.2c0.1,0,0.2,0,0.3,0c5.2,0.2,9.3,5,9.2,10.8l0.1,0.1l-0.1,0.1c0,0.1,0,0.2,0,0.4
								c-0.3,6-4.8,10.7-10.2,10.5c-5.2-0.2-9.2-5-9.2-10.8l-0.1,0l0.1,0C404.7,710.7,404.7,710.6,404.7,710.4z M375.1,710.1
								c0.3-5.8,4.6-10.4,9.7-10.5l0,0l0,0c0.2,0,0.3,0,0.5,0c5.3,0.2,9.4,5.2,9.2,11.1l0.1,0l-0.1,0c0,0.1,0,0.1,0,0.2
								c-0.3,5.8-4.6,10.4-9.7,10.5l-0.1,0.2l-0.1-0.2c-0.1,0-0.2,0-0.3,0c-5.1-0.2-9.1-4.9-9.2-10.5l-0.1-0.1l0.1-0.1
								C375,710.5,375,710.3,375.1,710.1z M355.3,729.4c0-7.1,5.8-12.9,12.9-12.9c7.1,0,12.9,5.8,12.9,12.9
								c0,7.1-5.8,12.9-12.9,12.9C361.1,742.3,355.3,736.5,355.3,729.4z M387.8,727.1c-0.1-0.3,0.2-0.6,0.4-0.5l5.5,0.2l0,0l2.9,0.1
								l14.8,0.6c0.3,0,0.5,0.3,0.4,0.6c-0.8,2-4.2,8.8-13.2,8.4C390.8,736.2,388.4,729.1,387.8,727.1z M445.7,729.4
								c0,7.1-5.8,12.9-12.9,12.9s-12.9-5.8-12.9-12.9c0-7.1,5.8-12.9,12.9-12.9S445.7,722.3,445.7,729.4z"/>
							<path fill="#8BCAE8" d="M321.4,740.2c0.3-5.5,1.7-10.7,3.9-15.5l-1.6-1.8c-2.1,4.2-3.6,8.7-4.2,13.5
								C320.2,737.7,320.8,739,321.4,740.2z"/>
							<path fill="#8BCAE8" d="M334.2,712.7c6.2-5.7,14.2-9.6,23.1-10.6l0.9-0.1l0.1-0.9c1.7-20.8,19.3-37.1,40.2-37.1
								c14.1,0,27.4,7.6,34.7,19.8l0.3,0.5l0.5,0.1c8.9,1,17.1,4.4,23.9,9.4c-0.2-1-0.4-2.1-0.6-3.1c-6.5-4.4-14.2-7.4-22.5-8.4
								c-7.7-12.6-21.6-20.4-36.3-20.4c-21.7,0-40.1,16.7-42.3,38.2c-9.1,1.2-17.2,5.1-23.4,11L334.2,712.7z"/>
							<path fill="#CCE7F3" d="M341.2,724.2l-12.4-14.4c-1.8-2.1-5-2.4-7.2-0.5c-2.1,1.8-2.4,5-0.5,7.2l12.4,14.4l0,0L341.2,724.2
								C341.2,724.2,341.2,724.2,341.2,724.2z"/>
							<path fill="#8BCAE8" d="M325.4,724.7l6.5,7.6c0.2,0.3,0.5,0.4,0.8,0.4c0.3,0,0.5-0.1,0.7-0.3c0.5-0.4,0.5-1.1,0.1-1.6l0,0
								l-12.4-14.4c-1.8-2.1-1.6-5.3,0.5-7.2c2.1-1.8,5.3-1.6,7.2,0.5l12.4,14.4c0,0,0,0,0,0c0.4,0.5,1.1,0.5,1.6,0.1
								c0.5-0.4,0.5-1.1,0.1-1.6l-8.7-10.1l-1.4-1.7l-2.3-2.6c-2.6-3-7.2-3.4-10.3-0.8c-3,2.6-3.4,7.2-0.8,10.3l4.3,5L325.4,724.7z"
								/>
							<path fill="#FFFFFF" d="M382.9,704.4l1.9-4.8c-5.2,0-9.5,4.6-9.7,10.5c0,0.2,0,0.5,0,0.7l3.3-1.8
								C380.3,707.9,381.9,706.3,382.9,704.4z"/>
							<path fill="#FFFFFF" d="M391.1,708.9l3.4,1.8c0.2-5.9-3.9-10.9-9.2-11.1c-0.2,0-0.3,0-0.5,0l1.9,4.8
								C387.7,706.3,389.3,707.8,391.1,708.9z"/>
							<path fill="#FFFFFF" d="M378.4,712.7l-3.3-1.8c0.1,5.6,4.1,10.3,9.2,10.5c0.1,0,0.2,0,0.3,0l-1.8-4.2
								C381.8,715.3,380.3,713.7,378.4,712.7z"/>
							<path fill="#FFFFFF" d="M386.6,717.2l-1.8,4.2c5.2-0.1,9.5-4.6,9.7-10.5c0-0.1,0-0.1,0-0.2l-3.4,1.9
								C389.2,713.7,387.7,715.3,386.6,717.2z"/>
							<path fill="#FFFFFF" d="M416.3,717.3l-1.9,4.4l-1.9-4.4c-1-1.9-2.6-3.4-4.5-4.5l-3.4-1.8c0,5.8,4,10.5,9.2,10.8
								c5.4,0.2,10-4.4,10.2-10.5c0-0.1,0-0.2,0-0.4l-3.3,1.8C418.9,713.8,417.4,715.4,416.3,717.3z"/>
							<path fill="#FFFFFF" d="M412.6,704.5l1.8-4.6c-5.2,0.1-9.5,4.6-9.7,10.5c0,0.2,0,0.3,0,0.5l3.4-1.9
								C410,708,411.6,706.4,412.6,704.5z"/>
							<path fill="#FFFFFF" d="M420.9,709l3.3,1.8c0-5.8-4-10.6-9.2-10.8c-0.1,0-0.2,0-0.3,0l1.8,4.6
								C417.4,706.4,419,707.9,420.9,709z"/>
							<path fill="#0D74B4" d="M411.8,728.1c0.1-0.3-0.1-0.6-0.4-0.6l-14.8-0.6l5.9,0.3l-0.2,4.1c0,0.3-0.3,0.6-0.7,0.6l-7.5-0.3
								c-0.3,0-0.6-0.3-0.6-0.7l0.2-4.1l-5.5-0.2c-0.3,0-0.5,0.3-0.4,0.5c0.6,2.1,3,9.1,10.8,9.4C407.6,736.9,411,730.1,411.8,728.1
								z"/>
							<path fill="#FFFFFF" d="M394.1,731.5l7.5,0.3c0.3,0,0.6-0.3,0.7-0.6l0.2-4.1l-5.9-0.3l-2.9-0.1l0,0l-0.2,4.1
								C393.5,731.2,393.8,731.5,394.1,731.5z"/>
							<circle fill="#F7D8D7" cx="368.2" cy="729.4" r="12.9"/>
							<circle fill="#F7D8D7" cx="432.9" cy="729.4" r="12.9"/>
							<path fill="#146EA8" d="M375.1,710.9l3.3,1.8c1.9,1,3.4,2.6,4.5,4.5l1.8,4.2l0.1,0.2l0.1-0.2l1.8-4.2c1-1.9,2.6-3.5,4.5-4.5
								l3.4-1.9l0.1,0l-0.1,0l-3.4-1.8c-1.9-1-3.4-2.6-4.5-4.5l-1.9-4.8l0,0l0,0l-1.9,4.8c-1,1.9-2.6,3.5-4.5,4.5l-3.3,1.8l-0.1,0.1
								L375.1,710.9z"/>
							<path fill="#146EA8" d="M404.7,711l3.4,1.8c1.9,1,3.4,2.6,4.5,4.5l1.9,4.4l1.9-4.4c1-1.9,2.6-3.5,4.5-4.5l3.3-1.8l0.1-0.1
								l-0.1-0.1l-3.3-1.8c-1.9-1-3.4-2.6-4.5-4.5l-1.8-4.6l-0.1-0.2l-0.1,0.2l-1.8,4.6c-1,1.9-2.6,3.5-4.5,4.5L404.7,711L404.7,711
								L404.7,711z"/>
						</g>
					</g>
					<g>
						<path fill="#FDD762" d="M496.2,652.3l1.3,4c0.2,0.6,0.7,0.9,1.3,0.9h4.2c1.3,0,1.9,1.7,0.8,2.5l-3.4,2.5
							c-0.5,0.3-0.7,1-0.5,1.5l1.3,4c0.4,1.3-1,2.3-2.1,1.5l-3.4-2.5c-0.5-0.3-1.1-0.3-1.6,0l-3.4,2.5c-1.1,0.8-2.5-0.3-2.1-1.5
							l1.3-4c0.2-0.6,0-1.2-0.5-1.5l-3.4-2.5c-1.1-0.8-0.5-2.5,0.8-2.5h4.2c0.6,0,1.1-0.4,1.3-0.9l1.3-4
							C494,651,495.8,651,496.2,652.3z"/>
						<path fill="#FDD762" d="M523.9,652.3l1.3,4c0.2,0.6,0.7,0.9,1.3,0.9h4.2c1.3,0,1.9,1.7,0.8,2.5l-3.4,2.5
							c-0.5,0.3-0.7,1-0.5,1.5l1.3,4c0.4,1.3-1,2.3-2.1,1.5l-3.4-2.5c-0.5-0.3-1.1-0.3-1.6,0l-3.4,2.5c-1.1,0.8-2.5-0.3-2.1-1.5
							l1.3-4c0.2-0.6,0-1.2-0.5-1.5l-3.4-2.5c-1.1-0.8-0.5-2.5,0.8-2.5h4.2c0.6,0,1.1-0.4,1.3-0.9l1.3-4
							C521.7,651,523.5,651,523.9,652.3z"/>
						<path fill="#FDD762" d="M551.7,652.3l1.3,4c0.2,0.6,0.7,0.9,1.3,0.9h4.2c1.3,0,1.9,1.7,0.8,2.5l-3.4,2.5
							c-0.5,0.3-0.7,1-0.5,1.5l1.3,4c0.4,1.3-1,2.3-2.1,1.5l-3.4-2.5c-0.5-0.3-1.1-0.3-1.6,0l-3.4,2.5c-1.1,0.8-2.5-0.3-2.1-1.5
							l1.3-4c0.2-0.6,0-1.2-0.5-1.5l-3.4-2.5c-1.1-0.8-0.5-2.5,0.8-2.5h4.2c0.6,0,1.1-0.4,1.3-0.9l1.3-4
							C549.5,651,551.2,651,551.7,652.3z"/>
						<path fill="#E6E6E6" d="M579.4,652.3l1.3,4c0.2,0.6,0.7,0.9,1.3,0.9h4.2c1.3,0,1.9,1.7,0.8,2.5l-3.4,2.5
							c-0.5,0.3-0.7,1-0.5,1.5l1.3,4c0.4,1.3-1,2.3-2.1,1.5l-3.4-2.5c-0.5-0.3-1.1-0.3-1.6,0l-3.4,2.5c-1.1,0.8-2.5-0.3-2.1-1.5
							l1.3-4c0.2-0.6,0-1.2-0.5-1.5l-3.4-2.5c-1.1-0.8-0.5-2.5,0.8-2.5h4.2c0.6,0,1.1-0.4,1.3-0.9l1.3-4
							C577.2,651,579,651,579.4,652.3z"/>
						<path fill="#E6E6E6" d="M607.1,652.3l1.3,4c0.2,0.6,0.7,0.9,1.3,0.9h4.2c1.3,0,1.9,1.7,0.8,2.5l-3.4,2.5
							c-0.5,0.3-0.7,1-0.5,1.5l1.3,4c0.4,1.3-1,2.3-2.1,1.5l-3.4-2.5c-0.5-0.3-1.1-0.3-1.6,0l-3.4,2.5c-1.1,0.8-2.5-0.3-2.1-1.5
							l1.3-4c0.2-0.6,0-1.2-0.5-1.5l-3.4-2.5c-1.1-0.8-0.5-2.5,0.8-2.5h4.2c0.6,0,1.1-0.4,1.3-0.9l1.3-4
							C605,651,606.7,651,607.1,652.3z"/>
					</g>
					<path fill="#FFFFFF" d="M631.3,697.6H480.7c-3.4,0-6.2-2.8-6.2-6.2v-5c0-3.4,2.8-6.2,6.2-6.2h150.6c3.4,0,6.2,2.8,6.2,6.2v5
						C637.5,694.8,634.7,697.6,631.3,697.6z"/>
					
						<rect x="730.9" y="715.5" fill="none" stroke="#FFFFFF" stroke-width="6.0325" stroke-miterlimit="10" width="54.8" height="54.8"/>
					
						<line fill="none" stroke="#FFFFFF" stroke-width="2.0108" stroke-miterlimit="10" x1="300.3" y1="806.5" x2="781.7" y2="806.5"/>
					
						<line fill="none" stroke="#FFFFFF" stroke-width="6.0325" stroke-miterlimit="10" x1="475.5" y1="719.5" x2="692.1" y2="719.5"/>
					
						<line fill="none" stroke="#FFFFFF" stroke-width="6.0325" stroke-miterlimit="10" x1="475.5" y1="743.6" x2="692.1" y2="743.6"/>
					
						<line fill="none" stroke="#FFFFFF" stroke-width="6.0325" stroke-miterlimit="10" x1="475.5" y1="767.7" x2="692.1" y2="767.7"/>
				</g>
			</g>
			<path fill="#3DB4E8" d="M333,869.3c18.8,0,46.1-25.3,46.1-44.1h519.6c0,0-2,44.1-52.2,44.1H333"/>
		</g>
		<g>
			<g>
				<g>
					<path fill="#020F2B" d="M938.7,505.2l-37.2-160.1c-0.5-4.2,7-14.2,10.7-16.3c10-5.8,22.4-6.6,33.8-4.2
						c36.9,7.7,68.3,155.3,62.1,151.7c0,0-55.4,28.9-73.3,17.2"/>
					<path fill="#FBB78B" d="M941.7,359c0,0.6,0.4,1,1,1c2.3,0,7.7-0.5,8.5,5.6c0.8,6.2-5.1,9.6-8.6,9.8c-1,0.1-3.4,0.3-4.1,1
						c-2.1,2.3-3.1,7.4-4.8,13.6c-3.6,13.9,7.3,20.2,7.3,20.2s-36.4,17.9-36.1,0c0,0,2.9-33,2.7-33.2c-2.8-2.8-13.9-4.1-6.9-27.6
						c6.4-21.8,22.4-20.2,26.5-19.5C930.6,330.6,942.5,331.3,941.7,359z"/>
					<path fill="#020F2B" d="M915.9,327.8c0,0,22.3,29.5,26.2,32C942.1,359.8,957.4,323.8,915.9,327.8z"/>
					<g>
						<path fill="#F7C7C6" d="M948.5,367.3c0,0-3.7-7.7-8.3,2.6"/>
						<path fill="#DB9F7D" d="M907.6,377.1c0,0,10.4,2,15.6,1.6C928.5,378.4,902.2,408.6,907.6,377.1z"/>
					</g>
				</g>
				<ellipse fill="#8FD3F3" cx="964.6" cy="908.4" rx="108.5" ry="9"/>
				<g>
					<path fill="#FBB78B" d="M908.9,857.4l0.6,26.8c0,0-6.1,17.8-11.7,10.9c-5.6-6.9-11.2-10.5-11.2-10.5l10.8-27.9L908.9,857.4z"/>
					<path fill="#FBB78B" d="M1008.6,855.3l2.8,26.8c0,0,6.4,5.6,8.7,5.4c4.2-0.3,6.4-7.5,6.4-7.5l0.7-24.7H1008.6z"/>
					<path fill="#EB6164" d="M884.8,884.5l-22.5,18.2c-1.2,0.9-0.3,2.3,1.3,2.3l33.2,0.3c0.8,0,1.5-0.4,1.8-0.9l2.5-5.1
						c0.7-1.5,2.2-1.6,2,0l1.2,5c-0.1,0.8,7.9,0.6,7.9-0.1c0.4-4.4-0.5-18.8-1.3-22.8c-0.1-0.6-0.7-1-1.5-1.1l0,0
						c-0.7-0.1-1.4,0.1-1.9,0.5c-2.2,2.2-9.4,8.7-13.2,7.4c-2.6-0.9-5.9-2.5-6.9-3.4C886.8,883.9,885.5,883.9,884.8,884.5z"/>
					<path fill="#EB6164" d="M1026.7,879.2l12.8,21.4c1.4,2.1,0.6,4.6-1.9,6c-4,2.4-7.3,7.1-9.8,7.2c-4.5,0.1-11.6-4.7-15.7-6.4
						c-2.8-1.2-4.9-3-4.6-5.3l3.2-21.4c0-0.3,0.5-0.4,0.7-0.2l4.9,4.4c1.6,1.5,5.9,1.3,7-0.5c0.8-1.2,2.6-5.2,2.6-5.2
						C1026.1,878.9,1026.6,878.9,1026.7,879.2z"/>
				</g>
				<g>
					<path fill="#0095D8" d="M959,502.6c10.3,18.2,15.8,31.6,21.7,54.7c6.9,26.9,81.2,254.1,84.4,303c-8.5,2-64.7,1.7-70,1.4
						c-17-48.8-60.1-207.2-67.4-237.9c-1.1-4.7-8.4-3.7-7.9,1.1c4.1,35.1,26.5,182.9,37.6,236.8c-4.4,2.3-68.9,1.8-74,1.1
						c-5.6-60.2-35.2-288,9.5-361.9C913.3,498.3,938.3,502,959,502.6z"/>
					<image width="85" height="64" xlink:href="51E1991A.png"  transform="matrix(1 0 0 1 893 510)">
					</image>
				</g>
				<path fill="#C20034" d="M932.3,403.2c0,0,5.3-1.5,4.4-0.4c-0.9,1.1-2.8,2.4-4.7,3.7L932.3,403.2z"/>
				<path fill="#D15449" d="M984,611.8c0-0.4,0.4-5.2,0.4-5.2l-2.2,6.8L984,611.8z"/>
				<g>
					<path fill="#FBB78B" d="M812.2,452.3c0,0,55,76.3,67.9,67.2c0,0,14.8-10.4,7.3-53c0-4.1,0-7,0.1-7.7c0,0,3.2-42.1,10.1-50.8
						c0.8-1,3-2.7,2.7-2.8c-21.1-5.3-29.2,47.8-35,72.4c-0.2,1-40.5-38.2-40.5-38.2s-21.1-27.9-22.6-26.3c-2.1,2.3,6,14.8,6,14.8
						s-0.5,1.4-2.1,2.1c-1.6,0.7-2.5,1.8-3,3.9c-0.5,2.1-2.7,3.4-3,4.6C799.8,439.7,807.7,449,812.2,452.3z"/>
					<path fill="#FBB78B" d="M824.2,439.1c0,0-4.3-12.1-6-11.7c-1.8,0.4-9.6,3.7-9.4,6.8c0.2,3,6.9,0.5,6.9,0.5s-1.2,6.8,2.1,7.6
						C821.1,443.2,824.2,439.1,824.2,439.1z"/>
				</g>
				<path fill="#EF8582" d="M900.4,405.2c0,0-13.7-1.9-19.1,9.2c-5.5,11.1-17.5,60.9-17.5,60.9l-33.7-32.2l-13,23.7
					c0,0,47.9,60.5,61.6,56.2C892.5,518.7,900.6,420.4,900.4,405.2z"/>
				<g>
					<path fill="#EF8582" d="M898.2,407.5c0.6,1.4-16.9,43.2-16.2,57.4c0.7,14.3,10.4,38.2,9.7,40.4c0,0,11.1,8.7,72.1-0.9
						c18.8-16.4,2.3-72.2-4-89.8c0,0-12-6-17.2-6.4C942.6,408.2,922.3,414.7,898.2,407.5z"/>
					<path fill="#FFEBF1" d="M942.7,408.1l-8.6-11.3c0,0-10.3,7.3-25.7,12.7l0.3,4c0.5,8,9.2,12.6,16.1,8.6
						C931.9,418,939.6,412.7,942.7,408.1z"/>
					<path fill="#FFEBF1" d="M906.2,396.2c0,0-2.6,9.8,2.3,13.5l-1.4,3.4c-1.6,4.7-8.5,3.9-8.9-1.1c-0.2-1.9-0.2-3.7,0.1-5.1
						L906.2,396.2z"/>
				</g>
				<g>
					<path fill="#FDD762" d="M949.7,632l78.8-50.5l-32.7-51l-68.1,43.6c-5.9,3.8-7.7,11.7-3.9,17.6L949.7,632z"/>
				</g>
				<g>
					<image width="22" height="80" xlink:href="51E1991E.png"  transform="matrix(1 0 0 1 963 540)">
					</image>
					<path fill="#F1ABA5" d="M979.3,452.8c23.6,131.6,8.3,156.6,6.7,157.6c-1.9,1.3-12.9,11.4-14.3,11.8c-2.7,0.9,0.2-12.5-0.2-19.6
						c-0.1-1.3-0.4,4.5-0.5,7l-0.3,5.5c-3.3-1.5-3.2-7.8-3.7-10c-0.7-2.9-0.1-4.7,0.2-5.4c1.5-3.1,4.4-9.3,4.8-14.9
						c0.3-3.3-22.1-110.1-26-125.8c-5.3-21.3,1.4-45.8,8.9-46.7C964.2,411.3,977.3,441.9,979.3,452.8z"/>
					<path fill="#EF8582" d="M995.8,577.3c-0.9-4,4.1-80.8-13-131c-7.7-22.4-18.7-35-28-33.9c-7.5,0.8-14.2,25.3-8.9,46.7
						c3.9,15.7,12.2,85.8,19.1,121.6L995.8,577.3z"/>
				</g>
			</g>
			<g>
				<path fill="#FDD762" d="M964.7,307.4l15.7-15.7h59.1c12,0,21.8-9.7,21.8-21.8v-4.7c0-12-9.7-21.8-21.8-21.8h-53
					c-12,0-21.8,9.7-21.8,21.8V307.4z"/>
				<g>
					<circle fill="#FAFAFA" cx="1035.3" cy="267" r="5.4"/>
					<circle fill="#FAFAFA" cx="1015.4" cy="267" r="5.4"/>
					<circle fill="#FAFAFA" cx="995.5" cy="267" r="5.4"/>
				</g>
			</g>
		</g>
		<g>
			<ellipse fill="#8FD3F3" cx="151" cy="875.1" rx="108.5" ry="9"/>
			<g>
				<g>
					<polygon fill="#FBB78B" points="199.3,847.3 195.5,839.6 172.4,840.4 171.9,847.3 182.7,866.1 202.2,851 					"/>
					<path fill="#005FA3" d="M200.7,847c0,0-6.8-0.1-14.7,5.9c-4.7,3.6-11.8-3.8-14-5.7c-0.4-0.4-1,0-1.1,0.6l-2.7,24.8h68.6
						c0.8,0,1.4-0.8,1.4-1.9v-5.2c0-0.8-0.4-1.5-1-1.8L200.7,847z"/>
					
						<line fill="none" stroke="#FFFFFF" stroke-width="0.9746" stroke-miterlimit="10" x1="204.6" y1="848.3" x2="193.5" y2="854.7"/>
					
						<line fill="none" stroke="#FFFFFF" stroke-width="0.9746" stroke-miterlimit="10" x1="209.4" y1="850.8" x2="198.3" y2="857.2"/>
				</g>
				<g>
					<polygon fill="#FBB78B" points="87.5,847.3 83.6,839.6 62.4,836.4 60,847.3 70.9,866.1 90.4,851 					"/>
					<path fill="#005FA3" d="M88.9,847c0,0-6.8-0.1-14.7,5.9c-4.7,3.6-11.8-3.8-14-5.7c-0.4-0.4-1,0-1.1,0.6l-2.7,24.8h68.6
						c0.8,0,1.4-0.8,1.4-1.9v-5.2c0-0.8-0.4-1.5-1-1.8L88.9,847z"/>
					<line fill="none" stroke="#FFFFFF" stroke-width="0.9746" stroke-miterlimit="10" x1="94.3" y1="848.8" x2="83.2" y2="855.2"/>
					<line fill="none" stroke="#FFFFFF" stroke-width="0.9746" stroke-miterlimit="10" x1="99.1" y1="851.3" x2="88" y2="857.6"/>
				</g>
				<path fill="#666464" d="M171,287c4.8-7.6,6.3-18.9-2-24c-4.3-2.6-10-2-13.9,1.2c-1.8,1.5-3.1,3.4-4.2,5.4
					c-1.7-2.4-4.2-4-7.3-3.9c-2.7,0.1-5.8,2.1-7.7,4.8c-2.7-0.8-5.7-0.9-8-0.3c-5.9,1.5-6.9,9.2-3.7,13.8
					c-4.2,5.6-5.4,13.5,0.6,33.1l0.1,0.2l8.1,4.4l0.2-0.5l0,0l0,0l0.2-0.5l-0.6-0.3l8.1-26.2c1-0.7,7.8-5.2,11.3-2.4
					c3.6,2.8,7.7,5.4,10.9,4.2c1.4-0.6,2.7-2,3.7-3.3C168.7,291.3,170.1,289.3,171,287z M167.4,265.7c3.1,1.9,4.4,4.9,4.4,8.2
					c-1.4-6.5-7.6-9.7-13.8-8C160.9,264.2,164.4,263.9,167.4,265.7z M127.4,317.1c0.9,0.3,2.3,0.9,3.6,2.2l-1.8-0.9L127.4,317.1z"/>
				<g>
					<path fill="#FFE893" d="M195,546.7c0,0,8.8,105.6,9.7,134.8c0.8,29.2-5,159.3-5,159.3l-36.7,0.7c0,0-25.7-218.2-61.3-288.6
						L195,546.7z"/>
				</g>
				<g>
					<path fill="#FDD762" d="M195.1,546.7c0,0-20.4,88-41.1,150.3c-16.8,50.3-53.9,146.7-53.9,146.7l-41.2-1l35.8-144.2
						c1.9-7.5,3.1-15.2,3.6-22.9c1.8-29.2-4.2-88.3-6.7-126.2L195.1,546.7z"/>
				</g>
				<g>
					<path fill="#FBB78B" d="M145.8,380.5c0,0-1.2-9.5,7.6-10.9c8.8-1.4,32.4-7.6,92.4,12.9c0,0,10.4-58.1,10.5-62.8
						c0.3-12.2,6.2-29.5,15.6-37.9c0.8-0.7,0.4,31.6,0.7,48.2c0,0,6.9,83.4-2.8,91.8C260.1,430.2,136.1,409.1,145.8,380.5z"/>
					<path fill="#007BC2" d="M163.5,366.1c0,0-33.9-5.6-32.9,20.8s67,44.4,85,40.1l-5.6-58.7L163.5,366.1z"/>
					<path fill="#005FA3" d="M215.3,426.1c-5.3,6.3-56.8-6.9-62.5-15.6c0,0-0.9-28.9,1.3-29.5C176.5,375,215.3,426.1,215.3,426.1z"
						/>
				</g>
				<g>
					<path fill="#007BC2" d="M115.3,363.1c0,0-46.1,4.7-49,42.9c-2.9,38.2,20.9,144,20.9,144l115.5-3.7L196.4,415
						c-0.5-9.7-3.5-19.2-8.7-27.3c-4.8-7.5-10.5-16.1-13.7-16.5l-51.7-13.3L115.3,363.1z"/>
					<path fill="#005FA3" d="M105.8,377.5c-28-11.2-38,9.4-39.5,28.5c-2.9,38.2,20.9,144,20.9,144l115.5-3.7"/>
				</g>
				<path fill="#FFFFFF" d="M166.8,496.2c0.3,2-0.1,3.7-0.7,3.8c-0.7,0.1-1.4-1.5-1.7-3.5c-0.3-2,0.1-3.7,0.7-3.8
					C165.8,492.6,166.6,494.2,166.8,496.2z"/>
				<g>
					<path fill="#FBB78B" d="M129.8,328.6l-2.7,26l26.8,22.3l3.9-11.6l-2.1-21.5l-21.6-19.5c0,0-3.3,2.4-3.7,3.2
						C130,328.3,129.8,328.6,129.8,328.6z"/>
					<path fill="#DB9F7D" d="M134.2,324.3l21.6,19.5l1.5,12.8c0,0-19.6-5.4-20.3-21.6"/>
				</g>
				<g>
					<g>
						<path fill="#FFFFFF" d="M157.8,393.6c0.3,2-0.1,3.7-0.7,3.8c-0.7,0.1-1.4-1.5-1.7-3.5c-0.3-2,0.1-3.7,0.7-3.8
							C156.8,390,157.6,391.6,157.8,393.6z"/>
						<path fill="#FFFFFF" d="M159.6,414.1c0.3,2-0.1,3.7-0.7,3.8c-0.7,0.1-1.4-1.5-1.7-3.5c-0.3-2,0.1-3.7,0.7-3.8
							C158.6,410.5,159.4,412.1,159.6,414.1z"/>
						<path fill="#FFFFFF" d="M161.4,434.6c0.3,2-0.1,3.7-0.7,3.8c-0.7,0.1-1.4-1.5-1.7-3.5c-0.3-2,0.1-3.7,0.7-3.8
							C160.4,431.1,161.2,432.6,161.4,434.6z"/>
						<path fill="#FFFFFF" d="M163.2,455.2c0.3,2-0.1,3.7-0.7,3.8c-0.7,0.1-1.4-1.5-1.7-3.5c-0.3-2,0.1-3.7,0.7-3.8
							C162.2,451.6,163,453.1,163.2,455.2z"/>
						<path fill="#FFFFFF" d="M165,475.7c0.3,2-0.1,3.7-0.7,3.8c-0.7,0.1-1.4-1.5-1.7-3.5c-0.3-2,0.1-3.7,0.7-3.8
							C164,472.1,164.8,473.7,165,475.7z"/>
						<path fill="#FFFFFF" d="M168.6,516.7c0.3,2-0.1,3.7-0.7,3.8c-0.7,0.1-1.4-1.5-1.7-3.5c-0.3-2,0.1-3.7,0.7-3.8
							C167.6,513.1,168.4,514.7,168.6,516.7z"/>
						<path fill="#FFFFFF" d="M170.4,537.2c0.3,2-0.1,3.7-0.7,3.8c-0.7,0.1-1.4-1.5-1.7-3.5c-0.3-2,0.1-3.7,0.7-3.8
							C169.4,533.7,170.2,535.2,170.4,537.2z"/>
					</g>
					<g>
						<polygon fill="#FFFFFF" points="126.3,352.6 112,359.2 147.7,389.5 153.9,376.8 						"/>
						<path fill="#FFFFFF" d="M157.8,362.5c0.6,0.2,6.2,4.1,6.2,4.1l0.2,19.1l-10.4-8.8L157.8,362.5z"/>
					</g>
				</g>
				<g>
					<g>
						<path fill="#0095D8" d="M189.1,494.9l25.7-80.7c1.4-4.5,4.7-8.1,8.9-9.9l52.6-22.7c1.6-0.7,3.2,0.9,2.6,2.5l-26,79
							c-1.4,4.3-4.4,7.7-8.4,9.6l-52.8,24.7C190.2,498.1,188.6,496.6,189.1,494.9z"/>
						<path fill="#FFFFFF" d="M193.5,499.6l25.7-80.7c1.4-4.5,4.7-8.1,8.9-9.9l52.6-22.7c1.6-0.7,3.2,0.9,2.6,2.5l-26,79
							c-1.4,4.3-4.4,7.7-8.4,9.6l-52.8,24.7C194.7,502.9,193,501.3,193.5,499.6z"/>
						<polygon fill="#EBF6FB" points="209.1,480.4 257.8,459.1 254.7,469.3 205,491.6 						"/>
					</g>
					<path fill="#FBB78B" d="M226.3,454.8c-2.8,2.6-53.9,55-78.4,78.6c-6.6,6.4-17.2,4.8-21.8-3.2L83,458l40.8-31.6
						c0.3,0.4,21.6,36.7,26.5,54.8c1.6,6,4.4,5.5,9.3,2.5l37.2-22.9c0,0-0.1-6.5,0.8-9c1.6-4.7,9-11,9-11l-3.2,9.9
						c-0.6,1.7-2.5,2.9,0.5,3.2l23.6-17.5c0,0,2.2-0.2,0.1,2.1c-2,2.3-4.3,4.8-4,4.9c0.3,0.2,6.7-4.4,7-2.6c0.3,1.7-5.3,5.9-5,6.1
						c0.2,0.2,6.3-4.8,6.6-3.2c0.3,1.6-4.3,4.8-4.5,5.4c-0.2,0.6,5-3.4,5.2-2.5C233.2,447.7,227.9,453.3,226.3,454.8z"/>
					<path fill="#007BC2" d="M113,394.4c0,0-11.6-32.6-34-18.9c-22.4,13.7-5.8,80.7,6.6,94.4l48.1-33.5L113,394.4z"/>
				</g>
				<g>
					<path fill="#FBB78B" d="M132.1,317c-0.3,0.7-1.1,0.9-1.6,0.4c-1.8-1.7-5.3-4.1-6.5,2.8c-1.7,9.3,8,7.7,8.8,9
						c1.6,2.5,6.6,11.1,14.1,14.4c4.6,2,11.4,2.3,16.4-2.5c5-4.8,7.2-1.5,5.1-52.9c0,0-2.3,4.4-5.6,5.6c-3.3,1.1-8.6-3.4-12.3-4.5
						c-3-0.9-9-3.1-12.6,7.5C136.3,301.7,133.6,313,132.1,317z"/>
				</g>
			</g>
			<g>
				<path fill="#FDD762" d="M103.7,257.9l-15.7-15.7H28.7c-12,0-21.8-9.8-21.8-21.8v-4.7c0-12,9.8-21.8,21.8-21.8h53.1
					c12,0,21.8,9.8,21.8,21.8V257.9z"/>
				<g>
					<circle fill="#FAFAFA" cx="32.9" cy="217.4" r="5.4"/>
					<circle fill="#FAFAFA" cx="52.9" cy="217.4" r="5.4"/>
					<circle fill="#FAFAFA" cx="72.8" cy="217.4" r="5.4"/>
				</g>
			</g>
		</g>
	</g>
</g>
<g id="圖層_2">
</g>
</svg>
