<svg xmlns="http://www.w3.org/2000/svg" viewBox="0 0 855 605"><title>工程師培訓營報名頁面_首頁BN</title><g opacity="0.8"><path d="M458.16,553.33S559.43,306.21,631.42,337.84,523.61,487.5,496.61,560.43Z" fill="#cbcbcb"/></g><path d="M489.67,521.38S645.82,298.74,712.3,349s-141.89,122.91-185,189.35Z" fill="#f1f1f1"/><path d="M510.62,531.09c29-46.47,75.15-85.82,108.73-110.65,36.41-26.92,66.32-43,66.61-43.19l-.93-2c-.3.16-30.33,16.34-66.86,43.35-33.73,24.94-80.08,64.49-109.28,111.25Z" fill="#fff"/><path d="M657.21,300.69c3.34-5.21,6.35-5.26,8.83-3.42s3.5,4.89.16,10.1c-6.09,9.49-13.53,10.74-13.53,10.74S651,310.32,657.21,300.69Z" fill="#e5e5e5"/><path d="M375.38,441.89s2.74-105.46-23.87-105.19,12.71,71.11,11,101.78Z" fill="#cbcbcb"/><path d="M375,450.21S341.18,308.13,299.46,318s45.68,90.6,54.09,132.24Z" fill="#f1f1f1"/><path d="M363,450.35c-5.33-28.88-20.29-58-31.91-77.41a352.12,352.12,0,0,0-24.18-35.49l.83-.77A353.4,353.4,0,0,1,332,372.3c11.67,19.46,26.7,48.76,32.06,77.82Z" fill="#fff"/><g opacity="0.4"><path d="M197.61,409.27c-3.63-5.92-3-8.93-.81-10.46s5-1,8.62,4.91c6.62,10.79,5.91,18.78,5.91,18.78S204.32,420.22,197.61,409.27Z" fill="#e5e5e5"/><path d="M190.86,430.46c-6.47-1.39-8-4-7.48-6.74s2.84-4.53,9.3-3.14c11.78,2.52,16.56,8.69,16.56,8.69S202.81,433,190.86,430.46Z" fill="#e5e5e5"/></g><path d="M209.74,180s280,107.78,366.86,180.6C681,448.06,400.52,440.67,395.73,469.21S683.3,549.9,683.3,549.9c-13.5,42.35-210.67,62.66-360.16,32.22C265.5,570.37,189,535,194.54,472.11c9-102.81,198.43-70.5,192.45-107.5S195.39,203,195.39,203Z" fill="#3db4e8"/><path d="M241.37,167.28C219.66,151.58,140,134.4,138.8,143.77s39.91,97.51,50.73,94.78,17.07-45.19,17.07-45.19S253.09,175.76,241.37,167.28Z" fill="#3db4e8"/><g opacity="0.4"><path d="M405.74,69.59a30.09,30.09,0,0,0-30.15-15.47c-21.61,2.22-19,19.94-29.33,18.28s-24.69,0-27.78,11.08-17,5-17.49,14.4,15.95,16.06,35,7.75,28.3,6.45,55,3.78,30.07-6,45.9-4.34,15.46-10,8.26-17.77S408.82,80.3,405.74,69.59Z" fill="#f1f1f1"/></g><path d="M766.72,204.42a20.78,20.78,0,0,0-20.82-10.68c-14.92,1.53-13.15,13.77-20.25,12.62s-17.05,0-19.19,7.65-11.72,3.44-12.08,9.95,11,11.09,24.16,5.36,19.54,4.46,38,2.61,20.76-4.14,31.7-3,10.68-6.91,5.7-12.27S768.85,211.81,766.72,204.42Z" fill="#f1f1f1"/><path d="M526.31,235c-8-15.79-38.78-35.83-48.22-34.18-2,.35,11.29-27.53,15.77-24.69,15.53,9.82,38.61,31.48,44.32,47.25Z" fill="#666464"/><path d="M529.52,225.69c3.81-4.75,7.3-4.09,8.66-2.33s-.31,5.68-3.73,8.73-6.78,4.66-8.14,2.89S526.61,229.31,529.52,225.69Z" fill="#1a1a1a"/><path d="M530.06,231.67c0,2,.74,5.86.75,7.82,0,.85.2,3.72,1,3.83s1.52-2.24,1.8-3.41c3,4.63,9.26,10,3.64-.22h0c.66,1,4.31,6.4,5.16,5,.75-1.27-1.72-5.27-2.78-6.89l0,0c1.21,1.54,4.23,5.19,4.57,3.73.43-1.84-2.17-6.29-2.17-6.29s3.45,5.61,4.19,3.56c.42-1.15-1.86-4.15-3.31-6h0l-.77-1a3.14,3.14,0,0,0-.5-.52,27.74,27.74,0,0,0-4.71-4.33,3.66,3.66,0,0,0-4.84-.1C530.45,228.11,530.07,230.82,530.06,231.67Z" fill="#f6c8b5"/><path d="M459.73,343.9s1.74,4.69-.66,7.34-10.38,7.73-6,9.26c2.49.88,10.59-4.17,13-5.28s5.12-1,6.23-3.59c1.21-2.82-4.54-11.42-4.54-11.42a10.68,10.68,0,0,1-3.51,2.94A7.8,7.8,0,0,1,459.73,343.9Z" fill="#1a1a1a"/><path d="M529.29,363.25s.25,5-2.8,6.73-12.13,3.75-8.46,6.7c2.1,1.69,11.27-.3,13.89-.53s5.16.79,7-1.26c2-2.26-.91-12.39-.91-12.39a10,10,0,0,1-4.2,1.58A7.86,7.86,0,0,1,529.29,363.25Z" fill="#1a1a1a"/><path d="M471.55,247s-10.28-5.9,4.79,28.56c10.88,24.87,34,69.19,45.57,84.47,2.81,3.72,6.95,6.43,11.88,5.28l2.65-.62c5.34-1.25,8.65-6.6,7.09-11.47L504.27,241.32s-2.45-3.14-16.14-1.57C471.36,241.67,471.55,247,471.55,247Z" fill="#7d7d7d"/><path d="M457.35,249.32s-20.58,16.43-25.91,37.85c-6.06,24.33,20.48,56.76,26.81,59.27,4.13,1.63,7.42,0,12.1-8.75,2.8-5.24-10.82-35.07-6.56-45.34,5.16-12.42,30.43-22.69,30.43-22.69l-2.45-32S473.19,242.05,457.35,249.32Z" fill="#7d7d7d"/><path d="M501.53,184.66s-3.65-13.2-26.73-12.29c-17.78.71-27.73,3.24-29.88,15.93-.76,4.5-2.59,21.21,6.94,65.67,0,0,31.36,14.65,60.64-1.35,0,0-4.47-23.73-9.76-60.2C502.29,189.33,502.46,187,501.53,184.66Z" fill="#666464"/><path d="M469.57,178c1.11,4.35,9.38,35.55,54.88,23.7a13.7,13.7,0,0,1,8.51.52l7.5,3a1.65,1.65,0,0,1,.65,2.49l-4.5,6a20.2,20.2,0,0,1-11.43,7.66c-9.44,2.28-26.3,4.53-40.55-3.21C467.72,209,465.53,187,465.32,178.66a1.48,1.48,0,0,1,2.39-1.3h0C468,177.57,469.49,177.72,469.57,178Z" fill="#3db4e8"/><path d="M474.08,169.16l-1.24-6.3-.36-1.83-2.12-10.78-1.29,10.39-.77,6.23-.25,2c-.17,1.34-1,1.55-2,2.62-.42.44-3.06,3.07-.45,4.64,3.26,2,9.82.14,12.51-2.83C478.12,173.27,474.48,171.19,474.08,169.16Z" fill="#f6c8b5"/><path d="M473.18,164.55a8.17,8.17,0,0,1-4.87,2.32l.36-2.54Z" fill="#131f2d"/><path d="M462.95,145.54a14.82,14.82,0,0,0-.49,5.72c.34,3.24,4-4.28,4-4.28Z" fill="#5c305d"/><path d="M462,152.14c1.28-6.08,6.11-10.08,10.79-8.94s7.44,7,6.16,13.07-6.11,10.08-10.79,8.94S460.74,158.21,462,152.14Z" fill="#f6c8b5"/><path d="M479.46,153.07l-4.15-.88a3.09,3.09,0,0,1-2.13-1.7c-.73-1.53-1.7-2.38-5.62-2.61-5-.29-8-3.79-8.25-6.63s2.4-4.57,4.76-3,1.59-1.83,4-1.94c4.52-.22,5,3.57,8.71,3.82,4.81.32,13.06,5.09,8.2,13.77Z" fill="#1a1a1a"/><path d="M470,153.64a.17.17,0,0,1-.14-.07.2.2,0,0,1,0-.27,1.81,1.81,0,0,1,2.33-.16.2.2,0,0,1,.06.26.19.19,0,0,1-.24.07,2.82,2.82,0,0,0-1.94.13A.17.17,0,0,1,470,153.64Z" fill="#080435"/><path d="M463.63,152.18s0-.08,0-.16a.46.46,0,0,1,.22-.31c.06,0,1.42-.78,1.6.91a.47.47,0,0,1-.15.35c-.1.09-.17.05-.2,0a1.31,1.31,0,0,0-1.33-.76A.1.1,0,0,1,463.63,152.18Z" fill="#080435"/><ellipse cx="464.52" cy="154.59" rx="0.55" ry="0.82" transform="translate(-5.11 16.3) rotate(-2)" fill="#080435"/><path d="M485,153.92s-3.47,6.43-7.61,6.52c0,0,3.76-4.79-3-8.61C474.4,151.83,480.91,151.39,485,153.92Z" fill="#333"/><path d="M478.88,157.06a1.73,1.73,0,0,1-2.45-.69,2,2,0,0,1,.91-2.55,1.73,1.73,0,0,1,2.45.69A2,2,0,0,1,478.88,157.06Z" fill="#f6c8b5"/><path d="M464.83,137.89l-.27,0,0-.24a1.09,1.09,0,0,0,1.32-.86l.24,0A1.34,1.34,0,0,1,464.83,137.89Z" fill="#131f2d"/><path d="M466.28,146.25a15.48,15.48,0,0,1-2.61-1.49c-1.72-1.23-2.62-2.54-2.6-3.79a2.05,2.05,0,0,1,.62-1.76c.62-.43,1.56-.09,2.39.21l.37.13,0,.12-.37-.13c-.8-.29-1.71-.61-2.27-.22-.37.26-.56.8-.57,1.66,0,2.94,5.09,5.14,5.14,5.17Z" fill="#fff"/><path d="M478.22,141.41a9.16,9.16,0,0,1-5.24-1.52,6.77,6.77,0,0,1-1.77-1.7l.1-.07s2.23,3.39,7.43,3.15v.12Z" fill="#fff"/><path d="M464.24,159.5a2.91,2.91,0,0,0,5.56.59A12.07,12.07,0,0,1,464.24,159.5Z" fill="#fff"/><path d="M472.14,155.6l-.09,0a3.68,3.68,0,0,0-2.45-.27.16.16,0,0,1-.08-.32,4,4,0,0,1,2.7.31.16.16,0,0,1-.09.31Z" fill="#131f2d"/><path d="M470.73,174.48s-4.11-1.17-5.14-.07-.06,5.85,1.83,6.2S472.62,175.55,470.73,174.48Z" fill="#3db4e8"/><path d="M467.39,180.71c-1.22,0-2-2.53-2-2.63l.19-.06s.75,2.49,1.82,2.49h0a3.4,3.4,0,0,0,2.08-1.21l.16.13a3.54,3.54,0,0,1-2.23,1.28Z" fill="#131f2d"/><path d="M468.74,244.89a1.25,1.25,0,0,0,1.81.4,1.47,1.47,0,0,0,.37-1.94,1.21,1.21,0,0,0-1.72-.58A1.51,1.51,0,0,0,468.74,244.89Z" fill="#333"/><path d="M466,224.2a1.27,1.27,0,0,0,1.71.74,1.44,1.44,0,0,0,.69-1.84c-.28-.71-.93-1.2-1.59-.9A1.48,1.48,0,0,0,466,224.2Z" fill="#333"/><path d="M463.41,203.28a1.27,1.27,0,0,0,1.71.74,1.44,1.44,0,0,0,.69-1.84c-.28-.71-.93-1.2-1.59-.9A1.48,1.48,0,0,0,463.41,203.28Z" fill="#333"/><path d="M464.24,172.33c-12.09,0-22.75,7.29-26,4-.78-.77,3.33-26.43,3.33-26.43l-10,.35s-19.3,33.16-9.32,44.09c12.23,13.39,30.19,5.23,30.19,5.23S470.44,172.32,464.24,172.33Z" fill="#666464"/><path d="M459.71,157.65l-24.47-4.82A2.46,2.46,0,0,1,433.4,150l.48-2.84a2.31,2.31,0,0,1,2.67-2L461,149.94a2.46,2.46,0,0,1,1.84,2.87l-.48,2.84A2.31,2.31,0,0,1,459.71,157.65Z" fill="#1a1a1a"/><path d="M444.07,157.35l-23.61-4.65a3.22,3.22,0,0,1-2.41-3.76l1.08-6.35a3,3,0,0,1,3.49-2.6l23.61,4.65a3.22,3.22,0,0,1,2.41,3.76l-1.08,6.35A3,3,0,0,1,444.07,157.35Z" fill="#333"/><path d="M424.53,155.34,387.08,148a2.64,2.64,0,0,1-2-3.08l1.88-11a2.48,2.48,0,0,1,2.86-2.13l37.45,7.37a2.64,2.64,0,0,1,2,3.08l-1.88,11A2.48,2.48,0,0,1,424.53,155.34Z" fill="#8fd3f3"/><path d="M384.78,148.8l-1.86-.37a2,2,0,0,1-1.52-2.36l2.55-15a1.9,1.9,0,0,1,2.19-1.63l1.86.37a2,2,0,0,1,1.52,2.36l-2.55,15A1.9,1.9,0,0,1,384.78,148.8Z" fill="#1a1a1a"/><path d="M436.78,140.26s-2.52-1.19-3.52,1.29c-1.27,3.16,0,8.42.8,6.42a19.88,19.88,0,0,0,1.07-3.78s-1,6.32.45,6.07,2.3-5.39,2.3-5.39-.46,6,.84,5.34,2-4.31,2-4.31-.64,4.88.85,4,1.26-4.49,1.49-6-.6-2.1-1.93-2.22a3.7,3.7,0,0,0-2.15-.8c-.34.06-.62-.33-.85-.4A8.06,8.06,0,0,0,436.78,140.26Z" fill="#f6c8b5"/><path d="M477.88,278.48a.22.22,0,0,1-.2-.14,14.15,14.15,0,0,0-10.54-8.78.22.22,0,1,1,.05-.44,14.62,14.62,0,0,1,10.9,9,.22.22,0,0,1-.12.29Z"/><path d="M444.31,202h0a.22.22,0,0,1-.22-.22c.07-8.33.6-13.43.6-13.48a.22.22,0,0,1,.44,0c0,.05-.53,5.13-.6,13.44A.22.22,0,0,1,444.31,202Z"/><path d="M468.3,173.46s5.21-2.25,6.17-4.32,6.61,2.34,6.57,3.73-10.45,9.63-11.13,8.68S467.06,174.84,468.3,173.46Z" fill="#333"/><path d="M468.3,173.46s-.87-2.08-.54-3.24c0,0,.21-1-.59-.91s-5.06,3.6-5.41,4.63-.23,5.75,1.21,6,4.65-4.95,5-5.47A1.47,1.47,0,0,0,468.3,173.46Z" fill="#333"/><path d="M171.62,392.87c1.62-2.45-6.82-10.76-6.82-10.76-.84-.43-11.27,14.68-26.38,12.49-5.38-.78-14-9.06-14.74-10.39-.1-.18-10.61,6.31-10.61,6.31,1.34,2.41,2.37,11.59,8.74,16C135,415.63,155,413.1,171.62,392.87Z" fill="#f6c8b5"/><path d="M114.69,565.35s.2,4.23,2.9,5.35,10.43,2,7.62,4.78c-1.61,1.61-9.43.83-11.63.89s-4.24,1.16-5.91-.38c-1.84-1.69-.26-10.42-.26-10.42a8.3,8.3,0,0,0,3.63.91A6.68,6.68,0,0,0,114.69,565.35Z"/><path d="M134.08,448.07s1.38,7.91-3.37,44.73c-3.43,26.59-7.59,53.4-9.64,66.25a9.57,9.57,0,0,1-8.45,8.35l-2.27.16c-4.57.33-8.4-3.8-8.19-8.84l3.58-86.67.7-28.51Z" fill="#333"/><path d="M89.48,566.08s.2,4.23,2.9,5.35,10.43,2,7.62,4.78c-1.61,1.61-9.43.83-11.63.89s-4.24,1.16-5.91-.38c-1.84-1.69-.26-10.42-.26-10.42a8.3,8.3,0,0,0,3.63.91A6.68,6.68,0,0,0,89.48,566.08Z"/><path d="M109.24,437.62s1,19.1-3.74,55.92c-3.43,26.59-7.59,53.4-9.64,66.25a9.57,9.57,0,0,1-8.45,8.35l-2.27.16c-4.57.33-8.4-3.8-8.19-8.84l3.58-86.67.7-28.51Z" fill="#333"/><path d="M78.84,459.46c.11,2.3,14.15-2.72,30.15-3.73s26.69-6.82,26.58-9.12-11.83-1.43-27.83-.43S78.72,457.16,78.84,459.46Z" fill="#1a1a1a"/><path d="M72.44,394.79s.86-12.43,21.43-16.43c29.67-5.77,31.69,24.13,41.69,68.25,0,0-30,1-56.7,12.59C78.87,459.2,69,414.2,72.44,394.79Z" fill="#22ac38"/><path d="M64.57,394.52,79.32,400s29.92-2.67,37.51-5.53a13.42,13.42,0,0,0,8.73-9.44,41.7,41.7,0,0,0-24.39-7.52,40.36,40.36,0,0,0-4.22.27,38.7,38.7,0,0,0-7.13,1.5C72.24,384.84,64.57,394.52,64.57,394.52Z" fill="#22ac38"/><path d="M90.6,376.17l.68-5.69.2-1.66,1.16-9.75,1.84,9.13,1.11,5.48.35,1.73c.24,1.18.95,1.3,1.93,2.18.4.36,2.93,2.49.71,4.08-2.76,2-8.72.89-11.3-1.54C87.29,380.13,90.38,378,90.6,376.17Z" fill="#f6c8b5"/><path d="M134.08,448.07s-13.34-.71-53.23,12l-.16,6.29,52.74.48Z" fill="#333"/><path d="M64.34,394.9c-.86,2,1.38,5.07,5,7s7.25,1.84,8.1-.11-1.38-5.07-5-7S65.2,393,64.34,394.9Z" fill="#1a1a1a"/><path d="M72,465.22C70.81,450.31,70.24,428.79,74,411a54.06,54.06,0,0,1,2.11-8c.67-1.87-1.63-5.27-4.59-6.54-2.78-1.19-6.63-.18-7.12.76-.82,1.6-1.51,4.49-2.56,9.08-3.65,15.95-4.17,35.76-1.64,60.69Z" fill="#f6c8b5"/><path d="M97,353.07a12.89,12.89,0,0,1,1.63,4.81c.39,2.88-4.37-2.71-4.37-2.71Z" fill="#131f2d"/><path d="M99.14,358.54c-2.38-4.93-7.39-7.2-11.18-5.08S83,361.3,85.4,366.23s7.39,7.2,11.18,5.08S101.52,363.47,99.14,358.54Z" fill="#f6c8b5"/><path d="M84.3,363.6l3.39-1.77a2.91,2.91,0,0,0,1.48-2c.31-1.5,1-2.46,4.3-3.62,4.22-1.46,6.07-5.21,5.72-7.73a2.6,2.6,0,0,0-4.73-1.4c-1.71,2-1.75-1.19-3.86-.7-3.94.92-3.59,4.31-6.71,5.41-4.08,1.45-10.19,7.58-4.18,13.88Z" fill="#1a1a1a"/><path d="M92.52,361.84a.18.18,0,0,0,0-.15.16.16,0,0,0-.19-.12A1.77,1.77,0,0,0,91,363.28a.17.17,0,0,0,.14.19c.09,0,.15-.06.17-.15a2.83,2.83,0,0,1,1.12-1.42A.16.16,0,0,0,92.52,361.84Z" fill="#080435"/><path d="M92.57,364.13c.22.33.57.46.79.29a.69.69,0,0,0,0-.9c-.22-.33-.57-.46-.79-.29A.69.69,0,0,0,92.57,364.13Z" fill="#080435"/><path d="M97.82,359.23a.13.13,0,0,0,.05-.11.2.2,0,0,0-.13-.19,1.08,1.08,0,0,0-1.44.77.21.21,0,0,0,.07.22.11.11,0,0,0,.17,0,1.6,1.6,0,0,1,1.2-.64A.1.1,0,0,0,97.82,359.23Z" fill="#080435"/><path d="M97,361.38c.08.39.37.66.63.59s.41-.44.33-.83-.37-.66-.63-.59S96.94,361,97,361.38Z" fill="#080435"/><path d="M79.72,365.68s4.34,4.7,7.94,3.76c0,0-4.25-3.22.75-8.15C88.4,361.29,82.69,362.5,79.72,365.68Z" fill="#1a1a1a"/><path d="M85.64,366.89a1.59,1.59,0,0,0,2-1.19,1.72,1.72,0,0,0-1.32-2,1.59,1.59,0,0,0-2,1.19A1.72,1.72,0,0,0,85.64,366.89Z" fill="#f6c8b5"/><path d="M88.4,361.29s1.13,4.93,2.33,5.48,7.25-1.39,9.63-3.62h0a6.85,6.85,0,0,1-2.63,8.1,8.5,8.5,0,0,1-2.83,1.1h0c-2.06.39-4.23.27-5.68-1.35-.44-.49-1-4.39-1-4.39s-.45-2.23-2-2.88A6.31,6.31,0,0,1,88.4,361.29Z" fill="#1a1a1a"/><path d="M93.36,347a1.17,1.17,0,0,1-1-.67l.2-.09a.94.94,0,0,0,1.32.42l.09.2A1.5,1.5,0,0,1,93.36,347Z" fill="#131f2d"/><path d="M94.23,354.5l-.07-.09a14.44,14.44,0,0,0,1.92-1.9c.83-1,1.76-2.49,1.42-3.81-.19-.73-.46-1.15-.83-1.29-.57-.21-1.29.29-1.92.74l-.29.2-.06-.09.29-.2c.66-.46,1.4-1,2-.75.41.15.7.6.9,1.37C98.28,351.27,94.4,354.37,94.23,354.5Z" fill="#fff"/><path d="M82.47,353.36l0-.11a7.83,7.83,0,0,0,5.75-4.53l.1,0A8,8,0,0,1,82.47,353.36Z" fill="#fff"/><path d="M99.15,365.63a13.87,13.87,0,0,1-4.28,1.59,2.09,2.09,0,0,0,3,1C99.2,367.63,99.15,365.63,99.15,365.63Z" fill="#fff"/><path d="M66.49,460.34h0a2.2,2.2,0,0,0,.27,2.93l6.95,6.05c.82.72,4.48,2.8,5.15,1.91h0c.67-.89-1.58-3.88-2.31-4.72-1.67-1.93-4.25-6.49-6-8.38C69.86,457.3,67.16,459.45,66.49,460.34Z" fill="#f6c8b5"/><path d="M59.69,460.25a44.34,44.34,0,0,0-.92,11.57c.08,2.11,13.06,2.31,13.58,0s-1.69-9.71-1.69-9.71Z" fill="#f6c8b5"/><path d="M69.33,465.28s3.24-2.28,4.37,2c1.84,6.88.21,23.25-3.37,5.54-.07-.35,1.49,10.8-.83,10.16s-3.28-10.6-3.28-10.6S67,483,65,481.61s-3.24-8.28-3.24-8.28,1.4,8.87-1.09,7.6c-1.7-.87-1.79-8.25-1.94-10.82s1.27-3.31,3.45-3.28c0,0,2.18-1.34,3.61-.93.55.15,1-.43,1.44-.5A13.06,13.06,0,0,1,69.33,465.28Z" fill="#f6c8b5"/><path d="M104.74,501l-.35,0c0-.16,2-15.81,3.43-21.43s8.28-10.56,8.35-10.61l.21.29c-.07,0-6.77,4.87-8.21,10.41S104.76,500.87,104.74,501Z" fill="#131f2d"/><path d="M165,388.31h0a2,2,0,0,0,2.13-1.84l.92-9.57c.11-1.14-.27-5.57-1.32-5.69h0c-1.06-.12-2.16,3.55-2.41,4.66-.59,2.56-2.73,7.38-3.28,9.95C160.82,386.92,164,388.18,165,388.31Z" fill="#f6c8b5"/><path d="M168.66,394.49a37.42,37.42,0,0,0,9.51-5.48c1.59-1.22-5.32-13-7.39-12.26s-6.64,6.82-6.64,6.82Z" fill="#f6c8b5"/><path d="M167.32,383.05s-3.54-1.68-.86-5c4.35-5.41,18-12.86,6.15,0-.23.25,7.6-7.23,8.36-4.79S174.5,382,174.5,382s7.88-6.46,7.91-3.91-4.68,7.44-4.68,7.44,6.15-6.1,6.51-3.16c.25,2-5.45,6.12-7.36,7.65s-3.27.66-4.44-1.32c0,0-2.23-1.24-2.69-2.75-.18-.58-.9-.71-1.18-1A15.2,15.2,0,0,1,167.32,383.05Z" fill="#f6c8b5"/><path d="M774.37,570.23s-10.43-57.79-12.05-59.48-4.12-.19-3.23,3,13,55.3,13.52,56.47S774.67,571.84,774.37,570.23Z"/><path d="M707.61,494.59c-.08-10.3,23.58-41.27,35.91-45.13,14-4.37,31.85-12.31,37.1,2S768.27,510,768.27,510s-1,3.93-4.54,4.37-47.49,2-47.56,0C716.12,513.15,701.4,496.69,707.61,494.59Z" fill="#fadbda"/><path d="M714.24,425.44S697.85,453,676,459.45l3.91,9.49s27.73-4.08,43.6-32.92Z" fill="#f6c8b5"/><path d="M697.28,563.42s.12,4.46-2.61,5.88-10.78,3-7.61,5.71c1.82,1.54,10,0,12.27-.14s4.54.82,6.17-.95c1.8-1.94-.56-11-.56-11a8.82,8.82,0,0,1-3.73,1.29A7,7,0,0,1,697.28,563.42Z" fill="#1a1a1a"/><path d="M668.84,563.4s.12,4.46-2.61,5.88-10.78,3-7.61,5.71c1.82,1.54,10,0,12.27-.14s4.54.82,6.17-.95c1.8-1.94-.56-11-.56-11a8.82,8.82,0,0,1-3.73,1.29A7,7,0,0,1,668.84,563.4Z" fill="#1a1a1a"/><path d="M665.84,556c2-29.19,2.53-48.89,11.11-61.54,9.39-13.85,34.57-23.65,44.27-24.26,15.83-1,23.29,1.54,23.29,1.54,11.88,26.6-6.73,30.13-20.5,30.86l-1.37.08c-8.34.57-23.16,2.84-28.77,11.76-4.44,7.06-7.52,17-8.82,42.54-.25,4.91-4.07,8.71-8.64,8.58C676.42,565.6,665.11,566.53,665.84,556Z" fill="#eb6164"/><path d="M688.31,557.54c-.27-29.27-1.11-44.22,7-57.19,5.24-8.33,13.13-14.63,23.43-18.7a84.67,84.67,0,0,1,25.72-5.3c15.83-1,22.94-3.05,22.94-3.05,12.81,34.05-34.05,26.82-46.25,41.33-5.32,6.32-11.9,18.35-13.2,43.92-.25,4.91-4.07,8.71-8.64,8.58C699.36,567.12,688.41,568.24,688.31,557.54Z" fill="#eb6164"/><path d="M688.39,528.79c0-.17.81-17.54,3.52-23.61,3.42-7.67,13.35-15.69,23.6-19.06l-.06-.18c-10.3,3.38-20.27,11.44-23.71,19.16-2.72,6.1-3.52,23.5-3.53,23.68Z" fill="#1a1a1a"/><path d="M756.22,419.22s-6.73-12.39-22.26-8.59-21.85,20.88-23,61.87c0,0,14.37-.57,52.14,12.92,4.47,1.6,11,.33,8.74-7.87C767.6,462.3,763.47,431.88,756.22,419.22Z" fill="#f8b500"/><path d="M769.94,422.62l-12.61,3.46s-27.92,8.89-35.74,9A12.56,12.56,0,0,1,710.54,429a42.47,42.47,0,0,1,19.52-17,36.44,36.44,0,0,1,3.91-1.36,26.86,26.86,0,0,1,6.94-1.25C767.26,409.06,769.94,422.62,769.94,422.62Z" fill="#f8b500"/><path d="M769.94,422.62c0,1.41-3.84,2.54-8.51,2.53S753,424,753,422.58s3.84-2.54,8.51-2.53S770,421.21,769.94,422.62Z" fill="#1a1a1a"/><path d="M747,409.58a4.6,4.6,0,0,1-3.41-3.37l-1.64-5.5-.48-1.6-2.81-9.38-.2,9.4-.12,5.64,0,1.61c0,1.31-.07,3-1.36,3.47,0,0-1.64,3,.3,3.85C740.33,415,747.05,409.58,747,409.58Z" fill="#f6c8b5"/><path d="M751.17,390.72a11.18,11.18,0,0,0-.69,4.66c0,4.79-5.17,5.26-6.06,3.63-.11-.2,2-7.71,2-7.71l1.76-.52Z" fill="#1a1a1a"/><path d="M742,400.56q0,.08,0,.15c-.47,3-3.59,4.09-3.59,4.09l0,0,.12-5.64c.95-.27,2.28-.5,3,0A1.37,1.37,0,0,1,742,400.56Z" fill="#1a1a1a"/><path d="M732.65,388.4c1.47-5.79,6.2-9.44,10.56-8.15s6.7,7,5.22,12.81-6.2,9.44-10.56,8.15S731.17,394.19,732.65,388.4Z" fill="#f6c8b5"/><path d="M739.46,381.76c.14.39-2.48,5.41,6.47,9.44s6.47-9.74-.31-12c-9.79-3.31-13,3.42-12.76,6.27S739.46,381.76,739.46,381.76Z" fill="#1a1a1a"/><path d="M753.42,378.9s-4,1.42-2,4.46,8.84,6.12,5.93,9.39-6,8.45-2.73,10.19,5.57,2.1,6.23,5.5,7.45,3.42,7.84-.28,6.6-5.23,5.11-9.18-6.44-8.47-6.78-13.15S756.6,377.85,753.42,378.9Z" fill="#1a1a1a"/><path d="M745.35,389.19s2.7,5.42.26,9.44c0,0,2.86-1.94,3.15-2.89a41.42,41.42,0,0,0,.6-4.61Z" fill="#131f2d"/><path d="M747,394.33a1.93,1.93,0,0,1-2.85-.61,2.49,2.49,0,0,1,1.24-3,1.93,1.93,0,0,1,2.85.61A2.49,2.49,0,0,1,747,394.33Z" fill="#f6c8b5"/><path d="M766.21,411.22l.17-.22a2.57,2.57,0,0,1-1.15-1.69c-.07-.86.66-1.66,1.44-2.5a5.2,5.2,0,0,0,1.64-2.66c.14-1.27-1.18-1.95-2.46-2.6-1-.5-2-1-2.23-1.77a1.5,1.5,0,0,1,.19-1.18c.29-.54.6-1,.9-1.48,1.35-2.09,2.42-3.74.14-8.88-2.9-6.53-6.37-7.82-9.69-8.25-.4-.05-1.66.16-1.86.85s.77,1.52,2.85,2.45a9.57,9.57,0,0,1,4.1,6.77c.35,2.47-1.52,4.41-3.17,6.13s-2.85,3-1.63,4.23a11.68,11.68,0,0,0,2.23,1.68c1.94,1.23,3.78,2.39,3.05,6.34l.28.05c.76-4.13-1.15-5.34-3.18-6.62a11.49,11.49,0,0,1-2.18-1.64c-1-1.07.14-2.29,1.63-3.84s3.62-3.76,3.25-6.36a9.85,9.85,0,0,0-4.26-7c-2.65-1.18-2.78-1.88-2.71-2.12.13-.47,1.17-.7,1.55-.65,3.23.42,6.62,1.68,9.47,8.09,2.23,5,1.19,6.6-.11,8.62-.3.47-.62.95-.91,1.5a1.77,1.77,0,0,0-.21,1.4c.27.86,1.34,1.41,2.37,1.94,1.25.64,2.43,1.24,2.31,2.32a5,5,0,0,1-1.56,2.5c-.82.89-1.59,1.73-1.51,2.72A2.82,2.82,0,0,0,766.21,411.22Z" fill="#fff"/><path d="M746.82,388l.1-.3a7.16,7.16,0,0,1-4.36-4.58l-.31.08A7.5,7.5,0,0,0,746.82,388Z" fill="#fff"/><path d="M732.42,395.45a3.11,3.11,0,0,1-1.55-1.1A4.85,4.85,0,0,1,730,391c.2-2.35,1.86-4.13,3.7-4a3,3,0,0,1,2.07,1.19,4.85,4.85,0,0,1,.91,3.37c-.2,2.35-1.86,4.13-3.7,4A2.66,2.66,0,0,1,732.42,395.45Zm1.7-8.13a2.46,2.46,0,0,0-.48-.09c-1.74-.15-3.3,1.54-3.49,3.78a4.62,4.62,0,0,0,.87,3.21,2.79,2.79,0,0,0,1.94,1.12c1.74.15,3.3-1.54,3.49-3.78a4.62,4.62,0,0,0-.87-3.21A2.91,2.91,0,0,0,734.12,387.32Z" fill="#1a1a1a"/><path d="M740.36,396.55a3.1,3.1,0,0,1-1.55-1.1,4.85,4.85,0,0,1-.91-3.37c.2-2.35,1.86-4.13,3.7-4a3,3,0,0,1,2.07,1.19,4.85,4.85,0,0,1,.91,3.37h0c-.2,2.35-1.86,4.13-3.7,4A2.66,2.66,0,0,1,740.36,396.55Zm1.7-8.13a2.47,2.47,0,0,0-.48-.09c-1.74-.15-3.3,1.54-3.49,3.78a4.62,4.62,0,0,0,.87,3.21,2.79,2.79,0,0,0,1.94,1.12c1.74.15,3.3-1.54,3.49-3.78h0a4.62,4.62,0,0,0-.87-3.21A2.91,2.91,0,0,0,742.06,388.42Z" fill="#1a1a1a"/><path d="M735.61,391.69a.1.1,0,0,1-.07-.07.11.11,0,0,1,.06-.14,3.91,3.91,0,0,1,3,.33.11.11,0,0,1,.05.14.1.1,0,0,1-.13.05,3.8,3.8,0,0,0-2.82-.32Z" fill="#1a1a1a"/><path d="M734.45,396.23a16.58,16.58,0,0,0,5.64.64,2.76,2.76,0,0,1-3.47,2.26C734.89,398.74,734.45,396.23,734.45,396.23Z" fill="#ef8582"/><path d="M734.45,396.23a3.63,3.63,0,0,0,2,1.22,6.14,6.14,0,0,0,3.61-.58A24.89,24.89,0,0,1,734.45,396.23Z" fill="#fff"/><path d="M739.75,390.61a.2.2,0,0,1-.09-.15.2.2,0,0,1,.16-.22,2,2,0,0,1,2.18,1.24.21.21,0,0,1-.08.27c-.09.05-.18,0-.25-.08a3.1,3.1,0,0,0-1.81-1A.18.18,0,0,1,739.75,390.61Z"/><path d="M740.63,393.15c-.1.47-.44.78-.76.7s-.48-.52-.38-1,.44-.78.76-.7S740.74,392.69,740.63,393.15Z"/><path d="M733.09,389.73a.19.19,0,0,1-.14-.1.21.21,0,0,1,.07-.27,1.9,1.9,0,0,1,2.46.26.21.21,0,0,1,0,.28.19.19,0,0,1-.26,0,3,3,0,0,0-2-.21A.17.17,0,0,1,733.09,389.73Z"/><path d="M734.8,391.72c.07.47-.13.9-.45,1s-.63-.29-.7-.76.13-.9.45-1S734.73,391.24,734.8,391.72Z"/><path d="M711.64,577.53l.51-.05c.4,0,.7-.75.67-1.59l-4-105.41-7.55-4,9.15,108.95C710.51,576.65,711,577.59,711.64,577.53Z"/><path d="M596.72,577.53l-.51-.05c-.4,0-.7-.75-.67-1.59l4-105.41,7.55-4-9.15,108.95C597.85,576.65,597.32,577.59,596.72,577.53Z"/><ellipse cx="657.27" cy="475.47" rx="68.6" ry="9.56" fill="#ffe893"/><rect x="588.66" y="471.06" width="137.21" height="4.41" fill="#fdd762"/><ellipse cx="657.27" cy="471.06" rx="68.6" ry="9.56" fill="#fffaec"/><path d="M608.15,478a.25.25,0,0,0,0-.5,89.55,89.55,0,0,1-13.64-2.81.25.25,0,0,0-.15.48A90.07,90.07,0,0,0,608.11,478Z" fill="#1a1a1a"/><path d="M714.24,476.64h.05c.28-.06,6.78-1.49,9.33-2.85a.25.25,0,0,0-.24-.44c-2.49,1.33-9.13,2.79-9.2,2.8a.25.25,0,0,0,.05.5Z" fill="#1a1a1a"/><path d="M717.54,461.07s-8.24-3.34-11-2.13-5.37,5-3.53,4.61a18.58,18.58,0,0,0,4.07-1.52s-4.66,2.72-3.6,3.62,5.1-1.51,5.1-1.51-5.31,3.72-4,4.21,5.27-2.36,5.27-2.36-4.81,3.67-3.33,4.21,4-3.06,5-2.16,3.69,4.89,6.37,2Z" fill="#f6c8b5"/><path d="M751.37,461.52c-9.35,8.81-18.53,10.52-33.47,8.53l-.36-9c10.88,1.45,18.48-4.8,24.75-10.71,8.91-8.41,11.53-21.42,12.27-27.31a1.5,1.5,0,0,1,.91-1.22c1.63-.64,5.68-1.7,11.82.22a1.33,1.33,0,0,1,.89,1.34C767.72,434.59,763.14,450.42,751.37,461.52Z" fill="#f6c8b5"/><g opacity="0.3"><path d="M748.26,457.88c-1-.88-.85-2.74.25-4.13a3.49,3.49,0,0,1,2.34-1.4,1.85,1.85,0,0,1,1.45.47c1,.88.85,2.74-.25,4.13h0a3.5,3.5,0,0,1-2.34,1.4h-.18A1.82,1.82,0,0,1,748.26,457.88Zm2.63-5a3,3,0,0,0-2,1.2c-.93,1.18-1.07,2.71-.31,3.41a1.33,1.33,0,0,0,1,.33,3,3,0,0,0,2-1.2h0c.93-1.18,1.07-2.71.31-3.41a1.3,1.3,0,0,0-.91-.34Z" fill="#f6c8b5"/></g><path d="M701.54,471.63h-28a1.37,1.37,0,0,1-1.29-1l-5.82-18.71a1.44,1.44,0,0,1,1.29-1.91h26.93a2.87,2.87,0,0,1,2.7,2.09l5.48,17.62A1.44,1.44,0,0,1,701.54,471.63Z" fill="#1a1a1a"/><path d="M699.78,471.63h-28a1.37,1.37,0,0,1-1.29-1l-5.82-18.71A1.44,1.44,0,0,1,666,450h26.93a2.87,2.87,0,0,1,2.7,2.09l5.48,17.62A1.44,1.44,0,0,1,699.78,471.63Z" fill="#1a1a1a"/><path d="M680.16,460.21c0-.71.76-1,1.43-1a2,2,0,0,1,1.74,1.77c0,1.07-.79,1.21-1.45,1.21A2.3,2.3,0,0,1,680.16,460.21Z" fill="#ebf6fb"/><path d="M709.95,469H671.76v2.64h39a.89.89,0,0,0,.89-.89h0A1.75,1.75,0,0,0,709.95,469Z" fill="#1a1a1a"/><path d="M697.78,459.47l.18,0a54.39,54.39,0,0,0-2.29-7.37,4,4,0,0,0-2.08-2.13l-.05.18a3.89,3.89,0,0,1,2,2A55.66,55.66,0,0,1,697.78,459.47Z" fill="#1a1a1a"/><path d="M701.93,469.09v-.19c-.91,0-1.14-.41-1.14-.41l-2.18-7-.18.06,2.18,7S700.88,469.09,701.93,469.09Z" fill="#1a1a1a"/><path d="M730,86.77a1.88,1.88,0,0,1-1.27-.46,1.77,1.77,0,0,1,0-2.53,1.83,1.83,0,0,1,1.26-.49,1.86,1.86,0,0,1,1.22.44,1.58,1.58,0,0,1,.53,1.29,1.62,1.62,0,0,1-.52,1.28A1.8,1.8,0,0,1,730,86.77Zm1.76,3.17v9.31a2.3,2.3,0,0,1-.51,1.61,1.68,1.68,0,0,1-1.29.55,1.61,1.61,0,0,1-1.27-.56,2.37,2.37,0,0,1-.49-1.6V90a2.28,2.28,0,0,1,.49-1.59,1.64,1.64,0,0,1,1.27-.53,1.7,1.7,0,0,1,1.29.53A2.06,2.06,0,0,1,731.76,89.93Z" fill="#e50012"/><path d="M670.61,85.42l6.82,10.32V85.32a2.3,2.3,0,0,1,.44-1.52,1.47,1.47,0,0,1,1.18-.51,1.52,1.52,0,0,1,1.21.51,2.27,2.27,0,0,1,.44,1.52V99.09q0,2.31-1.91,2.3a2.56,2.56,0,0,1-.86-.14,2.2,2.2,0,0,1-.72-.44,4.25,4.25,0,0,1-.62-.7l-.57-.82-6.65-10.2V99.37a2.19,2.19,0,0,1-.47,1.52,1.55,1.55,0,0,1-1.19.51,1.53,1.53,0,0,1-1.21-.52,2.24,2.24,0,0,1-.45-1.51V85.86a3.82,3.82,0,0,1,.19-1.35,1.91,1.91,0,0,1,.75-.88,2,2,0,0,1,1.13-.34,1.86,1.86,0,0,1,1.42.57,4.36,4.36,0,0,1,.53.68Z" fill="#0094d7"/><path d="M687.64,93.86V85.44a2.34,2.34,0,0,1,.48-1.61,1.62,1.62,0,0,1,1.27-.54,1.67,1.67,0,0,1,1.31.54,2.34,2.34,0,0,1,.48,1.61v8.61a7.9,7.9,0,0,0,.33,2.45A2.84,2.84,0,0,0,692.68,98a4.27,4.27,0,0,0,2.34.54,3.5,3.5,0,0,0,2.94-1.1,5.4,5.4,0,0,0,.86-3.35V85.44a2.35,2.35,0,0,1,.48-1.62,1.63,1.63,0,0,1,1.28-.53,1.69,1.69,0,0,1,1.3.53,2.29,2.29,0,0,1,.5,1.62v8.42a12.47,12.47,0,0,1-.4,3.43,5.3,5.3,0,0,1-1.51,2.41,5.84,5.84,0,0,1-2.22,1.29,9.7,9.7,0,0,1-3,.41,12.17,12.17,0,0,1-3.48-.44,5.56,5.56,0,0,1-2.38-1.35,5.43,5.43,0,0,1-1.35-2.34A12,12,0,0,1,687.64,93.86Z" fill="#0094d7"/><path d="M720.85,86h-8v4.9h7.36a1.76,1.76,0,0,1,1.21.36,1.24,1.24,0,0,1,.4,1,1.29,1.29,0,0,1-.39,1,1.71,1.71,0,0,1-1.22.38h-7.36v5h8.26a1.81,1.81,0,0,1,1.26.39,1.33,1.33,0,0,1,.42,1,1.3,1.3,0,0,1-.42,1,1.8,1.8,0,0,1-1.26.39h-9.64a1.86,1.86,0,0,1-2.17-2.17V85.47a2.93,2.93,0,0,1,.23-1.25,1.4,1.4,0,0,1,.71-.7,3,3,0,0,1,1.24-.22h9.36a1.82,1.82,0,0,1,1.26.38,1.28,1.28,0,0,1,.41,1,1.29,1.29,0,0,1-.41,1A1.83,1.83,0,0,1,720.85,86Z" fill="#359f57"/><path d="M744.24,94H741v5.26a2.31,2.31,0,0,1-.5,1.61,1.77,1.77,0,0,1-2.56,0,2.31,2.31,0,0,1-.49-1.59V85.47a2.21,2.21,0,0,1,.54-1.67,2.44,2.44,0,0,1,1.71-.5h4.55a11.94,11.94,0,0,1,3.11.31,4.62,4.62,0,0,1,1.86,1,4.44,4.44,0,0,1,1.19,1.7,6,6,0,0,1,.41,2.26,5,5,0,0,1-1.65,4.05A7.49,7.49,0,0,1,744.24,94Zm-.86-8H741v5.35h2.39a7.22,7.22,0,0,0,2.1-.26,2.46,2.46,0,0,0,1.28-.86,2.56,2.56,0,0,0,.44-1.56,2.66,2.66,0,0,0-.68-1.89Q745.76,86,743.38,86Z" fill="#f7b400"/><path d="M652,82.49A12.21,12.21,0,0,0,647.22,81a9.83,9.83,0,0,0-18.36,4.9,9.84,9.84,0,0,0,0,19.68H646.1A12.32,12.32,0,0,0,652,82.49Z" fill="#9e9e9f"/><path d="M647.88,80.38a9.83,9.83,0,0,0-18.36,4.9,9.84,9.84,0,0,0,0,19.68h0l23.1-23.12A12.2,12.2,0,0,0,647.88,80.38Z" fill="#0094d7"/><path d="M638.57,85.13a3.91,3.91,0,0,0-2.58,7l3.19,3.19L642.49,92l-3.2-3.21a.65.65,0,0,1,.37-1.1.64.64,0,0,1,.18-.37.65.65,0,0,1,.92,0l3.2,3.2.92-.92-3.19-3.19A4.39,4.39,0,0,0,638.57,85.13Z" fill="none"/><path d="M642.24,85.88a4.42,4.42,0,0,0-6.26,0l-.26.28a4.42,4.42,0,0,1,6,.26l3.19,3.19.55-.55Z" fill="gray"/><path d="M645.1,101.42a4,4,0,0,1-2.86-1.18l-4-4-3.19-3.19a5.73,5.73,0,0,1-.23-7.85l-.32.29a5.74,5.74,0,0,0,0,8.1l3.19,3.19,4,4a4,4,0,0,0,5.71,0l.26-.28A4,4,0,0,1,645.1,101.42Z" fill="gray"/><path d="M647,95.45l-4-4-3.2-3.2a.65.65,0,0,1-.18-.56.65.65,0,0,0-.37,1.1l3.2,3.21,4,4a2.73,2.73,0,0,1,.25,3.57,2.84,2.84,0,0,0,.3-.25A2.73,2.73,0,0,0,647,95.45Z" fill="gray"/><path d="M648,94.53l-4-4-3.2-3.2a.65.65,0,0,0-.92,0,.66.66,0,0,0,0,.92l3.2,3.2,4,4a2.73,2.73,0,0,1,0,3.86,2.84,2.84,0,0,1-.3.25,2.72,2.72,0,0,1-3.57-.25l-4-4L636,92.13a4.43,4.43,0,0,1-.26-6l.26-.28a4.42,4.42,0,0,1,6.26,0l3.19,3.19.37-.37.55-.55L643.17,85a5.69,5.69,0,0,0-4.05-1.68h0A5.69,5.69,0,0,0,635.06,85l-.23.26a5.73,5.73,0,0,0,.23,7.85l3.19,3.19,4,4a4,4,0,0,0,5.42.27l.29-.27A4,4,0,0,0,648,94.53Z" fill="#fff"/><path d="M645.1,100.11A2.24,2.24,0,0,0,646.48,96l-4-4-3.31,3.32,4,4A2.72,2.72,0,0,0,645.1,100.11Z" fill="#f7b400"/><path d="M652.66,81.83l-6.3,6.31-.55.55-.37.37-.55.55-.92.92,4,4a4,4,0,0,1,0,5.71l-.29.27-.26.28a4,4,0,0,1-5.71,0l-4-4L629.56,105h17.21a12.32,12.32,0,0,0,5.9-23.12Z" fill="#f7b400"/><path d="M537.41,100.37a9.64,9.64,0,0,1-3.84,2.31,15.74,15.74,0,0,1-5.15.82,9,9,0,0,1-4.91-1.27,6.91,6.91,0,0,1-2.86-3.68,12.17,12.17,0,0,1-.42-5.66l.21-1.52a15.26,15.26,0,0,1,1.94-5.8,10.25,10.25,0,0,1,3.78-3.75,10.36,10.36,0,0,1,5.16-1.3q4,0,6,1.9a7,7,0,0,1,1.88,5.52h-4.48a3.28,3.28,0,0,0-3.73-3.7A4.75,4.75,0,0,0,527.12,86a10.45,10.45,0,0,0-2,5.25l-.2,1.43q-.49,3.52.59,5.31a3.93,3.93,0,0,0,3.66,1.8A5.72,5.72,0,0,0,533,98.69l.54-3.85h-4.19l.48-3.39h8.8Z" fill="#0095d8"/><path d="M562.18,92.52a15,15,0,0,1-2,5.79,10.78,10.78,0,0,1-3.88,3.84,10.23,10.23,0,0,1-5.17,1.35,8.37,8.37,0,0,1-4.77-1.34,7.27,7.27,0,0,1-2.84-3.82,12.36,12.36,0,0,1-.41-5.7l.16-1.11a15,15,0,0,1,2-5.81,10.87,10.87,0,0,1,3.9-3.85,10.25,10.25,0,0,1,5.16-1.34,8.32,8.32,0,0,1,4.78,1.34,7.26,7.26,0,0,1,2.82,3.85,12.64,12.64,0,0,1,.38,5.8Zm-4.52-1a8.77,8.77,0,0,0-.51-5.34,3.5,3.5,0,0,0-3.34-1.83,4.79,4.79,0,0,0-3.83,1.8,10.48,10.48,0,0,0-2,5.29l-.15,1.09a8.87,8.87,0,0,0,.51,5.31,3.49,3.49,0,0,0,3.36,1.89,4.73,4.73,0,0,0,3.82-1.82,10.66,10.66,0,0,0,2-5.3Z" fill="#0095d8"/><path d="M574.91,102.18h-3.43l.23-1.6h-2.23l-.4,2.83h-3.43l3.42-24.34h9.09Zm-2.73-4.94,2.09-14.84H572l-2.09,14.84Zm21.57-2.45h-3.55l.19-1.35h-9.21l-1,6.76c-.11.79.26,1.26,1.19,1.38a18.23,18.23,0,0,0,4.1.35,13.86,13.86,0,0,0,2.7-.16,2.14,2.14,0,0,0,1.3-.5c.43-.38.93-1.67,1.43-3.9l3.36,1.6a25.13,25.13,0,0,1-1.69,4.62,3.35,3.35,0,0,1-2.28,1.7,35.35,35.35,0,0,1-5.33.31c-3,0-4.73-.16-5.22-.41-2.53-.16-3.61-1.38-3.29-3.65l3.23-23H596ZM581.65,90h2.83l1.12-8h-2.83Zm9.21,0L592,82h-2.83L588,90Z" fill="#0095d8"/><path d="M599.68,103.76l.59-4.18h4.18l-.59,4.18Zm4.49-6h-3.11l1.56-15.6H607Z" fill="#0095d8"/><polyline points="753.18 118.81 600.85 118.81 584.98 131.66 587.24 118.81 508.62 118.81" fill="none" stroke="#d5d6da" stroke-miterlimit="10" stroke-width="1.61"/><line x1="764.14" y1="63.18" x2="527.52" y2="63.18" fill="none" stroke="#d5d6da" stroke-miterlimit="10" stroke-width="1.61"/><polygon points="854.97 0 854.97 578 826.75 578 826.75 29.06 28.25 29.06 28.25 0 854.97 0" fill="#bfc0c0"/><rect y="0.81" width="28.25" height="28.25" fill="#fff"/><rect x="826.75" y="578" width="28.22" height="28.22" fill="#fff"/></svg>