<?xml version="1.0" encoding="utf-8"?>
<!-- Generator: Adobe Illustrator 21.1.0, SVG Export Plug-In . SVG Version: 6.00 Build 0)  -->
<svg version="1.1" baseProfile="tiny" id="圖層_1"
	 xmlns="http://www.w3.org/2000/svg" xmlns:xlink="http://www.w3.org/1999/xlink" x="0px" y="0px" viewBox="0 0 1080 1080"
	 xml:space="preserve">
<g>
	<g>
		<path fill="#3DB4E8" d="M14.8,462.6C67,458,107.9,463,142,472.5c154.4-53,262.7-34.2,362.8,29.2c1.5,1,3,1.9,4.5,2.8
			c15.3-8.1,30.4-17,45.1-26.3c107-67.8,223.6-84.6,395.8-17c17.8,7,34.8,14.9,50.9,23.3c13.5-0.2,27.9,0.3,43.3,1.7
			c11.9,1.1,23.9,3.8,35.8,7.8V0H0v464.8C4.9,463.8,9.9,463,14.8,462.6z"/>
		<path fill="#8FD3F3" d="M142,472.5c-34.1-9.4-75-14.5-127.2-9.9c-4.9,0.4-9.8,1.2-14.8,2.2v78.1c31.3-21.4,67.9-42.2,108.9-58.2
			C120.2,480.2,131.2,476.2,142,472.5z"/>
		<path fill="#8FD3F3" d="M779.6,556.1c58.2-21.8,110.9-70.2,221.3-71.7c-16.1-8.4-33.1-16.3-50.9-23.3
			c-172.2-67.6-288.8-50.8-395.8,17c-14.7,9.3-29.7,18.2-45.1,26.3C590.9,555.5,682.1,592.6,779.6,556.1z"/>
		<path fill="#FFFFFF" d="M1001,484.4c-110.4,1.5-163.1,49.9-221.3,71.7c-97.5,36.5-188.8-0.6-270.4-51.6c-1.5-0.9-3-1.9-4.5-2.8
			c-100-63.4-208.4-82.2-362.8-29.2c-10.8,3.7-21.8,7.7-33.1,12.2c-41,16.1-77.6,36.8-108.9,58.2V1079v1h1080v-1V493.9
			c-11.9-3.9-23.9-6.7-35.8-7.8C1028.9,484.7,1014.5,484.2,1001,484.4z"/>
	</g>
	<g>
		<g>
			<path fill="#FFFFFF" d="M202.2,71.7V107c0,1.9-0.2,3.4-0.2,5c4.7,15.5,10.2,28.9,16.8,40.1c9.3,16.8,24.7,31.7,46,44.7
				l-15.8,15.2c-16.3-11.5-28.7-23.4-37.4-36.5c-6.2-8.7-11.5-19.1-16-31c-3.4,9-7.9,17.4-13.7,25.3c-12.4,17.2-28.1,31.2-46.9,42.2
				l-10.4-16.5c20.5-12.4,35.9-26.4,45.8-41.9c9-14.9,13.7-30.4,13.7-46.6V71.7H202.2z"/>
			<path fill="#FFFFFF" d="M363.7,96.6V71.7h18.2v24.8h41.3v17.7h-41.3v73.9c0,9-1.4,14.9-4.2,18.2c-3.4,3.7-9.5,5.6-18.2,5.6
				c-9,0-17.2-0.6-24.8-1.9l-3.1-18.2c8.4,1.6,16.9,2.3,25.5,2.3c2.6,0,4.5-0.6,5.4-2c0.8-1.7,1.2-4.5,1.2-8.2v-53.1
				c-7.6,9-16,17.7-25,26.2c-16.6,14.1-31.5,24.7-44.7,31.7l-9.8-16.3c12.3-6.2,26.2-16.1,41.9-29.8c10.6-9.3,20-18.8,28.1-28.4h-65
				V96.6H363.7z"/>
			<g>
				<path fill="#FFFFFF" d="M483.7,116.6c-8,3.3-16.6,5.6-25.9,7.2l1.1,15.7c3.8-0.8,7.3-1.6,10.6-2.6c-0.7-2.2-1.5-4.5-2.2-6.6
					l12-5.9c3.5,7.6,6.6,15.9,9.1,25.1l-13.7,6.4c-0.6-2.6-1.2-5-1.8-7.5c-9.3,3.2-19.3,6-30.4,8.4l-5.5-12.8
					c3.3-0.6,6.3-1.2,9.1-1.9l-2.2-29.3c11.7-1.5,22.6-4.2,32.9-8.2L483.7,116.6z M533.7,211.9h-13.4v-4.2h-57.7v4.2h-13.3v-55h84.3
					V211.9z M484.7,176.6v-7.4h-22v7.4H484.7z M484.7,195.4v-6.9h-22v6.9H484.7z M541.4,108.9c-0.5,22-2.6,35.6-6.2,41
					c-2.8,3.8-7,5.6-12.5,5.6c-1.9,0-4.6-0.1-7.9-0.5l-2.7-13.2c4.2,0.4,7.7,0.5,10.6,0.5c1.4,0,2.6-0.8,3.3-2.6
					c0.9-2.6,1.5-8.6,1.8-18.1h-12.7c-0.5,5.5-1.1,9.7-2,12.7c-1.4,4.5-3.4,8.4-6.2,12.1c-3,4.2-6.3,7.5-9.8,10.1l-7.7-11.5
					c2.5-2.1,4.8-4.7,7-7.7c2.1-2.8,3.6-5.9,4.6-8.9c0.5-1.6,0.9-3.9,1.3-6.7H491v-12.8H541.4z M497.9,176.6h22.4v-7.4h-22.4V176.6z
					 M520.3,195.4v-6.9h-22.4v6.9H520.3z"/>
				<path fill="#FFFFFF" d="M590.4,110.1c-2.6,7.9-5.6,15.5-9.3,22.9v78.4h-13.3v-55.2c-2.7,4-5.4,7.5-8.2,10.8l-7.4-13.7
					c11.5-14.9,19.7-30.6,24.7-47.3L590.4,110.1z M654.9,121.2c-8,2-16.9,3.6-26.5,4.8v24.5h29.8v13.2h-29.8v31.2h27v13.2h-67.8
					v-13.2h27.1v-31.2h-30.3v-13.2h30.3v-23.1c-6.4,0.6-13.1,0.9-20.2,1.2l-4.1-13.4c19,0,38.1-2.3,57.2-7.3L654.9,121.2z"/>
				<path fill="#FFFFFF" d="M829.6,145.4l-10.1,12.4c-4.6-5.2-9.3-9.6-14.2-13.4l10.1-10.1C820.5,137.6,825.4,141.2,829.6,145.4z
					 M831.9,168.8c-4.1,16.9-8.7,31-13.7,42.2l-12.9-6.9c5.7-13.4,10.2-26.6,13.2-39.9L831.9,168.8z M836,118.5l-9.6,11.8
					c-4.7-4.8-9.6-8.9-14.7-12.3l10.1-10.1C827,111,831.7,114.5,836,118.5z M865.3,124V106h14.2V124h25.7v12.8h-25.7v17.4h30.2V167
					h-40.3l-11.6,26.7c11.3-0.6,21.6-1.6,31.1-3c-2.3-4.9-4.9-9.6-7.5-14.1l12.3-5.5c6.8,10.8,12.7,22.5,17.5,35.3l-13.8,6
					c-1.1-3.4-2.1-6.6-3.3-9.5c-17.1,3.5-36.9,5.4-59.4,5.7l-2.7-14.2c3.8,0,7.4,0,11-0.1l11.8-27.3h-20.2v-12.9h30.7v-17.4h-25.7
					V124H865.3z"/>
				<g>
					<g>
						<g>
							<path fill="#FDEEED" d="M786,215.6H680.6c-4.3,0-7.8-3.5-7.8-7.8V115c0-4.3,3.5-7.8,7.8-7.8H786c4.3,0,7.8,3.5,7.8,7.8v92.9
								C793.7,212.1,790.2,215.6,786,215.6z"/>
						</g>
						<path fill="#EB6164" d="M762.1,169.9c0.1-0.2,0.2-0.4,0.3-0.5c0.2-0.4,0.4-0.8,0.7-1.2c0.1-0.2,0.2-0.5,0.3-0.7
							c0.2-0.4,0.4-0.8,0.6-1.2c0.1-0.2,0.2-0.5,0.3-0.7c0.2-0.4,0.3-0.8,0.5-1.3c0.1-0.2,0.2-0.5,0.3-0.7c0.2-0.5,0.3-0.9,0.4-1.4
							c0.1-0.2,0.1-0.4,0.2-0.6c0.2-0.7,0.4-1.4,0.5-2.1c0,0,0,0,0,0c0.1-0.7,0.3-1.4,0.3-2.1c0-0.2,0-0.5,0.1-0.7
							c0.1-0.5,0.1-1,0.1-1.5c0-0.3,0-0.5,0-0.8c0-0.4,0-0.9,0-1.3c0-0.3,0-0.6,0-0.8c0-0.4-0.1-0.9-0.1-1.3c0-0.3-0.1-0.5-0.1-0.8
							c-0.1-0.4-0.1-0.9-0.2-1.3c-0.1-0.2-0.1-0.5-0.1-0.7c-0.1-0.6-0.3-1.1-0.5-1.7c0-0.1-0.1-0.2-0.1-0.3
							c-0.2-0.6-0.5-1.2-0.8-1.7c-0.1-0.2-0.2-0.4-0.3-0.6c-0.2-0.3-0.3-0.6-0.5-0.9c0-0.1-0.1-0.1-0.2-0.2c-0.3-0.4-0.6-0.8-1-1.2
							c-0.2-0.2-0.3-0.4-0.5-0.6c-0.5-0.6-1.1-1.1-1.7-1.5c0,0,0,0,0,0c-0.4-0.3-0.8-0.5-1.1-0.8l0,0l0,0c-9.8-6.2-23-1.2-26.1,5.1
							c-3.2-6.5-17.4-11.6-27.2-4.3c-6.3,4.7-7.2,13.5-5.3,21.4l0,0c0.1,0.2,0.1,0.5,0.2,0.7c1,3.8,2.6,7.4,4.6,10.1
							c0,0,0.1,0.1,0.1,0.1c0.3,0.5,0.7,0.9,1.1,1.4c0.1,0.2,0.3,0.4,0.4,0.5c0.3,0.3,0.6,0.7,0.9,1c0.2,0.2,0.3,0.4,0.5,0.6
							c0.3,0.3,0.6,0.7,1,1c0.2,0.2,0.4,0.4,0.5,0.5c0.4,0.4,0.8,0.8,1.2,1.2c0.1,0.1,0.3,0.2,0.4,0.4c0.5,0.5,1.1,1,1.6,1.5
							c0.2,0.2,0.4,0.3,0.5,0.5c0.4,0.3,0.8,0.6,1.2,1c0.2,0.2,0.5,0.4,0.7,0.6c0.2,0.1,0.4,0.3,0.5,0.4c0.1,0.1,0.2,0.2,0.3,0.3
							c0.5,0.4,1,0.8,1.5,1.1c0.2,0.2,0.4,0.3,0.7,0.5c0.6,0.4,1.1,0.8,1.7,1.2c0.2,0.1,0.3,0.2,0.5,0.3c0.7,0.5,1.5,0.9,2.2,1.4
							c0.1,0.1,0.2,0.1,0.4,0.2c0.6,0.4,1.2,0.7,1.8,1c0.2,0.1,0.4,0.2,0.7,0.4c0.5,0.2,0.9,0.5,1.4,0.7c0.2,0.1,0.5,0.2,0.7,0.3
							c0.4,0.2,0.8,0.4,1.3,0.6c0.2,0.1,0.5,0.2,0.7,0.3c0.4,0.2,0.8,0.3,1.2,0.4c0.2,0.1,0.4,0.1,0.5,0.2c0.5,0.2,1.1,0.3,1.6,0.4
							c0,0,0,0,0,0l0,0h0c7.2-1.4,21.4-11,27.8-20l0,0c0,0,0,0,0,0C761.4,171,761.8,170.4,762.1,169.9z"/>
					</g>
					<path fill="#FDEEED" d="M702.4,209.6l-22.6,19.9c-4.7,4.1,0.3,11.6,5.9,8.8l42.8-21.6c5.2-2.6,3-10.6-2.9-10.1
						C713.2,207.7,701.4,208.9,702.4,209.6z"/>
				</g>
			</g>
		</g>
		<g>
			<path fill="#FFFFFF" d="M199.9,236.8v7.1h27.2v14.2h-26.9l10.3,5.9c-0.6,0.9-1.1,1.8-1.7,2.4h14.7v6.8c1.5-3.3,3-7,4.5-10.6
				c3.9-9.4,7-18.1,9.1-26.4l14.8,4.2c-1.2,4.8-2.6,9.5-4.1,14.1v3.6h11.9c1.4-6.5,2.4-13,3.3-19.5l16.6,3.5
				c-1.1,5.9-2.3,11.2-3.6,16h16v15.3h-17.2v15.4h12.4v15.4h-12.4v15.9h12.4v15.4h-12.4V352h18.3v15.4h-45.3v5.3h-16V292
				c-1.2,2.1-2.4,3.9-3.5,5.7l-4.8-3.8v12.5h-24.9l-1.4,5.9h30.5v41.4c0,12.1-6.2,18.3-18.3,18.3c-3.9,0-8.5-0.5-13.6-1.2l-3-15.9
				c6,1.5,11.5,2.3,16.6,2.3c1.8,0,2.7-2,2.9-5.9l-11.2,3.6c-0.3-1.4-0.5-2.7-0.8-4.1c-8.8,1.8-18.1,3.3-28.1,4.5l-2.4-14.7
				c2-0.2,3.8-0.3,5.6-0.5l3.2-13.8h-10v45.5h-15.3v-59.7h28.6l1.4-5.9h-27.1v-39h14.1l7.6-9.4H155v-14.2h27.8v-7.1H199.9z
				 M171.6,269.3v12.2c2.9-1.8,5.7-3.9,8.8-6.3C177.4,273.1,174.3,271.1,171.6,269.3z M171.6,283.8v8h6.2L171.6,283.8z M191.4,265.2
				c2.1-2.4,4.1-4.7,5.7-7.1h-16.5C184.3,260.6,187.9,262.8,191.4,265.2z M191.9,284.6c-3.8,3.2-7.1,5.6-9.8,7.3h17.4
				C196.9,289.3,194.3,286.9,191.9,284.6z M194.6,331.9l11.8-3.5c2.4,4.8,4.4,10,5.9,15.4v-17.2H194l-2.7,12.1
				c1.8-0.3,3.8-0.5,5.6-0.8C196.1,335.8,195.3,333.9,194.6,331.9z M201.4,291.8h6.8v-7.6L201.4,291.8z M202.9,274.2
				c1.8,1.5,3.5,3,5.3,4.5v-11.3C206.5,269.8,204.7,272,202.9,274.2z M259,273.4h-11.2v15.4H259V273.4z M259,304.2h-11.2v15.9H259
				V304.2z M259,352v-16.5h-11.2V352H259z"/>
			<path fill="#FFFFFF" d="M358.4,241.7v14.7h-4.2v117h-14.7v-23.4c-8.3,2.7-17.2,5.3-26.6,7.4l-5.3-15.9c2.1-0.3,4.4-0.8,6.5-1.1
				v-84h-4.2v-14.7H358.4z M339.5,273v-16.6h-10.7V273H339.5z M339.5,304.2v-16.6h-10.7v16.6H339.5z M339.5,335.2v-16.3h-10.7v18.7
				C332.6,337,336.2,336.1,339.5,335.2z M393.2,237.4v10.1h13.6v14.7H403c-1.2,6-2.4,11.8-3.6,17.2h9.8c-0.5-12.7-0.6-26.4-0.6-41.4
				h14.7c0,15.3,0.3,29,0.9,41.4h21.6v14.7h-21c0.5,8.9,1.1,17.1,1.8,24.3c2-5.4,3.8-11.3,5.6-17.8l14.2,5.3
				c-4.5,16.2-10.1,29.3-16.5,39.3c1.1,7.3,2.3,10.9,3.5,10.9c0.8,0,1.2-1.5,1.4-4.5c0,0,0-2,0.3-6l13,7.7
				c-1.5,8.5-3.9,13.8-7.3,16.2c-2.1,1.8-4.7,2.7-7.4,2.7c-6,0-10.7-4.2-14.2-12.4c-4.4,4.7-9.4,9.1-14.8,13l-8.2-11.8
				c0.8-0.8,1.5-1.4,2.1-1.8h-21.6v8.8h-14.8v-69.1h44.9v52.4c2.9-3,5.4-6,7.7-9.2c-2.1-13-3.8-28.9-4.7-47.9h-54.4v-14.7H366
				c-0.6-6-1.4-11.8-2.3-17.2h-3v-14.7h16.6v-10.1H393.2z M392,322.5V313h-15.3v9.5H392z M392,344.9v-8.8h-15.3v8.8H392z
				 M385.3,279.5c1.4-5.6,2.6-11.3,3.6-17.2h-10.7c1.2,5.7,2.1,11.5,2.7,17.2H385.3z M445.8,266.5l-14.8,5.9
				c-1.8-7.7-3.9-14.7-6.5-20.7l13-5.9C440.6,252.1,443.4,258.9,445.8,266.5z"/>
			<g>
				<path fill="#FFFFFF" d="M564.2,297.7v19.8h13.1V331h-13.1v25h-13.9v-5.3h-24.5v4.8c0,7.1-1.4,11.8-3.9,13.9
					c-2.7,2.6-7.5,3.9-14.4,3.9c-4.8,0-9.2-0.4-13.4-1l-2.5-14.9c5.3,1.2,10.6,1.8,15.9,1.8c2.5,0,3.8-2,3.8-6.2v-2.5h-35.6v-12.9
					h35.6V331h-46.7v-13.4h46.7v-6.8h-36.1v-13.1h10c-2.3-4.4-5.3-8.5-9-12.4l10-6.5c-3.2,0.1-6.4,0.2-9.5,0.2l-4.3-13.4
					c30,0,60.2-1.1,90.4-3.4l6.8,12.1c-4.2,0.5-8.3,0.9-12.4,1.1l9.6,3.2c-3.3,7.6-7,14-11,19.2H564.2z M525,277.5
					c3.2,3.6,5.8,7.3,8,11.1l-13.9,8.2c-2.5-4.6-5.7-8.9-9.6-13.1l9.4-6c-8.7,0.5-17.9,0.7-27.2,0.9c3.4,4.2,6.3,8.5,8.7,12.9
					l-10.6,6.2h60.7l-9.7-5.3c4.4-5.7,7.9-11.2,10.5-16.6C542.8,276.5,534.1,277,525,277.5z M525.8,317.5h24.5v-6.8h-24.5V317.5z
					 M525.8,337.7h24.5V331h-24.5V337.7z"/>
				<path fill="#FFFFFF" d="M632.2,280v13.4h-40.4V280H632.2z M629.4,369.4h-21.7v3.9h-12.9v-41.4h34.6V369.4z M627.4,314.1v12.6
					h-31.3v-12.6H627.4z M627.9,297.2v12.6h-31.3v-12.6H627.9z M627.4,264.1V277h-30.3v-12.9H627.4z M616.4,357.4v-13.5h-8.7v13.5
					H616.4z M680.7,325.7h19.8v12.1h-18.6c0.2,2,0.5,3.6,0.9,5c0.1,1.1,0.4,2.2,0.7,3.2c3.2-2.2,6.2-4.7,8.9-7.4l7.1,8.2
					c-1.7,2-3.4,3.7-5.2,5.2l8.6,3.4c-1.8,7.9-4.1,12.9-6.8,15.4c-1.6,1.6-3.6,2.5-5.8,2.5c-2.5,0-5-1.4-7.6-3.9
					c-1.8-1.8-3.4-3.9-4.7-6.2c-3.9,2-8,3.9-12.2,5.7l-5.3-11.5c4.6-1.6,8.7-3.4,12.7-5.4c-0.2-0.2-0.4-0.6-0.4-1.1
					c-1.4-3.8-2.3-8.2-3.1-13.2h-11.2v3c2.5-0.5,4.9-1,7.3-1.6l2.8,10.1c-3.3,1.2-6.6,2.2-10.1,3.2v5c0,5.9-1,10-2.8,12.2
					c-2.5,2.5-6.6,3.7-12.6,3.7c-3,0-5.7-0.4-8.1-1l-2-12.6c2.7,1,5.4,1.5,8.3,1.5c2,0,3.2-0.4,3.8-1.4c0.5-1,0.9-2.3,1-4.2
					c-3.3,0.7-6.6,1.5-10.1,2.2l-5.3-12.1c5.4-0.9,10.6-1.7,15.4-2.6v-5.5h-14v-12.1h14v-3.3c-3.4,0.7-7,1.4-10.6,1.8l-3.8-10.6
					c8-1,15.6-2.5,22.8-4.3h-21.4v-11.1h26.5v-3.8h-21.2v-10.6h21.2v-3.3h-24.5v-10.6h11.1c-0.7-1.5-1.6-2.8-2.5-4.3l13.1-3.9
					c1.6,2.7,3,5.4,4.1,8.2h11.2c1.1-2.5,2.1-5,3-7.8l13.9,3.9c-0.7,1.5-1.5,2.7-2.1,3.8h11.3v10.6h-24.6v3.3h21.2v10.6h-21.2v3.8
					h27v11.1h-37.9l3.8,8.2c-2.6,0.7-5.2,1.5-7.8,2.1v6h9.7c-0.4-4.3-0.6-9-0.6-13.9l12.6-1C680.3,316.3,680.5,321.2,680.7,325.7z
					 M698.2,319.4l-9.7,5.3c-1.5-3-3.3-5.9-5.7-8.6l9.1-5.8C694.4,313.2,696.5,316.2,698.2,319.4z M687.6,357.4
					c0.1,0.2,0.2,0.5,0.4,0.7c1.2,2.5,2.2,3.6,3,3.6c0.1,0,0.4-0.6,0.6-2.1c0.2-1.5,0.5-3.4,0.7-5.9
					C690.7,355.2,689.1,356.4,687.6,357.4z"/>
				<path fill="#FFFFFF" d="M739.6,304c-5.7-4.9-11.3-9.2-17.2-12.9l9.2-9.6c3.2,1.8,6.2,3.7,9.1,5.7c3.2-2.8,6.3-6,9.1-9.6H720
					v-12.9h47.2v11.9c-4.6,7.1-9.7,13.4-15.4,18.8c1.2,1.1,2.6,2.2,3.8,3.3l-4.2,5.3h18.1v9.6c-3,7.8-6.4,14.2-10.1,19.3l-9.6-6.3
					c1.7-3.2,3.4-6.6,4.9-10.6h-6.4V355c0,6.8-1,11.2-2.7,13.7c-2.2,2.7-6,4.2-11.7,4.2c-4.3,0-8.2-0.5-11.9-1.5l-2.5-13.9
					c4.2,1.2,8.4,1.8,12.6,1.8c0.9,0,1.5-0.5,1.8-1.5c0.2-1.2,0.5-3.3,0.5-6.2v-35.6h-15.9V304H739.6z M827.7,264.6v12.9h-23.4
					l-1,5.8h22.4V355H816c1.6,1,3.3,1.7,5,2.5c3,1.5,6,2.6,9,3.3l-7.1,13.1c-3.6-1.5-7-3.2-10.2-5.2c-3.9-2.5-7.6-5-11-7.9l7.1-5.8
					h-20.4l6.5,5.3c-6.9,5.4-15.3,9.8-25,13.5l-7.1-13.1c5.9-1.5,11.3-3.3,16.4-5.8h-7.8v-71.7h18l1-5.8H769v-12.9H827.7z
					 M811.8,303v-6.6h-26.5v6.6H811.8z M811.8,322.7v-7.6h-26.5v7.6H811.8z M811.8,342v-7.3h-26.5v7.3H811.8z"/>
				<path fill="#FFFFFF" d="M876.2,302.4c3.4,4.4,6.2,9,8.1,13.8c2.5,5.9,3.7,11.6,3.7,16.7c-0.2,13.5-6.4,20.2-18.3,20.2h-5.3
					l-3.3-15.9c3.4,1.2,6.3,1.8,8.6,1.8c2.7,0,4.2-2,4.3-6.2c0-3.9-0.9-8.1-2.6-12.6c-1.7-4.6-4.9-9.4-9.4-14.4l8.5-27h-10.5v94.3
					h-13.9V265.6h43.2L876.2,302.4z M927.9,262.6V277h27.5v13.5h-39c-0.1,4.8-0.2,9.2-0.4,13.4h35.5c-0.2,26.1-1.7,45.8-4.4,59.1
					c-0.9,3-2.7,5.4-5.7,7.3c-3.2,1.6-6.8,2.5-11,2.5c-4.9,0-10.5-0.9-16.9-2.5l-2-15.4c7.6,2.3,13.9,3.4,18.8,3.4
					c1,0,1.8-0.4,2.5-1.4c0.7-0.6,1.2-2.5,1.7-5.5c1.2-10.3,1.8-21.5,2-33.6h-21.7c-1.2,11.6-3.2,20.1-5.7,25.6
					c-4.7,11.5-11.8,21.2-21.7,29.3L877,361.2c8.6-6.4,15-14.7,19.3-24.5c3.7-7.9,5.8-23.3,6.2-46.2h-14.9V277H913v-14.4H927.9z"/>
				<g>
					<path fill="#3DB4E8" d="M612.5,353.4c-7.9,11.2-25.6,23.1-34.5,24.8c-8.9-1.8-26.6-13.7-34.5-24.8c-2.6-3.7-4.7-8.4-5.9-13.5
						c-2.4-9.8-1.2-20.7,6.6-26.6c12.2-9.1,29.9-2.8,33.8,5.3c3.8-7.8,20.3-14,32.4-6.3c0.5,0.3,1,0.6,1.4,1
						C623.7,322.2,620.2,342.6,612.5,353.4z"/>
					<path fill="#007BC2" d="M610.7,339.5c0.1-0.7,0.3-1.4,0.3-2.1c0-0.2,0-0.5,0.1-0.7c0.1-0.5,0.1-1,0.1-1.5c0-0.3,0-0.5,0-0.8
						c0-0.4,0-0.9,0-1.3c0-0.3,0-0.6,0-0.8c0-0.4-0.1-0.9-0.1-1.3c0-0.3-0.1-0.5-0.1-0.8c-0.1-0.4-0.1-0.9-0.2-1.3
						c-0.1-0.2-0.1-0.5-0.1-0.7c-0.1-0.6-0.3-1.1-0.5-1.7c0-0.1-0.1-0.2-0.1-0.3c-0.2-0.6-0.5-1.2-0.8-1.7c-0.1-0.2-0.2-0.4-0.3-0.6
						c-0.2-0.3-0.3-0.6-0.5-0.9c0-0.1-0.1-0.1-0.2-0.2c-0.3-0.4-0.6-0.8-1-1.2c-0.2-0.2-0.3-0.4-0.5-0.6c-0.5-0.6-1.1-1.1-1.7-1.5
						c0,0,0,0,0,0c-0.4-0.3-0.8-0.5-1.1-0.8l0,0l0,0c-8.3-5.2-19-2.5-24,2.3l7,9.9l-9.6,9.2l6.2,6.9l-2.9,3.8l4.6,3.5l-12.1,6.8
						l7.5-6.8l-3.3-3.5l2.4-3.8l-7.9-7.5l9.4-8.7l-6.6-9.9l-0.4-1.3c-5.7-4.1-16-5.9-23.6-0.2c-6.3,4.7-7.2,13.5-5.3,21.4l0,0
						c0.1,0.2,0.1,0.5,0.2,0.7c1,3.8,2.6,7.4,4.6,10.1c0,0,0.1,0.1,0.1,0.1c0.3,0.5,0.7,0.9,1.1,1.4c0.1,0.2,0.3,0.4,0.4,0.5
						c0.3,0.3,0.6,0.7,0.9,1c0.2,0.2,0.3,0.4,0.5,0.6c0.3,0.3,0.6,0.7,1,1c0.2,0.2,0.4,0.4,0.5,0.5c0.4,0.4,0.8,0.8,1.2,1.2
						c0.1,0.1,0.2,0.2,0.4,0.4c0.5,0.5,1.1,1,1.6,1.5c0.2,0.2,0.4,0.3,0.5,0.5c0.4,0.3,0.8,0.7,1.2,1c0.2,0.2,0.5,0.4,0.7,0.6
						c0.2,0.1,0.4,0.3,0.5,0.4c0.1,0.1,0.2,0.2,0.3,0.3c0.5,0.4,1,0.8,1.5,1.1c0.2,0.2,0.4,0.3,0.7,0.5c0.6,0.4,1.2,0.8,1.7,1.2
						c0.2,0.1,0.3,0.2,0.5,0.3c0.7,0.5,1.5,0.9,2.2,1.4c0.1,0.1,0.2,0.1,0.3,0.2c0.6,0.4,1.2,0.7,1.8,1c0.2,0.1,0.4,0.2,0.7,0.4
						c0.5,0.3,0.9,0.5,1.4,0.7c0.2,0.1,0.5,0.2,0.7,0.3c0.4,0.2,0.8,0.4,1.3,0.6c0.2,0.1,0.4,0.2,0.7,0.3c0.4,0.2,0.8,0.3,1.2,0.4
						c0.2,0.1,0.4,0.1,0.5,0.2c0.5,0.2,1.1,0.3,1.6,0.4c0,0,0,0,0,0l0,0h0c7.2-1.4,21.4-11,27.8-20l0,0c0.4-0.5,0.7-1,1-1.6
						c0.1-0.2,0.2-0.4,0.3-0.5c0.2-0.4,0.4-0.8,0.7-1.2c0.1-0.2,0.2-0.5,0.3-0.7c0.2-0.4,0.4-0.8,0.6-1.2c0.1-0.2,0.2-0.5,0.3-0.7
						c0.2-0.4,0.3-0.8,0.5-1.3c0.1-0.2,0.2-0.5,0.3-0.7c0.2-0.5,0.3-0.9,0.4-1.4c0.1-0.2,0.1-0.4,0.2-0.6
						C610.4,340.9,610.5,340.2,610.7,339.5C610.7,339.5,610.7,339.5,610.7,339.5z"/>
				</g>
			</g>
		</g>
	</g>
	<g>
		<g>
			<path fill="#231F20" d="M680.1,990c0-1.7,1.3-3,3-3v-9H683c-6,0-11,4.4-11.9,10.1c-0.9-5.7-5.9-10.1-11.9-10.1h-0.2v9
				c1.7,0,3,1.3,3,3c0,1.7-1.3,3-3,3v9h0.2c6,0,11-4.4,11.9-10.1c0.9,5.7,5.9,10.1,11.9,10.1h0.2v-9
				C681.5,993,680.1,991.7,680.1,990"/>
			<g>
				<path fill="#231F20" d="M687.6,1018.8v3.3l1-1.5c2.7,1,7.2,2.7,9.4,3.8l-2.3,3.6c-1.8-1-5.4-2.6-8.2-3.8v7.5h-4.3v-12.9h-10v-4
					h9.8v-9.7h4.3v2.9h9v3.9h-9v2.8H699v4H687.6z"/>
				<path fill="#231F20" d="M725.8,1027.2c0,2.1-0.4,3.2-1.7,3.9c-1.3,0.6-3.2,0.7-5.7,0.7c-0.1-1.2-0.8-3-1.3-4.1
					c1.4,0.1,3.3,0.1,3.9,0.1c0.5,0,0.7-0.2,0.7-0.6v-4.5c-0.7,0.8-1.5,1.8-2,2.6c-2.6-1.7-4.3-4-5.5-6.8c-1.2,3.1-3.1,5.5-5.9,7.1
					c-0.3-0.6-0.9-1.3-1.5-2v8.4h-4.1v-20.4h9.8c-0.1-0.5-0.1-1.1-0.2-1.6h-4.5v-3.5h8.1c0.1,1.8,0.2,3.5,0.5,5.2h9.4V1027.2z
					 M706.8,1021.4c2.1-1.4,3.5-3.5,4.4-6.1h-4.4V1021.4z M717.3,1015.4c0.9,2.4,2.2,4.4,4.2,5.7v-5.7H717.3z"/>
				<path fill="#231F20" d="M744.1,1026.5v1.1h8.9v3.3h-21.6v-3.3h8.5v-1.1h-4.5v-1.7c-1.3,1.1-2.8,2-4.3,2.7
					c-0.6-0.9-1.7-2.4-2.6-3.1c1.8-0.6,3.7-1.7,5.1-2.9h-4.9v-3.3h5.2v-8h-3.6v-3.2h3.6v-1.8h4.1v1.8h8v-1.8h4.2v1.8h3.6v3.2h-3.6v8
					h5.1v3.3h-4.6c1.4,1.1,3.1,2,4.8,2.6c-0.9,0.7-2.1,2.2-2.7,3.1c-1.5-0.7-2.9-1.6-4.2-2.8v2H744.1z M740,1023.3v-1.4h4.1v1.4h3.5
					c-0.6-0.6-1.1-1.2-1.6-1.8h-7.5c-0.5,0.6-1,1.2-1.5,1.8H740z M738.1,1010.2v0.8h8v-0.8H738.1z M738.1,1014.6h8v-0.8h-8V1014.6z
					 M738.1,1018.2h8v-0.8h-8V1018.2z"/>
				<path fill="#231F20" d="M767.6,1012.9h-10.7v-3.2h4.3c-0.4-1-1-2.3-1.5-3.3l3-1.5c0.7,1.2,1.5,2.8,1.9,3.8l-1.6,0.9h4.5V1012.9z
					 M769.3,1006.6h3.8v9.9c0,5.3-0.3,11.2-3.2,15.6c-0.8-0.6-2.2-1.3-3.3-1.8h-5.4v1.1h-3.3v-9.8h8.8v7.6c2.4-3.8,2.6-8.3,2.6-12.8
					V1006.6z M766.6,1016.8h-8.5v-3h8.5V1016.8z M758.1,1017.6h8.5v3h-8.5V1017.6z M763.4,1024.7h-2.2v2.3h2.2V1024.7z
					 M774.2,1008.1h3.6v20.9h-3.6V1008.1z M782.8,1006.3v25.4h-4v-25.4H782.8z"/>
				<path fill="#231F20" d="M806.7,1022.5c1.4,1.9,3.3,3.8,4.8,5c-0.8,0.7-2,1.9-2.6,2.8c-1.3-1.3-2.8-3.3-4-5.4v6.8H801v-5.7
					c-1.3,1.8-2.8,3.4-4.3,4.6c-0.3-0.5-0.7-1.2-1.2-1.9l-2.6,0.8c-0.1-1.5-0.6-3.9-1.1-5.7l2.5-0.7c0.3,1.2,0.6,2.5,0.9,3.8
					c1.5-1.1,3-2.7,4-4.4h-3.9v-0.4l-2.7,0.9c0-0.3-0.1-0.7-0.1-1.1c-4.8,0.7-5.9,1-6.5,1.3c-0.2-0.7-0.8-2.5-1.2-3.4
					c0.8-0.2,1.3-0.8,2.2-1.9c0.3-0.3,0.8-1,1.4-1.8c-1.6,0.2-2.2,0.4-2.6,0.6c-0.2-0.7-0.8-2.4-1.2-3.3c0.6-0.2,1-0.7,1.5-1.5
					c0.5-0.8,2.1-3.8,2.9-6.8l3.5,1.4c-0.8,2.2-2,4.5-3.3,6.4l1.2-0.1c0.7-1.2,1.3-2.5,1.8-3.8l2.7,1.7v-2.9h5.9v-2.5h3.9v2.5h6v3.5
					h-6v1.1h5.7v10.3H806.7z M788.8,1024.4c-0.1,2.7-0.6,5.5-1.1,7.2c-0.7-0.4-2.1-0.8-2.9-1c0.6-1.7,0.9-4.3,1-6.7L788.8,1024.4z
					 M791.7,1023.9c0.3,2.1,0.6,4.7,0.6,6.5l-2.8,0.5c0-1.8-0.3-4.5-0.5-6.6L791.7,1023.9z M791.9,1018.9c-0.1-0.6-0.3-1.1-0.4-1.6
					c-0.4,0.6-0.9,1.2-1.4,1.8L791.9,1018.9z M794.2,1016.3c0.5,1.4,0.9,3.2,1.2,4.6v-8.6h5.5v-1.1h-5.5c-1,1.9-2.2,3.9-3.6,5.8
					L794.2,1016.3z M801.3,1017.9v-2.5h-2.7v4h2.7v-0.6 M807.2,1016.8v-1.5h-2.7v3.4v0.6h2.7"/>
				<path fill="#231F20" d="M798.7,1016.5c0.4,0.8,0.9,1.7,1.2,2.7c0.5-0.3,1.3-0.9,1.3-0.9c-0.5-1.2-1-2-1.4-2.6
					C799.6,1015.9,798.7,1016.5,798.7,1016.5z"/>
				<path fill="#231F20" d="M805.8,1015.8c-0.3,0.6-0.9,1.7-1.4,2.6c0.1,0.1,1.2,0.9,1.2,0.9c0.4-0.5,1.2-1.7,1.6-2.6
					C806.9,1016.6,805.8,1015.8,805.8,1015.8z"/>
			</g>
			<path fill="#231F20" d="M813.5,1028.6h-1.3v-0.3h3v0.3h-1.3v3.3h-0.4V1028.6z M815.8,1028.2h0.5l0.6,1.6l0.4,1.1h0l0.4-1.1
				l0.6-1.6h0.5v3.7h-0.4v-2l0-1.2h0l-1,2.6h-0.4l-1-2.6h-0.1l0.1,1.2v2h-0.4V1028.2z"/>
		</g>
		<g>
			<g>
				<path fill="#E50012" d="M509.7,1012.3c-0.6,0-1.1-0.2-1.6-0.6c-0.4-0.4-0.7-0.9-0.7-1.6c0-0.6,0.2-1.1,0.7-1.5
					c0.4-0.4,1-0.6,1.6-0.6c0.6,0,1.1,0.2,1.5,0.5c0.4,0.4,0.7,0.9,0.7,1.6c0,0.7-0.2,1.2-0.6,1.6
					C510.9,1012.1,510.3,1012.3,509.7,1012.3z M511.9,1016.2v11.5c0,0.9-0.2,1.5-0.6,2c-0.4,0.4-0.9,0.7-1.6,0.7
					c-0.6,0-1.2-0.2-1.6-0.7c-0.4-0.5-0.6-1.1-0.6-2v-11.4c0-0.9,0.2-1.5,0.6-2c0.4-0.4,0.9-0.7,1.6-0.7c0.6,0,1.2,0.2,1.6,0.7
					C511.7,1014.8,511.9,1015.4,511.9,1016.2z"/>
				<path fill="#0094D7" d="M436.3,1010.6l8.4,12.8v-12.9c0-0.8,0.2-1.5,0.5-1.9c0.4-0.4,0.8-0.6,1.5-0.6c0.6,0,1.1,0.2,1.5,0.6
					c0.4,0.4,0.5,1,0.5,1.9v17c0,1.9-0.8,2.9-2.4,2.9c-0.4,0-0.7-0.1-1.1-0.2c-0.3-0.1-0.6-0.3-0.9-0.5c-0.3-0.2-0.5-0.5-0.8-0.9
					c-0.2-0.3-0.5-0.7-0.7-1l-8.2-12.6v12.7c0,0.8-0.2,1.5-0.6,1.9c-0.4,0.4-0.9,0.6-1.5,0.6c-0.6,0-1.1-0.2-1.5-0.6
					c-0.4-0.4-0.6-1.1-0.6-1.9v-16.7c0-0.7,0.1-1.3,0.2-1.7c0.2-0.4,0.5-0.8,0.9-1.1c0.4-0.3,0.9-0.4,1.4-0.4c0.4,0,0.7,0.1,1,0.2
					c0.3,0.1,0.5,0.3,0.7,0.5c0.2,0.2,0.4,0.5,0.6,0.8C435.8,1009.9,436.1,1010.2,436.3,1010.6z"/>
				<path fill="#0094D7" d="M457.4,1021.1v-10.4c0-0.9,0.2-1.5,0.6-2c0.4-0.4,0.9-0.7,1.6-0.7c0.7,0,1.2,0.2,1.6,0.7
					c0.4,0.4,0.6,1.1,0.6,2v10.6c0,1.2,0.1,2.2,0.4,3c0.3,0.8,0.8,1.4,1.4,1.9c0.7,0.4,1.7,0.7,2.9,0.7c1.7,0,2.9-0.5,3.6-1.4
					c0.7-0.9,1.1-2.3,1.1-4.1v-10.7c0-0.9,0.2-1.6,0.6-2c0.4-0.4,0.9-0.7,1.6-0.7c0.7,0,1.2,0.2,1.6,0.7c0.4,0.4,0.6,1.1,0.6,2v10.4
					c0,1.7-0.2,3.1-0.5,4.2c-0.3,1.1-1,2.1-1.9,3c-0.8,0.7-1.7,1.3-2.7,1.6c-1,0.3-2.3,0.5-3.7,0.5c-1.7,0-3.1-0.2-4.3-0.5
					c-1.2-0.4-2.2-0.9-2.9-1.7c-0.8-0.8-1.3-1.7-1.7-2.9C457.5,1024.1,457.4,1022.7,457.4,1021.1z"/>
				<path fill="#1EAA39" d="M498.4,1011.4h-9.9v6.1h9.1c0.7,0,1.2,0.2,1.5,0.4c0.3,0.3,0.5,0.7,0.5,1.2c0,0.5-0.2,0.9-0.5,1.2
					c-0.3,0.3-0.8,0.5-1.5,0.5h-9.1v6.2h10.2c0.7,0,1.2,0.2,1.6,0.5c0.4,0.3,0.5,0.7,0.5,1.3c0,0.5-0.2,0.9-0.5,1.2
					c-0.3,0.3-0.9,0.5-1.6,0.5h-11.9c-1,0-1.6-0.2-2.1-0.6c-0.4-0.4-0.6-1.1-0.6-2.1v-17c0-0.6,0.1-1.1,0.3-1.5
					c0.2-0.4,0.5-0.7,0.9-0.9c0.4-0.2,0.9-0.3,1.5-0.3h11.6c0.7,0,1.2,0.2,1.6,0.5c0.3,0.3,0.5,0.7,0.5,1.2c0,0.5-0.2,0.9-0.5,1.2
					C499.6,1011.2,499.1,1011.4,498.4,1011.4z"/>
				<path fill="#F7B400" d="M527.4,1021.2h-4v6.5c0,0.9-0.2,1.5-0.6,2c-0.4,0.5-0.9,0.7-1.6,0.7c-0.7,0-1.2-0.2-1.6-0.7
					c-0.4-0.4-0.6-1.1-0.6-2v-17.1c0-1,0.2-1.7,0.7-2.1c0.4-0.4,1.1-0.6,2.1-0.6h5.6c1.7,0,2.9,0.1,3.8,0.4c0.9,0.2,1.7,0.7,2.3,1.2
					c0.6,0.6,1.1,1.3,1.5,2.1c0.3,0.8,0.5,1.8,0.5,2.8c0,2.2-0.7,3.9-2,5C532.1,1020.6,530,1021.2,527.4,1021.2z M526.3,1011.3h-3
					v6.6h3c1,0,1.9-0.1,2.6-0.3c0.7-0.2,1.2-0.6,1.6-1.1c0.4-0.5,0.5-1.1,0.5-1.9c0-1-0.3-1.7-0.8-2.3
					C529.5,1011.6,528.3,1011.3,526.3,1011.3z"/>
				<g>
					<path fill="#9E9E9F" d="M413.3,1007c-1.8-1-3.8-1.6-5.9-1.8c-2.1-3.7-6-6.1-10.5-6.1c-6.7,0-12.2,5.4-12.2,12.2
						c-6.7,0-12.2,5.4-12.2,12.2c0,6.7,5.4,12.2,12.2,12.2h0H406l0,0c8.4,0,15.2-6.9,15.2-15.2C421.2,1014.6,418,1009.6,413.3,1007z
						"/>
					<g>
						<path fill="#0094D7" d="M408.2,1004.4c-2.1-3.6-6-6.1-10.5-6.1c-6.7,0-12.2,5.4-12.2,12.2c-6.7,0-12.2,5.4-12.2,12.2
							c0,6.7,5.4,12.2,12.2,12.2h0l28.6-28.6C412.3,1005.2,410.3,1004.6,408.2,1004.4z"/>
					</g>
					<path fill="none" d="M396.7,1010.3c-1.3,0-2.5,0.5-3.5,1.3c-1.8,2.1-1.7,5.4,0.3,7.4l3.9,3.9l4.1-4.1l-4-4
						c-0.3-0.3-0.3-0.8,0-1.1c0.1-0.1,0.3-0.2,0.5-0.2c0-0.2,0.1-0.3,0.2-0.5c0.3-0.3,0.8-0.3,1.1,0l4,4l1.1-1.1l-3.9-3.9
						C399.5,1010.8,398.1,1010.3,396.7,1010.3z"/>
					<path fill="#808080" d="M401.2,1011.2c-1-1-2.4-1.6-3.9-1.6c-1.5,0-2.8,0.6-3.9,1.6c-0.1,0.1-0.2,0.2-0.3,0.4
						c1-0.8,2.2-1.3,3.5-1.3c1.5,0,2.8,0.6,3.9,1.6l3.9,3.9l0.7-0.7L401.2,1011.2z"/>
					<path fill="#808080" d="M404.8,1030.4c-1.3,0-2.6-0.5-3.5-1.5l-4.9-4.9l-3.9-3.9c-2.7-2.7-2.8-6.9-0.3-9.7
						c-0.1,0.1-0.3,0.2-0.4,0.4c-2.8,2.8-2.8,7.3,0,10l3.9,3.9l4.9,4.9c0.9,0.9,2.2,1.5,3.5,1.5c1.3,0,2.6-0.5,3.5-1.5
						c0.1-0.1,0.2-0.2,0.3-0.4C407,1030,405.9,1030.4,404.8,1030.4z"/>
					<path fill="#808080" d="M407.1,1023l-4.9-4.9l-4-4c-0.2-0.2-0.3-0.4-0.2-0.7c-0.2,0-0.3,0.1-0.5,0.2c-0.3,0.3-0.3,0.8,0,1.1
						l4,4l4.9,4.9c1.2,1.2,1.3,3.1,0.3,4.4c0.1-0.1,0.3-0.2,0.4-0.3C408.5,1026.5,408.5,1024.3,407.1,1023z"/>
					<path fill="#FFFFFF" d="M408.3,1021.9l-4.9-4.9l-4-4c-0.3-0.3-0.8-0.3-1.1,0c-0.1,0.1-0.2,0.3-0.2,0.5c0,0.2,0,0.5,0.2,0.7l4,4
						l4.9,4.9c1.3,1.3,1.3,3.5,0,4.8c-0.1,0.1-0.2,0.2-0.4,0.3c-0.6,0.4-1.3,0.7-2,0.7c-0.9,0-1.8-0.4-2.4-1l-4.9-4.9l-3.9-3.9
						c-2-2-2.1-5.2-0.3-7.4c0.1-0.1,0.2-0.2,0.3-0.4c1-1,2.4-1.6,3.9-1.6c1.5,0,2.8,0.6,3.9,1.6l3.9,3.9l0.5-0.5l0.7-0.7l-3.9-3.9
						c-1.3-1.3-3.1-2.1-5-2.1l0,0c-1.9,0-3.7,0.7-5,2.1c-0.1,0.1-0.2,0.2-0.3,0.3c-2.5,2.8-2.4,7,0.3,9.7l3.9,3.9l4.9,4.9
						c0.9,0.9,2.2,1.5,3.5,1.5c1.2,0,2.3-0.4,3.2-1.1c0.1-0.1,0.2-0.2,0.4-0.3C410.2,1027,410.2,1023.8,408.3,1021.9z"/>
					<g>
						<path fill="#F7B400" d="M404.8,1028.8c0.7,0,1.4-0.2,2-0.7c1-1.3,0.9-3.2-0.3-4.4l-4.9-4.9l-4.1,4.1l4.9,4.9
							C403,1028.4,403.9,1028.8,404.8,1028.8z"/>
						<path fill="#F7B400" d="M414.1,1006.2l-7.8,7.8l-0.7,0.7l-0.5,0.5l-0.7,0.7l-1.1,1.1l4.9,4.9c1.9,1.9,1.9,5.1,0,7.1
							c-0.1,0.1-0.2,0.2-0.4,0.3c-0.1,0.1-0.2,0.2-0.3,0.4c-0.9,0.9-2.2,1.5-3.5,1.5c-1.3,0-2.6-0.5-3.5-1.5l-4.9-4.9l-10.1,10.1
							h21.3c8.4,0,15.2-6.9,15.2-15.2C422,1013.8,418.8,1008.8,414.1,1006.2z"/>
					</g>
				</g>
				<g>
					<path fill="#656464" d="M551.4,1007.7c0,0.2-0.1,0.3-0.3,0.4c-0.3,0.2-0.5,0.4-0.5,0.9c0,1.2-0.1,2.3-0.1,3.3
						c0,1.6,0.2,3,0.4,4.3c0.3,1.4,0.8,2.7,1.3,3.9c0.5,1,1.1,2,1.8,2.9c0.9,1.2,1.9,2.1,2.9,2.8c1.1,0.9,2.5,1.6,4,2.1
						c0,0.1-0.1,0.3-0.2,0.4c-0.3,0.3-0.6,0.7-0.9,1c-0.2,0.1-0.3,0.2-0.3,0.2c-2.1-1-3.5-1.9-4.1-2.4c-1-0.7-1.9-1.6-2.7-2.8
						c-0.8-1-1.5-2.1-2-3.3c-0.4-0.9-0.8-1.9-1.1-3c-0.1,0.2-0.1,0.5-0.2,0.7c-0.4,1.3-0.8,2.4-1.3,3.3c-0.6,1.3-1.3,2.4-2.2,3.4
						c-0.7,0.7-1.5,1.3-2.3,1.9c-1,0.8-2.3,1.5-3.9,2.1c-0.1,0-0.2-0.1-0.3-0.2c-0.2-0.3-0.6-0.6-0.9-1c-0.1-0.1-0.2-0.2-0.2-0.2
						c0-0.1,0.1-0.2,0.2-0.2c1.5-0.6,2.6-1.1,3.2-1.6c0.9-0.5,1.7-1.1,2.6-2c0.9-0.8,1.6-1.8,2.2-3c0.6-1.1,1-2.2,1.4-3.4
						c0.3-1,0.5-2.2,0.6-3.4c0.2-1.3,0.3-3.4,0.3-6.4c0-0.4,0-0.8-0.1-1.1c0-0.1,0.1-0.2,0.2-0.2
						C550.5,1007.5,551.4,1007.6,551.4,1007.7z"/>
					<path fill="#656464" d="M582.1,1007.7c0.2,0,0.4,0.1,0.4,0.3v9.1c0,0.2-0.1,0.3-0.4,0.3h-9.6c-0.5,0.8-1,1.4-1.5,1.9
						c-0.1,0.2-0.2,0.3-0.3,0.4h14c0.2,0,0.3,0.1,0.3,0.3c-0.1,2.7-0.2,4.6-0.4,5.7c-0.3,1.4-0.6,2.4-1.1,3.1
						c-0.4,0.7-1.5,1.1-3.4,1.1c-0.9,0-1.4-0.2-1.4-0.5c-0.1-0.4-0.2-0.9-0.5-1.4v-0.2c0.7,0.2,1.3,0.3,1.9,0.3c1,0,1.7-0.3,2-0.7
						c0.3-0.4,0.6-1.1,0.8-2.2c0.2-0.8,0.3-2.1,0.4-3.9H580c-0.6,1.2-1.2,2.3-1.8,3.2c-0.8,1.1-1.6,2.1-2.5,2.9
						c-0.9,0.9-1.9,1.7-3.1,2.5c-0.2,0-0.4-0.1-0.5-0.1c-0.4-0.2-0.8-0.4-1.2-0.6c-0.2,0-0.2-0.1-0.2-0.1c1.5-1,2.8-2,3.8-2.9
						c0.9-0.9,1.7-1.8,2.2-2.6c0.4-0.5,0.8-1.2,1.3-2.3h-3.3c-0.7,1-1.3,1.9-2,2.7c-0.9,0.9-1.9,1.8-3,2.5c-1,0.8-2.2,1.5-3.6,2.2
						c-0.2,0-0.4-0.1-0.5-0.2c-0.4-0.2-0.8-0.4-1.2-0.6c-0.1,0-0.2,0-0.2-0.1c1.8-0.8,3.2-1.7,4.3-2.5c1.1-0.8,1.9-1.5,2.6-2.2
						c0.4-0.4,0.9-1,1.4-1.8h-3.1c-0.1,0.1-0.2,0.2-0.2,0.2c-0.8,0.6-1.7,1.2-2.7,1.8c-1.2,0.6-1.9,0.9-2,0.9
						c-0.1,0-0.2-0.1-0.3-0.3c-0.2-0.3-0.5-0.6-0.8-0.9c-0.1-0.1-0.2-0.2-0.2-0.3c1.3-0.5,2.4-0.9,3.3-1.4c0.9-0.5,1.8-1.2,2.7-2
						c0.4-0.4,0.9-1,1.6-1.8h-3.4c-0.3,0-0.4-0.1-0.4-0.3v-9.1c0-0.2,0.1-0.3,0.4-0.3H582.1z M580.7,1011.7v-2.4h-12.3v2.4H580.7z
						 M580.7,1013.3h-12.3v2.5h12.3V1013.3z"/>
					<path fill="#656464" d="M594.4,1010.6v3.4h3.6c0.2,0,0.3,0.2,0.3,0.4v0.8c0,0.3-0.1,0.4-0.3,0.4h-3.3c0.6,1.3,1.2,2.3,1.6,2.8
						c0.6,0.9,1.4,1.8,2.3,2.5c0,0.2-0.1,0.3-0.2,0.4c-0.2,0.2-0.6,0.5-1,0.9c-0.1,0-0.1,0-0.1-0.1c-0.5-0.4-1-1-1.5-1.7
						c-0.4-0.6-0.9-1.5-1.4-2.5v12c0,0.2-0.1,0.3-0.4,0.3h-1c-0.3,0-0.4-0.1-0.4-0.3v-10.5c-0.4,0.9-0.9,1.7-1.4,2.5
						c-0.5,0.9-1.2,1.7-2,2.5c-0.2,0-0.3,0-0.4-0.1c-0.4-0.2-0.7-0.3-1.1-0.5c-0.1,0-0.2,0-0.2-0.1c1-1,1.8-1.9,2.5-2.9
						c0.6-0.9,1.1-1.7,1.4-2.6c0.2-0.5,0.6-1.4,0.9-2.5h-4c-0.2,0-0.3-0.1-0.3-0.4v-0.8c0-0.2,0.1-0.4,0.3-0.4h4.3v-3
						c-1.2,0.2-2.5,0.4-3.7,0.4c-0.2,0-0.4-0.1-0.4-0.3c-0.2-0.4-0.4-0.7-0.5-0.9c0-0.3,0.1-0.4,0.3-0.4c2.1,0,3.7-0.1,4.6-0.3
						c1.4-0.2,2.7-0.8,3.8-1.6c0.1-0.1,0.2-0.1,0.4-0.1c0.1,0,0.2,0.1,0.3,0.2c0.7,0.8,1,1.2,1,1.3c0,0.2-0.1,0.3-0.2,0.3l-0.7-0.1
						C596.7,1009.8,595.6,1010.2,594.4,1010.6z M610.7,1020.2v1c0,0.3-0.1,0.4-0.3,0.4l-2.3,0.6v7.6c0,0.2-0.1,0.3-0.4,0.3h-1
						c-0.2,0-0.4-0.1-0.4-0.3v-7.1l-7.3,1.9c-0.2,0-0.3-0.1-0.3-0.4v-1c0-0.2,0.1-0.4,0.3-0.4l7.3-1.9v-13.1c0-0.2,0.1-0.3,0.4-0.3
						c1.2,0,1.9,0.1,1.9,0.3c0,0.2-0.1,0.3-0.3,0.4c-0.2,0-0.2,0.2-0.2,0.5v11.8l2.3-0.6C610.6,1019.9,610.7,1020,610.7,1020.2z
						 M602.9,1016.9c0.7,0.5,1.3,1,1.8,1.4c0,0.1-0.1,0.1-0.1,0.2c-0.5,0.7-0.7,1.1-0.8,1.1c-0.8-0.6-1.6-1.2-2.4-1.8
						c-0.7-0.4-1.3-0.7-1.7-0.9c0-0.1,0.2-0.4,0.8-1.1c0.1-0.1,0.1-0.2,0.2-0.2C601.5,1016,602.3,1016.5,602.9,1016.9z
						 M603.3,1010.6c0.7,0.6,1.2,1.1,1.7,1.5c0,0-0.1,0.1-0.1,0.2c-0.5,0.7-0.7,1.1-0.7,1.1c-0.7-0.7-1.5-1.4-2.4-2
						c-0.7-0.5-1.2-0.8-1.7-1c0-0.1,0.2-0.5,0.8-1.1c0-0.1,0.1-0.2,0.2-0.2C602,1009.7,602.7,1010.1,603.3,1010.6z"/>
					<path fill="#656464" d="M616.9,1012.4v-3.3c0-0.5-0.1-0.8-0.1-1.1c-0.1-0.2-0.1-0.3-0.1-0.5c0-0.1,0.1-0.2,0.5-0.2l2,0.2
						c0.2,0.1,0.3,0.2,0.3,0.2c0,0.1-0.1,0.2-0.3,0.2c-0.3,0.2-0.5,0.5-0.5,1.1v3.2h3.1c0.2,0,0.3,0.1,0.3,0.4v0.8
						c0,0.2-0.1,0.4-0.3,0.4h-3.1v5.5c1.1-0.5,2.1-1.1,3.1-1.6c0.1-0.1,0.1-0.1,0.2-0.1c0.1,0,0.2,0.1,0.2,0.2
						c0,0.8-0.1,1.3-0.1,1.4c-1.1,0.6-2.2,1.2-3.3,1.8v6.9c0,1.1-0.9,1.7-2.6,1.7h-1.5c-0.1,0-0.2-0.1-0.2-0.4
						c-0.1-0.3-0.2-0.7-0.5-1.1c0-0.1,0.1-0.2,0.2-0.2c0.6,0.1,1.2,0.2,1.8,0.2c0.7,0,1.1-0.3,1.1-0.9v-5.3
						c-0.8,0.5-1.7,0.8-2.5,1.2c-0.3,0.5-0.4,0.7-0.6,0.7c-0.2,0-0.5-0.7-1-2c1.1-0.3,2.5-0.9,4.1-1.6v-6.3h-3.3
						c-0.2,0-0.3-0.1-0.3-0.4v-0.8c0-0.3,0.1-0.4,0.3-0.4H616.9z M628.3,1011.3v-3.5c0-0.2,0.1-0.3,0.4-0.3c1.2,0,1.9,0.1,1.9,0.3
						c0,0.2-0.1,0.3-0.2,0.4c-0.2,0-0.2,0.2-0.2,0.5v2.6h5.2c0.2,0,0.3,0.1,0.3,0.4v0.8c0,0.2-0.1,0.4-0.3,0.4H630v4.1h3.9
						c0.1,0,0.3,0.1,0.5,0.1c0.3,0.3,0.5,0.4,0.5,0.6c-0.3,1.3-0.6,2.3-0.9,3.2c-0.4,0.9-0.8,1.8-1.4,2.7c-0.3,0.6-0.8,1.2-1.5,1.9
						c-0.1,0.1-0.2,0.2-0.3,0.3c0.9,0.8,1.8,1.4,2.9,1.9c0.7,0.3,1.3,0.6,1.9,0.7c0.2,0.1,0.3,0.1,0.3,0.2c0,0.2,0,0.3-0.1,0.3
						c-0.3,0.3-0.5,0.6-0.7,0.9c-0.1,0.1-0.2,0.2-0.3,0.2c-0.2,0-0.6-0.2-1.3-0.5c-1.6-0.8-2.9-1.6-3.9-2.6
						c-0.2,0.2-0.4,0.3-0.6,0.5c-0.6,0.4-1.4,0.9-2.4,1.4c-0.8,0.4-1.9,0.8-3.3,1.3c-0.2,0-0.3-0.1-0.4-0.2
						c-0.3-0.3-0.7-0.6-1.1-0.8c-0.1-0.1-0.1-0.2-0.1-0.2c0-0.1,0.1-0.1,0.2-0.1c1.5-0.4,2.8-0.8,3.8-1.3c1.1-0.5,2-1,2.8-1.6
						c0.1,0,0.1-0.1,0.1-0.1c-0.8-0.8-1.4-1.8-2-2.9c-0.6-1.1-1.1-2.5-1.6-4.2h-1.3c-0.2,0-0.3-0.1-0.3-0.4v-0.8
						c0-0.3,0.1-0.4,0.3-0.4h4.9v-4.1h-5c-0.2,0-0.3-0.1-0.3-0.4v-0.8c0-0.2,0.1-0.4,0.3-0.4H628.3z M627.7,1021.7
						c0.5,1.1,1.2,2,2,2.8c0.3-0.3,0.5-0.5,0.7-0.7c0.6-0.7,1.1-1.5,1.6-2.4c0.3-0.7,0.6-1.7,1-2.9h-6.6
						C626.7,1019.7,627.2,1020.8,627.7,1021.7z"/>
				</g>
			</g>
		</g>
		<g>
			<path fill="#666464" d="M270.3,1011.7c0.6,0.4,1.1,0.8,1.5,1.1c0,0,0,0.1-0.1,0.2c-0.3,0.4-0.4,0.6-0.5,0.7h6.7
				c0.2,0,0.2,0.1,0.2,0.2v0.7c0,0.2-0.1,0.3-0.2,0.3h-6.7v4.8h5.9c0.2,0,0.2,0.1,0.2,0.2v0.7c0,0.2-0.1,0.3-0.2,0.3h-5.9v5h7.5
				c0.2,0,0.2,0.1,0.2,0.2v0.7c0,0.2-0.1,0.3-0.2,0.3h-16.5c-0.2,0-0.2-0.1-0.2-0.3v-0.7c0-0.2,0.1-0.2,0.2-0.2h7.6v-5h-6.1
				c-0.2,0-0.2-0.1-0.2-0.3v-0.7c0-0.2,0.1-0.2,0.2-0.2h6.1v-4.8H263c-0.2,0-0.2-0.1-0.2-0.3v-0.7c0-0.2,0.1-0.2,0.2-0.2h7.9
				c-0.6-0.5-1.2-0.9-1.8-1.3c-0.6-0.3-1.1-0.6-1.5-0.7c0-0.1,0.2-0.3,0.6-0.8c0.1-0.1,0.1-0.1,0.2-0.1
				C269.2,1011.1,269.8,1011.4,270.3,1011.7z"/>
			<path fill="#666464" d="M284.8,1016.4c0.1,0.5,0.2,1,0.3,1.6c0,0.1-0.3,0.2-0.8,0.3h4c0.2,0,0.2,0.1,0.2,0.3v0.6
				c0,0.2-0.1,0.3-0.2,0.3h-1.7v1.9c0,0.2,0,0.3,0,0.5c0.6-0.2,1.2-0.3,1.7-0.5c0,0,0.1,0,0.1,0c0.1,0,0.2,0.1,0.2,0.2
				c0,0.6,0,0.9-0.1,1c-0.6,0.2-1.3,0.4-1.9,0.5c-0.1,0.5-0.1,1-0.2,1.5c-0.2,0.8-0.5,1.6-1,2.2c-0.3,0.4-0.8,0.9-1.3,1.3
				c-0.2,0-0.3-0.1-0.3-0.1c-0.2-0.2-0.3-0.4-0.5-0.6c-0.1-0.1-0.1-0.2-0.1-0.2c1.1-0.8,1.8-1.8,2.1-2.9c0-0.2,0.1-0.5,0.1-0.8
				c-0.6,0.2-1.1,0.3-1.7,0.4c-0.2,0.3-0.3,0.5-0.4,0.5s-0.3-0.5-0.7-1.5c0.8-0.1,1.7-0.3,2.8-0.6c0,0,0.1,0,0.1,0
				c0-0.3,0-0.5,0-0.8v-2H283c-0.2,0-0.2-0.1-0.2-0.3v-0.6c0-0.2,0.1-0.3,0.2-0.3h1c-0.1-0.4-0.1-0.8-0.2-1.3
				c-0.2-0.6-0.3-1.2-0.5-1.8c0-0.1,0.3-0.3,1-0.6C284.5,1015.2,284.6,1015.8,284.8,1016.4z M286.8,1011c0,0.2-0.1,0.3-0.2,0.3
				c-0.1,0-0.2,0.2-0.2,0.4v1.4h2.1c0.2,0,0.2,0.1,0.2,0.3v0.6c0,0.2-0.1,0.3-0.2,0.3H283c-0.2,0-0.2-0.1-0.2-0.3v-0.6
				c0-0.2,0.1-0.3,0.2-0.3h2.1v-2.1c0-0.2,0.1-0.2,0.3-0.2C286.4,1010.8,286.8,1010.9,286.8,1011z M288.2,1015
				c0.2,0.1,0.2,0.2,0.2,0.2c0,0.1,0,0.2-0.1,0.2c-0.1,0-0.1,0.1-0.1,0.2c-0.2,1.1-0.4,1.9-0.6,2.5c-0.1,0.1-0.1,0.2-0.1,0.2
				c-0.1,0-0.2,0-0.3-0.1c-0.2-0.1-0.4-0.2-0.6-0.3c-0.1,0-0.1,0-0.1-0.1c0,0,0-0.1,0-0.2c0.2-0.5,0.3-0.9,0.4-1.3
				c0.1-0.5,0.2-1,0.3-1.5c0-0.1,0-0.2,0.1-0.2L288.2,1015z M290.1,1015.5c0-1,0-2,0-3.2c0-0.2,0-0.7-0.1-1.3c0-0.1,0.1-0.2,0.2-0.2
				l1.2,0.1c0.2,0,0.2,0.1,0.2,0.2c0,0.2-0.1,0.2-0.2,0.3c-0.2,0.1-0.3,0.2-0.3,0.4c0,1.4,0,2.6,0,3.6h2c0.2,0,0.3,0.1,0.3,0.3
				c0,3.9-0.1,6.5-0.2,8c-0.1,1.3-0.2,2.3-0.4,2.8c-0.2,0.5-0.4,0.8-0.6,0.9c-0.3,0.2-0.8,0.3-1.3,0.3c-0.6,0-1-0.1-1-0.4
				c0-0.3-0.1-0.6-0.2-0.9c0-0.1,0-0.2,0.1-0.2c0,0,0,0,0.1,0.1c0.3,0.1,0.5,0.1,0.7,0.1c0.5,0,0.8-0.1,1-0.4
				c0.2-0.2,0.3-0.9,0.4-2.1c0.1-1.2,0.2-3.7,0.2-7.5h-1.1c-0.1,1.4-0.1,2.6-0.2,3.4c-0.2,1.9-0.6,3.6-1.1,5c-0.4,1-0.8,1.9-1.3,2.7
				h-0.2c-0.4-0.1-0.7-0.2-1-0.3c0,0-0.1-0.1-0.1-0.2c0.6-0.9,1.1-1.8,1.5-2.8c0.4-1,0.7-2.3,0.9-3.8c0.2-0.9,0.2-2.3,0.3-4H289
				c-0.2,0-0.2-0.1-0.2-0.3v-0.6c0-0.1,0.1-0.2,0.2-0.2H290.1z M297.7,1011.2c0,0.2-0.1,0.3-0.2,0.3c-0.1,0-0.2,0.2-0.2,0.4v1.3h2.5
				c0.2,0,0.2,0.1,0.2,0.3v0.6c0,0.2-0.1,0.3-0.2,0.3h-6c-0.2,0-0.2-0.1-0.2-0.3v-0.6c0-0.2,0.1-0.3,0.2-0.3h2.2v-1.9
				c0-0.2,0.1-0.2,0.3-0.2C297.3,1010.9,297.7,1011,297.7,1011.2z M299.7,1018.3c0.2,0,0.2,0.1,0.2,0.3v0.6c0,0.2-0.1,0.3-0.2,0.3
				h-2.1v2.5h2c0.2,0,0.2,0.1,0.2,0.3v0.6c0,0.2-0.1,0.3-0.2,0.3h-2v4.6c0,0.2-0.1,0.2-0.3,0.2h-0.7c-0.2,0-0.3-0.1-0.3-0.2v-4.6
				h-1.9c-0.2,0-0.2-0.1-0.2-0.3v-0.6c0-0.2,0.1-0.3,0.2-0.3h1.9v-2.5h-1.9c-0.2,0-0.2-0.1-0.2-0.3v-0.6c0-0.2,0.1-0.3,0.2-0.3
				H299.7z M295.8,1016.3c0.2,0.5,0.3,1,0.4,1.6c0,0-0.4,0.2-1.1,0.4c-0.1-0.3-0.2-0.8-0.3-1.3c-0.2-0.6-0.4-1.2-0.6-1.8
				c0-0.1,0.3-0.3,1-0.6C295.5,1015.2,295.7,1015.7,295.8,1016.3z M299.4,1015c0.2,0.1,0.2,0.2,0.2,0.2c0,0.1,0,0.2-0.1,0.2
				c-0.1,0-0.1,0.1-0.1,0.2c-0.2,1.1-0.4,1.9-0.6,2.5c-0.1,0.1-0.1,0.2-0.1,0.2c-0.1,0-0.2,0-0.3-0.1c-0.2-0.1-0.5-0.2-0.6-0.3
				c-0.1,0-0.1,0-0.1-0.1c0,0,0-0.1,0-0.2c0.2-0.5,0.3-0.9,0.4-1.3c0.1-0.5,0.2-1,0.3-1.5c0-0.1,0-0.2,0.1-0.2L299.4,1015z"/>
			<path fill="#666464" d="M318,1016.3c0.2,0,0.3,0.1,0.3,0.2v6.8c0,0.2-0.1,0.2-0.3,0.2h-0.7c-0.2,0-0.3-0.1-0.3-0.2v-0.3h-4.1v1.4
				h7.6c0.2,0,0.2,0.1,0.2,0.3v0.6c0,0.2-0.1,0.3-0.2,0.3h-7.6v2.3c0,0.2-0.1,0.2-0.3,0.2h-0.7c-0.2,0-0.3-0.1-0.3-0.2v-2.3H304
				c-0.2,0-0.2-0.1-0.2-0.3v-0.6c0-0.2,0.1-0.3,0.2-0.3h7.5v-1.4h-4.1v0.3c0,0.2-0.1,0.2-0.3,0.2h-0.7c-0.2,0-0.3-0.1-0.3-0.2v-6.7
				c0-0.2,0.1-0.3,0.3-0.3H318z M311.1,1011.2c0.2,0,0.3,0.1,0.3,0.2v3.5c0,0.2-0.1,0.2-0.3,0.2h-5.2c-0.2,0-0.3-0.1-0.3-0.2v-3.5
				c0-0.2,0.1-0.2,0.3-0.2H311.1z M310,1012.4h-3.1v1.7h3.1V1012.4z M311.5,1019v-1.6h-4.1v1.6H311.5z M311.5,1021.8v-1.6h-4.1v1.6
				H311.5z M312.8,1019h4.1v-1.6h-4.1V1019z M312.8,1021.8h4.1v-1.6h-4.1V1021.8z M318.5,1011.2c0.2,0,0.3,0.1,0.3,0.2v3.5
				c0,0.2-0.1,0.2-0.3,0.2h-5.1c-0.2,0-0.3-0.1-0.3-0.2v-3.5c0-0.2,0.1-0.2,0.3-0.2H318.5z M317.4,1012.4h-3v1.7h3V1012.4z"/>
			<path fill="#666464" d="M330.6,1011.9c0,0.1-0.1,0.2-0.2,0.2c-0.2,0-0.4,0.1-0.5,0.2c-0.6,1.4-1.1,2.5-1.7,3.4v12.1
				c0,0.2-0.1,0.2-0.3,0.2h-0.7c-0.2,0-0.3-0.1-0.3-0.2v-10.3c-0.5,0.5-1,1.2-1.7,1.9c-0.2,0-0.3-0.1-0.4-0.2
				c-0.2-0.2-0.4-0.3-0.6-0.5c-0.1-0.1-0.1-0.1-0.1-0.2c0.6-0.6,1.1-1.2,1.7-1.9c0.7-0.8,1.4-1.8,1.9-2.8c0.5-0.9,0.9-1.8,1.1-2.7
				c0-0.1,0.1-0.2,0.2-0.2C330.1,1011.5,330.6,1011.8,330.6,1011.9z M340.1,1017.3c0.1,0.1,0.2,0.1,0.2,0.2c0,0.2-0.1,0.2-0.2,0.2
				c-0.2,0-0.4,0.1-0.4,0.2c-0.3,1.4-0.8,2.9-1.4,4.7c-0.4,1.2-0.8,2.3-1.2,3.4h4.6c0.1,0,0.2,0.1,0.2,0.3v0.6
				c0,0.2-0.1,0.3-0.2,0.3h-12.1c-0.2,0-0.2-0.1-0.2-0.3v-0.6c0-0.2,0.1-0.3,0.2-0.3h6.2c0.5-1.3,1-2.7,1.5-4.1
				c0.5-1.9,0.9-3.5,1.1-4.9c0-0.1,0.1-0.2,0.1-0.2L340.1,1017.3z M336.9,1010.9c0,0.2-0.1,0.3-0.2,0.3c-0.1,0-0.2,0.2-0.2,0.4v2.8
				h4.8c0.2,0,0.2,0.1,0.2,0.3v0.6c0,0.2-0.1,0.3-0.2,0.3h-11.1c-0.2,0-0.2-0.1-0.2-0.3v-0.6c0-0.2,0.1-0.3,0.2-0.3h4.9v-3.4
				c0-0.1,0.1-0.2,0.3-0.2C336.4,1010.7,336.9,1010.8,336.9,1010.9z M333.6,1021.1c0.3,1.1,0.6,2.3,0.8,3.6c0,0-0.4,0.2-1.3,0.4
				c-0.1-0.8-0.3-1.8-0.6-3.1c-0.3-1.4-0.7-2.8-1.2-4.2c0-0.1,0.3-0.3,1-0.7C332.9,1018.6,333.3,1019.9,333.6,1021.1z"/>
		</g>
	</g>
	<g>
		<g>
			<path fill="#005FA3" d="M313.8,851.9c-1,0.5-2.4,1.2-4.2,1.9v12.7c0,2.8-1.3,4.2-4,4.2c-1.4,0-2.3,0-2.9-0.1l-0.8-3.4
				c0.5,0,1.5,0,2.9,0c0.3,0,0.6-0.1,0.8-0.3c0.3-0.2,0.4-0.5,0.4-0.7v-11l-4.4,1.4l-0.7-3.5c2-0.6,3.7-1.2,5.1-1.7v-5.7
				c1.6-2.5,2.8-4.8,3.7-6.9h-7.9v-3.5h11.7v3.5c-0.9,1.9-1.8,3.7-2.6,5.4l-1.3,2.5v3.3c1.1-0.4,2.5-1,4.2-1.8L313.8,851.9z
				 M320.7,861.3c-2.2,3.4-4.6,6.1-7,7.9l-2.5-2.5c2.4-1.9,4.5-4.2,6.4-7.1L320.7,861.3z M325.6,835.7c-3.4,3.9-6.6,6.7-9.6,8.3
				l-2.4-2.6c3.1-1.5,6-3.9,9-7.3L325.6,835.7z M337.8,856.7l-3,1.6c-0.6-1.1-1.1-1.9-1.5-2.7c-1.7,0.3-3.8,0.7-6.4,1.1l0,9.6
				c0,1.9-0.6,3.1-1.8,3.6s-3.1,0.7-5.6,0.7l-1.1-3.5c0.8,0.1,1.4,0.1,2.1,0.1c1.3,0,2.1-0.1,2.3-0.3c0.3-0.2,0.4-0.5,0.4-1v-8.7
				c-2.3,0.3-5.3,0.6-9.1,0.9l-0.5-3c3.8-1.5,7.1-3.4,10.1-5.8c-2.3,0.3-5,0.6-8.2,0.9l-0.5-2.8c3.9-1.7,7.9-5.2,12.1-10.4l3,1.5
				c-2.5,3.7-5.6,6.4-9.3,8.3c2.2-0.2,4.5-0.5,7.2-1.1c1.4-1.4,2.8-2.9,4-4.3l2.9,1.7c-5.2,5.8-10.2,9.6-15,11.5
				c3.7-0.3,7.6-0.9,11.6-1.6c-0.7-1-1.4-1.8-2-2.5l3-1.5C334.8,851.6,336.6,854.2,337.8,856.7z M337.7,866.8l-2.7,2.3
				c-1.6-2.7-3.7-5.2-6.2-7.6l2.6-2.3C334.4,862,336.5,864.6,337.7,866.8z"/>
			<path fill="#005FA3" d="M359.6,851.5l-2.3,3.2c-0.9-1.5-1.5-2.6-2-3.3v19.2h-3.5v-16.6c-1,2.8-1.9,4.9-2.8,6.3l-2.4-3.3
				c2.5-4.1,4.2-8.2,5.1-12.1h-4.4v-3.5h4.4v-7h3.5v7h3.1v3.5h-3.1v1.3C357.1,848.3,358.5,850,359.6,851.5z M371.5,851.3l-2.3,3
				c-1-1.3-1.8-2.4-2.5-3.2v19.5h-3.5v-16.9c-0.8,2.3-1.9,4.9-3.5,7.9l-2.8-2.9c3.1-4.9,5.2-9.5,6.2-13.8h-3.3v-3.5h3.4v-7h3.5v7
				h3.1v3.5h-3.1v1.4C368.7,848.1,370.3,849.8,371.5,851.3z M383.2,857.8c-3.9,6.3-8.1,10.7-12.6,13.1l-2.4-2.9
				c4.5-2,8.5-6.1,12-12.2L383.2,857.8z M383.1,846c-2.5,4.6-5.9,8.7-10,12.1l-2.6-2.5c3.3-2.5,6.5-6.3,9.6-11.5L383.1,846z
				 M382.5,835.9c-3.3,4.7-6.4,8.2-9.4,10.4l-2.4-2.7c3.5-2.7,6.4-5.9,8.7-9.6L382.5,835.9z"/>
			<path fill="#005FA3" d="M412.3,837.2c-4.2,1.2-8.9,2-13.9,2.4v2.4h12.1v10.4h-12.2c0,8.4-0.9,14.6-2.8,18.6l-3.2-2.4
				c1.7-3.7,2.6-9.2,2.6-16.6v-15.6c6.4-0.2,11.5-1,15.3-2.4L412.3,837.2z M407.1,849.2v-4h-8.7v4H407.1z M410.9,870.2h-3.4V868
				h-4.7v2.2h-3.4v-15h11.5V870.2z M407.5,864.8v-6.3h-4.7v6.3H407.5z M429.4,867.9l-2.3,3.1c-3.1-2.1-5.3-4.1-6.6-6
				c-2,2.4-4.2,4.3-6.5,5.8l-2.4-2.9c3-1.8,5.2-3.8,6.8-6c-1.2-2.5-2.2-5.5-3-8.9l3.2-1.3c0.7,2.7,1.3,4.8,1.8,6.1
				c1.6-3.6,2.3-8.3,2.4-14.1h-4.3c-1.3,4.5-2.8,8-4.5,10.4l-2.6-2.5c2.8-4.6,4.5-10.5,5.2-17.6l3.7,0.5c-0.2,1.7-0.5,3.7-1,5.7h9.4
				v3.5h-2.3c-0.3,8.1-1.6,14.2-3.9,18.2C424.2,864.3,426.4,866.3,429.4,867.9z"/>
			<path fill="#666464" d="M455.7,847.8l-10,24.2h-2.8l10-24.2H455.7z"/>
			<path fill="#666464" d="M312.7,888.5c0.4,0.1,0.6,0.2,0.6,0.4c0,0.1-0.1,0.3-0.4,0.6v2.5h9.3v2.3h-9.3v3.8h13v2.5h-13v2.5
				c3.6,1.7,6.7,3.5,9.3,5.4l-1.7,1.8c-2.4-1.6-4.9-3.1-7.6-4.5v8.9h-2.5v-14.2h-10.5V898h10.5v-9.7L312.7,888.5z"/>
			<path fill="#666464" d="M342.1,894.1c0-0.9,0.1-1.9,0.1-3h-5.6v-2.3h8.3c0,2-0.1,3.7-0.1,5.2H355v17.3c0,1.3-0.8,2.2-2.3,2.6
				c-1.2,0.3-2.4,0.5-3.6,0.5l-1-2.7l3-0.1c0.8,0,1.2-0.4,1.2-1.1v-4.1l-1.8,1.9c-2.7-1.9-4.6-3.8-5.8-5.8c-0.3-0.5-0.7-1.1-0.9-1.8
				c0,0.1-0.1,0.1-0.1,0.2c-0.6,1.7-1.7,3.1-3.1,4.4c-1.1,1-2.5,2-4.3,3l-2.3-1.7v7.7h-2.7v-20.3h1.4H342.1z M338.4,904
				c1.4-1,2.3-2.3,2.8-3.9c0.3-0.7,0.5-1.9,0.7-3.5h-7.8v10C336.1,905.7,337.5,904.8,338.4,904z M346.8,901.5
				c1.1,1.6,2.9,3.2,5.5,4.7v-9.6h-7.4C345.3,898.6,345.9,900.2,346.8,901.5z"/>
			<path fill="#666464" d="M367.4,890.4v-2.1l2.3,0.2c0.4,0.1,0.6,0.2,0.6,0.4c0,0.1-0.1,0.3-0.4,0.6v1h7.6v-2.1l2.3,0.2
				c0.4,0.1,0.7,0.2,0.7,0.4c0,0.1-0.2,0.3-0.5,0.6v1h4.6v2.3H380v8.7h6.3v2.3h-6.5c0.6,0.8,1.3,1.5,2.1,2.1c1.4,1,3.2,2,5.5,2.8
				l-2.5,1.9c-1.7-0.8-3.1-1.6-4.3-2.6c-0.3-0.2-0.6-0.5-0.9-0.8v1.8h-4.9v2.7h9.5v2.3H363v-2.3h9.4v-2.7h-4.9v-1.7
				c-0.1,0.1-0.1,0.1-0.2,0.1c-1.3,1-3,2.1-5.2,3.2l-2.3-2c2.2-0.9,4.1-1.8,5.6-2.9c0.7-0.5,1.5-1.1,2.4-2H361v-2.3h6.5v-8.7H363
				v-2.3H367.4z M372.4,906.6v-2.5l2.3,0.2c0.4,0.1,0.6,0.2,0.6,0.4c0,0.1-0.2,0.3-0.5,0.5v1.4h4.5c-0.9-0.9-1.7-1.9-2.4-3h-6.2
				c-1,1.3-1.9,2.3-2.7,3H372.4z M377.5,894.2v-1.6h-7.6v1.6H377.5z M377.5,897.7v-1.6h-7.6v1.6H377.5z M377.5,901.3v-1.7h-7.6v1.7
				H377.5z"/>
			<path fill="#666464" d="M402.2,893.1v2.4h-11.3v-2.4H402.2z M401.3,905.3v9.3h-2.5v-1.2h-4.5v1.2h-2.5v-9.3H401.3z M401.2,897.3
				v2.1H392v-2.1H401.2z M401.2,901.3v2.1H392v-2.1H401.2z M400.6,889.4v2.3h-8v-2.3H400.6z M398.8,911.1v-3.5h-4.5v3.5H398.8z
				 M406.7,889.5c0.3,0.1,0.5,0.2,0.5,0.3c0,0.2-0.2,0.4-0.5,0.6c-0.1,2.8-0.1,5.4-0.1,7.8c0,2.6-0.1,4.9-0.2,6.8
				c-0.1,1.5-0.2,3-0.5,4.4c-0.2,1.2-0.5,2.5-0.8,3.7l-2.6-1.1c0.4-1.1,0.7-2.2,1-3.4c0.3-1.2,0.4-2.6,0.5-4.1
				c0.1-1.6,0.2-3.6,0.2-6.3v-8.9L406.7,889.5z M411.1,890.9c0.4,0,0.6,0.1,0.6,0.3c0,0.1-0.1,0.4-0.4,0.7v18.3h-2.4v-19.4
				L411.1,890.9z M415.9,889.2c0.4,0,0.6,0.1,0.6,0.3c0,0.1-0.2,0.3-0.5,0.6v24.1h-2.5V889L415.9,889.2z"/>
			<path fill="#666464" d="M428.3,889.5c0.3,0.1,0.4,0.3,0.4,0.4c0,0.2-0.1,0.4-0.4,0.6l-3,3.6c0.6,0.4,1.2,0.8,1.8,1.2l2-2.8
				l1.9,1.2c0.2,0.1,0.3,0.3,0.3,0.5c0,0.2-0.2,0.3-0.5,0.3l-4.7,6c1.2-0.1,2.4-0.2,3.6-0.3c-0.2-0.6-0.4-1.1-0.6-1.6l2-0.5
				c0.5,1.2,0.9,2.3,1.2,3.4V895h6.2v-2.3h-7v-2.1h7v-2.1l2.2,0.2c0.4,0,0.6,0.1,0.6,0.3c0,0.1-0.2,0.4-0.5,0.7v0.9h6.7v2.1h-6.7
				v2.3h6v9.5h-5.3c1.7,2.8,3.7,5.3,6.2,7.4l-2.3,1.8c-1.7-1.9-3.3-4.1-4.6-6.6v7.5h-2.4V907c-0.6,1.2-1.1,2.2-1.6,3
				c-0.9,1.3-2.1,2.6-3.6,4.1l-2.3-2c1.6-1.1,2.9-2.4,4-3.7c0.7-0.8,1.5-2,2.4-3.8h-5.2v-1l-1.6,0.3c-0.1-0.5-0.3-1-0.4-1.5
				c-0.7,0.1-1.4,0.2-2.2,0.3v12.1h-2.3v-11.8c-1,0.1-2.1,0.3-3.2,0.4c-0.2,0.3-0.4,0.5-0.5,0.5s-0.3-0.1-0.3-0.4l-0.5-2.3
				c0.7,0,1.4-0.1,2.1-0.1l2.5-3.5c-1.6-1.1-3-2.1-4.3-2.9l1.4-1.8c0.2,0.1,0.4,0.3,0.7,0.4l3.1-4.3L428.3,889.5z M424.5,905.4
				c0.3,0,0.4,0.1,0.4,0.3c0,0.1-0.1,0.3-0.3,0.5c-0.1,2-0.2,3.5-0.3,4.4c-0.1,0.7-0.3,1.4-0.5,2.1l-2.4-0.4
				c0.3-0.8,0.4-1.5,0.5-2.1c0.2-1,0.3-2.7,0.4-4.9L424.5,905.4z M431.8,910.8l-2.2,0.4c-0.3-2-0.8-3.8-1.2-5.5l2.2-0.5
				C431.1,907.2,431.6,909.1,431.8,910.8z M438.4,897h-3.9v5.4h3.9V897z M437.9,901.7L436,902c-0.3-1.3-0.6-2.6-1-3.7l1.9-0.4
				C437.3,899.2,437.7,900.4,437.9,901.7z M444.5,897h-3.7v5.4h3.7V897z M443.9,898.3c0.2,0.1,0.3,0.1,0.3,0.3
				c0,0.1-0.1,0.4-0.3,0.7l-1.2,2.7l-1.5-0.2c0.3-1,0.6-2.3,0.9-3.9L443.9,898.3z"/>
			<path fill="#666464" d="M460.5,896.1c-1.2,0.7-2.8,1.5-4.9,2.5h5l-1.5-0.9c1.9-0.5,3.2-1,4-1.4c1.2-0.5,2.2-1.2,3-1.9
				c0.6-0.6,1-1.2,1.2-2.1h-3.5c-0.8,0.7-1.5,1.3-2.4,1.9l-2.3-1.2c2.2-1.3,3.9-3,5.3-4.9l2.1,0.7c0.3,0.1,0.4,0.2,0.4,0.3
				c0,0.1-0.1,0.2-0.2,0.3c-0.2,0.1-0.5,0.3-1,0.8h9.1l0.7-0.3c0.2,0,0.4,0.1,0.6,0.2l1.3,0.9c0.2,0.1,0.3,0.3,0.3,0.4
				c0,0.2-0.2,0.5-0.6,0.7l-2.7,3.3l-2.1-0.8l1.6-2.3h-3.6c-0.1,0.1-0.2,0.2-0.3,0.2c-0.1,0.3-0.3,0.6-0.4,0.9
				c0.7,0.8,1.5,1.5,2.4,2c1.1,0.6,3.1,1.3,6,2.1l-2.5,2c-0.4-0.1-0.8-0.3-1.2-0.5v11.7h-5.2c2.4,0.8,5.3,1.3,8.7,1.8l-2.1,2.2
				c-3.8-0.9-6.9-1.9-9.5-3l0.9-1h-5.3l1.1,0.9c0.1,0.1,0.2,0.3,0.2,0.4c0,0.1-0.2,0.2-0.6,0.3c-3.3,1.1-6.4,1.9-9.3,2.5l-2.1-1.9
				c3.4-0.5,6.3-1.2,8.8-2.1h-5v-12c-0.7,0.3-1.4,0.6-2.1,1c-0.2,0.3-0.4,0.5-0.5,0.5c-0.2,0-0.3-0.1-0.3-0.4l-0.6-2.4
				c3-0.7,6-1.8,8.8-3.3V896.1z M459.5,891.7l-1.6,1.7c-1.7-1.2-3.5-2.2-5.4-3.2l1.7-1.7C456.2,889.6,458,890.6,459.5,891.7z
				 M471.9,902.1v-1.5h-14v1.5H471.9z M471.9,905.4v-1.4h-14v1.4H471.9z M471.9,907.2h-14v1.5h14V907.2z M473.5,898.6
				c-1.5-0.6-2.6-1.3-3.3-1.9c-0.6-0.4-1.1-1-1.6-1.6c-0.3,0.3-0.5,0.6-0.8,0.8c-0.7,0.6-1.5,1.1-2.5,1.6c-0.6,0.3-1.5,0.6-2.6,1
				H473.5z"/>
			<path fill="#666464" d="M488,899l-1.7,1.8c-1.4-1.1-2.9-2.1-4.5-2.9l1.8-1.8C485.4,896.9,486.8,897.9,488,899z M488.5,904.6
				c-1.2,3-2.6,5.8-4,8.4c0,0.6-0.2,0.9-0.6,0.9l-2.1-1.8c1.9-2.8,3.6-5.9,5.1-9.4L488.5,904.6z M489,892.3l-1.7,1.8
				c-1.3-1.1-2.8-2.1-4.3-3.1l1.8-1.8C486.4,890.2,487.8,891.2,489,892.3z M497.1,902v-3.2l2.4,0.2c0.4,0,0.7,0.1,0.7,0.3
				c0,0.2-0.1,0.4-0.4,0.7v1.9h8v2.4h-7.4c1.2,1.3,2.3,2.4,3.3,3.2c1.3,0.9,3,1.8,5.1,2.7l-2.4,2.5c-1.9-1.1-3.5-2.3-4.8-3.5
				c-0.7-0.6-1.3-1.3-1.9-2.1v7.3h-2.6v-7.7c-0.4,0.5-0.8,1-1.2,1.4c-1.2,1.4-3,2.9-5.2,4.6l-2.6-1.9c2.3-1.3,4.2-2.6,5.6-3.9
				c0.9-0.8,1.8-1.6,2.7-2.5h-6.7V902H497.1z M508,889.5v5.5h-2.6v-3.3h-2.8v4.7c0,0.8,0.3,1.1,0.9,1.1h0.5c0.5,0,0.9-0.1,1.2-0.3
				c0.2-0.1,0.4-0.6,0.7-1.4l2.5,0.7c-0.3,1.3-0.7,2.1-1.3,2.5c-0.6,0.4-1.4,0.6-2.3,0.6h-1.8c-1.9,0-2.8-0.7-2.8-2v-6h-2.3
				c-0.2,2-0.6,3.6-1.3,4.6c-0.8,1.3-2.5,2.5-5.2,3.6l-1.7-1.9c2.2-0.8,3.7-1.6,4.4-2.6c0.6-0.8,1-2,1.2-3.7h-2.9v3.4h-2.6v-5.6H508
				z"/>
			<path fill="#666464" d="M521.8,893.1v2.3h-9.3v-2.3H521.8z M521.2,897v2.1H513V897H521.2z M521.2,900.9v2.1H513v-2.1H521.2z
				 M521.4,904.8v9.3H519v-1.2h-3.6v1.7H513v-9.7H521.4z M520.9,889.4v2.1h-7.8v-2.1H520.9z M519,910.7v-3.6h-3.6v3.6H519z
				 M525.9,890.5v-1.9l2.3,0.2c0.4,0.1,0.7,0.2,0.7,0.4c0,0.1-0.2,0.3-0.5,0.5v0.8h3.7v-1.9l2.3,0.2c0.4,0.1,0.7,0.2,0.7,0.4
				c0,0.1-0.2,0.3-0.5,0.5v0.8h3.5v2.1h-3.5v1.5h3.2v2h-3.2v1.5h4v2.3h-7v1.4h6.3v7.1h1v2.1h-1v1.7c0,1.2-0.7,2-1.9,2.4
				c-1,0.3-2,0.4-3,0.4l-1-2.5l2.5-0.1c0.7,0,1-0.4,1-1.1v-0.9h-10v4h-2.5v-4h-1v-2.1h1v-7.1h6.2v-1.4h-7v-2.3h3.8v-1.5h-3v-2h3
				v-1.5h-3.6v-2.1H525.9z M529.1,904.8v-1.5h-3.7v1.5H529.1z M529.1,908.3v-1.5h-3.7v1.5H529.1z M532.1,892.6h-3.7v1.5h3.7V892.6z
				 M532.1,896.1h-3.7v1.5h3.7V896.1z M531.6,904.8h3.8v-1.5h-3.8V904.8z M531.6,908.3h3.8v-1.5h-3.8V908.3z"/>
			<path fill="#666464" d="M550.8,888.9c0.3,0.1,0.4,0.2,0.4,0.3c0,0.2-0.1,0.4-0.4,0.6l-1.2,2.5h4.3v8h-7.5v2.7h7.8v10h-2.5v-1.5
				h-5.3v2.7h-2.5v-21.9h3.1l1.7-4L550.8,888.9z M551.3,898v-3.5h-5v3.5H551.3z M551.7,909.2v-4h-5.3v4H551.7z M569,890.4v2.4h-5.9
				v4h5.1v12.2c0,1.2-0.5,2.1-1.4,2.4c-0.8,0.3-1.5,0.4-2.2,0.4l-1-2.5l1.5-0.1c0.4,0,0.6-0.4,0.6-1.1v-9h-2.6v15.5h-2.6v-15.5h-2.6
				v12.5h-2.5v-14.9h5.1v-4h-5.8v-2.4H569z"/>
		</g>
		<g>
			<path fill="#005FA3" d="M672.1,840.2h-8.8v3.1h7.9v3.1h-19.2v-3.1h7.7v-3.1h-8.7V837h8.7v-3.1h3.6v3.1h8.8V840.2z M672.3,865
				c-5.7,1.9-12.5,3.7-20.4,5.2l-0.8-3.3c1.4-0.2,3.3-0.6,5.7-1.1c-0.6-2.1-1.3-4-2.1-5.7l2.8-1.5H653v-9.7h17.2v9.7h-4.1l2.7,1.3
				c-0.3,1-0.7,2.1-1.3,3.2c1.5-0.4,3-0.8,4.7-1.4L672.3,865z M666.6,855.4v-3.6h-9.9v3.6H666.6z M665.4,858.5H658
				c0.8,1.8,1.5,4,2.3,6.4l2.7-0.6C663.9,862.6,664.8,860.7,665.4,858.5z M687.7,856.6c-3.2,5.5-8,10.1-14.5,13.7l-2.7-2.8
				c6.6-3.6,11.2-7.8,13.9-12.6L687.7,856.6z M687.2,845.1c-3,4.9-7.4,9-13.2,12.1l-2.3-2.9c5.4-3,9.6-6.7,12.6-11.2L687.2,845.1z
				 M686.3,835.2c-2.4,3.8-6.4,7.3-11.9,10.6l-2.5-2.9c5.1-2.7,8.8-5.9,11.1-9.5L686.3,835.2z"/>
			<path fill="#005FA3" d="M704,857.6c-1.3,4.3-3,8.2-5.2,11.6l-2.7-2.2c1.8-2.9,3.4-6.5,4.7-10.8L704,857.6z M717.5,843.7l-2.5,2.5
				c-0.7-0.8-1.3-1.4-1.6-1.8v3.1h-4.4v3.6h7.1v3.4h-7.1v12.5c0,2.2-1.5,3.3-4.5,3.3c-0.6,0-1.1,0-1.5-0.1l-1.4-3.5
				c0.6,0,1.6,0,2.9,0c0.7,0,1-0.3,1-0.9v-11.3h-7.8v-3.4h7.8v-3.6h-3.9v-1.7c-1,0.9-2.1,1.8-3.3,2.7l-2-2.9c4-3.1,7.4-7.1,10-11.9
				l3.4,1c-0.1,0.3-0.3,0.7-0.6,1.2C712.8,838.9,715.6,841.5,717.5,843.7z M713,844c-1.2-1.2-3-3-5.6-5.2c-0.9,1.4-2.3,3.2-4.1,5.2
				H713z M717.1,864.6l-3.1,1.3c-1-3.1-2-5.8-3.3-8.2l3-1.5C715.2,859.1,716.3,861.9,717.1,864.6z M733.3,867.7l-2.1,2.9
				c-3.2-2.2-5.6-4.1-7.1-5.7c-2.6,2.4-5.2,4.4-7.8,5.8l-2.5-2.7c3.4-1.9,6.1-3.9,8-5.9c-2.1-3.3-3.6-7.1-4.4-11.6h-1v-3.5h5.1v-13
				h3.5v4.8h7.9v3.4H725v4.8h7.2c-1.4,6.8-3.3,11.8-5.9,15.1C727.8,863.9,730.1,865.8,733.3,867.7z M727.8,850.5h-6.9
				c0.6,3.4,1.7,6.3,3.2,8.7C725.7,856.9,726.9,854,727.8,850.5z"/>
			<path fill="#005FA3" d="M756.5,865.1h-3.6v-2.4h-5.8v3.4h-3.6v-30.3h13V865.1z M752.9,847.4v-8.1h-5.8v8.1H752.9z M752.9,859.2
				v-8.3h-5.8v8.3H752.9z M777.7,865.8c0,1.4-0.2,2.3-0.6,2.9c-0.4,0.6-0.9,1-1.6,1.2c-0.6,0.2-1.9,0.3-3.7,0.3
				c-1.2,0-2.4,0-3.5-0.1l-1.3-3.7c2.2,0.1,4.1,0.1,5.5,0.1c0.9,0,1.4-0.4,1.4-1.2v-7.8h-9.7c-0.6,5.5-2.1,9.9-4.5,13l-3.1-2.2
				c2.7-3.9,4.1-9.1,4.1-15.4v-18.1h17V865.8z M773.9,844.1v-5.7h-9.5v5.7H773.9z M773.9,853.9v-6.1h-9.5v6.1H773.9z"/>
			<path fill="#666464" d="M805.5,847.3l-10,24.2h-2.8l10-24.2H805.5z"/>
			<path fill="#666464" d="M654.9,895.4c0,1,0,1.9-0.1,2.7h20.8v2.5h-9.9c0.7,2.2,1.6,4.1,2.8,5.5c1.6-1.3,2.9-2.6,4.1-4l2,1.9
				c0.1,0.1,0.2,0.3,0.2,0.4c0,0.2-0.3,0.3-0.9,0.3c-1.2,1.1-2.5,2.1-3.8,3.1c1.4,1.5,3.5,3,6.1,4.4l-2.6,2.1c-2.1-1.6-3.7-3-5-4.3
				c-1.4-1.5-2.5-3.1-3.3-4.6c-0.7-1.2-1.3-2.7-1.9-4.8H660v9.2c1.5-0.4,3-0.9,4.5-1.4v2.4c-2,0.8-5.1,1.8-9.3,3.1
				c-0.2,0.3-0.4,0.5-0.6,0.5c-0.2,0-0.3-0.2-0.3-0.5l-0.7-2.8c1.3-0.2,2.5-0.4,3.7-0.7v-9.8h-2.7c-0.1,1.8-0.3,3.5-0.6,5.1
				c-0.4,2.3-1.2,5.1-2.3,8.6l-2.5-1.2c1.1-3,1.9-5.6,2.3-7.9c0.6-3.3,0.9-6.5,0.9-9.7v-6.7h22.3v2.4h-19.8V895.4z M671.4,893.4v2.3
				h-14v-2.3H671.4z"/>
			<path fill="#666464" d="M683.8,894v-5.8l2.4,0.2c0.3,0.1,0.5,0.2,0.5,0.3c0,0.2-0.2,0.4-0.5,0.5c-0.1,1.7-0.1,3.2-0.1,4.6h5.3
				V910c0,0.8,1.7,1.2,5.3,1.2h5.4c0.4,0,0.7-0.1,1-0.2c0.3-0.2,0.6-0.9,1-2.3l2.4,0.8c-0.5,1.8-1,2.9-1.5,3.3
				c-0.6,0.4-1.4,0.6-2.5,0.6h-5.9c-5,0-7.5-1-7.5-2.9v-14.2h-2.8c0,2.9-0.2,5.4-0.4,7.7c-0.3,1.8-0.7,3.5-1.2,5.2
				c-0.5,1.4-1.2,2.9-2.2,4.4l-2.6-1.1c1-1.3,1.8-2.7,2.3-4.2c0.6-1.4,1-3.1,1.3-4.9c0.3-1.8,0.4-4.2,0.4-7.1h-3.5V894H683.8z
				 M703.9,890v17.7h-10.2V890H703.9z M701.5,897.4v-5.1h-5.4v5.1H701.5z M701.5,899.6h-5.4v5.8h5.4V899.6z"/>
			<path fill="#666464" d="M716.4,899l-1.7,1.8c-1.4-1.2-2.8-2.3-4.4-3.3l1.8-1.8C713.8,896.8,715.3,897.9,716.4,899z M717.9,905.8
				c-1.5,2.6-3.1,5.1-4.7,7.3c0,0.6-0.2,0.9-0.5,0.9l-2.2-1.8c2.2-2.5,4.1-5.3,5.9-8.4L717.9,905.8z M718.7,891.3l-1.7,1.8
				c-1.4-1.2-2.9-2.3-4.5-3.3l1.8-1.8C716,889.1,717.5,890.2,718.7,891.3z M725.8,893v-5l2.4,0.2c0.4,0.1,0.7,0.2,0.7,0.4
				c0,0.1-0.2,0.4-0.5,0.7v3.7h6.3v2.4h-6.3v4.6h7.9v2.4h-18.4V900h7.9v-4.6h-6.2V893H725.8z M727.2,903.8c0.3,0.1,0.5,0.2,0.5,0.3
				c0,0.2-0.2,0.3-0.5,0.6c-0.8,1.9-1.8,3.6-2.9,5.2c2.3-0.2,4.6-0.5,6.9-0.8c-0.7-1-1.4-2-2.2-2.9l1.8-1.5c1.9,2,3.9,4.6,5.8,7.8
				l-2.4,1.6c-0.5-1-1.1-2-1.6-2.8c-2.9,0.5-7.1,1-12.7,1.7c-0.2,0.3-0.4,0.5-0.5,0.5c-0.2,0-0.3-0.2-0.3-0.5l-0.7-2.8
				c0.9-0.1,1.8-0.1,2.7-0.2c1.7-2,3-4.4,4.1-7.1L727.2,903.8z"/>
			<path fill="#666464" d="M748.8,896.2c0.2,0.1,0.4,0.2,0.4,0.3c0,0.3-0.2,0.5-0.7,0.7c-0.6,0.9-1.1,1.6-1.6,2.3v14.6h-2.5v-11.7
				c-0.7,0.7-1.4,1.4-2.3,2.1l-1.8-1.8c1.4-1.1,2.5-2.3,3.5-3.5c0.9-1,1.8-2.4,2.7-4L748.8,896.2z M749,889.1
				c0.2,0.1,0.4,0.2,0.4,0.3c0,0.3-0.2,0.5-0.7,0.7c-1.1,1.7-2.1,3.1-3,4.1c-0.9,1-1.9,2.1-3.2,3.2l-1.8-1.8
				c1.4-1.2,2.5-2.3,3.5-3.5c0.9-1.1,1.8-2.4,2.6-4.1L749,889.1z M756.4,890.3v-2.4l2.4,0.2c0.5,0.1,0.7,0.2,0.7,0.4
				c0,0.1-0.2,0.4-0.5,0.7v1.1h6.5v4.2h1.7v2.4h-1.7v4.3H759v2.3h7v2.4h-7v2.1h7.9v2.4H759v3.7h-2.6v-3.7h-8.4V908h8.4v-2.1h-7.2
				v-2.4h7.2v-2.3h-5.3v-2.3h5.3v-2h-6.5v-2.4h6.5v-1.9h-5.3v-2.3H756.4z M759,894.5h3.8v-1.9H759V894.5z M759,898.9h3.8v-2H759
				V898.9z"/>
			<path fill="#666464" d="M782.9,889.9v-2.1l2.8,0.3c0.3,0.1,0.5,0.2,0.5,0.3c0,0.2-0.2,0.5-0.7,0.8v0.6h10.9v2.1h-10.9v1.4h8.7
				v5.8h-8.7v1.4h9.4v3.7h2.4v2.1h-2.4v4.7h-2.6v-1h-6.8v0.8c0,1.2-0.4,2-1.1,2.5c-0.6,0.6-2.1,0.9-4.6,0.9l-1-2.6h2.6
				c0.9,0,1.4-0.4,1.5-1.2v-0.3h-9.5v-2h9.5v-1.7h-11.5v-2.1h11.5v-1.7h-9.5v-2h9.5v-1.4H774v-5.8h8.8V892h-11v-2.1H782.9z
				 M782.9,895.3h-6.3v1.9h6.3V895.3z M791.7,895.3h-6.2v1.9h6.2V895.3z M785.4,904.2h6.8v-1.7h-6.8V904.2z M785.4,908.1h6.8v-1.7
				h-6.8V908.1z"/>
			<path fill="#666464" d="M812.4,889.3l1.4,0.9c0.2,0.1,0.3,0.2,0.3,0.3c0,0.2-0.2,0.5-0.6,0.7l-4.1,4.3c0.7,0.3,1.3,0.7,1.9,1
				l-1.3,1.2h1.9l0.7-0.2c0.2,0,0.4,0.1,0.7,0.2l1.3,0.9c0.2,0.1,0.3,0.3,0.3,0.4c0,0.2-0.2,0.5-0.5,0.7l-0.2,0.5
				c2.1-0.3,3.6-0.8,4.7-1.3c0.1,0,0.1,0,0.1-0.1c-0.2-0.1-0.3-0.3-0.5-0.5c-0.8-0.9-1.4-1.9-1.9-3c-0.1-0.1-0.1-0.2-0.1-0.3
				c-0.6,0.9-1.2,1.8-1.8,2.6l-2.4-1.4c2-2.2,3.6-4.9,4.9-8l2.2,0.8c0.3,0.1,0.4,0.2,0.4,0.3c0,0.1-0.1,0.2-0.2,0.3
				c-0.2,0.1-0.5,0.5-0.9,1.4h8.8v2.3h-2.1c-0.1,1.7-0.4,2.9-0.9,3.8c-0.3,0.6-0.7,1.2-1.2,1.7c0.2,0.1,0.5,0.2,0.7,0.3
				c1,0.4,2.4,0.8,4.2,1l-2.1,2.4c-1.7-0.5-3.1-1-4.3-1.7c-0.2-0.1-0.5-0.3-0.6-0.4c-1.4,0.8-3.2,1.5-5.6,2.1l-1.6-1.6l-1.2,3.5
				l-2.1-0.8l1.3-3.6h-1.9v11.1c0,1-0.3,1.6-1,2.1c-0.5,0.5-1.9,0.7-4,0.7l-1-2.5h2.2c0.8,0,1.2-0.3,1.3-0.8V903
				c-0.4,1-0.8,1.9-1.1,2.5c-0.7,1.4-1.7,2.8-2.9,4.3l-2.1-1.9c1.3-1.2,2.3-2.5,3.3-4c0.5-0.8,1.2-2.2,1.9-4h-4.6v-2.3h7
				c-1.9-1-3.6-1.9-5.4-2.5l1.7-1.6c0.8,0.3,1.6,0.6,2.3,0.9l2.5-3.1h-7.4v-2.3h8.7l0.7-0.2C812,889.1,812.2,889.1,812.4,889.3z
				 M818.6,903.9c0.1-0.6,0.1-1.3,0.2-2l2.5,0.3c0.3,0,0.5,0.1,0.5,0.3c0,0.3-0.2,0.5-0.6,0.7c-0.1,0.3-0.1,0.5-0.1,0.8h5.6
				c0,3.9-0.2,6.3-0.5,7.4c-0.2,1-0.6,1.7-1.3,2c-0.7,0.4-1.9,0.6-3.5,0.6l-1.2-2.6c1.7,0,2.6-0.1,3-0.3c0.3-0.1,0.5-0.5,0.7-1.1
				c0.2-0.5,0.3-1.7,0.4-3.7h-3.5c-0.1,0.6-0.3,1-0.4,1.4c-0.6,1.7-1.5,3.1-2.6,4.1c-0.9,0.8-2.1,1.6-3.6,2.3l-1.7-2.1
				c1.9-0.7,3.2-1.6,3.9-2.5c0.8-0.8,1.3-1.7,1.7-2.9c0-0.1,0.1-0.2,0.1-0.3h-4v-2.3H818.6z M818.8,895c0.4,0.8,1,1.5,1.8,2.2
				c0.2,0.2,0.3,0.3,0.5,0.4c0.2-0.2,0.4-0.4,0.6-0.6c0.8-0.8,1.2-2,1.3-3.6h-4.8C818.2,893.9,818.5,894.5,818.8,895z"/>
			<path fill="#666464" d="M842.9,890.4c-1.9,0.5-4.2,1-6.7,1.5v2.8h8.5v8.9h-8.6c0,0.6-0.1,1.2-0.1,1.6c-0.2,2-0.5,3.9-1,5.7
				c-0.3,1.1-0.8,2.3-1.4,3.6l-2.3-1.5c0.4-0.9,0.8-1.7,1-2.3c0.4-1.3,0.7-2.5,0.9-3.9c0.2-2,0.4-4.9,0.4-8.7V889l2,0.7
				c1.1-0.1,2.1-0.3,3.1-0.6c1.4-0.3,2.8-0.8,4-1.4l1.8,1.9c0.2,0.2,0.3,0.4,0.3,0.6c0,0.1-0.1,0.2-0.2,0.2l-0.7-0.2
				C843.7,890.2,843.3,890.3,842.9,890.4z M842.2,901.5v-4.6h-6v1.5c0,1.2,0,2.2,0,3.2H842.2z M855.5,890.3c-2,0.5-4.4,1-7,1.5v4.6
				h9.7v2.4h-3.1v15.3h-2.6v-15.3h-4.1c-0.1,2.3-0.1,4.3-0.3,5.8c-0.3,2.2-0.9,4.3-1.7,6.2c-0.5,1.2-1.4,2.5-2.4,3.9l-2.3-1.5
				c0.8-1,1.4-1.8,1.8-2.4c0.8-1.4,1.3-2.8,1.7-4.2c0.5-2.1,0.7-5.2,0.7-9.4V889l1.7,0.6c1.2-0.2,2.4-0.4,3.6-0.6
				c1.5-0.3,3-0.8,4.3-1.4l1.7,1.9c0.2,0.2,0.3,0.4,0.3,0.6c0,0.1-0.1,0.2-0.2,0.2l-0.7-0.2C856.4,890.1,856.1,890.2,855.5,890.3z"
				/>
			<path fill="#666464" d="M884.3,890.4c-1.9,0.5-4.2,1-6.7,1.5v2.8h8.5v8.9h-8.6c0,0.6-0.1,1.2-0.1,1.6c-0.2,2-0.5,3.9-1,5.7
				c-0.3,1.1-0.8,2.3-1.4,3.6l-2.3-1.5c0.4-0.9,0.8-1.7,1-2.3c0.4-1.3,0.7-2.5,0.9-3.9c0.2-2,0.4-4.9,0.4-8.7V889l2,0.7
				c1.1-0.1,2.1-0.3,3.1-0.6c1.4-0.3,2.8-0.8,4-1.4l1.8,1.9c0.2,0.2,0.3,0.4,0.3,0.6c0,0.1-0.1,0.2-0.2,0.2l-0.7-0.2
				C885.1,890.2,884.8,890.3,884.3,890.4z M883.6,901.5v-4.6h-6v1.5c0,1.2,0,2.2,0,3.2H883.6z M897,890.3c-2,0.5-4.4,1-7,1.5v4.6
				h9.7v2.4h-3.1v15.3H894v-15.3H890c-0.1,2.3-0.1,4.3-0.3,5.8c-0.3,2.2-0.9,4.3-1.7,6.2c-0.5,1.2-1.4,2.5-2.4,3.9l-2.3-1.5
				c0.8-1,1.4-1.8,1.8-2.4c0.8-1.4,1.3-2.8,1.7-4.2c0.5-2.1,0.7-5.2,0.7-9.4V889l1.7,0.6c1.2-0.2,2.4-0.4,3.6-0.6
				c1.5-0.3,3-0.8,4.3-1.4l1.7,1.9c0.2,0.2,0.3,0.4,0.3,0.6c0,0.1-0.1,0.2-0.2,0.2l-0.7-0.2C897.9,890.1,897.5,890.2,897,890.3z"/>
			<path fill="#666464" d="M927.7,890.8h-16.1v1.9H927v2.2h-15.4v2H927v2.1h-15.4v2.1h18.2v2.3h-11.7c1,1.5,2,2.8,3.2,3.9
				c0.1,0.1,0.1,0.1,0.2,0.2c1.4-1.2,2.7-2.3,3.8-3.5l1.8,1.9c0.1,0.1,0.2,0.3,0.2,0.4c0,0.2-0.3,0.2-0.8,0.2
				c-1,0.8-2.1,1.6-3.2,2.3c0.8,0.5,1.6,0.9,2.5,1.2c1.7,0.7,3.4,1.1,5.1,1.3l-2.3,2.7c-0.7,0-2.1-0.5-4.1-1.5
				c-2.3-1.1-4-2.3-5.1-3.5c-1.5-1.4-2.8-3.3-4.1-5.6h-4.1v6.6c2.4-0.3,4.7-0.7,7-1.1v2.1c-2.6,0.5-6.7,1.2-12.3,2.1
				c-0.2,0.3-0.4,0.5-0.5,0.5s-0.3-0.1-0.3-0.4l-0.6-2.5c1.4-0.1,2.8-0.2,4.2-0.4v-6.9h-4.7v-2.3h5v-12.6h18.7V890.8z"/>
		</g>
		<line fill="none" stroke="#666464" stroke-miterlimit="10" x1="604.1" y1="832.1" x2="604.1" y2="917.1"/>
		<g>
			<path fill="#666464" d="M319.1,637.4c0,5.2-1,9.1-2.9,11.7c-1.9,2.6-4.9,3.9-8.8,3.9c-3.9,0-6.8-1.3-8.8-3.8c-2-2.6-3-6.4-3-11.4
				v-6.2c0-5.2,1-9.1,2.9-11.6c1.9-2.6,4.9-3.9,8.9-3.9c3.9,0,6.9,1.3,8.8,3.8c1.9,2.5,2.9,6.3,3,11.3V637.4z M313.1,630.6
				c0-3.4-0.5-5.9-1.4-7.4c-0.9-1.6-2.4-2.4-4.4-2.4c-2,0-3.4,0.7-4.3,2.2c-0.9,1.5-1.4,3.8-1.5,7v8.2c0,3.4,0.5,5.9,1.4,7.5
				s2.4,2.5,4.4,2.5c1.9,0,3.4-0.8,4.3-2.3c0.9-1.5,1.4-3.9,1.5-7.2V630.6z"/>
			<path fill="#666464" d="M346,639.7h4.5v4.8H346v8h-6v-8h-15.6l-0.2-3.7l15.5-24.3h6.2V639.7z M330.6,639.7h9.4v-15l-0.4,0.8
				L330.6,639.7z"/>
			<path fill="#666464" d="M372.1,655.6h-5.9l12.3-39.1h5.9L372.1,655.6z"/>
			<path fill="#666464" d="M426.8,652.5h-24.2v-4.1l12-13.1c1.7-1.9,3-3.5,3.7-4.8c0.7-1.3,1.1-2.6,1.1-3.9c0-1.7-0.5-3.1-1.4-4.2
				c-1-1.1-2.3-1.6-3.9-1.6c-1.9,0-3.5,0.6-4.5,1.8c-1.1,1.2-1.6,2.8-1.6,4.9h-6c0-2.2,0.5-4.2,1.5-5.9c1-1.8,2.4-3.1,4.3-4.1
				s4-1.5,6.4-1.5c3.5,0,6.3,0.9,8.3,2.6c2,1.8,3,4.2,3,7.3c0,1.8-0.5,3.7-1.5,5.7c-1,2-2.7,4.2-5,6.7l-8.8,9.4h16.7V652.5z"/>
			<path fill="#666464" d="M448.9,652.5h-6v-28.9l-8.8,3v-5l14-5.2h0.8V652.5z"/>
			<path fill="#666464" d="M482.2,657.7c-1.8-3.1-3.2-6.6-4.3-10.6c-1.1-4-1.6-7.6-1.6-11.1c0-3.4,0.5-7.1,1.6-11
				c1.1-3.9,2.5-7.4,4.3-10.6h6.1c-4.2,8.5-6.2,15.7-6.2,21.7c0,6,2.1,13.2,6.2,21.6H482.2z"/>
			<path fill="#666464" d="M556.8,648.9v5.9h-42.7v-5.9H556.8z M554.4,614.3v5.9h-38v-5.9H554.4z M552.3,631.1v5.9h-33.7v-5.9H552.3
				z"/>
			<path fill="#666464" d="M593,647.1c-1.1,4-2.5,7.4-4.3,10.6h-6.1c4.2-8.5,6.2-15.6,6.2-21.6c0-6-2.1-13.2-6.2-21.7h6.1
				c1.8,3.1,3.2,6.7,4.3,10.6c1.1,4,1.6,7.6,1.6,11C594.6,639.5,594,643.2,593,647.1z"/>
			<path fill="#666464" d="M622.7,652.5h-3.4V636l-5,1.7v-2.9l8-3h0.4V652.5z"/>
			<path fill="#666464" d="M634.6,640.7h2.1c1.1,0,1.9-0.3,2.5-0.8s0.9-1.3,0.9-2.3c0-1-0.3-1.7-0.8-2.3c-0.5-0.5-1.3-0.8-2.4-0.8
				c-0.9,0-1.7,0.3-2.3,0.8c-0.6,0.5-0.9,1.2-0.9,2.1h-3.4c0-1.1,0.3-2,0.8-2.9c0.6-0.9,1.3-1.5,2.3-2c1-0.5,2.1-0.7,3.4-0.7
				c2.1,0,3.7,0.5,4.8,1.5s1.8,2.5,1.8,4.3c0,0.9-0.3,1.8-0.9,2.6c-0.6,0.8-1.3,1.4-2.3,1.8c1.1,0.4,2,1,2.6,1.8
				c0.6,0.8,0.9,1.8,0.9,3c0,1.8-0.6,3.3-1.9,4.4c-1.3,1.1-2.9,1.6-5,1.6c-2,0-3.6-0.5-4.9-1.6s-1.9-2.5-1.9-4.2h3.4
				c0,0.9,0.3,1.6,0.9,2.2c0.6,0.6,1.4,0.8,2.5,0.8c1.1,0,1.9-0.3,2.5-0.8c0.6-0.6,0.9-1.4,0.9-2.5c0-1.1-0.3-1.9-1-2.5
				s-1.6-0.9-2.9-0.9h-2V640.7z"/>
			<path fill="#666464" d="M650.1,636.9c0.6,0,1.1,0.2,1.5,0.5c0.3,0.4,0.5,0.8,0.5,1.4c0,0.5-0.2,1-0.5,1.3
				c-0.3,0.4-0.8,0.5-1.5,0.5c-0.6,0-1.1-0.2-1.5-0.5c-0.4-0.3-0.5-0.8-0.5-1.3c0-0.5,0.2-1,0.5-1.4
				C648.9,637.1,649.4,636.9,650.1,636.9z M650.1,648.9c0.6,0,1.1,0.2,1.5,0.5c0.3,0.4,0.5,0.8,0.5,1.4c0,0.5-0.2,1-0.5,1.3
				c-0.3,0.4-0.8,0.5-1.5,0.5c-0.6,0-1.1-0.2-1.5-0.5c-0.4-0.3-0.5-0.8-0.5-1.3c0-0.5,0.2-1,0.5-1.4S649.4,648.9,650.1,648.9z"/>
			<path fill="#666464" d="M660.1,640.7h2.1c1.1,0,1.9-0.3,2.5-0.8s0.9-1.3,0.9-2.3c0-1-0.3-1.7-0.8-2.3c-0.5-0.5-1.3-0.8-2.4-0.8
				c-0.9,0-1.7,0.3-2.3,0.8c-0.6,0.5-0.9,1.2-0.9,2.1h-3.4c0-1.1,0.3-2,0.8-2.9c0.6-0.9,1.3-1.5,2.3-2c1-0.5,2.1-0.7,3.4-0.7
				c2.1,0,3.7,0.5,4.8,1.5s1.8,2.5,1.8,4.3c0,0.9-0.3,1.8-0.9,2.6c-0.6,0.8-1.3,1.4-2.3,1.8c1.1,0.4,2,1,2.6,1.8
				c0.6,0.8,0.9,1.8,0.9,3c0,1.8-0.6,3.3-1.9,4.4c-1.3,1.1-2.9,1.6-5,1.6c-2,0-3.6-0.5-4.9-1.6s-1.9-2.5-1.9-4.2h3.4
				c0,0.9,0.3,1.6,0.9,2.2c0.6,0.6,1.4,0.8,2.5,0.8c1.1,0,1.9-0.3,2.5-0.8c0.6-0.6,0.9-1.4,0.9-2.5c0-1.1-0.3-1.9-1-2.5
				s-1.6-0.9-2.9-0.9h-2V640.7z"/>
			<path fill="#666464" d="M686.7,643.9c0,3-0.6,5.2-1.7,6.7c-1.1,1.5-2.8,2.3-5.1,2.3c-2.2,0-3.9-0.7-5-2.2
				c-1.1-1.5-1.7-3.6-1.7-6.5v-3.6c0-3,0.6-5.2,1.7-6.7c1.1-1.5,2.8-2.2,5.1-2.2c2.3,0,3.9,0.7,5,2.2c1.1,1.4,1.7,3.6,1.7,6.5V643.9
				z M683.3,640c0-1.9-0.3-3.3-0.8-4.2c-0.5-0.9-1.4-1.3-2.5-1.3c-1.1,0-1.9,0.4-2.5,1.3c-0.5,0.9-0.8,2.2-0.8,4v4.7
				c0,1.9,0.3,3.4,0.8,4.3c0.5,0.9,1.4,1.4,2.5,1.4c1.1,0,1.9-0.4,2.4-1.3s0.8-2.2,0.8-4.1V640z"/>
			<path fill="#666464" d="M705.3,645.2h-7.4v-2.8h7.4V645.2z"/>
			<path fill="#666464" d="M725.9,652.5h-3.4V636l-5,1.7v-2.9l8-3h0.4V652.5z"/>
			<path fill="#666464" d="M744.4,631.9v2.8H744c-1.9,0-3.5,0.6-4.6,1.6c-1.1,1-1.8,2.5-2,4.4c1.1-1.2,2.5-1.7,4.2-1.7
				c1.8,0,3.3,0.6,4.3,1.9c1.1,1.3,1.6,2.9,1.6,5c0,2.1-0.6,3.8-1.8,5.1c-1.2,1.3-2.8,1.9-4.8,1.9c-2.1,0-3.7-0.8-5-2.3
				c-1.3-1.5-1.9-3.5-1.9-6v-1.2c0-3.6,0.9-6.4,2.6-8.5c1.8-2,4.3-3.1,7.6-3.1H744.4z M740.8,641.7c-0.8,0-1.4,0.2-2.1,0.6
				c-0.6,0.4-1.1,1-1.4,1.7v1c0,1.5,0.3,2.7,1,3.6c0.6,0.9,1.5,1.3,2.5,1.3s1.8-0.4,2.4-1.1c0.6-0.8,0.9-1.8,0.9-3
				c0-1.2-0.3-2.3-0.9-3C742.6,642.1,741.8,641.7,740.8,641.7z"/>
			<path fill="#666464" d="M753.2,636.9c0.6,0,1.1,0.2,1.5,0.5c0.3,0.4,0.5,0.8,0.5,1.4c0,0.5-0.2,1-0.5,1.3
				c-0.3,0.4-0.8,0.5-1.5,0.5c-0.6,0-1.1-0.2-1.5-0.5c-0.4-0.3-0.5-0.8-0.5-1.3c0-0.5,0.2-1,0.5-1.4
				C752.1,637.1,752.6,636.9,753.2,636.9z M753.2,648.9c0.6,0,1.1,0.2,1.5,0.5c0.3,0.4,0.5,0.8,0.5,1.4c0,0.5-0.2,1-0.5,1.3
				c-0.3,0.4-0.8,0.5-1.5,0.5c-0.6,0-1.1-0.2-1.5-0.5c-0.4-0.3-0.5-0.8-0.5-1.3c0-0.5,0.2-1,0.5-1.4S752.6,648.9,753.2,648.9z"/>
			<path fill="#666464" d="M763.3,640.7h2.1c1.1,0,1.9-0.3,2.5-0.8s0.9-1.3,0.9-2.3c0-1-0.3-1.7-0.8-2.3c-0.5-0.5-1.3-0.8-2.4-0.8
				c-0.9,0-1.7,0.3-2.3,0.8c-0.6,0.5-0.9,1.2-0.9,2.1h-3.4c0-1.1,0.3-2,0.8-2.9c0.6-0.9,1.3-1.5,2.3-2c1-0.5,2.1-0.7,3.4-0.7
				c2.1,0,3.7,0.5,4.8,1.5s1.8,2.5,1.8,4.3c0,0.9-0.3,1.8-0.9,2.6c-0.6,0.8-1.3,1.4-2.3,1.8c1.1,0.4,2,1,2.6,1.8
				c0.6,0.8,0.9,1.8,0.9,3c0,1.8-0.6,3.3-1.9,4.4c-1.3,1.1-2.9,1.6-5,1.6c-2,0-3.6-0.5-4.9-1.6s-1.9-2.5-1.9-4.2h3.4
				c0,0.9,0.3,1.6,0.9,2.2c0.6,0.6,1.4,0.8,2.5,0.8c1.1,0,1.9-0.3,2.5-0.8c0.6-0.6,0.9-1.4,0.9-2.5c0-1.1-0.3-1.9-1-2.5
				s-1.6-0.9-2.9-0.9h-2V640.7z"/>
			<path fill="#666464" d="M789.9,643.9c0,3-0.6,5.2-1.7,6.7c-1.1,1.5-2.8,2.3-5.1,2.3c-2.2,0-3.9-0.7-5-2.2
				c-1.1-1.5-1.7-3.6-1.7-6.5v-3.6c0-3,0.6-5.2,1.7-6.7c1.1-1.5,2.8-2.2,5.1-2.2c2.3,0,3.9,0.7,5,2.2c1.1,1.4,1.7,3.6,1.7,6.5V643.9
				z M786.5,640c0-1.9-0.3-3.3-0.8-4.2c-0.5-0.9-1.4-1.3-2.5-1.3c-1.1,0-1.9,0.4-2.5,1.3c-0.5,0.9-0.8,2.2-0.8,4v4.7
				c0,1.9,0.3,3.4,0.8,4.3c0.5,0.9,1.4,1.4,2.5,1.4c1.1,0,1.9-0.4,2.4-1.3s0.8-2.2,0.8-4.1V640z"/>
		</g>
		<g>
			<path fill="#666464" d="M304.6,719.3c0.3,0.1,0.4,0.3,0.4,0.4c0,0.2-0.1,0.5-0.3,0.7c-0.2,0.4-0.3,0.8-0.5,1.1h3v-4.9l3.3,0.3
				c0.6,0,0.9,0.2,0.9,0.5c0,0.2-0.2,0.5-0.6,0.8v3.2h4.9v3.2h-4.9v4.2c1.7-0.4,3.3-0.9,4.9-1.5v2.9c-1.3,0.5-3,1-4.9,1.6v5.7h-3.6
				v-4.6c-2,0.6-4.2,1.2-6.5,1.8c-0.3,0.4-0.6,0.7-0.8,0.7c-0.2,0-0.4-0.2-0.5-0.6l-0.8-3.5c2.9-0.4,5.8-1,8.6-1.7v-5.2h-4.6
				c-0.8,1.5-1.6,2.7-2.4,3.9l-3.2-1.5c2-2.5,3.6-5.5,4.9-9.1L304.6,719.3z M308.9,701.7c0.2,0.1,0.4,0.2,0.4,0.4
				c0,0.3-0.1,0.5-0.3,0.7c-0.2,0.5-0.4,0.9-0.6,1.3h7.3V700l3.3,0.3c0.6,0.1,0.9,0.2,0.9,0.5c0,0.2-0.2,0.5-0.6,0.8v2.5h11v3.2h-11
				v4.1h14.3v3.2h-14.3v4.4h-3.6v-4.4h-16.3v-3.2h16.3v-4.1h-9.1c-0.7,1.1-1.3,2.1-2,2.9l-3.4-1.6c2-2.2,3.5-5,4.7-8.3L308.9,701.7z
				 M323.3,719.1c0.2,0.1,0.4,0.2,0.4,0.4c0,0.2-0.1,0.3-0.3,0.5c-0.2,0.5-0.5,1-0.7,1.5h2.7v-4.7l3.3,0.3c0.6,0,1,0.2,1,0.5
				c0,0.2-0.3,0.5-0.7,0.8v3.1h5.4v3.2h-5.4v4.7h6.7v3.3h-6.7v5h-3.6v-5h-8.1v-3.3h8.1v-4.7h-4.4c-0.6,1-1.2,1.9-1.7,2.6l-3.1-1.5
				c1.9-2.2,3.4-4.8,4.5-7.9L323.3,719.1z"/>
			<path fill="#666464" d="M377.5,701.9v3.6h-10.7v5.2h8.9v15.4h-8.9v5.9h11.6v3.6h-37.1V732h12v-5.9h-9.1v-15.4h9.1v-5.2h-11.2
				v-3.6H377.5z M363.1,732v-9.4h8.9v-8.3h-8.9v-8.8h-6v8.8H348v8.3h9.1v9.4H363.1z"/>
			<path fill="#666464" d="M406.5,700.5c0.4,0.2,0.6,0.4,0.6,0.6c0,0.3-0.2,0.4-0.7,0.5c2.8,1.6,5.4,2.7,7.8,3.4
				c2.1,0.7,5,1.5,8.5,2.1l-2.6,3.6c-3.7-1-6.9-2.1-9.7-3.3c-2.3-1-4.7-2.4-6.9-4c-2,1.2-3.9,2.3-5.8,3.3c-2.4,1.2-5.9,2.6-10.8,4.2
				l-2.9-2.6c4-1.1,7.6-2.3,10.7-3.8c2.9-1.3,5.8-3.1,8.8-5.2L406.5,700.5z M418.6,712.2v11.1h-3.6v-1H392v1h-3.6v-11.1H418.6z
				 M415.4,724.4v13h-3.7v-1.2h-16.1v1.3h-3.7v-13.2H415.4z M395.8,719.3c-0.4-1.2-0.9-2.2-1.4-3.2l2.9-0.7c0.7,1.4,1.2,2.7,1.6,3.9
				h2.6v-4.2H392v4.2H395.8z M411.7,729.3V727h-16.1v2.3H411.7z M411.7,733.6v-2h-16.1v2H411.7z M410.8,707.6v2.6h-14.9v-2.6H410.8z
				 M407.4,719.3l2.1-3.9l2.4,1.2c0.3,0.2,0.5,0.3,0.5,0.5c0,0.3-0.2,0.6-0.6,0.8l-1,1.5h4.2v-4.2h-10.2v4.2H407.4z"/>
			<path fill="#666464" d="M441.7,706.8v3.3h-13.2v-3.3H441.7z M440.7,712.5v3.1h-11.5v-3.1H440.7z M440.7,718v3.1h-11.5V718H440.7z
				 M441,723.6v13.3h-3.4v-1.6h-5v2.3h-3.4v-14H441z M440.5,701.5v3.1h-11.2v-3.1H440.5z M437.6,732.2v-5.4h-5v5.4H437.6z
				 M451.5,719.9c-0.2,0.1-0.5,0.2-0.7,0.2v2.6h3.8c-0.2-1.7-0.3-3.5-0.3-5.5l3.7,0.4c0.6,0.1,0.9,0.3,0.9,0.6
				c0,0.3-0.4,0.8-1.2,1.3c0,1.2,0.1,2.3,0.2,3.2h8v3.1h-7.6c0.1,0.8,0.3,1.6,0.5,2.2c0.2,0.7,0.3,1.2,0.5,1.7c1-1,1.9-2.2,2.7-3.6
				l2.9,1.2c0.2,0.1,0.3,0.3,0.3,0.5c0,0.2-0.3,0.5-0.8,0.7c-1.3,1.8-2.6,3.2-3.7,4.1c0,0,0,0.1,0.1,0.1c0.7,0.8,1.2,1.2,1.8,1.2
				c0.2,0,0.3-0.2,0.4-0.6c0.1-0.4,0.3-1.3,0.4-2.7l3.1,2.2c-0.5,1.7-1,3-1.5,3.5c-0.6,0.8-1.3,1.2-2.2,1.2c-1,0-2.1-0.5-3.2-1.6
				c-0.5-0.5-1-1-1.5-1.6c-0.4,0.2-0.8,0.4-1.2,0.6c-1.2,0.5-2.5,1.1-4,1.6l-2.2-2.2c-0.2,1-0.5,1.7-1.2,2.2c-0.7,0.7-2.5,1-5.2,1
				l-1.3-3.4h2.8c1,0,1.5-0.4,1.6-1.2v-1.7l-3.1,0.5c-0.4,0.7-0.7,1-1,1s-0.4-0.2-0.5-0.6l-1.2-3.1c2-0.3,3.9-0.5,5.8-0.9v-2.6h-5.5
				v-3.1h5.5v-1.8c-1.1,0.2-2.2,0.4-3.2,0.5l-2.1-2.9c1.8-0.1,3.3-0.3,4.6-0.5c1.2-0.2,2.6-0.5,4.3-1.1l2.4,2.2
				c0.2,0.2,0.2,0.3,0.2,0.5c0,0.2-0.2,0.3-0.5,0.3l-0.9-0.2C452,719.8,451.7,719.8,451.5,719.9z M451.9,703.4h4.5l2-3.4l3.2,0.7
				c0.6,0.1,0.9,0.3,0.9,0.7c0,0.3-0.3,0.6-1,1l-0.9,1.1h4.6v3h-9.6v2h8.9v2.7h-8.9v2.1h10.2v3.1H442v-3.1h9.9V711H443v-2.7h8.9v-2
				h-9.6v-3h4.9c-0.6-0.6-1.2-1.2-1.8-1.9l3.4-1.7C450,701.1,451,702.2,451.9,703.4z M454.9,732.8c0.6-0.3,1.2-0.6,1.8-1
				c-0.5-1-0.9-2.2-1.2-3.5c-0.2-0.8-0.4-1.7-0.5-2.6h-4.2v2c1.2-0.2,2.5-0.4,3.7-0.7v3.1l-3.7,0.7v2.9c0,0.3,0,0.5,0,0.6
				C452.4,733.9,453.8,733.4,454.9,732.8z M465.6,720l-2.5,2.3c-1.4-1.5-2.7-2.7-4-3.6l2.2-2.1C462.8,717.5,464.2,718.7,465.6,720z"
				/>
			<path fill="#666464" d="M488.8,708.1V700l3.7,0.3c0.7,0.1,1,0.2,1,0.5c0,0.2-0.3,0.5-0.8,1v6.4h12.9v18.5h-3.9v-2.5h-8.9v13.4
				h-3.9v-13.4H480v2.5h-3.9v-18.5H488.8z M488.8,720.6v-8.9H480v8.9H488.8z M492.7,720.6h8.9v-8.9h-8.9V720.6z"/>
			<path fill="#666464" d="M524.1,714.5c0.4,0.2,0.6,0.4,0.6,0.7c0,0.2-0.5,0.4-1.3,0.6c-0.5,3.7-1.1,6.9-1.7,9.6
				c-0.7,2.6-1.4,4.9-2.2,6.9l-3.7-2.5c1.1-2.3,1.9-4.7,2.6-7.2c0.7-2.3,1.2-5.5,1.8-9.5L524.1,714.5z M530.6,710.8
				c0.5,0.1,0.8,0.3,0.8,0.7c0,0.3-0.3,0.7-0.8,1.2c-0.5,0.3-0.7,0.7-0.7,1.4v15.4c0,1.2,0.2,2.2,0.6,2.8c0.4,0.5,1.2,0.8,2.5,0.8
				h6.7c1.8,0,3.2-0.4,4.1-1.2c1-0.7,1.8-2.9,2.4-6.6l3.7,1.6c-1,4.2-2.1,6.9-3.4,8.1c-1.2,1.1-2.6,1.6-4.3,1.6h-10.9
				c-1.8,0-3.2-0.6-4.1-1.7c-0.8-1.1-1.2-2.5-1.2-4.5v-20.3L530.6,710.8z M540.9,711.5l-2.5,2.6c-3.4-3.7-7.2-7.1-11.2-10.1l2.6-2.6
				C534.2,704.6,537.9,708,540.9,711.5z M553.7,724.2l-2.6,2.8c-2.8-4.5-5.8-8.5-9.1-12.2l2.8-2.6C548.3,716,551.3,720,553.7,724.2z
				"/>
			<path fill="#666464" d="M573,733.8h-4.9v-23.8l-7.3,2.5v-4.1l11.5-4.2h0.6V733.8z"/>
			<path fill="#666464" d="M586.7,719.2l1.6-14.9h15.9v4.3h-11.8l-0.8,7.1c1.4-0.8,2.9-1.2,4.6-1.2c2.8,0,5,0.9,6.6,2.7
				c1.6,1.8,2.3,4.2,2.3,7.3c0,3-0.9,5.4-2.6,7.2s-4.1,2.7-7.1,2.7c-2.7,0-5-0.8-6.7-2.3c-1.8-1.5-2.7-3.6-2.9-6.1h4.8
				c0.2,1.4,0.7,2.5,1.5,3.3c0.8,0.8,1.9,1.1,3.3,1.1c1.5,0,2.7-0.5,3.5-1.6c0.8-1.1,1.3-2.6,1.3-4.4c0-1.8-0.5-3.2-1.4-4.3
				s-2.2-1.6-3.9-1.6c-0.9,0-1.7,0.1-2.3,0.4c-0.6,0.2-1.3,0.7-2,1.4L586.7,719.2z"/>
			<path fill="#666464" d="M616.4,708.5v-8.8l3.3,0.2c0.6,0.1,1,0.3,1,0.5c0,0.2-0.3,0.5-0.7,0.8v7.2h4.1v3.4h-4.1v0.2
				c1.5,3.5,3.4,6.3,5.5,8.5l-2.5,2.6c-1.2-1.7-2.2-3.5-3.1-5.5v20.1h-3.6v-18.2c-0.1,0.2-0.1,0.3-0.1,0.4c-0.9,2.7-1.9,5.2-3,7.4
				l-3.4-2.3c1.4-2,2.7-4.2,3.7-6.5c0.7-1.5,1.5-3.8,2.5-6.8h-5v-3.4H616.4z M635.2,702.1v-2.6l3.2,0.2c0.6,0,0.9,0.2,0.9,0.4
				s-0.2,0.6-0.7,1v1h7.8v4.6h2.6v2.6h-2.6v4.5h-7.8v2h8.3v7.3h-8.8c-0.2,0.2-0.3,0.3-0.5,0.3c-0.4,0.7-0.8,1.3-1.2,2h12.8v2.7h-4.9
				c-0.9,1.7-1.9,3.1-2.8,4.2c2.4,0.9,4.7,2,6.9,3.1l-2.5,2.5c-2.7-1.5-5-2.6-7-3.3c-1.4,0.9-2.9,1.6-4.5,2.1
				c-1.8,0.6-4.7,1-8.8,1.3c-0.5-1-1.1-2-1.8-2.9c4.1-0.2,7-0.5,8.7-1c0.9-0.2,1.8-0.5,2.6-0.8c-1.4-0.4-2.8-0.7-4.4-1
				c-0.4,0.4-0.7,0.7-1.1,1.1l-3.1-1.6c1.3-1.2,2.5-2.4,3.5-3.6h-6.9v-2.7h9.1c0.5-0.7,1-1.5,1.5-2.3h-6.6v-7.3h8.1v-2h-7.6v-4.5
				h-3.2v-2.6h3.2v-4.6H635.2z M635.2,718.4h-4.7v2.1h4.7V718.4z M635.2,706.7v-2H631v2H635.2z M635.2,709.3H631v2h4.2V709.3z
				 M640.9,728.1h-6.5c-0.5,0.6-1,1.2-1.5,1.8c1.9,0.4,3.7,0.9,5.4,1.4C639.3,730.4,640.2,729.3,640.9,728.1z M638.6,706.7h4.4v-2
				h-4.4V706.7z M643,709.3h-4.4v2h4.4V709.3z M643.5,718.4h-4.9v2.1h4.9V718.4z"/>
			<path fill="#666464" d="M691.5,733.5l-3.1-7.5h-12.1l-3.1,7.5h-4.1l11.3-27.3h3.8l11.3,27.3H691.5z M682.3,711.4l-4.5,11h9
				L682.3,711.4z"/>
			<path fill="#666464" d="M721.2,733.5l-3.1-7.5H706l-3.1,7.5h-4.1l11.3-27.3h3.8l11.3,27.3H721.2z M712,711.4l-4.5,11h9L712,711.4
				z"/>
			<path fill="#666464" d="M740.1,725.9v7.2h-3.2v-7.2h-7.2v-3.2h7.2v-7.2h3.2v7.2h7.2v3.2H740.1z"/>
			<path fill="#666464" d="M769.6,731.8c-1.9,1.1-4.1,1.7-6.5,1.7h-9.5v-27.2h9.7c6.1,0,9.2,2.4,9.2,7.2c0,2.4-1,4.3-3,5.7
				c2.5,1.4,3.7,3.6,3.7,6.7C773.2,728.4,772,730.4,769.6,731.8z M763.2,709.8h-5.9v7.7h5.1c1.8,0,3.3-0.4,4.4-1.2
				c1.1-0.7,1.7-1.7,1.7-2.9C768.5,711,766.7,709.8,763.2,709.8z M767.4,722.2c-1.1-0.7-2.6-1.1-4.4-1.1h-5.6v8.8h5.6
				c1.8,0,3.3-0.4,4.6-1.2c1.1-0.8,1.7-1.7,1.7-2.9C769.2,724.2,768.6,723,767.4,722.2z"/>
			<path fill="#666464" d="M795.5,731.8c-1.9,1.1-4.1,1.7-6.5,1.7h-9.5v-27.2h9.7c6.1,0,9.2,2.4,9.2,7.2c0,2.4-1,4.3-3,5.7
				c2.5,1.4,3.7,3.6,3.7,6.7C799.1,728.4,797.9,730.4,795.5,731.8z M789.1,709.8h-5.9v7.7h5.1c1.8,0,3.3-0.4,4.4-1.2
				c1.1-0.7,1.7-1.7,1.7-2.9C794.4,711,792.6,709.8,789.1,709.8z M793.2,722.2c-1.1-0.7-2.6-1.1-4.4-1.1h-5.6v8.8h5.6
				c1.8,0,3.3-0.4,4.6-1.2c1.1-0.8,1.7-1.7,1.7-2.9C795.1,724.2,794.5,723,793.2,722.2z"/>
			<path fill="#666464" d="M826.5,700.5c0.4,0.2,0.6,0.4,0.6,0.6c0,0.3-0.2,0.4-0.7,0.5c2.8,1.6,5.4,2.7,7.8,3.4
				c2.1,0.7,5,1.5,8.5,2.1l-2.6,3.6c-3.7-1-6.9-2.1-9.7-3.3c-2.3-1-4.7-2.4-6.9-4c-2,1.2-3.9,2.3-5.8,3.3c-2.4,1.2-5.9,2.6-10.8,4.2
				l-2.9-2.6c4-1.1,7.6-2.3,10.7-3.8c2.9-1.3,5.8-3.1,8.8-5.2L826.5,700.5z M838.7,712.2v11.1h-3.6v-1H812v1h-3.6v-11.1H838.7z
				 M835.5,724.4v13h-3.7v-1.2h-16.1v1.3h-3.7v-13.2H835.5z M815.9,719.3c-0.4-1.2-0.9-2.2-1.4-3.2l2.9-0.7c0.7,1.4,1.2,2.7,1.6,3.9
				h2.6v-4.2H812v4.2H815.9z M831.7,729.3V727h-16.1v2.3H831.7z M831.7,733.6v-2h-16.1v2H831.7z M830.9,707.6v2.6H816v-2.6H830.9z
				 M827.5,719.3l2.1-3.9l2.4,1.2c0.3,0.2,0.5,0.3,0.5,0.5c0,0.3-0.2,0.6-0.6,0.8l-1,1.5h4.2v-4.2h-10.2v4.2H827.5z"/>
			<path fill="#666464" d="M861.8,706.8v3.3h-13.2v-3.3H861.8z M860.8,712.5v3.1h-11.5v-3.1H860.8z M860.8,718v3.1h-11.5V718H860.8z
				 M861.1,723.6v13.3h-3.4v-1.6h-5v2.3h-3.4v-14H861.1z M860.6,701.5v3.1h-11.2v-3.1H860.6z M857.7,732.2v-5.4h-5v5.4H857.7z
				 M871.5,719.9c-0.2,0.1-0.5,0.2-0.7,0.2v2.6h3.8c-0.2-1.7-0.3-3.5-0.3-5.5l3.7,0.4c0.6,0.1,0.9,0.3,0.9,0.6
				c0,0.3-0.4,0.8-1.2,1.3c0,1.2,0.1,2.3,0.2,3.2h8v3.1h-7.6c0.1,0.8,0.3,1.6,0.5,2.2c0.2,0.7,0.3,1.2,0.5,1.7c1-1,1.9-2.2,2.7-3.6
				l2.9,1.2c0.2,0.1,0.3,0.3,0.3,0.5c0,0.2-0.3,0.5-0.8,0.7c-1.3,1.8-2.6,3.2-3.7,4.1c0,0,0,0.1,0.1,0.1c0.7,0.8,1.2,1.2,1.8,1.2
				c0.2,0,0.3-0.2,0.4-0.6c0.1-0.4,0.3-1.3,0.4-2.7l3.1,2.2c-0.5,1.7-1,3-1.5,3.5c-0.6,0.8-1.3,1.2-2.2,1.2c-1,0-2.1-0.5-3.2-1.6
				c-0.5-0.5-1-1-1.5-1.6c-0.4,0.2-0.8,0.4-1.2,0.6c-1.2,0.5-2.5,1.1-4,1.6l-2.2-2.2c-0.2,1-0.5,1.7-1.2,2.2c-0.7,0.7-2.5,1-5.2,1
				l-1.3-3.4h2.8c1,0,1.5-0.4,1.6-1.2v-1.7l-3.1,0.5c-0.4,0.7-0.7,1-1,1s-0.4-0.2-0.5-0.6l-1.2-3.1c2-0.3,3.9-0.5,5.8-0.9v-2.6h-5.5
				v-3.1h5.5v-1.8c-1.1,0.2-2.2,0.4-3.2,0.5l-2.1-2.9c1.8-0.1,3.3-0.3,4.6-0.5c1.2-0.2,2.6-0.5,4.3-1.1l2.4,2.2
				c0.2,0.2,0.2,0.3,0.2,0.5c0,0.2-0.2,0.3-0.5,0.3l-0.9-0.2C872,719.8,871.8,719.8,871.5,719.9z M872,703.4h4.5l2-3.4l3.2,0.7
				c0.6,0.1,0.9,0.3,0.9,0.7c0,0.3-0.3,0.6-1,1l-0.9,1.1h4.6v3h-9.6v2h8.9v2.7h-8.9v2.1H886v3.1h-23.9v-3.1h9.9V711h-8.9v-2.7h8.9
				v-2h-9.6v-3h4.9c-0.6-0.6-1.2-1.2-1.8-1.9l3.4-1.7C870,701.1,871.1,702.2,872,703.4z M874.9,732.8c0.6-0.3,1.2-0.6,1.8-1
				c-0.5-1-0.9-2.2-1.2-3.5c-0.2-0.8-0.4-1.7-0.5-2.6h-4.2v2c1.2-0.2,2.5-0.4,3.7-0.7v3.1l-3.7,0.7v2.9c0,0.3,0,0.5,0,0.6
				C872.5,733.9,873.9,733.4,874.9,732.8z M885.6,720l-2.5,2.3c-1.4-1.5-2.7-2.7-4-3.6l2.2-2.1C882.9,717.5,884.3,718.7,885.6,720z"
				/>
			<path fill="#666464" d="M923.3,710.7v3.2h-11.4l-4.9,5.3c3.7-0.2,7.4-0.4,11-0.6c-0.7-0.7-1.5-1.3-2.2-1.9l2.6-2.1
				c2.7,2,5.4,4.5,8.2,7.7l-3.3,2.1c-0.8-1-1.6-1.9-2.4-2.8c-2.2,0.2-4.9,0.4-8,0.7v4.1h11.4v3.2h-11.4v3.7h16.6v3.4h-36.9v-3.4
				h16.6v-3.7h-11.9v-3.2h11.9v-3.8c-3.1,0.2-6.6,0.5-10.4,0.7c-0.3,0.5-0.6,0.7-0.8,0.7s-0.4-0.2-0.5-0.6l-0.8-3.6
				c1.9,0,3.7-0.1,5.6-0.2l5.1-5.5h-8.6v-3.2H923.3z M912.8,700.1c0.7,0.1,1,0.3,1,0.5c0,0.2-0.3,0.5-0.8,1v2.3h15.3v8.6h-3.7v-5.2
				h-27.5v5.2h-3.7v-8.6h15.8v-4.1L912.8,700.1z"/>
			<path fill="#898989" d="M309.6,755c0.3,0.1,0.5,0.3,0.5,0.4c0,0.1-0.2,0.4-0.7,0.7c-1.2,2.3-2.8,4.7-4.7,7.3
				c3.9-0.3,7.6-0.6,11.3-1.1c-0.9-1.2-1.8-2.3-2.7-3.4l1.9-1.6c2.2,2.1,4.3,4.9,6.5,8.2l-2.5,1.7c-0.5-0.9-1.1-1.8-1.6-2.7
				c-4,0.5-9.9,1.2-17.7,2c-0.2,0.4-0.4,0.5-0.6,0.5c-0.2,0-0.3-0.1-0.3-0.5l-0.7-2.8c1.1-0.1,2.3-0.1,3.4-0.2
				c0.9-1.3,1.7-2.5,2.3-3.6c1.2-2,2.1-4,2.9-6L309.6,755z M318,767.8v12h-2.6v-1.6h-10.7v1.6H302v-12H318z M315.4,775.9v-5.5h-10.7
				v5.5H315.4z"/>
			<path fill="#898989" d="M336.9,754c0.4,0.1,0.7,0.2,0.7,0.4c0,0.1-0.2,0.4-0.5,0.7v24.7h-2.6v-6.2c-1.6,0.8-3.8,1.8-6.5,2.9
				c-0.2,0.4-0.5,0.5-0.7,0.5c-0.2,0-0.3-0.1-0.4-0.5l-0.7-2.9c2.8-0.5,5.5-1.4,8.2-2.5v-6.9h-8v-2.5h8v-7.9L336.9,754z M344,754.3
				c0.3,0.1,0.5,0.2,0.5,0.4c0,0.2-0.2,0.5-0.5,0.8c-0.3,0.2-0.5,0.5-0.5,1v6.7c0.8-0.3,1.5-0.7,2.2-1c1.2-0.6,2.8-1.7,4.5-3.2
				l1.8,1.9c0.1,0.1,0.2,0.3,0.2,0.4c-0.1,0.2-0.1,0.3-0.2,0.3l-0.5-0.1c-0.1,0-0.3,0.1-0.6,0.2c-2.4,1.9-4.9,3.3-7.3,4.2v8.7
				c0,0.8,0.1,1.4,0.4,1.8c0.3,0.3,0.8,0.5,1.7,0.5h1.5c0.8,0,1.4-0.2,1.9-0.7c0.4-0.4,0.8-1.6,1.1-3.6l2.5,1.1
				c-0.5,2.4-1,4-1.6,4.7c-0.6,0.6-1.2,1-2,1h-4.4c-1.2,0-2.1-0.4-2.7-1.1c-0.6-0.7-0.8-1.7-0.8-3v-21.4L344,754.3z"/>
			<path fill="#898989" d="M370.3,753.8c0.5,0.1,0.7,0.2,0.7,0.4c0,0.1-0.2,0.4-0.6,0.7v2.8h11.7v2.5h-25.9v-2.5h11.5v-4.1
				L370.3,753.8z M367.7,763.9v-3.1l2.5,0.2c0.5,0.1,0.7,0.2,0.7,0.4c0,0.1-0.2,0.4-0.6,0.7v1.8h9.5v10.9c0,1.3-0.8,2.2-2.4,2.6
				c-1.2,0.3-2.5,0.5-3.7,0.5l-1-2.7l3.1-0.1c0.9,0,1.3-0.4,1.3-1.1v-7.6h-6.8v13.5h-2.7v-13.5h-6.3v11.9h-2.7v-14.4h1.4H367.7z"/>
			<path fill="#898989" d="M390,760v-6.5l2.3,0.2c0.4,0.1,0.6,0.2,0.6,0.4c0,0.1-0.1,0.3-0.4,0.6v5.3h3.5v2.4h-3.5v0.5
				c1.2,2.8,2.6,5.2,4.3,7l-1.8,1.9c-0.9-1.4-1.8-2.9-2.5-4.5v12.5H390v-12.5c-0.1,0.4-0.3,0.8-0.4,1.2c-0.6,1.9-1.3,3.6-2.1,5.2
				L385,772c1-1.4,2-2.9,2.8-4.5c0.5-1.1,1.2-2.8,2-5.1h-3.9V760H390z M404.6,765.8c0.3,0.1,0.5,0.3,0.5,0.4c0,0.1-0.2,0.4-0.7,0.7
				c-1,2.5-2.2,5.3-3.7,8.3c2.2-0.3,4.4-0.6,6.6-1c-0.5-0.9-1.1-1.8-1.6-2.6l1.8-1.4c1.6,2,3.2,4.5,4.7,7.6l-2.4,1.6
				c-0.4-1-0.9-2-1.3-2.9c-2.8,0.5-6.9,1.2-12.3,2.1c-0.2,0.3-0.4,0.6-0.6,0.6c-0.2,0-0.3-0.2-0.3-0.5l-0.7-2.8
				c1.1-0.1,2.2-0.2,3.3-0.3c0.7-1.5,1.3-2.9,1.8-4.2c0.9-2.2,1.7-4.4,2.3-6.6L404.6,765.8z M400.7,758c0.2,0.1,0.4,0.2,0.4,0.4
				c0,0.2-0.2,0.5-0.6,0.8c-0.8,3.2-1.8,6-2.9,8.4l-2.5-0.9c0.7-1.1,1.2-2.3,1.7-3.6c0.6-1.7,1.1-3.6,1.4-5.6L400.7,758z
				 M408.5,755.2c0.1,3,0.6,5.4,1.4,7.2c0.5,1.3,1.4,2.9,2.7,4.7l-2.3,1.6c-1.4-2-2.5-3.9-3.2-5.8c-0.5-1.3-0.9-3.1-1.1-5.3h-4.6
				v-2.4H408.5z"/>
			<path fill="#898989" d="M430,754.1c0.5,0,0.8,0.1,0.8,0.4c0,0.2-0.2,0.4-0.6,0.8v18.8h7.4v-14.5l2.5,0.2c0.5,0.1,0.7,0.2,0.7,0.4
				c0,0.1-0.2,0.4-0.6,0.7v18.8h-2.7v-3h-18.3v3h-2.7v-20l2.6,0.2c0.5,0.1,0.7,0.2,0.7,0.4c0,0.1-0.2,0.4-0.6,0.7v13.3h8.1v-20.1
				L430,754.1z"/>
			<path fill="#898989" d="M470.5,757h-21.4v19.5h22.1v2.4h-22.1v1h-2.6v-25.3h24V757z M459.2,767.1v8h-8v-8H459.2z M456.8,769.3
				h-3.3v3.7h3.3V769.3z M466.3,758.4v7.4h-12.4v-7.4H466.3z M463.9,760.6h-7.7v3h7.7V760.6z M469.3,767.1v8h-8.1v-8H469.3z
				 M467,769.3h-3.4v3.7h3.4V769.3z"/>
			<path fill="#898989" d="M484,761.7c0.2,0.1,0.4,0.2,0.4,0.3c0,0.3-0.2,0.5-0.7,0.7c-0.9,1.1-1.7,2.1-2.5,2.9v14.2h-2.5V768
				c-0.7,0.6-1.5,1.2-2.4,1.9l-1.8-1.8c1.6-1.1,3-2.3,4.1-3.4c1-1,2.1-2.3,3.1-3.9L484,761.7z M482.7,755.2c0.2,0.1,0.4,0.2,0.4,0.3
				c0,0.3-0.2,0.5-0.7,0.7c-1,1.6-2,2.8-2.9,3.8c-0.8,0.9-1.8,1.9-3,3l-1.8-1.8c1.3-1.1,2.4-2.2,3.3-3.3c0.8-1,1.7-2.2,2.5-3.7
				L482.7,755.2z M489.1,754.6c0.2,0.1,0.3,0.2,0.3,0.3c0,0.1-0.3,0.2-0.8,0.3c-0.1,0.2-0.2,0.5-0.3,0.7h12.4v2.3h-13.4
				c-0.1,0.3-0.3,0.5-0.4,0.7c-0.1,0.2-0.3,0.4-0.4,0.5h13.7v9H490c-0.3,0.6-0.5,1.1-0.8,1.5h9.2c0.4-0.3,0.7-0.5,0.7-0.5
				c0.2,0,0.4,0.1,0.6,0.3l1.3,1.2c0.1,0.2,0.2,0.3,0.2,0.5c0,0.2-0.3,0.4-0.8,0.7c-1.3,1.8-2.7,3.2-4.3,4.1
				c0.1,0.1,0.2,0.1,0.3,0.1c1.2,0.4,2.9,0.7,5,0.9l-2.3,2.5c-2-0.4-3.7-1-5.1-1.5c-0.4-0.2-0.7-0.3-1-0.5c-2.1,0.8-4.9,1.4-8.3,1.9
				l-1.7-2.3c2.4-0.2,4.3-0.5,5.7-0.8c0.6-0.1,1.2-0.3,1.7-0.4c-0.1-0.1-0.1-0.1-0.2-0.2c-1-0.8-1.7-1.7-2.3-2.7
				c-0.3-0.5-0.5-0.9-0.6-1.3c-1,0.9-2.3,1.8-4,2.7l-1.9-1.6c1.9-0.9,3.3-1.9,4.3-2.8c0.5-0.4,0.9-1,1.3-1.8h-1v-8.7
				c-0.5,0.7-1,1.3-1.6,1.8l-2.1-1.4c1-0.9,1.8-1.8,2.4-2.8c0.6-0.9,1.2-2.1,1.7-3.7L489.1,754.6z M497.8,763v-1.4h-9.1v1.4H497.8z
				 M497.8,765h-9.1v1.4h9.1V765z M490.4,772.9c0.5,0.7,1.2,1.3,2.1,1.9c0.2,0.2,0.5,0.3,0.8,0.5c0.3-0.1,0.6-0.3,0.9-0.5
				c1.1-0.6,2.1-1.5,3-2.6h-7.4C490,772.4,490.2,772.6,490.4,772.9z"/>
			<path fill="#898989" d="M512.2,755.9c0.1,0.1,0.2,0.3,0.2,0.4c0,0.2-0.2,0.2-0.7,0.2c-0.8,0.4-1.6,0.8-2.5,1.2v2.6h2.6v2.1h-2.6
				v3.2h2.6v2.2h-2.6v3.5h3.4V755h9.7v16.3h3.5v-3.5H523v-2.2h2.8v-3.2H523v-2.1h2.8V757h-2.7v-2.3h5.1v16.6h2.3v2.3h-17.6l1.5,1.2
				c0.1,0.1,0.2,0.3,0.2,0.4c0,0.1-0.2,0.1-0.6,0.2c-2.6,1.9-5.1,3.3-7.4,4.3l-2-2c3-1,5.6-2.3,7.6-4.1h-7.8v-2.3h2.3v-15.9l1.3,0.6
				c0.9-0.6,1.7-1.2,2.4-1.8L512.2,755.9z M520.3,771.3v-14.2h-5.6v14.2H520.3z M519.5,758.9v1.8h-4.3v-1.8H519.5z M519.4,762.9v7
				h-4v-7H519.4z M517.8,764.5H517v3.6h0.8V764.5z M530.6,777.8l-2.6,2.1c-2.6-1.3-5.1-2.8-7.5-4.7l2-1.4
				C524.7,775.3,527.4,776.6,530.6,777.8z"/>
			<path fill="#898989" d="M544.6,754c0.4,0.1,0.7,0.2,0.7,0.4c0,0.1-0.2,0.4-0.5,0.7v24.7h-2.6v-6.2c-1.6,0.8-3.8,1.8-6.5,2.9
				c-0.2,0.4-0.5,0.5-0.7,0.5c-0.2,0-0.3-0.1-0.4-0.5l-0.7-2.9c2.8-0.5,5.5-1.4,8.2-2.5v-6.9h-8v-2.5h8v-7.9L544.6,754z
				 M551.7,754.3c0.3,0.1,0.5,0.2,0.5,0.4c0,0.2-0.2,0.5-0.5,0.8c-0.3,0.2-0.5,0.5-0.5,1v6.7c0.8-0.3,1.5-0.7,2.2-1
				c1.2-0.6,2.8-1.7,4.5-3.2l1.8,1.9c0.1,0.1,0.2,0.3,0.2,0.4c-0.1,0.2-0.1,0.3-0.2,0.3l-0.5-0.1c-0.1,0-0.3,0.1-0.6,0.2
				c-2.4,1.9-4.9,3.3-7.3,4.2v8.7c0,0.8,0.1,1.4,0.4,1.8c0.3,0.3,0.8,0.5,1.7,0.5h1.5c0.8,0,1.4-0.2,1.9-0.7
				c0.4-0.4,0.8-1.6,1.1-3.6l2.5,1.1c-0.5,2.4-1,4-1.6,4.7c-0.6,0.6-1.2,1-2,1h-4.4c-1.2,0-2.1-0.4-2.7-1.1c-0.6-0.7-0.8-1.7-0.8-3
				v-21.4L551.7,754.3z"/>
			<path fill="#898989" d="M573.9,754.9v8.8h-2.6v4.1h3.1v2.3h-3.1v4.7c1.2-0.3,2.4-0.7,3.6-1.1v2.1c-2.1,0.8-5.5,1.8-10.1,3
				c-0.2,0.3-0.4,0.5-0.5,0.5s-0.3-0.1-0.3-0.4l-0.6-2.5c0.4-0.1,0.8-0.1,1.1-0.2v-9.4l2.1,0.1c0.4,0,0.6,0.1,0.6,0.3
				c0,0.1-0.1,0.3-0.4,0.6v8c0.7-0.1,1.4-0.2,2-0.4v-11.7h-4v-8.8H573.9z M571.4,757.2h-4.1v4.3h4.1V757.2z M581.2,754.2
				c0.3,0.1,0.4,0.2,0.4,0.4c0,0.1-0.2,0.4-0.6,0.7c-0.1,0.3-0.3,0.6-0.4,0.9h6.2c0.1-0.1,0.3-0.1,0.4-0.1l0.3,0.3l1,1.2
				c0.1,0.2,0.2,0.4,0.2,0.5c0,0.2-0.3,0.4-0.8,0.7c-1.2,2.3-2.4,3.9-3.5,4.9c-0.2,0.2-0.3,0.3-0.5,0.5c1.6,0.9,3.7,1.9,6.6,2.9
				l-2.5,2.1c-2.5-1.2-4.5-2.3-6-3.4c-0.3,0.2-0.6,0.4-0.8,0.6c-1.3,0.8-3.1,1.7-5.4,2.6l-1.8-1.9c2.8-1.1,4.8-2.1,6.2-3
				c-0.8-0.9-1.5-1.9-2.2-3c-0.5,0.8-1.1,1.4-1.6,2.1l-2.3-1.6c2.1-2,3.7-4.5,4.9-7.7L581.2,754.2z M587.7,769.2v10.6h-2.5v-1.7H579
				v1.7h-2.5v-10.6H587.7z M585.2,775.9v-4.4H579v4.4H585.2z M582,762.5c0.5-0.4,0.9-0.9,1.3-1.4c0.6-0.7,1.2-1.6,1.9-2.7h-5.7
				c-0.1,0.2-0.2,0.3-0.3,0.4C580,760.3,581,761.5,582,762.5z"/>
			<path fill="#898989" d="M604.3,774.4c-1,1.9-2.7,2.8-4.8,2.8c-2.3,0-3.8-1.2-4.8-3.8l2.4-1.1c0.6,1.5,1.4,2.3,2.4,2.3
				c1,0,1.7-0.4,2.3-1.1c0.6-0.8,1-2.3,1.2-4.2c-1,0.9-2.1,1.3-3.3,1.3c-1.6,0-3-0.5-3.9-1.6s-1.5-2.5-1.5-4.4
				c0-1.9,0.5-3.4,1.4-4.7c1-1.4,2.4-2.1,4.2-2.1c2.3,0,3.9,1.1,4.9,3.2c0.6,1.5,1,3.8,1,6.7C605.7,770.6,605.2,772.8,604.3,774.4z
				 M599.9,760.3c-0.8,0-1.5,0.4-2,1.1c-0.6,0.8-0.9,1.9-0.9,3.2c0,2.3,1,3.4,2.9,3.4c1.2,0,2.2-0.6,3.1-1.9
				C602.9,762.3,601.8,760.3,599.9,760.3z"/>
			<path fill="#898989" d="M621,774.4c-1,1.9-2.7,2.8-4.8,2.8c-2.3,0-3.8-1.2-4.8-3.8l2.4-1.1c0.6,1.5,1.4,2.3,2.4,2.3
				c1,0,1.7-0.4,2.3-1.1c0.6-0.8,1-2.3,1.2-4.2c-1,0.9-2.1,1.3-3.3,1.3c-1.6,0-3-0.5-3.9-1.6s-1.5-2.5-1.5-4.4
				c0-1.9,0.5-3.4,1.4-4.7c1-1.4,2.4-2.1,4.2-2.1c2.3,0,3.9,1.1,4.9,3.2c0.6,1.5,1,3.8,1,6.7C622.3,770.6,621.9,772.8,621,774.4z
				 M616.5,760.3c-0.8,0-1.5,0.4-2,1.1c-0.6,0.8-0.9,1.9-0.9,3.2c0,2.3,1,3.4,2.9,3.4c1.2,0,2.2-0.6,3.1-1.9
				C619.5,762.3,618.5,760.3,616.5,760.3z"/>
			<path fill="#898989" d="M636.9,763.8v2.1h-5.5c-0.2,0.9-0.4,1.9-0.6,2.7h5.3c-0.2,3.4-0.5,5.6-0.8,6.7c-0.3,1.6-0.9,2.7-2,3.4
				c-0.9,0.6-2.4,0.9-4.6,0.9l-0.7-2.3c2.4,0,3.9-0.3,4.4-1c0.5-0.6,0.9-2.5,1.2-5.7h-3.5c-0.3,0.9-0.5,1.7-0.8,2.5l-2.4-0.5
				c0.8-2.3,1.4-4.5,1.9-6.7h-2.2v-2.1H636.9z M635.8,755v6.8h-8V755H635.8z M633.5,757H630v2.9h3.5V757z M644.7,753.8
				c0.4,0.1,0.7,0.2,0.7,0.4c0,0.1-0.2,0.3-0.5,0.6v0.5h6.1v1.8H645v1.4h7.6v4.5h-2.4v-2.5h-5v1.9l4.3-0.8l0.2,1.9l-4.5,0.8v0.6
				c0,0.9,0.2,1.4,0.7,1.4h2.7c0.4,0,0.7-0.1,0.9-0.3c0.2-0.1,0.4-0.6,0.5-1.4l2.3,0.7c-0.3,1.1-0.6,1.8-1.2,2.1
				c-0.5,0.4-1.2,0.5-2.1,0.5h-3.5c-1.7,0-2.6-0.6-2.6-1.8v-1.4l-2.5,0.4l-0.1-1.9l2.6-0.4v-2.3h-2.8v5.1c0,3-0.3,5.6-0.8,7.9
				c-0.3,1.7-1.1,3.9-2.1,6.5l-2.4-1.1c1-2.3,1.7-4.3,2.1-6c0.5-2.5,0.8-4.9,0.8-7.4v-7.1h4.7v-5L644.7,753.8z M644.1,769.7
				c0.3,0.1,0.5,0.2,0.5,0.3c0,0.2-0.1,0.4-0.4,0.5c-0.1,0.8-0.1,1.6-0.1,2.3c0,1.2-0.1,2.3-0.4,3.2c-0.2,0.7-0.5,1.4-1,2.1
				c-0.4,0.6-1,1.2-1.9,1.8l-2.5-1c0.9-0.5,1.5-1,2-1.5c0.5-0.5,0.9-1.2,1.1-1.8c0.3-0.7,0.4-1.6,0.4-2.8v-3.4L644.1,769.7z
				 M648.9,769.9c0.3,0.1,0.5,0.2,0.5,0.4s-0.2,0.5-0.5,0.7c-0.3,0.2-0.4,0.5-0.4,0.9v3.3c0,0.8,0.1,1.4,0.3,1.8
				c0.2,0.3,0.5,0.4,1,0.5c0.3-0.1,0.5-0.1,0.7-0.3c0.2-0.2,0.4-0.7,0.6-1.6l2.3,1c-0.3,1.3-0.6,2.1-1,2.5c-0.4,0.3-0.8,0.5-1.3,0.5
				h-1.7c-1.1,0-1.9-0.3-2.4-1c-0.5-0.6-0.8-1.5-0.8-2.7v-6.2L648.9,769.9z"/>
			<path fill="#898989" d="M663.4,777v-14.6h-3.6v-1.8c2.2,0,3.6-0.8,4.2-2.5h2v19H663.4z"/>
			<path fill="#898989" d="M683.6,775.5c-1.1,1.2-2.5,1.8-4.3,1.8c-2.7,0-4.5-1.4-5.6-4.3l2.3-1c0.7,1.8,1.8,2.7,3.3,2.7
				c2.2,0,3.4-1.4,3.4-4.4c0-2.7-0.9-4.1-2.8-4.1c-0.8,0-1.4,0.2-1.9,0.5c-0.4,0.3-0.8,0.8-1.1,1.6h-2.4V758h10.2v2.5h-7.6v4
				c0.7-0.6,1.6-0.9,2.8-0.9c1.7,0,3,0.6,4,1.8s1.5,2.8,1.5,4.8C685.4,772.4,684.8,774.2,683.6,775.5z"/>
			<path fill="#898989" d="M693.4,759.6v-6.1l2.3,0.2c0.4,0.1,0.7,0.2,0.7,0.4c0,0.1-0.2,0.3-0.5,0.6v5h2.8v2.4h-2.8v0.2
				c1,2.4,2.3,4.4,3.8,5.9l-1.7,1.8c-0.8-1.2-1.5-2.5-2.1-3.8v14h-2.5v-12.7c-0.1,0.1-0.1,0.2-0.1,0.3c-0.6,1.9-1.3,3.6-2.1,5.2
				l-2.4-1.6c1-1.4,1.9-2.9,2.6-4.5c0.5-1,1.1-2.6,1.8-4.7h-3.5v-2.4H693.4z M706.5,755.2v-1.8l2.2,0.1c0.4,0,0.6,0.1,0.6,0.3
				s-0.2,0.4-0.5,0.7v0.7h5.4v3.2h1.8v1.8h-1.8v3.2h-5.4v1.4h5.8v5.1h-6.1c-0.1,0.1-0.2,0.2-0.3,0.2c-0.3,0.5-0.6,0.9-0.9,1.4h8.9
				v1.9h-3.4c-0.6,1.2-1.3,2.2-2,2.9c1.7,0.6,3.3,1.4,4.8,2.2l-1.7,1.7c-1.9-1-3.5-1.8-4.9-2.3c-1,0.6-2,1.1-3.1,1.5
				c-1.2,0.4-3.3,0.7-6.1,0.9c-0.3-0.7-0.8-1.4-1.2-2c2.8-0.1,4.9-0.4,6.1-0.7c0.6-0.1,1.2-0.3,1.8-0.6c-1-0.3-2-0.5-3-0.7
				c-0.3,0.3-0.5,0.5-0.8,0.8l-2.2-1.1c0.9-0.8,1.7-1.7,2.5-2.5h-4.8v-1.9h6.3c0.4-0.5,0.7-1.1,1-1.6h-4.6v-5.1h5.6v-1.4h-5.3v-3.2
				H699v-1.8h2.3v-3.2H706.5z M706.5,766.5h-3.3v1.5h3.3V766.5z M706.5,758.3V757h-2.9v1.4H706.5z M706.5,760.1h-2.9v1.4h2.9V760.1z
				 M710.5,773.3H706c-0.3,0.4-0.7,0.8-1,1.2c1.3,0.3,2.6,0.6,3.8,1C709.4,774.8,710,774.1,710.5,773.3z M708.9,758.3h3.1V757h-3.1
				V758.3z M712,760.1h-3.1v1.4h3.1V760.1z M712.3,766.5h-3.4v1.5h3.4V766.5z"/>
		</g>
		<g>
			<path fill="#005FA3" d="M259.9,662.9h-98.2c-2.5,0-4.6-2.1-4.6-4.6v-48.7c0-2.5,2.1-4.6,4.6-4.6h98.2c2.5,0,4.6,2.1,4.6,4.6v48.7
				C264.5,660.8,262.4,662.9,259.9,662.9z"/>
			<g>
				<path fill="#FFFFFF" d="M188.4,621.8v21.9h-2.8V642H182v3.1h-2.8v-23.3H188.4z M185.6,631v-6.6H182v6.6H185.6z M185.6,639.5
					v-6.2H182v6.2H185.6z M196.7,623.1v-4.2l2.6,0.2c0.5,0.1,0.7,0.2,0.7,0.4c0,0.1-0.2,0.4-0.5,0.7v2.9h7.9v2.6h-7.9v4.1h7.1v2.7
					h-3.5v3.3h4.6v2.7h-4.6v6.6c0,1.1-0.4,1.9-1.2,2.4c-0.7,0.5-2.4,0.8-5.1,0.8l-1.1-2.8h3c1,0,1.6-0.3,1.7-0.9v-6.1h-10.6v-2.7
					h10.6v-3.3h-9.8v-2.7h6.3v-4.1h-7v-2.6H196.7z M196.7,642.7l-2.2,1.9c-1.2-1.3-2.3-2.3-3.4-3.1l2-1.9
					C194.4,640.5,195.5,641.5,196.7,642.7z"/>
				<path fill="#FFFFFF" d="M225.3,619.8v10.9h-9.5v17.4h-2.8v-28.4H225.3z M222.5,624.2v-2.1h-6.7v2.1H222.5z M222.5,628.3v-1.9
					h-6.7v1.9H222.5z M233.8,632.5v11.5h-11.1v1.3H220v-12.7H233.8z M231,636.9v-2h-8.3v2H231z M231,641.5v-2.2h-8.3v2.2H231z
					 M228.8,630.6v-10.8h12.3v25.3c0,1.4-0.8,2.3-2.5,2.7c-1.3,0.3-2.6,0.5-3.9,0.5l-1.1-2.8l3.4-0.1c0.9,0,1.4-0.4,1.4-1.2v-13.6
					H228.8z M231.6,622.1v2.1h6.7v-2.1H231.6z M231.6,626.3v2.1h6.7v-2.1H231.6z"/>
			</g>
		</g>
		<g>
			<path fill="#005FA3" d="M259.9,748.8h-98.2c-2.5,0-4.6-2.1-4.6-4.6v-48.7c0-2.5,2.1-4.6,4.6-4.6h98.2c2.5,0,4.6,2.1,4.6,4.6v48.7
				C264.5,746.7,262.4,748.8,259.9,748.8z"/>
			<g>
				<path fill="#FFFFFF" d="M182.2,712.9v-7.9l2.7,0.2c0.5,0.1,0.8,0.2,0.8,0.4c0,0.2-0.2,0.4-0.5,0.7v6.5h3.7v2.7h-3.7v9
					c1.3-0.4,2.5-0.8,3.8-1.3v2.7c-1.9,0.8-4.9,2-9,3.4c-0.2,0.5-0.4,0.7-0.6,0.7c-0.3,0-0.4-0.2-0.4-0.5l-0.7-3.2
					c1.4-0.2,2.7-0.5,4.1-0.9v-9.8h-3.8v-2.7H182.2z M204.6,711.7c0.1,0,0.3,0.1,0.5,0.3l1.3,1c0.2,0.1,0.3,0.3,0.3,0.5
					c0,0.2-0.2,0.5-0.5,0.8l-0.2,6.9c0,1.9-0.4,3.2-1.1,3.9c-0.6,0.5-1.7,1-3.5,1.3l-1.1-2.9c1.5-0.1,2.4-0.3,2.6-0.7
					s0.4-1.1,0.4-2.1l0.1-5.4l-3.9,1.2v9.9H197v-9l-3.6,1.1v9.9c0,0.8,0.1,1.5,0.4,1.9c0.3,0.4,0.8,0.5,1.8,0.5h6.2
					c1,0,1.7-0.2,2.2-0.6c0.5-0.3,1-1.4,1.3-3.1l2.7,1.1c-0.5,2.3-1.2,3.7-1.9,4.3c-0.7,0.6-1.5,0.9-2.4,0.9h-9.3
					c-1.3,0-2.2-0.4-2.9-1.2c-0.6-0.7-0.9-1.8-0.9-3.2v-9.7l-2.7,0.8l-0.6-2.5l3.3-1v-8.6l3.2,0.4c0.4,0.1,0.6,0.2,0.6,0.5
					s-0.2,0.6-0.6,0.9c-0.3,0.2-0.5,0.6-0.5,1v5l3.6-1.1v-9.8l2.5,0.2c0.5,0,0.7,0.1,0.7,0.3c0,0.2-0.2,0.4-0.5,0.7v7.7l3.8-1.2
					C204,712,204.4,711.7,204.6,711.7z"/>
				<path fill="#FFFFFF" d="M215.7,728.1c-0.5,1.9-1.1,3.6-1.9,5.5l-2.4-0.9c0.9-1.7,1.6-3.4,2.1-5.1L215.7,728.1z M227,706.2v10.6
					h-5.6v2.3h5.5v2.3h-5.5v2.4h6v2.3h-14.9v-2.3h6.5v-2.4h-5.9v-2.3h5.9v-2.3h-5.9v-10.6H227z M218.9,708.4h-3.5v6.2h3.5V708.4z
					 M218.7,713.2l-1.9,0.4c-0.2-1.1-0.6-2.4-1.1-3.9l1.7-0.4C217.9,710.7,218.4,712,218.7,713.2z M219.6,728.3v5.1l-2.7-0.1
					c0.3-1.5,0.4-3.2,0.5-5.1L219.6,728.3z M224.3,732.9l-2.2,0.5c-0.1-1.4-0.5-3-1-4.8l1.9-0.5C223.6,729.8,224,731.4,224.3,732.9z
					 M221.8,711.4c0.3-0.7,0.5-1.5,0.7-2.2l1.8,0.6c0.1,0.1,0.2,0.1,0.2,0.1v-1.6h-3.2v4.4C221.5,712.3,221.7,711.8,221.8,711.4z
					 M224.5,710.4c-0.1,0.1-0.2,0.2-0.4,0.3c-0.3,0.9-0.7,1.9-1.3,2.9l-1.5-0.5v1.5h3.2V710.4z M228.4,732.1l-2.2,0.5
					c-0.2-1.3-0.7-2.8-1.4-4.6l1.9-0.5C227.5,729.2,228,730.7,228.4,732.1z M234.9,705.5c0.5,0,0.7,0.2,0.7,0.4
					c0,0.1-0.2,0.4-0.5,0.6v4.3h6.9v2.5h-6.9v6.1h6.1v14.1h-2.7v-1.5h-7v1.5h-2.7v-14.1h3.5v-14.3L234.9,705.5z M238.5,729.7v-7.6
					h-7v7.6H238.5z"/>
			</g>
		</g>
		<g>
			<path fill="#005FA3" d="M259.9,881.4h-98.2c-2.5,0-4.6-2.1-4.6-4.6v-48.7c0-2.5,2.1-4.6,4.6-4.6h98.2c2.5,0,4.6,2.1,4.6,4.6v48.7
				C264.5,879.4,262.4,881.4,259.9,881.4z"/>
			<g>
				<path fill="#FFFFFF" d="M188.7,842.8v2.5h-10.5v-2.5H188.7z M187.9,847.2v2.4h-9.1v-2.4H187.9z M187.9,851.6v2.4h-9.1v-2.4
					H187.9z M188.2,856v10.4h-2.7V865h-4.1v1.9h-2.7V856H188.2z M187.7,838.6v2.4h-8.8v-2.4H187.7z M185.5,862.6v-4.1h-4.1v4.1
					H185.5z M193.3,839.9v-2.2l2.6,0.2c0.5,0.1,0.7,0.2,0.7,0.4c0,0.1-0.2,0.4-0.5,0.6v0.9h4.2v-2.2l2.6,0.2
					c0.5,0.1,0.7,0.2,0.7,0.4c0,0.1-0.2,0.4-0.5,0.6v0.9h3.9v2.4h-3.9v1.7h3.5v2.3h-3.5v1.7h4.5v2.5h-7.9v1.5h7.1v8h1.1v2.4h-1.1
					v1.9c0,1.4-0.7,2.3-2.2,2.7c-1.1,0.3-2.3,0.5-3.4,0.5l-1.1-2.8l2.8-0.1c0.8,0,1.2-0.4,1.2-1.2v-1h-11.3v4.5h-2.8v-4.5h-1.1V860
					h1.1v-8h7v-1.5h-7.9v-2.5h4.3v-1.7h-3.4v-2.3h3.4v-1.7h-4.1v-2.4H193.3z M196.8,856v-1.7h-4.2v1.7H196.8z M196.8,860v-1.7h-4.2
					v1.7H196.8z M200.3,842.3h-4.2v1.7h4.2V842.3z M200.3,846.2h-4.2v1.7h4.2V846.2z M199.6,856h4.3v-1.7h-4.3V856z M199.6,860h4.3
					v-1.7h-4.3V860z"/>
				<path fill="#FFFFFF" d="M221.3,838.1c0.3,0.1,0.5,0.2,0.5,0.4c0,0.2-0.2,0.4-0.5,0.6l-1.4,2.8h4.8v9.1h-8.4v3h8.8v11.2h-2.8
					v-1.7h-6v3.1h-2.8v-24.7h3.5l1.9-4.5L221.3,838.1z M221.8,848.4v-3.9h-5.6v3.9H221.8z M222.2,861v-4.5h-6v4.5H222.2z
					 M241.7,839.7v2.7h-6.6v4.5h5.7v13.7c0,1.4-0.5,2.3-1.6,2.7c-0.8,0.3-1.7,0.5-2.5,0.5l-1.1-2.8l1.7-0.1c0.5,0,0.7-0.4,0.7-1.2
					v-10.2h-2.9V867h-2.9v-17.4h-2.9v14.1h-2.8v-16.8h5.7v-4.5h-6.5v-2.7H241.7z"/>
			</g>
		</g>
	</g>
</g>
</svg>
