<svg xmlns="http://www.w3.org/2000/svg" xmlns:xlink="http://www.w3.org/1999/xlink" viewBox="0 0 855.8 605.8"><defs><style>.cls-1,.cls-15,.cls-16,.cls-21,.cls-24,.cls-48{fill:none;}.cls-2{isolation:isolate;}.cls-3{fill:#cfebf8;}.cls-4{fill:#ebf6fb;}.cls-5{fill:#fdeeed;}.cls-6{clip-path:url(#clip-path);}.cls-28,.cls-30,.cls-7,.cls-9{fill:#cce7f3;stroke:#8bcae8;}.cls-15,.cls-16,.cls-19,.cls-20,.cls-22,.cls-24,.cls-25,.cls-28,.cls-29,.cls-48,.cls-7,.cls-8{stroke-miterlimit:10;}.cls-7,.cls-8,.cls-9{stroke-width:1.58px;}.cls-13,.cls-8{fill:#fdd762;}.cls-8{stroke:#f8b500;}.cls-19,.cls-21,.cls-30,.cls-9{stroke-linecap:round;}.cls-21,.cls-30,.cls-9{stroke-linejoin:round;}.cls-10{fill:#f7d8d7;}.cls-11{fill:#0d74b4;}.cls-12{fill:#fff;}.cls-14{fill:#e6e6e6;}.cls-15,.cls-16,.cls-48{stroke:#fff;}.cls-15{stroke-width:4.84px;}.cls-16{stroke-width:1.61px;}.cls-17{fill:#ecf4d9;}.cls-18{clip-path:url(#clip-path-2);}.cls-19{fill:#8bcae8;stroke:#42a9d9;}.cls-19,.cls-20,.cls-21,.cls-22,.cls-24,.cls-25{stroke-width:1.57px;}.cls-20{fill:#d68310;stroke:#ba6b41;}.cls-21{stroke:#0d74b4;}.cls-22{fill:#f4d064;stroke:#eb9d14;}.cls-23,.cls-25{fill:#edaf18;}.cls-24,.cls-25{stroke:#d68310;}.cls-26{fill:#fffaec;}.cls-27{clip-path:url(#clip-path-3);}.cls-28,.cls-29,.cls-30{stroke-width:1.77px;}.cls-29{fill:#e3807d;stroke:#dd5f60;}.cls-31{fill:#146ea8;}.cls-32{fill:#8fd3f3;}.cls-33{fill:#3e3a39;}.cls-34{fill:#fbb78b;}.cls-35{fill:#f7c7c6;}.cls-36{fill:#db9f7d;}.cls-37{fill:#eb6164;}.cls-38{fill:#0095d8;}.cls-39,.cls-51{fill:#007bc2;}.cls-39{opacity:0.21;mix-blend-mode:multiply;}.cls-40{fill:#c20034;}.cls-41{fill:#d15449;}.cls-42{fill:#ef8582;}.cls-43{fill:#ffebf1;}.cls-44{fill:#bfc0c0;opacity:0.6;}.cls-45{fill:#f1aba5;}.cls-46{fill:#fafafa;}.cls-47{fill:#005fa3;}.cls-48{stroke-width:0.78px;}.cls-49{fill:#666464;}.cls-50{fill:#ffe893;}</style><clipPath id="clip-path"><circle class="cls-1" cx="304.13" cy="99.84" r="58.65" transform="translate(18.48 244.29) rotate(-45)"/></clipPath><clipPath id="clip-path-2"><circle class="cls-1" cx="304.56" cy="267.67" r="58.65" transform="translate(-54.06 78.47) rotate(-13.5)"/></clipPath><clipPath id="clip-path-3"><circle class="cls-1" cx="304.13" cy="435.85" r="58.65" transform="translate(-219.12 342.71) rotate(-45)"/></clipPath></defs><title>banner</title><g class="cls-2"><g id="圖層_2" data-name="圖層 2"><g id="圖層_3" data-name="圖層 3"><path class="cls-3" d="M513.51,496.4H135.62V43.47c0-23.18,17.85-42.91,41-42.91l336.86.94Z"/><path class="cls-4" d="M670.68,40.35A40.36,40.36,0,0,0,630.32,0H212.66V.27L172.84.07c24.33,0,39.73,17.18,39.73,37.93l.09-.11V510.54a56.51,56.51,0,0,0,56.5,56.5H575.44l96.9-1.35Z"/><circle class="cls-5" cx="304.13" cy="99.84" r="58.65" transform="translate(18.48 244.29) rotate(-45)"/><g class="cls-6"><rect class="cls-7" x="274.11" y="147.11" width="11.87" height="22.49" rx="4.81" transform="translate(93.96 -104.08) rotate(25.17)"/><path class="cls-8" d="M272.88,159.64l-2.64,5.63-1.84-.86a5.06,5.06,0,0,0-4.31,9.15l8,3.77a5.08,5.08,0,0,0,6.73-2.43l4.8-10.21Z"/><rect class="cls-7" x="297.74" y="151.14" width="11.87" height="22.49" rx="4.81" transform="translate(120.98 -129.52) rotate(29.82)"/><path class="cls-8" d="M296.34,163.24l-3,5.24-1.77-1a5.06,5.06,0,0,0-5,8.78l7.68,4.4a5.07,5.07,0,0,0,6.9-1.88l5.52-9.62Z"/><path class="cls-7" d="M316.27,163.74a36,36,0,0,0,18.11-69.6A29.61,29.61,0,0,0,278,95.74a29.65,29.65,0,0,0-8.49,58.6Z"/><path class="cls-9" d="M255.56,110.13,248.9,98.32a4.44,4.44,0,0,1,1.68-6h0a4.44,4.44,0,0,1,6,1.68l6.65,11.82"/><path class="cls-9" d="M353.38,131.72l12.35-5.59a4.42,4.42,0,0,0,2.21-5.84h0a4.43,4.43,0,0,0-5.84-2.21l-12.36,5.59"/><circle class="cls-10" cx="278.85" cy="109.06" r="9.19"/><path class="cls-11" d="M290.68,114.28a.31.31,0,0,0-.39.32c.1,1.53.83,6.81,6.25,8.14a9.37,9.37,0,0,0,10.43-4,.31.31,0,0,0-.19-.47Z"/><path class="cls-12" d="M294.47,115.22l-.71,2.86a.45.45,0,0,0,.33.55l5.22,1.29a.46.46,0,0,0,.55-.33l.71-2.87Z"/><circle class="cls-10" cx="323.16" cy="119.15" r="9.19"/><ellipse class="cls-12" cx="292.1" cy="99.6" rx="7.81" ry="6.97" transform="translate(125.03 359.08) rotate(-76.05)"/><ellipse class="cls-12" cx="312.84" cy="104.01" rx="7.81" ry="6.97" transform="translate(136.49 382.56) rotate(-76.05)"/><ellipse class="cls-11" cx="292.04" cy="99.83" rx="4.88" ry="4.05" transform="translate(124.76 359.2) rotate(-76.05)"/><ellipse class="cls-11" cx="312.8" cy="104" rx="4.88" ry="4.05" transform="translate(136.47 382.51) rotate(-76.05)"/></g><path class="cls-13" d="M392.71,57l1.05,3.23a1.11,1.11,0,0,0,1,.76h3.4a1.09,1.09,0,0,1,.64,2l-2.75,2a1.09,1.09,0,0,0-.39,1.22l1.05,3.23a1.1,1.1,0,0,1-1.68,1.23l-2.76-2a1.08,1.08,0,0,0-1.28,0l-2.75,2a1.09,1.09,0,0,1-1.68-1.23l1-3.23a1.08,1.08,0,0,0-.4-1.22l-2.75-2a1.09,1.09,0,0,1,.64-2h3.41a1.08,1.08,0,0,0,1-.76L390.63,57A1.09,1.09,0,0,1,392.71,57Z"/><path class="cls-13" d="M415,57l1,3.23a1.11,1.11,0,0,0,1,.76h3.4a1.09,1.09,0,0,1,.64,2l-2.75,2a1.09,1.09,0,0,0-.39,1.22l1,3.23a1.1,1.1,0,0,1-1.68,1.23l-2.75-2a1.1,1.1,0,0,0-1.29,0l-2.75,2a1.1,1.1,0,0,1-1.68-1.23l1.05-3.23a1.08,1.08,0,0,0-.4-1.22l-2.75-2a1.09,1.09,0,0,1,.65-2h3.4a1.08,1.08,0,0,0,1-.76L412.91,57A1.09,1.09,0,0,1,415,57Z"/><path class="cls-13" d="M437.25,57l1.05,3.23a1.11,1.11,0,0,0,1,.76h3.4a1.09,1.09,0,0,1,.64,2l-2.75,2a1.09,1.09,0,0,0-.39,1.22l1.05,3.23a1.1,1.1,0,0,1-1.68,1.23l-2.75-2a1.1,1.1,0,0,0-1.29,0l-2.75,2a1.1,1.1,0,0,1-1.68-1.23l1.05-3.23A1.09,1.09,0,0,0,431.8,65L429,63a1.09,1.09,0,0,1,.65-2h3.4a1.11,1.11,0,0,0,1-.76L435.18,57A1.09,1.09,0,0,1,437.25,57Z"/><path class="cls-13" d="M459.52,57l1.05,3.23a1.11,1.11,0,0,0,1,.76H465a1.09,1.09,0,0,1,.65,2l-2.76,2a1.09,1.09,0,0,0-.39,1.22l1.05,3.23a1.1,1.1,0,0,1-1.68,1.23l-2.75-2a1.1,1.1,0,0,0-1.29,0l-2.75,2a1.1,1.1,0,0,1-1.68-1.23l1-3.23a1.09,1.09,0,0,0-.39-1.22l-2.75-2a1.09,1.09,0,0,1,.64-2h3.4a1.11,1.11,0,0,0,1-.76L457.45,57A1.09,1.09,0,0,1,459.52,57Z"/><path class="cls-14" d="M481.79,57l1.06,3.23a1.08,1.08,0,0,0,1,.76h3.4a1.09,1.09,0,0,1,.65,2l-2.75,2a1.08,1.08,0,0,0-.4,1.22l1.05,3.23a1.1,1.1,0,0,1-1.68,1.23l-2.75-2a1.1,1.1,0,0,0-1.29,0l-2.75,2a1.1,1.1,0,0,1-1.68-1.23l1.05-3.23a1.09,1.09,0,0,0-.39-1.22l-2.75-2a1.09,1.09,0,0,1,.64-2h3.4a1.11,1.11,0,0,0,1-.76L479.72,57A1.09,1.09,0,0,1,481.79,57Z"/><rect class="cls-12" x="375.34" y="79.44" width="130.83" height="13.95" rx="5.69"/><rect class="cls-15" x="581.15" y="107.78" width="44.01" height="44.01"/><line class="cls-16" x1="235.46" y1="180.78" x2="621.93" y2="180.78"/><line class="cls-15" x1="376.09" y1="111" x2="550.01" y2="111"/><line class="cls-15" x1="376.09" y1="130.33" x2="550.01" y2="130.33"/><line class="cls-15" x1="376.09" y1="150.43" x2="550.01" y2="150.43"/><circle class="cls-17" cx="304.13" cy="267.31" r="58.65" transform="translate(-99.94 293.34) rotate(-45)"/><g class="cls-18"><rect class="cls-19" x="286.32" y="316.2" width="13.57" height="25.71" rx="4.8"/><path class="cls-20" d="M286.32,332.84v9.71H284a5.78,5.78,0,1,0,0,11.56h10.12a5.78,5.78,0,0,0,5.78-5.78V332.84Z"/><rect class="cls-19" x="313.05" y="315.22" width="13.57" height="25.71" rx="4.8" transform="translate(-31.41 33.87) rotate(-5.78)"/><path class="cls-20" d="M313.31,332.53l1,9.66-2.31.24a5.78,5.78,0,1,0,1.16,11.5l10.07-1a5.79,5.79,0,0,0,5.17-6.33l-1.56-15.41Z"/><path class="cls-19" d="M328.56,327a41.17,41.17,0,0,0,4.62-82.09,33.83,33.83,0,0,0-29.12-16.62c-17.79,0-32.07,9.56-33.49,27-17,1.84-30.47,20.36-30.47,37.83A33.89,33.89,0,0,0,274,327Z"/><path class="cls-21" d="M314,283.2s-4,7.86-12.34,5.37"/><path class="cls-11" d="M313.41,276.43c-4-2.27-9.38,0-10.59.55a.62.62,0,0,1-.5,0,18.32,18.32,0,0,0-8.38-.75c-3.53.56-6.4,4.08-7.54,5.81a.7.7,0,0,0,.49,1.09c2.86.34,10.91,1,13.94-1.94,1.3-1.27,1.48-1.68,1.83-2l.13.13s2.64,3.64,9.86,4.31a11.33,11.33,0,0,0,7.37-1.64.71.71,0,0,0,.05-1.14A51,51,0,0,0,313.41,276.43Z"/><path class="cls-22" d="M300.27,306.22l-3,20.64a1.13,1.13,0,0,0,.34,1l6.38,6a1.1,1.1,0,0,0,1.51,0l6.57-6.09a1.12,1.12,0,0,0,.34-1L309,306.2a1.12,1.12,0,0,0-1.1-.93h-6.54A1.12,1.12,0,0,0,300.27,306.22Z"/><path class="cls-22" d="M301.31,241.15a.79.79,0,0,1-1,.15c-1.67-1-7-3.2-13.35,5.63-6.26,8.67-20,10.45-24,10.78a.78.78,0,0,1-.83-1c1.11-4.5,6.81-22.37,28.42-29.35,15.57-5,29.71-1.83,38.65,4.89a158.42,158.42,0,0,1,17.29,15.8.8.8,0,0,1-.46,1.33,48.18,48.18,0,0,1-35.5-9.19C306,236.84,302.51,239.84,301.31,241.15Z"/><ellipse class="cls-12" cx="291.07" cy="266.88" rx="7.96" ry="8.93"/><ellipse class="cls-12" cx="315.3" cy="266.88" rx="7.96" ry="8.93"/><ellipse class="cls-11" cx="288.93" cy="268.53" rx="4.03" ry="4.85"/><ellipse class="cls-11" cx="313.44" cy="268.53" rx="4.03" ry="4.85"/><path id="FontAwsome_clock_" data-name="FontAwsome clock " class="cls-23" d="M304.4,316.57a5.48,5.48,0,1,0,7.1,3.13A5.49,5.49,0,0,0,304.4,316.57Zm4,6.76-2.33-.62a.26.26,0,0,1-.18-.16l-1.34-3.47a.27.27,0,0,1,.15-.34l1-.38a.26.26,0,0,1,.35.15l1.09,2.83,1.68.45a.26.26,0,0,1,.19.32h0l-.27,1a.28.28,0,0,1-.33.19Z"/><path class="cls-11" d="M287.56,256.47c-1.12.88-.25.18.05,0s.87-.47,1.11-.56a8.83,8.83,0,0,1,5-.41c3.7.71,5.29-5,1.57-5.68a14.42,14.42,0,0,0-11.86,2.46c-1.24,1-1,3.13,0,4.17a3,3,0,0,0,4.17,0Z"/><path class="cls-11" d="M315.3,255.88h.57c.22,0,.45,0,.66.06-.62-.08.44.11.57.14a9.14,9.14,0,0,1,4.46,2.68c2.65,2.72,6.81-1.45,4.17-4.17s-6.55-4.84-10.43-4.6-3.8,6.13,0,5.89Z"/><path class="cls-19" d="M261.51,290.26,252.68,280a4.41,4.41,0,0,1,.46-6.21h0a4.41,4.41,0,0,1,6.21.46l8.83,10.24"/><path class="cls-19" d="M334.82,295.4l7.89,11a4.41,4.41,0,0,0,6.14,1h0a4.41,4.41,0,0,0,1-6.15l-7.88-11"/><path class="cls-24" d="M300.27,306.22l-3,20.64a1.13,1.13,0,0,0,.34,1l6.38,6a1.1,1.1,0,0,0,1.51,0l6.57-6.09a1.12,1.12,0,0,0,.34-1L309,306.2a1.12,1.12,0,0,0-1.1-.93h-6.54A1.12,1.12,0,0,0,300.27,306.22Z"/><path class="cls-25" d="M300.55,306.58a7.87,7.87,0,0,1,8,0,.78.78,0,0,0,1.1-.45l1.78-4.22a1.21,1.21,0,0,0-.33-1.34,9.79,9.79,0,0,0-6.6-2.77,10.52,10.52,0,0,0-6.88,2.59,1.25,1.25,0,0,0-.29,1.41l2.18,4.38A.74.74,0,0,0,300.55,306.58Z"/></g><path class="cls-13" d="M392.71,224.48l1.05,3.23a1.11,1.11,0,0,0,1,.76h3.4a1.09,1.09,0,0,1,.64,2l-2.75,2a1.09,1.09,0,0,0-.39,1.22l1.05,3.23a1.1,1.1,0,0,1-1.68,1.23l-2.76-2a1.08,1.08,0,0,0-1.28,0l-2.75,2a1.09,1.09,0,0,1-1.68-1.23l1-3.23a1.08,1.08,0,0,0-.4-1.22l-2.75-2a1.09,1.09,0,0,1,.64-2h3.41a1.08,1.08,0,0,0,1-.76l1.05-3.23A1.09,1.09,0,0,1,392.71,224.48Z"/><path class="cls-13" d="M415,224.48l1,3.23a1.11,1.11,0,0,0,1,.76h3.4a1.09,1.09,0,0,1,.64,2l-2.75,2a1.09,1.09,0,0,0-.39,1.22l1,3.23a1.1,1.1,0,0,1-1.68,1.23l-2.75-2a1.1,1.1,0,0,0-1.29,0l-2.75,2a1.1,1.1,0,0,1-1.68-1.23l1.05-3.23a1.08,1.08,0,0,0-.4-1.22l-2.75-2a1.09,1.09,0,0,1,.65-2h3.4a1.08,1.08,0,0,0,1-.76l1.06-3.23A1.09,1.09,0,0,1,415,224.48Z"/><path class="cls-13" d="M437.25,224.48l1.05,3.23a1.11,1.11,0,0,0,1,.76h3.4a1.09,1.09,0,0,1,.64,2l-2.75,2a1.09,1.09,0,0,0-.39,1.22l1.05,3.23a1.1,1.1,0,0,1-1.68,1.23l-2.75-2a1.1,1.1,0,0,0-1.29,0l-2.75,2a1.1,1.1,0,0,1-1.68-1.23l1.05-3.23a1.09,1.09,0,0,0-.39-1.22l-2.76-2a1.09,1.09,0,0,1,.65-2h3.4a1.11,1.11,0,0,0,1-.76l1.05-3.23A1.09,1.09,0,0,1,437.25,224.48Z"/><path class="cls-13" d="M459.52,224.48l1.05,3.23a1.11,1.11,0,0,0,1,.76H465a1.09,1.09,0,0,1,.65,2l-2.76,2a1.09,1.09,0,0,0-.39,1.22l1.05,3.23a1.1,1.1,0,0,1-1.68,1.23l-2.75-2a1.1,1.1,0,0,0-1.29,0l-2.75,2a1.1,1.1,0,0,1-1.68-1.23l1-3.23a1.09,1.09,0,0,0-.39-1.22l-2.75-2a1.09,1.09,0,0,1,.64-2h3.4a1.11,1.11,0,0,0,1-.76l1.05-3.23A1.09,1.09,0,0,1,459.52,224.48Z"/><path class="cls-13" d="M481.79,224.48l1.06,3.23a1.08,1.08,0,0,0,1,.76h3.4a1.09,1.09,0,0,1,.65,2l-2.75,2a1.08,1.08,0,0,0-.4,1.22l1.05,3.23a1.1,1.1,0,0,1-1.68,1.23l-2.75-2a1.1,1.1,0,0,0-1.29,0l-2.75,2a1.1,1.1,0,0,1-1.68-1.23l1.05-3.23a1.09,1.09,0,0,0-.39-1.22l-2.75-2a1.09,1.09,0,0,1,.64-2h3.4a1.11,1.11,0,0,0,1-.76l1.05-3.23A1.09,1.09,0,0,1,481.79,224.48Z"/><rect class="cls-12" x="375.34" y="246.91" width="130.83" height="13.95" rx="5.69"/><rect class="cls-15" x="581.15" y="275.25" width="44.01" height="44.01"/><line class="cls-16" x1="235.46" y1="348.25" x2="621.93" y2="348.25"/><line class="cls-15" x1="376.09" y1="278.47" x2="550.01" y2="278.47"/><line class="cls-15" x1="376.09" y1="297.8" x2="550.01" y2="297.8"/><line class="cls-15" x1="376.09" y1="317.12" x2="550.01" y2="317.12"/><circle class="cls-26" cx="304.13" cy="435.85" r="58.65" transform="translate(-219.12 342.71) rotate(-45)"/><g class="cls-27"><rect class="cls-28" x="295.51" y="488.3" width="13.33" height="25.25" rx="5.4" transform="translate(22.88 -13.11) rotate(2.58)"/><path class="cls-29" d="M295.3,505.34l-.31,7-2.28-.11a5.68,5.68,0,1,0-.51,11.35l9.92.45a5.69,5.69,0,0,0,5.93-5.42l.57-12.65Z"/><rect class="cls-28" x="321.1" y="488.12" width="13.33" height="25.25" rx="5.4" transform="translate(-72.84 56.12) rotate(-8.81)"/><path class="cls-29" d="M321.94,506.64l1,6.7-2.25.35a5.68,5.68,0,1,0,1.74,11.23l9.81-1.53a5.68,5.68,0,0,0,4.75-6.48l-1.91-12.31Z"/><path class="cls-28" d="M338.41,498.55A40.44,40.44,0,0,0,343,417.92a33.25,33.25,0,0,0-61.76,14.25,33.29,33.29,0,0,0,3.63,66.38Z"/><path class="cls-30" d="M261.51,456.68l-9.95-11.53a5,5,0,0,1,.52-7h0a5,5,0,0,1,7,.52L269,450.2"/><path class="cls-30" d="M368.28,455.74l12.37-8.87a5,5,0,0,0,1.13-6.92h0a5,5,0,0,0-6.92-1.14l-12.37,8.88"/><ellipse class="cls-12" cx="303.3" cy="439.77" rx="8.77" ry="7.82" transform="translate(-149.68 722.95) rotate(-87.42)"/><ellipse class="cls-12" cx="327.11" cy="440.04" rx="8.77" ry="7.82" transform="translate(-127.22 746.99) rotate(-87.42)"/><path class="cls-11" d="M306.09,452.62a.35.35,0,0,0-.36.44c.45,1.66,2.43,7.3,8.68,7.58A10.53,10.53,0,0,0,325,453.9a.36.36,0,0,0-.32-.48Z"/><path class="cls-12" d="M310.47,452.81l-.14,3.31a.5.5,0,0,0,.48.53l6,.26a.5.5,0,0,0,.53-.48l.14-3.32Z"/><circle class="cls-10" cx="289.98" cy="454.97" r="10.32"/><circle class="cls-10" cx="341.92" cy="454.97" r="10.32"/><path class="cls-31" d="M301.79,434.88l1.53-3.88,1.5,3.87a9,9,0,0,0,3.59,3.59l2.76,1.5-2.78,1.53a9.26,9.26,0,0,0-3.62,3.62l-1.53,3.56-1.5-3.54a8.93,8.93,0,0,0-3.59-3.59l-2.76-1.5,2.78-1.53A9.22,9.22,0,0,0,301.79,434.88Z"/><path class="cls-31" d="M325.65,435l1.53-3.89,1.5,3.87a9,9,0,0,0,3.59,3.59L335,440l-2.78,1.53a9.26,9.26,0,0,0-3.62,3.62l-1.53,3.56-1.5-3.54a9,9,0,0,0-3.59-3.59l-2.76-1.5,2.78-1.53A9.26,9.26,0,0,0,325.65,435Z"/></g><path class="cls-13" d="M392.71,393l1.05,3.24a1.1,1.1,0,0,0,1,.75h3.4a1.09,1.09,0,0,1,.64,2l-2.75,2a1.09,1.09,0,0,0-.39,1.22l1.05,3.24a1.09,1.09,0,0,1-1.68,1.22l-2.76-2a1.08,1.08,0,0,0-1.28,0l-2.75,2a1.09,1.09,0,0,1-1.68-1.22l1-3.24a1.08,1.08,0,0,0-.4-1.22l-2.75-2a1.1,1.1,0,0,1,.64-2h3.41a1.07,1.07,0,0,0,1-.75l1.05-3.24A1.1,1.1,0,0,1,392.71,393Z"/><path class="cls-13" d="M415,393l1,3.24a1.1,1.1,0,0,0,1,.75h3.4a1.09,1.09,0,0,1,.64,2l-2.75,2a1.09,1.09,0,0,0-.39,1.22l1,3.24a1.09,1.09,0,0,1-1.68,1.22l-2.75-2a1.1,1.1,0,0,0-1.29,0l-2.75,2a1.09,1.09,0,0,1-1.68-1.22l1.05-3.24a1.08,1.08,0,0,0-.4-1.22l-2.75-2a1.1,1.1,0,0,1,.65-2h3.4a1.07,1.07,0,0,0,1-.75l1.06-3.24A1.09,1.09,0,0,1,415,393Z"/><path class="cls-13" d="M437.25,393l1.05,3.24a1.1,1.1,0,0,0,1,.75h3.4a1.09,1.09,0,0,1,.64,2l-2.75,2a1.09,1.09,0,0,0-.39,1.22l1.05,3.24a1.09,1.09,0,0,1-1.68,1.22l-2.75-2a1.1,1.1,0,0,0-1.29,0l-2.75,2a1.09,1.09,0,0,1-1.68-1.22l1.05-3.24a1.09,1.09,0,0,0-.39-1.22L429,399a1.1,1.1,0,0,1,.65-2h3.4a1.1,1.1,0,0,0,1-.75l1.05-3.24A1.09,1.09,0,0,1,437.25,393Z"/><path class="cls-14" d="M459.52,393l1.05,3.24a1.1,1.1,0,0,0,1,.75H465a1.1,1.1,0,0,1,.65,2l-2.76,2a1.09,1.09,0,0,0-.39,1.22l1.05,3.24a1.09,1.09,0,0,1-1.68,1.22l-2.75-2a1.1,1.1,0,0,0-1.29,0l-2.75,2a1.09,1.09,0,0,1-1.68-1.22l1-3.24a1.09,1.09,0,0,0-.39-1.22l-2.75-2a1.09,1.09,0,0,1,.64-2h3.4a1.1,1.1,0,0,0,1-.75l1.05-3.24A1.09,1.09,0,0,1,459.52,393Z"/><path class="cls-14" d="M481.79,393l1.06,3.24a1.07,1.07,0,0,0,1,.75h3.4a1.1,1.1,0,0,1,.65,2l-2.75,2a1.08,1.08,0,0,0-.4,1.22l1.05,3.24a1.09,1.09,0,0,1-1.68,1.22l-2.75-2a1.1,1.1,0,0,0-1.29,0l-2.75,2a1.09,1.09,0,0,1-1.68-1.22l1.05-3.24a1.09,1.09,0,0,0-.39-1.22l-2.75-2a1.09,1.09,0,0,1,.64-2h3.4a1.1,1.1,0,0,0,1-.75l1.05-3.24A1.09,1.09,0,0,1,481.79,393Z"/><rect class="cls-12" x="375.34" y="415.46" width="130.83" height="13.95" rx="5.69"/><rect class="cls-15" x="581.15" y="443.8" width="44.01" height="44.01"/><line class="cls-16" x1="235.46" y1="516.8" x2="621.93" y2="516.8"/><line class="cls-15" x1="376.09" y1="447.02" x2="550.01" y2="447.02"/><line class="cls-15" x1="376.09" y1="466.34" x2="550.01" y2="466.34"/><line class="cls-15" x1="376.09" y1="485.66" x2="550.01" y2="485.66"/><path class="cls-32" d="M261.76,567.25c15.12,0,37-20.31,37-35.42H715.87s-1.61,35.42-41.87,35.42H261.76"/><path class="cls-33" d="M747.94,275,718.1,146.45c-.41-3.36,5.66-11.39,8.6-13.08,8.06-4.62,18-5.28,27.1-3.39,29.65,6.16,54.84,124.66,49.89,121.81,0,0-44.49,23.23-58.88,13.78"/><path class="cls-34" d="M750.31,157.59a.79.79,0,0,0,.79.82c1.87,0,6.18-.41,6.79,4.48s-4.09,7.72-6.93,7.88c-.81,0-2.7.21-3.26.81-1.7,1.86-2.5,5.91-3.81,11-2.9,11.16,5.86,16.25,5.86,16.25s-29.22,14.37-29,0c0,0,2.31-26.5,2.18-26.63-2.29-2.28-11.15-3.26-5.57-22.15,5.16-17.49,18-16.25,21.25-15.67C741.42,134.8,751,135.4,750.31,157.59Z"/><path class="cls-33" d="M729.63,132.59s17.94,23.71,21.06,25.68C750.69,158.27,762.92,129.33,729.63,132.59Z"/><path class="cls-35" d="M755.77,164.31s-2.94-6.2-6.67,2.1"/><path class="cls-36" d="M723,172.13s8.34,1.59,12.55,1.32S718.66,197.39,723,172.13Z"/><ellipse class="cls-32" cx="768.69" cy="598.59" rx="87.1" ry="7.22"/><path class="cls-34" d="M724.05,557.68l.47,21.55s-4.87,14.29-9.39,8.76a44.78,44.78,0,0,0-9-8.46l8.65-22.4Z"/><path class="cls-34" d="M804.07,556l2.21,21.49s5.1,4.48,7,4.36c3.35-.21,5.1-6,5.1-6l.56-19.86Z"/><path class="cls-37" d="M704.65,579.42l-18,14.63c-.92.69-.26,1.84,1.06,1.85l26.64.22a1.56,1.56,0,0,0,1.43-.73l2-4.12c.58-1.19,1.73-1.28,1.63,0l1,4c-.05.63,6.32.46,6.38-.11a112.8,112.8,0,0,0-1-18.32,1.32,1.32,0,0,0-1.19-.92h0a1.76,1.76,0,0,0-1.49.41c-1.8,1.74-7.55,7-10.61,5.91a22.51,22.51,0,0,1-5.55-2.71A1.87,1.87,0,0,0,704.65,579.42Z"/><path class="cls-37" d="M818.58,575.15l10.25,17.16c1.09,1.67.49,3.66-1.49,4.84-3.21,1.91-5.82,5.71-7.84,5.77-3.64.1-9.31-3.74-12.61-5.18-2.21-1-3.95-2.38-3.67-4.23l2.54-17.22c0-.21.41-.29.6-.12l3.92,3.55c1.29,1.17,4.77,1,5.64-.38.62-1,2.07-4.21,2.07-4.21A.4.4,0,0,1,818.58,575.15Z"/><path class="cls-38" d="M764.23,272.87c8.27,14.63,12.65,25.34,17.4,43.93,5.51,21.57,65.18,204,67.79,243.22-6.8,1.64-51.93,1.4-56.23,1.16-13.66-39.15-48.22-166.3-54.08-191-.9-3.79-6.76-3-6.3.91,3.32,28.16,21.24,146.8,30.17,190.12-3.57,1.82-55.31,1.41-59.43.9-4.48-48.31-28.23-231.19,7.63-290.47C727.58,269.42,747.6,272.37,764.23,272.87Z"/><path class="cls-39" d="M711.42,279.05,779,329.9s2.82-27.44-9.18-50Z"/><path class="cls-40" d="M742.81,193.06s4.28-1.23,3.57-.32a17.84,17.84,0,0,1-3.75,2.93Z"/><path class="cls-41" d="M784.3,360.54c0-.36.36-4.18.36-4.18l-1.73,5.49Z"/><path class="cls-34" d="M646.44,232.48s44.13,61.21,54.48,53.92c0,0,11.86-8.38,5.9-42.58,0-3.32,0-5.62.09-6.14,0,0,2.56-33.76,8.11-40.75.61-.77,2.45-2.2,2.2-2.26-16.94-4.24-23.43,38.37-28.1,58.08-.2.82-32.55-30.69-32.55-30.69s-16.94-22.4-18.13-21.12c-1.71,1.85,4.86,11.85,4.86,11.85a3.37,3.37,0,0,1-1.72,1.71,4.07,4.07,0,0,0-2.42,3.14c-.43,1.71-2.14,2.71-2.43,3.71S642.82,229.87,646.44,232.48Z"/><path class="cls-34" d="M656,221.92s-3.42-9.71-4.85-9.42-7.71,3-7.57,5.42,5.57.43,5.57.43-1,5.43,1.71,6.14S656,221.92,656,221.92Z"/><path class="cls-42" d="M717.22,194.67s-11-1.54-15.35,7.41S687.79,251,687.79,251l-27-25.88-10.47,19s38.45,48.54,49.49,45.11S717.35,206.87,717.22,194.67Z"/><path class="cls-42" d="M715.46,196.56c.48,1.15-13.6,34.71-13,46.07s8.38,30.69,7.78,32.41c0,0,8.87,7,57.84-.71,15.06-13.17,1.83-57.94-3.23-72.11,0,0-9.63-4.82-13.78-5.13A66,66,0,0,1,715.46,196.56Z"/><path class="cls-43" d="M751.16,197,744.22,188a90.93,90.93,0,0,1-20.67,10.21l.22,3.25a8.61,8.61,0,0,0,13,6.87C742.48,204.93,748.66,200.73,751.16,197Z"/><path class="cls-43" d="M721.89,187.47s-2.07,7.86,1.83,10.86l-1.12,2.72a3.69,3.69,0,0,1-7.17-.85,15.37,15.37,0,0,1,.1-4.08Z"/><path class="cls-13" d="M756.79,376.74l63.27-40.54-26.25-41-54.66,35a10.24,10.24,0,0,0-3.1,14.14Z"/><path class="cls-44" d="M779.22,303.28s10.2,4.74,2.32,33.66a10.9,10.9,0,0,0-.47,4.83l1.78,12.42c.26,1.33.44,3.12-.69,3.87-1.41.94-9.47,8.34-10.44,8.67-2,.66.18-9.16-.15-14.34-.06-.92-.28,3.28-.4,5.12l-.24,4c-2.41-1.1-2.36-5.74-2.74-7.31a6.09,6.09,0,0,1,.15-3.94c1.1-2.29,3.2-6.84,3.52-10.93.19-2.4-1.49-11.33-2.88-28Z"/><path class="cls-45" d="M780.52,232.91c18.91,105.61,6.63,125.67,5.39,126.49-1.55,1-10.37,9.14-11.45,9.5-2.18.73.2-10-.15-15.71-.07-1-.31,3.59-.44,5.6l-.27,4.43c-2.64-1.21-2.59-6.29-3-8a6.61,6.61,0,0,1,.17-4.32c1.2-2.51,3.5-7.5,3.85-12,.21-2.64-17.71-88.42-20.86-101-4.28-17.13,1.11-36.8,7.14-37.46C768.38,199.61,779,224.16,780.52,232.91Z"/><path class="cls-42" d="M793.8,332.84c-.76-3.24,3.31-64.85-10.43-105.16-6.15-18-15-28.07-22.47-27.24-6,.66-11.42,20.33-7.14,37.46,3.15,12.6,9.78,68.86,15.3,97.6Z"/><path class="cls-13" d="M768.8,116.19l12.6-12.6h47.43a17.48,17.48,0,0,0,17.48-17.48V82.32a17.49,17.49,0,0,0-17.48-17.48H786.28A17.49,17.49,0,0,0,768.8,82.32Z"/><path class="cls-46" d="M821.12,83.73a4.36,4.36,0,1,0,4.36-4.36A4.36,4.36,0,0,0,821.12,83.73Z"/><path class="cls-46" d="M805.13,83.73a4.36,4.36,0,1,0,4.36-4.36A4.36,4.36,0,0,0,805.13,83.73Z"/><path class="cls-46" d="M789.15,83.73a4.36,4.36,0,1,0,4.36-4.36A4.36,4.36,0,0,0,789.15,83.73Z"/><ellipse class="cls-32" cx="115.64" cy="571.88" rx="87.1" ry="7.22"/><polygon class="cls-34" points="154.44 549.54 151.33 543.4 132.81 544.07 132.39 549.54 141.09 564.63 156.75 552.56 154.44 549.54"/><path class="cls-47" d="M155.55,549.33s-5.44-.11-11.77,4.7c-3.76,2.85-9.46-3-11.2-4.57-.36-.31-.84,0-.9.52l-2.19,19.94H184.6a1.37,1.37,0,0,0,1.16-1.51v-4.2a1.54,1.54,0,0,0-.79-1.43Z"/><line class="cls-48" x1="158.65" y1="550.37" x2="149.78" y2="555.51"/><line class="cls-48" x1="162.52" y1="552.35" x2="153.64" y2="557.48"/><polygon class="cls-34" points="64.65 549.54 61.54 543.4 44.55 540.85 42.61 549.54 51.31 564.63 66.97 552.56 64.65 549.54"/><path class="cls-47" d="M65.77,549.33S60.33,549.22,54,554c-3.77,2.85-9.46-3-11.2-4.57-.36-.31-.84,0-.9.52l-2.19,19.94h55.1A1.37,1.37,0,0,0,96,568.41v-4.2a1.52,1.52,0,0,0-.79-1.43Z"/><line class="cls-48" x1="70.11" y1="550.77" x2="61.24" y2="555.9"/><line class="cls-48" x1="73.98" y1="552.75" x2="65.11" y2="557.88"/><path class="cls-49" d="M131.66,99.8c3.83-6.1,5.08-15.21-1.61-19.27a9.69,9.69,0,0,0-11.12,1,13.86,13.86,0,0,0-3.4,4.35,7,7,0,0,0-5.86-3.17c-2.13,0-4.62,1.68-6.19,3.82a12.56,12.56,0,0,0-6.43-.27c-4.73,1.19-5.57,7.4-3,11.05-3.37,4.51-4.33,10.83.46,26.58l0,.17,6.52,3.51.19-.38h0l.19-.37-.51-.27,6.5-21c.83-.58,6.23-4.15,9.05-2s6.16,4.37,8.73,3.35a7.66,7.66,0,0,0,2.93-2.63A8.7,8.7,0,0,0,131.66,99.8Zm-2.85-17.1a7.46,7.46,0,0,1,3.57,6.6c-1.12-5.25-6.07-7.79-11-6.45A7.14,7.14,0,0,1,128.81,82.7ZM96.73,124a6.89,6.89,0,0,1,2.85,1.75L98.17,125Z"/><path class="cls-50" d="M151,308.25s7.09,84.77,7.76,108.19-4,127.85-4,127.85l-29.48.52S104.64,369.63,76,313.14Z"/><path class="cls-13" d="M151.05,308.25s-16.38,70.66-33,120.66c-13.44,40.4-43.23,117.76-43.23,117.76l-33.06-.82L70.44,430.11a100.37,100.37,0,0,0,2.88-18.41C74.8,388.22,70,340.78,68,310.39Z"/><path class="cls-34" d="M111.43,174.88s-.93-7.61,6.1-8.72,26-6.13,74.19,10.33c0,0,8.34-46.67,8.43-50.44.21-9.83,4.94-23.66,12.54-30.39.62-.56.3,25.4.57,38.69,0,0,5.58,67-2.25,73.72S103.65,197.81,111.43,174.88Z"/><path class="cls-51" d="M125.68,163.3s-27.2-4.52-26.41,16.7,53.8,35.6,68.2,32.16L163,165Z"/><path class="cls-47" d="M167.26,211.47c-4.23,5.08-45.61-5.58-50.15-12.49,0,0-.71-23.16,1.06-23.64C136.13,170.47,167.26,211.47,167.26,211.47Z"/><path class="cls-51" d="M87,160.9s-37,3.78-39.35,34.44S64.46,310.89,64.46,310.89l92.72-2.95-5.07-105.36a44.57,44.57,0,0,0-7-21.92c-3.87-6-8.41-12.9-11-13.22L92.65,156.77Z"/><path class="cls-47" d="M79.34,172.44c-22.49-9-30.53,7.57-31.7,22.9C45.31,226,64.46,310.89,64.46,310.89l92.72-2.95"/><path class="cls-12" d="M128.35,267.74c.2,1.61,0,3-.58,3.05s-1.12-1.18-1.33-2.79,0-3,.57-3.06S128.14,266.12,128.35,267.74Z"/><path class="cls-34" d="M98.64,133.17,96.48,154,118,171.92l3.17-9.3-1.67-17.22-17.31-15.67a17.06,17.06,0,0,0-3,2.58A3.61,3.61,0,0,1,98.64,133.17Z"/><path class="cls-36" d="M102.14,129.73l17.31,15.67,1.23,10.25s-15.72-4.33-16.27-17.32"/><path class="cls-12" d="M121.14,185.37c.21,1.62,0,3-.57,3.06s-1.13-1.18-1.34-2.8,0-3,.58-3S120.93,183.76,121.14,185.37Z"/><path class="cls-12" d="M122.58,201.85c.21,1.61,0,3-.57,3.05s-1.13-1.18-1.33-2.8,0-3,.57-3S122.37,200.23,122.58,201.85Z"/><path class="cls-12" d="M124,218.32c.21,1.61,0,3-.57,3.05s-1.12-1.18-1.33-2.79,0-3,.57-3.06S123.81,216.7,124,218.32Z"/><path class="cls-12" d="M125.46,234.79c.21,1.62,0,3-.57,3.06s-1.12-1.19-1.33-2.8,0-3,.57-3.05S125.25,233.18,125.46,234.79Z"/><path class="cls-12" d="M126.9,251.26c.21,1.62,0,3-.57,3.06s-1.12-1.18-1.33-2.8,0-3,.57-3.05S126.7,249.65,126.9,251.26Z"/><path class="cls-12" d="M129.79,284.21c.21,1.62,0,3-.58,3.05s-1.12-1.18-1.33-2.79.05-3,.58-3.06S129.58,282.59,129.79,284.21Z"/><path class="cls-12" d="M131.23,300.68c.21,1.62,0,3-.58,3.06s-1.12-1.18-1.33-2.8.05-3,.58-3.05S131,299.07,131.23,300.68Z"/><polygon class="cls-12" points="95.81 152.46 84.37 157.8 112.96 182.08 117.95 171.92 95.81 152.46"/><path class="cls-12" d="M121.12,160.38c.5.18,5,3.28,5,3.28l.17,15.32L118,171.92Z"/><path class="cls-38" d="M146.25,266.72,166.88,202A12.87,12.87,0,0,1,174,194l42.25-18.25a1.6,1.6,0,0,1,2.1,2l-20.85,63.43a12.84,12.84,0,0,1-6.74,7.68l-42.36,19.8A1.59,1.59,0,0,1,146.25,266.72Z"/><path class="cls-12" d="M149.79,270.51l20.64-64.76a12.86,12.86,0,0,1,7.11-7.94l42.25-18.25a1.6,1.6,0,0,1,2.1,2L201,245a12.89,12.89,0,0,1-6.74,7.68L151.94,272.5A1.6,1.6,0,0,1,149.79,270.51Z"/><polygon class="cls-4" points="162.28 255.09 201.4 237.96 198.85 246.16 159 264.03 162.28 255.09"/><path class="cls-34" d="M176.09,234.51c-2.28,2.05-43.29,44.11-62.95,63.06A11.17,11.17,0,0,1,95.61,295L61.08,237.12,93.8,211.73c.23.36,17.34,29.43,21.27,44,1.3,4.79,3.54,4.42,7.43,2l29.87-18.41s-.06-5.22.61-7.19c1.26-3.75,7.25-8.79,7.25-8.79l-2.6,8c-.46,1.34-2,2.31.42,2.6l19-14s1.73-.14.09,1.72-3.41,3.82-3.18,4,5.41-3.49,5.64-2.1-4.23,4.75-4.05,4.89,5.05-3.86,5.32-2.56-3.41,3.82-3.59,4.33,4-2.7,4.19-2S177.4,233.33,176.09,234.51Z"/><path class="cls-51" d="M85.14,186s-9.32-26.18-27.3-15.16-4.66,64.76,5.32,75.78l38.63-26.87Z"/><path class="cls-34" d="M100.46,123.92a.8.8,0,0,1-1.31.31c-1.41-1.39-4.21-3.29-5.22,2.23-1.37,7.48,6.44,6.19,7.07,7.2,1.26,2,5.3,8.9,11.34,11.57,3.68,1.62,9.12,1.88,13.14-2s5.81-1.21,4.13-42.44c0,0-1.84,3.55-4.49,4.47s-6.88-2.76-9.9-3.6c-2.44-.68-7.19-2.47-10.09,6C103.8,111.63,101.68,120.68,100.46,123.92Z"/><path class="cls-13" d="M77.64,76.42,65,63.8H17.51A17.51,17.51,0,0,1,0,46.29v-3.8A17.51,17.51,0,0,1,17.51,25H60.13A17.51,17.51,0,0,1,77.64,42.49Z"/><circle class="cls-46" cx="20.86" cy="43.91" r="4.37"/><path class="cls-46" d="M41.24,43.91a4.37,4.37,0,1,1-4.36-4.37A4.36,4.36,0,0,1,41.24,43.91Z"/><circle class="cls-46" cx="52.89" cy="43.91" r="4.37"/></g></g></g></svg>