<?xml version="1.0" encoding="utf-8"?>
<!-- Generator: Adobe Illustrator 21.1.0, SVG Export Plug-In . SVG Version: 6.00 Build 0)  -->
<svg version="1.1" id="圖層_1" xmlns="http://www.w3.org/2000/svg" xmlns:xlink="http://www.w3.org/1999/xlink" x="0px" y="0px"
	 viewBox="0 0 1080 1080" style="enable-background:new 0 0 1080 1080;" xml:space="preserve">
<style type="text/css">
	.st0{opacity:0.8;fill:#FFFFFF;enable-background:new    ;}
	.st1{clip-path:url(#SVGID_2_);fill:#FFFFFF;}
	.st2{clip-path:url(#SVGID_4_);}
	.st3{fill:#FFF3D6;}
	.st4{fill:#FFF2C2;}
	.st5{clip-path:url(#SVGID_6_);}
	.st6{fill:#F3FAFE;stroke:#F3FAFE;stroke-width:1.8915;stroke-miterlimit:10;}
	.st7{clip-path:url(#SVGID_8_);}
	.st8{fill:#F3FAFE;}
	.st9{clip-path:url(#SVGID_10_);}
	.st10{fill:#EBF6FB;}
	.st11{fill:#FFFFFF;}
	.st12{opacity:0.3;clip-path:url(#SVGID_12_);}
	.st13{fill:#CFEBF8;}
	.st14{clip-path:url(#SVGID_14_);}
	.st15{fill:#F7C7C6;}
	.st16{fill:none;stroke:#F7C7C6;stroke-width:2;stroke-miterlimit:10;}
	.st17{clip-path:url(#SVGID_16_);}
	.st18{fill:#333333;}
	.st19{fill:#FFBF9D;}
	.st20{fill:#FF9A6C;}
	.st21{fill:#F1D3C8;}
	.st22{fill:#E6E6E6;}
	.st23{fill:#EF8582;}
	.st24{fill:#8FD3F3;}
	.st25{fill:#1A1A1A;}
	.st26{fill:#D7766D;}
	.st27{fill:#DCDDDD;}
	.st28{fill:#AAABAB;}
	.st29{fill:#BFC0C0;}
	.st30{fill:#C9CACA;}
	.st31{fill:#B5B5B6;}
	.st32{fill:#0095D8;}
	.st33{fill:#007BC2;}
	.st34{fill:#FDD762;}
	.st35{fill:#F8B500;}
	.st36{fill:#EFEFEF;}
	.st37{fill:#F0F5FB;}
	.st38{fill:#3DB4E8;}
	.st39{fill:#EBBF9E;}
	.st40{fill:#12151D;}
	.st41{fill:#D26070;}
	.st42{fill:#80B94A;}
	.st43{enable-background:new    ;}
</style>
<g id="圖層_1_1_">
	<path class="st0" d="M2293.2,3.1"/>
	<g>
		<g>
			<defs>
				<rect id="SVGID_1_" width="1080" height="1080"/>
			</defs>
			<clipPath id="SVGID_2_">
				<use xlink:href="#SVGID_1_"  style="overflow:visible;"/>
			</clipPath>
			<rect class="st1" width="1080" height="1080"/>
		</g>
		<g>
			<defs>
				<rect id="SVGID_3_" width="1080" height="1080"/>
			</defs>
			<clipPath id="SVGID_4_">
				<use xlink:href="#SVGID_3_"  style="overflow:visible;"/>
			</clipPath>
			<g class="st2">
				<path class="st3" d="M86.5,268.6l24.7,61.8c0.9,2.4-0.2,5-2.6,6L1.2,379.3c-2.4,0.9-5-0.2-6-2.6l-24.7-61.8
					c-0.9-2.4,0.2-5,2.6-6L80.6,266C82.9,265.1,85.6,266.2,86.5,268.6z"/>
				<path class="st4" d="M86.5,268.6l1.4,3.4L53,326.7c-3.3,5.5-9.8,8.1-16,6.6l-65.6-16.4l-0.8-2c-0.9-2.4,0.2-5,2.6-6L80.6,266
					C82.9,265.1,85.6,266.2,86.5,268.6z"/>
			</g>
		</g>
		<g>
			<defs>
				<rect id="SVGID_5_" width="1080" height="1080"/>
			</defs>
			<clipPath id="SVGID_6_">
				<use xlink:href="#SVGID_5_"  style="overflow:visible;"/>
			</clipPath>
			<g class="st5">
				<circle class="st6" cx="724" cy="583.1" r="31.6"/>
				<circle class="st6" cx="687.3" cy="534.2" r="14.6"/>
			</g>
		</g>
		<g>
			<defs>
				<rect id="SVGID_7_" width="1080" height="1080"/>
			</defs>
			<clipPath id="SVGID_8_">
				<use xlink:href="#SVGID_7_"  style="overflow:visible;"/>
			</clipPath>
			<g class="st7">
				<g>
					<path class="st8" d="M321.8,565.9c-20.9,0-37.9-17-37.9-37.9c0-20.9,17-37.9,37.9-37.9s37.9,17,37.9,37.9
						C359.8,548.9,342.7,565.9,321.8,565.9z M321.8,502.8c-13.9,0-25.2,11.3-25.2,25.2s11.3,25.2,25.2,25.2
						c13.9,0,25.2-11.3,25.2-25.2S335.7,502.8,321.8,502.8z"/>
				</g>
				<circle class="st8" cx="355.9" cy="460" r="16.8"/>
			</g>
		</g>
		<g>
			<defs>
				<rect id="SVGID_9_" width="1080" height="1080"/>
			</defs>
			<clipPath id="SVGID_10_">
				<use xlink:href="#SVGID_9_"  style="overflow:visible;"/>
			</clipPath>
			<g class="st9">
				<g>
					<path class="st10" d="M1094.7,919.3l-122.6-47.6c-7.8-3-11.6-11.8-8.6-19.6l55.7-143.5c3-7.8,11.8-11.6,19.6-8.6l122.6,47.6
						c7.8,3,11.6,11.8,8.6,19.6l-55.7,143.5C1111.3,918.5,1102.5,922.4,1094.7,919.3z"/>
					<g>
						
							<rect x="977.2" y="801" transform="matrix(0.3618 -0.9323 0.9323 0.3618 -92.4294 1479.9436)" class="st11" width="114.9" height="12.9"/>
						
							<rect x="995.2" y="808" transform="matrix(0.3618 -0.9323 0.9323 0.3618 -87.4859 1501.1732)" class="st11" width="114.9" height="12.9"/>
						
							<rect x="1013.2" y="815" transform="matrix(0.3618 -0.9323 0.9323 0.3618 -82.4844 1522.4294)" class="st11" width="114.9" height="12.9"/>
						
							<rect x="1031.2" y="821.9" transform="matrix(0.3618 -0.9322 0.9322 0.3618 -77.4776 1543.5978)" class="st11" width="114.9" height="12.9"/>
						
							<rect x="1049.3" y="829" transform="matrix(0.3618 -0.9323 0.9323 0.3618 -72.5262 1565.0197)" class="st11" width="114.9" height="12.9"/>
						
							<rect x="1055" y="740.6" transform="matrix(0.3618 -0.9322 0.9322 0.3618 -21.2458 1463.1155)" class="st11" width="6.1" height="12.9"/>
						
							<rect x="1033.4" y="743.3" transform="matrix(0.3618 -0.9323 0.9323 0.3618 -37.486 1444.7922)" class="st11" width="6.1" height="12.9"/>
						
							<rect x="1026.6" y="761.2" transform="matrix(0.3617 -0.9323 0.9323 0.3617 -58.4386 1449.8558)" class="st11" width="6.1" height="12.9"/>
						
							<rect x="1019.7" y="779" transform="matrix(0.3618 -0.9323 0.9323 0.3618 -79.5722 1454.7345)" class="st11" width="6.1" height="12.9"/>
						
							<rect x="1012.7" y="797" transform="matrix(0.3618 -0.9323 0.9323 0.3618 -100.7089 1459.701)" class="st11" width="6.1" height="12.9"/>
						
							<rect x="1012.7" y="797" transform="matrix(0.3618 -0.9323 0.9323 0.3618 -100.7089 1459.701)" class="st11" width="6.1" height="12.9"/>
						
							<rect x="1005.7" y="814.8" transform="matrix(0.3618 -0.9323 0.9323 0.3618 -121.8646 1464.5599)" class="st11" width="6.1" height="12.9"/>
						
							<rect x="998.8" y="832.6" transform="matrix(0.3618 -0.9323 0.9323 0.3618 -142.8148 1469.5375)" class="st11" width="6.1" height="12.9"/>
						
							<rect x="1073" y="747.7" transform="matrix(0.3618 -0.9323 0.9323 0.3618 -16.318 1484.5161)" class="st11" width="6.1" height="12.9"/>
						
							<rect x="1091" y="754.7" transform="matrix(0.3618 -0.9323 0.9323 0.3618 -11.3642 1505.7516)" class="st11" width="6.1" height="12.9"/>
						
							<rect x="1109.1" y="761.8" transform="matrix(0.3618 -0.9323 0.9323 0.3618 -6.3756 1527.1008)" class="st11" width="6.1" height="12.9"/>
						
							<rect x="1127.1" y="768.7" transform="matrix(0.3618 -0.9323 0.9323 0.3618 -1.364 1548.3591)" class="st11" width="6.1" height="12.9"/>
					</g>
					<path class="st11" d="M1141.5,764.4l-93.9-36.5c-3.6-1.4-5.5-5.5-4-9.2l0,0c1.4-3.6,5.5-5.5,9.2-4l93.9,36.5
						c3.6,1.4,5.5,5.5,4,9.2l0,0C1149.3,764,1145.2,765.8,1141.5,764.4z"/>
				</g>
			</g>
		</g>
		<g>
			<defs>
				<rect id="SVGID_11_" width="1080" height="1080"/>
			</defs>
			<clipPath id="SVGID_12_">
				<use xlink:href="#SVGID_11_"  style="overflow:visible;"/>
			</clipPath>
			<g class="st12">
				<path class="st10" d="M648.1,902.6l-23.5,42.9c-0.9,1.6-2.9,2.2-4.6,1.3L545.4,906c-1.6-0.9-2.2-2.9-1.3-4.6l23.5-42.9
					c0.9-1.6,2.9-2.2,4.6-1.3l74.6,40.8C648.4,898.9,649,900.9,648.1,902.6z"/>
				<path class="st13" d="M648.1,902.6l-1.3,2.4l-47.4,5.8c-4.7,0.7-9.2-1.8-11.2-6l-21.4-44.9l0.7-1.4c0.9-1.6,2.9-2.2,4.6-1.3
					l74.6,40.8C648.4,898.9,649,900.9,648.1,902.6z"/>
			</g>
		</g>
		<g>
			<defs>
				<rect id="SVGID_13_" width="1080" height="1080"/>
			</defs>
			<clipPath id="SVGID_14_">
				<use xlink:href="#SVGID_13_"  style="overflow:visible;"/>
			</clipPath>
			<g class="st14">
				<path class="st15" d="M1008.3,431.5c7-19.6-9.3-39.4-33.8-37c-5.5,0.5-10.8,2.9-14.8,6.7c-8.9,8.4-10.7,20.9-9.4,32.3l1.7,47.3
					c0.2,6.8,8.7,9.8,13.2,4.6l30.9-36C1006,438.6,1008.3,431.5,1008.3,431.5z M982.5,441.6c-17.1,3.2-26-17.1-12.9-29.3
					c1.7-1.6,3.9-2.7,6.2-3.2c17.1-3.2,26,17.1,12.9,29.3C986.9,440,984.8,441.1,982.5,441.6z"/>
				
					<ellipse transform="matrix(0.3341 -0.9425 0.9425 0.3341 181.9363 1226.5339)" class="st16" cx="959" cy="484.5" rx="11" ry="45.7"/>
			</g>
		</g>
	</g>
</g>
<g id="圖層_4">
</g>
<g id="圖層_3">
	<g>
		<g>
			<defs>
				<rect id="SVGID_15_" width="1080" height="1080"/>
			</defs>
			<clipPath id="SVGID_16_">
				<use xlink:href="#SVGID_15_"  style="overflow:visible;"/>
			</clipPath>
			<g class="st17">
				<g>
					<path class="st18" d="M78.6,688.1c0,0,2.2,36.2-11.5,68.8c0,0-2.5,8.2,3,13s43.7,18.1,92.5,18.1s87-13.3,92.5-18.1s3-13,3-13
						c-13.6-32.6-11.5-68.8-11.5-68.8l-84-8.3L78.6,688.1z"/>
					<path class="st19" d="M56.7,1161c7.6-39.9,2.2-76.6-5.5-131.1c-14.7-28.5-25.9-80.3-18.1-117.5c7.8-37.1,8.6-90.8,8.6-90.8
						s73.2-16.1,79.7-19.4c6.5-3.2,7.1-16.8,7.1-16.8l34.2-7.3l34.2,7.3c0,0,0.6,13.6,7.1,16.8s79.7,19.4,79.7,19.4
						s0.9,53.6,8.6,90.8c7.8,37.1-3.5,89-18.1,117.5c-7.7,54.5-13.2,91.1-5.5,131.1H56.7z"/>
					<path class="st19" d="M162.6,699.3L162.6,699.3c18.8,0,34.2,15.4,34.2,34.2V799c0,18.8-15.4,34.2-34.2,34.2l0,0
						c-18.8,0-34.2-15.4-34.2-34.2v-65.5C128.4,714.7,143.8,699.3,162.6,699.3z"/>
					<g>
						<path class="st20" d="M237.3,669.1c0.5,0.1,1.1,0.2,1.6,0.3l0,0l0,0c9.7,2.1,17,10.7,17.1,21c0.1,12-9.5,21.9-21.5,22
							s-21.9-9.5-22-21.5c-0.1-7,3.1-13.3,8.2-17.3c-0.6,6.4,0.4,14.4,8.6,15.2l-0.1-12.6C229,671.3,233.8,669,237.3,669.1z"/>
						<path class="st20" d="M88.3,668.1c-0.5,0.1-1.1,0.2-1.6,0.3l0,0l0,0c-9.7,2-17.2,10.4-17.4,20.8c-0.3,12,9.2,22,21.2,22.3
							s22-9.2,22.3-21.2c0.2-7-3-13.3-8-17.4c0.5,6.4-0.6,14.4-8.8,15.1l0.3-12.6C96.5,670.3,91.8,668,88.3,668.1z"/>
					</g>
					<path class="st19" d="M162.6,778.2c-40.7,0-74.6-50.2-74.6-89.8v-52.6c0-41,33.6-74.6,74.6-74.6l0,0c41,0,74.6,33.6,74.6,74.6
						v51.5C237.2,730.7,207.6,778.2,162.6,778.2z"/>
					<path class="st20" d="M96.2,602.1c4.3-8.4,10.2-16,17.2-22.2l84.7,11.5c0,0,30.5,21.1,38.8,37.6c0.2,2.2,0.3,4.5,0.3,6.8v5.6
						c-1.7,2.2-4.9,4-9.9,5.2c-37.9,8.6-64-21.2-64-21.2s24.8,0.8-8.6,11.4C121.3,647.4,98.8,617,98.8,617L96.2,602.1z"/>
					<g>
						
							<ellipse transform="matrix(0.9998 -1.846953e-02 1.846953e-02 0.9998 -13.1646 4.126)" class="st15" cx="216.8" cy="714.8" rx="12.3" ry="12.3"/>
						
							<ellipse transform="matrix(0.9998 -1.860882e-02 1.860882e-02 0.9998 -13.3197 2.1431)" class="st15" cx="108.5" cy="716.8" rx="12.3" ry="12.3"/>
					</g>
					<path class="st18" d="M140.5,650.8c1.6,0.7,2.3,2.6,1.6,4.1c-0.7,1.6-2.6,2.3-4.1,1.6c0,0-9.4-4.5-18.4,1.2
						c-1.5,0.9-3.4,0.5-4.3-1s-0.5-3.4,1-4.3C128,644.9,140.4,650.8,140.5,650.8z"/>
					<path class="st18" d="M214.2,652.2c1.5,0.8,2,2.7,1.2,4.2s-2.7,2.1-4.3,1.2c0,0-9.1-5.2-18.5-0.3c-1.5,0.8-3.4,0.2-4.2-1.3
						s-0.2-3.4,1.3-4.2C202.3,645.3,214.2,652.2,214.2,652.2z"/>
					<path class="st11" d="M144.2,724.6c-0.1,12.2,9.7,22.2,21.9,22.3s22.2-9.7,22.3-21.9l0,0c0-2.1-1.7-3.8-3.8-3.8l-36.4-0.3
						C146,720.8,144.2,722.5,144.2,724.6L144.2,724.6z"/>
					<path class="st11" d="M152.2,741.9c3.8,3.1,8.6,5,13.8,5c4.3,0,8.3-1.1,11.7-3.2c-1.7-4.5-6.6-8-12.5-8.3
						C159.5,735.1,154.5,737.8,152.2,741.9z"/>
					<path class="st11" d="M183.3,721.2l-34.3-0.3c-0.6,3.8,1.1,7.6,3.7,8.5c3.1,1,27.9,0.6,29.7-1.3
						C183.2,727.1,183.4,724,183.3,721.2z"/>
					<path class="st21" d="M167.7,690c1.6,4.5,4.4,12.8,4.2,14.1c-0.3,1.8-9.8,2.3-12.3-0.5c-1.7-1.8,0.4-8.6,2.2-13.2
						C164.2,684.2,165.6,683.9,167.7,690z"/>
					<path class="st11" d="M243.6,812.6l-14.7,198.3l30.2,0.8c0,0,5.9,95.9,16.9,149.3H50.2c11-53.5,16.9-149.3,16.9-149.3l30.2-0.8
						L82.6,812.6C125.7,883,200.5,883,243.6,812.6z"/>
					<g>
						<path class="st22" d="M133.2,1161h-83c11-53.5,16.9-149.3,16.9-149.3l30.2-0.8L85.5,851.3c10.2-1.7,19.4-3.1,27.1-4.2
							c7.9,6.1,16.2,10.7,24.7,13.8c-1.7,284-4.2,298.9-4.2,298.9L133.2,1161z"/>
						<path class="st22" d="M240.7,851.3l-11.8,159.6l30.2,0.8c0,0,5.9,95.9,16.9,149.3h-83v-1.3c0,0-2.5-14.9-4.2-298.9
							c8.5-3.1,16.8-7.7,24.7-13.8C221.3,848.1,230.5,849.5,240.7,851.3z"/>
					</g>
					<path class="st23" d="M198.4,836.7c0,0-3.8-4.6-5-7.9c-1.3-3.3-0.8-5.6,2.9-9.4c3.8-3.8,17.9-16.9,20.7-19.4
						c2.7-2.5,5.5-1.4,7,0.1s7,8.1,7,8.1S221.5,826,198.4,836.7z"/>
					<path class="st15" d="M198.4,836.7c0,0-1.6,5.1-1.6,12.4c0,7.3,2.5,109,4.2,159.9c1.7,50.9,2.5,134,2.5,140.3s2.9,8.4,7.9,7.5
						c5-0.8,66.4-14.2,87.3-19.2c0,0,7.9-4.6,7.9-12.9c0-8.4-9.6-157.8-9.6-157.8s-19-100,12.6-128.9c0,0-3-5.3-9.3-10.1
						s-69.4-19.7-69.4-19.7L198.4,836.7z"/>
					<path class="st23" d="M127.8,836.7c0,0,3.8-4.6,5-7.9c1.3-3.3,0.8-5.6-2.9-9.4c-3.8-3.8-18-16.9-20.7-19.4s-5.5-1.4-7,0.1
						s-7,8.1-7,8.1S104.7,826,127.8,836.7z"/>
					<path class="st15" d="M127.8,836.7c0,0,1.6,5.1,1.6,12.4c0,7.3-2.5,109-4.2,159.9c-1.7,50.9-2.5,134-2.5,140.3
						s-2.9,8.4-7.9,7.5c-5-0.8-66.4-14.2-87.3-19.2c0,0-7.9-4.6-7.9-12.9c0-8.4,9.6-157.8,9.6-157.8s19-100-12.6-128.9
						c0,0,3-5.3,9.3-10.1s69.4-19.7,69.4-19.7L127.8,836.7z"/>
					<path class="st20" d="M196.9,784.3V768c-9.8,6.4-21.2,10.2-33.7,10.3c-0.2,0-0.3,0-0.5,0s-0.3,0-0.5,0
						c-12.1-0.1-23.6-4.7-33.7-12v19.8c-0.2,2.5-1.3,13.5-7,16.4c-1,0.5-3.6,1.3-7.2,2.3c0.7,0.6,4.4,4.5,5.2,5.3L196.9,784.3z"/>
					<path class="st18" d="M88.1,685.8c0,0,16.9-6.7,10.1-26.4c0,0,18.9-12.5,14.5-46.5c2.2,8.2,27.8,37.9,56.8,28.9
						c18-5.6,8.6-19.5,8.6-19.5s14.6,18.1,41.1,15.7c0,0-6.8,21.7,11.7,26.6c0,0-2.1,20,6.4,21.7c0,0,1.8-17.7,9.4-13.6
						c0,0,11.3-54.6,6.3-84.1s-82.4-53.4-104.6-53.4s-59,26.2-61.2,45.6c0,0-24.5,5.6-26.2,18.9c-1.7,13.4,14.3,74.9,14.3,74.9
						S88.1,670.5,88.1,685.8z"/>
					<path class="st18" d="M123.6,675.1c-2.2,0-4.2,0.7-5.9,2c-0.5-0.1-1.3-0.5-1.8-1.4c-0.3-0.5-1-0.8-1.5-0.5s-0.8,1-0.5,1.5
						c0.5,1,1.3,1.7,2.1,2.1l-0.1,0.1c-0.9-0.2-1.9-0.7-2.7-1.7c-0.4-0.5-1.1-0.6-1.6-0.2c-0.5,0.4-0.6,1.1-0.2,1.6
						c1,1.2,2.2,1.9,3.3,2.3l0,0c-1-0.1-2.2-0.4-3.3-1.1c-0.5-0.3-1.2-0.2-1.5,0.3s-0.2,1.2,0.3,1.5c1.2,0.7,2.3,1.1,3.4,1.3
						l0.4,0.1c-0.1,0.6-0.2,1.1-0.2,1.7c0,5.3,4.3,9.6,9.6,9.6c5.3,0,9.6-4.3,9.6-9.6C133.2,679.4,128.9,675.1,123.6,675.1
						L123.6,675.1z M201.7,675.1c-5.3,0-9.6,4.3-9.6,9.6s4.3,9.6,9.6,9.6s9.6-4.3,9.6-9.6c0-0.6-0.1-1.2-0.2-1.7h0.3
						c1.1-0.2,2.3-0.6,3.4-1.3c0.5-0.3,0.7-1,0.3-1.5c-0.3-0.5-1-0.7-1.5-0.3c-1.1,0.7-2.2,1-3.2,1.1v-0.1c1.1-0.4,2.2-1.1,3.1-2.2
						c0.4-0.5,0.3-1.2-0.2-1.6c-0.5-0.4-1.2-0.3-1.6,0.2c-0.8,1-1.7,1.5-2.6,1.7l-0.1-0.1c0.7-0.4,1.5-1,2-2
						c0.3-0.5,0.1-1.2-0.5-1.5c-0.5-0.3-1.2-0.1-1.5,0.5c-0.4,0.8-1.2,1.2-1.7,1.4C205.9,675.8,203.9,675.1,201.7,675.1z"/>
					<g>
						<path class="st24" d="M218.9,701.2c-0.2,0.6-0.9,1-1.5,0.8s-1-0.9-0.8-1.5c0-0.1,17.6-29.7,27-28.2l-2.6,2
							C231.6,682.7,218.9,701.2,218.9,701.2z"/>
						<path class="st24" d="M106.9,700.8c0.2,0.6,0.9,1,1.5,0.8s1-0.9,0.8-1.5c0-0.1-17.8-26.9-27.2-25.4l1.4,0.6l1.1,0.8
							C93.9,684.4,106.9,700.7,106.9,700.8z"/>
						<path class="st24" d="M109.7,746.4c0.7,0.1,1.3-0.4,1.3-1.1c0.1-0.7-0.4-1.3-1.1-1.3h-0.4c-13.6-1.7-25.5-21.9-26.4-33.9
							c-0.9-0.5-1.7-1-2.5-1.6c0.6,13.6,13.4,36,28.7,37.9L109.7,746.4z"/>
						<path class="st24" d="M215.3,746.4c-0.7,0.1-1.3-0.4-1.3-1.1c-0.1-0.7,0.4-1.3,1.1-1.3h0.4c13.6-1.7,28-21.9,28.9-33.9
							c0.9-0.5,1.7-1,2.5-1.6c-0.6,13.6-15.9,36-31.2,37.9L215.3,746.4z"/>
						<g>
							<path class="st11" d="M162.6,695.5l55.3,3c0,0,2.2,0.6,2.1,2.7c-0.1,2-2,41.2-2,41.2s-0.1,3.5-2.3,6.6s-19.6,31.7-53.2,31.7
								s-51-28.7-53.2-31.7s-2.3-6.6-2.3-6.6s-1.9-39.2-2-41.2s2.1-2.7,2.1-2.7L162.6,695.5z"/>
							<path class="st13" d="M162.6,699.7l-53.1,2.8c0.5,13.2,1.4,26.4,1.9,39.6c0.1,1.4,0.7,3.2,1.5,4.3c1.5,2.1,2.8,4.1,4.4,6.1
								c2.9,3.7,6.2,7.1,9.7,10.2c10.1,8.7,22.1,13.7,35.6,13.7s25.4-5,35.6-13.7c3.6-3.1,6.8-6.5,9.7-10.2c1.6-2,2.9-4,4.4-6.1
								c0.8-1.1,1.4-2.9,1.5-4.3c0.6-13.2,1.5-26.4,1.9-39.6L162.6,699.7z"/>
							<path class="st24" d="M110.3,719.7c0.3,5.1,0.6,10.3,0.8,15.4l49-18.9L110.3,719.7L110.3,719.7z M111.4,740.4l0.1,1.7
								c0.1,1.4,0.7,3.2,1.5,4.3c1.5,2.1,2.8,4.1,4.4,6.1c2.9,3.7,6.2,7.1,9.7,10.2c10.1,8.7,22.1,13.7,35.6,13.7s25.4-5,35.6-13.7
								c3.6-3.1,6.8-6.5,9.7-10.2c1.6-2,2.9-4,4.4-6.1c0.2-0.3,0.4-0.7,0.6-1c0,0-8.6,9.3-38.5,9.3
								C144.5,754.7,111.4,740.4,111.4,740.4L111.4,740.4z M214,738.4c0.2-3.8,0.4-7.5,0.6-11.3l-36.6-2.6L214,738.4z"/>
						</g>
					</g>
					<path class="st23" d="M25.8,827.9c0,0-17.4,5.8-25.7,22.4c-8.3,16.6-66.7,151.4-69.5,165.8c-2.7,13.9-7.4,53.5,18,145h70.8
						c-2.7-11.7-18.3-109.6-20.8-112.3l30.8-83.6C29.5,965.1,65.5,864.3,25.8,827.9z"/>
					<path class="st23" d="M300.4,827.9c0,0,17.4,5.8,25.7,22.4c8.3,16.6,66.7,151.4,69.5,165.8c2.7,13.9,7.4,53.5-18,145h-70.8
						c2.7-11.7,18.3-109.6,20.8-112.3l-30.8-83.6C296.8,965.1,260.7,864.3,300.4,827.9z"/>
				</g>
				<g>
					<path class="st25" d="M838.4,689.8l-13.1,5.5c0,0,1.8,57.1-11.5,96.5c-13.3,39.3-2.7,72.6,18.7,64.6c0,0,1.3,24,19,29.5
						c17.8,5.5,39.9,9.8,39.9,9.8l59.8,3.7c0,0,56.8,17.8,61-57.6c0,0,19.3-0.9,19.6-27.2c0.3-26.2-26.3-68.8-26.3-123.2
						C1005.6,637.3,838.4,689.8,838.4,689.8L838.4,689.8z M830.4,644.8l-4.2-7.4c0,0-8-44.3-7.4-59.8s14.4-34.9,53.7-52.6
						c39.3-17.7,70.3,18.8,79.1,26.6c0,0,42.1-1.7,52.6,10c10.5,11.6,2.4,80.2,2.4,80.2L830.4,644.8z"/>
					<path class="st19" d="M810.5,1160.6c7.6-39.9,2.2-76.6-5.5-131.1c-14.7-28.5-25.9-80.3-18.1-117.5c7.8-37.1,5.7-79.1,5.7-79.1
						s76.1-27.8,82.6-31s7.1-16.8,7.1-16.8l34.2-7.3l34.2,7.3c0,0,0.6,13.6,7.1,16.8s79.7,19.4,79.7,19.4s0.9,53.6,8.6,90.8
						c7.8,37.1-3.5,89-18.1,117.5c-7.7,54.5-13.2,91.1-5.5,131.1h-212V1160.6z"/>
					<path class="st19" d="M916.4,698.8L916.4,698.8c18.8,0,34.2,15.4,34.2,34.2v65.5c0,18.8-15.4,34.2-34.2,34.2l0,0
						c-18.8,0-34.2-15.4-34.2-34.2V733C882.2,714.2,897.6,698.8,916.4,698.8z"/>
					<g>
						<path class="st20" d="M991,668.7c0.5,0.1,1.1,0.2,1.6,0.3l0,0l0,0c9.7,2.1,17,10.7,17.1,21c0.1,12-9.5,21.9-21.5,22
							s-21.9-9.5-22-21.5c-0.1-7,3.1-13.3,8.2-17.3c-0.6,6.4,0.4,14.4,8.6,15.2l-0.1-12.6C982.8,670.8,987.6,668.5,991,668.7z"/>
						<path class="st20" d="M842.1,667.7c-0.5,0.1-1.1,0.2-1.6,0.3l0,0l0,0c-9.7,2-17.2,10.4-17.4,20.8c-0.3,12,9.2,22,21.2,22.3
							s22-9.2,22.3-21.2c0.2-7-2.9-13.3-8-17.4c0.5,6.4-0.6,14.4-8.8,15.1l0.3-12.6C850.3,669.9,845.6,667.5,842.1,667.7z"/>
					</g>
					<path class="st19" d="M916.4,777.8c-40.7,0-74.6-50.2-74.6-89.8v-52.6c0-41,33.6-74.6,74.6-74.6l0,0c41,0,74.6,33.6,74.6,74.6
						v51.5C991,730.3,961.4,777.8,916.4,777.8z"/>
					<path class="st26" d="M960.5,608.6c0,0-12.6-5.6-27.1,2.8c-14.5,8.4-36.3,42.6-76.7,38.2c-40.4-4.4,52.9-42.9,52.9-42.9
						s47-23.5,49.5-22.1C961.6,585.9,960.5,608.6,960.5,608.6z"/>
					<g>
						
							<ellipse transform="matrix(0.9998 -1.853722e-02 1.853722e-02 0.9998 -13.0758 18.1145)" class="st15" cx="970.6" cy="714.4" rx="12.3" ry="12.3"/>
						
							<ellipse transform="matrix(0.9998 -1.846493e-02 1.846493e-02 0.9998 -13.0809 16.044)" class="st15" cx="862.3" cy="716.4" rx="12.3" ry="12.3"/>
					</g>
					<path class="st18" d="M894.3,650.4c1.6,0.7,2.3,2.6,1.6,4.1c-0.7,1.6-2.6,2.3-4.1,1.6c0,0-9.4-4.5-18.4,1.2
						c-1.5,0.9-3.4,0.5-4.3-1c-0.9-1.5-0.5-3.4,1-4.3C881.8,644.5,894.2,650.4,894.3,650.4z"/>
					<path class="st18" d="M968,651.8c1.5,0.8,2.1,2.7,1.2,4.2c-0.8,1.5-2.7,2-4.3,1.2c0,0-9.1-5.2-18.5-0.3
						c-1.5,0.8-3.4,0.2-4.2-1.3s-0.2-3.4,1.3-4.2C956,644.9,968,651.8,968,651.8z"/>
					<path class="st11" d="M898,724.2c-0.1,12.2,9.7,22.2,21.9,22.3s22.2-9.7,22.3-21.9l0,0c0-2.1-1.7-3.8-3.8-3.8l-36.4-0.3
						C899.7,720.4,898,722.1,898,724.2L898,724.2z"/>
					<path class="st11" d="M906,741.4c3.8,3.1,8.6,5,13.8,5c4.3,0,8.3-1.1,11.7-3.2c-1.7-4.5-6.6-8-12.5-8.3
						C913.3,734.7,908.3,737.4,906,741.4z"/>
					<path class="st11" d="M937.1,720.7l-34.3-0.3c-0.6,3.8,1.1,7.6,3.7,8.5c3.1,1,27.9,0.6,29.7-1.3
						C937,726.6,937.1,723.6,937.1,720.7z"/>
					<path class="st21" d="M921.5,689.6c1.6,4.5,4.4,12.8,4.2,14.1c-0.3,1.8-9.8,2.3-12.3-0.5c-1.7-1.8,0.4-8.6,2.2-13.2
						C918,683.8,919.3,683.5,921.5,689.6z"/>
					<path class="st11" d="M997.4,812.1l-14.7,198.3l30.2,0.8c0,0,5.9,95.9,16.9,149.3H804c11-53.5,16.9-149.3,16.9-149.3l30.2-0.8
						l-14.7-198.3C879.5,882.6,954.3,882.6,997.4,812.1z"/>
					<path class="st11" d="M952.2,836.3c0,0-3.8-4.6-5-7.9c-1.3-3.3-0.8-5.6,2.9-9.4c3.8-3.8,17.9-16.9,20.7-19.4
						c2.7-2.5,5.5-1.4,7,0.1s7,8.1,7,8.1S975.3,825.5,952.2,836.3z"/>
					<path class="st27" d="M952.2,836.3c-0.4,1.5-31.3,146.8-36.5,180.4c-0.5,3.1-10.7,59.5-10.7,60.5c0,1.4,16.8,45.1,31.4,83.8
						h129.4c-8.2-44.7-22.3-119-22.3-121.5c-0.2-5.4,7.3-73.1,7.3-73.1s-19-100,12.6-128.9c0,0-3-5.3-9.3-10.1s-69.5-19.7-69.5-19.7
						L952.2,836.3z"/>
					<path class="st28" d="M921.1,987.1c-2.5,12.7-4.4,23.2-5.4,29.6c-0.5,3.1-10.7,59.5-10.7,60.5c0,1.4,16.8,45.1,31.4,83.8H976
						l-48.1-134.5l26.2-51.1l-16.8-1.5C937.3,974,930.4,979.4,921.1,987.1z"/>
					<path class="st29" d="M939.5,896.3C928.8,948.1,915,1015.8,915,1023l67.5-81.9L967,881.8C967,881.8,954.5,888.2,939.5,896.3z"
						/>
					<path class="st20" d="M882.3,801.4l51-20.1l17.4-6.9v-6.9c-9.8,6.4-21.2,10.2-33.7,10.3c-0.2,0-0.3,0-0.5,0s-0.3,0-0.5,0
						c-12.1-0.1-23.6-4.7-33.7-12v19.8c-0.2,2.5-1.3,13.5-7,16.4c-1,0.5-3.6,1.3-7.2,2.3c0.7,0.6,1.4,1.3,2.2,2L882.3,801.4z"/>
					<path class="st18" d="M877.4,670.4c-2.2,0-4.2,0.7-5.9,2c-0.5-0.1-1.3-0.5-1.8-1.4c-0.3-0.5-0.9-0.8-1.5-0.5
						c-0.5,0.3-0.8,1-0.5,1.5c0.5,1,1.3,1.7,2.1,2.1l-0.1,0.1c-0.9-0.2-1.9-0.7-2.7-1.7c-0.4-0.5-1.1-0.6-1.6-0.2
						c-0.5,0.4-0.6,1.1-0.2,1.6c1,1.2,2.2,1.9,3.3,2.3l0,0c-1-0.1-2.2-0.4-3.3-1.1c-0.5-0.3-1.2-0.2-1.5,0.3s-0.2,1.2,0.3,1.5
						c1.2,0.7,2.3,1.1,3.4,1.3l0.4,0.1c-0.1,0.6-0.2,1.1-0.2,1.7c0,5.3,4.3,9.6,9.6,9.6s9.6-4.3,9.6-9.6
						C887,674.7,882.7,670.4,877.4,670.4L877.4,670.4z M955.5,670.4c-5.3,0-9.6,4.3-9.6,9.6s4.3,9.6,9.6,9.6s9.6-4.3,9.6-9.6
						c0-0.6-0.1-1.2-0.2-1.7h0.3c1.1-0.2,2.3-0.6,3.4-1.3c0.5-0.3,0.7-1,0.3-1.5c-0.3-0.5-1-0.7-1.5-0.3c-1.1,0.7-2.2,1-3.2,1.1
						v-0.1c1.1-0.4,2.2-1.1,3.1-2.2c0.4-0.5,0.3-1.2-0.2-1.6c-0.5-0.4-1.2-0.3-1.6,0.2c-0.8,1-1.7,1.5-2.6,1.7l0.1-0.3
						c0.7-0.4,1.5-1,2-2c0.3-0.5,0.1-1.2-0.5-1.5c-0.5-0.3-1.2-0.1-1.5,0.5c-0.4,0.8-1.2,1.2-1.7,1.4
						C959.7,671.1,957.7,670.4,955.5,670.4z"/>
					<g>
						<path class="st24" d="M972.6,700.8c-0.2,0.6-0.9,1-1.5,0.8s-1-0.9-0.8-1.5c0-0.1,17.6-29.7,27-28.2l-2.6,2.1
							C985.4,682.3,972.7,700.7,972.6,700.8z"/>
						<path class="st24" d="M860.7,700.4c0.2,0.6,0.9,1,1.5,0.8s1-0.9,0.8-1.5c0-0.1-17.8-26.9-27.2-25.5l1.4,0.6l1.1,0.8
							C847.7,684,860.6,700.3,860.7,700.4z"/>
						<path class="st24" d="M863.5,745.9c0.7,0.1,1.3-0.4,1.3-1.1c0.1-0.7-0.4-1.3-1.1-1.3h-0.4c-13.6-1.7-25.5-21.9-26.4-33.9
							c-0.9-0.5-1.7-1-2.5-1.6c0.6,13.6,13.4,36,28.7,37.9L863.5,745.9z"/>
						<path class="st24" d="M969.1,745.9c-0.7,0.1-1.3-0.4-1.3-1.1c-0.1-0.7,0.4-1.3,1.1-1.3h0.4c13.6-1.7,28-21.9,28.9-33.9
							c0.9-0.5,1.7-1,2.5-1.6c-0.6,13.6-15.9,36-31.2,37.9L969.1,745.9z"/>
						<g>
							<path class="st11" d="M916.4,695l55.3,3c0,0,2.2,0.6,2.1,2.7c-0.1,2-2,41.2-2,41.2s-0.1,3.5-2.3,6.6
								c-2.2,3-19.6,31.7-53.2,31.7c-33.6,0-51-28.7-53.2-31.7s-2.3-6.6-2.3-6.6s-1.9-39.2-2-41.2s2.1-2.7,2.1-2.7L916.4,695z"/>
							<path class="st13" d="M916.4,699.3l-53.2,2.8c0.5,13.2,1.4,26.4,1.9,39.6c0.1,1.4,0.7,3.2,1.5,4.3c1.5,2.1,2.8,4.1,4.4,6.1
								c2.9,3.7,6.2,7.1,9.7,10.2c10.1,8.7,22.1,13.7,35.6,13.7s25.4-5,35.6-13.7c3.6-3.1,6.8-6.5,9.7-10.2c1.6-2,2.9-4,4.4-6.1
								c0.8-1.1,1.4-2.9,1.5-4.3c0.6-13.2,1.5-26.4,1.9-39.6L916.4,699.3z"/>
							<path class="st24" d="M864.1,719.2c0.3,5.1,0.6,10.3,0.8,15.4l49-18.9L864.1,719.2L864.1,719.2z M865.1,739.9l0.1,1.7
								c0.1,1.4,0.7,3.2,1.5,4.3c1.5,2.1,2.8,4.1,4.4,6.1c2.9,3.7,6.2,7.1,9.7,10.2c10.1,8.7,22.1,13.7,35.6,13.7s25.4-5,35.6-13.7
								c3.6-3.1,6.8-6.5,9.7-10.2c1.6-2,2.9-4,4.4-6.1c0.2-0.3,0.4-0.7,0.6-1c0,0-8.6,9.3-38.5,9.3
								C898.3,754.2,865.1,739.9,865.1,739.9L865.1,739.9z M967.8,738c0.2-3.8,0.4-7.5,0.6-11.3l-36.6-2.6L967.8,738z"/>
						</g>
					</g>
					<path class="st30" d="M1054.2,827.4c0,0,17.4,5.8,25.7,22.4c8.3,16.6,66.7,151.4,69.5,165.8c2.7,13.9,7.4,53.5-18,145h-70.8
						c2.7-11.7,18.3-109.6,20.8-112.3l-33.6-67.5C1047.7,980.8,1014.5,863.8,1054.2,827.4z"/>
					<path class="st25" d="M841.9,688c0,0,8.6-6.2,8.6-21.3c0,0,13.8-12.9,12.7-26.4c-1.1-13.6-16.4-31.6-16.4-31.6
						s-13.8,8.6-18.7,18c-5,9.4,1.4,48.2,1.4,48.2S838.9,667.9,841.9,688z"/>
					<path class="st25" d="M991,688c0,0-8.6-6.2-8.6-21.3c0,0-13.8-12.9-12.7-26.4c1.1-13.6,16.4-31.6,16.4-31.6s13.8,8.6,18.7,18
						c5,9.4-1.4,48.2-1.4,48.2S994,667.9,991,688z"/>
					<path class="st25" d="M955.9,603.9l-0.3-0.1c-0.4,0.2-0.8,0.2-1.2-0.1c-11-6.4-21.1,2.8-33,13.6c-12,10.9-25.7,23.5-44.3,24.2
						c-1.7,0.5-3.4,0.8-5.1,1c-31.7,3.7-46.2-39.5-16.8-68c31.5-30.7,100.4-35.2,108.3,14.1C963.5,588.6,964.9,599.1,955.9,603.9
						L955.9,603.9z M935.9,602.3c-17.1,4.9-31.1,24.7-48.1,34.7c12.5-3.9,22.6-13.2,31.8-21.5C925.3,610.2,930.6,605.3,935.9,602.3z
						"/>
					<path class="st25" d="M954.4,603.8c0,0-1.7,36.4,19.1,41.6c20.8,5.3,28-21.6,17.7-47.6c-10.2-26-36-37.6-41.2-35.7
						C944.7,564,954.4,603.8,954.4,603.8z"/>
					<path class="st31" d="M952.2,836.3c-0.3,0.9-11.4,53.3-21.5,102.5l74.9-79.1l-12.1-49.8c-5.4-1.3-8.8-2.1-8.8-2.1L952.2,836.3z
						"/>
					<path class="st11" d="M880.6,836.3c0,0,3.8-4.6,5-7.9c1.3-3.3,0.8-5.6-2.9-9.4c-3.8-3.8-18-16.9-20.7-19.4s-5.5-1.4-7,0.1
						s-7,8.1-7,8.1S857.5,825.5,880.6,836.3z"/>
					<path class="st27" d="M880.6,836.3c0.5,1.7,37.2,174.9,37.2,186.7c0,1.7-0.1,81.1-0.2,138H767c8.2-44.7,22.3-119,22.3-121.5
						c0.2-5.4-7.3-73.1-7.3-73.1s19-100-12.6-128.9c0,0,3-5.3,9.3-10.1s69.4-19.7,69.4-19.7L880.6,836.3z"/>
					<path class="st29" d="M893.3,896.3c10.8,51.8,24.6,119.5,24.6,126.7l-67.5-82l15.5-59.2C865.9,881.8,878.3,888.2,893.3,896.3z"
						/>
					<path class="st30" d="M778.6,827.4c0,0-17.4,5.8-25.7,22.4c-8.3,16.6-66.7,151.4-69.5,165.8c-2.7,13.9-7.4,53.5,18,145h70.8
						c-2.7-11.7-18.3-109.6-20.8-112.3l33.9-70.4C785.5,977.8,818.4,863.8,778.6,827.4z"/>
					<path class="st31" d="M880.6,836.3c0.3,0.9,11.4,53.3,21.5,102.5l-74.9-79.1l12.1-49.8c5.4-1.3,8.8-2.1,8.8-2.1L880.6,836.3z"
						/>
					<circle class="st11" cx="907.2" cy="1036" r="3.9"/>
					<circle class="st11" cx="907.2" cy="1073.3" r="3.9"/>
				</g>
				<g>
					<path class="st19" d="M539.6,613.9L539.6,613.9c23.5,0,42.8,32.9,42.8,73.2v59.5c0,40.3-19.3,73.2-42.8,73.2l0,0
						c-23.5,0-42.8-32.9-42.8-73.2v-59.5C496.7,646.8,516,613.9,539.6,613.9z"/>
					<path class="st32" d="M675,759.3c0,0,25.1,6.7,39.4,37.8c14.3,31,49.2,128.9,58,156.4c8.7,27.5-22.9,145-63.3,207.6H656
						c0,0,51.3-156.7,53.5-171.7c2.2-15.1-48.5-102.8-48.5-102.8C646.9,842.6,647.8,798.7,675,759.3z"/>
					<path class="st33" d="M772.2,986.2c-6.6,47.3-32.3,127-63.1,174.8h-32.9c-5.3-7.2-9.1-12.6-9.1-12.6l5.1-37.2
						C731.2,1172,765.5,1023.5,772.2,986.2z"/>
					<path class="st11" d="M550.8,764.1l-6.9,0.8l-4.3,2.9l-4.3-2.9l-6.9-0.8L487.5,732l-88.7,35.9l-4.4,85.1
						c6.6,84.6,26.5,220.3,26.5,226.9s-14.1,52.5-22.8,80.5h141.6h140.6c-8.7-27.9-22.8-73.9-22.8-80.5S678.3,937.7,685,853
						l-4.4-85.1l-89-35.9L550.8,764.1z"/>
					<polygon class="st34" points="549.1,786.4 551,796.6 570.4,1048.9 539.6,1114.4 508.7,1048.9 528.1,796.6 530,786.4 
						539.6,792.6 					"/>
					<path class="st35" d="M549.1,786.4l1.9,10.2l19.4,252.3l-30.8,65.6c0,0,18.1-56.5,18.8-65.2s-10.9-249.4-14.3-251.6
						c-3.4-2.2-10.2-2-10.2-2l4.3-3.9l1.3,0.9L549.1,786.4z"/>
					<path class="st30" d="M531.1,765.5l4.1-0.6c0,0,0.8,0.8,0.9,2.1c0.1,1.3,0.2,5.1,0.2,5.1l-3.2,1c0,0-6.3,0.2-6.2-0.1
						C527.1,772.8,531.1,765.5,531.1,765.5z"/>
					<path class="st30" d="M548,765.5l-4.2-0.6c0,0-0.8,0.8-0.9,2.1c-0.1,1.3-0.2,5.1-0.2,5.1l3.2,1c0,0,6.3,0.2,6.2-0.1
						C552,772.8,548,765.5,548,765.5z"/>
					<path class="st34" d="M528.1,796.6l-9-19.8c7.8-7.4,33.2-7.4,41,0l-9,19.8C544.7,794.9,534.4,794.9,528.1,796.6z"/>
					<path class="st35" d="M522.6,784.6l-3.6-7.9c2.8-2.6,7.9-4.3,13.6-5.1L522.6,784.6L522.6,784.6z M539.8,771.2
						c8.2,0,16.4,1.9,20.3,5.5l-9,19.8c-2.5-0.7-5.5-1.1-8.6-1.2c1.7-1.4,4-3.3,4-3.7c0.1-0.7,0-17.8-0.7-18.1L539.8,771.2z"/>
					<path class="st36" d="M582.4,714.9c0,0,3.7-0.6,5,0s10.7,26.3,8.9,31.5s-25.1,48-25.1,48s-1.7,2.3-4.3,0.1
						c-2.7-2.2-23-29.5-23-29.5l38.5-46.6L582.4,714.9L582.4,714.9z"/>
					<path class="st32" d="M595.1,730.3l78.5,28.4c1.6,0.6,17.9,7.1,19.9,30.7c0.9,11.1-6.9,63.5-13.4,124.8
						c-8,75.4-15.2,161.5-15.2,165.8c0,7.9,14.2,53,22.9,80.9H573.4l20.1-427.5C593.5,733.4,593.5,731.1,595.1,730.3z"/>
					<path class="st36" d="M496.7,714.7c0,0-3.7-0.6-5,0s-5.6,19.6-8.3,23.4c0,0-2.4,3.1-0.6,8.3s25.1,48,25.1,48s1.7,2.3,4.3,0.1
						c2.7-2.2,23-29.5,23-29.5l-38.5-46.8V714.7z"/>
					<path class="st32" d="M484,732.7l-78.5,26c-1.6,0.6-17.9,7.1-19.9,30.7c-0.9,11.4,8,66.1,14.7,129.1
						c7.9,74,13.8,157.2,13.8,161.5c0,7.9-14.2,53-22.9,80.9h114.5L484,745.2C484,745.2,485.6,733.5,484,732.7z"/>
					<path class="st33" d="M691,767.7c-7.1,20.3-27.1,87.3-8,156.3c0.1,0.5-0.2,1-0.7,1.2c-1-1.9-2-3.7-2.9-5.5
						c-17.3-68.7,2.9-134.4,9.7-153.4C689.7,766.8,690.4,767.2,691,767.7z"/>
					<path class="st32" d="M405.5,759.3c0,0-25.1,6.7-39.4,37.8c-14.3,31-49.2,128.9-58,156.4c-8.7,27.5,22.9,145,63.3,207.6h53.1
						c0,0-51.3-156.7-53.5-171.7c-2.2-15.1,48.5-102.8,48.5-102.8C433.6,842.6,432.7,798.7,405.5,759.3z"/>
					<path class="st33" d="M308.3,986.2c6.6,47.3,32.3,127,63.1,174.8h24.4c0.4-0.6,9.9-49.9,10.4-55c-9.6,6.8-17.7,14.4-38.5,7.5
						C341.3,1104.7,315.3,1024.6,308.3,986.2z"/>
					<path class="st33" d="M372.1,993.8c-0.5-2-0.9-3.6-1-4.5c-1.3-8.8,13.9-41.4,28.1-67.9c2.2-4.2,4,40.2,6,36.5
						c-0.7-8.7,1-63.7,0.9-64.1c-0.5-2.4-35.4,68.4-37.4,74C366.6,973.4,372.1,993.8,372.1,993.8L372.1,993.8z"/>
					<path class="st33" d="M389.5,767.7c7.1,20.3,27.2,87.3,8.1,156.3c-0.1,0.5,0.2,1,0.7,1.2c1-1.9,2-3.7,2.9-5.5
						c17.3-68.7-2.9-134.4-9.7-153.4C390.8,766.8,390.1,767.2,389.5,767.7z"/>
					<g>
						<path class="st33" d="M595.7,731.2l20.9,7.8c5.7,12.7,25.3,56.7,24.5,58.2c-1,1.8-30.8,6.9-30.8,6.9s22.8,9.4,23.6,10
							s2,1.5,1.5,4.9c-0.4,2.9-46.9,209.3-59.1,263.5l17.8-348.1C594.1,734.3,594.1,732,595.7,731.2z"/>
						<path class="st37" d="M597.8,797.7l30,10.9c0,0,3.1,1.7,2.8,3.7s-54,258.4-54,258.4l9.6-270.2L597.8,797.7z"/>
						<path class="st38" d="M580.1,972.1l6.1-171.6l1.8-0.4c-3.2,69.9-7.9,172.3-7.9,172.3L580.1,972.1z"/>
						<path class="st11" d="M594.2,730l15.5,5.4c0,0,1.4,0.3,1.8,1.9c0.4,1.6,21.9,51.8,22.4,53.6s-0.9,3.7-3.8,4.5
							c-2.9,0.9-44,12.1-44,12.1l6-75.3C592.1,732.2,592.4,730,594.2,730z"/>
					</g>
					<g>
						<path class="st33" d="M481.9,732.4l-19.4,6.6c-5.7,12.7-25.3,56.7-24.5,58.2c1,1.8,30.8,6.9,30.8,6.9s-22.8,9.4-23.6,10
							c-0.8,0.6-2,1.5-1.5,4.9c0.4,2.9,46.9,209.3,59.1,263.5l-20.3-341.3C482.5,741.1,483.5,733.2,481.9,732.4z"/>
						<path class="st37" d="M481.3,797.7l-30,10.9c0,0-3.1,1.7-2.8,3.7c0.3,2,54,258.4,54,258.4l-9.6-270.2L481.3,797.7z"/>
						<path class="st38" d="M499,972.1l-6.1-171.6L491,800c3.2,69.9,7.9,172.3,7.9,172.3L499,972.1z"/>
						<path class="st11" d="M485.5,730.9l-16.2,4.5c0,0-1.4,0.3-1.8,1.9c-0.4,1.6-21.9,51.8-22.4,53.6s0.9,3.7,3.8,4.5
							c2.9,0.9,44,12.1,44,12.1S486.7,748.2,485.5,730.9z"/>
					</g>
					<g>
						<path class="st20" d="M617.3,601.7c0.6,0.1,1.1,0.2,1.7,0.3l0,0l0,0c10.4,2.3,18.2,11.4,18.4,22.5c0.2,12.9-10.2,23.5-23,23.6
							c-12.9,0.2-23.5-10.2-23.6-23c-0.1-7.5,3.4-14.2,8.8-18.5c-0.6,6.9,0.4,15.4,9.2,16.3l-0.2-13.5
							C608.5,604,613.6,601.5,617.3,601.7z"/>
						<path class="st20" d="M463.5,601.7c-0.6,0.1-1.1,0.2-1.7,0.3l0,0l0,0c-10.4,2.1-18.4,11.2-18.7,22.3
							c-0.3,12.9,9.8,23.6,22.7,23.9c12.9,0.3,23.6-9.8,23.9-22.7c0.2-7.5-3.2-14.2-8.5-18.6c0.5,6.9-0.6,15.4-9.4,16.2l0.3-13.4
							C472.3,604.1,467.3,601.5,463.5,601.7z"/>
					</g>
					<path class="st19" d="M540.3,718.5c-43.5,0-79.9-53.7-79.9-96.2V566c0-43.9,35.9-79.9,79.9-79.9l0,0
						c43.9,0,79.9,35.9,79.9,79.9v55.2C620.1,667.7,588.4,718.5,540.3,718.5z"/>
					<path class="st26" d="M461.3,549.2c5.8-38.3,39.1-67.9,79-67.9l0,0c38.6,0,71,27.7,78.3,64.3c-11.1,0-23.4,13.9-23.4,13.9
						c-74.7,35.6-120.7,0.3-120.7,0.3C469.2,556.5,464.9,552.9,461.3,549.2z"/>
					<g>
						
							<ellipse transform="matrix(0.9998 -1.850347e-02 1.850347e-02 0.9998 -11.6234 11.1233)" class="st15" cx="595.3" cy="633.7" rx="13.5" ry="13.5"/>
						
							<ellipse transform="matrix(0.9998 -1.846451e-02 1.846451e-02 0.9998 -11.6585 9.0671)" class="st15" cx="485.2" cy="635.9" rx="13.5" ry="13.5"/>
					</g>
					<g>
						<path class="st18" d="M513.7,583.2c1.7,0.8,2.4,2.8,1.7,4.4c-0.8,1.7-2.7,2.4-4.4,1.7c0,0-10.1-4.8-19.8,1.3
							c-1.6,1-3.6,0.5-4.6-1.1s-0.5-3.6,1.1-4.6C500.4,576.9,513.7,583.2,513.7,583.2z"/>
						<path class="st18" d="M592.7,584.7c1.6,0.9,2.2,2.9,1.3,4.6c-0.9,1.6-2.9,2.2-4.5,1.3c0,0-9.7-5.6-19.8-0.3
							c-1.6,0.9-3.7,0.2-4.5-1.4c-0.9-1.6-0.2-3.7,1.4-4.5C579.9,577.3,592.7,584.7,592.7,584.7z"/>
					</g>
					<path class="st39" d="M542.4,624.2c1.5,4,4.1,11.4,3.9,12.6c-0.3,1.7-9.2,3.3-11.5,1c-1.5-1.5,0.4-8.1,2.1-12.5
						C539.1,619.2,540.4,618.7,542.4,624.2z"/>
					<g>
						<path class="st40" d="M557,656.1c0,9.3-7.5,16.8-16.8,16.8s-16.8-7.5-16.8-16.8c0-1.7,1.4-3.1,3.1-3.1h27.4
							C555.6,653,557,654.4,557,656.1z"/>
						<path class="st11" d="M528.2,653h24v2.8c0,1.5-1.2,2.7-2.7,2.7h-18.6c-1.5,0-2.7-1.2-2.7-2.7V653z"/>
						<path class="st41" d="M552.4,667.6c-3.1,3.2-7.4,5.2-12.2,5.2s-9.1-2-12.2-5.2c3.1-3.2,7.4-5.2,12.2-5.2
							C545,662.4,549.4,664.4,552.4,667.6z"/>
					</g>
					<g>
						<path class="st18" d="M501.2,618.4c5.3,0,9.6-4.3,9.6-9.6s-4.3-9.6-9.6-9.6c-5.3,0-9.6,4.3-9.6,9.6
							C491.6,614.1,495.9,618.4,501.2,618.4z"/>
						<path class="st18" d="M579.3,618.4c5.3,0,9.6-4.3,9.6-9.6s-4.3-9.6-9.6-9.6s-9.6,4.3-9.6,9.6
							C569.7,614.1,574,618.4,579.3,618.4z"/>
					</g>
					<path d="M460.4,620.1l7.7-31.2c0,0,24.9-18.2,16-43.6c-8.8-25.4-10.6-22.9-10.6-22.9s-33.1,14.9-18.4,82.2L460.4,620.1z"/>
					<path d="M620.1,620.1l-7.7-31.2c0,0-24.9-18.2-16-43.6c8.8-25.4,10.6-22.9,10.6-22.9s33.1,14.9,18.4,82.2L620.1,620.1z"/>
					<path class="st24" d="M602.3,636c-0.2,0.6-0.9,1-1.5,0.8s-1-0.9-0.8-1.5c0-0.1,6.1-20.8,16.7-29.4l0.6,2.6
						C608,616.8,602.3,636,602.3,636z"/>
					<path class="st24" d="M599.3,684c-0.7,0.1-1.3-0.4-1.3-1.1c-0.1-0.7,0.4-1.3,1.1-1.3h0.4c7.2-0.9,13.2-7.6,17.2-15.7
						c3.1-6.2,5-13.3,5.4-19.2c0.9-0.3,1.7-0.7,2.5-1.1c-0.3,6.5-2.3,14.4-5.8,21.4c-4.3,8.7-10.9,16-19,17L599.3,684z"/>
					<path class="st24" d="M478.2,636c0.2,0.6,0.9,1,1.5,0.8s1-0.9,0.8-1.5c0-0.1-6.1-20.8-16.7-29.4l-0.6,2.6
						C472.6,616.8,478.2,636,478.2,636z"/>
					<path class="st24" d="M481.2,684c0.7,0.1,1.3-0.4,1.3-1.1c0.1-0.7-0.4-1.3-1.1-1.3H481c-7.2-0.9-13.2-7.6-17.1-15.7
						c-3.1-6.2-5-13.3-5.4-19.2c-0.9-0.3-1.7-0.7-2.5-1.1c0.3,6.5,2.3,14.4,5.8,21.4c4.3,8.7,10.9,16,19,17L481.2,684z"/>
					<g>
						<path class="st11" d="M540.3,626.7l62.2,3.3c0,0,2.5,0.7,2.4,3s-2.3,46.4-2.3,46.4s-0.1,4-2.6,7.4s-22,35.7-59.8,35.7
							s-57.3-32.3-59.8-35.7s-2.6-7.4-2.6-7.4s-2.2-44.1-2.3-46.4c-0.1-2.3,2.4-3,2.4-3L540.3,626.7z"/>
						<path class="st13" d="M540.3,631.5l-59.8,3.2c0.5,14.8,1.5,29.7,2.2,44.5c0.1,1.6,0.8,3.5,1.7,4.8c1.7,2.3,3.2,4.6,4.9,6.9
							c3.3,4.1,6.9,8,10.9,11.4c11.4,9.8,24.9,15.4,40,15.4c15.2,0,28.6-5.6,40-15.4c4-3.4,7.7-7.3,11-11.4c1.8-2.3,3.3-4.5,4.9-6.9
							c0.9-1.3,1.6-3.2,1.7-4.8c0.7-14.8,1.7-29.7,2.2-44.5L540.3,631.5z"/>
						<path class="st24" d="M481.4,653.9c0.3,5.8,0.6,11.6,0.9,17.4l55.2-21.3L481.4,653.9L481.4,653.9z M482.6,677.2l0.1,2
							c0.1,1.6,0.8,3.5,1.7,4.8c1.7,2.3,3.2,4.6,4.9,6.9c3.3,4.1,6.9,8,10.9,11.4c11.4,9.8,24.9,15.4,40,15.4
							c15.2,0,28.6-5.6,40-15.4c4-3.4,7.7-7.3,11-11.4c1.8-2.3,3.3-4.5,4.9-6.9c0.3-0.3,0.5-0.7,0.7-1.2c0,0-9.7,10.5-43.4,10.5
							C519.8,693.3,482.6,677.2,482.6,677.2L482.6,677.2z M598,675.1c0.2-4.2,0.4-8.5,0.7-12.7l-41.1-2.9L598,675.1z"/>
					</g>
					<path d="M482.6,553.3c0,0,42.7,35.2,112-0.3c0,0,17.8-21.7,28.9-11c0,0,4.4-59.8-38.6-60.4c0,0,7.8-8.4,5.5-15.2
						c-2.2-6.8-20.3-23.1-58.5,1.1c0,0-2.9-17.6-17.1-18.2C487.1,448.2,422.8,511.7,482.6,553.3z"/>
					<path class="st33" d="M708.4,993.8c0.5-2,0.9-3.6,1-4.5c1.3-9-13.7-41.8-28.1-68.5c-2-3.6-6.4,59.7-8.2,56.4
						c0.7-8.7,1.2-82.9,1.3-83.3c0.5-2.4,35.4,68.4,37.4,74C713.9,973.4,708.4,993.8,708.4,993.8L708.4,993.8z"/>
				</g>
			</g>
		</g>
	</g>
</g>
<g id="圖層_2">
	<g>
		<path class="st10" d="M56.3,175.3c17.5-1.5,35-2.8,52.5-3.9c17.5-1.1,35-2.1,52.5-3c35-1.8,70.1-3.1,105.1-4.2
			c70.1-2.1,140.1-3,210.2-3.1c70.1,0,140.1,0.9,210.2,3c35,1.1,70.1,2.4,105.1,4.2c17.5,0.9,35,1.9,52.5,3
			c8.8,0.6,17.5,1.2,26.3,1.8c8.8,0.7,17.5,1.3,26.3,2.1c-8.8,0.8-17.5,1.4-26.3,2.1c-8.8,0.6-17.5,1.3-26.3,1.8
			c-17.5,1.1-35,2.1-52.5,3c-35,1.8-70.1,3.1-105.1,4.2c-70.1,2.1-140.1,3-210.2,3s-140.1-1-210.2-3.1c-35-1.1-70.1-2.4-105.1-4.2
			c-17.5-0.9-35-1.9-52.5-3C91.3,178.1,73.8,176.8,56.3,175.3z"/>
	</g>
	<g>
		<path class="st10" d="M210.3,326.3c17.5-1.5,35-2.8,52.5-3.9s35-2.1,52.5-3c35-1.8,70.1-3.1,105.1-4.2c70.1-2.1,140.1-3,210.2-3.1
			c70.1,0,140.1,0.9,210.2,3c35,1.1,70.1,2.4,105.1,4.2c17.5,0.9,35,1.9,52.5,3c8.8,0.6,17.5,1.2,26.3,1.8
			c8.8,0.7,17.5,1.3,26.3,2.1c-8.8,0.8-17.5,1.4-26.3,2.1c-8.8,0.6-17.5,1.3-26.3,1.8c-17.5,1.1-35,2.1-52.5,3
			c-35,1.8-70.1,3.1-105.1,4.2c-70.1,2.1-140.1,3-210.2,3s-140.1-1-210.2-3.1c-35-1.1-70.1-2.4-105.1-4.2c-17.5-0.9-35-1.9-52.5-3
			C245.3,329.1,227.8,327.8,210.3,326.3z"/>
	</g>
	<g>
		<g>
			<circle class="st42" cx="969.5" cy="88.4" r="47.2"/>
			<polygon class="st42" points="922.7,131.4 953.5,123.6 936.9,103 			"/>
		</g>
		<g>
			<path class="st11" d="M971.2,98.4c1.8,1.8,1.8,4.9,0,6.7l-3.8,3.8c-1.8,1.8-4.9,1.8-6.7,0l-16.4-16.6c-1.8-1.8-1.8-4.9,0-6.7
				l3.8-3.8c1.8-1.8,4.9-1.8,6.7,0L971.2,98.4z"/>
			<path class="st11" d="M985.6,69.8c1.8-1.8,4.9-1.8,6.7,0l3.8,3.8c1.8,1.8,1.8,4.9,0,6.7l-28.5,28.3c-1.8,1.8-4.9,1.8-6.7,0
				l-3.8-3.8c-1.8-1.8-1.8-4.9,0-6.7L985.6,69.8z"/>
		</g>
	</g>
	<g class="st43">
		<path class="st32" d="M135.4,61.9l-1.1,6.3H164L162,80H96.1l-5,28.5c-2.9,14.4-6.6,25.2-11.2,32.3c-4.7,7.2-9.9,13.1-15.7,17.9
			l-6.6-10.1c5.4-4.7,9.9-10.9,13.7-18.2c1-1.9,1.9-4.1,2.9-6.5c-4.2,2.9-8.3,5.5-12.5,7.9l-3.1-11c7.2-3.8,14-8.1,20.2-12.8
			c0.4-2.2,0.9-4.4,1.3-6.8l0.5-2.8l-11.2,4.3c-0.6-7.5-1.9-14.2-3.7-20.1l11.9-5.1c1.6,5.5,2.7,11.4,3.6,17.6l4.7-26.9h35.3
			l1.1-6.3H135.4z M147.9,114.5l-1.6,8.8c-5.1,7.1-10.8,12.9-16.7,17.4c5.9,2.4,13.3,4.1,22,5.3l-6.8,12.6
			c-11.3-1.7-20.9-4.8-28.4-9.6c-9.4,4.7-19.7,8.2-31,10.4l-3.9-11.4c9.6-1.5,18.1-3.8,25.3-6.8c-4-4.3-7-9.5-9.4-15.5h-5.2l2-11.3
			H147.9z M145.8,83.4l-2.3,13c-0.5,2.7-0.5,4.3,0,4.7c0.3,0.2,0.7,0.2,1.3,0.2s1.2,0,1.8-0.1c0.4,0,0.9-0.2,1.3-0.5
			c0.7-0.4,1.3-2,2-4.7l10,5.4c-1.3,4.9-3.3,8-6,9.1c-1.4,0.6-3,1-4.5,1.2c-2.4,0.2-4.6,0.2-6.5,0.2c-5.2,0-8.2-0.5-9.2-1.6
			c-2.9-0.5-3.7-4.1-2.6-10.5l1-5.9h-15.1c-1.6,5.7-3.9,9.9-6.6,12.5c-2.8,3-7.1,5.5-12.9,7.3L94,103.1c3.5-1.1,6.4-2.6,8.5-4.7
			c2.1-2.3,4-7.2,5.5-14.9h5.5H145.8z M119.1,135.2c4.4-2.8,8.2-5.9,11.5-9.4h-20.2C112.8,129.5,115.7,132.6,119.1,135.2z"/>
		<path class="st32" d="M184.9,83.8c-2.6,11.2-6.1,21.6-10.1,31.1l-8.8-4.9c4.1-9.7,7.4-19.1,9.7-28.6L184.9,83.8z M200.9,61.9
			l-2.7,15.3l7.7-3.4c1.6,5.4,2.8,11.4,3.6,18.1l-11.4,4.6c-0.2-4.1-0.6-8-1.3-11.6l-13.1,74.2h-11.4l17.1-97.1H200.9z M255.4,145.6
			c-1.6,8.9-7.9,13.4-18.7,13.4h-7.1l-0.5-11.8c3.4,0.6,6.6,0.9,9.5,0.9c2.4,0,4.1-1.1,5-3.3h-31.7l-2.5,14.3h-11.7l8.9-50.4h55.4
			L255.4,145.6z M234.8,67.4l1-5.5h12.2l-1,5.5h25.3l-1.9,11H245l-0.6,3.3h21.1l-1.9,10.5h-21.1l-0.5,2.9h26.6l-1.9,10.9h-63.5
			l1.9-10.9h24.7l0.5-2.9h-19.7l1.9-10.5h19.7l0.6-3.3h-23.9l1.9-11H234.8z M245.6,134.6l0.4-2.5h-31.9l-0.4,2.5H245.6z
			 M247.8,122.1l0.5-2.6h-31.9l-0.5,2.6H247.8z"/>
		<path class="st32" d="M325.8,70.8l1.6-8.8h12.2l-1.6,8.8h37.4l-2.1,11.8h-37.4l-4.6,25.9c3.5,6,7.8,11.7,13.2,17
			c6.4,6.3,14.3,11.4,23.9,15.1l-8.9,12.6c-7-3.2-13.6-7.3-19.7-12.7c-4.1-3.4-8-8.1-11.8-13.9l-5.6,32h-12.2l5.7-32.5
			c-4.9,4.8-10.1,9.1-15.5,13c-10,7.1-18.9,12.2-26.9,15.3l-4.4-11c11.6-4.7,21.8-10.5,30.6-17.4c7-5.2,13.4-10.8,19.2-16.8
			l4.7-26.7H285l2.1-11.8H325.8z M309.6,88.8c-1.9,3.4-3.5,6.6-5.1,9.1c3.5,3.2,6.7,6.6,9.6,10.2l-11,10.1c-1.9-3.1-4-6-6.1-8.6
			c-3.5,4.9-7.2,9.5-11.1,13.7l-8.4-7.2c4-4.6,7.8-9.5,11.1-14.5c3.8-5.8,7.1-11.4,9.6-17L309.6,88.8z M364,88
			c-1.9,3.4-3.7,6.5-5.3,9.1c4.2,3.4,8.1,7.1,11.7,11.1l-10.5,9.7c-2.8-3.7-5.7-7-8.8-9.8c-2.5,3.2-5.1,6.1-7.8,8.9l-8.4-7.1
			c3.6-3.9,6.8-7.7,9.7-11.8c3.3-4.7,6.1-9.4,8.3-13.9L364,88z"/>
		<path class="st32" d="M429.8,112.4c-0.4,2.5-1.3,4.4-2.5,5.9h5.7c-0.7-1.1-0.9-2.3-0.6-3.8l5.6-31.9h32.4l0.3-1.7h-32.4l3.2-18.1
			H452l-0.3,1.7h34l-1.3,7.1h-34l-0.4,2.2h32.4l-2.8,15.9h-32.4l-0.3,1.7h31.5l-1,5.8h-31.5l-0.3,1.7h31.5l-1,5.9h-31.5l-0.3,1.6
			h31.5l-0.8,4.4l5.3,3.2c-1.3,3.8-3.1,6.1-5.4,7.1c-1.5,0.4-3.5,0.8-6.1,0.9c-1.7,0.3-6.3,0.4-13.9,0.4c-4.1,0-7.6-0.1-10.7-0.3
			c-3.8,0-6.6-0.5-8.3-1.5l-0.5,3.1h40.8l-1.6,9.1h-17l5.8,5.9c-2.3,1.7-5,3.2-8,4.6c4.4,1.6,10.5,3.1,18.2,4.6l-7.9,11.4
			c-7.6-1.8-15-4.5-22-8.1c-5.3-2.8-9.5-6-12.4-9.8c-2.3-2.6-4-5.5-5-8.7h-4.4c-3,1.8-6,3.4-9,4.9l-1.4,8.2c6.2-0.6,12.3-1.4,18-2.2
			l0,9.2c-12.2,2.4-25.8,4.4-40.6,6.3l-1.8-11c4.3-0.3,8.4-0.8,12.4-1.2l0.8-4.4c-7,2.4-13,4.1-18.1,5.2l-3.7-10.1
			c6.8-0.9,14.1-2.3,21.7-4.2c1.2-0.2,2.4-0.5,3.3-0.9h-21.9l1.6-9.1h40.3l0.5-2.6c-2.3,1.2-5,1.7-8.3,1.7c-1.9,0-4.2-0.2-6.6-0.9
			l0-9.2c2.8,1.2,5.5,1.7,8.1,1.7c1.3,0,2.3-0.9,2.8-2.6h-22.2l-1.7,9.7h-10.1l6.2-35.3h42.5L429.8,112.4z M422.6,61.9l-0.6,3.4
			h15.6l-1.4,8h-5.8c-0.6,1.2-1.2,2.3-1.7,3.3h8.6l-1.4,8h-46.7l1.4-8h8.4c0-1.2-0.1-2.3-0.2-3.3h-5.5l1.4-8h16.3l0.6-3.4H422.6z
			 M421,104.9l0.3-1.7H399l-0.3,1.7H421z M422.6,96l0.3-1.7h-22.3l-0.3,1.7H422.6z M417.8,76.7c0.6-1.1,1.2-2.3,1.7-3.3H410
			c0.1,1.2,0.2,2.3,0.4,3.3H417.8z M448.6,135.6c1.7-0.9,3.3-1.7,4.8-2.7h-14.6c1.3,1.8,2.7,3.3,4.4,4.5c0.2,0.2,0.3,0.3,0.5,0.3
			C445.2,137.1,446.8,136.5,448.6,135.6z M443.4,112.4c0.4,1.3,2.2,1.9,5.5,1.9c1.7,0.2,4.2,0.2,7.4,0.2c6.3,0,10.1-0.1,11.3-0.3
			c1.3-0.2,2.2-0.8,2.6-1.5c0.1,0,0.2-0.1,0.3-0.3H443.4z"/>
	</g>
	<g class="st43">
		<path class="st35" d="M562.6,54.3c-6.3,0.9-12.5,1.7-18.9,2.3L541,71.4h23.8c0.9-9.8,2.6-20.7,4.7-32.6h15.5
			c-2.2,12.3-3.8,23.2-4.9,32.6h38l-2.7,15.1h-36.8c-0.3,4.5-0.5,8.6-0.4,12c0,4.6,0.2,8.9,0.5,12.8c5.2-6.4,10.2-13.5,14.9-21.3
			l13.1,7.3c-8.3,13.2-16.7,24.1-25.1,32.6c1.9,7.3,3.9,10.9,6,10.9c0.8,0,1.7-0.7,2.7-2c1.4-2.5,3-7.1,4.7-14l13.9,6.2
			c-3.5,10.9-7.9,18.3-13.4,22.5c-3.5,2.5-7.2,3.8-10.9,3.8c-4.1,0-8.3-4.5-12.8-13.5c-0.7-1.3-1.3-2.6-1.8-4.1
			c-8.5,6.4-17.7,11.7-27.5,16l-5-13c11.2-5.4,20.5-11.4,28.1-18c-1.2-5.3-1.9-11.1-2.2-17.5c-0.5-6-0.5-12.8,0-20.8h-25.2
			l-2.8,15.8c6.5-1.1,12.6-2.1,18.2-3.4l-0.6,14.6c-6.6,1.6-13.5,3-20.4,4.4l-3.3,18.8c-1.4,7.9-3.4,13.1-6,16
			c-3.1,3.2-7.9,4.8-14.2,4.8c-6,0-11.4-0.8-16.2-2.1l0.2-16c5.4,1.9,10.9,2.6,16.6,2.6c1.2,0,2.1-0.5,2.8-1.9
			c0.7-1.5,1.3-3.8,1.9-7l2.2-12.3c-7.8,1.3-15.8,2.5-23.9,3.6l-0.4-16c9.7-1.1,18.6-2.1,27.1-3.4l3.2-18.3h-26.5l2.7-15.1h26.5
			l2.3-13.2c-5.5,0.5-11.2,1.1-16.8,1.3l-2.8-14.4c17.9-0.9,34.6-2.3,50-4.1L562.6,54.3z M614.8,58.1l-15.5,8.2
			c-1.5-6.5-4.1-12.7-7.6-18.5l15-8.3C610.3,45.3,613,51.6,614.8,58.1z"/>
		<path class="st35" d="M645.5,59.5l3.7-21.2h15l-3.7,21.2h10.9l-2.6,14.6h-10.9l-3.6,20.4c2.2-0.5,4.4-1.2,6.5-1.9l-0.1,12.4
			c-3.1,1.3-6.2,2.6-9,3.7l-5.3,29.9c-1.3,7.1-3.2,12-5.6,14.7c-2.9,2.9-7.5,4.5-13.8,4.5c-2.9,0-5.6-0.4-8-1.1l0-15
			c2.7,1.1,5.6,1.5,8.6,1.5c1.2,0,2.1-0.5,2.7-1.6c0.7-1.5,1.3-3.7,1.8-6.6l3.7-20.8c-2.5,0.8-4.9,1.5-7.1,2.1l-2.4-15.5
			c4.2-0.8,8.4-1.6,12.4-2.5l4.3-24.4H631l2.6-14.6H645.5z M704.4,42l-1.9,10.9c-4.4,8.6-9.7,16.8-15.9,24.8h13.6
			c-5.8,21.4-11.8,37.6-18.2,48.5c-1.3,2.4-2.7,4.6-4.1,6.8c0.2,0.3,0.4,0.5,0.7,0.7c4.1,4.4,14.5,6.6,31,6.8c9,0,18.8-0.5,29.5-1.6
			l-8.2,17.1h-24.1c-19.7-0.1-32.4-3.2-38.3-9c-0.4-0.3-0.6-0.5-0.7-0.8c-3.6,4.1-7.6,8.1-11.9,11.9l-8.3-11.4
			c4.9-4,9.3-8.2,12.9-12.4c-2.4-6.1-3.5-13.8-3.7-22.8l12.8-5.2c0.2,4.6,0.8,8.7,1.7,12.3c3.9-7.3,7.3-16.2,10.3-26.7h-7.3
			c-1.9,2-3.7,3.8-5.6,5.7l-8.7-9.4c9.8-9.5,18.4-20.3,25.8-32h-14l2.5-13.9H704.4z M753,51.3c-5.5,2-11.1,3.7-17,5.3l-4,22.6h17.6
			l-2.5,14.4h-17.6l-4.3,24.4h13.4l-2.5,14.4h-44.5l2.5-14.4h16.6l4.3-24.4h-16l2.5-14.4h16l3.4-19.1c-4.2,1.1-8.4,1.9-12.8,2.5
			l-2.3-13.5c15.1-2.4,29.4-6.1,42.7-10.9L753,51.3z"/>
		<path class="st35" d="M810.9,43c-4.5,8.9-9.4,17.5-14.9,26l-15.6,88.4h-15.1l10.9-61.8c-3.7,4.2-7.3,8.2-10.8,11.7l-5.6-15.5
			c15.7-16.8,27.9-34.6,36.8-53.4L810.9,43z M823.6,93.7c-5.2,17.5-13.1,33.8-23.7,48.6l-13.2-7.1c10.6-15.1,18.2-30.2,22.9-45
			L823.6,93.7z M836.9,41.5c-2,4.5-4.1,8.9-6.4,12.8h56.8c-4.5,10.7-9.8,21.3-15.9,31.6l-13.3-3.7c2.6-4.2,5-8.7,7.1-13.4h-43.6
			c-5.4,8.2-11.2,15.4-17.2,21.2l-8.3-11.4c6-6.1,10.9-12.4,15-19.1c4.7-7.1,8.6-14.2,11.8-21.3L836.9,41.5z M849.9,77.1l-10.6,60
			c-1.4,7.7-3.4,12.7-6.1,15.6c-3.3,3-8.4,4.6-15.1,4.6c-4,0-7.4-0.8-10.5-2.1l0.1-15.5c3.4,1.7,7.1,2.5,10.9,2.5
			c1.6,0,2.9-0.5,3.6-1.7c0.8-1.5,1.5-3.8,2-7l9.9-56.4H849.9z M872,136.2l-16.2,6.1c-0.8-17.5-2.8-33.1-6.1-47l14.6-6.2
			C868,103.3,870.5,119.1,872,136.2z"/>
	</g>
	<g class="st43">
		<path class="st32" d="M335.2,253.1l-52.5,6.1l-5.5,31c-0.7,3.9,0,5.8,2.3,5.8c0.9,0.5,3.5,0.7,7.6,0.7c11.1,0,16.8-0.1,16.9-0.5
			c2.2-0.1,4.4-0.5,6.6-1.1c2.2-0.3,4.6-5.7,7.3-16.3l11.1,5.3c-3.2,10.2-6.4,17-9.7,20.5c-2.1,1.4-4.9,2.3-8.7,2.7
			c-8.6,0.8-17.1,1.3-25.5,1.3h-5c-3.6,0-6.4-0.4-8.5-1.1c-6.1-0.2-8.5-4.4-7-12.7l6-34.1l-27.5,3.1l0.1-12.2l29.6-3.3l5.6-31.7h12
			l-5.4,30.4l51.2-5.8L335.2,253.1z"/>
		<path class="st32" d="M387.4,238.8l4-22.4h12.4l-4,22.4h37.3l-2.1,11.8H401c1.1,10.4,3.9,19.5,8.1,27c4.6,8.8,11.8,15.6,21.4,20.4
			l-8.7,12.6c-10.1-5.2-18-13.2-23.9-23.8c-3.3-5.7-5.8-12.3-7.6-19.8c-3.3,5.6-7.2,11.1-11.8,16.2c-10.3,11.3-22.4,20.4-36.2,27.5
			l-4.9-11.1c15-8,26.8-17,35.1-27c5.7-7.1,9.7-14.4,12.3-21.9h-36.3l2.1-11.8H387.4z"/>
		<path class="st32" d="M467.9,226.9l1.9-10.5h10.8l-4,22.4h4.8l4-22.4h10.9l-2,11.2c2.1-2.7,4-5.5,5.5-8.2l10.2,3.7
			c-3.1,5.6-6.2,10.4-9.3,14.3l-7.2-4.4l-1,6h12l-2,11.1h-12.2l4.8,1.6c-1.5,2.6-3.2,5.3-5.2,8c-0.5,0.6-0.9,1.3-1.3,1.8h10.8
			l-1.9,11H478l-0.9,5.3h16.9l-1.9,10.6h-16.9l-1,5.5c6.7-0.8,13.2-1.8,19.3-2.7l0.3,10.2c-15.5,3-32.6,5.7-51.3,8.1l-1.9-11.8
			c7.5-0.7,14.8-1.6,21.7-2.4l1.2-7h-18l1.9-10.6h18l0.9-5.3h-19.6l1.9-11h10.2c-0.7-2.9-1.7-5.8-3-8.6l4.8-2.8h-10.4l2-11.1h13.7
			l1.1-6.1l-9.5,3.7c-0.5-4.8-1.4-9.2-2.5-13l10.5-4.5C466.3,221.5,467.1,224.2,467.9,226.9z M476.8,261.3c0.8-1.3,1.6-2.5,2.3-3.9
			c1.5-2.5,2.6-5,3.7-7.5h-14.4c1,2.7,1.8,5.4,2.4,8.1l-6.2,3.2H476.8z M516.7,275.2l-12.5,4.9c-0.7-7.3-1.9-13.8-3.7-19.6l11.3-4.9
			C514,261.6,515.7,268.1,516.7,275.2z M526.3,234.8l3.2-18.4h11.6l-3.2,18.4h6.1l-2.2,12.2h-6.1l-8.4,47.7
			c-1.1,6.1-2.7,10-4.7,12.2c-2.5,2.5-6.4,3.8-11.8,3.8c-3.3,0-6.3-0.4-9-1.3l0.2-12.2c3,1,6.1,1.6,9.4,1.6c1.4,0,2.4-0.4,3.1-1.4
			c0.6-1.1,1.3-3,1.7-5.5l7.9-44.9h-18.1l2.2-12.2H526.3z"/>
		<path class="st32" d="M622,218.1c-0.6,1.1-1.1,2.2-1.7,3.2h28.5l-2,11.1h-13c0.9,1.3,1.8,2.4,2.6,3.7l-11.1,6.1
			c-1.5-3.3-3.1-6.6-4.9-9.7h-7c-2.4,3.4-4.7,6.5-7.2,9l-1.1-0.9l-0.5,2.9h38.6l-2,11.1h-38.6l-0.7,4.1h34.5l-2.6,14.6
			c-1.5,8.8-6.7,13-15.6,13c-1.9,0-4-0.2-6.2-0.8l-0.5-11.4c3,1.1,5.9,1.7,8.5,1.7c1,0,2-1.8,2.6-5.3l0.1-0.4H600l-1,5.7
			c3.5,4,7.9,7.6,13.1,11c6.3,4.4,14.2,7.7,23.4,10.2l-8.1,11.8c-6.8-2.2-13.2-5.1-19.1-8.9c-4.2-2.5-8.1-5.8-11.7-9.8l-3.7,21.2
			h-11.6l4-22.5c-4.3,3.1-8.7,6.1-13.4,8.6c-8.9,4.8-16.9,8.1-24,10.2l-3.8-10.5c10.3-3.1,19.4-7,27.2-11.6
			c6-3.3,11.5-6.9,16.5-10.9l0.8-4.5h-22.1l-3.1,17.5h-11.6l5.1-28.9h33.7l0.7-4.1H553l2-11.1h38.1l0.9-4.9h9l-5.4-4.9
			c2.7-2.6,5.3-5.6,7.7-9.1c2.4-3.3,4.6-6.6,6.1-9.6L622,218.1z M579.4,218.1c-0.6,1.1-1.1,2.2-1.7,3.2h22l-2,11.1H588
			c0.6,1.3,1.3,2.4,1.9,3.7l-11.1,6.1c-1.1-3.3-2.3-6.6-3.7-9.7h-4.4c-2.7,3.8-5.6,7-8.3,9.7l-8.7-7.7c3.2-2.7,6-5.8,8.5-9.5
			c2.8-3.5,5-6.9,6.7-10L579.4,218.1z"/>
	</g>
	<g class="st43">
		<path class="st35" d="M681.8,253.2l-1.1,6h60.4l1.1-6H756l-9.8,55.8h-13.8l3.3-18.6h-63.3c-1,2.3-2.1,4.2-3.2,6
			c-3.6,5.5-8.4,10.2-14.2,14l-8.1-10c4.6-3.1,8.3-7.1,11.3-12c3-5,5.6-12.3,7.5-22l2.3-13.2H681.8z M731,193.5l-1,5.5h46.4
			l-2.3,13.1h-9.4l7.9,11.1c-2.7,1-5.3,2.1-8,2.8c0,3.5,0.5,6.7,1.3,9.6c0.8,4,2.5,7.3,5.2,10.2l-10.8,10.5c-3-3.1-5.3-7.3-6.7-13
			c-1.2-4.5-1.8-9.1-1.9-13.9c-2.8,0.6-5.5,1.2-8.3,1.7l-1.4,8c3.1-0.3,6-0.5,8.6-0.9l-0.1,11.6c-8.4,1.5-17.5,3-27.4,4l-0.1-13.1
			c1.9,0,3.7-0.1,5.5-0.4l3-17.2c-3.9,4.4-7.7,8-11.3,10.8l-3.7,20.9h-13.4l4-22.6c-1.3-2.1-2.6-4-3.7-6
			c-2.7,11.1-5.6,18.2-8.7,21.3c-2.8,2.8-6.6,4.2-11.3,4.2c-2.2,0-5-0.4-8.6-1.4l-0.2-5.5c-0.2,0.3-0.3,0.4-0.3,0.4
			c-4.1,4.4-9.2,7.8-15.3,10.2l-3.4-11.6c4.4-1.9,7.8-4.2,10.1-7.1c1.4-1.9,2.6-4.6,3.6-8H662l2.2-12.6H700l6.4-4h-43l2.3-13.1h49
			l1-5.5H731z M737.8,277.9l1.1-6h-60.5c-0.5,2.2-1,4.2-1.6,6H737.8z M678.6,238.5c2.7,0.5,5.2,0.8,7.2,0.8c0.6,0,1.2-0.4,1.9-1.4
			c0.6-1.3,1.4-4.2,2.4-9.1H682C681,232.5,679.8,235.8,678.6,238.5z M725.3,212.1h-13.8c2.2,2.8,4.3,5.7,6.4,8.7
			C720.6,218,723,215.2,725.3,212.1z M737.3,216.6c-1.1,1.3-2.1,2.6-3,3.6c10.9-2.1,20.5-4.8,28.9-8.1h-32.3L737.3,216.6z"/>
		<path class="st35" d="M804.5,213.6l3.6-20.2h14.4l-3.6,20.2h10.9l-2.5,14h-10.9l-3.6,20.2c4.2-1,8.3-2.1,12.3-3.1l0.2,13
			c-5,1.8-10.1,3.3-15.1,4.8l-5,28.4c-1.2,6.9-3.1,11.7-5.4,14.3c-2.9,2.8-7.4,4.4-13.3,4.4c-3.8,0-7.4-0.4-10.6-1l0-14.5
			c3.6,1,7.3,1.4,11.1,1.4c1.1,0,2-0.5,2.5-1.5c0.6-1.4,1.3-3.6,1.8-6.4l3.7-20.8c-3.9,1-7.7,1.9-11.4,2.7l-2.3-15
			c5.8-1,11.1-2.1,16.4-3.1l4.1-23.5h-14.3l2.5-14H804.5z M882.1,233.7l-9.6,54.2c-0.6,3.2-0.7,5.1-0.1,5.7c0.5,0.3,0.9,0.4,1.5,0.4
			c0.1,0,0.3-0.1,0.6-0.4c0-0.3,0.2-0.6,0.5-1.4c0.3-1.2,1.2-5.3,2.4-12.3l12.7,7.1c-2.2,9.5-4.6,15.4-7.5,17.9
			c-1.4,1-3,1.8-4.6,2.2c-2.5,0.3-4.6,0.5-6.5,0.5c-6.2,0-9.9-0.8-11-2.1c-3.4-0.8-4.3-5.5-2.8-14l7.7-43.7h-14.9l-3.9,22.4
			c-2.2,11.3-5.8,19.8-10.4,25.4c-4.8,5.5-10.1,10.2-16.3,14l-7.8-11.6c5.7-3.9,10.5-8.6,14.3-14.5c3.7-5.9,6.5-13.6,8.2-23.4
			l4.6-26.3h7H882.1z M875.7,193.5l-2.8,16.1h27.2l-2.5,14.1h-67.2l2.5-14.1h25.2l2.8-16.1H875.7z"/>
		<path class="st35" d="M996.5,193.5l-1.3,7.6h35.1l-2.5,14h-77.6l-6,34.1c-3.4,17.2-7.8,30.1-13.3,38.6
			c-5.6,8.6-11.7,15.7-18.6,21.3l-7.7-12.1c6.3-5.7,11.7-13,16.2-21.7c1.2-2.3,2.3-4.9,3.4-7.7c-4.9,3.5-9.8,6.6-14.7,9.4l-3.6-13.1
			c8.5-4.5,16.5-9.6,23.8-15.3c0.5-2.6,1.1-5.3,1.6-8.1l0.6-3.3l-13.2,5.1c-0.7-9-2.2-17-4.2-24l14-6c1.9,6.6,3.2,13.6,4.1,21.1
			l5.7-32.1h41.5l1.3-7.6H996.5z M1011.1,256.3l-1.9,10.5c-6.1,8.5-12.7,15.4-19.7,20.8c7,2.8,15.6,4.9,25.8,6.3l-8.1,15
			c-13.3-2.1-24.5-5.8-33.4-11.4c-11.1,5.7-23.2,9.8-36.5,12.5l-4.6-13.6c11.3-1.8,21.3-4.5,29.8-8.1c-4.7-5.1-8.3-11.3-11-18.5
			h-6.1l2.4-13.5H1011.1z M1008.7,219.2l-2.7,15.5c-0.6,3.2-0.7,5.1,0,5.7c0.3,0.3,0.8,0.3,1.5,0.3c0.6,0,1.4,0,2.2-0.1
			c0.5,0,1.1-0.3,1.5-0.6c0.9-0.5,1.6-2.4,2.4-5.7l11.8,6.4c-1.5,5.9-4,9.5-7.1,10.9c-1.7,0.8-3.5,1.2-5.3,1.4
			c-2.8,0.3-5.4,0.3-7.6,0.3c-6.1,0-9.6-0.6-10.8-1.9c-3.4-0.6-4.3-4.9-3-12.6l1.2-7.1H975c-2,6.8-4.6,11.8-7.8,14.9
			c-3.3,3.6-8.4,6.6-15.2,8.7l-4.2-12.6c4.1-1.3,7.5-3.1,10-5.7c2.5-2.7,4.7-8.6,6.6-17.9h6.5H1008.7z M977.1,281
			c5.1-3.3,9.7-7.1,13.6-11.2H967C969.7,274.2,973.1,277.9,977.1,281z"/>
	</g>
</g>
</svg>
