<svg id="bc4ba0d8-d7f2-4c83-9835-a45989fcbd93" data-name="圖層 1" xmlns="http://www.w3.org/2000/svg" viewBox="0 0 4874.78 838.61"><defs><style>.af1619f2-d0d3-4d80-884b-4eb673806247{fill:#3db4e8;}.ed34141c-4917-4128-ad1f-6bdb410815b1{fill:#007bc2;}.a56e3e06-f8a0-4925-8f24-5d254ca2bd7c{fill:#8fd3f3;}.f6929a43-7bfd-4841-96da-b7f8ca054156{fill:#0095d8;}.b6499aa7-3fa9-497a-9d5b-6a9c9843d719{fill:#c70011;}.bf196713-9075-4a2e-9df2-7bcabf9e4dbd{fill:#eb6164;}.a192534c-ba9c-4184-9146-ccd7e91340bf{fill:#ef8582;}.fbb79454-3b8e-4135-b3a5-78bb40b027b7{fill:#b75742;}.b65535c6-cf15-491c-9dc8-41504a7b2c59{fill:#ffe893;}.a68c1af6-0db8-446e-95f3-b321244b3dcf,.e5e1921d-915f-4b27-8944-a232242661e3{fill:#fdd762;}.b31075b0-2801-4646-adf4-759e484e0e36{fill:#80b94a;}.b6e674d3-b88b-428c-8379-fe59fc79a166{fill:#f8b500;}.af0b13dc-eb24-427f-853a-bb48e011d1a4,.b0b62b71-0310-4de3-b626-f4a2673cd280,.b14c1274-2046-47fc-acb8-37ebf16b4e11,.b6bf9e27-570f-43c7-88c0-96aa4270c301,.bb612e46-f6e9-4aba-9827-72e63ff64228,.ea1a58fd-33fb-4f58-8eff-f2882dfa32ba,.eab8f764-37e6-47b6-bc98-30f86a434af0,.ec381e84-b5e0-44d6-9d8c-3a5a2bbf2e91,.ed414918-14ab-4248-82cd-39535d04f3c0,.fbf4aced-05f4-4a8f-b862-26ee3796b25d{fill:#cce7f3;stroke:#8bcae8;}.a0d6e939-27cf-40c6-8abe-ac4493d44c6a,.a68c1af6-0db8-446e-95f3-b321244b3dcf,.abc0b1c7-e316-4394-a96b-fc761ddff38e,.af0b13dc-eb24-427f-853a-bb48e011d1a4,.b14c1274-2046-47fc-acb8-37ebf16b4e11,.bb612e46-f6e9-4aba-9827-72e63ff64228,.ec381e84-b5e0-44d6-9d8c-3a5a2bbf2e91,.ed414918-14ab-4248-82cd-39535d04f3c0,.fbf4aced-05f4-4a8f-b862-26ee3796b25d{stroke-miterlimit:10;}.a0d6e939-27cf-40c6-8abe-ac4493d44c6a,.af0b13dc-eb24-427f-853a-bb48e011d1a4,.ea1a58fd-33fb-4f58-8eff-f2882dfa32ba{stroke-width:5.25px;}.a0d6e939-27cf-40c6-8abe-ac4493d44c6a,.abc0b1c7-e316-4394-a96b-fc761ddff38e{fill:#e3807d;stroke:#dd5f60;}.a1101e8c-31ce-4aea-b075-016233e670fb,.b0b62b71-0310-4de3-b626-f4a2673cd280,.b6bf9e27-570f-43c7-88c0-96aa4270c301,.ea1a58fd-33fb-4f58-8eff-f2882dfa32ba,.eab8f764-37e6-47b6-bc98-30f86a434af0,.fbf4aced-05f4-4a8f-b862-26ee3796b25d{stroke-linecap:round;}.a1101e8c-31ce-4aea-b075-016233e670fb,.b0b62b71-0310-4de3-b626-f4a2673cd280,.b6bf9e27-570f-43c7-88c0-96aa4270c301,.ea1a58fd-33fb-4f58-8eff-f2882dfa32ba,.eab8f764-37e6-47b6-bc98-30f86a434af0{stroke-linejoin:round;}.b78dfa2e-05d0-4072-8b1c-e5f1fd5cdb17{fill:#0d74b4;}.e4554c76-8e62-4177-bc54-77321035efff{fill:#fff;}.e1c0aafb-7857-4524-8537-1e4ce5fdb07a{fill:#f7d8d7;}.a68c1af6-0db8-446e-95f3-b321244b3dcf,.bb612e46-f6e9-4aba-9827-72e63ff64228,.eab8f764-37e6-47b6-bc98-30f86a434af0{stroke-width:6.07px;}.a68c1af6-0db8-446e-95f3-b321244b3dcf{stroke:#f8b500;}.a67c202f-914a-4f58-80fe-87948c3b590b{fill:#e5e5e5;}.a1101e8c-31ce-4aea-b075-016233e670fb,.b0b62b71-0310-4de3-b626-f4a2673cd280,.ec381e84-b5e0-44d6-9d8c-3a5a2bbf2e91,.fbf4aced-05f4-4a8f-b862-26ee3796b25d{stroke-width:4.91px;}.b14c1274-2046-47fc-acb8-37ebf16b4e11{stroke-width:5.17px;}.a1101e8c-31ce-4aea-b075-016233e670fb{fill:none;stroke:#005fa3;}.ae2ada52-270a-4233-a8f4-bc02d8c92a76{fill:#005fa3;}.e23f4efd-89ed-4fca-a849-c9d1342b6407{fill:#ecf4d9;}.abc0b1c7-e316-4394-a96b-fc761ddff38e,.b6bf9e27-570f-43c7-88c0-96aa4270c301,.ed414918-14ab-4248-82cd-39535d04f3c0{stroke-width:6.25px;}.a5333c9a-6ba1-4b35-a27c-c34db409a003{fill:#146ea8;}.a6dec03a-73d8-426f-b505-1e4de4d6390b{fill:#fff2c2;}.a72987e4-a9fb-4fef-9649-76f2a8fe0adc{fill:#f48c7f;}</style></defs><title>price</title><path class="af1619f2-d0d3-4d80-884b-4eb673806247" d="M1741.8,820.54c-6,1.17-29.87,33.18-29.87,33.18l-.84,2.22s43.22-4.81,44.78-6.66C1760.1,844.3,1746.71,819.57,1741.8,820.54Zm-29.57,33.86c7.89-10.08,25.86-24.79,29.74-27.92,3.47,3.54,8.69,14,9.38,18.69C1746.39,846.2,1724.84,852.88,1712.23,854.4Z" transform="translate(-283.87 -181.86)"/><path class="af1619f2-d0d3-4d80-884b-4eb673806247" d="M1683.9,826c-11.76-7.67-15-7.61-18.41-5.67s-16.06,20.07-10.41,25.72,50.43,9.69,50.43,9.69l1-2.74S1695.66,833.67,1683.9,826Zm-21,18.06c-2.61-2.61,3.89-13.46,6.85-15.77.76-.42,30.89,18.75,35.1,25.3C1688,851.77,1665.29,846.22,1662.86,844.06Z" transform="translate(-283.87 -181.86)"/><rect class="af1619f2-d0d3-4d80-884b-4eb673806247" x="1417.48" y="665.91" width="11.56" height="16.46" rx="4.52"/><path class="ed34141c-4917-4128-ad1f-6bdb410815b1" d="M1801.41,856.07l-204.89-.61a8.89,8.89,0,0,0-8.81,10.23l3.17,20.91,10.27,0,6.19,105.21a10.65,10.65,0,0,0,10.62,10H1781.5l6.8-115.63,9.67,0Z" transform="translate(-283.87 -181.86)"/><path class="a56e3e06-f8a0-4925-8f24-5d254ca2bd7c" d="M1785,1001.82H1659.47l-6.72-143.57h149.14l-6.26,133.58A10.56,10.56,0,0,1,1785,1001.82Z" transform="translate(-283.87 -181.86)"/><path class="f6929a43-7bfd-4841-96da-b7f8ca054156" d="M1808,886.24l-161.9.43-3.69-31.15,158.6.61a8.89,8.89,0,0,1,8.82,9.68Z" transform="translate(-283.87 -181.86)"/><polygon class="ed34141c-4917-4128-ad1f-6bdb410815b1" points="1362.28 704.8 1516.69 704.37 1367.17 712.54 1362.28 704.8"/><rect class="af1619f2-d0d3-4d80-884b-4eb673806247" x="1423.03" y="673.9" width="4.3" height="30.77"/><rect class="af1619f2-d0d3-4d80-884b-4eb673806247" x="1435.49" y="704.52" width="5.37" height="115.65"/><path class="a56e3e06-f8a0-4925-8f24-5d254ca2bd7c" d="M1550.93,745c-8.47,1.67-42.3,47-42.3,47l-1.2,3.14s61.21-6.81,63.43-9.43C1576.84,778.64,1557.88,743.62,1550.93,745Zm-41.87,48c11.17-14.28,36.61-35.13,42.11-39.55,4.91,5,12.31,19.79,13.29,26.47C1557.42,781.33,1526.91,790.8,1509.06,793Z" transform="translate(-283.87 -181.86)"/><path class="a56e3e06-f8a0-4925-8f24-5d254ca2bd7c" d="M1468.93,752.73c-16.65-10.86-21.22-10.78-26.07-8s-22.75,28.42-14.75,36.43,71.43,13.71,71.43,13.71L1501,791S1485.58,763.59,1468.93,752.73Zm-29.8,25.57c-3.7-3.68,5.51-19,9.71-22.32,1.07-.61,43.74,26.55,49.7,35.82C1474.72,789.22,1442.58,781.36,1439.13,778.3Z" transform="translate(-283.87 -181.86)"/><path class="a56e3e06-f8a0-4925-8f24-5d254ca2bd7c" d="M1216.17,601.7h3.57a6.41,6.41,0,0,1,6.41,6.41v10.5a6.41,6.41,0,0,1-6.41,6.41h-3.57a6.4,6.4,0,0,1-6.4-6.4V608.1A6.4,6.4,0,0,1,1216.17,601.7Z"/><path class="b6499aa7-3fa9-497a-9d5b-6a9c9843d719" d="M1635.35,795.32l-290.17-.87a12.59,12.59,0,0,0-12.48,14.49l4.49,29.61,14.54,0,8.77,149a15.07,15.07,0,0,0,15,14.2h231.6L1616.78,838l13.7,0Z" transform="translate(-283.87 -181.86)"/><path class="bf196713-9075-4a2e-9df2-7bcabf9e4dbd" d="M1612.11,1001.73H1434.33l-9.52-203.32H1636l-8.86,189.18A15,15,0,0,1,1612.11,1001.73Z" transform="translate(-283.87 -181.86)"/><path class="a192534c-ba9c-4184-9146-ccd7e91340bf" d="M1644.75,838l-229.29.61-5.24-44.12,224.62.86a12.59,12.59,0,0,1,12.49,13.72Z" transform="translate(-283.87 -181.86)"/><polygon class="fbb79454-3b8e-4135-b3a5-78bb40b027b7" points="1131.59 656.79 1350.28 656.18 1138.53 667.74 1131.59 656.79"/><rect class="a56e3e06-f8a0-4925-8f24-5d254ca2bd7c" x="1217.63" y="613.01" width="6.08" height="43.57"/><rect class="a56e3e06-f8a0-4925-8f24-5d254ca2bd7c" x="1235.28" y="656.38" width="7.6" height="163.79"/><rect class="b65535c6-cf15-491c-9dc8-41504a7b2c59" x="884.81" y="515.23" width="235.29" height="304.62"/><rect class="e5e1921d-915f-4b27-8944-a232242661e3" x="913.62" y="515.23" width="8.52" height="304.62"/><rect class="e5e1921d-915f-4b27-8944-a232242661e3" x="938.77" y="515.23" width="8.52" height="304.62"/><rect class="e5e1921d-915f-4b27-8944-a232242661e3" x="963.92" y="515.23" width="8.52" height="304.62"/><rect class="e5e1921d-915f-4b27-8944-a232242661e3" x="989.07" y="515.23" width="8.52" height="304.62"/><rect class="e5e1921d-915f-4b27-8944-a232242661e3" x="1014.22" y="515.23" width="8.52" height="304.62"/><rect class="e5e1921d-915f-4b27-8944-a232242661e3" x="1039.37" y="515.23" width="8.52" height="304.62"/><rect class="e5e1921d-915f-4b27-8944-a232242661e3" x="1064.53" y="515.23" width="8.52" height="304.62"/><rect class="e5e1921d-915f-4b27-8944-a232242661e3" x="1089.68" y="515.23" width="8.52" height="304.62"/><rect class="e5e1921d-915f-4b27-8944-a232242661e3" x="884.82" y="515.21" width="235.27" height="12.56"/><path class="b31075b0-2801-4646-adf4-759e484e0e36" d="M1329.83,581.76c-10.38,2.84-48.37,62.23-48.37,62.23l-1.2,4s75.48-14,78-17.4C1365.07,621.28,1338.36,579.44,1329.83,581.76Zm-47.75,63.39c12.6-18.75,42.37-46.95,48.81-52.94,6.55,5.78,17.08,23.5,18.89,31.72C1341.17,626.36,1304.08,640.86,1282.08,645.15Z" transform="translate(-283.87 -181.86)"/><path class="b31075b0-2801-4646-adf4-759e484e0e36" d="M1228.59,598.73c-21.68-12-27.35-11.49-33.14-7.64s-25.73,37.37-15.07,46.61,90,10.65,90,10.65l1.43-5S1250.26,610.75,1228.59,598.73Zm-34.76,34.47C1188.9,629,1199,609,1203.9,604.57c1.27-.84,56.76,29.09,65,40.08C1239.05,643.58,1198.39,636.7,1193.83,633.2Z" transform="translate(-283.87 -181.86)"/><path class="b31075b0-2801-4646-adf4-759e484e0e36" d="M1272.12,663.26l4.44-.32a8,8,0,0,0,7.38-8.54l-.94-13a8,8,0,0,0-8.53-7.39l-4.44.32a8,8,0,0,0-7.39,8.54l.94,13A8,8,0,0,0,1272.12,663.26Z" transform="translate(-283.87 -181.86)"/><rect class="b6e674d3-b88b-428c-8379-fe59fc79a166" x="869.06" y="468.16" width="272.61" height="54.36"/><rect class="af0b13dc-eb24-427f-853a-bb48e011d1a4" x="1530.59" y="687.67" width="39.56" height="74.96" rx="16.04" transform="translate(-138.17 -434.66) rotate(9.78)"/><path class="a0d6e939-27cf-40c6-8abe-ac4493d44c6a" d="M1528.49,735.62,1525,756.05l-6.68-1.15a16.86,16.86,0,1,0-5.73,33.23l29.06,5a16.88,16.88,0,0,0,19.48-13.75l6.38-37Z" transform="translate(-283.87 -181.86)"/><rect class="af0b13dc-eb24-427f-853a-bb48e011d1a4" x="1608.83" y="689.36" width="39.56" height="74.96" rx="16.04" transform="translate(-180.82 -378.77) rotate(7.14)"/><path class="a0d6e939-27cf-40c6-8abe-ac4493d44c6a" d="M1607.15,738.91l-2.5,20-6.73-.85a16.86,16.86,0,1,0-4.19,33.46l29.26,3.67a16.87,16.87,0,0,0,18.82-14.63l4.61-36.7Z" transform="translate(-283.87 -181.86)"/><path class="af0b13dc-eb24-427f-853a-bb48e011d1a4" d="M1663.73,729.43a120.05,120.05,0,0,0-13.59-239.34,98.7,98.7,0,0,0-177.41,62.69,98.82,98.82,0,0,0,32.9,194.58Z" transform="translate(-283.87 -181.86)"/><path class="ea1a58fd-33fb-4f58-8eff-f2882dfa32ba" d="M1426.31,636.29l-44.7-6.68a14.76,14.76,0,0,1-12.39-16.73h0A14.78,14.78,0,0,1,1386,600.49l44.7,6.68" transform="translate(-283.87 -181.86)"/><path class="ea1a58fd-33fb-4f58-8eff-f2882dfa32ba" d="M1743.91,602.22l43-14a14.77,14.77,0,0,0,9.46-18.55h0a14.77,14.77,0,0,0-18.55-9.45l-43,14" transform="translate(-283.87 -181.86)"/><path class="b78dfa2e-05d0-4072-8b1c-e5f1fd5cdb17" d="M1539.82,630a1,1,0,0,0-.91,1.41c1.88,4.76,9.6,20.75,28.15,19.45,21.43-1.49,27.62-18.37,29-23.4a1,1,0,0,0-1.08-1.31Z" transform="translate(-283.87 -181.86)"/><path class="e4554c76-8e62-4177-bc54-77321035efff" d="M1552.81,629.06l.69,9.83a1.5,1.5,0,0,0,1.6,1.4L1573,639a1.51,1.51,0,0,0,1.4-1.61l-.69-9.82Z" transform="translate(-283.87 -181.86)"/><circle class="e1c0aafb-7857-4524-8537-1e4ce5fdb07a" cx="1203.22" cy="459.24" r="30.64"/><circle class="e1c0aafb-7857-4524-8537-1e4ce5fdb07a" cx="1367.23" cy="443.06" r="30.64"/><rect class="ed34141c-4917-4128-ad1f-6bdb410815b1" x="1509.82" y="578.19" width="39.14" height="6.88" rx="3.44" transform="translate(74.73 -743.28) rotate(23.49)"/><rect class="ed34141c-4917-4128-ad1f-6bdb410815b1" x="1509.43" y="596.22" width="43.02" height="6.88" rx="3.44" transform="translate(2829.34 -29.13) rotate(142.84)"/><rect class="ed34141c-4917-4128-ad1f-6bdb410815b1" x="1576.73" y="570.26" width="39.14" height="6.88" rx="3.44" transform="translate(2867.42 -285.88) rotate(136.68)"/><rect class="ed34141c-4917-4128-ad1f-6bdb410815b1" x="1578.57" y="591.56" width="39.59" height="6.88" rx="3.31" transform="translate(356.35 -997.81) rotate(35.4)"/><path class="e4554c76-8e62-4177-bc54-77321035efff" d="M1532.17,383.69q-3.06,4.62-9.77,8.16a46.84,46.84,0,0,1-15.14,4.78q-13,1.9-21.89-4.88t-11.55-20.86l-.89-5.7a39.8,39.8,0,0,1,.94-17.53,25.9,25.9,0,0,1,8.21-12.66,28.25,28.25,0,0,1,14.27-6.11q12.33-1.81,20,2.82t10.44,15.67l-15.32,2.26q-1.64-5.42-4.7-7.37c-2-1.3-4.73-1.71-8-1.22a10.5,10.5,0,0,0-8.5,6.44q-2.52,5.56-1.17,15l.58,4q1.47,9.88,5.57,14.35t11.36,3.4q6.23-.93,8.84-4.13l-1.51-10.25-11.06,1.63-1.61-10.92,27-4Z" transform="translate(-283.87 -181.86)"/><path class="e4554c76-8e62-4177-bc54-77321035efff" d="M1603.14,349.23a39.29,39.29,0,0,1-1.06,17.62,26.69,26.69,0,0,1-8.49,12.95,28.66,28.66,0,0,1-14.43,6.23,29.09,29.09,0,0,1-15.54-1.68,26.67,26.67,0,0,1-11.81-9.58,38.19,38.19,0,0,1-6.27-16l-.55-3.72a39.48,39.48,0,0,1,1-17.64,26.66,26.66,0,0,1,8.51-12.95,28.92,28.92,0,0,1,14.52-6.27,28.63,28.63,0,0,1,15.55,1.79,27.16,27.16,0,0,1,11.9,9.85,38.39,38.39,0,0,1,6.19,16.34Zm-16.59-.38q-1.46-9.84-5.49-14.45a10.66,10.66,0,0,0-10.16-3.72q-12,1.77-10,19.82l.67,4.86q1.42,9.7,5.42,14.44a10.62,10.62,0,0,0,10.33,3.8,10.5,10.5,0,0,0,8.54-6.49q2.52-5.61,1.14-15.22Z" transform="translate(-283.87 -181.86)"/><path class="bf196713-9075-4a2e-9df2-7bcabf9e4dbd" d="M1501.76,411.4a40.43,40.43,0,0,1-25.08-8.23c-8.84-6.73-14.55-16.7-17-29.64,0-.14,0-.29-.07-.43s-.9-5.78-.91-5.82a54.23,54.23,0,0,1,1.41-23.81A40.11,40.11,0,0,1,1472.88,324a42.52,42.52,0,0,1,21.37-9.29,60,60,0,0,1,8.67-.66,39.7,39.7,0,0,1,20.85,5.4c8.42,5.11,14.12,13.33,16.92,24.44a14.26,14.26,0,0,1,.21,6.06,14.38,14.38,0,0,1,1.48,4.55l4,27.12a14.34,14.34,0,0,1-2.24,10c-3.38,5.09-8.44,9.43-15,12.91a61.35,61.35,0,0,1-19.74,6.29A52.5,52.5,0,0,1,1501.76,411.4Z" transform="translate(-283.87 -181.86)"/><path class="bf196713-9075-4a2e-9df2-7bcabf9e4dbd" d="M1574.23,400.75a42,42,0,0,1-16.06-3.12,40.9,40.9,0,0,1-18.08-14.58,52.44,52.44,0,0,1-8.71-21.89c0-.09-.59-4-.59-4a53.85,53.85,0,0,1,1.53-24,41,41,0,0,1,13.06-19.74A43.12,43.12,0,0,1,1567,304a47.2,47.2,0,0,1,6.86-.51,41.88,41.88,0,0,1,16.36,3.27,41.43,41.43,0,0,1,18.12,14.9,52.82,52.82,0,0,1,8.58,22.36l.46,3.1a53.9,53.9,0,0,1-1.56,24,41,41,0,0,1-13,19.71,42.93,42.93,0,0,1-21.51,9.39A48.19,48.19,0,0,1,1574.23,400.75Z" transform="translate(-283.87 -181.86)"/><path class="e4554c76-8e62-4177-bc54-77321035efff" d="M1532.17,383.69q-3.06,4.62-9.77,8.16a46.84,46.84,0,0,1-15.14,4.78q-13,1.9-21.89-4.88t-11.55-20.86l-.89-5.7a39.8,39.8,0,0,1,.94-17.53,25.9,25.9,0,0,1,8.21-12.66,28.25,28.25,0,0,1,14.27-6.11q12.33-1.81,20,2.82t10.44,15.67l-15.32,2.26q-1.64-5.42-4.7-7.37c-2-1.3-4.73-1.71-8-1.22a10.5,10.5,0,0,0-8.5,6.44q-2.52,5.56-1.17,15l.58,4q1.47,9.88,5.57,14.35t11.36,3.4q6.23-.93,8.84-4.13l-1.51-10.25-11.06,1.63-1.61-10.92,27-4Z" transform="translate(-283.87 -181.86)"/><path class="e4554c76-8e62-4177-bc54-77321035efff" d="M1603.14,349.23a39.29,39.29,0,0,1-1.06,17.62,26.69,26.69,0,0,1-8.49,12.95,28.66,28.66,0,0,1-14.43,6.23,29.09,29.09,0,0,1-15.54-1.68,26.67,26.67,0,0,1-11.81-9.58,38.19,38.19,0,0,1-6.27-16l-.55-3.72a39.48,39.48,0,0,1,1-17.64,26.66,26.66,0,0,1,8.51-12.95,28.92,28.92,0,0,1,14.52-6.27,28.63,28.63,0,0,1,15.55,1.79,27.16,27.16,0,0,1,11.9,9.85,38.39,38.39,0,0,1,6.19,16.34Zm-16.59-.38q-1.46-9.84-5.49-14.45a10.66,10.66,0,0,0-10.16-3.72q-12,1.77-10,19.82l.67,4.86q1.42,9.7,5.42,14.44a10.62,10.62,0,0,0,10.33,3.8,10.5,10.5,0,0,0,8.54-6.49q2.52-5.61,1.14-15.22Z" transform="translate(-283.87 -181.86)"/><rect class="bf196713-9075-4a2e-9df2-7bcabf9e4dbd" x="1421.43" y="437.53" width="64.35" height="10.92" rx="5.46" transform="translate(519.49 -1112.33) rotate(47.72)"/><rect class="bf196713-9075-4a2e-9df2-7bcabf9e4dbd" x="1613.78" y="405.95" width="64.35" height="10.92" rx="5.46" transform="translate(2186.73 -1253.16) rotate(105.05)"/><rect class="bb612e46-f6e9-4aba-9827-72e63ff64228" x="3903.34" y="833.58" width="45.7" height="86.59" rx="18.53" transform="matrix(0.91, 0.43, -0.43, 0.91, 462.05, -1768.67)"/><path class="a68c1af6-0db8-446e-95f3-b321244b3dcf" d="M3898.6,881.83l-10.18,21.67-7.09-3.33a19.48,19.48,0,0,0-16.57,35.26l30.83,14.49a19.51,19.51,0,0,0,25.92-9.35l18.47-39.3Z" transform="translate(-283.87 -181.86)"/><rect class="bb612e46-f6e9-4aba-9827-72e63ff64228" x="3994.33" y="849.09" width="45.7" height="86.59" rx="18.53" transform="translate(691.96 -2061.53) rotate(29.82)"/><path class="a68c1af6-0db8-446e-95f3-b321244b3dcf" d="M3988.94,895.69l-11.57,20.17-6.79-3.89a19.48,19.48,0,1,0-19.38,33.79l29.56,17a19.51,19.51,0,0,0,26.59-7.21l21.25-37.07Z" transform="translate(-283.87 -181.86)"/><path class="bb612e46-f6e9-4aba-9827-72e63ff64228" d="M4065.66,897.61a138.69,138.69,0,0,0,69.74-268,114,114,0,0,0-217.28,6.17,114.16,114.16,0,0,0-32.67,225.62Z" transform="translate(-283.87 -181.86)"/><path class="eab8f764-37e6-47b6-bc98-30f86a434af0" d="M3831.9,691.19l-25.64-45.49a17.05,17.05,0,0,1,6.47-23.16h0a17.05,17.05,0,0,1,23.16,6.46l25.64,45.49" transform="translate(-283.87 -181.86)"/><path class="eab8f764-37e6-47b6-bc98-30f86a434af0" d="M4208.55,774.29l47.59-21.49a17.06,17.06,0,0,0,8.5-22.5h0a17.06,17.06,0,0,0-22.5-8.5l-47.59,21.49" transform="translate(-283.87 -181.86)"/><circle class="e1c0aafb-7857-4524-8537-1e4ce5fdb07a" cx="3637.71" cy="505.18" r="35.4"/><path class="b78dfa2e-05d0-4072-8b1c-e5f1fd5cdb17" d="M3967.13,707.16a1.2,1.2,0,0,0-1.5,1.23c.38,5.9,3.21,26.21,24.07,31.35,24.1,5.94,36.88-10.44,40.17-15.48a1.21,1.21,0,0,0-.73-1.82Z" transform="translate(-283.87 -181.86)"/><path class="e4554c76-8e62-4177-bc54-77321035efff" d="M3981.74,710.76l-2.73,11a1.74,1.74,0,0,0,1.28,2.11l20.09,5a1.74,1.74,0,0,0,2.1-1.27l2.73-11.05Z" transform="translate(-283.87 -181.86)"/><circle class="e1c0aafb-7857-4524-8537-1e4ce5fdb07a" cx="3808.35" cy="544.04" r="35.4"/><ellipse class="e4554c76-8e62-4177-bc54-77321035efff" cx="3972.6" cy="650.62" rx="30.08" ry="26.82" transform="translate(2099.79 4167.42) rotate(-76.05)"/><ellipse class="e4554c76-8e62-4177-bc54-77321035efff" cx="4052.47" cy="667.62" rx="30.08" ry="26.82" transform="translate(2143.9 4257.84) rotate(-76.05)"/><ellipse class="b78dfa2e-05d0-4072-8b1c-e5f1fd5cdb17" cx="3972.38" cy="651.52" rx="18.78" ry="15.58" transform="translate(2098.74 4167.89) rotate(-76.05)"/><ellipse class="b78dfa2e-05d0-4072-8b1c-e5f1fd5cdb17" cx="4052.3" cy="667.59" rx="18.78" ry="15.58" transform="translate(2143.81 4257.64) rotate(-76.05)"/><ellipse class="a67c202f-914a-4f58-80fe-87948c3b590b" cx="3670.94" cy="816.91" rx="118.15" ry="21.69"/><path class="e5e1921d-915f-4b27-8944-a232242661e3" d="M3809.55,638.6a15.92,15.92,0,0,1-15-21.17l121.89-347.67a15.9,15.9,0,0,1,30,10.52L3824.55,628A15.92,15.92,0,0,1,3809.55,638.6Z" transform="translate(-283.87 -181.86)"/><path class="a192534c-ba9c-4184-9146-ccd7e91340bf" d="M3931.44,264h0a11.07,11.07,0,0,1,10.43,14.72L3820,626.35a11.07,11.07,0,0,1-10.43,7.41,11.22,11.22,0,0,1-3.66-.63,11.07,11.07,0,0,1-6.78-14.1L3921,271.36a11.08,11.08,0,0,1,10.44-7.4m0-9.69a20.76,20.76,0,0,0-19.58,13.89L3790,615.83a20.74,20.74,0,1,0,39.15,13.72L3951,281.88a20.77,20.77,0,0,0-19.57-27.61Z" transform="translate(-283.87 -181.86)"/><path class="e5e1921d-915f-4b27-8944-a232242661e3" d="M3899.68,544.53a178.3,178.3,0,0,1-59.18-10.12c-93.08-32.63-142.25-134.89-109.62-228a178.7,178.7,0,0,1,228-109.61c93.07,32.63,142.25,134.89,109.62,228A179.1,179.1,0,0,1,3899.68,544.53Z" transform="translate(-283.87 -181.86)"/><path class="a192534c-ba9c-4184-9146-ccd7e91340bf" d="M3899.67,191.55a174.05,174.05,0,1,1-164.22,116.5,173.74,173.74,0,0,1,164.22-116.5m0-9.69h0a184.52,184.52,0,1,0,60.78,10.4,183.11,183.11,0,0,0-60.78-10.4Z" transform="translate(-283.87 -181.86)"/><path class="bf196713-9075-4a2e-9df2-7bcabf9e4dbd" d="M3884.43,357.22l-11.84-4.39,1.81-4.88L3814,325.52l-2,5.3-11.74-4.35,33.45-90.16,84,31.18Zm-5.79-20.7,23-62-60.44-22.43-23,62Zm10.19-57.07-16.42,44.25-41.86-15.53L3847,263.92Zm-24,28.43,8-21.5-18.18-6.74-8,21.5Z" transform="translate(-283.87 -181.86)"/><path class="bf196713-9075-4a2e-9df2-7bcabf9e4dbd" d="M4011.18,340.09l-15.64,42.17-8.31-3.09a45.12,45.12,0,0,0,3.59,3.7,48.7,48.7,0,0,0,6.39,5.09l-9.49,8.05a60.85,60.85,0,0,1-6.24-6.44,75.64,75.64,0,0,1-6.24-8.34l7.42-3.75-18.38-6.82,2.19,7.78a76.71,76.71,0,0,1-20.35,2.62l-.89-7.78L3935,375c.07-2.1,0-4.24,0-6.28a283.07,283.07,0,0,1-32.42-4.34l2.32-12.61c1.63.37,3.16.7,4.69,1L3928,303.19l35.31,13.11-13.4,36.14-5.61-2.08a106.54,106.54,0,0,1,2.53,19.61,59.46,59.46,0,0,0,12.58-1.12l-8.82-3.28,15.64-42.17Zm-78.58,11.49,9.81-1.91-16.93-6.29-4.36,11.74c4.43.81,8.68,1.45,12.52,1.93C3933.25,355.25,3932.89,353.34,3932.6,351.58Zm63.43-55,1.66-4.47,10.07,3.74-1.66,4.46L4024,306.9,4016.88,326,3999,319.39l-1,2.8,20.36,7.55-3.31,8.93-51.21-19,3.32-8.93,20.77,7.7,1-2.8L3971.07,309l1-2.7-9.21,4.74c-1-2-1.93-4-2.92-5.81l-2.16,5.81-22.64-8.4,1-2.7a40.61,40.61,0,0,1-7.86,2.4l-3.8-12a101.72,101.72,0,0,0,17-6.23,71.89,71.89,0,0,0,13.92-8.54l7.58,9.19c-.65.47-1.19,1-1.69,1.38a122.46,122.46,0,0,1,11.7,17.81l5.2-14Zm-53.53,42,1.35-3.63-13.4-5-1.35,3.63Zm5-13.4,1.19-3.22-13.4-5-1.19,3.22Zm9.63-25c-1.59-2.72-3.26-5.23-5-7.64-1.54,1-3.18,1.89-4.79,2.72l-1.57.72Zm31.26,69.25,1-2.8-24-8.9-1,2.8Zm4-10.9,1.08-2.91-24-8.9-1.08,2.91Zm4.08-11,.89-2.39-24-8.9-.89,2.39Zm-4.55-40,1-2.81-7.79-2.89-1,2.81Zm10.08,3.73,7.79,2.89,1-2.8-7.79-2.89Z" transform="translate(-283.87 -181.86)"/><path class="bf196713-9075-4a2e-9df2-7bcabf9e4dbd" d="M3785.82,428.75l18.5-49.86a55.37,55.37,0,0,1-13,1.32l5.09-13.71a49.05,49.05,0,0,0,19.09-5l8.73,3.24-25.51,68.75Z" transform="translate(-283.87 -181.86)"/><path class="bf196713-9075-4a2e-9df2-7bcabf9e4dbd" d="M3870.91,454.17c-6.06,2.95-12.72,3.08-19.89.42-9.24-3.43-15-9.34-17.07-17.68-1.87-7.07-1-15.38,2.44-24.73q14.39-38.79,41.31-28.87c7,2.59,11.73,6.6,14.5,11.88,2.45,5.17,2.72,10.82.62,17.13l-13.09-4.86c.6-3.2.58-5.69-.17-7.51-.88-2.09-2.85-3.77-6-4.93-7-2.58-13.13.68-18.48,9.69A27.05,27.05,0,0,1,3869.4,406c7.17,2.66,12,7.07,14.64,13.11,2.46,6.11,2.48,12.74-.18,19.91S3876.86,451.18,3870.91,454.17Zm.47-29.6a10.1,10.1,0,0,0-6.47-6.77,12.74,12.74,0,0,0-10.63.31,14,14,0,0,0-7,8.14,12.3,12.3,0,0,0,.45,9.62,11,11,0,0,0,6.65,6.6,11.5,11.5,0,0,0,9.68-.31,13.67,13.67,0,0,0,6.53-7.74A16.4,16.4,0,0,0,3871.38,424.57Z" transform="translate(-283.87 -181.86)"/><path class="bf196713-9075-4a2e-9df2-7bcabf9e4dbd" d="M3895.85,471.34l-4.54-10.07,90.49-39.45,4.58,10Zm34-33.6c-4.28,2.31-9,2.43-14.35.47s-8.94-5.21-10.57-9.72-1.62-9.34.35-14.64,5-9.12,9.18-11.36,9-2.43,14.45-.43c5.2,1.93,8.8,5.27,10.64,9.86,1.68,4.4,1.51,9.3-.41,14.49S3934,435.5,3929.81,437.74Zm-4.3-26.29q-6.86-2.55-10.09,6.18T3919,428.9c4.47,1.65,7.83-.41,10-6.22S3930,413.1,3925.51,411.45Zm37.7,79c-4.25,2.21-9.06,2.43-14.36.47s-8.9-5.32-10.57-9.72-1.62-9.34.35-14.64,5-9.12,9.22-11.47,9-2.32,14.41-.32c5.2,1.93,8.8,5.27,10.64,9.86,1.68,4.4,1.51,9.3-.41,14.49S3967.35,488.18,3963.21,490.42Zm-4.42-26.33q-6.86-2.55-10.09,6.18t3.62,11.27q6.85,2.54,10.09-6.18T3958.79,464.09Z" transform="translate(-283.87 -181.86)"/><path class="e4554c76-8e62-4177-bc54-77321035efff" d="M3886.37,368.84a11.77,11.77,0,0,1-4-.72l-11.84-4.39a11.65,11.65,0,0,1-6.52-6.06,12.41,12.41,0,0,1-.75-2.2l-42-15.58a11.74,11.74,0,0,1-7.27,2.55,11.77,11.77,0,0,1-4-.72l-11.73-4.36a11.63,11.63,0,0,1-6.86-14.94l33.45-90.15a11.61,11.61,0,0,1,14.94-6.85l84,31.17a11.62,11.62,0,0,1,6.85,14.94l-33.29,89.73a11.58,11.58,0,0,1-10.89,7.58Z" transform="translate(-283.87 -181.86)"/><path class="e4554c76-8e62-4177-bc54-77321035efff" d="M3989.65,407.64a11.58,11.58,0,0,1-7.68-2.91,71.9,71.9,0,0,1-7.39-7.62,86.48,86.48,0,0,1-5.35-6.88,89,89,0,0,1-20.86,2.45H3948a11.62,11.62,0,0,1-10.15-6.06c-.31,0-.62,0-.92,0a11.61,11.61,0,0,1-10.75-7.2c-7.33-.82-15.2-2-23.83-3.62a11.61,11.61,0,0,1-9.3-13.52l2.31-12.61a11.6,11.6,0,0,1,5-7.6,11.43,11.43,0,0,1,3.24-1.48l14.3-38.57-2.6-8.24a11.63,11.63,0,0,1,8.21-14.76,91.11,91.11,0,0,0,14.92-5.5,60.8,60.8,0,0,0,11.61-7.11,11.6,11.6,0,0,1,16.19,1.7l7.58,9.2a11.66,11.66,0,0,1,1.35,2l.05,0a11.66,11.66,0,0,1,8.89-.34l9.07,3.37a11.59,11.59,0,0,1,10.45-1.2l10.08,3.73a11.64,11.64,0,0,1,7.14,7.73L4030,296a11.62,11.62,0,0,1,6.85,14.93l-5.56,15a11.55,11.55,0,0,1-.08,7.86l-3.31,8.94a11.64,11.64,0,0,1-5.66,6.33l-12.57,33.88a11.61,11.61,0,0,1-2.95,13.88l-9.49,8.06A11.58,11.58,0,0,1,3989.65,407.64Z" transform="translate(-283.87 -181.86)"/><path class="e4554c76-8e62-4177-bc54-77321035efff" d="M3800.63,445.15a11.74,11.74,0,0,1-4-.73l-12.87-4.78a11.61,11.61,0,0,1-6.86-14.94l12.45-33.55a11.64,11.64,0,0,1-7-15l5.09-13.71a11.6,11.6,0,0,1,10.11-7.55,37.67,37.67,0,0,0,14.64-3.75,11.61,11.61,0,0,1,5.24-1.25,11.49,11.49,0,0,1,4,.73l8.73,3.23a11.62,11.62,0,0,1,6.85,14.94l-25.51,68.76A11.64,11.64,0,0,1,3800.63,445.15Z" transform="translate(-283.87 -181.86)"/><path class="e4554c76-8e62-4177-bc54-77321035efff" d="M3862.83,468.11a39.88,39.88,0,0,1-13.92-2.63c-16.19-6-22.14-17.26-24.28-25.66-2.46-9.39-1.52-20.05,2.8-31.68,9.47-25.54,23.51-38.49,41.73-38.49a41.75,41.75,0,0,1,14.52,2.77c9.59,3.55,16.57,9.4,20.75,17.38.07.13.14.26.2.4,3.8,8,4.19,16.67,1.15,25.79a11.62,11.62,0,0,1-6,6.81l-.73.32a39.73,39.73,0,0,1-2.35,19.93c-3.67,9.91-9.94,17.14-18.63,21.5l-.13.07A34.26,34.26,0,0,1,3862.83,468.11Zm-2.38-36.49.35.1a3.4,3.4,0,0,0,.8-1.34,9,9,0,0,0,.49-1.9,1.8,1.8,0,0,0-.45-.06h-.06l-.3.14c-.19.1-.69.34-1.21,1.73a.8.8,0,0,0,0,.15h0a2.92,2.92,0,0,0,.26.8Z" transform="translate(-283.87 -181.86)"/><path class="e4554c76-8e62-4177-bc54-77321035efff" d="M3957.76,503.85a31.69,31.69,0,0,1-11-2.07c-10.64-3.95-15.32-11.07-17.36-16.38a29.24,29.24,0,0,1-1.83-14.39l-25.13,11a11.62,11.62,0,0,1-15.24-5.88L3882.65,466a11.64,11.64,0,0,1,5.95-15.43l15.45-6.73a26.24,26.24,0,0,1-8.08-11.24c-2.79-7.08-2.68-14.76.31-22.83,2.93-7.91,8-14,14.53-17.54a26.72,26.72,0,0,1,12.82-3.22,32.08,32.08,0,0,1,11.22,2.12c8.29,3.07,14.3,8.75,17.38,16.41a1.8,1.8,0,0,1,.08.21,29.93,29.93,0,0,1,1.67,14.32l25.12-10.95a11.61,11.61,0,0,1,15.2,5.81l4.58,10a11.62,11.62,0,0,1-5.91,15.49l-15.41,6.73a27.81,27.81,0,0,1,8.06,11.1,1.67,1.67,0,0,1,.08.2c2.66,7,2.53,14.83-.38,22.68a32.09,32.09,0,0,1-14.64,17.5l-.18.09A27.33,27.33,0,0,1,3957.76,503.85Zm-38.17-84.17Zm.8-2.15Z" transform="translate(-283.87 -181.86)"/><path class="b65535c6-cf15-491c-9dc8-41504a7b2c59" d="M3888.3,361.1l-11.84-4.4,1.81-4.88-60.44-22.42-2,5.29-11.73-4.35,33.44-90.15,84,31.17Zm-5.79-20.7,23-62L3845.07,256l-23,62Zm10.19-57.07-16.42,44.24L3834.43,312l16.41-44.24Zm-24,28.42,8-21.5-18.18-6.74-8,21.5Z" transform="translate(-283.87 -181.86)"/><path class="b65535c6-cf15-491c-9dc8-41504a7b2c59" d="M4015.06,344l-15.65,42.17-8.31-3.08a45,45,0,0,0,3.59,3.69,49.19,49.19,0,0,0,6.39,5.09l-9.49,8.06a59.88,59.88,0,0,1-6.23-6.45,74.39,74.39,0,0,1-6.24-8.34l7.41-3.75-18.38-6.82,2.19,7.79a76.69,76.69,0,0,1-20.34,2.61l-.9-7.78-10.22,1.76c.07-2.1,0-4.24,0-6.27a283.79,283.79,0,0,1-32.42-4.35l2.32-12.61c1.63.37,3.17.7,4.7,1l18.41-49.64,35.32,13.1-13.41,36.14-5.61-2.08a105.69,105.69,0,0,1,2.53,19.61,59.55,59.55,0,0,0,12.59-1.12l-8.83-3.28,15.64-42.16Zm-78.59,11.49,9.81-1.91-16.93-6.28L3925,359c4.42.82,8.68,1.45,12.52,1.93C3937.12,359.12,3936.76,357.22,3936.47,355.45Zm63.43-55,1.66-4.47,10.07,3.74-1.65,4.47,17.86,6.63-7.09,19.11-17.86-6.63-1,2.8,20.35,7.56-3.31,8.93-51.2-19,3.31-8.93,20.77,7.71,1-2.81L3975,312.89l1-2.7-9.2,4.74c-1-2-1.94-4-2.93-5.81l-2.16,5.82-22.64-8.4,1-2.7a41.33,41.33,0,0,1-7.86,2.4l-3.8-12.05a101.4,101.4,0,0,0,17-6.23,71.89,71.89,0,0,0,13.92-8.54l7.58,9.19c-.64.47-1.19,1-1.69,1.38a122.46,122.46,0,0,1,11.7,17.81l5.21-14Zm-53.53,42,1.35-3.63-13.4-5-1.35,3.63Zm5-13.39,1.2-3.22-13.4-5-1.2,3.22Zm9.64-25c-1.59-2.72-3.26-5.23-5-7.63-1.54,1-3.18,1.89-4.79,2.71l-1.56.72Zm31.26,69.26,1-2.81-24-8.9-1,2.8Zm4-10.91,1.08-2.91-24-8.9-1.08,2.91Zm4.09-11,.88-2.39-24-8.9-.89,2.39Zm-4.55-40,1-2.8-7.79-2.89-1,2.8Zm10.07,3.74,7.79,2.89,1-2.81-7.79-2.89Z" transform="translate(-283.87 -181.86)"/><path class="b65535c6-cf15-491c-9dc8-41504a7b2c59" d="M3789.69,432.62l18.5-49.85a54.86,54.86,0,0,1-13,1.31l5.08-13.71a49,49,0,0,0,19.1-5l8.72,3.24-25.51,68.76Z" transform="translate(-283.87 -181.86)"/><path class="b65535c6-cf15-491c-9dc8-41504a7b2c59" d="M3874.78,458c-6.06,2.95-12.72,3.08-19.89.42-9.24-3.43-15-9.33-17.07-17.67-1.87-7.08-1-15.39,2.44-24.74q14.4-38.79,41.31-28.86c7,2.58,11.73,6.59,14.5,11.87,2.46,5.17,2.72,10.82.62,17.13l-13.09-4.86c.6-3.2.58-5.69-.17-7.5-.87-2.1-2.85-3.78-6-4.93-6.95-2.58-13.13.68-18.48,9.68a27,27,0,0,1,14.3,1.29c7.16,2.66,12,7.06,14.63,13.11s2.48,12.73-.18,19.9S3880.74,455.05,3874.78,458Zm.47-29.6a10.1,10.1,0,0,0-6.47-6.77,12.74,12.74,0,0,0-10.63.31,14.06,14.06,0,0,0-7,8.14,12.39,12.39,0,0,0,.45,9.62,11,11,0,0,0,6.65,6.6,11.53,11.53,0,0,0,9.68-.3,13.78,13.78,0,0,0,6.54-7.74A16.41,16.41,0,0,0,3875.25,428.44Z" transform="translate(-283.87 -181.86)"/><path class="b65535c6-cf15-491c-9dc8-41504a7b2c59" d="M3899.72,475.21l-4.54-10.07,90.5-39.45,4.57,10Zm34-33.6c-4.29,2.31-9.06,2.43-14.35.47s-8.94-5.21-10.58-9.71-1.62-9.35.35-14.64,5-9.12,9.18-11.37,9.05-2.43,14.46-.42c5.19,1.92,8.79,5.27,10.64,9.85,1.67,4.4,1.51,9.3-.42,14.5S3937.83,439.37,3933.69,441.61Zm-4.31-26.29q-6.86-2.54-10.09,6.18t3.62,11.27c4.46,1.66,7.83-.4,10-6.22S3933.85,417,3929.38,415.32Zm37.7,79c-4.25,2.21-9.06,2.43-14.35.47s-8.9-5.31-10.58-9.72-1.61-9.34.35-14.63,5-9.12,9.22-11.47,9-2.33,14.42-.33c5.19,1.93,8.79,5.28,10.64,9.86,1.67,4.4,1.51,9.3-.42,14.5S3971.22,492.05,3967.08,494.29ZM3962.67,468q-6.86-2.54-10.09,6.18t3.61,11.27q6.86,2.55,10.1-6.18T3962.67,468Z" transform="translate(-283.87 -181.86)"/><path class="a192534c-ba9c-4184-9146-ccd7e91340bf" d="M3884.43,357.22l-11.84-4.39,1.81-4.88L3814,325.52l-2,5.3-11.74-4.35,33.45-90.16,84,31.18Zm-5.79-20.7,23-62-60.44-22.43-23,62Zm10.19-57.07-16.42,44.25-41.86-15.53L3847,263.92Zm-24,28.43,8-21.5-18.18-6.74-8,21.5Z" transform="translate(-283.87 -181.86)"/><path class="a192534c-ba9c-4184-9146-ccd7e91340bf" d="M4011.18,340.09l-15.64,42.17-8.31-3.09a45.12,45.12,0,0,0,3.59,3.7,48.7,48.7,0,0,0,6.39,5.09l-9.49,8.05a60.85,60.85,0,0,1-6.24-6.44,75.64,75.64,0,0,1-6.24-8.34l7.42-3.75-18.38-6.82,2.19,7.78a76.71,76.71,0,0,1-20.35,2.62l-.89-7.78L3935,375c.07-2.1,0-4.24,0-6.28a283.07,283.07,0,0,1-32.42-4.34l2.32-12.61c1.63.37,3.16.7,4.69,1L3928,303.19l35.31,13.11-13.4,36.14-5.61-2.08a106.54,106.54,0,0,1,2.53,19.61,59.46,59.46,0,0,0,12.58-1.12l-8.82-3.28,15.64-42.17Zm-78.58,11.49,9.81-1.91-16.93-6.29-4.36,11.74c4.43.81,8.68,1.45,12.52,1.93C3933.25,355.25,3932.89,353.34,3932.6,351.58Zm63.43-55,1.66-4.47,10.07,3.74-1.66,4.46L4024,306.9,4016.88,326,3999,319.39l-1,2.8,20.36,7.55-3.31,8.93-51.21-19,3.32-8.93,20.77,7.7,1-2.8L3971.07,309l1-2.7-9.21,4.74c-1-2-1.93-4-2.92-5.81l-2.16,5.81-22.64-8.4,1-2.7a40.61,40.61,0,0,1-7.86,2.4l-3.8-12a101.72,101.72,0,0,0,17-6.23,71.89,71.89,0,0,0,13.92-8.54l7.58,9.19c-.65.47-1.19,1-1.69,1.38a122.46,122.46,0,0,1,11.7,17.81l5.2-14Zm-53.53,42,1.35-3.63-13.4-5-1.35,3.63Zm5-13.4,1.19-3.22-13.4-5-1.19,3.22Zm9.63-25c-1.59-2.72-3.26-5.23-5-7.64-1.54,1-3.18,1.89-4.79,2.72l-1.57.72Zm31.26,69.25,1-2.8-24-8.9-1,2.8Zm4-10.9,1.08-2.91-24-8.9-1.08,2.91Zm4.08-11,.89-2.39-24-8.9-.89,2.39Zm-4.55-40,1-2.81-7.79-2.89-1,2.81Zm10.08,3.73,7.79,2.89,1-2.8-7.79-2.89Z" transform="translate(-283.87 -181.86)"/><path class="a192534c-ba9c-4184-9146-ccd7e91340bf" d="M3785.82,428.75l18.5-49.86a55.37,55.37,0,0,1-13,1.32l5.09-13.71a49.05,49.05,0,0,0,19.09-5l8.73,3.24-25.51,68.75Z" transform="translate(-283.87 -181.86)"/><path class="a192534c-ba9c-4184-9146-ccd7e91340bf" d="M3870.91,454.17c-6.06,2.95-12.72,3.08-19.89.42-9.24-3.43-15-9.34-17.07-17.68-1.87-7.07-1-15.38,2.44-24.73q14.39-38.79,41.31-28.87c7,2.59,11.73,6.6,14.5,11.88,2.45,5.17,2.72,10.82.62,17.13l-13.09-4.86c.6-3.2.58-5.69-.17-7.51-.88-2.09-2.85-3.77-6-4.93-7-2.58-13.13.68-18.48,9.69A27.05,27.05,0,0,1,3869.4,406c7.17,2.66,12,7.07,14.64,13.11,2.46,6.11,2.48,12.74-.18,19.91S3876.86,451.18,3870.91,454.17Zm.47-29.6a10.1,10.1,0,0,0-6.47-6.77,12.74,12.74,0,0,0-10.63.31,14,14,0,0,0-7,8.14,12.3,12.3,0,0,0,.45,9.62,11,11,0,0,0,6.65,6.6,11.5,11.5,0,0,0,9.68-.31,13.67,13.67,0,0,0,6.53-7.74A16.4,16.4,0,0,0,3871.38,424.57Z" transform="translate(-283.87 -181.86)"/><path class="a192534c-ba9c-4184-9146-ccd7e91340bf" d="M3895.85,471.34l-4.54-10.07,90.49-39.45,4.58,10Zm34-33.6c-4.28,2.31-9,2.43-14.35.47s-8.94-5.21-10.57-9.72-1.62-9.34.35-14.64,5-9.12,9.18-11.36,9-2.43,14.45-.43c5.2,1.93,8.8,5.27,10.64,9.86,1.68,4.4,1.51,9.3-.41,14.49S3934,435.5,3929.81,437.74Zm-4.3-26.29q-6.86-2.55-10.09,6.18T3919,428.9c4.47,1.65,7.83-.41,10-6.22S3930,413.1,3925.51,411.45Zm37.7,79c-4.25,2.21-9.06,2.43-14.36.47s-8.9-5.32-10.57-9.72-1.62-9.34.35-14.64,5-9.12,9.22-11.47,9-2.32,14.41-.32c5.2,1.93,8.8,5.27,10.64,9.86,1.68,4.4,1.51,9.3-.41,14.49S3967.35,488.18,3963.21,490.42Zm-4.42-26.33q-6.86-2.55-10.09,6.18t3.62,11.27q6.85,2.54,10.09-6.18T3958.79,464.09Z" transform="translate(-283.87 -181.86)"/><path class="bf196713-9075-4a2e-9df2-7bcabf9e4dbd" d="M3774,784.11c-8.74,1.72-43.67,48.52-43.67,48.52l-1.23,3.24s63.19-7,65.48-9.73C3800.79,818.84,3781.21,782.69,3774,784.11Zm-43.23,49.51c11.53-14.73,37.81-36.26,43.48-40.83,5.07,5.18,12.71,20.44,13.72,27.34C3780.74,821.62,3749.24,831.39,3730.8,833.62Z" transform="translate(-283.87 -181.86)"/><path class="bf196713-9075-4a2e-9df2-7bcabf9e4dbd" d="M3700.76,774.5c-13.63-18.47-20.9-15.35-26.05-13.12s-24.34,26.12-18.35,38.57,65,36.95,65,36.95l2.14-4.6S3714.39,793,3700.76,774.5Zm-37.45,22.08c-3-6.21,9.73-24.89,14.71-28.21a8.92,8.92,0,0,1,3.21-1c1.1,0,5.31.84,13.31,11.68,8.74,11.85,22.69,41,26.12,53.33C3696.89,821.86,3666.17,801.85,3663.31,796.58Z" transform="translate(-283.87 -181.86)"/><path class="bf196713-9075-4a2e-9df2-7bcabf9e4dbd" d="M3440.22,644.5h2.84a5.08,5.08,0,0,1,5.08,5.08v8.34a5.09,5.09,0,0,1-5.09,5.09h-2.83a5.08,5.08,0,0,1-5.08-5.08v-8.34a5.08,5.08,0,0,1,5.08-5.08Z"/><path class="e5e1921d-915f-4b27-8944-a232242661e3" d="M3821.19,999.61H3641.61a18.41,18.41,0,0,1-18.38-17.22l-9.42-144.24h233.86l-9.8,150.23C3837.45,994.67,3830.11,999.61,3821.19,999.61Z" transform="translate(-283.87 -181.86)"/><path class="b65535c6-cf15-491c-9dc8-41504a7b2c59" d="M3857.33,869.62l-253.87.49-2.7-16.32a16.05,16.05,0,0,1,15.87-18.67l229.73.64c8.17,0,14.56,5,13.83,10.88Z" transform="translate(-283.87 -181.86)"/><rect class="bf196713-9075-4a2e-9df2-7bcabf9e4dbd" x="3441.38" y="653.48" width="4.83" height="34.6"/><rect class="bf196713-9075-4a2e-9df2-7bcabf9e4dbd" x="3446.27" y="687.92" width="6.04" height="130.07"/><path class="bf196713-9075-4a2e-9df2-7bcabf9e4dbd" d="M1168.09,851.24c-6.13,1.21-30.64,34-30.64,34l-.87,2.27s44.35-4.93,46-6.82C1186.87,875.62,1173.13,850.24,1168.09,851.24ZM1137.76,886c8.09-10.34,26.53-25.45,30.51-28.65,3.56,3.63,8.92,14.34,9.63,19.18C1172.8,877.57,1150.7,884.43,1137.76,886Z" transform="translate(-283.87 -181.86)"/><path class="bf196713-9075-4a2e-9df2-7bcabf9e4dbd" d="M1116.67,844.49c-9.56-13-14.67-10.77-18.28-9.2s-17.08,18.33-12.88,27.07,45.63,25.93,45.63,25.93l1.5-3.23S1126.23,857.45,1116.67,844.49ZM1090.39,860c-2.09-4.36,6.82-17.47,10.32-19.8a6.29,6.29,0,0,1,2.25-.67c.77,0,3.73.59,9.34,8.2,6.14,8.31,15.93,28.81,18.33,37.42C1114,877.73,1092.4,863.69,1090.39,860Z" transform="translate(-283.87 -181.86)"/><rect class="bf196713-9075-4a2e-9df2-7bcabf9e4dbd" x="845.61" y="699.03" width="9.13" height="12.99" rx="3.57"/><path class="e5e1921d-915f-4b27-8944-a232242661e3" d="M1201.19,1002.48h-126a12.92,12.92,0,0,1-12.9-12.08l-6.61-101.23h164.13l-6.89,105.43C1212.61,999,1207.45,1002.48,1201.19,1002.48Z" transform="translate(-283.87 -181.86)"/><path class="b65535c6-cf15-491c-9dc8-41504a7b2c59" d="M1226.55,911.26l-178.17.34-1.89-11.46a11.26,11.26,0,0,1,11.14-13.1l161.23.45c5.73,0,10.21,3.54,9.7,7.64Z" transform="translate(-283.87 -181.86)"/><rect class="bf196713-9075-4a2e-9df2-7bcabf9e4dbd" x="849.99" y="705.33" width="3.39" height="24.28"/><rect class="bf196713-9075-4a2e-9df2-7bcabf9e4dbd" x="853.42" y="729.5" width="4.24" height="91.28"/><path class="ec381e84-b5e0-44d6-9d8c-3a5a2bbf2e91" d="M4705.17,923.86s90.24-1.07,107.52,28.51c9.74,16.65,9.89,49.81-41.69,54-44.07,3.62-42.31-17.52-34-22.84,11.85-7.56,45.4,7.69,51.51-11.76s-19.47-20.93-79.66-20.12-3.7-27.83-3.7-27.83" transform="translate(-283.87 -181.86)"/><path class="b14c1274-2046-47fc-acb8-37ebf16b4e11" d="M4657.05,1000.78c53.58,0,97-48.25,97-107.77,0-55.43-37.68-101.06-86.14-107.07-12.62-17-37.37-31.33-66.6-31.33-38.18,0-71.86,21.28-81.56,55.15-40,4.82-71.17,56.58-71.17,102.31,0,49,35.76,88.71,79.86,88.71Z" transform="translate(-283.87 -181.86)"/><ellipse class="e4554c76-8e62-4177-bc54-77321035efff" cx="4250.1" cy="684.71" rx="18.76" ry="21.04"/><ellipse class="e4554c76-8e62-4177-bc54-77321035efff" cx="4307.19" cy="684.71" rx="18.76" ry="21.04"/><path class="b0b62b71-0310-4de3-b626-f4a2673cd280" d="M4526.8,820s-26.53-19.05-33.88-13.65-5.64,29.92-5.64,29.92" transform="translate(-283.87 -181.86)"/><path class="b0b62b71-0310-4de3-b626-f4a2673cd280" d="M4647.87,831.4s-3.65-26-12.64-27.54-25.41,16.77-25.41,16.77" transform="translate(-283.87 -181.86)"/><line class="b0b62b71-0310-4de3-b626-f4a2673cd280" x1="4342.23" y1="699.97" x2="4378.59" y2="692.6"/><line class="b0b62b71-0310-4de3-b626-f4a2673cd280" x1="4343.28" y1="712.62" x2="4380.27" y2="715.64"/><line class="b0b62b71-0310-4de3-b626-f4a2673cd280" x1="4215.56" y1="699.02" x2="4179.2" y2="691.65"/><line class="b0b62b71-0310-4de3-b626-f4a2673cd280" x1="4214.51" y1="711.67" x2="4177.53" y2="714.69"/><path class="fbf4aced-05f4-4a8f-b862-26ee3796b25d" d="M4603.72,974.35s-33.78-1.12-34.58,9.91c-.73,10,8.24,16.52,34.66,16.52" transform="translate(-283.87 -181.86)"/><path class="fbf4aced-05f4-4a8f-b862-26ee3796b25d" d="M4524.25,974s33.5-1.1,34.19,10.22c.63,10.27-8.24,16.12-34.65,16.12" transform="translate(-283.87 -181.86)"/><path class="a1101e8c-31ce-4aea-b075-016233e670fb" d="M4546.93,897.68s2,6.61,8.66,6.61,8.05-6.61,8.05-6.61" transform="translate(-283.87 -181.86)"/><path class="a1101e8c-31ce-4aea-b075-016233e670fb" d="M4563.15,897.68s2,6.61,8.67,6.61,8-6.61,8-6.61" transform="translate(-283.87 -181.86)"/><path class="b65535c6-cf15-491c-9dc8-41504a7b2c59" d="M4537.13,873.1a3.75,3.75,0,0,0-.92-2.65,8.46,8.46,0,0,0-3.15-1.83,36.5,36.5,0,0,1-3.83-1.65,12.44,12.44,0,0,1-2.76-1.9,7.73,7.73,0,0,1-1.79-2.51,8.42,8.42,0,0,1-.64-3.44,7.6,7.6,0,0,1,2.2-5.64,9.24,9.24,0,0,1,5.84-2.57v-4.36h3.26V851a8.53,8.53,0,0,1,5.64,3,9.91,9.91,0,0,1,2,6.47h-5.89a5.59,5.59,0,0,0-1-3.66,3.34,3.34,0,0,0-2.69-1.21,3.44,3.44,0,0,0-2.59.95,3.61,3.61,0,0,0-.92,2.62,3.42,3.42,0,0,0,.9,2.48,9.81,9.81,0,0,0,3.33,1.91,37.58,37.58,0,0,1,4,1.85,11.45,11.45,0,0,1,2.65,2,7.62,7.62,0,0,1,1.65,2.49,8.52,8.52,0,0,1,.57,3.24,7.6,7.6,0,0,1-2.16,5.62,9.48,9.48,0,0,1-5.95,2.55v4h-3.23v-4a9.83,9.83,0,0,1-6.47-3,9.55,9.55,0,0,1-2.29-6.69h5.89a5.39,5.39,0,0,0,1.15,3.71,4.16,4.16,0,0,0,3.3,1.3,4,4,0,0,0,2.83-1A3.26,3.26,0,0,0,4537.13,873.1Z" transform="translate(-283.87 -181.86)"/><path class="b65535c6-cf15-491c-9dc8-41504a7b2c59" d="M4594.44,873.1a3.71,3.71,0,0,0-.93-2.65,8.32,8.32,0,0,0-3.14-1.83,35.6,35.6,0,0,1-3.83-1.65,12.44,12.44,0,0,1-2.76-1.9,7.59,7.59,0,0,1-1.79-2.51,8.42,8.42,0,0,1-.64-3.44,7.6,7.6,0,0,1,2.2-5.64,9.21,9.21,0,0,1,5.84-2.57v-4.36h3.26V851a8.53,8.53,0,0,1,5.64,3,10,10,0,0,1,2,6.47h-5.88a5.65,5.65,0,0,0-1-3.66,3.35,3.35,0,0,0-2.7-1.21,3.43,3.43,0,0,0-2.58.95,3.61,3.61,0,0,0-.92,2.62,3.42,3.42,0,0,0,.9,2.48,9.61,9.61,0,0,0,3.33,1.91,38.54,38.54,0,0,1,4,1.85,11.6,11.6,0,0,1,2.64,2,7.62,7.62,0,0,1,1.65,2.49,8.52,8.52,0,0,1,.57,3.24,7.63,7.63,0,0,1-2.15,5.62,9.5,9.5,0,0,1-5.95,2.55v4H4589v-4a9.81,9.81,0,0,1-6.46-3,9.55,9.55,0,0,1-2.29-6.69h5.88a5.39,5.39,0,0,0,1.15,3.71,4.18,4.18,0,0,0,3.31,1.3,4,4,0,0,0,2.83-1A3.29,3.29,0,0,0,4594.44,873.1Z" transform="translate(-283.87 -181.86)"/><path class="ae2ada52-270a-4233-a8f4-bc02d8c92a76" d="M4573.34,904.64h-4.69L4564,903l-4.7,1.6h-4.69s-2.34,16,9.39,16S4573.34,904.64,4573.34,904.64Z" transform="translate(-283.87 -181.86)"/><path class="e23f4efd-89ed-4fca-a849-c9d1342b6407" d="M4902.14,270c-121.93,29.87-205.89,114.81-187.54,189.71,9.17,37.44,42.19,65.29,88.15,80l-22.42,122.55L4863.43,551c32.75,2.23,68.58-.75,105.16-9.72,121.93-29.87,205.89-114.8,187.55-189.7S5024.07,240.16,4902.14,270Z" transform="translate(-283.87 -181.86)"/><path class="e5e1921d-915f-4b27-8944-a232242661e3" d="M4855.07,439.53a79.21,79.21,0,1,0,31.11-107.63A79.19,79.19,0,0,0,4855.07,439.53Z" transform="translate(-283.87 -181.86)"/><path class="e4554c76-8e62-4177-bc54-77321035efff" d="M4967.57,391.81a42.35,42.35,0,1,1-74.17,40.91Z" transform="translate(-283.87 -181.86)"/><rect class="ed414918-14ab-4248-82cd-39535d04f3c0" x="709.97" y="795.44" width="47.08" height="89.2" rx="19.09" transform="translate(1380.39 1272.52) rotate(164.55)"/><path class="abc0b1c7-e316-4394-a96b-fc761ddff38e" d="M760.66,849.87l6.57,23.78L775,871.5a20.07,20.07,0,0,1,10.69,38.68l-33.83,9.35a20.1,20.1,0,0,1-24.69-14l-11.91-43.12Z" transform="translate(-283.87 -181.86)"/><rect class="ed414918-14ab-4248-82cd-39535d04f3c0" x="621.17" y="786.2" width="47.08" height="89.2" rx="19.09" transform="translate(766.6 1619.12) rotate(-164.88)"/><path class="abc0b1c7-e316-4394-a96b-fc761ddff38e" d="M662.9,853.76l-6.24,23.12,7.79,2.11A20.06,20.06,0,1,1,654,917.73l-33.89-9.15A20.09,20.09,0,0,1,606,884l11.47-42.49Z" transform="translate(-283.87 -181.86)"/><path class="ed414918-14ab-4248-82cd-39535d04f3c0" d="M781.49,855.31a142.86,142.86,0,0,0,65.57-277.64,117.45,117.45,0,0,0-223.62,11.42,117.6,117.6,0,0,0-28.39,233.12Z" transform="translate(-283.87 -181.86)"/><path class="b6bf9e27-570f-43c7-88c0-96aa4270c301" d="M548.74,659,509.81,621.9a17.57,17.57,0,0,1-.59-24.77h0a17.57,17.57,0,0,1,24.77-.59l38.93,37.11" transform="translate(-283.87 -181.86)"/><path class="b6bf9e27-570f-43c7-88c0-96aa4270c301" d="M911.81,724.87l48.5-23.24a17.56,17.56,0,0,0,8.23-23.37h0A17.57,17.57,0,0,0,945.17,670l-48.5,23.24" transform="translate(-283.87 -181.86)"/><ellipse class="e4554c76-8e62-4177-bc54-77321035efff" cx="695.66" cy="629.16" rx="30.98" ry="27.63" transform="translate(-354.45 988.28) rotate(-77.35)"/><ellipse class="e4554c76-8e62-4177-bc54-77321035efff" cx="778.31" cy="644.81" rx="30.98" ry="27.63" transform="translate(-305.17 1081.15) rotate(-77.35)"/><path class="b78dfa2e-05d0-4072-8b1c-e5f1fd5cdb17" d="M697.42,675.59a1.24,1.24,0,0,0-1.51,1.3c.53,6.07,3.92,26.92,25.51,31.73,25,5.55,37.74-11.61,41-16.88a1.25,1.25,0,0,0-.79-1.86Z" transform="translate(-283.87 -181.86)"/><path class="e4554c76-8e62-4177-bc54-77321035efff" d="M712.55,679,710,690.4a1.78,1.78,0,0,0,1.36,2.13l20.81,4.64a1.81,1.81,0,0,0,2.14-1.36l2.54-11.44Z" transform="translate(-283.87 -181.86)"/><circle class="e1c0aafb-7857-4524-8537-1e4ce5fdb07a" cx="356.07" cy="491.96" r="36.47"/><circle class="e1c0aafb-7857-4524-8537-1e4ce5fdb07a" cx="536.72" cy="524.04" r="36.47"/><path class="a5333c9a-6ba1-4b35-a27c-c34db409a003" d="M693.39,612.74l7.43-11.51,2.33,13.42a29.32,29.32,0,0,0,9.23,13.88l7.92,6.62-9.94,3.12a30.26,30.26,0,0,0-14,9.32L689.13,658l-2.54-12.36a29.46,29.46,0,0,0-9.23-13.88l-7.92-6.62,9.93-3.12A30.29,30.29,0,0,0,693.39,612.74Z" transform="translate(-283.87 -181.86)"/><path class="a5333c9a-6ba1-4b35-a27c-c34db409a003" d="M776.37,628.09l7.54-11.44,2.2,13.44a29.32,29.32,0,0,0,9.1,14l7.86,6.69-10,3A30.25,30.25,0,0,0,779,663l-7.32,10.39L769.26,661a29.32,29.32,0,0,0-9.1-14l-7.86-6.69,10-3A30.33,30.33,0,0,0,776.37,628.09Z" transform="translate(-283.87 -181.86)"/><ellipse class="a67c202f-914a-4f58-80fe-87948c3b590b" cx="422.09" cy="810.27" rx="118.15" ry="21.69"/><path class="a6dec03a-73d8-426f-b505-1e4de4d6390b" d="M417.83,250.27c87.43-5.61,179.51,79.29,182.8,130.42,1.64,25.57-14.6,49.85-42.17,68.45l-.59,81.51-37.52-62.21a252.62,252.62,0,0,1-72.08,15C360.84,489.06,287.3,452.16,284,401S330.4,255.89,417.83,250.27Z" transform="translate(-283.87 -181.86)"/><path class="a72987e4-a9fb-4fef-9649-76f2a8fe0adc" d="M425.18,356.37a24.23,24.23,0,0,0-20.77.54c-10,4.92-13.05,16.3-8.49,25.59,5.27,10.75,20.94,18.86,50.85,17.92,19.07-23.07,22.26-40.42,17-51.18-4.56-9.29-15.39-13.88-25.43-9A24.24,24.24,0,0,0,425.18,356.37Z" transform="translate(-283.87 -181.86)"/><path class="a72987e4-a9fb-4fef-9649-76f2a8fe0adc" d="M510.26,319.93a249.77,249.77,0,0,1-24.14,15.25c-2.51,1.4-6.46,4.56-9.4,3.37a3,3,0,0,1-2.05-3.61c.7-3.12,4.94-4.39,7.47-5.8,7.72-4.29,16.26-9.51,24.57-15.28a3.55,3.55,0,0,1,4.81,1.26,3.59,3.59,0,0,1-1.26,4.81Z" transform="translate(-283.87 -181.86)"/><path class="a72987e4-a9fb-4fef-9649-76f2a8fe0adc" d="M392.41,411.37c-3.66,2.12-7.36,4.16-11.05,6.22-3.53,2-7.36,4.91-11.38,5.57a3,3,0,0,1-2.93-5.05c2.68-3.08,7.14-4.75,10.69-6.72s7.39-4.1,11.12-6.09c4-2.12,7.48,3.8,3.55,6.07Z" transform="translate(-283.87 -181.86)"/><path class="a72987e4-a9fb-4fef-9649-76f2a8fe0adc" d="M503.18,387.23c-9-5.19-15.94-4.43-21.92-5a2.85,2.85,0,0,1-.75-5.56c8.41-3.1,18.84.16,26.2,4.51,3.88,2.3.38,8.31-3.53,6.05Z" transform="translate(-283.87 -181.86)"/><path class="a72987e4-a9fb-4fef-9649-76f2a8fe0adc" d="M471.55,430.47a31.17,31.17,0,0,0-8-10.06c-2.07-1.69-9.86-5.3-6.16-8.86,3.48-3.35,9.42,2.12,12,4.41a36.61,36.61,0,0,1,8.31,11c2,4-4,7.62-6.09,3.56Z" transform="translate(-283.87 -181.86)"/><path class="a72987e4-a9fb-4fef-9649-76f2a8fe0adc" d="M427.3,424.76l-3.65,7.91c-1.22,2.63-2,5.89-5,6.85A3.11,3.11,0,0,1,415,437.4c-1.08-2.67,1.36-6,2.48-8.36q1.85-3.94,3.7-7.88c.81-1.75,3.33-2.19,4.88-1.28a3.65,3.65,0,0,1,1.29,4.88Z" transform="translate(-283.87 -181.86)"/><path class="a72987e4-a9fb-4fef-9649-76f2a8fe0adc" d="M437.88,319.57c-2.73-23.22-2.93-23.23-2.22-25.66a3.11,3.11,0,0,1,5.62-.74c1.31,2.32,1.05,2,3.83,26.4.22,1.95-1.82,3.62-3.62,3.62-2.14,0-3.38-1.67-3.61-3.62Z" transform="translate(-283.87 -181.86)"/><path class="a72987e4-a9fb-4fef-9649-76f2a8fe0adc" d="M404.13,338.21a53.81,53.81,0,0,1-8.05-8.2c-2.23-2.8-6-6.8-4.35-10.56a2.66,2.66,0,0,1,2.38-1.36c3.61.31,5.42,4.81,7.48,7.39a64,64,0,0,0,7.49,7.78,3.53,3.53,0,0,1,0,4.95,3.59,3.59,0,0,1-4.95,0Z" transform="translate(-283.87 -181.86)"/><path class="a72987e4-a9fb-4fef-9649-76f2a8fe0adc" d="M358.4,367.89c-1.36-1.13-1-3.13,0-4.31,2-2.43,6.69-1.84,9.53-1.77a60.1,60.1,0,0,1,9.83,1.08,3.55,3.55,0,0,1,2.46,4.34c-.55,2-2.44,2.74-4.34,2.46C363.53,367.85,361.74,370.67,358.4,367.89Z" transform="translate(-283.87 -181.86)"/></svg>