<svg xmlns="http://www.w3.org/2000/svg" width="380" height="380" viewBox="0 0 380 380">
  <g id="Group_134" data-name="Group 134" transform="translate(-9992 -1641)">
    <rect id="Rectangle_86" data-name="Rectangle 86" width="380" height="380" transform="translate(9992 1641)" fill="none"/>
    <g id="Group_133" data-name="Group 133" transform="translate(9459.588 759.083)">
      <path id="Path_192" data-name="Path 192" d="M9065.525,2025.5h126.213c5.82,0,10.514-3.532,10.514-7.885v-15.783c0-4.356-4.693-7.885-10.514-7.885H9065.525c-5.811,0-10.518,3.528-10.518,7.885v15.783c0,4.353,4.707,7.885,10.518,7.885Z" transform="translate(-8500.5 -858.922)" fill="#f8b500"/>
      <path id="Path_193" data-name="Path 193" d="M9065.525,2047.352h126.213c5.82,0,10.514-3.542,10.514-7.888v-15.779c0-4.356-4.693-7.892-10.514-7.892H9065.525c-5.811,0-10.518,3.536-10.518,7.892v15.779c0,4.346,4.707,7.888,10.518,7.888Z" transform="translate(-8500.5 -838.698)" fill="#f8b500"/>
      <path id="Path_194" data-name="Path 194" d="M9065.525,2003.648h126.213c5.82,0,10.514-3.528,10.514-7.885V1979.99c0-4.358-4.693-7.885-10.514-7.885H9065.525c-5.811,0-10.518,3.526-10.518,7.885v15.773c0,4.356,4.707,7.885,10.518,7.885Z" transform="translate(-8500.5 -879.147)" fill="#f8b500"/>
      <path id="Path_195" data-name="Path 195" d="M9177.327,2034.862a27.348,27.348,0,0,0,.457-3.7v-15.773c0-16.233-13.85-28.928-31.555-28.928h-42.07a52.59,52.59,0,1,1,73.168,48.4Z" transform="translate(-8454.992 -914.544)" fill="#0095d8"/>
      <path id="Path_196" data-name="Path 196" d="M9055.008,1912.025h294.5v189.329H9222.041a27.52,27.52,0,0,0,1.252-7.885v-13.153h63.113a42.068,42.068,0,0,1,42.066-42.069v-63.113a42.065,42.065,0,0,1-42.066-42.067H9118.119a42.07,42.07,0,0,1-42.074,42.067v31.555h-10.52a35.283,35.283,0,0,0-10.518,1.706Z" transform="translate(-8500.5 -934.774)" fill="#0095d8"/>
      <path id="Path_197" data-name="Path 197" d="M9381.467,1890.18v210.362h-21.031V1911.226h-294.5V1890.18Z" transform="translate(-8490.388 -955)" fill="#3db4e8"/>
    </g>
  </g>
</svg>
