<svg xmlns="http://www.w3.org/2000/svg" width="380" height="380" viewBox="0 0 380 380">
  <g id="Group_134" data-name="Group 134" transform="translate(-9992 -1641)">
    <rect id="Rectangle_86" data-name="Rectangle 86" width="380" height="380" transform="translate(9992 1641)" fill="none"/>
    <g id="Group_32" data-name="Group 32" transform="translate(613.867 -229.087)">
      <path id="Path_199" data-name="Path 199" d="M9557.544,1890h21.262c2.176.271,4.348.573,6.531.81,35.813,3.883,67.727,17.148,94.537,41.224,44.875,40.3,64.121,90.937,56.711,150.729-5.66,45.677-27.648,82.991-63.9,111.328-37.395,29.233-80.143,40.515-127.148,34.535-34.291-4.362-64.492-18.384-90.275-41.449-29.287-26.2-47.566-58.7-54.537-97.434-1.131-6.3-1.775-12.678-2.645-19.019V2049.46c.488-4.048.912-8.106,1.48-12.143,4.873-34.588,18.775-65.067,42.229-90.949,26.277-29,58.748-47.1,97.41-53.8C9545.282,1891.514,9551.427,1890.846,9557.544,1890Zm-40.111,158.378c1.484-.477,2.693-.982,3.955-1.251,3.877-.819,7.758-2.1,11.664-2.206,11.08-.292,16.568,2.206,14.664,16.671-1.246,9.475-4.213,18.727-6.48,28.062-3.3,13.626-7.406,27.106-9.83,40.883-2.879,16.367,5.783,28.68,21.279,32.384,7.316,1.749,14.869,2.235,22.064.348,9.266-2.43,18.242-5.96,27.322-9.075a2.754,2.754,0,0,0,1.643-1.435c.961-3.474,1.746-7,2.688-10.9-1.355.462-2.176.752-3,1.025-5.934,1.974-11.934,3.176-18.26,2.335-6.627-.884-9.8-3.768-10.139-10.483a37.227,37.227,0,0,1,.9-10.862c4.014-15.739,8.563-31.344,12.441-47.114a141.074,141.074,0,0,0,3.531-22.2,24.161,24.161,0,0,0-8.9-21.215c-5.838-4.935-12.848-6.644-20.285-7.168-11.709-.827-22.49,2.846-33.207,6.8-10.139,3.747-10.125,3.79-12.129,14.505A6,6,0,0,0,9517.433,2048.378Zm65.816-92.954c-12.715.043-24.018,9.213-25.766,20.53-2.551,16.5,11.943,29.138,27.418,28.038,11.943-.848,21.719-8.809,23.818-19.136C9611.872,1969.34,9599.784,1955.369,9583.249,1955.424Z" transform="translate(-0.001)" fill="#0095d8"/>
    </g>
  </g>
</svg>
