<svg xmlns="http://www.w3.org/2000/svg" width="380" height="380" xml:space="preserve">
  <style>
    .st3{fill:#eb6164}.st4{fill:#fdd762}.st5{fill:#3db4e8}.st7{fill:#cbcbcb}.st8{fill:#f1f1f1}
  </style>
  <path d="M177.2 166v169.8c0 6.3-5.1 11.3-11.3 11.3H41.3C35 347.1 30 342 30 335.8V204.6c0-3 1.2-5.9 3.3-8L72 158c2.1-2.1 5-3.3 8-3.3h85.9c6.2 0 11.3 5 11.3 11.3z" style="fill:#b9d98f"/>
  <path d="M75.3 155.7v32.9c0 6.3-5.1 11.3-11.3 11.3H31c.6-1.2 1.3-2.4 2.3-3.3L72 158c.9-1 2-1.7 3.3-2.3z" style="fill:#d2e7bf"/>
  <path d="M97.9 188.6h17V200h-17v-11.4zm39.6 28.3h17v11.3h-17v-11.3zm-39.6 0h28.3v11.3H97.9v-11.3zm-45.3 0h34v11.3h-34v-11.3zm34 28.3h67.9v11.3H86.6v-11.3zm-34 0h22.6v11.3H52.6v-11.3zm68 28.3h34v11.3h-34v-11.3zm-68 0h56.6v11.3H52.6v-11.3zm34 28.3h34v11.3h-34v-11.3zm-34 0h22.6v11.3H52.6v-11.3z" style="fill:#0b9531"/>
  <path class="st3" d="M208.6 279H240v36.7h-31.4V279z"/>
  <path class="st4" d="M240 247.6h31.4v68.1H240v-68.1z"/>
  <path class="st5" d="M271.4 216.2h31.4v99.5h-31.4v-99.5z"/>
  <path d="M302.9 184.8h31.4v130.9h-31.4V184.8z" style="fill:#8fd3f3"/>
  <path class="st7" d="M208.6 195.2h-52.4v-10.5h50.2l53.7-53.7 7.4 7.4-55.3 55.3c-.9 1-2.2 1.5-3.6 1.5z"/>
  <path class="st4" d="M344.8 95.7c0 34.7-28.1 62.8-62.8 62.8s-62.8-28.1-62.8-62.8 28.1-62.8 62.8-62.8c34.6-.1 62.7 27.9 62.8 62.5v.3z"/>
  <path class="st5" d="M344.8 95.7H282V32.9c34.6 0 62.8 28.1 62.8 62.8z"/>
  <path class="st3" d="M344.8 95.7c0 18-7.7 35.1-21.1 47l-41.7-47h62.8z"/>
  <circle class="st7" cx="145.7" cy="190" r="10.5"/>
  <path class="st8" d="M145.7 205.7c-8.7 0-15.7-7-15.7-15.7s7-15.7 15.7-15.7 15.7 7 15.7 15.7-7 15.7-15.7 15.7zm0-20.9c-2.9 0-5.2 2.3-5.2 5.2 0 2.9 2.3 5.2 5.2 5.2 2.9 0 5.2-2.3 5.2-5.2.1-2.9-2.3-5.2-5.2-5.2z"/>
  <path class="st7" d="M156.2 310.5H350V321H156.2v-10.5z"/>
  <circle class="st7" cx="151" cy="315.7" r="10.5"/>
  <path class="st8" d="M151 331.4c-8.7 0-15.7-7-15.7-15.7s7-15.7 15.7-15.7 15.7 7 15.7 15.7-7 15.7-15.7 15.7zm0-20.9c-2.9 0-5.2 2.3-5.2 5.2s2.3 5.2 5.2 5.2c2.9 0 5.2-2.3 5.2-5.2 0-2.9-2.3-5.2-5.2-5.2z"/>
</svg>