<svg xmlns="http://www.w3.org/2000/svg" xmlns:xlink="http://www.w3.org/1999/xlink" width="380" height="380" viewBox="0 0 380 380">
  <defs>
    <clipPath id="clip-path">
      <rect id="Rectangle_86" data-name="Rectangle 86" width="380" height="380" transform="translate(6756 283)" fill="#fff" stroke="#707070" stroke-width="1"/>
    </clipPath>
  </defs>
  <g id="Mask_Group_1" data-name="Mask Group 1" transform="translate(-6756 -283)" clip-path="url(#clip-path)">
    <g id="Group_123" data-name="Group 123" transform="translate(1126.5 -758)">
      <path id="Path_688" data-name="Path 688" d="M5799.165,1225.192a14.473,14.473,0,1,0,14.473,14.473,14.49,14.49,0,0,0-14.473-14.473Zm0,0" fill="#e60012"/>
      <path id="Path_689" data-name="Path 689" d="M5799.165,1205.894a33.771,33.771,0,1,0,33.77,33.771,33.812,33.812,0,0,0-33.77-33.771Zm0,57.892a24.122,24.122,0,1,1,24.121-24.121,24.147,24.147,0,0,1-24.121,24.121Zm0,0" fill="#22ac38"/>
      <path id="Path_690" data-name="Path 690" d="M5877.618,1225.286l-18.441-3.623a62.223,62.223,0,0,0-4.853-11.689l10.261-15.392a4.823,4.823,0,0,0-.6-6.087l-13.644-13.644a4.824,4.824,0,0,0-6.087-.6l-15.4,10.262a61.7,61.7,0,0,0-11.684-4.858l-3.626-18.445a4.824,4.824,0,0,0-4.731-3.877h-19.3a4.821,4.821,0,0,0-4.73,3.877l-3.627,18.446a61.706,61.706,0,0,0-11.684,4.857l-15.4-10.26a4.819,4.819,0,0,0-6.086.6l-13.644,13.642a4.821,4.821,0,0,0-.6,6.087l10.26,15.392a63.078,63.078,0,0,0-4.853,11.689l-18.441,3.623a4.822,4.822,0,0,0-3.881,4.73v19.3a4.823,4.823,0,0,0,3.881,4.731l18.441,3.623a63.416,63.416,0,0,0,4.853,11.689l-10.26,15.391a4.821,4.821,0,0,0,.6,6.087l13.644,13.644a4.821,4.821,0,0,0,6.086.6l15.4-10.262a61.63,61.63,0,0,0,11.684,4.858l3.627,18.446a4.822,4.822,0,0,0,4.73,3.877h19.3a4.825,4.825,0,0,0,4.731-3.877l3.626-18.447a61.613,61.613,0,0,0,11.684-4.857l15.4,10.261a4.824,4.824,0,0,0,6.087-.6l13.644-13.644a4.823,4.823,0,0,0,.6-6.087l-10.261-15.392a62.434,62.434,0,0,0,4.853-11.688l18.441-3.624a4.821,4.821,0,0,0,3.882-4.729v-19.3a4.823,4.823,0,0,0-3.882-4.73Zm-78.453,57.8a43.419,43.419,0,1,1,43.419-43.419,43.467,43.467,0,0,1-43.419,43.419Zm0,0" fill="#0095d8"/>
      <circle id="Ellipse_80" data-name="Ellipse 80" cx="126.965" cy="126.965" r="126.965" transform="translate(5672.535 1113.035)" fill="none" stroke="#3db4e8" stroke-miterlimit="10" stroke-width="6"/>
      <circle id="Ellipse_81" data-name="Ellipse 81" cx="153" cy="153" r="153" transform="translate(5646.5 1087)" fill="none" stroke="#8fd3f3" stroke-miterlimit="10" stroke-width="6"/>
      <circle id="Ellipse_82" data-name="Ellipse 82" cx="22.5" cy="22.5" r="22.5" transform="translate(5807.5 1058)" fill="#f8b500"/>
      <circle id="Ellipse_83" data-name="Ellipse 83" cx="14.5" cy="14.5" r="14.5" transform="translate(5632.5 1187)" fill="#22ac38"/>
      <circle id="Ellipse_84" data-name="Ellipse 84" cx="14.5" cy="14.5" r="14.5" transform="translate(5977.5 1323)" fill="#e60012"/>
      <circle id="Ellipse_85" data-name="Ellipse 85" cx="37" cy="37" r="37" transform="translate(5844.5 1330)" fill="#0095d8"/>
    </g>
  </g>
</svg>
