<svg xmlns="http://www.w3.org/2000/svg" width="380" height="380" viewBox="0 0 380 380">
  <g id="Group_133" data-name="Group 133" transform="translate(-9992 -1641)">
    <rect id="Rectangle_86" data-name="Rectangle 86" width="380" height="380" transform="translate(9992 1641)" fill="none"/>
    <g id="Group_35" data-name="Group 35" transform="translate(1267.403 -229.148)">
      <path id="Path_213" data-name="Path 213" d="M9003.511,2126.986v3.772q0,33.281,0,66.558c-.014,20.375-12.48,32.792-32.9,32.794q-97.532,0-195.074-.012c-16.018-.007-28.1-10.239-30.6-25.818a38.133,38.133,0,0,1-.3-6q-.023-138.073-.01-276.15c0-19.352,12.547-31.939,31.846-31.944q71.689-.018,143.387,0h3.984v3.947q0,31.865,0,63.729c0,8.453,3.557,12.022,12.08,12.034q31.506.043,63.018.01h4.57v4.247c0,11.8-.061,23.6.051,35.4a7.468,7.468,0,0,1-2.449,5.884c-21.209,21.014-42.314,42.13-63.531,63.14a45.838,45.838,0,0,0-11.758,19.043c-2.811,8.872-6.035,17.612-8.795,26.5-5.623,18.112,8.582,34.973,27.346,32.6a18.679,18.679,0,0,0,3.42-.838c8.611-2.844,17.164-5.889,25.84-8.532a47.1,47.1,0,0,0,21.412-13.179c2.393-2.593,4.76-5.214,7.137-7.821ZM8864.075,1989.8q-33.105,0-66.205,0a44.614,44.614,0,0,0-4.6.153,9.811,9.811,0,0,0-1.584,19.23,21.272,21.272,0,0,0,5.246.534q67.1.043,134.184,0a20.153,20.153,0,0,0,5.586-.654,9.823,9.823,0,0,0-1.834-19.082,38.6,38.6,0,0,0-4.594-.175Q8897.179,1989.785,8864.075,1989.8Zm-20.295,139.451q23.361,0,46.721-.012a31.8,31.8,0,0,0,4.938-.313,9.513,9.513,0,0,0,8-8.29c.895-6.687-3.785-11.369-11.537-11.376q-47.783-.04-95.57,0a20.269,20.269,0,0,0-3.867.316,9.784,9.784,0,0,0-7.137,13.614c2.123,4.733,6.182,6.085,11.025,6.073C8812.159,2129.22,8827.968,2129.244,8843.78,2129.246Zm.352-99.606q-24.428,0-48.852.012c-5.141.009-8.791,2.437-10.23,6.607-2.352,6.817,2.5,13.229,10.211,13.246q37,.078,73.99.021c8.025,0,16.051.079,24.074-.029,6.445-.089,10.777-4.884,10.154-10.983-.541-5.343-4.566-8.838-10.492-8.855C8876.7,2029.609,8860.421,2029.64,8844.132,2029.64Zm.057,59.668c16.283,0,32.57.046,48.854-.024,6.191-.029,10.361-3.961,10.527-9.6.182-6.095-4.367-10.265-11.361-10.27q-40.89-.036-81.775-.01c-5.191,0-10.389-.067-15.578.024-4.8.084-8.439,2.657-9.822,6.727-2.275,6.713,2.426,13.078,9.947,13.122C8811.382,2089.375,8827.786,2089.308,8844.188,2089.308Zm59.775,79.77c-9.437,0-18.875-.024-28.312.02a17.989,17.989,0,0,0-4.891.488,9.746,9.746,0,0,0-6.838,10.663c.8,5.348,4.795,8.7,10.721,8.718q28.843.075,57.688,0c6.566-.012,11.025-4.021,11.146-9.827.127-5.867-4.439-10.018-11.2-10.054C8922.839,2169.042,8913.4,2169.078,8903.964,2169.078Z" transform="translate(-0.001 0)" fill="#fdd762"/>
      <path id="Path_214" data-name="Path 214" d="M8925.682,1973.3c-21.539,21.538-43.268,43.263-64.8,64.793-9.066-9.068-18.373-18.378-27.557-27.561,21.5-21.5,43.248-43.25,64.793-64.8Z" transform="translate(123.651 77.435)" fill="#0095d8"/>
      <path id="Path_215" data-name="Path 215" d="M8827.711,1890.2c8.48-.139,15.82,2.14,21.67,7.807q15.384,14.895,30.281,30.292c5.563,5.757,7.938,12.946,7.621,21.289h-59.572Z" transform="translate(115.827 0.02)" fill="#f8b500"/>
      <path id="Path_216" data-name="Path 216" d="M8894.073,1979.07c-9.314-9.307-18.549-18.539-27.273-27.257,5.209-5.583,10.027-11.991,16.061-16.9,7.666-6.236,20.057-4.352,26.354,2.844a19.69,19.69,0,0,1-.084,26.465C8904.382,1969.442,8899.087,1974.162,8894.073,1979.07Z" transform="translate(170.314 57.098)" fill="#005085"/>
      <path id="Path_217" data-name="Path 217" d="M8855.843,2003.074c-8.1,2.667-16.605,5.657-25.242,8.233-4.076,1.216-7.18-2.31-5.854-6.533,2.633-8.4,5.541-16.712,8.189-24.617C8840.456,1987.684,8848.038,1995.267,8855.843,2003.074Z" transform="translate(111.26 125.42)" fill="#666464"/>
    </g>
  </g>
</svg>
