<svg xmlns="http://www.w3.org/2000/svg" width="380" height="380" viewBox="0 0 380 380">
  <g id="Group_132" data-name="Group 132" transform="translate(-9921 -1665)">
    <rect id="Rectangle_86" data-name="Rectangle 86" width="380" height="380" transform="translate(9921 1665)" fill="none"/>
    <g id="Group_131" data-name="Group 131" transform="translate(9710.792 1048.133)">
      <path id="Path_218" data-name="Path 218" d="M8900.766,1581h-.2a139.9,139.9,0,0,0-139.895,139.894c0,63.96,81.08,167.219,119.791,212.864a25.346,25.346,0,0,0,19.791,8.972,2.19,2.19,0,0,0,.424-.028,1.767,1.767,0,0,0,.395.028,25.337,25.337,0,0,0,19.8-8.972c38.7-45.645,119.785-148.9,119.785-212.864A139.9,139.9,0,0,0,8900.766,1581Zm9,243.352V1812.2a9.1,9.1,0,0,0-9.2-8.972,9,9,0,0,0-9,8.972v12.151a103.951,103.951,0,0,1-94.42-94.456h12.121a9,9,0,1,0,0-18h-12.121a103.969,103.969,0,0,1,94.42-94.427v12.156a8.945,8.945,0,0,0,9.205,9,8.759,8.759,0,0,0,9-9V1617.47a103.959,103.959,0,0,1,94.426,94.427h-12.123a9,9,0,1,0,0,18h12.123a103.967,103.967,0,0,1-94.426,94.456Zm0,0" transform="translate(-8500.5 -955)" fill="#e60012"/>
      <path id="Path_219" data-name="Path 219" d="M8905.361,1666.363H8871.17a25.085,25.085,0,0,0-20.732-10.918c-.117,0-.271.028-.393.028l-31.139-43.861a14.249,14.249,0,0,0-23.215,16.53l31.2,43.881a24.541,24.541,0,0,0-1.615,8.544,25.162,25.162,0,0,0,45.918,14.25h34.164a14.227,14.227,0,1,0,0-28.455Zm0,0" transform="translate(-8450.382 -916.861)" fill="#005fa3"/>
    </g>
  </g>
</svg>
