<svg xmlns="http://www.w3.org/2000/svg" width="380" height="380" viewBox="0 0 380 380">
  <g id="Group_133" data-name="Group 133" transform="translate(-9992 -1641)">
    <rect id="Rectangle_86" data-name="Rectangle 86" width="380" height="380" transform="translate(9992 1641)" fill="none"/>
    <g id="Group_33" data-name="Group 33" transform="translate(613.46 75.316)">
      <path id="Path_206" data-name="Path 206" d="M9508.2,1852.25c-2.707-.2-5.408-.512-8.115-.588-25.467-.7-50.9-2.005-76.129-5.688a159.871,159.871,0,0,1-19.182-4.5c-1.5-.413-2.629-2.16-3.93-3.292,1.33-1.117,2.5-2.883,4.014-3.245,8.039-1.921,16.111-3.816,24.273-5.1,8.514-1.336,17.137-1.963,25.982-2.933a5.452,5.452,0,0,0-.775-1.095c-18.643-15.03-30.373-34.716-38.3-56.945-8.039-22.544-11.963-45.957-13.416-69.711-1.244-20.3-1.344-40.672-1.943-61.011-.031-1.119-.006-2.241-.006-3.649h273.936v29.32c4.182.977,8.16,1.791,12.072,2.844,14.631,3.939,27.891,10.289,38.115,21.924,18.385,20.918,18.256,60.251-13.416,79.885-13.738,8.518-28.932,12.333-44.762,14.159-3.5.406-7.047.4-10.521.91a4.95,4.95,0,0,0-3.338,2.082c-7.812,15.667-18,29.445-31.693,40.5-.146.116-.176.374-.377.841,6.83.7,13.6,1.132,20.281,2.141,9.2,1.393,18.365,3.009,27.443,5,2.318.512,4.242,2.81,6.35,4.286-2.1,1.37-4.049,3.535-6.326,3.979-11.244,2.182-22.514,4.677-33.893,5.634-21.17,1.776-42.426,2.561-63.646,3.779-1.115.064-2.225.31-3.338.472Zm-74.531-196.507c-2.943,30.407.49,59.759,11.982,87.957a137.167,137.167,0,0,0,43.889,57.921c-.326-1.355-.436-2-.639-2.608a372.943,372.943,0,0,1-16.506-72.555c-2.211-18.219-2.857-36.472.307-54.661.928-5.329,2.3-10.58,3.518-16.054ZM9663.694,1756.3a65.142,65.142,0,0,0,24.227-6.146c7.416-3.789,11.934-9.77,13.146-17.943a65.1,65.1,0,0,0,.68-13.583,28.762,28.762,0,0,0-28.074-27.4C9672.288,1713.159,9669.526,1734.924,9663.694,1756.3Z" transform="translate(0.001 78.118)" fill="#f8b500"/>
      <path id="Path_207" data-name="Path 207" d="M9570.728,1602.3c-.656,10.658-5.854,18.069-14.295,23.535-8.771,5.681-18.752,8.458-28.492,11.871-11.643,4.082-23.4,8.013-34.59,13.128-10.332,4.724-16.861,13.143-18.391,24.918-.58,4.475-4.023,7.179-8.486,7.381-4.961.224-8.043-3.115-7.459-8.245,1.93-16.907,11.172-28.828,25.473-37.328,11.475-6.817,24.236-10.019,36.9-13.608a110.876,110.876,0,0,0,18.789-6.9c11.574-5.7,14.615-13.367,11.193-25.79-1.33-4.82.123-8.038,4.338-9.617,4.465-1.673,9.271-.074,10.768,4.308C9568.288,1591.272,9569.345,1596.842,9570.728,1602.3Z" transform="translate(85.114 0)" fill="#e08800"/>
      <path id="Path_208" data-name="Path 208" d="M9569.9,1598.665c-.039-.682-.082-1.363-.121-2.042-.285-5.6,1.418-8.306,5.6-8.892,5.053-.706,9.635,2.14,10.352,7.14,1.8,12.506-.422,24.013-9.574,33.434-7.582,7.8-17.281,11.448-27.574,13.952-10.8,2.628-21.711,4.914-32.307,8.215-11.014,3.432-19.295,10.314-22.98,21.89-1.473,4.628-5.932,6.345-10.516,4.684-4.377-1.584-6.088-5.366-4.582-10.21,4.635-14.924,15.041-24.586,29.2-29.827,10.377-3.838,21.365-6.016,32.041-9.076,5.33-1.531,10.764-2.943,15.811-5.182C9566.049,1617.957,9570.381,1610.428,9569.9,1598.665Z" transform="translate(112.441 9.675)" fill="#e08800"/>
    </g>
  </g>
</svg>
