<svg xmlns="http://www.w3.org/2000/svg" width="380" height="380" viewBox="0 0 380 380">
  <g id="Group_134" data-name="Group 134" transform="translate(-9996 -1877)">
    <rect id="Rectangle_86" data-name="Rectangle 86" width="380" height="380" transform="translate(9996 1877)" fill="none"/>
    <g id="Group_34" data-name="Group 34" transform="translate(1286.207 -272.963)">
      <path id="Path_209" data-name="Path 209" d="M8801.569,2260.548l-54.143,56.343v95.085a4.839,4.839,0,0,0,4.842,4.839h65.738a4.86,4.86,0,0,0,4.863-4.839V2266.141l-15.172-5.593Z" transform="translate(13.132 67.93)" fill="#f7c7c6"/>
      <path id="Path_210" data-name="Path 210" d="M8875.611,2282.218h-65.732a4.857,4.857,0,0,0-4.85,4.862v102.377a4.846,4.846,0,0,0,4.85,4.839h65.732a4.853,4.853,0,0,0,4.859-4.839V2287.08A4.864,4.864,0,0,0,8875.611,2282.218Z" transform="translate(72.992 90.449)" fill="#ef8582"/>
      <path id="Path_211" data-name="Path 211" d="M8925.933,2240.277a17.648,17.648,0,0,1-11.312-4.107l-11.953-9.994-43.207,47.14v174.379a4.843,4.843,0,0,0,4.844,4.839h65.754a4.833,4.833,0,0,0,4.848-4.839V2237.767c-.27.169-.506.345-.789.507A17.756,17.756,0,0,1,8925.933,2240.277Z" transform="translate(129.556 32.211)" fill="#eb6164"/>
      <path id="Path_212" data-name="Path 212" d="M8744.483,2377.561a9.57,9.57,0,0,0,6.992-2.987l61.889-64.388,108.291,39.84a9.725,9.725,0,0,0,10.5-2.555l99.705-108.767,23.338,19.511a3.683,3.683,0,0,0,6.016-3.14l-5.072-56.549a3.655,3.655,0,0,0-3.975-3.33l-56.549,5.055a3.687,3.687,0,0,0-3.176,2.553,3.649,3.649,0,0,0-.154,1.419,3.561,3.561,0,0,0,1.309,2.494l23.363,19.53-94.719,103.326-108.117-39.785a9.7,9.7,0,0,0-10.342,2.386l-66.287,68.963a9.627,9.627,0,0,0-2.7,6.862v.078a9.721,9.721,0,0,0,9.689,9.484Z" transform="translate(-0.001 0)" fill="#e60012"/>
    </g>
  </g>
</svg>
