<svg xmlns="http://www.w3.org/2000/svg" xmlns:xlink="http://www.w3.org/1999/xlink" width="380" height="380" viewBox="0 0 380 380">
  <defs>
    <clipPath id="clip-path">
      <rect id="Rectangle_24" data-name="Rectangle 24" width="326.709" height="346.325" fill="none"/>
    </clipPath>
  </defs>
  <g id="Group_134" data-name="Group 134" transform="translate(-9996 -1877)">
    <rect id="Rectangle_86" data-name="Rectangle 86" width="380" height="380" transform="translate(9996 1877)" fill="none"/>
    <g id="Group_39" data-name="Group 39" transform="translate(620.547 -301.163)">
      <g id="Group_38" data-name="Group 38" transform="translate(9402.077 2195)">
        <g id="Group_37" data-name="Group 37" clip-path="url(#clip-path)">
          <path id="Path_222" data-name="Path 222" d="M9642.79,2348.589s-8.928,15.826-10.146,17.653a10.2,10.2,0,0,1-13.8,3.856c-2.027-1.217-15.624-8.929-17.246-10.146a61.479,61.479,0,0,1-19.076,11.163v13.8a10.049,10.049,0,0,1-10.149,10.146h-20.292a10.049,10.049,0,0,1-10.146-10.146v-13.8a61.453,61.453,0,0,1-19.073-11.163L9491.205,2377l-29.425,4.668,8.932-39.571,31.653-17.046a67.381,67.381,0,0,1-1.015-11.16,50.826,50.826,0,0,1,1.22-11.16l-31.659-17.048-10.347-37.338,30.845,2.437,31.453,17.043a62.148,62.148,0,0,1,19.075-11.161v-13.8a10.046,10.046,0,0,1,10.146-10.145h20.3a10.047,10.047,0,0,1,10.146,10.145v13.8a60.5,60.5,0,0,1,18.869,11.161h.205c2.027-1.215,15.624-8.927,17.248-10.146a10.379,10.379,0,0,1,13.8,3.656s8.928,15.826,10.146,17.653a10.248,10.248,0,0,1-3.651,14c-2.231,1.015-15.627,8.52-17.249,9.739a50.906,50.906,0,0,1,1.218,11.16,67.247,67.247,0,0,1-1.015,11.16c2.231,1.014,15.422,8.524,17.046,9.739a10.013,10.013,0,0,1,3.651,13.8Zm0,0" transform="translate(-9317.921 -2140.726)" fill="#0095d8"/>
          <path id="Path_223" data-name="Path 223" d="M9564.6,2403.99s-8.929,15.828-10.146,17.653a10.2,10.2,0,0,1-13.8,3.856c-2.025-1.215-15.624-8.929-17.246-10.146a65.659,65.659,0,0,1-19.078,11.163v14.475a10.048,10.048,0,0,1-10.146,10.146H9473.9a10.05,10.05,0,0,1-10.15-10.146v-14.475a65.684,65.684,0,0,1-19.073-11.163c-2.028,1.217-15.629,8.931-17.251,10.146a10.2,10.2,0,0,1-13.794-3.856c-1.22-2.029-8.93-15.826-10.147-17.45a10.131,10.131,0,0,1,3.449-13.8c.2,0,15.42-8.724,17.246-9.941a69.465,69.465,0,0,1-1.015-11.163,50.967,50.967,0,0,1,1.218-11.16c-2.232-1.017-15.624-8.524-17.246-9.741a10.251,10.251,0,0,1-3.652-14c1.218-2.029,8.928-15.825,10.147-17.452a9.959,9.959,0,0,1,13.591-3.854s15.627,8.928,17.454,10.145a62.094,62.094,0,0,1,19.073-11.16v-34.093l20.294-20.292,20.291,20.292v34.093a62.012,62.012,0,0,1,19.076,11.16l31.45-17.045,20.5,34.9-31.657,17.048a50.909,50.909,0,0,1,1.221,11.16,67.548,67.548,0,0,1-1.016,11.163c2.231,1.014,15.42,8.521,17.042,9.738a10.01,10.01,0,0,1,3.656,13.8Zm0,0" transform="translate(-9402.076 -2104.811)" fill="#22ac38"/>
          <path id="Path_224" data-name="Path 224" d="M9575.563,2305.054l-20.5,34.9-31.653-17.048a90.654,90.654,0,0,1-8.932,6.494,65,65,0,0,1-10.146,4.666v34.094h-40.585v-34.094a61.352,61.352,0,0,1-19.073-11.16c-2.028,1.217-15.629,8.929-17.251,10.146a10.2,10.2,0,0,1-13.794-3.856c-1.22-2.029-8.93-15.826-10.147-17.451a10.131,10.131,0,0,1,3.449-13.8c.2,0,15.42-8.726,17.246-9.943a67.37,67.37,0,0,1-1.015-11.163,51,51,0,0,1,1.218-11.16c-2.232-1.014-15.624-8.521-17.246-9.738a10.25,10.25,0,0,1-3.652-14c1.218-2.03,8.928-15.829,10.147-17.451a9.96,9.96,0,0,1,13.591-3.856s15.627,8.929,17.454,10.146a61.992,61.992,0,0,1,19.073-11.16v-14.475A10.049,10.049,0,0,1,9473.9,2195h20.289a10.047,10.047,0,0,1,10.146,10.146v14.475a61.12,61.12,0,0,1,18.875,11.16h.2c2.029-1.215,15.626-8.929,17.248-10.146a10.381,10.381,0,0,1,13.8,3.654s8.928,15.829,10.146,17.653a10.248,10.248,0,0,1-3.656,14c-2.231,1.014-15.625,8.521-17.247,9.738a50.953,50.953,0,0,1,1.221,11.163,67.493,67.493,0,0,1-1.016,11.16Zm0,0" transform="translate(-9402.076 -2195)" fill="#f8b500"/>
        </g>
      </g>
      <path id="Path_225" data-name="Path 225" d="M9563.732,2256.564a9.808,9.808,0,0,0-14.2,0l-23.339,23.131-10.146,10.149-13.19-12.988a10.043,10.043,0,0,0-14.2,14.2l20.29,20.291a9.808,9.808,0,0,0,14.205,0l40.586-40.583a9.809,9.809,0,0,0,0-14.2Zm0,0" transform="translate(120.191 84.205)" fill="#efefef"/>
      <path id="Path_226" data-name="Path 226" d="M9497.171,2294.005a9.808,9.808,0,0,0-14.2,0l-23.336,23.134-10.144,10.145-13.193-12.987a10.045,10.045,0,0,0-14.205,14.206l20.295,20.292a9.8,9.8,0,0,0,14.2,0l40.585-40.586a9.809,9.809,0,0,0,0-14.2Zm0,0" transform="translate(24.413 138.079)" fill="#efefef"/>
      <path id="Path_227" data-name="Path 227" d="M9497.171,2219.122a9.808,9.808,0,0,0-14.2,0l-23.336,23.134-10.144,10.146-13.193-12.987a10.045,10.045,0,0,0-14.205,14.207l20.295,20.292a9.8,9.8,0,0,0,14.2,0l40.585-40.586a9.809,9.809,0,0,0,0-14.2Zm0,0" transform="translate(24.413 30.33)" fill="#efefef"/>
    </g>
  </g>
</svg>
