<svg xmlns="http://www.w3.org/2000/svg" width="380" height="380" xml:space="preserve">
  <circle fill="#80B94A" r="76.5" cy="100.5" cx="192.8" class="st0"/>
  <path fill="#FFF" d="m181 132.4-29.1-29.1c-1-1-1-2.6 0-3.6l10.7-10.9c1-1 2.6-1 3.6 0l29.1 29.1c1 1 1 2.6 0 3.6l-10.8 10.8c-.8 1.1-2.4 1.1-3.5.1z" class="st1"/>
  <path fill="#FFF" d="m234 83.1-49.1 49c-.9.9-2.3.9-3.2 0l-11.2-11.2c-.9-.9-.9-2.3 0-3.2l49-49.1c.9-.9 2.3-.9 3.2 0l11.2 11.2c.9 1 .9 2.4.1 3.3z" class="st1"/>
  <path fill="#FDD762" d="m236.6 134.2 69.2 66.5 13.5 13 4.9 4.7c1.6 1.5 4.1 1.4 5.6-.1l13.6-14.2 12.5-13c5.4-5.7 5.2-14.8-.4-20.4l-12.1-11.6-66.9-64.4c-5.7-5.4-14.8-5.3-20.3.4l-26.1 27.2c-1.5 1.6-1.5 4.1.1 5.6l6.4 6.3z" class="st2"/>
  <path fill="#FFD9AB" d="m140.6 138.4-74.3 71.5c2.3 19.8 6 38.2 18.2 48.6l100.7 81.9 12.2 9.4c18.3 14.1 35.7-5.6 21.8-20.2l-.6-.6c4.7 3.9 10 5 14.6 4.3 10.2-1.6 17.1-12.4 7.8-22.5 18.3 14.6 34-8.7 19.7-21.5 16 5 33.5-15.7 16.8-33.3-.1-.1-.2-.3-.4-.4l-41.6-62-55.9-35.8-39-19.4z" class="st3"/>
  <path fill="#FFE5C1" d="M183.8 342c15.5-16.5-7.2-35.5-19.7-24.3l-13.4 12.7-.4.4c-11.2 11.3 9.2 37 26.1 19.1l7.4-7.9z" class="st4"/>
  <path fill="#FFE5C1" d="m140.8 294.6-14.1 14.8-.1.1c-7.1 7.6-2.2 19.1 6.3 23.6 5.2 2.8 11.7 2.9 17.5-2.3l15.1-.2-1.3-12.9 1.9-1.8c15.1-14.4-6.8-39.3-23.8-22.8l-1.5 1.5z" class="st4"/>
  <path fill="#FFE5C1" d="m115.5 274.3-13.2 14-1.8 2c-13.1 13.9 10.4 35.7 23.9 21.6l2.3-2.4c.2-.2 14.4-1.7 15.9-1.8l-.2-14.6 4.5-4.7c15.6-16.3-8.8-37.9-23.6-22.1l-7.8 8z" class="st4"/>
  <path fill="#FFE5C1" d="m84.6 258.4-4.5 4.8c-13.8 15 6.8 38.9 22.3 25.1l12.7-1.9.6-12.1c12.5-14.2-9.3-39.4-26.5-20.8l-4.6 4.9z" class="st4"/>
  <path fill="#3DB4E8" d="M103.5 96.3 42 155.5l-17.5 16.8c-5.7 5.4-5.8 14.6-.4 20.4l26.1 27.2c1.5 1.6 4 1.6 5.6.1l10.5-10.1 74.3-71.5 9.2-8.9c1.6-1.5 1.6-4 .1-5.6l-26.1-27.2c-5.5-5.8-14.5-6-20.3-.4z" class="st5"/>
  <path fill="#FFC38D" d="m220.6 199.2-18.6 4.2 7.4 7.5 56.6 56.3.4.4c6.9 7.3 7.9 14.9 5.7 21.3 11.2-4.2 18.2-19.5 5.6-33l-.4-.4-16.9-16.8-39.8-39.5zm-80-60.8-11.9 11.4 37.2 18.3 13.7-10.6-39-19.1z" class="st6"/>
  <path fill="#FFE5C1" d="m179.5 157.6-13.7 10.6-12.9 10c-32.5 25.1-5.5 50 13.7 41.4l21.7-13.1 13.4-3 18.6-4.2 39.6 39.4 16.9 16.8c10.7-4 25.8-15.5 42-41.7l-82.7-79.5-14.8 11.9c-2.4 1.9-1.7 1.6-4.7 1.5-11.2-.3-25.3.8-33.7 7.2l-3.4 2.7z" class="st4"/>
  <path fill="#FED1A3" d="M179.5 197.9 157.9 211c-5.9 2.6-12.6 2.1-17.9-.6 4.7 9.1 16.8 13.7 26.9 9.3l21.7-13.1 13.4-3 18.4-4.2c-8.6-7.4-10.1-8.4-27.4-4.4l-13.5 2.9z" class="st7"/>
  <path fill="#FFC38D" d="M305.7 200.6c-14.5 23.4-28 35.1-38.4 40.1-1.2.6-2.3 1.1-3.3 1.5l13.2 13.1c10.7-4 25.8-15.5 42-41.7l-13.5-13z" class="st6"/>
  <path fill="#F8B500" d="M338.3 154.2zm-12.1 33.3-13.6 14.2c-1.5 1.6-4 1.6-5.6.1l12.3 11.8 4.9 4.7c1.6 1.5 4.1 1.4 5.6-.1l13.6-14.2 12.5-13c5.4-5.7 5.2-14.8-.4-20.4L340.2 156l1.3 1.3-3.2-3.1c5.6 5.4 5.7 14.6.3 20.3l-12.4 13z" class="st8"/>
  <path fill="#0095D8" d="M82.6 116.5c5.7-5.4 14.7-5.2 20.2.5l26.1 27.2c1.5 1.6 1.5 4.1-.1 5.6l11.9-11.4 9.2-8.9c1.6-1.5 1.6-4 .1-5.6l-26.1-27.2c-5.4-5.7-14.6-5.8-20.3-.4l-21 20.2z" class="st9"/>
  <path fill="#FFC38D" d="M75.5 274.7c.1 12.7 15 24.2 26.8 13.6l8.3-8.8 4.9-5.2c5.1-5.8 4.4-13.6.7-19.4 0 3.3-1.1 6.8-3.7 9.7l-8.8 9.4-4.4 4.7c-8.6 7.7-18.9 3.7-23.8-4zm21.7 28.8c3.1 10.4 17.5 18.3 27.1 8.4l2.3-2.4s0-.1.1-.1l14.1-14.8c.5-.6 1-1.1 1.5-1.6l4.5-4.7c8.4-8.8 5.2-19.2-1.8-24.3 1.3 4.7.2 10.3-4.5 15.2l-4.5 4.7-1.5 1.5-14.1 14.8-.1.1-2.3 2.4c-6.4 6.8-14.9 5.5-20.8.8zm53.6 26.9 10.3-9.8 3-2.9 1.9-1.8c8.1-7.7 5.6-18.2-1-24.1 1.4 5 .4 10.8-4.5 15.4l-1.9 1.8-5.4 5.1-8 7.6-.4.4c-5.7 5.2-12.3 5.1-17.5 2.3-1.3-.7-2.5-1.5-3.5-2.5 1.3 4.6 4.7 8.9 9.1 11.2 5.2 2.8 11.7 2.9 17.5-2.3l.4-.4zm33 11.6c7.8-8.3 5.9-17.1.7-22.6-.1 3.6-1.7 7.6-5.2 11.4l-7.4 7.9c-9.1 9.6-19.2 6.8-24.8.2.1 11.8 15.8 25.3 29.3 10.9l7.4-7.8z" class="st6"/>
</svg>