<?xml version="1.0" encoding="utf-8"?>
<!-- Generator: Adobe Illustrator 21.1.0, SVG Export Plug-In . SVG Version: 6.00 Build 0)  -->
<svg version="1.1" id="圖層_1" xmlns="http://www.w3.org/2000/svg" xmlns:xlink="http://www.w3.org/1999/xlink" x="0px" y="0px"
	 width="1901px" height="673px" viewBox="0 0 1901 673" style="enable-background:new 0 0 1901 673;" xml:space="preserve">
<style type="text/css">
	.st0{fill:#F3FAFE;}
	.st1{opacity:0.8;}
	.st2{fill:#CBCBCB;}
	.st3{fill:#F1F1F1;}
	.st4{fill:#FFFFFF;}
	.st5{fill:#E5E5E5;}
	.st6{opacity:0.4;}
	.st7{fill:#FFF3D6;}
	.st8{fill:#E50012;}
	.st9{fill:#0094D7;}
	.st10{fill:#359F57;}
	.st11{fill:#F7B400;}
	.st12{fill:#9E9E9F;}
	.st13{fill:none;}
	.st14{fill:#808080;}
	.st15{fill:#0095D8;}
	.st16{fill:#333333;}
	.st17{fill:none;stroke:#D5D6DA;stroke-width:2;stroke-miterlimit:10;}
	.st18{clip-path:url(#SVGID_2_);}
	.st19{fill:#3DB4E8;}
	.st20{fill:#666464;}
	.st21{fill:#1A1A1A;}
	.st22{fill:#F6C8B5;}
	.st23{fill:#7D7D7D;}
	.st24{fill:#131F2D;}
	.st25{fill:#5C305D;}
	.st26{fill:#080435;}
	.st27{fill:#8FD3F3;}
	.st28{fill:#22AC38;}
	.st29{fill:#FADBDA;}
	.st30{fill:#EB6164;}
	.st31{fill:#F8B500;}
	.st32{fill:#EF8582;}
	.st33{fill:#FFE893;}
	.st34{fill:#FDD762;}
	.st35{fill:#FFFAEC;}
	.st36{opacity:0.3;}
	.st37{fill:#EBF6FB;}
	.st38{fill:#F5A200;}
</style>
<g>
	<path class="st0" d="M0.5,0v572c144.7,49.8,515.7,85.3,950.5,85.3c434.3,0,805-35.4,950-85.1V0H0.5z"/>
</g>
<title>工程師培訓營報名頁面</title>
<g class="st1">
	<path class="st2" d="M1387.8,620.1c0,0,125.9-307.1,215.3-267.8s-134,186-167.5,276.6L1387.8,620.1z"/>
</g>
<path class="st3" d="M1427,580.4c0,0,194.1-276.7,276.7-214.2S1527.4,519,1473.7,601.5L1427,580.4z"/>
<path class="st4" d="M1453.1,592.5c36.1-57.8,93.4-106.7,135.1-137.5c45.3-33.5,82.4-53.5,82.8-53.7l-1.2-2.5
	c-0.4,0.2-37.7,20.3-83.1,53.9c-41.9,31-99.5,80.1-135.8,138.3L1453.1,592.5z"/>
<path class="st5" d="M1635.2,306.1c4.2-6.5,7.9-6.5,11-4.3s4.3,6.1,0.2,12.6c-7.6,11.8-16.8,13.3-16.8,13.3
	S1627.6,318.1,1635.2,306.1z"/>
<path class="st2" d="M1285,481.6c0,0,3.4-131.1-29.7-130.7s15.8,88.4,13.7,126.5L1285,481.6z"/>
<path class="st3" d="M1284.5,492c0,0-42-176.6-93.9-164.3s56.8,112.6,67.2,164.3L1284.5,492z"/>
<path class="st4" d="M1269.6,492.1c-6.6-35.9-25.2-72.1-39.6-96.2c-9.1-15.3-19.1-30-30-44.1l1-1c10.9,14.1,21,28.9,30.2,44.3
	c14.5,24.2,33.2,60.6,39.8,96.7L1269.6,492.1z"/>
<g class="st6">
	<path class="st5" d="M1081.5,495.2c-4.5-7.4-3.7-11.1-1-13s6.2-1.3,10.7,6.1c8.2,13.4,7.3,23.3,7.3,23.3S1089.8,508.8,1081.5,495.2
		z"/>
	<path class="st5" d="M1073.1,521.5c-8-1.7-9.9-5-9.3-8.4s3.5-5.6,11.6-3.9c14.6,3.1,20.6,10.8,20.6,10.8S1088,524.7,1073.1,521.5z"
		/>
</g>
<rect x="398.8" y="414.7" class="st7" width="706.2" height="24.4"/>
<path class="st8" d="M622.1,181.3c-0.6,0-1.1-0.2-1.6-0.6c-0.9-0.8-0.9-2.2,0-3.1c0,0,0,0,0,0c0.4-0.4,1-0.6,1.6-0.6
	c0.6,0,1.1,0.2,1.5,0.6c0.5,0.4,0.7,1,0.7,1.6c0,0.6-0.2,1.2-0.7,1.6C623.2,181.1,622.7,181.3,622.1,181.3z M624.3,185.2v11.6
	c0.1,0.7-0.2,1.4-0.6,2c-0.4,0.4-1,0.7-1.6,0.7c-0.6,0-1.2-0.2-1.6-0.7c-0.4-0.6-0.7-1.3-0.6-2v-11.4c-0.1-0.7,0.2-1.4,0.6-2
	c0.4-0.4,1-0.7,1.6-0.7c0.6,0,1.2,0.2,1.6,0.7C624.1,183.9,624.3,184.6,624.3,185.2L624.3,185.2z"/>
<path class="st9" d="M548.3,179.6l8.5,12.8v-13c0-0.7,0.1-1.3,0.5-1.9c0.4-0.4,0.9-0.7,1.5-0.6c0.6,0,1.1,0.2,1.5,0.6
	c0.4,0.5,0.6,1.2,0.5,1.9v17.1c0,1.9-0.8,2.9-2.4,2.9c-0.4,0-0.7-0.1-1.1-0.2c-0.3-0.1-0.6-0.3-0.9-0.5c-0.3-0.3-0.5-0.6-0.8-0.9
	l-0.7-1l-8.3-12.7V197c0.1,0.7-0.2,1.4-0.6,1.9c-0.4,0.4-0.9,0.7-1.5,0.6c-0.6,0-1.1-0.2-1.5-0.6c-0.4-0.5-0.6-1.2-0.6-1.9v-16.8
	c0-0.6,0.1-1.1,0.2-1.7c0.2-0.5,0.5-0.8,0.9-1.1c0.4-0.3,0.9-0.4,1.4-0.4c0.7,0,1.3,0.2,1.8,0.7c0.2,0.3,0.5,0.5,0.7,0.9
	L548.3,179.6z"/>
<path class="st9" d="M569.5,190.1v-10.5c-0.1-0.7,0.2-1.4,0.6-2c0.4-0.4,1-0.7,1.6-0.7c0.6,0,1.2,0.2,1.6,0.7c0.4,0.6,0.7,1.3,0.6,2
	v10.7c0,1,0.1,2,0.4,3c0.2,0.8,0.8,1.5,1.5,1.9c0.9,0.5,1.9,0.7,2.9,0.7c1.4,0.1,2.7-0.4,3.7-1.4c0.8-1.2,1.2-2.7,1.1-4.2v-10.7
	c-0.1-0.7,0.2-1.4,0.6-2c0.4-0.4,1-0.7,1.6-0.7c0.6,0,1.2,0.2,1.6,0.7c0.5,0.6,0.7,1.3,0.6,2v10.5c0,1.4-0.1,2.9-0.5,4.3
	c-0.3,1.2-1,2.2-1.9,3c-0.8,0.7-1.7,1.3-2.8,1.6c-1.2,0.4-2.4,0.5-3.7,0.5c-1.5,0-2.9-0.2-4.3-0.5c-1.1-0.3-2.2-0.9-3-1.7
	c-0.8-0.8-1.4-1.8-1.7-2.9C569.6,193,569.4,191.5,569.5,190.1z"/>
<path class="st10" d="M610.7,180.4h-9.9v6.1h9.1c0.5,0,1.1,0.1,1.5,0.4c0.3,0.3,0.5,0.7,0.5,1.2c0,0.5-0.2,0.9-0.5,1.2
	c-0.4,0.3-1,0.5-1.5,0.5h-9.2v6.2h10.3c0.6,0,1.1,0.1,1.6,0.5c0.4,0.3,0.5,0.8,0.5,1.3c0,0.5-0.2,0.9-0.5,1.3
	c-0.4,0.4-1,0.5-1.6,0.5h-12c-1.3,0.2-2.5-0.6-2.7-1.8c-0.1-0.3-0.1-0.6,0-0.9v-17.1c0-0.5,0.1-1.1,0.3-1.6c0.2-0.4,0.5-0.7,0.9-0.9
	c0.5-0.2,1-0.3,1.5-0.3h11.6c0.6,0,1.1,0.1,1.6,0.5c0.3,0.3,0.5,0.8,0.5,1.2c0,0.5-0.2,0.9-0.5,1.2
	C611.8,180.3,611.3,180.4,610.7,180.4z"/>
<path class="st11" d="M639.8,190.3h-4v6.5c0.1,0.7-0.2,1.4-0.6,2c-0.8,0.9-2.2,0.9-3.1,0.1c0,0,0,0-0.1-0.1c-0.4-0.6-0.7-1.3-0.6-2
	v-17.1c-0.1-0.8,0.2-1.5,0.7-2.1c0.6-0.5,1.4-0.7,2.1-0.6h5.7c1.3,0,2.6,0.1,3.9,0.4c0.9,0.2,1.6,0.6,2.3,1.2
	c0.7,0.6,1.2,1.3,1.5,2.1c0.3,0.9,0.5,1.8,0.5,2.8c0.1,1.9-0.6,3.7-2,5C644.6,189.7,642.5,190.3,639.8,190.3z M638.7,180.3h-3v6.6h3
	c0.9,0,1.8-0.1,2.6-0.3c0.6-0.2,1.2-0.6,1.6-1.1c0.4-0.6,0.6-1.3,0.5-1.9c0-0.9-0.3-1.7-0.8-2.4C642,180.6,640.7,180.3,638.7,180.3
	L638.7,180.3z"/>
<path class="st12" d="M525.2,176c-1.8-1-3.9-1.6-5.9-1.8c-3.3-5.9-10.8-7.9-16.7-4.5c-3.8,2.2-6.2,6.2-6.1,10.6
	c-6.8,0-12.2,5.5-12.2,12.2c0,6.7,5.5,12.2,12.2,12.2h21.4c8.5,0,15.3-6.9,15.3-15.3C533.1,183.8,530.1,178.7,525.2,176z"/>
<path class="st9" d="M520,173.4c-3.3-5.9-10.8-7.9-16.7-4.5c-3.8,2.2-6.2,6.2-6.1,10.6c-6.8,0-12.2,5.5-12.2,12.2
	c0,6.8,5.5,12.2,12.2,12.2l0,0l28.8-28.7C524.1,174.2,522.1,173.5,520,173.4z"/>
<path class="st13" d="M508.5,179.3c-2.7-0.1-5,1.9-5.1,4.6c-0.1,1.6,0.6,3.1,1.9,4.1l4,4l4.1-4.1l-4-4c-0.3-0.3-0.3-0.8,0-1.1
	c0.1-0.1,0.3-0.2,0.5-0.2c0-0.2,0.1-0.3,0.2-0.5c0.3-0.3,0.8-0.3,1.1,0c0,0,0,0,0,0l4,4l1.1-1.1l-4-4
	C511.3,179.8,509.9,179.3,508.5,179.3z"/>
<path class="st14" d="M513,180.2c-2.1-2.1-5.6-2.1-7.8,0c0,0,0,0,0,0c-0.1,0.1-0.2,0.2-0.3,0.4c2.2-1.8,5.4-1.7,7.4,0.3l4,4l0.7-0.7
	L513,180.2z"/>
<path class="st14" d="M516.6,199.5c-1.4,0-2.6-0.5-3.6-1.5l-5-5l-4-4c-2.7-2.7-2.8-6.9-0.3-9.8l-0.4,0.4c-2.8,2.8-2.8,7.3,0,10.1
	l4,4l5,5c1.9,2,5.1,2,7.1,0c0,0,0,0,0,0c0.1-0.1,0.2-0.2,0.3-0.4C518.9,199.1,517.7,199.5,516.6,199.5z"/>
<path class="st14" d="M519,192.1l-5-5l-4-4c-0.2-0.2-0.3-0.4-0.2-0.7c-0.4,0.1-0.7,0.5-0.7,0.9c0,0.2,0.1,0.3,0.2,0.5l4,4l5,5
	c1.2,1.2,1.3,3.1,0.3,4.4c0.1-0.1,0.3-0.2,0.4-0.3C520.3,195.6,520.3,193.4,519,192.1z"/>
<path class="st4" d="M520.1,190.9l-5-5l-4-4c-0.3-0.3-0.8-0.3-1.1,0c0,0,0,0,0,0c-0.3,0.3-0.3,0.8,0,1.1l4,4l5,5
	c1.3,1.3,1.3,3.5,0,4.8c-0.1,0.1-0.2,0.2-0.4,0.3c-1.4,1-3.2,0.9-4.4-0.3l-5-5l-4-4c-2-2-2.1-5.2-0.3-7.4c0.1-0.1,0.2-0.2,0.3-0.4
	c2.1-2.1,5.6-2.1,7.8,0c0,0,0,0,0,0l4,4l0.5-0.5l0.7-0.7l-4-4c-1.3-1.3-3.1-2.1-5-2.1l0,0c-1.9,0-3.7,0.8-5,2.1
	c-0.1,0.1-0.2,0.2-0.3,0.3c-2.5,2.8-2.4,7.1,0.3,9.8l4,4l5,5c1.8,1.8,4.7,2,6.7,0.3c0.1-0.1,0.2-0.2,0.4-0.3
	C522.1,196.1,522.1,192.9,520.1,190.9C520.2,191,520.2,191,520.1,190.9z"/>
<path class="st11" d="M516.6,197.9c1.5,0.1,2.9-1.1,3-2.6c0.1-1-0.4-2-1.3-2.5l-5-5l-4.1,4.1l5,5
	C514.8,197.5,515.7,197.9,516.6,197.9z"/>
<path class="st11" d="M526,175.2l-7.8,7.8l-0.7,0.7l-0.5,0.5l-0.7,0.7l-1.2,1.2l5,5c2,1.9,2,5.1,0,7.1c0,0,0,0,0,0
	c-0.1,0.1-0.2,0.2-0.4,0.3c-0.1,0.1-0.2,0.2-0.3,0.4c-1.9,2-5.1,2-7.1,0c0,0,0,0,0,0l-5-5l-10.1,10.1h21.4c8.5,0,15.3-6.9,15.3-15.3
	C534,183,530.9,177.9,526,175.2z"/>
<path class="st15" d="M382.8,198.2c-1.3,1.3-3,2.3-4.8,2.9c-2.1,0.7-4.2,1-6.4,1c-2.1,0.1-4.3-0.5-6.1-1.6c-1.7-1.1-2.9-2.7-3.6-4.6
	c-0.7-2.3-0.9-4.7-0.5-7l0.3-1.9c0.3-2.5,1.1-5,2.4-7.2c1.1-1.9,2.7-3.5,4.7-4.7c2-1.1,4.2-1.6,6.4-1.6c3.3,0,5.8,0.8,7.4,2.4
	s2.4,3.9,2.3,6.9h-5.6c0.3-2.2-1.2-4.3-3.5-4.6c-0.4-0.1-0.8-0.1-1.2,0c-1.8,0-3.6,0.8-4.8,2.2c-1.4,1.9-2.2,4.2-2.5,6.5l-0.3,1.8
	c-0.4,2.9-0.2,5.1,0.7,6.6c1,1.5,2.7,2.4,4.5,2.2c1.7,0.1,3.4-0.4,4.8-1.4l0.7-4.8h-5.2l0.6-4.2h10.9L382.8,198.2z"/>
<path class="st15" d="M413.5,188.4c-0.3,2.5-1.2,5-2.5,7.2c-1.2,2-2.8,3.6-4.8,4.8c-2,1.1-4.2,1.7-6.4,1.7c-2.1,0.1-4.2-0.5-5.9-1.7
	c-1.7-1.1-2.9-2.8-3.5-4.7c-0.7-2.3-0.9-4.7-0.5-7.1l0.2-1.4c0.3-2.6,1.2-5,2.5-7.2c1.2-2,2.9-3.6,4.9-4.8c2-1.1,4.2-1.7,6.4-1.7
	c2.1-0.1,4.2,0.5,5.9,1.7c1.7,1.2,2.9,2.8,3.5,4.8c0.7,2.3,0.9,4.8,0.5,7.2L413.5,188.4z M407.9,187.2c0.4-2.9,0.2-5.1-0.6-6.6
	c-0.8-1.5-2.4-2.4-4.1-2.3c-1.8,0-3.6,0.8-4.8,2.2c-1.4,1.9-2.3,4.2-2.5,6.6l-0.2,1.4c-0.4,2.8-0.2,5,0.6,6.6
	c0.8,1.6,2.4,2.5,4.2,2.4c1.9,0,3.6-0.8,4.8-2.3c1.4-1.9,2.3-4.2,2.5-6.6L407.9,187.2z"/>
<path class="st15" d="M429.4,200.5h-4.3l0.3-2h-2.8l-0.5,3.5h-4.3l4.3-30.3h11.3L429.4,200.5z M426,194.3l2.6-18.4h-2.8l-2.6,18.4
	H426z M452.8,191.3h-4.4l0.2-1.7h-11.4L436,198c-0.1,1,0.3,1.6,1.5,1.7c1.7,0.3,3.4,0.5,5.1,0.4c1.1,0,2.2,0,3.4-0.2
	c0.6,0,1.2-0.2,1.6-0.6c0.5-0.5,1.1-2.1,1.8-4.9l4.2,2c-0.5,2-1.2,3.9-2.1,5.7c-0.6,1.1-1.6,1.9-2.8,2.1c-2.2,0.3-4.4,0.4-6.6,0.4
	c-3.7,0-5.9-0.2-6.5-0.5c-3.1-0.2-4.5-1.7-4.1-4.5l4-28.5h20.3L452.8,191.3z M437.8,185.4h3.5l1.4-9.9h-3.5L437.8,185.4z
	 M449.2,185.4l1.4-9.9h-3.5l-1.4,9.9H449.2z"/>
<path class="st15" d="M460.1,202.4l0.7-5.2h5.2l-0.7,5.2H460.1z M465.7,195h-3.9l1.9-19.4h5.4L465.7,195z"/>
<path class="st16" d="M414.8,319.8c-2.6,2.9-5.9,5.1-9.6,6.3c-4.4,1.5-9,2.3-13.7,2.2c-4.8,0.1-9.6-1.1-13.8-3.4
	c-4-2.3-7.2-5.8-9.2-10c-2.3-4.8-3.4-10.1-3.3-15.4v-4.1c-0.1-5.4,0.9-10.8,3.1-15.8c1.8-4.2,4.9-7.8,8.9-10.2
	c4.1-2.4,8.8-3.6,13.5-3.5c7.2,0,12.8,1.7,16.9,5.2s6.5,8.4,7.2,15h-12.2c-0.6-3.5-1.8-6-3.7-7.6c-1.9-1.6-4.5-2.4-7.9-2.4
	c-3.9-0.2-7.5,1.6-9.7,4.8c-2.2,3.2-3.4,8-3.4,14.3v3.9c0,6.4,1.2,11.2,3.6,14.4s6,4.9,10.6,4.9c4.7,0,8.1-1,10.1-3v-10.5h-11.4
	v-9.2h23.9L414.8,319.8z"/>
<path class="st16" d="M422.3,304.4c-0.1-4.1,0.8-8.3,2.6-12c1.6-3.4,4.2-6.2,7.5-8.1c3.4-2,7.3-3,11.3-2.9c6.1,0,11.1,1.9,14.9,5.6
	c3.9,3.7,6,8.8,6.4,15.2l0.1,3.1c0,6.9-1.9,12.5-5.8,16.7c-3.9,4.2-9.1,6.3-15.6,6.3c-6.5,0-11.7-2.1-15.6-6.3s-5.8-9.8-5.8-17
	L422.3,304.4z M434.4,305.3c0,4.3,0.8,7.6,2.4,9.9c2.9,3.8,8.4,4.5,12.2,1.6c0.6-0.5,1.1-1,1.6-1.6c1.6-2.2,2.5-5.8,2.5-10.8
	c0-4.2-0.8-7.5-2.5-9.8c-1.6-2.3-4.2-3.6-6.9-3.5c-2.7-0.1-5.3,1.2-6.9,3.5C435.2,296.9,434.4,300.5,434.4,305.3z"/>
<path class="st16" d="M485.3,327.4h-12.1v-64.1h12.1V327.4z"/>
<path class="st16" d="M521.4,327.4c-0.6-1.3-1-2.6-1.2-4c-2.9,3.2-7.1,5-11.4,4.9c-4,0.1-7.9-1.2-11-3.8c-2.8-2.4-4.4-6-4.4-9.7
	c0-4.8,1.8-8.5,5.3-11c3.5-2.5,8.7-3.8,15.4-3.9h5.5v-2.6c0.1-1.8-0.5-3.6-1.6-5c-1.1-1.3-2.8-1.9-5.1-1.9c-1.7-0.1-3.4,0.4-4.8,1.5
	c-1.2,1-1.8,2.5-1.7,4h-12c0-2.6,0.9-5.2,2.4-7.3c1.8-2.3,4.1-4.2,6.9-5.2c3.1-1.3,6.5-1.9,9.9-1.9c5.6,0,10,1.4,13.3,4.2
	c3.3,2.8,4.9,6.7,4.9,11.8V317c0,4.3,0.6,7.5,1.8,9.7v0.7H521.4z M511.4,319c1.7,0,3.4-0.4,4.9-1.2c1.4-0.7,2.6-1.8,3.3-3.2v-7.8
	h-4.5c-6,0-9.3,2.1-9.6,6.3v0.7c0,1.4,0.5,2.8,1.6,3.7C508.3,318.6,509.8,319.1,511.4,319L511.4,319z"/>
<path class="st16" d="M552.1,282.3l0.4,5.2c3.1-4,7.9-6.2,13-6c4.8,0,8.4,1.4,10.7,4.2c2.3,2.8,3.5,7,3.6,12.6v29.2h-12.1v-28.9
	c0-2.6-0.6-4.4-1.7-5.6s-3-1.7-5.5-1.7c-3.2-0.1-6.1,1.6-7.6,4.3v31.9h-12.1v-45.2H552.1z"/>
<path class="st16" d="M587.2,304.5c0-6.9,1.7-12.5,5-16.7c3.1-4.2,8.1-6.5,13.3-6.3c5,0,8.8,1.7,11.6,5.1l0.5-4.3h10.9v43.7
	c0.1,3.6-0.8,7.2-2.7,10.3c-1.8,2.9-4.4,5.3-7.6,6.7c-3.6,1.6-7.5,2.4-11.4,2.3c-3.3,0-6.6-0.7-9.7-2c-2.8-1.1-5.2-2.8-7.1-5.1
	l5.3-7.4c2.7,3.2,6.7,5.1,10.9,5c3.2,0,5.7-0.9,7.5-2.6c1.8-1.7,2.7-4.1,2.7-7.3v-2.4c-2.8,3.1-6.8,4.9-11,4.7
	c-5.2,0.1-10.1-2.2-13.2-6.4c-3.3-4.2-5-9.9-5-16.9L587.2,304.5z M599.2,305.4c0,4.1,0.8,7.3,2.5,9.6c1.5,2.3,4.1,3.6,6.8,3.5
	c3.7,0,6.3-1.4,7.9-4.1v-19c-1.6-2.8-4.2-4.1-7.8-4.1c-2.7-0.1-5.3,1.3-6.8,3.5C600,297.2,599.2,300.7,599.2,305.4L599.2,305.4z"/>
<path class="st16" d="M710.2,263.9v9.7h-29.4v48h32.8v9.8H638v-9.8h32.4v-48h-29v-9.7H710.2z"/>
<path class="st16" d="M755.9,265.5c-3.5,1.6-7.1,3.1-10.7,4.4v11.4h10.3v9.3h-10.3v0.6c4.2,3.7,8.1,7.6,11.8,11.8l-6.1,8.3
	c-1.9-2.9-3.8-5.6-5.6-8V335h-9.7v-28.1c-2.2,4.5-4.9,8.8-8,12.7l-5.6-7c3.2-3.8,5.9-8,8.2-12.5c1.7-3.1,3.2-6.3,4.5-9.6h-10.9v-9.3
	h11.7V273c-2.6,0.8-5.1,1.5-7.7,2l-4.7-8.7c9.3-1.8,18.4-4.6,27.1-8.4L755.9,265.5z M798.7,297.9c-5.1,0.8-10.5,1.5-16,2.1v7.9h14.6
	v9h-14.6v8h16.7v9h-45.1v-9h18.7v-8h-15.6v-9.1H773v-6.8c-4.7,0.5-9.5,0.9-14.4,1.2l-3.3-9.1c14.1-0.9,27.1-2.2,39.1-3.9
	L798.7,297.9z M797.3,259.5v27h-39.7v-27H797.3z M787.7,277.5v-9.1h-20.4v9.1H787.7z"/>
<path class="st16" d="M829.4,260.6c-0.7,1.7-1.3,3.2-2,4.6h12.4v28h-21v5.4h21.7v34h-9.3V328h-12.4v7h-9.3v-69.8h7.7
	c0.9-2.5,1.6-5,2.3-7.7L829.4,260.6z M830.4,284.3v-10h-11.7v10H830.4z M831,318.6v-11h-12.4v11H831z M885.2,261.2v9.4h-17v9h16.3
	v32.7c0,7.9-3.7,11.7-11,11.7c-1.4,0-2.8-0.4-4-1l-1.3-6.5v18.5h-9.4V289h-5.6v35h-9.8v-44.4h15.4v-9h-15.7v-9.4L885.2,261.2z
	 M868.2,313.3c1.7,0.8,3.5,1.2,5.3,1.3c0.9,0,1.4-1.5,1.4-4.6v-21h-6.7V313.3z"/>
<path class="st16" d="M902.5,275.9v-17h9.3v17h8.7v9.4h-8.7v24c3.5-0.9,6.8-1.7,10-2.6l1.7,8.6c-8.9,3.3-18.1,5.9-27.4,8l-3.3-10
	c3.3-0.6,6.6-1.2,9.7-1.9v-26.1h-8.7v-9.4H902.5z M950.3,258.2v7.4H969v9.4h-12.3l8,2.3c-1.7,4.4-3.5,8.3-5.2,11.7H971v9.3h-49.7
	V289h10.3c-1.6-3.7-3.5-7.3-5.7-10.7l5.3-3.3h-7.3v-9.4h16.7v-7.4L950.3,258.2z M966.7,335.4H957v-3.3h-22.4v3.3h-9.7v-33.1h41.7
	L966.7,335.4z M957,322.7v-11h-22.4v11H957z M949,289c1.9-4.5,3.6-9.2,5-14h-19c2.6,3.9,4.8,8,6.6,12.3l-3,1.7L949,289z"/>
<path class="st16" d="M1011.7,270.6v9.3H980v-9.3H1011.7z M1007.7,282.9v9.1H982v-9.1H1007.7z M1007.7,294.6v9.1H982v-9.1H1007.7z
	 M1008.7,326.7c2.1-4.2,3.7-8.7,4.6-13.3c1.1-5.6,1.7-11.3,1.7-17v-36.1h9.4v36.1c0.1,7.8-0.8,15.5-2.7,23.1
	c-1.2,5.5-3.3,10.8-6.1,15.6l-7-5.6v2.8h-17.4v3.1h-9.1v-29.1h26.4L1008.7,326.7z M1007.1,259.6v9H983v-9H1007.1z M999.8,323.7V315
	h-8.4v8.7L999.8,323.7z M1038.8,264.3V328h-9.4v-63.7H1038.8z M1054.1,260.3v74.8h-9.3v-74.8L1054.1,260.3z"/>
<path class="st16" d="M1091.2,258.2c0.1,4.5-0.4,9-1.4,13.4c4.2,2.1,8.3,4.4,12.1,7l-5.4,6h12.6l-4.5-5c3.6-1.4,6.8-3.7,9.2-6.8
	c1.9-2.4,2.9-7.3,2.9-14.6h9c0.1,4.4-0.3,8.7-1.2,13c4.2,2.2,8.1,4.6,11.9,7.4l-5.4,6h8.4V299h-9.3v-6.3h-54.1v6.7h-9.3v-14.7h8.1
	l-4.8-5.4c4.2-1.7,7.3-3.9,9.4-6.7c1.9-2.3,2.9-7.1,2.9-14.4L1091.2,258.2z M1078.8,263.6c-0.5,3.9-1.7,7.6-3.7,11l-7.6-4
	c1.8-2.7,3.1-5.8,3.7-9.1L1078.8,263.6z M1127.7,295v17.4h-20.5c-0.3,1-0.7,1.9-0.9,2.6h26.1v20.4h-9.3v-2h-39.8v2h-9.3V315h22.2
	c0.3-0.9,0.7-1.8,1-2.6h-18.9V295H1127.7z M1095,284.6c-2.9-2.2-5.9-4.2-9.1-6c-2.1,2.4-4.7,4.4-7.5,6H1095z M1123,326v-3.7h-39.8
	v3.7L1123,326z M1118.3,305.3V302h-30.7v3.3L1118.3,305.3z M1102.7,262.9c-0.5,3.6-1.6,7.1-3.3,10.3l-7.3-3.7
	c1.6-2.6,2.8-5.4,3.3-8.4L1102.7,262.9z M1113.3,264.3c-0.5,3.7-1.8,7.2-3.7,10.3l-7.3-3.7c1.6-2.7,2.8-5.6,3.3-8.7L1113.3,264.3z
	 M1129.5,284.6c-2.7-2.3-5.6-4.3-8.6-6.2c-2,2.5-4.5,4.6-7.3,6.2H1129.5z M1137.7,262.9c-0.6,3.7-2,7.2-4,10.3l-7-3.3
	c1.8-2.6,3-5.6,3.7-8.7L1137.7,262.9z"/>
<polyline class="st17" points="358.1,221.1 547.4,221.1 567.2,237.1 564.3,221.1 662,221.1 "/>
<line class="st17" x1="344.5" y1="152" x2="638.5" y2="152"/>
<g>
	<defs>
		<path id="SVGID_1_" d="M0.5-90v662c144.7,49.8,515.7,85.3,950.5,85.3c434.3,0,805-35.4,950-85.1V-90H0.5z"/>
	</defs>
	<clipPath id="SVGID_2_">
		<use xlink:href="#SVGID_1_"  style="overflow:visible;"/>
	</clipPath>
	<g class="st18">
		<path class="st19" d="M1140.2,156.1c0,0,348,133.9,455.9,224.4c129.7,108.8-218.8,99.6-224.8,135s357.4,100.3,357.4,100.3
			c-16.8,52.6-261.8,77.9-447.6,40c-71.7-14.6-166.7-58.5-159.8-136.7c11.2-127.8,246.6-87.6,239.2-133.6s-238.1-200.8-238.1-200.8
			L1140.2,156.1z"/>
		<path class="st19" d="M1179.5,140.3c-27-19.5-126-40.9-127.5-29.2s49.6,121.2,63.1,117.8s21.2-56.2,21.2-56.2
			S1194.1,150.9,1179.5,140.3z"/>
	</g>
</g>
<g class="st6">
	<path class="st3" d="M1598.7,108.9c0,0-12.5-25.9-44.1-22.6s-27.8,29.2-42.9,26.7s-36.1,0-40.6,16.2s-24.8,7.3-25.6,21.1
		s23.3,23.5,51.2,11.3s41.4,9.4,80.5,5.5s44-8.8,67.1-6.3s22.6-14.6,12.1-26S1603.2,124.6,1598.7,108.9z"/>
</g>
<path class="st3" d="M76,110.7c5-9.1,15-14.3,25.3-13c18.2,1.9,16,16.8,24.7,15.4s20.8,0,23.3,9.3s14.3,4.2,14.7,12.1
	s-13.4,13.5-29.4,6.5s-23.8,5.4-46.3,3.2s-25.3-5-38.6-3.6s-13-8.4-6.9-14.9S73.4,119.7,76,110.7z"/>
<path class="st3" d="M1771.3,186.5c-5.1-9.3-15.3-14.6-25.9-13.3c-18.5,1.9-16.3,17.1-25.2,15.7s-21.2,0-23.8,9.5s-14.6,4.3-15,12.4
	s13.7,13.8,30,6.7s24.3,5.5,47.2,3.3s25.8-5.1,39.4-3.7s13.3-8.6,7.1-15.3S1774,195.7,1771.3,186.5z"/>
<path class="st20" d="M1472.6,224.5c-9.9-19.6-48.2-44.5-59.9-42.5c-2.5,0.4,14-34.2,19.6-30.7c19.3,12.2,48,39.1,55.1,58.7
	L1472.6,224.5z"/>
<path class="st21" d="M1476.5,212.9c4.7-5.9,9.1-5.1,10.8-2.9s-0.4,7.1-4.6,10.9s-8.4,5.8-10.1,3.6S1472.9,217.4,1476.5,212.9z"/>
<path class="st22" d="M1477.2,220.4c0,2.4,0.9,7.3,0.9,9.7c0,1.1,0.3,4.6,1.2,4.8s1.9-2.8,2.2-4.2c3.7,5.8,11.5,12.4,4.5-0.3l0,0
	c0.8,1.2,5.3,8,6.4,6.2c0.9-1.6-2.1-6.6-3.5-8.6l0,0c1.5,1.9,5.3,6.4,5.7,4.6c0.5-2.3-2.7-7.8-2.7-7.8s4.3,7,5.2,4.4
	c0.5-1.4-2.3-5.2-4.1-7.4l0,0l-1-1.2c-0.2-0.2-0.4-0.5-0.6-0.6c-1.7-2-3.7-3.8-5.8-5.4c-1.7-1.5-4.3-1.6-6-0.1
	C1477.7,215.9,1477.2,219.3,1477.2,220.4z"/>
<path class="st21" d="M1389.8,359.8c0,0,2.2,5.8-0.8,9.1s-12.9,9.6-7.5,11.5c3.1,1.1,13.2-5.2,16.2-6.6s6.4-1.3,7.7-4.5
	c1.5-3.5-5.7-14.2-5.7-14.2c-1.2,1.5-2.7,2.8-4.4,3.6C1393.7,359.8,1391.7,360.1,1389.8,359.8z"/>
<path class="st21" d="M1476.3,383.9c0,0,0.3,6.3-3.5,8.4s-15.1,4.7-10.5,8.3c2.6,2.1,14-0.4,17.3-0.6s6.4,1,8.7-1.6
	c2.5-2.8-1.1-15.4-1.1-15.4c-1.6,1.1-3.3,1.7-5.2,2C1479.9,385.2,1478,384.8,1476.3,383.9z"/>
<path class="st23" d="M1404.5,239.4c0,0-12.8-7.3,5.9,35.5c13.5,30.9,42.3,86,56.6,105c3.5,4.6,8.6,8,14.8,6.6l3.3-0.8
	c6.6-1.5,10.8-8.2,8.8-14.3l-48.8-139.1c0,0-3-3.9-20.1-2C1404.3,232.8,1404.5,239.4,1404.5,239.4z"/>
<path class="st23" d="M1386.8,242.3c0,0-25.6,20.4-32.2,47c-7.5,30.2,25.4,70.5,33.3,73.6c5.1,2,9.2,0,15-10.9
	c3.5-6.5-13.4-43.6-8.2-56.3c6.4-15.4,37.8-28.2,37.8-28.2l-3-39.7C1429.6,227.8,1406.5,233.3,1386.8,242.3z"/>
<path class="st20" d="M1441.8,161.9c0,0-4.5-16.4-33.2-15.3c-22.1,0.9-34.5,4-37.1,19.8c-1,5.6-3.2,26.4,8.6,81.6
	c0,0,39,18.2,75.4-1.7c0,0-5.6-29.5-12.1-74.8C1442.7,167.7,1442.9,164.8,1441.8,161.9z"/>
<path class="st19" d="M1402,153.7c1.4,5.4,11.7,44.2,68.2,29.4c3.5-0.9,7.2-0.7,10.6,0.6l9.3,3.7c1,0.4,1.5,1.6,1.1,2.6
	c-0.1,0.2-0.2,0.3-0.3,0.5l-5.6,7.5c-3.5,4.7-8.5,8.1-14.2,9.5c-11.7,2.8-32.7,5.6-50.4-4c-21-11.4-23.8-38.8-24-49.2
	c-0.1-1,0.6-1.9,1.6-2c0.5-0.1,1,0.1,1.4,0.4l0,0C1400,153.1,1401.9,153.3,1402,153.7z"/>
<path class="st22" d="M1407.6,142.7l-1.5-7.8l-0.4-2.3l-2.6-13.4l-1.6,12.9l-1,7.8l-0.3,2.4c-0.2,1.7-1.2,1.9-2.5,3.3
	c-0.5,0.5-3.8,3.8-0.6,5.8c4,2.4,12.2,0.2,15.5-3.5C1412.7,147.8,1408.1,145.2,1407.6,142.7z"/>
<path class="st24" d="M1406.5,136.9c-1.6,1.6-3.8,2.6-6.1,2.9l0.4-3.2L1406.5,136.9z"/>
<path class="st25" d="M1393.8,113.3c-0.7,2.3-0.9,4.7-0.6,7.1c0.4,4,5-5.3,5-5.3L1393.8,113.3z"/>
<path class="st22" d="M1392.7,121.5c1.6-7.6,7.6-12.5,13.4-11.1s9.2,8.7,7.7,16.2s-7.6,12.5-13.4,11.1S1391.1,129.1,1392.7,121.5z"
	/>
<path class="st21" d="M1414.3,122.7l-5.2-1.1c-1.2-0.3-2.1-1-2.7-2.1c-0.9-1.9-2.1-3-7-3.2c-6.2-0.4-9.9-4.7-10.3-8.2s3-5.7,5.9-3.7
	s2-2.3,5-2.4c5.6-0.3,6.3,4.4,10.8,4.7c6,0.4,16.2,6.3,10.2,17.1L1414.3,122.7z"/>
<path class="st26" d="M1402.6,123.4c-0.1,0-0.1,0-0.2-0.1c-0.1-0.1-0.1-0.2,0-0.3c0.8-0.8,2-0.9,2.9-0.2c0.1,0.1,0.1,0.2,0.1,0.3
	c-0.1,0.1-0.2,0.1-0.3,0.1C1404.3,122.9,1403.4,123,1402.6,123.4C1402.6,123.4,1402.6,123.4,1402.6,123.4z"/>
<path class="st26" d="M1394.7,121.6c0,0-0.1-0.1,0-0.2c0-0.2,0.1-0.3,0.3-0.4c0.1,0,1.8-1,2,1.1c0,0.2-0.1,0.3-0.2,0.4
	c-0.1,0.1-0.2,0.1-0.3,0c-0.3-0.6-1-1-1.7-0.9C1394.8,121.6,1394.7,121.6,1394.7,121.6C1394.7,121.6,1394.7,121.6,1394.7,121.6z"/>
<ellipse transform="matrix(0.9994 -3.489950e-02 3.489950e-02 0.9994 -3.4966 48.7871)" class="st26" cx="1395.8" cy="124.6" rx="0.7" ry="1"/>
<path class="st16" d="M1421.2,123.7c0,0-4.3,8-9.5,8.1c0,0,4.7-6-3.7-10.7C1408,121.1,1416.1,120.6,1421.2,123.7z"/>
<path class="st22" d="M1413.6,127.6c-1,0.6-2.3,0.3-2.9-0.8c0,0,0-0.1-0.1-0.1c-0.5-1.2,0-2.6,1.1-3.2c1-0.6,2.3-0.3,2.9,0.8
	c0,0,0,0.1,0.1,0.1C1415.2,125.6,1414.8,127,1413.6,127.6z"/>
<path class="st24" d="M1396.1,103.8h-0.3v-0.3c0.7,0.2,1.5-0.3,1.6-1c0,0,0,0,0,0l0.3,0.1C1397.6,103.3,1396.9,103.8,1396.1,103.8z"
	/>
<path class="st4" d="M1397.9,114.2c-1.1-0.5-2.2-1.1-3.3-1.8c-2.1-1.5-3.3-3.2-3.2-4.7c-0.1-0.8,0.2-1.6,0.8-2.2
	c0.8-0.5,1.9-0.1,3,0.3l0.4,0.2v0.1l-0.5-0.2c-1-0.4-2.1-0.8-2.8-0.3c-0.5,0.3-0.7,1-0.7,2.1c0,3.7,6.3,6.4,6.4,6.4L1397.9,114.2z"
	/>
<path class="st4" d="M1412.8,108.2c-2.3,0-4.6-0.6-6.5-1.9c-0.9-0.6-1.6-1.3-2.2-2.1l0.1-0.1c0,0,2.8,4.2,9.2,3.9v0.2L1412.8,108.2z
	"/>
<path class="st4" d="M1395.4,130.7c0.4,2,2.2,3.3,4.2,2.9c1.2-0.2,2.2-1,2.7-2.2C1402.3,131.4,1398.3,132,1395.4,130.7z"/>
<path class="st24" d="M1405.2,125.8c0,0-0.1,0-0.1,0c-0.9-0.4-2-0.6-3-0.3c-0.1,0-0.2,0-0.3-0.2c0-0.1,0-0.2,0.2-0.2
	c1.1-0.3,2.3-0.1,3.4,0.4c0.1,0,0.1,0.2,0.1,0.3C1405.4,125.8,1405.3,125.9,1405.2,125.8L1405.2,125.8z"/>
<path class="st19" d="M1403.5,149.3c0,0-5.1-1.4-6.4-0.1s-0.1,7.3,2.3,7.7S1405.8,150.6,1403.5,149.3z"/>
<path class="st24" d="M1399.3,157c-1.5,0-2.5-3.1-2.5-3.3l0.2-0.1c0,0,0.9,3.1,2.3,3.1l0,0c1-0.2,1.9-0.7,2.6-1.5l0.2,0.2
	C1401.4,156.3,1400.4,156.8,1399.3,157L1399.3,157z"/>
<path class="st16" d="M1401,236.8c0.4,0.7,1.4,1,2.1,0.6c0,0,0.1-0.1,0.1-0.1c0.8-0.6,1-1.6,0.5-2.4c-0.3-0.8-1.2-1.1-2-0.8
	c-0.1,0-0.1,0-0.2,0.1C1400.7,234.7,1400.4,235.8,1401,236.8C1401,236.7,1401,236.8,1401,236.8z"/>
<path class="st16" d="M1397.7,211.1c0.3,0.8,1.2,1.3,2,1c0,0,0.1,0,0.1,0c0.8-0.4,1.2-1.4,0.9-2.3c-0.3-0.9-1.2-1.5-2-1.1
	C1397.7,209,1397.2,210,1397.7,211.1C1397.6,211,1397.6,211,1397.7,211.1z"/>
<path class="st16" d="M1394.4,185.1c0.3,0.8,1.2,1.3,2,1c0,0,0.1,0,0.1,0c0.8-0.4,1.2-1.4,0.9-2.3c-0.3-0.9-1.2-1.5-2-1.1
	C1394.4,183,1394,184,1394.4,185.1C1394.4,185,1394.4,185,1394.4,185.1z"/>
<path class="st20" d="M1395.4,146.6c-15,0-28.3,9.1-32.4,5c-1-1,4.1-32.8,4.1-32.8l-12.4,0.4c0,0-24,41.2-11.6,54.8
	c15.2,16.6,37.5,6.5,37.5,6.5S1403.1,146.6,1395.4,146.6z"/>
<path class="st21" d="M1389.8,128.4l-30.4-6c-1.6-0.4-2.6-2-2.3-3.6l0.6-3.5c0.2-1.6,1.6-2.7,3.2-2.5c0,0,0.1,0,0.1,0l30.4,6
	c1.6,0.4,2.6,2,2.3,3.6l-0.6,3.5c-0.2,1.6-1.6,2.7-3.2,2.5C1389.9,128.4,1389.8,128.4,1389.8,128.4z"/>
<path class="st16" d="M1370.3,128l-29.3-5.8c-2.1-0.5-3.4-2.6-3-4.7l1.3-7.9c0.3-2.1,2.1-3.5,4.2-3.2c0,0,0.1,0,0.1,0l29.3,5.8
	c2.1,0.5,3.4,2.6,3,4.7l-1.3,7.9c-0.3,2.1-2.2,3.5-4.2,3.2C1370.4,128,1370.4,128,1370.3,128z"/>
<path class="st27" d="M1346.1,125.5l-46.5-9.2c-1.7-0.4-2.8-2.1-2.5-3.8l2.3-13.7c0.2-1.7,1.8-2.9,3.4-2.7c0,0,0.1,0,0.1,0l46.5,9.2
	c1.7,0.4,2.8,2.1,2.5,3.8l-2.3,13.7c-0.2,1.7-1.8,2.9-3.4,2.7C1346.1,125.5,1346.1,125.5,1346.1,125.5z"/>
<path class="st21" d="M1296.7,117.4l-2.3-0.4c-1.3-0.3-2.1-1.6-1.9-2.9l3.2-18.7c0.2-1.3,1.4-2.2,2.7-2c0,0,0,0,0.1,0l2.3,0.4
	c1.3,0.3,2.1,1.6,1.9,2.9l-3.2,18.7C1299.2,116.7,1298,117.6,1296.7,117.4C1296.7,117.4,1296.7,117.4,1296.7,117.4z"/>
<path class="st22" d="M1361.3,106.8c0,0-3.1-1.5-4.4,1.6c-1.6,3.9,0,10.5,1,8c0.6-1.5,1-3.1,1.3-4.7c0,0-1.2,7.8,0.6,7.5
	s2.9-6.7,2.9-6.7s-0.6,7.5,1,6.6s2.4-5.3,2.4-5.3s-0.8,6.1,1.1,5s1.6-5.6,1.8-7.5s-0.7-2.6-2.4-2.8c0,0-1.6-1.2-2.7-1
	c-0.4,0.1-0.8-0.4-1.1-0.5C1362.3,106.9,1361.8,106.8,1361.3,106.8z"/>
<path d="M1412.4,278.5c-0.1,0-0.2-0.1-0.3-0.2c-2.2-5.7-7.1-9.8-13.1-10.9c-0.1,0-0.3-0.2-0.2-0.3c0-0.1,0.2-0.3,0.3-0.2
	c6.1,1.2,11.3,5.4,13.5,11.2c0.1,0.1,0,0.3-0.1,0.4c0,0,0,0,0,0L1412.4,278.5z"/>
<path d="M1370.7,183.5L1370.7,183.5c-0.1,0-0.3-0.1-0.3-0.3c0,0,0,0,0,0c0.1-10.4,0.7-16.7,0.8-16.8c0-0.1,0.2-0.3,0.3-0.2
	c0.1,0,0.3,0.2,0.2,0.3l0,0c0,0.1-0.7,6.4-0.7,16.7C1370.9,183.3,1370.8,183.5,1370.7,183.5C1370.7,183.5,1370.7,183.5,1370.7,183.5
	z"/>
<path class="st16" d="M1400.5,148c0,0,6.5-2.8,7.7-5.4s8.2,2.9,8.2,4.6s-13,12-13.8,10.8S1398.9,149.7,1400.5,148z"/>
<path class="st16" d="M1400.5,148c0,0-1.1-2.6-0.7-4c0,0,0.3-1.3-0.7-1.1s-6.3,4.5-6.7,5.8s-0.3,7.1,1.5,7.5s5.8-6.1,6.3-6.8
	C1400.4,148.9,1400.5,148.5,1400.5,148z"/>
<path class="st22" d="M372.9,420.7c2-3-8.5-13.4-8.5-13.4c-1-0.5-14,18.3-32.8,15.5c-6.7-1-17.4-11.3-18.3-12.9
	c-0.1-0.2-13.2,7.8-13.2,7.8c1.7,3,2.9,14.4,10.9,19.9C327.4,449,352.2,445.8,372.9,420.7z"/>
<path d="M302.1,635c0,0,0.3,5.3,3.6,6.7s13,2.5,9.5,5.9c-2,2-11.7,1-14.5,1.1s-5.3,1.4-7.4-0.5c-2.3-2.1-0.3-13-0.3-13
	c1.4,0.7,2.9,1.1,4.5,1.1C299.2,636.4,300.8,635.9,302.1,635z"/>
<path class="st16" d="M326.3,489.3c0,0,1.7,9.8-4.2,55.6c-4.3,33-9.4,66.4-12,82.3c-0.9,5.7-5.3,10-10.5,10.4l-2.8,0.2
	c-5.7,0.4-10.4-4.7-10.2-11l4.4-107.7l0.9-35.4L326.3,489.3z"/>
<path d="M270.8,635.9c0,0,0.3,5.3,3.6,6.7s13,2.5,9.5,5.9c-2,2-11.7,1-14.5,1.1s-5.3,1.4-7.4-0.5c-2.3-2.1-0.3-13-0.3-13
	c1.4,0.7,2.9,1.1,4.5,1.1C267.9,637.3,269.5,636.8,270.8,635.9z"/>
<path class="st16" d="M295.4,476.3c0,0,1.3,23.7-4.6,69.5c-4.3,33-9.4,66.4-12,82.3c-0.9,5.7-5.3,10-10.5,10.4l-2.8,0.2
	c-5.7,0.4-10.4-4.7-10.2-11l4.5-107.7l0.9-35.4L295.4,476.3z"/>
<path class="st21" d="M257.6,503.4c0.1,2.9,17.6-3.4,37.5-4.6s33.2-8.5,33-11.3s-14.7-1.8-34.6-0.5S257.5,500.6,257.6,503.4z"/>
<path class="st28" d="M249.6,423.1c0,0,1.1-15.5,26.6-20.4c36.9-7.2,39.4,30,51.8,84.8c0,0-37.3,1.2-70.5,15.6
	C257.6,503.1,245.3,447.2,249.6,423.1z"/>
<path class="st28" d="M239.9,422.7l18.3,6.8c0,0,37.2-3.3,46.6-6.9s10.9-11.7,10.9-11.7c-8.9-6.2-19.5-9.5-30.3-9.3
	c-1.8,0-3.5,0.1-5.3,0.3c-3,0.3-6,1-8.9,1.9C249.4,410.7,239.9,422.7,239.9,422.7z"/>
<path class="st22" d="M272.2,399.9l0.8-7.1l0.2-2.1l1.4-12.1L277,390l1.4,6.8l0.4,2.2c0.3,1.5,1.2,1.6,2.4,2.7
	c0.5,0.4,3.6,3.1,0.9,5.1c-3.4,2.5-10.8,1.1-14-1.9C268.1,404.9,271.9,402.2,272.2,399.9z"/>
<path class="st16" d="M326.3,489.3c0,0-16.6-0.9-66.1,14.9l-0.2,7.8l65.5,0.6L326.3,489.3z"/>
<path class="st21" d="M239.6,423.2c-1.1,2.4,1.7,6.3,6.2,8.6s9,2.3,10.1-0.1s-1.7-6.3-6.2-8.6S240.6,420.8,239.6,423.2z"/>
<path class="st22" d="M249,510.6c-1.4-18.5-2.1-45.3,2.6-67.4c0.6-3.4,1.5-6.7,2.6-10c0.8-2.3-2-6.5-5.7-8.1
	c-3.4-1.5-8.2-0.2-8.9,0.9c-1,2-1.9,5.6-3.2,11.3c-4.5,19.8-5.2,44.4-2,75.4L249,510.6z"/>
<path class="st24" d="M280.1,371.2c1.1,1.8,1.7,3.9,2,6c0.5,3.6-5.4-3.4-5.4-3.4L280.1,371.2z"/>
<path class="st22" d="M282.8,378c-3-6.1-9.2-9-13.9-6.3s-6.1,9.8-3.2,15.9s9.2,9,13.9,6.3S285.8,384.1,282.8,378z"/>
<path class="st21" d="M264.4,384.3l4.2-2.2c1-0.5,1.6-1.4,1.8-2.5c0.4-1.9,1.2-3.1,5.4-4.5c5.2-1.8,7.5-6.5,7.1-9.6
	s-3.8-4.2-5.9-1.7s-2.2-1.5-4.8-0.9c-4.9,1.1-4.5,5.4-8.3,6.7c-5.1,1.8-12.7,9.4-5.2,17.3L264.4,384.3z"/>
<path class="st26" d="M274.6,382.1c0-0.1,0-0.1,0-0.2c0-0.1-0.1-0.2-0.2-0.2c0,0,0,0,0,0c-1,0.2-1.7,1.1-1.7,2.1
	c0,0.1,0.1,0.2,0.2,0.2c0.1,0,0.2-0.1,0.2-0.2c0.3-0.7,0.7-1.3,1.4-1.8C274.5,382.2,274.6,382.2,274.6,382.1z"/>
<path class="st26" d="M274.7,385c0.3,0.4,0.7,0.6,1,0.4c0.3-0.3,0.3-0.8,0-1.1c-0.3-0.4-0.7-0.6-1-0.4
	C274.4,384.2,274.4,384.7,274.7,385z"/>
<path class="st26" d="M281.2,378.9c0,0,0.1-0.1,0.1-0.1c0-0.1-0.1-0.2-0.2-0.2c-0.7-0.3-1.5,0.1-1.7,0.8c0,0.1,0,0.1-0.1,0.2
	c0,0.1,0,0.2,0.1,0.3c0.1,0.1,0.1,0.1,0.2,0c0,0,0,0,0,0c0.4-0.5,0.9-0.8,1.5-0.8C281.1,379,281.2,378.9,281.2,378.9z"/>
<path class="st26" d="M280.2,381.6c0.1,0.5,0.5,0.8,0.8,0.7s0.5-0.5,0.4-1s-0.5-0.8-0.8-0.7S280.1,381.1,280.2,381.6z"/>
<path class="st21" d="M258.7,386.9c0,0,5.4,5.8,9.9,4.7c0,0-5.3-4,0.9-10.1C269.5,381.5,262.4,382.9,258.7,386.9z"/>
<path class="st22" d="M266,388.4c1.1,0.3,2.2-0.4,2.4-1.4c0,0,0,0,0,0c0.2-1.1-0.5-2.2-1.6-2.5c-1.1-0.3-2.2,0.4-2.4,1.4
	c0,0,0,0,0,0C264.2,387.1,264.9,388.2,266,388.4z"/>
<path class="st21" d="M269.5,381.5c0,0,1.4,6.1,2.9,6.8s9-1.7,12-4.5l0,0c1.4,3.7,0,7.9-3.3,10.1c-1.1,0.7-2.3,1.1-3.5,1.4l0,0
	c-2.6,0.5-5.3,0.3-7.1-1.7c-0.5-0.6-1.2-5.5-1.2-5.5s-0.6-2.8-2.5-3.6C267.5,383.3,268.4,382.2,269.5,381.5z"/>
<path class="st24" d="M275.6,363.7c-0.5,0-1-0.3-1.3-0.8l0.3-0.1c0.3,0.6,1,0.8,1.6,0.6c0,0,0.1,0,0.1,0l0.1,0.3
	C276.2,363.6,275.9,363.7,275.6,363.7z"/>
<path class="st4" d="M276.7,373l-0.1-0.1c0.9-0.7,1.7-1.5,2.4-2.4c1-1.3,2.2-3.1,1.8-4.7c-0.2-0.9-0.6-1.4-1-1.6
	c-0.7-0.3-1.6,0.4-2.4,0.9l-0.4,0.3l-0.1-0.1l0.4-0.3c0.8-0.6,1.7-1.2,2.5-0.9c0.5,0.2,0.9,0.7,1.1,1.7
	C281.8,369,276.9,372.8,276.7,373z"/>
<path class="st4" d="M262.1,371.6v-0.1c5.6-1.3,7.1-5.6,7.1-5.6h0.1C269.4,365.8,267.8,370.2,262.1,371.6z"/>
<path class="st4" d="M282.8,386.8c-1.6,1-3.4,1.6-5.3,2c0.5,1.3,2,2,3.4,1.5c0.2-0.1,0.3-0.1,0.4-0.2
	C282.9,389.3,282.8,386.8,282.8,386.8z"/>
<path class="st22" d="M242.3,504.5L242.3,504.5c-0.8,1.1-0.7,2.7,0.3,3.6l8.6,7.5c1,0.9,5.6,3.5,6.4,2.4l0,0c0.8-1.1-2-4.8-2.9-5.9
	c-2.1-2.4-5.3-8.1-7.4-10.4C246.4,500.8,243.1,503.4,242.3,504.5z"/>
<path class="st22" d="M233.8,504.4c-1,4.7-1.4,9.6-1.1,14.4c0.1,2.6,16.2,2.9,16.9,0s-2.1-12.1-2.1-12.1L233.8,504.4z"/>
<path class="st22" d="M245.8,510.7c0,0,4-2.8,5.4,2.4c2.3,8.5,0.3,28.9-4.2,6.9c-0.1-0.4,1.9,13.4-1,12.6s-4.1-13.2-4.1-13.2
	s0.9,13.2-1.6,11.5s-4-10.3-4-10.3s1.7,11-1.4,9.4c-2.1-1.1-2.2-10.3-2.4-13.4c-0.2-3,1.6-4.1,4.3-4.1c0,0,2.7-1.7,4.5-1.2
	c0.7,0.2,1.3-0.5,1.8-0.6C244,510.7,244.9,510.6,245.8,510.7z"/>
<path class="st24" d="M289.8,555.1l-0.4,0c0-0.2,2.4-19.6,4.3-26.6s10.3-13.1,10.4-13.2l0.3,0.4c-0.1,0.1-8.4,6-10.2,12.9
	S289.8,554.9,289.8,555.1z"/>
<path class="st22" d="M364.7,415L364.7,415c1.4,0.1,2.5-0.9,2.6-2.3c0,0,0,0,0,0l1.1-11.9c0.1-1.4-0.3-6.9-1.6-7.1l0,0
	c-1.3-0.1-2.7,4.4-3,5.8c-0.7,3.2-3.4,9.2-4.1,12.4C359.5,413.3,363.4,414.9,364.7,415z"/>
<path class="st22" d="M369.2,422.7c4.2-1.7,8.2-4,11.8-6.8c2-1.5-6.6-16.2-9.2-15.2s-8.3,8.5-8.3,8.5L369.2,422.7z"/>
<path class="st22" d="M367.5,408.5c0,0-4.4-2.1-1.1-6.2c5.4-6.7,22.4-16,7.6,0c-0.3,0.3,9.4-9,10.4-6s-8,10.9-8,10.9s9.8-8,9.8-4.9
	s-5.8,9.2-5.8,9.2s7.6-7.6,8.1-3.9c0.3,2.5-6.8,7.6-9.1,9.5s-4.1,0.8-5.5-1.6c0,0-2.8-1.5-3.4-3.4c-0.2-0.7-1.1-0.9-1.5-1.3
	C368.6,410,368,409.3,367.5,408.5z"/>
<path d="M1713.9,645.4c0,0-13-71.8-15-73.9s-5.1-0.2-4,3.7s16.2,68.7,16.8,70.2S1714.3,647.5,1713.9,645.4z"/>
<path class="st29" d="M1631,551.4c-0.1-12.8,29.3-51.3,44.6-56.1c17.3-5.4,39.6-15.3,46.1,2.5s-15.3,72.8-15.3,72.8
	s-1.2,4.9-5.7,5.4s-59,2.5-59.1,0C1641.5,574.5,1623.3,554,1631,551.4z"/>
<path class="st22" d="M1639.2,465.5c0,0-20.4,34.2-47.5,42.3l4.9,11.8c0,0,34.5-5.1,54.2-40.9L1639.2,465.5z"/>
<path class="st21" d="M1618.1,637c0,0,0.2,5.5-3.2,7.3s-13.4,3.8-9.4,7.1c2.3,1.9,12.4,0,15.2-0.2s5.6,1,7.7-1.2
	c2.2-2.4-0.7-13.6-0.7-13.6c-1.4,0.9-3,1.4-4.7,1.5C1621.3,638.1,1619.6,637.8,1618.1,637z"/>
<path class="st21" d="M1582.8,637c0,0,0.2,5.5-3.2,7.3s-13.4,3.8-9.4,7.1c2.3,1.9,12.4,0,15.2-0.2s5.6,1,7.7-1.2
	c2.2-2.4-0.7-13.6-0.7-13.6c-1.4,0.9-3,1.4-4.6,1.6C1586,638.1,1584.3,637.8,1582.8,637z"/>
<path class="st30" d="M1579.1,627.8c2.5-36.3,3.1-60.8,13.8-76.5c11.7-17.2,43-29.4,55-30.2c19.7-1.2,28.9,1.9,28.9,1.9
	c14.8,33.1-8.4,37.5-25.5,38.3l-1.7,0.1c-10.4,0.7-28.8,3.5-35.8,14.6c-5.5,8.8-9.3,21.1-11,52.9c-0.3,6.1-5.1,10.8-10.7,10.7
	C1592.2,639.7,1578.2,640.8,1579.1,627.8z"/>
<path class="st30" d="M1607,629.7c-0.3-36.4-1.4-55,8.8-71.1c6.5-10.4,16.3-18.2,29.1-23.2c9.1-3.6,19.9-5.8,32-6.6
	c19.7-1.2,28.5-3.8,28.5-3.8c15.9,42.3-42.3,33.3-57.5,51.4c-6.6,7.9-14.8,22.8-16.4,54.6c-0.3,6.1-5.1,10.8-10.7,10.7
	C1620.7,641.6,1607.1,643,1607,629.7z"/>
<path class="st21" d="M1607.1,593.9c0-0.2,1-21.8,4.4-29.3c4.3-9.5,16.6-19.5,29.3-23.7l-0.1-0.2c-12.8,4.2-25.2,14.2-29.5,23.8
	c-3.4,7.6-4.4,29.2-4.4,29.4L1607.1,593.9z"/>
<path class="st31" d="M1691.4,457.8c0,0-8.4-15.4-27.7-10.7s-27.2,25.9-28.5,76.9c0,0,17.9-0.7,64.8,16c5.6,2,13.7,0.4,10.9-9.8
	C1705.5,511.3,1700.4,473.5,1691.4,457.8z"/>
<path class="st31" d="M1708.4,462l-15.7,4.3c0,0-34.7,11-44.4,11.1c-5.6,0.1-10.9-2.8-13.7-7.6c5.7-9.4,14.2-16.7,24.3-21.1
	c1.6-0.7,3.2-1.2,4.8-1.7c2.8-0.9,5.7-1.4,8.6-1.6C1705.1,445.1,1708.4,462,1708.4,462z"/>
<path class="st21" d="M1708.4,462c0,1.8-4.8,3.1-10.6,3.1s-10.5-1.4-10.4-3.2s4.8-3.1,10.6-3.1S1708.5,460.3,1708.4,462z"/>
<path class="st22" d="M1680,445.8c-2.1-0.5-3.7-2.1-4.2-4.2l-2-6.8l-0.6-2l-3.5-11.7l-0.3,11.7l-0.2,7v2c0,1.6-0.1,3.7-1.7,4.3
	c0,0-2,3.8,0.4,4.8C1671.6,452.5,1680,445.8,1680,445.8z"/>
<path class="st21" d="M1685.1,422.4c0,0-0.9,1.7-0.8,5.8c0,6-6.4,6.5-7.5,4.5c-0.1-0.3,2.5-9.6,2.5-9.6l2.2-0.6L1685.1,422.4z"/>
<path class="st21" d="M1673.7,434.6c0,0.1,0,0.1,0,0.2c-0.6,3.7-4.5,5.1-4.5,5.1l0,0l0.2-7c1.2-0.3,2.8-0.6,3.7,0
	C1673.7,433.3,1673.9,433.9,1673.7,434.6z"/>
<path class="st22" d="M1662.1,419.5c1.8-7.2,7.7-11.7,13.1-10.1s8.3,8.7,6.5,15.9s-7.7,11.7-13.1,10.1S1660.3,426.7,1662.1,419.5z"
	/>
<path class="st21" d="M1670.6,411.2c0.2,0.5-3.1,6.7,8,11.7s8-12.1-0.4-15c-12.2-4.1-16.2,4.3-15.8,7.8S1670.6,411.2,1670.6,411.2z"
	/>
<path class="st21" d="M1687.9,407.7c0,0-4.9,1.8-2.4,5.5s11,7.6,7.4,11.7s-7.5,10.5-3.4,12.7s6.9,2.6,7.7,6.8s9.3,4.3,9.7-0.4
	s8.2-6.5,6.3-11.4s-8-10.5-8.4-16.3S1691.8,406.4,1687.9,407.7z"/>
<path class="st24" d="M1677.9,420.5c0,0,3.3,6.7,0.3,11.7c0,0,3.6-2.4,3.9-3.6c0.4-1.9,0.6-3.8,0.7-5.7L1677.9,420.5z"/>
<path class="st22" d="M1679.9,426.9c-1.4,0.8-3,0.5-3.5-0.8c-0.5-1.4,0.2-3,1.5-3.7c1.4-0.8,3-0.5,3.5,0.8
	C1681.9,424.6,1681.2,426.2,1679.9,426.9z"/>
<path class="st4" d="M1703.8,447.8l0.2-0.3c-0.7-0.5-1.3-1.2-1.4-2.1c-0.1-1.1,0.8-2.1,1.8-3.1c1-0.9,1.7-2,2-3.3
	c0.2-1.6-1.5-2.4-3.1-3.2c-1.2-0.6-2.5-1.3-2.8-2.2c-0.1-0.5,0-1,0.2-1.5c0.4-0.7,0.7-1.3,1.1-1.8c1.7-2.6,3-4.6,0.2-11
	c-3.6-8.1-7.9-9.7-12-10.3c-0.5-0.1-2.1,0.2-2.3,1.1s1,1.9,3.6,3c2.8,1.9,4.7,5,5.1,8.4c0.4,3.1-1.9,5.5-3.9,7.6
	c-1.9,2-3.6,3.7-2,5.3c0.8,0.8,1.8,1.5,2.8,2.1c2.4,1.5,4.7,3,3.8,7.9l0.3,0.1c0.9-5.1-1.4-6.6-4-8.2c-1-0.6-1.9-1.2-2.7-2
	c-1.3-1.3,0.2-2.9,2-4.8c2-2.1,4.5-4.7,4-7.9c-0.4-3.5-2.4-6.7-5.3-8.7c-3.3-1.5-3.4-2.3-3.4-2.6c0.2-0.6,1.4-0.9,1.9-0.8
	c4,0.5,8.2,2.1,11.8,10c2.8,6.2,1.5,8.2-0.1,10.7c-0.4,0.6-0.8,1.2-1.1,1.9c-0.3,0.5-0.4,1.1-0.3,1.7c0.3,1.1,1.7,1.8,2.9,2.4
	c1.6,0.8,3,1.5,2.9,2.9c-0.3,1.2-1,2.3-1.9,3.1c-1,1.1-2,2.1-1.9,3.4C1702.4,446.5,1703,447.3,1703.8,447.8z"/>
<path class="st4" d="M1679.7,419l0.1-0.4c-2.6-1-4.6-3.1-5.4-5.7l-0.4,0.1C1674,413,1675.3,417.6,1679.7,419z"/>
<path class="st21" d="M1661.8,428.2c-0.8-0.2-1.4-0.7-1.9-1.4c-0.9-1.2-1.3-2.7-1.1-4.2c0.3-2.9,2.3-5.1,4.6-4.9
	c1,0.1,2,0.7,2.6,1.5c0.9,1.2,1.3,2.7,1.1,4.2c-0.3,2.9-2.3,5.1-4.6,4.9C1662.2,428.3,1662,428.3,1661.8,428.2z M1663.9,418.1
	c-0.2-0.1-0.4-0.1-0.6-0.1c-2.2-0.2-4.1,1.9-4.3,4.7c-0.1,1.4,0.2,2.8,1.1,4c0.6,0.8,1.4,1.3,2.4,1.4c2.2,0.2,4.1-1.9,4.3-4.7
	c0.1-1.4-0.2-2.8-1.1-4C1665.3,418.8,1664.6,418.4,1663.9,418.1L1663.9,418.1z"/>
<path class="st21" d="M1671.7,429.6c-0.8-0.2-1.4-0.7-1.9-1.4c-0.9-1.2-1.3-2.7-1.1-4.2c0.3-2.9,2.3-5.1,4.6-4.9
	c1,0.1,2,0.7,2.6,1.5c0.9,1.2,1.3,2.7,1.1,4.2l0,0c-0.3,2.9-2.3,5.1-4.6,4.9C1672.1,429.7,1671.9,429.7,1671.7,429.6z M1673.8,419.5
	c-0.2-0.1-0.4-0.1-0.6-0.1c-2.2-0.2-4.1,1.9-4.3,4.7c-0.1,1.4,0.2,2.8,1.1,4c0.6,0.8,1.4,1.3,2.4,1.4c2.2,0.2,4.1-1.9,4.3-4.7l0,0
	c0.1-1.4-0.2-2.8-1.1-4C1675.1,420.2,1674.5,419.7,1673.8,419.5z"/>
<path class="st21" d="M1665.8,423.6C1665.7,423.6,1665.7,423.5,1665.8,423.6c-0.1-0.1-0.1-0.2,0-0.3c1.2-0.4,2.6-0.2,3.7,0.4
	c0.1,0,0.1,0.1,0.1,0.2c0,0.1-0.1,0.1-0.2,0.1c0,0,0,0,0,0C1668.3,423.4,1667,423.2,1665.8,423.6L1665.8,423.6z"/>
<path class="st32" d="M1664.3,429.2c2.3,0.7,4.6,0.9,7,0.8c-0.3,1.9-2,3.2-3.9,2.9c-0.1,0-0.3-0.1-0.4-0.1
	C1664.9,432.3,1664.3,429.2,1664.3,429.2z"/>
<path class="st4" d="M1664.3,429.2c0.6,0.8,1.5,1.3,2.5,1.5c1.9,0.5,4.5-0.7,4.5-0.7C1669,430,1666.6,429.7,1664.3,429.2z"/>
<path d="M1670.9,422.2c-0.1,0-0.1-0.1-0.1-0.2c0-0.1,0.1-0.3,0.2-0.3c1.2-0.2,2.3,0.4,2.7,1.5c0.1,0.1,0,0.3-0.1,0.3
	c-0.1,0.1-0.2,0-0.3-0.1c-0.6-0.7-1.4-1.1-2.3-1.3C1671,422.3,1671,422.2,1670.9,422.2z"/>
<path d="M1672,425.4c-0.1,0.6-0.6,1-0.9,0.9s-0.6-0.6-0.5-1.2s0.6-1,0.9-0.9S1672.1,424.8,1672,425.4z"/>
<path d="M1662.6,421.1c-0.1,0-0.1-0.1-0.2-0.1c-0.1-0.1,0-0.3,0.1-0.3c1-0.7,2.2-0.5,3.1,0.3c0.1,0.1,0.1,0.3,0,0.4
	c-0.1,0.1-0.2,0.1-0.3,0C1664.5,420.9,1663.6,420.8,1662.6,421.1C1662.7,421.1,1662.7,421.1,1662.6,421.1z"/>
<path d="M1664.8,423.6c0.1,0.6-0.2,1.1-0.6,1.2s-0.8-0.4-0.9-0.9s0.2-1.1,0.6-1.2S1664.7,423,1664.8,423.6z"/>
<path d="M1636,654.5l0.6-0.1c0.5,0,0.9-0.9,0.8-2l-4.9-131l-9.4-5l11.4,135.4C1634.6,653.4,1635.2,654.6,1636,654.5z"/>
<path d="M1493.2,654.5l-0.6-0.1c-0.5,0-0.9-0.9-0.8-2l4.9-131l9.4-5l-11.4,135.4C1494.6,653.4,1493.9,654.6,1493.2,654.5z"/>
<ellipse class="st33" cx="1568.4" cy="527.7" rx="85.3" ry="11.9"/>
<rect x="1483.2" y="522.2" class="st34" width="170.5" height="5.5"/>
<ellipse class="st35" cx="1568.4" cy="522.2" rx="85.3" ry="11.9"/>
<path class="st21" d="M1507.4,530.8c0.2,0,0.3-0.1,0.3-0.3c0-0.2-0.1-0.3-0.3-0.3c-5.7-0.7-11.4-1.9-16.9-3.5
	c-0.2-0.1-0.3,0-0.4,0.2c-0.1,0.2,0,0.3,0.2,0.4c5.6,1.6,11.3,2.8,17,3.5L1507.4,530.8z"/>
<path class="st21" d="M1639.2,529.1L1639.2,529.1c0.4-0.1,8.5-1.8,11.7-3.5c0.2-0.1,0.2-0.3,0.1-0.4c-0.1-0.2-0.3-0.2-0.4-0.1l0,0
	c-3.1,1.7-11.3,3.5-11.4,3.5c-0.2,0-0.3,0.2-0.3,0.3S1639,529.2,1639.2,529.1L1639.2,529.1z"/>
<path class="st22" d="M1643.3,509.8c0,0-10.2-4.1-13.6-2.6s-6.7,6.2-4.4,5.7c1.8-0.4,3.5-1.1,5.1-1.9c0,0-5.8,3.4-4.5,4.5
	s6.3-1.9,6.3-1.9s-6.6,4.6-5,5.2s6.6-2.9,6.6-2.9s-6,4.6-4.1,5.2s4.9-3.8,6.2-2.7s4.6,6.1,7.9,2.5L1643.3,509.8z"/>
<path class="st22" d="M1685.3,510.4c-11.6,11-23,13.1-41.6,10.6l-0.4-11.2c13.5,1.8,23-6,30.8-13.3c11.1-10.5,14.3-26.6,15.3-33.9
	c0.1-0.7,0.5-1.3,1.1-1.5c2-0.8,7.1-2.1,14.7,0.3c0.7,0.2,1.1,0.9,1.1,1.7C1705.7,476.9,1700,496.6,1685.3,510.4z"/>
<g class="st36">
	<path class="st22" d="M1681.5,505.8c-1.2-1.1-1.1-3.4,0.3-5.1c0.7-1,1.7-1.6,2.9-1.7c0.7-0.1,1.3,0.1,1.8,0.6
		c1.2,1.1,1.1,3.4-0.3,5.1l0,0c-0.7,1-1.7,1.6-2.9,1.7h-0.2C1682.5,506.4,1681.9,506.2,1681.5,505.8z M1684.8,499.6
		c-1,0.1-1.9,0.7-2.4,1.5c-1.2,1.5-1.3,3.4-0.4,4.2c0.4,0.3,0.8,0.5,1.3,0.4c1-0.1,1.9-0.7,2.4-1.5l0,0c1.2-1.5,1.3-3.4,0.4-4.2
		c-0.3-0.3-0.7-0.4-1.1-0.4L1684.8,499.6z"/>
</g>
<path class="st21" d="M1623.4,522.9h-34.8c-0.8,0-1.4-0.5-1.6-1.2l-7.2-23.3c-0.3-0.9,0.2-2,1.1-2.3c0.2-0.1,0.3-0.1,0.5-0.1h33.5
	c1.6,0,2.9,1.1,3.4,2.6l6.8,21.9c0.3,0.9-0.2,2-1.1,2.3C1623.8,522.9,1623.6,522.9,1623.4,522.9z"/>
<path class="st21" d="M1621.2,522.9h-34.8c-0.8,0-1.4-0.5-1.6-1.2l-7.2-23.3c-0.3-0.9,0.2-2,1.1-2.3c0.2-0.1,0.3-0.1,0.5-0.1h33.5
	c1.6,0,2.9,1.1,3.4,2.6l6.8,21.9c0.3,0.9-0.2,2-1.1,2.3C1621.6,522.9,1621.4,522.9,1621.2,522.9z"/>
<path class="st37" d="M1596.9,508.7c0-0.9,0.9-1.2,1.8-1.2c1.2,0.1,2.1,1,2.2,2.2c0,1.3-1,1.5-1.8,1.5
	C1597.8,510.9,1597,509.9,1596.9,508.7z"/>
<path class="st21" d="M1633.9,519.6h-47.4v3.3h48.5c0.6,0,1.1-0.5,1.1-1.1l0,0C1636.1,520.6,1635.1,519.6,1633.9,519.6L1633.9,519.6
	z"/>
<path class="st21" d="M1618.8,507.8l0.2-0.1c-0.1-0.3-1.7-7-2.8-9.2c-0.5-1.2-1.4-2.1-2.6-2.6l-0.1,0.2c1.1,0.5,2,1.4,2.4,2.5
	C1617,500.8,1618.7,507.7,1618.8,507.8z"/>
<path class="st21" d="M1623.9,519.8v-0.2c-1.1,0-1.4-0.5-1.4-0.5l-2.7-8.7l-0.2,0.1l2.7,8.7C1622.3,519.1,1622.6,519.8,1623.9,519.8
	z"/>
<path class="st4" d="M747.7,406.6v4.6h-42v-4.6H747.7z M745.8,389.7v4.6h-11.5l3,0.9c-0.5,1.4-1.1,2.8-1.8,4.1
	c-0.3,0.5-0.5,1-0.8,1.4c1.6-0.1,3.2-0.2,4.6-0.4c-0.6-0.8-1.1-1.5-1.6-2.3l4.2-2.6c2,2.4,3.7,5.1,5.1,7.9l-4.6,2.7
	c-0.3-0.6-0.5-1.1-0.8-1.6c-4.2,0.7-8.8,1.3-13.7,1.8l-0.9-4.9c0.6,0,1.3,0,1.9-0.1c0.5-0.9,0.9-1.8,1.4-2.8c0.6-1.3,1.1-2.6,1.5-4
	h-16.6l3,0.9c-0.6,1.5-1.4,2.9-2.3,4.2c-0.2,0.4-0.5,0.7-0.7,1c1.6-0.1,3-0.3,4.4-0.4c-0.4-0.7-0.8-1.3-1.1-1.9l4.2-2.5
	c1.7,2.5,3.1,5.1,4.2,7.9l-4.6,2.7c-0.3-0.8-0.6-1.5-0.8-2.2c-4.3,0.9-8.9,1.6-13.9,2.2l-0.9-5.1c1,0,2-0.1,2.9-0.2
	c0.4-0.8,0.8-1.5,1.2-2.4c0.6-1.4,1.2-2.8,1.7-4.2h-5.1v-4.6L745.8,389.7z M743.2,431h-5.3v-1.7h-22.2v1.7h-5.3v-18.4h32.8V431z
	 M737.9,418.9v-1.8h-22.2v1.8H737.9z M737.9,424.9v-1.8h-22.2v1.9L737.9,424.9z"/>
<path class="st4" d="M779.4,394.3c-2.6,0.6-5.4,1.1-8.3,1.5v9.4h11.4v-15.8h5.5v15.8h9v5.3h-9v20.4h-5.5v-20.4H771
	c-0.1,4.2-1.4,8.3-3.6,11.8c-2.1,3.5-5,6.4-8.3,8.7l-2.9-4.8c3-2.1,5.4-4.8,7.1-8c1.2-2.4,2-5.1,2.2-7.8h-10.4v-5.3h10.5v-8.6
	c-2,0.3-4,0.5-6.1,0.7l-1.8-5.1c6.5-0.6,12.9-1.5,19.3-2.8L779.4,394.3z"/>
<path class="st4" d="M813.3,399.8l-3.5,4.4c-1.7-1.8-3.5-3.5-5.5-4.9l3.5-3.7C809.8,396.8,811.6,398.2,813.3,399.8z M822.6,418.5
	v-2.2h5.3v2.2h18.5v5.1h-18.5v7.6h-5.3v-7.6h-18.2v-5.1H822.6z M817,405.8c-2,3.9-4.5,7.6-7.5,10.9l-4.4-3.9
	c2.9-2.9,5.4-6.1,7.3-9.7L817,405.8z M816.6,392.3l-3.5,4.4c-1.8-1.8-3.8-3.5-5.9-4.9l3.5-3.7C812.8,389.3,814.8,390.7,816.6,392.3
	L816.6,392.3z M826.1,389.7c-0.4,0.9-0.7,1.7-1,2.4h5.3c0.6-1.3,1-2.6,1.3-4l5.3,1.1c-0.4,1-0.8,2-1.1,3h9v4.7h-9.7v1.6h8.1v4.6
	h-8.1v1.6h8.3v4.6h-8.3v1.6h9.7v4.7h-26.2v-12.7c-0.4,0.5-0.7,0.9-1.1,1.3l-4.2-3.1c1.6-1.9,3-4,4.2-6.1c1.3-2.3,2.4-4.6,3.3-7.1
	L826.1,389.7z M830.1,396.9h-6.2v1.6h6.3L830.1,396.9z M830.1,403.1h-6.2v1.6h6.3L830.1,403.1z M830.1,409.4h-6.2v1.6h6.3
	L830.1,409.4z"/>
<path class="st4" d="M861.5,391.6v-3h5.2v3h7.5v4.9h-7.5v2h7.1v6.1c1.7-5.2,3.1-10.4,4.2-15.8l5.1,1.3c-0.4,1.8-0.8,3.5-1.2,5.1H896
	v3.9c-1.1,2.9-2.6,5.6-4.4,8.1l-4-2.6c0.8-1.4,1.5-2.9,2.2-4.4h-3c-0.1,3-0.3,5.7-0.6,8.2c0.8,3.3,1.9,6.4,3.5,9.4
	c1.5,3.1,3.7,5.9,6.3,8.1l-3.8,5c-2.3-2.5-4.2-5.4-5.7-8.5c-0.8-1.6-1.5-3.2-2.1-4.9c-0.3,0.9-0.5,1.6-0.8,2.3
	c-1.7,4.4-4.4,8.3-7.8,11.5l-3.3-4.4c3-2.9,5.3-6.5,6.7-10.4c1.4-3.7,2.3-9.1,2.5-16.2h-1.2c-0.8,3-1.7,5.7-2.5,8.1l-4.2-1.3v10.4
	h-7.1v2.4h7.4v4.8h-7.3v6.4h-5.2v-6.4h-7.9v-4.8h7.9v-2.4H854v-18.9h7.5v-2h-7.9v-4.9L861.5,391.6z M861.7,405.7v-2.4h-2.6v2.4
	H861.7z M861.7,412.7v-2.2h-2.6v2.2H861.7z M866.3,405.7h2.4v-2.4h-2.4V405.7z M866.3,412.7h2.4v-2.2h-2.4V412.7z"/>
<path class="st4" d="M920,400.7h1.6v7h-2.2v17c0,3.9-1.8,5.9-5.3,5.9c-0.7,0-1.5-0.1-2.2-0.2l-1.1-5.1c1.1,0.3,2.2,0.5,3.3,0.5
	c0.3,0,0.5-0.8,0.5-2.4v-0.5h-5.3v7.9h-4.8v-23.1h-2.2v-7h1.5V389H920V400.7z M916.9,407v-1.6h-9.7v1.6H916.9z M909.9,400.8v-6.1
	h5.3v-1.1h-6.6v7.1L909.9,400.8z M914.6,413.2v-1.6h-5.3v1.6H914.6z M914.6,418.9v-1.6h-5.3v1.6H914.6z M915.2,400.7v-2h-1.5v2
	H915.2z M943.6,413.4v9.9h-5l2.1,0.7c-0.1,0.7-0.3,1.3-0.5,2h5.3v4.6h-24.2V426h4.7c-0.2-0.7-0.4-1.3-0.6-1.8l3-0.9h-5.2v-9.9
	L943.6,413.4z M944.7,408.1v4.4h-22.9V408L944.7,408.1z M928.6,391v-2.4h4v2.4h1.5v-2.4h4v2.4h6.3v16h-22v-16H928.6z M928.6,397.1
	v-1.8H927v1.8H928.6z M928.6,402.7v-1.8H927v1.8H928.6z M938.7,419.1v-1.5H928v1.5H938.7z M934.8,426.1c0-0.2,0.1-0.4,0.2-0.6
	c0.2-0.8,0.4-1.5,0.6-2.2h-5.1c0.3,0.9,0.6,1.8,0.9,2.7H934.8z M932.6,397.1h1.5v-1.8h-1.5V397.1z M932.6,402.8h1.5v-1.8h-1.5V402.8
	z M938.1,397.1h1.6v-1.8h-1.6V397.1z M938.1,402.8h1.6v-1.8h-1.6V402.8z"/>
<path class="st4" d="M992.3,391.8v5.3h-16.2v26.4h18v5.4h-41.5v-5.4h17.8v-26.4h-16v-5.3H992.3z"/>
<path class="st4" d="M1019.7,392.6c-1.9,0.9-3.9,1.7-5.9,2.4v6.3h5.7v5.1h-5.7v0.3c2.3,2,4.4,4.2,6.4,6.5l-3.3,4.6
	c-1-1.6-2.1-3.1-3.1-4.4v17.4h-5.3v-15.5c-1.2,2.5-2.7,4.8-4.4,7l-3.1-3.9c1.7-2.1,3.3-4.4,4.5-6.9c1-1.7,1.8-3.5,2.5-5.3h-5.9v-5.1
	h6.4v-4.6c-1.4,0.4-2.8,0.8-4.2,1.1l-2.6-4.8c5.1-1,10.1-2.5,14.9-4.6L1019.7,392.6z M1043.2,410.4c-2.8,0.4-5.8,0.8-8.8,1.2v4.3h8
	v5h-8v4.4h9.2v4.9h-24.8v-4.9h10.3v-4.4h-8.6v-5h8.6v-3.8c-2.6,0.3-5.2,0.5-7.9,0.7l-1.8-5c7.7-0.5,14.9-1.2,21.5-2.2L1043.2,410.4z
	 M1042.5,389.4v14.8h-21.8v-14.8H1042.5z M1037.1,399.3v-5H1026v5H1037.1z"/>
<path class="st4" d="M1062.4,389.9c-0.4,0.9-0.8,1.8-1.1,2.5h6.8v15.4h-11.6v3h11.9v18.7h-5.1V427h-6.8v3.9h-5.1v-38.4h4.2
	c0.5-1.3,0.9-2.7,1.3-4.2L1062.4,389.9z M1063,402.9v-5.5h-6.4v5.5H1063z M1063.4,421.8v-6.1h-6.8v6.1H1063.4z M1093.1,390.2v5.2
	h-9.3v4.9h9v18c0,4.3-2,6.4-6.1,6.4c-0.8,0-1.5-0.2-2.2-0.6l-0.7-3.6v10.2h-5.2v-25.3h-3.1v19.3h-5.3v-24.4h8.4v-4.9h-8.6v-5.2
	L1093.1,390.2z M1083.8,418.9c0.9,0.4,1.9,0.7,2.9,0.7c0.5,0,0.8-0.9,0.8-2.5v-11.5h-3.7V418.9z"/>
<path class="st20" d="M452,422v5h-36.4v-5H452z M450,392.5v5h-32.3v-5H450z M448.1,406.8v5h-28.7v-5H448.1z"/>
<path class="st20" d="M469.9,404c1.1,1.5,2,3.1,2.7,4.8c0.7,1.9,1.2,3.9,1.2,6c-0.1,4.7-2,7.1-5.9,7.1h-1.9l-0.9-4V429h-4.9v-38.2
	h14.1L469.9,404z M467.9,395.5h-2.6v8.5L467.9,395.5z M468,416.9c0.6,0,1-0.7,1-2.2c0-1.5-0.3-3-0.9-4.4c-0.7-1.7-1.6-3.3-2.8-4.7
	v10.8C466.2,416.7,467.1,416.9,468,416.9L468,416.9z M479.9,390.2v4h5.4v4.6h-5.4v3.6c1.7-0.4,3.3-0.9,4.9-1.3l0.7,3.9
	c-3.5,1.4-7.1,2.5-10.8,3.4l-1.5-4.5l2-0.4v-13.3L479.9,390.2z M488,407.7c-0.2,0.6-0.4,1.3-0.7,1.9h9.9v19.4h-4.7v-1h-13v1.1h-4.7
	v-19.5h7.3c0,0,0-0.1,0-0.1c0.3-1,0.6-1.9,0.7-2.9L488,407.7z M492.6,416.3V414h-13v2.2L492.6,416.3z M492.6,423.2v-2.4h-13v2.4
	H492.6z M491,390.2v3.8c1.6-0.8,3.1-1.7,4.5-2.7l2.9,4c-2.4,1.3-4.9,2.5-7.4,3.4v2.8c0,1,0.2,1.5,0.7,1.6c0.3,0.1,0.6,0.1,0.9,0.1
	c0.5,0,1,0,1.5-0.1c0.2-0.2,0.3-0.5,0.3-0.9c0-0.2,0.1-1,0.2-2.2l4.5,2.5c-0.2,2.3-0.6,3.7-1.1,4.3c-0.5,0.3-1,0.5-1.6,0.6
	c-1.2,0.2-2.5,0.3-3.8,0.2c-1,0-1.9-0.1-2.8-0.2c-2.3-0.1-3.5-1.5-3.5-4.4v-13L491,390.2z"/>
<path class="st20" d="M523.3,394c-3.7,1.2-7.5,2.1-11.3,2.6v2.8h9.3v4.6H512v3.8h9.3v4.6H512v4.2c3.5-0.4,6.8-0.9,10-1.4l0.7,4.2
	c-3.3,0.8-6.8,1.4-10.6,2v7.5h-4.9v-6.8c-0.4,0.1-0.8,0.1-1.2,0.2l-1.7-4.9c1-0.1,1.9-0.2,2.8-0.3v-24.5c4.2-0.5,8.3-1.5,12.3-2.9
	L523.3,394z M541.8,407.7v3.5c-1.2,3.4-3,6.5-5.3,9.3c2.5,1.5,5.2,2.7,8,3.5l-2.5,4.9c-3.3-1.1-6.4-2.8-9.2-4.9
	c-3.1,2.4-6.6,4.2-10.3,5.3l-2.4-4.6c3.3-0.8,6.4-2.1,9.2-4c-2.2-2.5-4-5.3-5.3-8.4h-1.5v-4.5L541.8,407.7z M537.8,391v9.6
	c0,1.1,0,1.7,0.2,1.8s0.3,0.1,0.6,0.1c0.2,0,0.5,0,0.7-0.1c0.2-0.1,0.3-0.2,0.4-0.4c0.3-1.4,0.4-2.8,0.3-4.2l4.5,1.5
	c-0.2,3.1-0.7,5.1-1.3,6c-0.5,0.5-1.1,0.8-1.8,0.9c-0.9,0.2-1.9,0.3-2.8,0.2c-1,0.1-2.1,0-3.1-0.2c-1.6-0.1-2.4-1.5-2.4-4.3v-6.3
	h-3.5v2.4c0,1.8-0.4,3.6-1.2,5.3c-0.6,1.4-1.4,2.8-2.4,4l-4-2.9c0.9-0.9,1.6-1.9,2.2-3c0.4-1.1,0.7-2.2,0.7-3.4V391H537.8L537.8,391
	z M532.8,417.5c1.4-1.6,2.6-3.4,3.5-5.3h-7.4C529.9,414.2,531.2,416,532.8,417.5L532.8,417.5z"/>
<path class="st20" d="M559.3,397.5v-6.7h5v6.7h10.1v-6.7h5v6.7h6.9v4.9h-6.9v9.8h8.6v4.9h-37v-4.9h8.2v-9.8h-6.7v-4.9H559.3z
	 M565.7,420.1c-2.8,3.4-6.1,6.3-9.8,8.8l-4.3-3.7c3.6-2.1,6.8-4.7,9.6-7.8L565.7,420.1z M574.5,412.2v-9.8h-10.1v9.8H574.5z
	 M587.3,425.4l-4.4,3.5c-2.9-3.1-6-6-9.3-8.6l4.2-2.9C581.2,419.8,584.3,422.5,587.3,425.4L587.3,425.4z"/>
<path class="st20" d="M612.7,390.8c0,2.2-0.1,4.2-0.1,6.1h11.4v22.9c0,1.4,0.2,2.2,0.7,2.2c0.5,0.1,1,0.1,1.5,0.1
	c0.5,0,0.9,0,1.4-0.2c0.3-0.1,0.5-0.3,0.7-0.6c0.3-0.4,0.5-2.5,0.6-6.1l5.6,2c-0.3,4.2-0.9,6.9-1.8,8.1c-0.7,0.6-1.6,1-2.5,1.2
	c-1.3,0.2-2.6,0.3-3.9,0.3c-1.4,0.1-2.8,0-4.2-0.3c-2.3-0.2-3.4-1.9-3.4-5.3v-19.3h-6.3c-0.6,7.6-1.8,12.9-3.6,15.8
	c-2.6,4.4-6.2,8.1-10.5,10.8l-2.9-4.4c3.7-2.4,6.8-5.6,9-9.5c1.4-2.5,2.4-6.8,2.9-12.7h-9.7v-5h10c0-1.9,0.1-3.9,0.1-6.1
	L612.7,390.8z"/>
<path class="st20" d="M649.6,408.5v12.1c1.8,1.5,4.1,2.4,6.5,2.5c1.8,0.4,6.3,0.6,13.4,0.6c3.6,0.1,7.2-0.2,10.8-0.9
	c-0.9,1.8-1.7,3.6-2.2,5.6H665c-3.8,0.1-7.5-0.3-11.2-1.1c-2.2-0.7-4.3-1.8-6-3.4c-1.5,1.4-3,2.9-4.5,4.4c-1-1.7-2-3.2-3-4.7
	c1.6-0.6,3.2-1.3,4.7-2v-8.4h-4v-4.6L649.6,408.5z M650,402.4l-3.5,4.4c-1.8-1.5-3.7-2.9-5.7-4l3.7-3.7
	C646.4,400,648.3,401.1,650,402.4L650,402.4z M651.8,394.2l-3.5,4.4c-1.7-1.6-3.5-3-5.4-4.2l3.7-3.7
	C648.5,391.7,650.2,392.8,651.8,394.2L651.8,394.2z M677.3,390.5v27.3c0,3.7-1.8,5.6-5.2,5.6c-1,0-1.9-0.1-2.9-0.3l-1-4.7
	c0.9,0.4,2,0.6,3,0.6c1,0,1.5-1,1.5-3v-21h-15.1v11c0,3-0.3,6-0.8,9c-0.4,2.4-1.1,4.8-2,7.1l-4.2-2.5c0.9-2.5,1.5-5.2,2-7.8
	c0.3-2.7,0.5-5.4,0.5-8.1v-13L677.3,390.5L677.3,390.5z M663,397.4v-1.9h4.2v1.9h4.3v3.9h-4.3v2h5v3.9h-13.8v-3.9h4.6v-2h-3.9v-3.9
	H663z M671.8,417.6H663v1.7h-3.9v-10.6h12.6V417.6z M667.8,414v-1.9H663v1.9H667.8z"/>
<path class="st38" d="M744.7,405v4.6h-42V405H744.7z M742.9,388.1v4.6h-11.5l3,0.9c-0.5,1.4-1.1,2.8-1.8,4.1c-0.3,0.5-0.5,1-0.8,1.4
	c1.6-0.1,3.2-0.2,4.6-0.4c-0.6-0.8-1.1-1.5-1.6-2.3l4.2-2.6c2,2.4,3.7,5.1,5.1,7.9l-4.6,2.7c-0.3-0.6-0.5-1.1-0.8-1.6
	c-4.2,0.7-8.8,1.3-13.7,1.8l-0.9-4.9c0.6,0,1.3,0,1.9-0.1c0.5-0.9,0.9-1.8,1.4-2.8c0.6-1.3,1.1-2.6,1.5-4h-16.6l3,0.9
	c-0.6,1.5-1.4,2.9-2.3,4.3c-0.2,0.4-0.5,0.7-0.7,1c1.6-0.1,3-0.3,4.4-0.4c-0.4-0.7-0.8-1.3-1.1-1.9l4.2-2.5c1.7,2.5,3.1,5.1,4.2,7.9
	l-4.6,2.7c-0.3-0.8-0.6-1.5-0.8-2.2c-4.3,0.9-8.9,1.6-13.9,2.2l-0.9-5.1c1,0,2-0.1,2.9-0.2c0.4-0.8,0.8-1.5,1.2-2.4
	c0.6-1.4,1.2-2.8,1.7-4.2h-5.1v-4.6L742.9,388.1z M740.3,429.4H735v-1.7h-22.2v1.7h-5.3V411h32.8L740.3,429.4z M735,417.3v-1.8
	h-22.2v1.8H735z M735,423.4v-1.8h-22.2v1.8H735z"/>
<path class="st38" d="M776.4,392.7c-2.6,0.6-5.4,1.1-8.3,1.5v9.4h11.4v-15.8h5.5v15.8h9v5.3h-9v20.4h-5.5v-20.4h-11.4
	c-0.1,4.2-1.4,8.3-3.6,11.8c-2.1,3.5-5,6.4-8.3,8.7l-2.9-4.8c3-2.1,5.4-4.8,7.1-8c1.2-2.4,2-5.1,2.2-7.8h-10.4v-5.3h10.5v-8.6
	c-2,0.3-4,0.5-6.1,0.7l-1.8-5.1c6.5-0.6,12.9-1.5,19.2-2.8L776.4,392.7z"/>
<path class="st38" d="M810.3,398.2l-3.5,4.4c-1.7-1.8-3.5-3.5-5.5-4.9l3.5-3.7C806.8,395.2,808.7,396.6,810.3,398.2z M819.7,416.9
	v-2.2h5.3v2.2h18.5v5.1H825v7.6h-5.3V422h-18.2v-5.1L819.7,416.9z M814,404.2c-2,3.9-4.5,7.6-7.5,10.9l-4.4-3.9
	c2.9-2.9,5.4-6.1,7.3-9.7L814,404.2z M813.6,390.7l-3.5,4.4c-1.8-1.8-3.8-3.5-5.9-4.9l3.5-3.7C809.9,387.7,811.8,389.1,813.6,390.7
	L813.6,390.7z M823.2,388.1c-0.4,0.9-0.7,1.7-1,2.4h5.3c0.6-1.3,1-2.6,1.3-4l5.3,1.1c-0.4,1-0.8,2-1.1,3h9v4.7h-9.7v1.6h8.1v4.6
	h-8.1v1.6h8.3v4.6h-8.3v1.6h9.7v4.7h-26.2v-12.7c-0.4,0.5-0.7,0.9-1.1,1.3l-4.2-3.1c1.6-1.9,3-4,4.2-6.1c1.3-2.3,2.4-4.6,3.3-7.1
	L823.2,388.1z M827.2,395.3H821v1.6h6.3L827.2,395.3z M827.2,401.5H821v1.6h6.3L827.2,401.5z M827.2,407.8H821v1.6h6.3L827.2,407.8z
	"/>
<path class="st38" d="M858.5,390v-3h5.2v3h7.5v4.9h-7.5v2h7.1v6.1c1.7-5.2,3.2-10.4,4.2-15.8l5.1,1.3c-0.4,1.8-0.8,3.5-1.2,5.1h14.1
	v3.9c-1.1,2.9-2.6,5.6-4.4,8.1l-4-2.6c0.8-1.4,1.5-2.9,2.2-4.4h-3c-0.1,3-0.3,5.7-0.6,8.2c0.8,3.3,1.9,6.4,3.5,9.4
	c1.5,3.1,3.7,5.9,6.3,8.1l-3.8,5c-2.3-2.5-4.2-5.4-5.7-8.5c-0.8-1.6-1.5-3.2-2.1-4.9c-0.3,0.9-0.5,1.6-0.8,2.3
	c-1.7,4.4-4.4,8.3-7.8,11.5l-3.3-4.4c3-2.9,5.3-6.5,6.7-10.4c1.4-3.7,2.3-9.1,2.5-16.2h-1.2c-0.8,3-1.7,5.7-2.5,8.1l-4.2-1.2v10.4
	h-7.1v2.4h7.3v4.7h-7.3v6.4h-5.2V423h-7.9v-4.8h7.9v-2.4H851v-18.9h7.5v-2h-7.9V390H858.5z M858.7,404.1v-2.4h-2.6v2.4H858.7z
	 M858.7,411.1v-2.2h-2.6v2.1L858.7,411.1z M863.3,404.1h2.4v-2.4h-2.4V404.1z M863.3,411.1h2.4v-2.2h-2.4V411.1z"/>
<path class="st38" d="M917.1,399.1h1.6v7h-2.2v17c0,3.9-1.8,5.9-5.3,5.9c-0.7,0-1.5-0.1-2.2-0.2l-1.1-5.1c1.1,0.3,2.2,0.5,3.3,0.5
	c0.3,0,0.5-0.8,0.5-2.4v-0.5h-5.3v7.9h-4.8v-23.1h-2.2v-7h1.5v-11.7h16.2L917.1,399.1z M913.9,405.4v-1.6h-9.7v1.6H913.9z
	 M906.9,399.1V393h5.3v-1h-6.6v7.1L906.9,399.1z M911.7,411.6V410h-5.3v1.6L911.7,411.6z M911.7,417.3v-1.6h-5.3v1.6H911.7z
	 M912.2,399.1v-2h-1.5v2H912.2z M940.6,411.8v9.9h-5l2.1,0.7c-0.1,0.7-0.3,1.3-0.5,2h5.3v4.6h-24.2v-4.6h4.7
	c-0.2-0.7-0.4-1.3-0.6-1.8l3-0.9h-5.2v-9.9L940.6,411.8z M941.8,406.4v4.4h-22.9v-4.4H941.8z M925.6,389.4V387h4v2.4h1.5V387h4v2.4
	h6.3v16h-22v-16L925.6,389.4z M925.6,395.5v-1.8H924v1.8H925.6z M925.6,401.2v-1.9H924v1.8L925.6,401.2z M935.7,417.5V416h-10.6v1.5
	L935.7,417.5z M931.8,424.5c0-0.2,0.1-0.4,0.2-0.6c0.2-0.8,0.4-1.5,0.6-2.2h-5.1c0.3,0.9,0.6,1.8,0.9,2.7H931.8z M929.6,395.5h1.5
	v-1.8h-1.4L929.6,395.5z M929.6,401.2h1.5v-1.9h-1.4L929.6,401.2z M935.1,395.5h1.6v-1.8h-1.6L935.1,395.5z M935.1,401.2h1.6v-1.9
	h-1.6L935.1,401.2z"/>
<path class="st38" d="M989.3,390.1v5.3h-16.2v26.4h18v5.4h-41.5v-5.4h17.8v-26.4h-16v-5.3H989.3z"/>
<path class="st38" d="M1016.8,391c-1.9,0.9-3.9,1.7-5.9,2.4v6.3h5.7v5.1h-5.7v0.3c2.3,2,4.4,4.2,6.4,6.5l-3.3,4.6
	c-1-1.6-2.1-3.1-3.1-4.4v17.4h-5.3v-15.4c-1.2,2.5-2.7,4.8-4.4,7l-3.1-3.9c1.7-2.1,3.3-4.4,4.5-6.9c1-1.7,1.8-3.5,2.5-5.3h-5.9v-5.1
	h6.4v-4.6c-1.4,0.4-2.8,0.8-4.2,1.1l-2.6-4.8c5.1-1,10.1-2.5,14.9-4.6L1016.8,391z M1040.3,408.8c-2.8,0.4-5.8,0.8-8.8,1.2v4.3h8v5
	h-8v4.4h9.2v4.9h-24.8v-4.9h10.3v-4.4h-8.6v-5h8.6v-3.8c-2.6,0.3-5.2,0.5-7.9,0.7l-1.8-5c7.7-0.5,14.9-1.2,21.5-2.2L1040.3,408.8z
	 M1039.5,387.7v14.8h-21.8v-14.8L1039.5,387.7z M1034.2,397.6v-5H1023v5H1034.2z"/>
<path class="st38" d="M1059.5,388.3c-0.4,0.9-0.8,1.8-1.1,2.5h6.8v15.4h-11.6v3h11.9V428h-5.1v-2.5h-6.8v3.9h-5.1v-38.4h4.2
	c0.5-1.3,0.9-2.7,1.3-4.2L1059.5,388.3z M1060.1,401.3v-5.5h-6.4v5.5H1060.1z M1060.4,420.2v-6.1h-6.8v6.1H1060.4z M1090.2,388.6
	v5.2h-9.3v4.9h9v18c0,4.3-2,6.4-6.1,6.4c-0.8,0-1.5-0.2-2.2-0.6l-0.7-3.6v10.2h-5.2v-25.3h-3.1v19.3h-5.3v-24.4h8.4v-4.9h-8.6v-5.2
	L1090.2,388.6z M1080.8,417.3c0.9,0.4,1.9,0.7,2.9,0.7c0.5,0,0.8-0.9,0.8-2.5v-11.5h-3.7V417.3z"/>
<line class="st13" x1="-27" y1="0" x2="2117" y2="0"/>
</svg>
