<svg xmlns="http://www.w3.org/2000/svg" width="184" height="195.5" viewBox="0 0 184 195.5">
  <g id="Group_30" data-name="Group 30" transform="translate(-1948.5 -2954.29)">
    <path id="Path_183" data-name="Path 183" d="M2101.833,3050.123a61.333,61.333,0,1,1-61.333-61.333,61.333,61.333,0,0,1,61.333,61.333Zm0,0" fill="#8fd3f3"/>
    <path id="Path_184" data-name="Path 184" d="M2040.5,2984.957a65.167,65.167,0,1,0,65.167,65.166,65.241,65.241,0,0,0-65.167-65.166Zm37.512,61.333a155.7,155.7,0,0,0-2.426-23.9c4.38-1.011,8.716-2.277,13.02-3.669a57.078,57.078,0,0,1,9.2,27.572Zm19.8,7.667a57.07,57.07,0,0,1-9.267,27.681c-4.29-1.4-8.607-2.668-12.969-3.685a156.172,156.172,0,0,0,2.443-24Zm-14.158-41.718c-3.18.974-6.374,1.88-9.6,2.625-1.093-4.719-2.5-9.378-4.053-14.005a57.75,57.75,0,0,1,13.646,11.38Zm-17.115,4.158a148.194,148.194,0,0,1-22.2,2.236v-25.815a56.944,56.944,0,0,1,15.9,3.367,148.984,148.984,0,0,1,6.3,20.212Zm-46.664-19.883a57.052,57.052,0,0,1,16.8-3.7v25.815a148.277,148.277,0,0,1-22.931-2.378,149.212,149.212,0,0,1,6.132-19.741Zm16.8,29.788v19.988h-26.776a148.343,148.343,0,0,1,2.3-22.526,155.892,155.892,0,0,0,24.477,2.538Zm0,27.655v19.975a156.082,156.082,0,0,0-24.493,2.478,148.408,148.408,0,0,1-2.283-22.453Zm-22.948,29.962a148.216,148.216,0,0,1,22.948-2.316v25.828a57.078,57.078,0,0,1-16.8-3.7,149.113,149.113,0,0,1-6.149-19.816Zm30.614-2.295a148.071,148.071,0,0,1,22.182,2.295,149.627,149.627,0,0,1-6.282,20.143,56.94,56.94,0,0,1-15.9,3.369Zm0-7.667v-20h26.01a148.408,148.408,0,0,1-2.283,22.453,156.152,156.152,0,0,0-23.727-2.455Zm0-27.667V3026.3a155.578,155.578,0,0,0,23.739-2.4,148.385,148.385,0,0,1,2.271,22.383Zm-34.3-44.842c-1.445,4.375-2.768,8.78-3.806,13.234-2.977-.706-5.93-1.549-8.869-2.448a57.825,57.825,0,0,1,12.675-10.786Zm-7.814,44.842h-19.024a57.084,57.084,0,0,1,9.2-27.569c4.065,1.309,8.158,2.505,12.289,3.481a156.282,156.282,0,0,0-2.464,24.088Zm2.443,31.665c-4.145.966-8.253,2.157-12.336,3.464a57.079,57.079,0,0,1-9.131-27.462h19.024a155.828,155.828,0,0,0,2.446,24Zm-7.389,9.965c2.96-.9,5.932-1.742,8.929-2.446,1.043,4.487,2.376,8.92,3.829,13.327a57.76,57.76,0,0,1-12.758-10.884ZM2070,3099.39c1.537-4.6,2.939-9.229,4.03-13.916,3.2.749,6.374,1.658,9.533,2.628A57.8,57.8,0,0,1,2070,3099.387Zm0,0" fill="#3db4e8"/>
    <path id="Path_185" data-name="Path 185" d="M2013.667,2954.29H1960a11.5,11.5,0,0,0-11.5,11.5v34.8a15.329,15.329,0,0,0,5.755,11.974l13.412,10.729v-15.333h46a11.5,11.5,0,0,0,11.5-11.5V2965.79a11.5,11.5,0,0,0-11.5-11.5Zm0,0" fill="#fdd762"/>
    <path id="Path_186" data-name="Path 186" d="M1992.583,2979.207a5.75,5.75,0,1,1-5.75-5.75,5.751,5.751,0,0,1,5.75,5.75Zm0,0" fill="#f8b500"/>
    <path id="Path_187" data-name="Path 187" d="M2013.667,2979.207a5.75,5.75,0,1,1-5.75-5.75,5.752,5.752,0,0,1,5.75,5.75Zm0,0" fill="#f8b500"/>
    <path id="Path_188" data-name="Path 188" d="M1971.5,2979.207a5.75,5.75,0,1,1-5.75-5.75,5.751,5.751,0,0,1,5.75,5.75Zm0,0" fill="#f8b500"/>
    <path id="Path_189" data-name="Path 189" d="M2067.333,3149.79H2121a11.5,11.5,0,0,0,11.5-11.5v-34.8a15.328,15.328,0,0,0-5.755-11.974l-13.412-10.729v15.333h-46a11.5,11.5,0,0,0-11.5,11.5v30.667a11.5,11.5,0,0,0,11.5,11.5Zm0,0" fill="#b9d98f"/>
    <path id="Path_190" data-name="Path 190" d="M2099.917,3124.873a5.75,5.75,0,1,1-5.75-5.75,5.751,5.751,0,0,1,5.75,5.75Zm0,0" fill="#22ac38"/>
    <path id="Path_191" data-name="Path 191" d="M2121,3124.873a5.75,5.75,0,1,1-5.75-5.75,5.751,5.751,0,0,1,5.75,5.75Zm0,0" fill="#22ac38"/>
    <path id="Path_192" data-name="Path 192" d="M2078.833,3124.873a5.75,5.75,0,1,1-5.75-5.75,5.751,5.751,0,0,1,5.75,5.75Zm0,0" fill="#22ac38"/>
  </g>
</svg>
