<svg xmlns="http://www.w3.org/2000/svg" width="171.029" height="184" viewBox="0 0 171.029 184">
  <g id="Group_15" data-name="Group 15" transform="translate(-1306.406 -2948)">
    <path id="Path_117" data-name="Path 117" d="M1390.184,2955.47h19.827a35.253,35.253,0,0,1,9.121,1.2,11.958,11.958,0,0,0-11.576-8.666h-14.737a11.954,11.954,0,0,0-11.559,8.615,35.246,35.246,0,0,1,8.924-1.145Zm0,0" fill="#3e3a39"/>
    <path id="Path_118" data-name="Path 118" d="M1390.184,2966.3h19.827a24.283,24.283,0,0,1,6.751.956,11.58,11.58,0,0,0,2.63-5.633,30.479,30.479,0,0,0-9.381-1.478h-19.827a30.522,30.522,0,0,0-9.211,1.421,11.579,11.579,0,0,0,2.6,5.649,24.37,24.37,0,0,1,6.607-.915Zm0,0" fill="#3e3a39"/>
    <path id="Path_119" data-name="Path 119" d="M1410.011,2965.936h-19.827c-13.362,0-24.231,10.623-24.231,23.679v12.126a2.138,2.138,0,0,1,2.143-2.132h24.067a19.491,19.491,0,0,0,16.23-8.613,2.151,2.151,0,0,1,3.568,0,19.494,19.494,0,0,0,16.231,8.613h3.905a2.14,2.14,0,0,1,2.146,2.132v-12.126c0-13.056-10.871-23.679-24.233-23.679Zm0,0" fill="#3e3a39"/>
    <path id="Path_120" data-name="Path 120" d="M1425.4,3062.417h-14.642v4.982a6.946,6.946,0,0,1-6.941,6.937h-7.445a6.946,6.946,0,0,1-6.941-6.937v-4.982h-14.641a17.98,17.98,0,0,0-18.016,17.9v40h86.641v-40a17.98,17.98,0,0,0-18.015-17.9Zm0,0" fill="#3db4e8"/>
    <path id="Path_121" data-name="Path 121" d="M1410.761,3067.4a6.946,6.946,0,0,1-6.941,6.937h-7.445a6.946,6.946,0,0,1-6.941-6.937v-4.982h-12.823l23.487,49.667,23.487-49.667h-12.824Zm0,0" fill="#fdd762"/>
    <path id="Path_122" data-name="Path 122" d="M1400.1,3087.027a61.566,61.566,0,0,1-12.448-1.266l12.448,26.323,12.447-26.323a61.48,61.48,0,0,1-12.447,1.266Zm0,0" fill="#fff"/>
    <path id="Path_123" data-name="Path 123" d="M1407.868,3056.474c-.6.039-1.2.067-1.808.067h-11.924a28.133,28.133,0,0,1-5.061-.466V3067.4a7.321,7.321,0,0,0,7.3,7.3h7.444a7.32,7.32,0,0,0,7.3-7.3v-6.748a5.346,5.346,0,0,1-3.252-4.177Zm0,0" fill="#ffc7a1"/>
    <path id="Path_124" data-name="Path 124" d="M1442.8,3027.558h-3.088v24.113a.966.966,0,0,1-.953.953h-15.936a5.26,5.26,0,0,1,.483,5.391h15.453a6.351,6.351,0,0,0,6.343-6.344v-25.056a3.283,3.283,0,0,1-2.3.943Zm0,0" fill="#bfc0c0"/>
    <path id="Path_125" data-name="Path 125" d="M1357.391,3003h3.09v-13.383c0-16.053,13.325-29.114,29.7-29.114h19.827c16.38,0,29.7,13.061,29.7,29.114V3003h3.088a3.284,3.284,0,0,1,2.3.944v-14.327c0-19.026-15.743-34.5-35.095-34.5h-19.827c-19.352,0-35.094,15.479-35.094,34.5v14.327a3.28,3.28,0,0,1,2.3-.944Zm0,0" fill="#bfc0c0"/>
    <path id="Path_126" data-name="Path 126" d="M1442.8,3002.639h-8.921v25.278h8.921a3.66,3.66,0,0,0,3.65-3.648v-17.982a3.66,3.66,0,0,0-3.65-3.648Zm0,0" fill="#b5b5b6"/>
    <path id="Path_127" data-name="Path 127" d="M1366.312,3002.639h-8.921a3.658,3.658,0,0,0-3.648,3.648v17.982a3.657,3.657,0,0,0,3.648,3.647h8.921Zm0,0" fill="#b5b5b6"/>
    <path id="Path_128" data-name="Path 128" d="M1432.1,2998.908h-3.905a19.494,19.494,0,0,1-16.231-8.614,2.151,2.151,0,0,0-3.568,0,19.491,19.491,0,0,1-16.23,8.614H1368.1a2.137,2.137,0,0,0-2.143,2.131v27.876a28.115,28.115,0,0,0,28.183,27.985h11.924c.627,0,1.249-.028,1.867-.068a5.169,5.169,0,0,1-.118-1.106,5.351,5.351,0,0,1,5.358-5.332h5.311a5.346,5.346,0,0,1,3.683,1.47,27.911,27.911,0,0,0,12.082-22.947V3001.04a2.139,2.139,0,0,0-2.146-2.132Zm0,0" fill="#ffd5b3"/>
    <path id="Path_129" data-name="Path 129" d="M1383.3,3018.292a2.7,2.7,0,0,1-2.7-2.7v-6.459a2.7,2.7,0,0,1,5.391,0v6.459a2.7,2.7,0,0,1-2.7,2.7Zm0,0" fill="#775436"/>
    <path id="Path_130" data-name="Path 130" d="M1416.9,3018.292a2.7,2.7,0,0,1-2.7-2.7v-6.459a2.7,2.7,0,0,1,5.391,0v6.459a2.7,2.7,0,0,1-2.695,2.7Zm0,0" fill="#775436"/>
    <path id="Path_131" data-name="Path 131" d="M1404.976,3025.467H1400.3a4.526,4.526,0,0,1-4.52-4.521v-6.693a2.7,2.7,0,1,1,5.39,0v5.823h3.809a2.7,2.7,0,0,1,0,5.391Zm0,0" fill="#c6a07d"/>
    <path id="Path_132" data-name="Path 132" d="M1400.1,3047.2c-7.792,0-14.133-5.712-14.133-12.732a2.054,2.054,0,0,1,2.059-2.049h24.15a2.055,2.055,0,0,1,2.061,2.049c0,7.02-6.341,12.732-14.137,12.732Zm0,0" fill="#fb8276"/>
    <path id="Path_133" data-name="Path 133" d="M1424.195,3055.726a5.7,5.7,0,0,1-5.717,5.691h-5.311a5.692,5.692,0,1,1,0-11.383h5.311a5.7,5.7,0,0,1,5.717,5.692Zm0,0" fill="#b5b5b6"/>
    <path id="Path_134" data-name="Path 134" d="M1368.011,3115.321h5.948V3112.6a3.627,3.627,0,0,1,1.18-2.674h-4.433V3086.2a2.7,2.7,0,0,0-5.391,0v26.423a2.7,2.7,0,0,0,2.7,2.7Zm0,0" fill="#0095d8"/>
    <path id="Path_135" data-name="Path 135" d="M1390.762,3120.315v-7.71a3.66,3.66,0,0,0-3.65-3.648h-9.5a3.66,3.66,0,0,0-3.65,3.648v7.71Zm0,0" fill="#ffc7a1"/>
    <path id="Path_136" data-name="Path 136" d="M1426.236,3112.6v2.716h5.95a2.7,2.7,0,0,0,2.695-2.7V3086.2a2.7,2.7,0,0,0-5.39,0v23.728h-4.434a3.629,3.629,0,0,1,1.179,2.674Zm0,0" fill="#0095d8"/>
    <path id="Path_137" data-name="Path 137" d="M1426.236,3120.315v-7.71a3.659,3.659,0,0,0-3.649-3.648h-9.5a3.66,3.66,0,0,0-3.65,3.648v7.71Zm0,0" fill="#ffc7a1"/>
    <path id="Path_138" data-name="Path 138" d="M1452.9,3126.969v-5.19a1.831,1.831,0,0,0-1.825-1.824H1349.125a1.829,1.829,0,0,0-1.823,1.824v5.19Zm0,0" fill="#c6a07d"/>
    <path id="Path_139" data-name="Path 139" d="M1474.739,3132H1325.457a2.7,2.7,0,0,1,0-5.391h149.282a2.7,2.7,0,1,1,0,5.391Zm0,0" fill="#775436"/>
    <path id="Path_140" data-name="Path 140" d="M1306.406,2966.422a1.83,1.83,0,0,1,1.825-1.823h39.676a1.828,1.828,0,0,1,1.823,1.823v29.768a1.827,1.827,0,0,1-1.823,1.823h-4.566a1.83,1.83,0,0,0-1.824,1.824v5.827c0,1-.642,1.313-1.428.688l-9.047-7.2a6.1,6.1,0,0,0-3.253-1.138h-19.558a1.828,1.828,0,0,1-1.825-1.823Zm0,0" fill="#f8b500"/>
    <path id="Path_141" data-name="Path 141" d="M1339.849,2976.274h-23.562a2.695,2.695,0,1,1,0-5.39h23.562a2.695,2.695,0,1,1,0,5.39Zm0,0" fill="#bfc0c0"/>
    <path id="Path_142" data-name="Path 142" d="M1339.849,2984h-23.562a2.7,2.7,0,0,1,0-5.391h23.562a2.7,2.7,0,0,1,0,5.391Zm0,0" fill="#bfc0c0"/>
    <path id="Path_143" data-name="Path 143" d="M1326.816,2991.729h-10.529a2.7,2.7,0,0,1,0-5.391h10.529a2.7,2.7,0,0,1,0,5.391Zm0,0" fill="#bfc0c0"/>
  </g>
</svg>
