<svg xmlns="http://www.w3.org/2000/svg" width="206.168" height="206.79" viewBox="0 0 206.168 206.79">
  <g id="Group_198" data-name="Group 198" transform="translate(-1414.528 -1724)">
    <g id="Group_18" data-name="Group 18" transform="translate(-184 -1208)">
      <g id="Group_16" data-name="Group 16">
        <path id="Path_144" data-name="Path 144" d="M1633.052,3048.091a85.483,85.483,0,0,1,24.868-69.591,86.443,86.443,0,0,1,122.108,0,8.549,8.549,0,0,1-12.088,12.091,69.248,69.248,0,0,0-117.873,55.821,8.548,8.548,0,0,1-7.667,9.346c-2.652.264-8.627-.891-9.348-7.667Zm0,0" fill="#fdd762"/>
        <path id="Path_145" data-name="Path 145" d="M1728.649,2986.991a8.549,8.549,0,0,1,8.374-8.718l26.845-.542-8.139-25.587a8.549,8.549,0,1,1,16.292-5.185l11.61,36.5a8.549,8.549,0,0,1-7.974,11.138l-38.29.773c-6.581-.132-8.671-6.077-8.718-8.377Zm0,0" fill="#fdd762"/>
      </g>
      <g id="Group_17" data-name="Group 17">
        <path id="Path_146" data-name="Path 146" d="M1804.22,3031.7a85.5,85.5,0,0,1-24.869,69.593,86.446,86.446,0,0,1-122.11,0,8.549,8.549,0,0,1,12.09-12.091,69.248,69.248,0,0,0,117.873-55.821,8.546,8.546,0,0,1,7.665-9.346c2.654-.264,8.629.891,9.351,7.665Zm0,0" fill="#3db4e8"/>
        <path id="Path_147" data-name="Path 147" d="M1708.624,3092.8a8.552,8.552,0,0,1-8.376,8.718l-26.845.542,8.14,25.587a8.549,8.549,0,1,1-16.292,5.185l-11.611-36.5a8.547,8.547,0,0,1,7.974-11.138l38.291-.773c6.58.132,8.672,6.078,8.719,8.377Zm0,0" fill="#3db4e8"/>
      </g>
    </g>
    <path id="Path_148" data-name="Path 148" d="M1698.688,3029.737a3.119,3.119,0,0,1-3.118-3.118v-7.473a3.118,3.118,0,0,1,6.236,0v7.473a3.118,3.118,0,0,1-3.118,3.118Zm0,0" transform="translate(-184 -1208)" fill="#727171"/>
    <path id="Path_149" data-name="Path 149" d="M1737.565,3029.737a3.118,3.118,0,0,1-3.118-3.118v-7.473a3.118,3.118,0,0,1,6.236,0v7.473a3.119,3.119,0,0,1-3.118,3.118Zm0,0" transform="translate(-184 -1208)" fill="#727171"/>
    <path id="Path_150" data-name="Path 150" d="M1743.782,3046.453a25.279,25.279,0,1,1-50.557,0" transform="translate(-184 -1208)" fill="none" stroke="#727171" stroke-linecap="round" stroke-linejoin="round" stroke-width="6"/>
    <g id="Group_28" data-name="Group 28" transform="translate(-184 -1208)">
      <path id="Path_175" data-name="Path 175" d="M1615.688,2956.737a3.119,3.119,0,0,1-3.118-3.118v-7.473a3.118,3.118,0,0,1,6.236,0v7.473a3.118,3.118,0,0,1-3.118,3.118Z" fill="#ffe893"/>
      <path id="Path_176" data-name="Path 176" d="M1612.237,2960.812a3.119,3.119,0,0,1-3.118,3.118h-7.473a3.118,3.118,0,1,1,0-6.236h7.473a3.118,3.118,0,0,1,3.118,3.118Z" fill="#ffe893"/>
      <path id="Path_177" data-name="Path 177" d="M1616.312,2964.263a3.119,3.119,0,0,1,3.118,3.118v7.473a3.118,3.118,0,0,1-6.236,0v-7.473a3.118,3.118,0,0,1,3.118-3.118Z" fill="#ffe893"/>
      <path id="Path_178" data-name="Path 178" d="M1619.763,2960.188a3.119,3.119,0,0,1,3.118-3.118h7.473a3.118,3.118,0,1,1,0,6.236h-7.473a3.118,3.118,0,0,1-3.118-3.118Z" fill="#ffe893"/>
    </g>
    <g id="Group_29" data-name="Group 29" transform="translate(-184 -1208)">
      <path id="Path_179" data-name="Path 179" d="M1654.827,2940.228a1.873,1.873,0,0,1-1.872-1.872v-4.485a1.872,1.872,0,0,1,3.743,0v4.485a1.872,1.872,0,0,1-1.871,1.872Z" fill="#ffe893"/>
      <path id="Path_180" data-name="Path 180" d="M1652.756,2942.673a1.872,1.872,0,0,1-1.872,1.872H1646.4a1.871,1.871,0,1,1,0-3.743h4.484a1.872,1.872,0,0,1,1.872,1.871Z" fill="#ffe893"/>
      <path id="Path_181" data-name="Path 181" d="M1655.2,2944.744a1.873,1.873,0,0,1,1.872,1.872v4.484a1.872,1.872,0,1,1-3.743,0v-4.484a1.872,1.872,0,0,1,1.871-1.872Z" fill="#ffe893"/>
      <path id="Path_182" data-name="Path 182" d="M1657.272,2942.3a1.872,1.872,0,0,1,1.872-1.872h4.485a1.871,1.871,0,0,1,0,3.743h-4.485a1.872,1.872,0,0,1-1.872-1.871Z" fill="#ffe893"/>
    </g>
  </g>
</svg>
