<svg xmlns="http://www.w3.org/2000/svg" xmlns:xlink="http://www.w3.org/1999/xlink" width="220.414" height="203.192" viewBox="0 0 220.414 203.192">
  <defs>
    <clipPath id="clip-path">
      <rect id="Rectangle_7" data-name="Rectangle 7" width="65.78" height="52.076" transform="translate(2238.326 2983.361) rotate(-11.896)" fill="none"/>
    </clipPath>
  </defs>
  <g id="Group_197" data-name="Group 197" transform="translate(-2054.326 -1742.413)">
    <g id="Group_19" data-name="Group 19" transform="translate(-184 -1208)">
      <path id="Path_151" data-name="Path 151" d="M2332.947,3112.549v27.371a13.686,13.686,0,0,1-27.371,0v-27.371a4.516,4.516,0,0,1,4.561-4.562h18.248A4.517,4.517,0,0,1,2332.947,3112.549Z" fill="#666464"/>
      <path id="Path_152" data-name="Path 152" d="M2301.014,3071.493h-4.562a18.247,18.247,0,0,0,0,36.494h4.562a4.517,4.517,0,0,0,4.562-4.562v-27.371A4.516,4.516,0,0,0,2301.014,3071.493Z" fill="#7d7d7d"/>
      <path id="Path_153" data-name="Path 153" d="M2429.353,3098.864h-13.685a4.562,4.562,0,0,1,0-9.124h13.685a4.562,4.562,0,0,1,0,9.124Z" fill="#ef8582"/>
      <path id="Path_154" data-name="Path 154" d="M2417,3124.9l-9.123-9.124a4.561,4.561,0,0,1,6.45-6.451l9.124,9.124A4.562,4.562,0,0,1,2417,3124.9Z" fill="#ef8582"/>
      <path id="Path_155" data-name="Path 155" d="M2407.881,3079.28a4.56,4.56,0,0,1,0-6.451l9.123-9.124a4.562,4.562,0,0,1,6.451,6.451l-9.124,9.124A4.559,4.559,0,0,1,2407.881,3079.28Z" fill="#ef8582"/>
      <path id="Path_156" data-name="Path 156" d="M2342.07,3066.931v42.424l-9.123,7.756h-22.81a13.642,13.642,0,0,1-12.864-9.124,12.655,12.655,0,0,1-.821-4.562v-27.371a13.666,13.666,0,0,1,13.685-13.685h22.81Z" fill="#f8b500"/>
      <path id="Path_157" data-name="Path 157" d="M2388.3,3044.122v91.236a4.55,4.55,0,0,1-2.829,4.2,4.355,4.355,0,0,1-4.926-1l-5.383-5.292c-7.482-7.481-27.067-16.148-37.651-16.148h-4.561v-54.742h4.561c10.584,0,30.169-8.668,37.651-16.149l5.383-5.292a4.325,4.325,0,0,1,4.926-1A4.551,4.551,0,0,1,2388.3,3044.122Z" fill="#fff2c2"/>
      <path id="Path_158" data-name="Path 158" d="M2397.42,3044.122v91.236a9.123,9.123,0,1,1-18.247,0v-91.236a9.123,9.123,0,1,1,18.247,0Z" fill="#f8b500"/>
    </g>
    <g id="Group_21" data-name="Group 21" transform="translate(-184 -1208)">
      <path id="Path_159" data-name="Path 159" d="M2381.3,2950.413h-50.486a2.848,2.848,0,0,0-2.847,2.849v9.473h56.182v-9.473A2.85,2.85,0,0,0,2381.3,2950.413Zm-38.879,5.7a1.364,1.364,0,1,1,1.364-1.364A1.364,1.364,0,0,1,2342.423,2956.113Zm27.629,0a1.364,1.364,0,1,1,1.364-1.364A1.364,1.364,0,0,1,2370.052,2956.113Z" fill="#b5b5b6"/>
      <path id="Path_160" data-name="Path 160" d="M2388.369,2963.4l-4.309,22.471,1.76,23.368a2.957,2.957,0,0,1-2.949,3.178h-53.624a2.958,2.958,0,0,1-2.949-3.178l1.762-23.368-4.309-22.471a3.428,3.428,0,0,1,3.367-4.074H2385A3.43,3.43,0,0,1,2388.369,2963.4Z" fill="#007bc2"/>
      <path id="Path_161" data-name="Path 161" d="M2382.871,3012.413h-53.624a2.958,2.958,0,0,1-2.949-3.178l1.762-23.368h56l1.76,23.368A2.957,2.957,0,0,1,2382.871,3012.413Z" fill="#3db4e8"/>
      <g id="Group_20" data-name="Group 20">
        <path id="Path_162" data-name="Path 162" d="M2354.969,2980a8.185,8.185,0,0,0-16.364,0h2.727a5.46,5.46,0,1,1,5.455,5.227h-2.545v2.727h2.545a5.232,5.232,0,1,1-5.455,5.228H2338.6a8.185,8.185,0,0,0,16.364,0,7.827,7.827,0,0,1,0-13.182Z" fill="#fff"/>
        <path id="Path_163" data-name="Path 163" d="M2360.269,2976.7l1.4,2.341,5.391-3.222v23.96h2.727V2971.01Z" fill="#fff"/>
      </g>
    </g>
    <g id="Group_24" data-name="Group 24" transform="translate(-184 -1208)">
      <path id="Path_164" data-name="Path 164" d="M2298.488,2976.261s-7.657-1.192-27.42,2.972-26.289,8.342-26.289,8.342-1.241,7.427,1.557,20.707,6.929,19.575,6.929,19.575,7.657,1.191,27.42-2.972,26.289-8.342,26.289-8.342,1.24-7.427-1.558-20.707-6.928-19.575-6.928-19.575Zm0,0" fill="#f8b500"/>
      <path id="Path_165" data-name="Path 165" d="M2253.265,3027.857l16.958-24.607,4.522-6.562,6.785,4.18,25.444,15.675s-6.526,4.179-26.289,8.342-27.42,2.972-27.42,2.972Zm0,0" fill="#f8b500"/>
      <g id="Group_23" data-name="Group 23">
        <g id="Group_22" data-name="Group 22" clip-path="url(#clip-path)">
          <path id="Path_166" data-name="Path 166" d="M2298.488,2976.261l-16.958,24.607-4.522,6.562-6.785-4.18-25.444-15.675s6.526-4.179,26.289-8.342,27.42-2.972,27.42-2.972Zm0,0" fill="#f8b500"/>
          <path id="Path_167" data-name="Path 167" d="M2309.448,3017.62c1.151-2.643.48-13.471-1.388-22.341-1.742-8.266-5.508-18.921-7.733-20.993a2.7,2.7,0,0,0-1.424-.695c-12.417-1.932-53.456,7.748-56.425,12.567a2.84,2.84,0,0,0-.354.926c-1.037,5.594.328,15.863,1.569,21.755,1.247,5.921,4.2,16.019,7.355,20.557a2.8,2.8,0,0,0,.684.686c4.673,3.218,46.126-4.494,56.7-11.264a2.7,2.7,0,0,0,1.017-1.2Zm-24.08-17.561,12.778-18.541a82.862,82.862,0,0,1,6.394,30.352Zm8.059-21.215-17.187,24.94-25.788-15.887c10.979-4.4,31.092-8.647,42.975-9.053Zm-39.821,43.756a82.883,82.883,0,0,1-6.394-30.353l19.173,11.811Zm4.72,2.674,12.665-18.378,4.6,2.834a2.7,2.7,0,0,0,3.641-.767l3.066-4.449,19,11.707c-10.98,4.4-31.095,8.646-42.975,9.053Zm0,0" fill="#7d7d7d"/>
        </g>
      </g>
    </g>
    <g id="Group_25" data-name="Group 25" transform="translate(-184 -1208)">
      <path id="Path_168" data-name="Path 168" d="M2457.978,3008.709a29.669,29.669,0,1,1-22.265-35.563,29.668,29.668,0,0,1,22.265,35.563Zm0,0" fill="#22ac38"/>
      <path id="Path_169" data-name="Path 169" d="M2445.66,3005.013a8.52,8.52,0,0,0,.361-.971,12.853,12.853,0,0,0,.28-1.289c1.205-7.077-4.762-14.308-13.642-16.35-9.137-2.1-17.9,2.087-19.571,9.356-1.537,6.68,3.452,13.637,11.365,16.35a.922.922,0,0,1,.569,1.178l-1.059,3.028a.924.924,0,0,0,1.08,1.206c7.61-1.73,12.489-4.189,15.612-6.573.569-.434,2.487-2.133,2.906-2.6a11.359,11.359,0,0,0,2.1-3.335Zm0,0" fill="#fff"/>
      <path id="Path_170" data-name="Path 170" d="M2419.922,3000.137l1.275-5.543a.869.869,0,0,0-1.693-.39l-1.469,6.39a.868.868,0,0,0,.652,1.041l3.385.779a.869.869,0,0,0,.389-1.693Zm0,0" fill="#22ac38"/>
      <path id="Path_171" data-name="Path 171" d="M2424.754,3003.03l-.37-.085a.678.678,0,0,1-.509-.814l1.554-6.759a.678.678,0,0,1,.813-.509l.37.085a.678.678,0,0,1,.509.813l-1.554,6.759a.678.678,0,0,1-.813.51Zm0,0" fill="#22ac38"/>
      <path id="Path_172" data-name="Path 172" d="M2433.257,2997.367l-.9,3.9s-2.366-5.185-2.4-5.255a.865.865,0,0,0-.6-.435.891.891,0,0,0-1.016.693l-1.461,6.355a.869.869,0,1,0,1.693.389l.892-3.88s2.408,5.236,2.448,5.3a.863.863,0,0,0,.519.363.9.9,0,0,0,1.057-.685l1.462-6.355a.869.869,0,0,0-1.693-.389Zm0,0" fill="#22ac38"/>
      <path id="Path_173" data-name="Path 173" d="M2441.3,2999.216a.87.87,0,0,0-.652-1.041l-3.386-.778a.867.867,0,0,0-1.04.651l-1.47,6.39a.869.869,0,0,0,.652,1.041l3.385.778a.868.868,0,1,0,.389-1.692l-2.539-.584.346-1.5,2.539.584a.868.868,0,1,0,.389-1.693l-2.539-.584.346-1.5,2.539.584a.868.868,0,0,0,1.041-.651Zm0,0" fill="#22ac38"/>
    </g>
    <g id="Group_27" data-name="Group 27" transform="translate(-184 -1208)">
      <circle id="Ellipse_15" data-name="Ellipse 15" cx="15.571" cy="15.571" r="15.571" transform="translate(2354.19 3031.44)" fill="#eb6164"/>
      <g id="Group_26" data-name="Group 26">
        <path id="Path_174" data-name="Path 174" d="M2368,3045.873h1.517a2.715,2.715,0,0,0,1.82-.595,2.123,2.123,0,0,0,.671-1.692,2.313,2.313,0,0,0-.558-1.655,2.254,2.254,0,0,0-1.707-.589,2.376,2.376,0,0,0-1.65.579,1.933,1.933,0,0,0-.646,1.512h-2.491a3.768,3.768,0,0,1,.61-2.091,4.09,4.09,0,0,1,1.7-1.471,5.535,5.535,0,0,1,2.444-.528,5.13,5.13,0,0,1,3.511,1.123,3.937,3.937,0,0,1,1.276,3.12,3.166,3.166,0,0,1-.641,1.892,4.016,4.016,0,0,1-1.655,1.338,3.664,3.664,0,0,1,1.871,1.322,3.62,3.62,0,0,1,.64,2.152,4.006,4.006,0,0,1-1.378,3.2,6.051,6.051,0,0,1-7.15.042,3.782,3.782,0,0,1-1.374-3.055h2.492a2.082,2.082,0,0,0,.661,1.6,2.506,2.506,0,0,0,1.778.615,2.585,2.585,0,0,0,1.824-.615,2.3,2.3,0,0,0,.667-1.784,2.33,2.33,0,0,0-.7-1.814,2.984,2.984,0,0,0-2.071-.635H2368Z" fill="#fff"/>
      </g>
    </g>
  </g>
</svg>
