<svg id="圖層_1" data-name="圖層 1" xmlns="http://www.w3.org/2000/svg" xmlns:xlink="http://www.w3.org/1999/xlink" viewBox="0 0 120 40.2"><defs><style>.cls-1,.cls-4{fill:none;}.cls-2{opacity:0.5;}.cls-3{clip-path:url(#clip-path);}.cls-4{stroke:#fff;stroke-linecap:round;stroke-linejoin:round;stroke-width:4px;}.cls-5{fill:#fff;}</style><clipPath id="clip-path"><rect class="cls-1" x="634" y="-741.9" width="1279" height="759"/></clipPath></defs><title>arrow</title><line class="cls-4" x1="2" y1="20.1" x2="115.2" y2="20.1"/><path class="cls-5" d="M87.9,39.3a2.07,2.07,0,0,1,.6-2.8l25.8-16.4L88.5,3.7A2.05,2.05,0,0,1,87.9.9,2,2,0,0,1,90.7.3l28.5,18.1a2,2,0,0,1,.9,1.7,2.23,2.23,0,0,1-.9,1.7L90.6,39.9a2,2,0,0,1-1.1.3A1.8,1.8,0,0,1,87.9,39.3Z"/></svg>