<svg id="d8a92952-328e-4f22-9dc3-876b620653b3" data-name="圖層 2" xmlns="http://www.w3.org/2000/svg" xmlns:xlink="http://www.w3.org/1999/xlink" viewBox="0 0 1024 576"><defs><clipPath id="2d12be98-af0a-473d-8fd6-d9a2a2c9706d"><rect x="148.73" y="82.5" width="727.46" height="448.48" style="fill:none"/></clipPath></defs><title>CRM2</title><path d="M149.14,522.92a8.73,8.73,0,0,0,8.73,8.73H866.12a8.73,8.73,0,0,0,8.73-8.73V130.22H149.14Z" style="fill:#fff;stroke:#bfc0c0;stroke-miterlimit:10;stroke-width:2.85976237364405px"/><path d="M866.12,82.64H157.88a8.73,8.73,0,0,0-8.73,8.73v38.84H874.86V91.38A8.73,8.73,0,0,0,866.12,82.64Z" style="fill:#bfc0c0;stroke:#bfc0c0;stroke-miterlimit:10;stroke-width:2.85976237364405px"/><circle cx="190.33" cy="106.92" r="6.64" style="fill:#eb6164"/><circle cx="216.13" cy="106.92" r="6.64" style="fill:#fdd762"/><circle cx="241.93" cy="106.92" r="6.64" style="fill:#3db4e8"/><g style="opacity:0.30000000000000004"><rect x="317.39" y="162.01" width="389.05" height="336.5" style="fill:#dfedfb"/><polygon points="453.37 308.42 368.12 308.42 368.12 201.96 382.57 188.93 453.37 188.93 453.37 308.42" style="fill:#fff"/><polygon points="368.12 201.96 382.11 201.96 382.57 188.93 368.12 201.96" style="fill:#b0d4ff"/><rect x="397.09" y="199.29" width="27.3" height="1.3" style="fill:#b0d4ff"/><rect x="390.67" y="203.19" width="40.15" height="1.3" style="fill:#b0d4ff"/><rect x="378.21" y="228.24" width="66.66" height="1.67" style="fill:#b0d4ff"/><rect x="378.21" y="233.32" width="66.66" height="1.67" style="fill:#b0d4ff"/><rect x="378.21" y="238.39" width="66.66" height="1.67" style="fill:#b0d4ff"/><rect x="378.21" y="243.47" width="66.66" height="1.67" style="fill:#b0d4ff"/><rect x="378.21" y="297.78" width="66.66" height="1.67" style="fill:#b0d4ff"/><polygon points="551.81 456.12 466.56 456.12 466.56 349.66 481.01 336.63 551.81 336.63 551.81 456.12" style="fill:#fff"/><polygon points="466.56 349.66 480.55 349.66 481.01 336.63 466.56 349.66" style="fill:#b0d4ff"/><rect x="495.53" y="346.99" width="27.3" height="1.3" style="fill:#b0d4ff"/><rect x="489.11" y="350.89" width="40.15" height="1.3" style="fill:#b0d4ff"/><rect x="476.65" y="375.94" width="66.66" height="1.67" style="fill:#b0d4ff"/><rect x="476.65" y="381.01" width="66.66" height="1.67" style="fill:#b0d4ff"/><rect x="476.65" y="386.09" width="66.66" height="1.67" style="fill:#b0d4ff"/><rect x="476.65" y="391.16" width="66.66" height="1.67" style="fill:#b0d4ff"/><rect x="476.65" y="406.78" width="66.66" height="1.67" style="fill:#b0d4ff"/><rect x="476.65" y="411.86" width="66.66" height="1.67" style="fill:#b0d4ff"/><rect x="476.65" y="417.74" width="66.66" height="1.67" style="fill:#b0d4ff"/><rect x="552.84" y="188.93" width="47.08" height="41.5" style="fill:#b0d4ff"/><circle cx="576.38" cy="193.87" r="2.06" style="fill:#ffa412"/><rect x="552.84" y="245.06" width="47.08" height="41.5" transform="translate(-17.11 40.78) rotate(-3.99)" style="fill:#fff"/><circle cx="575.46" cy="252.61" r="2.06" transform="translate(-16.2 40.69) rotate(-3.99)" style="fill:#b0d4ff"/><rect x="396.41" y="397.96" width="47.08" height="41.5" transform="translate(-28.14 30.26) rotate(-3.99)" style="fill:#fff"/><circle cx="419.02" cy="405.51" r="2.06" transform="translate(-27.22 30.17) rotate(-3.99)" style="fill:#b0d4ff"/><rect x="336.03" y="426.4" width="47.08" height="41.5" transform="translate(-4.57 3.71) rotate(-0.59)" style="fill:#fff"/><circle cx="359.44" cy="433.91" r="2.06" transform="translate(-4.45 3.73) rotate(-0.59)" style="fill:#b0d4ff"/><rect x="619.33" y="272.36" width="47.08" height="41.5" transform="translate(61.59 -108.53) rotate(10.13)" style="fill:#eef6ff"/><circle cx="645.53" cy="278.22" r="1.79" transform="translate(258.06 864.72) rotate(-79.87)" style="fill:#78acea"/><rect x="480.37" y="245.06" width="47.08" height="41.5" transform="translate(-25.68 55.76) rotate(-6.18)" style="fill:#eef6ff"/><circle cx="502.28" cy="250.77" r="1.79" transform="translate(-24.06 55.47) rotate(-6.17)" style="fill:#78acea"/><rect x="360.65" y="345.21" width="47.08" height="41.5" transform="translate(-67.87 88.17) rotate(-12.04)" style="fill:#bae8e3"/><circle cx="381.03" cy="351.15" r="1.79" transform="translate(-120.91 479.77) rotate(-57.04)" style="fill:#ffa412"/><polygon points="526.31 230.44 481.51 230.44 481.51 200.33 493.91 188.93 526.31 188.93 526.31 230.44" style="fill:#fff"/><polygon points="481.27 200.33 493.51 200.33 493.91 188.93 481.27 200.33" style="fill:#b0d4ff"/><circle cx="505.55" cy="192.77" r="1.47" style="fill:#b0d4ff"/><polygon points="657.23 476.87 612.42 476.87 612.42 446.76 624.83 435.37 657.23 435.37 657.23 476.87" style="fill:#fff"/><polygon points="612.18 446.76 624.42 446.76 624.83 435.37 612.18 446.76" style="fill:#b0d4ff"/><circle cx="636.46" cy="439.21" r="1.47" style="fill:#b0d4ff"/><polygon points="677.66 417.13 632.86 417.13 632.86 387.02 645.26 375.62 677.66 375.62 677.66 417.13" style="fill:#fff"/><polygon points="632.62 387.02 644.86 387.02 645.26 375.62 632.62 387.02" style="fill:#b0d4ff"/><circle cx="656.9" cy="379.46" r="1.47" style="fill:#b0d4ff"/><polygon points="618.54 417.13 573.73 417.13 573.73 387.02 586.14 375.62 618.54 375.62 618.54 417.13" style="fill:#bae8e3"/><polygon points="573.49 387.02 585.73 387.02 586.14 375.62 573.49 387.02" style="fill:#a1d6ce"/><circle cx="597.77" cy="379.46" r="1.47" style="fill:#f99746"/><polygon points="690.31 220.05 645.5 220.05 645.5 189.94 657.91 178.54 690.31 178.54 690.31 220.05" style="fill:#bae8e3"/><polygon points="645.26 189.94 657.5 189.94 657.91 178.54 645.26 189.94" style="fill:#a1d6ce"/><circle cx="669.54" cy="182.38" r="1.47" style="fill:#f99746"/></g><g style="clip-path:url(#2d12be98-af0a-473d-8fd6-d9a2a2c9706d)"><path d="M472.29,175.17c-5-20.51,2.24-30.06,8.76-35.15,3.09-7.55,6.62-13,10.23-15,6.58-3.74,14.47-4.15,20-3.82a9.35,9.35,0,0,0-4.22-2c3.42-.51,11.06,2.89,11.06,2.89,47.6-18.34,55.08,51.75,54.08,68s-.86,35.46,23.91,48.29c47.25,24.48-15.7,116.73-15.7,116.73,1.2-13.16-59.51-82.6-91.19-103.4-7.71-11.35-10.45-31.41-10.66-33,1.33,15.9,4.05,24.82,6.48,29.84C470.6,235.26,468.46,203.35,472.29,175.17Z" style="fill:#333"/><path d="M491.09,252.72c-.16.07,15.29,8.1,26.92,4.92,10.93-3,18.08-17.16,17.93-17.19-4.63-.92-6-7.28-5.87-34.63l-2.09.41-35.2,7s.8,11.08.82,21.51C493.63,243.48,493.1,251.79,491.09,252.72Z" style="fill:#ffbf9d"/><path d="M492.78,213.21s.8,11.08.82,21.51c19.7-.56,30.11-18.52,34.37-28.48Z" style="fill:#ff9a6c"/><path d="M349.58,839.76A8.64,8.64,0,0,0,357.4,851l13.75.64,14.55.45a11.68,11.68,0,0,0,9.42-4.3c11.61-14.25,47.36-61.73,69-130.72q.92-2.9,1.93-5.88c14.32-41.75,44-94.16,59.65-141.6,2.49-7.56,4.73-14.67,6.73-21.4.64-2.16,1.27-4.27,1.86-6.36,11.53-40.06,14.87-66.36,17.94-94.46l-113,.9S415.54,633.14,349.58,839.76Z" style="fill:#666"/><path d="M455.13,383.39c.29,53.75-7.89,76.82-7.89,76.82s48.37,24.57,105.85,6.48c.68-.21,47.6-10.92,47.6-10.92-1-2.18-9.52-38.4-10.45-40.4-12.14-26.06-21.35-37.49-22.79-45.5-2.67-15-2.73-30.44-1.4-45A361.37,361.37,0,0,1,580,254.11c-15.66-3.56-30.33-9.82-46.63-15.94-3.75,4.67-15.21,9.55-25.16,9.33-11.45-.25-15.16-5.15-14.57-10.51-12.2,6.79-21.94,13.2-21.94,13.2-10.37,18-31.4,35.51-32.93,63.14C438.39,320.14,455.12,381.89,455.13,383.39Z" style="fill:#fff"/><path d="M552.28,389.39c4.94,7,14.41,49.47,38,54.81-12.14-30.27-21.35-43.55-22.79-52.86C564.78,374,564.72,356,566,339c-7.88-13.82-13.77-23.29-13.77-23.29-.62-2.24-12.53-39.06-16.35-6.14S546.76,381.57,552.28,389.39Z" style="fill:#5f9aa8"/><path d="M486.2,223.09s46.6.77,46.63-28.26,6.07-48.48-23.68-50.19-35.54,9.35-37.91,19S474.08,222.14,486.2,223.09Z" style="fill:#ffbf9d"/><path d="M487.93,143.93S500.68,178,520.26,183s28.07-.21,28.07-.21A55.45,55.45,0,0,1,530.2,150S497.55,127.72,487.93,143.93Z" style="fill:#333"/><path d="M491.09,146.69s-9.53,7.6-11.85,15-3.37,22.61-7.8,22.09c0,0-9.61-23.15,1.19-36.24C484.08,133.65,491.09,146.69,491.09,146.69Z" style="fill:#333"/><polygon points="412.88 420.7 390.87 487.8 403.43 492.84 439.81 433.55 412.88 420.7" style="fill:#ffbf9d"/><path d="M472.22,246.25s-26,10.3-33.46,26.35-18.88,123.75-23.41,134.81-7.93,19.82-7.93,19.82,13.08,11,26.24,11.84S472.22,246.25,472.22,246.25Z" style="fill:#f8b500"/><path d="M493.63,237s-27,66.6-27.75,80.08S462.7,537.5,462.7,537.5s1.59,9.51-16.65,5.55-23-7.93-23-7.93,17.44-127.65,12.69-172.05,36.47-116.82,36.47-116.82Z" style="fill:#f8b500"/><path d="M371.15,851.65l15.8.48a9.13,9.13,0,0,0,7.33-3.31c10.62-12.86,47.65-61,69.88-131.74q.92-2.9,1.93-5.88c14.32-41.75,44-94.16,59.65-141.6,2.49-7.56,4.73-14.67,6.73-21.4.64-2.16,1.27-4.27,1.86-6.36L517.7,529.23s-49.94,80.87-65.4,157C438.87,752.32,385.08,831.87,371.15,851.65Z" style="fill:#4d4d4d"/><path d="M516,693.3c-.27,35,1.39,113.06,5.65,151.2a6.89,6.89,0,0,0,6.86,6.13h11.79c5,0,8.68,0,11.15-.07a4.53,4.53,0,0,0,4.37-3.66c11.72-59.64,20.11-109.2,26.25-152,5.14-35.84,9.7-66.56,13.22-93,3.54-26.62,6-48.91,6.87-67.74q.2-4.45.29-8.65t0-8.21l-97.6-9.52C506.09,572.62,516.12,671.79,516,693.3Z" style="fill:#666"/><path d="M540.26,850.63c4.46,0,7.92,0,10.36-.06a5.5,5.5,0,0,0,5.32-4.44c11.64-59.3,20-108.61,26.1-151.24,5.14-35.84,9.7-66.56,13.22-93,3.54-26.62,6-48.91,6.87-67.74l-35.81,21.07s22.86,8.06,14.14,69.12S552.4,842,540.26,850.63Z" style="fill:#4d4d4d"/><path d="M535.65,533.54s6.87,24.84,30.66,21.67,57.61-17.44,57.61-17.44-10.16-32.12-22.8-74.32c-15.3-51.08-34.24-116.94-43.17-158.48a257.1,257.1,0,0,1-4.85-28.32l-19.73-38.29s-29.42,66-31,82.69S535.65,533.54,535.65,533.54Z" style="fill:#f8b500"/><path d="M559.4,318.57l-26-80.21c.07,0,32.9,9.77,49.41,18.11,0,0,10.32,13.31,16.71,44,0,0,6.75,73.7-8.32,100.66,0,0-47.57,9.51-123.69-16.65V367s83.25,4.36,100.3,6.34Z" style="fill:#ffbf9d"/><path d="M536.7,355.93c1.06,27,7.41,79.29,64,107.3l.45.21c-15.3-51.08-34.24-116.94-43.17-158.48C547.56,320.49,536.13,341.09,536.7,355.93Z" style="fill:#f5a200"/><path d="M533.35,238.36s48.28,3.4,59.91,29.3,15.33,112.06.53,137.43c0,0-20.38,5.8-56.42-.94L536,403.9s-11.5-28.15-1.19-33.7c0,0,30.39,1.59,27.22-8.46S533.35,238.36,533.35,238.36Z" style="fill:#f8b500"/><path d="M412.3,377.81l1.42,4.57,79.22-24.65a3,3,0,0,0,.54-2.8,2.24,2.24,0,0,0-2-1.77Z" style="fill:#f5a200"/><polygon points="406.57 382.13 412.3 377.81 413.73 382.38 406.57 382.13" style="fill:#f5a200"/><path d="M394,486s-20.1,11.11-22.74,19.57-.83,26.18,2.36,25.91,8-19,10.59-20.36,6.35-5.29,6.35-2.38-2.64,8.2-1.32,9,5.55-7.4,8.46-9,4.13-14.66,7-18.18S394,486,394,486Z" style="fill:#ffbf9d"/><path d="M467.46,367s-18-11.07-25.51-9.37-26.76,15.62-17.51,18.63,16.73-.15,20.28,2,6.18,6.19,22.74,6.14S467.46,367,467.46,367Z" style="fill:#ffbf9d"/></g><rect x="106.37" y="145.18" width="181.72" height="66.88" rx="12.5" ry="12.5" style="fill:#0095d8"/><path d="M156.28,171.07c.25.1.4.22.4.38s-.22.4-.67.6a16,16,0,0,1-5.75,8.3l-1.87-1.57a14.07,14.07,0,0,0,3.67-3.77,15.29,15.29,0,0,0,1.8-4.32Zm3.52,5.47c.32.1.5.22.5.38s-.2.33-.58.57a92.56,92.56,0,0,1-3.95,8.67c3.1-.18,6.07-.45,8.87-.85a40.94,40.94,0,0,0-2.8-3.7l1.67-1.37a48.12,48.12,0,0,1,5.85,8l-2.15,1.47c-.45-.9-.92-1.72-1.37-2.47l-14.15,1.67c-.3.4-.55.6-.77.6a.42.42,0,0,1-.47-.4l-.9-2.72c1.3,0,2.55,0,3.77-.1a43.93,43.93,0,0,0,1.9-4.07,54.67,54.67,0,0,0,2.35-6.57Zm4.7-8.42a12.55,12.55,0,0,0,2.22,6.5,23.62,23.62,0,0,0,4.5,4.25L169,180.45a22.2,22.2,0,0,1-5-5.3,11.37,11.37,0,0,1-1.77-5h-6v-2Z" style="fill:#fff"/><path d="M194.28,168.22v18.85q0,1.72-2,2.25a13.59,13.59,0,0,1-3.15.4l-.87-2.35,2.6,0c.75,0,1.12-.33,1.12-.92v-16h-16.9v-2.15Zm-5.17,4.6v2H176.23v-2Zm-1.17,4.6v8h-8.57v1.65h-2.25v-9.65Zm-2.15,5.95v-3.9h-6.42v3.9Z" style="fill:#fff"/><path d="M210,168.15a.64.64,0,0,1,.28.48c0,.15-.23.27-.67.4-.3.4-.6.75-.87,1.08h6.85l.35-.5a.73.73,0,0,1,.5-.3c.2,0,.37.15.55.4l1,1.17a.82.82,0,0,1,.17.38c0,.2-.27.4-.77.6-2.9,3.72-5.67,6.27-8.27,7.67-.25.15-.52.3-.77.42H218.5v9.57h-2.35v-1h-8.87v1.17h-2.35v-8.07a45.28,45.28,0,0,1-4.87,1.82l-1.57-1.85a35.22,35.22,0,0,0,8.32-3.17,17.35,17.35,0,0,0-2.45-2.6l1.55-1.27a23.6,23.6,0,0,1,2.95,2.67c.2-.12.38-.25.58-.4a23.54,23.54,0,0,0,4.65-4.7h-7.22c-.3.28-.55.5-.8.7a23.88,23.88,0,0,1-5.22,3.2l-1.65-1.67a21.87,21.87,0,0,0,4.07-2.22,17.26,17.26,0,0,0,2.27-1.9,24.25,24.25,0,0,0,2.52-3.1Zm6.12,18.35V182h-8.87v4.5Z" style="fill:#fff"/><path d="M231.68,168.17c.2.13.3.25.3.35s-.1.25-.3.3a1.73,1.73,0,0,0-.62.2,16.79,16.79,0,0,1-2.1.83v3.95h3.32v2h-2.95a21.86,21.86,0,0,0,2.95,5.27l-1.75,1.07a25.26,25.26,0,0,1-1.57-2.95v10.47h-2V179.17c-.12.45-.22.88-.32,1.28a40,40,0,0,1-1.33,4.3l-2.07-1.37a24.07,24.07,0,0,0,1.85-3.77q.49-1.24,1.2-3.75h-2.75v-2H227v-3.45c-.67.15-1.4.3-2.15.42l-1.37-1.65a23.23,23.23,0,0,0,3.9-.8,14,14,0,0,0,2.95-1.28Zm8.9,4.85-1.6.92.9.08c.33,0,.5.13.5.27s-.15.28-.4.48v.6h5.27v8h1.07v1.85h-1.07v2.35a1.79,1.79,0,0,1-1.4,1.82,8.51,8.51,0,0,1-2.2.33l-.77-1.95,1.7-.05c.48,0,.73-.27.73-.75v-1.75h-8.4v4.5H233v-4.5H231.6v-1.85H233v-8H238V173.9l.85,0c-.5-.95-1-1.92-1.62-2.87l1.75-.9Q239.9,171.64,240.58,173Zm2.8-4a83.24,83.24,0,0,1-9.65,1.27l-1.35-1.85a50,50,0,0,0,5.77-.42,48.18,48.18,0,0,0,5.35-1l1.52,1.42a.54.54,0,0,1,.13.35c0,.15-.1.2-.27.2l-.6-.12A6.92,6.92,0,0,0,243.38,169Zm-7.2,4.8-1.55.87c-.62-1-1.3-2.07-2-3.12l1.65-.77C235,171.8,235.6,172.8,236.18,173.8Zm1.85,5.47v-2.15H234.9v2.15Zm0,4.1V181H234.9v2.35Zm2-4.1h3.32v-2.15H240Zm3.32,4.1V181H240v2.35Zm2.3-12.67c.23.1.35.17.35.28s-.15.27-.4.37a14.54,14.54,0,0,1-2.25,3.42l-1.65-1.08a16.7,16.7,0,0,0,2.45-3.7Z" style="fill:#fff"/><rect x="106.37" y="245.18" width="181.72" height="66.88" rx="12.5" ry="12.5" style="fill:#0095d8"/><path d="M191.19,270H172.74v16.87h19v2h-19v.9h-2.25V267.95h20.69Zm-9.75,8.77v6.95h-6.95v-6.95Zm-2,1.85h-2.85v3.22h2.85Zm8.2-9.37v6.35H176.84v-6.35Zm-2,1.88h-6.65v2.62h6.65Zm4.67,5.65v6.95h-7v-6.95Zm-2,1.85h-2.92v3.22h2.92Z" style="fill:#fff"/><path d="M204.89,273.7v-6.45l2,.17c.38,0,.58.15.58.33s-.15.27-.4.47v5.47h2.15v2H207v6.67c.75-.17,1.5-.37,2.25-.62v1.95q-1.84.71-5.77,1.87c-.15.33-.32.48-.47.48s-.27-.12-.3-.37l-.58-2.35c.92-.12,1.83-.27,2.72-.47v-7.15h-2.15v-2Zm12.2,10.75c-1.55.55-4,1.3-7.32,2.25-.15.25-.33.38-.47.38s-.25-.1-.28-.35l-.5-2.17a49.14,49.14,0,0,0,8.57-1.95Zm.55-13c0-1.4,0-2.87,0-4.47l2,.37c.27.05.42.15.42.3a1.13,1.13,0,0,1-.3.67c0,1.1,0,2.15,0,3.12h5.35v2h-5.27a57.17,57.17,0,0,0,.7,7.07.72.72,0,0,0,0,.25,36.15,36.15,0,0,0,2.37-5.65l2,.85a.51.51,0,0,1,.25.4c0,.15-.2.28-.6.4a39.74,39.74,0,0,1-3.37,6.75,13.39,13.39,0,0,0,.92,2.42c.3.6.58.88.8.88s.48-.87.88-2.62l1.75,1.47c-1,2.65-1.83,4-2.52,4s-1.3-.67-2.15-2a12.6,12.6,0,0,1-1.15-2.32,19.75,19.75,0,0,1-1.8,1.72,32.06,32.06,0,0,1-3.6,2.57l-1.55-1.58a17.86,17.86,0,0,0,3.8-2.47,12.41,12.41,0,0,0,2.42-2.42,23.36,23.36,0,0,1-.67-2.95,57.7,57.7,0,0,1-.65-6.8h-8v-2Zm-1.12,3.92v6.32h-6.45v-6.32Zm-1.95,1.75H212v2.82h2.55Zm9.95-7.22-1.45,1.35a17.63,17.63,0,0,0-2.55-2.32l1.38-1.27A17.88,17.88,0,0,1,224.51,269.9Z" style="fill:#fff"/><rect x="106.37" y="345.18" width="181.72" height="66.88" rx="12.5" ry="12.5" style="fill:#0095d8"/><path d="M181.47,367.32c.35,0,.55.15.55.33s-.15.27-.4.47v.9h9.77v1.85h-3.67l.95.88c-1.15.55-2.35,1-3.57,1.5,1.65.52,3.15,1,4.55,1.52l-1,1.07h2.85v2H172.94v2.15a29.51,29.51,0,0,1-.45,5.3,19.27,19.27,0,0,1-1.3,4.47L169,388.64a15,15,0,0,0,1.3-3.82,26.39,26.39,0,0,0,.45-4.87v-4.1h2.95l-1.58-1.07c2.63-.42,4.95-.9,7-1.4-2-.53-4-1-6-1.53l.95-1h-4.37V369h9.77v-1.87Zm-4.27,11.32c.2.08.32.17.32.33s-.2.35-.57.5c0,.25-.1.48-.15.67h4.75V378.3l2,.17c.35,0,.55.13.55.3s-.12.3-.37.5v.87h6.62V382h-6.62v1.75h5.65v1.87h-5.65v1.75h7.8v1.85H173.24v-1.85h8.3v-1.75h-5.17v-1.87h5.17V382h-5.3a.45.45,0,0,0,0,.13,10.69,10.69,0,0,1-1.4,2.42l-1.55-1.27a9.79,9.79,0,0,0,1.3-2.33,18.37,18.37,0,0,0,.65-2.65Zm5.22-6.17c1.32-.42,2.85-.95,4.55-1.6H176.22C178.42,371.4,180.49,371.92,182.42,372.47Zm5,3.37c-1.7-.55-3.42-1.1-5.17-1.6a57.42,57.42,0,0,1-5.6,1.6Z" style="fill:#fff"/><path d="M212.67,367c.35,0,.52.1.52.25s-.12.35-.37.6v3h2.33v-4l1.9.13c.35,0,.55.1.55.25s-.15.35-.4.6v3h1.45l2.07-3.62,1.6.85c.22.13.35.23.35.33s-.15.35-.4.5l-1.37,1.95h3.52v1.95h-5l-.87,2.15H223v1.95H215v1.47h7.15v1.85H215v1.37h9.77v2h-8.55a17.7,17.7,0,0,0,3.6,1.87,35.73,35.73,0,0,0,5.62,1.63l-2.32,2.15a27.37,27.37,0,0,1-4.7-2A16.74,16.74,0,0,1,215,384.7V390h-2.22v-5.3a20.41,20.41,0,0,1-3.77,2.65,28.24,28.24,0,0,1-4.92,1.88l-2-1.95a36.19,36.19,0,0,0,6.07-2,18.07,18.07,0,0,0,3.07-1.75h-8.37v-2h9.87v-1.37h-7.15V378.4h7.15v-1.47h-8V375h4.52l-.7-2.15h-5.27v-1.95h3.82a20.16,20.16,0,0,0-1.67-2.25l1.45-1.37a22.72,22.72,0,0,1,2.67,3.62h1.15v-4Zm3.47,8,.88-2.15h-6.07l.67,2.15Z" style="fill:#fff"/><rect x="106.37" y="445.18" width="181.72" height="66.88" rx="12.5" ry="12.5" style="fill:#0095d8"/><path d="M175.42,468.1c.22.13.35.23.35.33s-.15.35-.4.5l-2.72,3.22c.6.43,1.2.85,1.77,1.28l2-2.85,1.6,1a.49.49,0,0,1,.27.42c0,.15-.17.22-.5.28l-4.35,5.57c.92-.08,1.85-.17,2.75-.28q-.23-.67-.45-1.27l1.75-.4a22.78,22.78,0,0,1,.92,2.92c0-.95.05-2,.05-3.12v-7.62l1.37.47a46.9,46.9,0,0,0,4.8-.42,47.55,47.55,0,0,0,5.35-.92l1.45,1.35a.53.53,0,0,1,.13.33c0,.15-.1.2-.3.2l-.53-.12a7.38,7.38,0,0,0-.92.1,77.54,77.54,0,0,1-9.27,1.25v1h10.25v5.27H180.57c0,.57,0,1.1,0,1.57h11v9.37a1.76,1.76,0,0,1-1.12,1.82,5.23,5.23,0,0,1-1.7.33l-.5-1.22v.72h-1.65v-4.47h-1.37v4.47h-1.65v-4.47h-1.37v5h-1.85v-7.57a26.06,26.06,0,0,1-.85,4.45,19.79,19.79,0,0,1-1.2,3.12l-1.87-1.27q.6-1.2.9-2a.47.47,0,0,1,0-.17l-1.22.28c-.25-1.7-.52-3.25-.87-4.7l1.85-.37c.27,1.17.5,2.3.67,3.35a12.87,12.87,0,0,0,.32-1.7c.1-.82.2-1.85.25-3.07l-1.45.25c-.1-.35-.17-.7-.25-1-.55.1-1.15.17-1.8.25v10.17h-2v-9.9c-.77.1-1.6.22-2.45.32a.69.69,0,0,1-.47.3c-.15,0-.25-.1-.25-.33l-.45-1.92c.63,0,1.25-.08,1.88-.12l2.12-3q-2.14-1.57-3.9-2.77l1.17-1.55c.2.13.38.25.57.35l2.75-3.87Zm-3.55,13.55c.25,0,.38.1.38.25s-.1.25-.27.4q-.15,2.59-.3,3.82a15.85,15.85,0,0,1-.4,1.83l-1.95-.37a11.69,11.69,0,0,0,.45-1.8,36.35,36.35,0,0,0,.35-4.25Zm16.9-6.67v-2h-8.2v2Zm-5.17,8v-3h-1.37v3Zm1.65,0h1.38v-3h-1.37Zm3,0h1.37v-3h-1.37Zm0,4.77.88,0c.32,0,.5-.27.5-.75v-2.22h-1.37Z" style="fill:#fff"/><path d="M211.44,475.85v1.85h-4.72c-.17.8-.35,1.6-.55,2.35h4.6a38.69,38.69,0,0,1-.7,5.82,4,4,0,0,1-1.7,2.9,7.74,7.74,0,0,1-3.95.75l-.6-1.95q3.11,0,3.82-.83c.4-.5.75-2.15,1.08-4.95h-3c-.22.75-.45,1.47-.7,2.15l-2-.48a48.33,48.33,0,0,0,1.62-5.77h-1.92v-1.85Zm-1-7.52v5.87h-6.95v-5.87Zm-2,1.67h-3v2.52h3Zm9.67-2.77c.38.05.58.15.58.33s-.15.28-.4.5v.47h5.27v1.58h-5.27v1.25h6.55v3.92h-2v-2.15h-4.3v1.62l3.7-.65.2,1.65-3.9.67v.5c0,.8.17,1.17.58,1.17h2.35a1.26,1.26,0,0,0,.8-.23,2.44,2.44,0,0,0,.48-1.25l1.95.6a2.86,2.86,0,0,1-1,1.85,3.14,3.14,0,0,1-1.82.47h-3c-1.5,0-2.25-.5-2.25-1.55v-1.25l-2.15.38-.1-1.67,2.25-.37v-1.95h-2.45v4.37a31.44,31.44,0,0,1-.67,6.85,33,33,0,0,1-1.85,5.65l-2-1a25.48,25.48,0,0,0,1.82-5.17,31,31,0,0,0,.7-6.35v-6.15h4.1V467Zm-.55,13.72c.27.05.42.15.42.28a.52.52,0,0,1-.37.47,18.59,18.59,0,0,0-.1,2,10.42,10.42,0,0,1-.35,2.8,6.3,6.3,0,0,1-.87,1.8,8.68,8.68,0,0,1-1.6,1.55l-2.15-.9a6.78,6.78,0,0,0,1.75-1.3,3.91,3.91,0,0,0,.92-1.57,6.82,6.82,0,0,0,.35-2.37v-2.95Zm4.17.2q.45.07.45.38c0,.2-.15.4-.42.6a.79.79,0,0,0-.35.75v2.85a3.13,3.13,0,0,0,.28,1.52c.15.25.42.35.88.4a1.33,1.33,0,0,0,.6-.25c.2-.15.35-.6.5-1.4l1.95.88a4.37,4.37,0,0,1-.9,2.13,1.72,1.72,0,0,1-1.15.42h-1.45a2.57,2.57,0,0,1-2.1-.87,3.6,3.6,0,0,1-.65-2.35v-5.37Z" style="fill:#fff"/><rect x="739.34" y="145.18" width="181.72" height="66.88" rx="12.5" ry="12.5" style="fill:#0095d8"/><path d="M804,167.72c.25.13.4.25.4.4s-.22.3-.67.4a5.91,5.91,0,0,1-.47.4h7l.48-.3a1.09,1.09,0,0,1,.52.17l1.13.7a.43.43,0,0,1,.2.3c0,.2-.18.4-.48.57l-3,2h5v13H809a34,34,0,0,0,7.5,2.35l-1.87,2a36.86,36.86,0,0,1-7.8-3.42l1-1H802.1l1.1.83a.52.52,0,0,1,.23.35c0,.13-.17.23-.48.3a46.69,46.69,0,0,1-7.12,2.92l-1.87-1.85a25.87,25.87,0,0,0,6.95-2.55h-4.6V173.45c-.25.13-.52.25-.77.35l-1.85-1.65a22.4,22.4,0,0,0,4.6-2.2,25.54,25.54,0,0,0,3.8-3Zm2.25,4.6,2.12-1.75h-7.2l-1,.75a17.13,17.13,0,0,1-1.62,1Zm5.67,3.72v-1.67H798.55V176Zm0,3.6V177.9H798.55v1.75Zm0,1.87H798.55v1.75h13.37Z" style="fill:#fff"/><path d="M839,176.82v9.77h-4.6a62.8,62.8,0,0,0,7.15,1.27l-1.77,1.85a50.13,50.13,0,0,1-8-2.25l.8-.87h-4.77l.65.47a.43.43,0,0,1,.2.3c0,.13-.15.2-.4.3a77.58,77.58,0,0,1-7.7,2l-1.67-1.58a38.33,38.33,0,0,0,6.55-1.55h-4.1v-9.77Zm-9.95-8.1V167l2,.17c.38.05.57.15.57.33s-.15.33-.4.58v.6h9.37v1.65h-9.37v1.08h8.6V173h-8.6v1.08h10.17v1.75H818.95V174.1H829V173h-8.3v-1.57H829v-1.08h-9.1v-1.65Zm7.7,10.92V178.5H823.55v1.15Zm0,2.65v-1.17H823.55v1.17Zm0,1.45H823.55v1.17h13.17Z" style="fill:#fff"/><path d="M856.6,167.55c.42,0,.65.1.65.3s-.2.53-.6.78V170a32.63,32.63,0,0,1-.37,5.17,23.11,23.11,0,0,0,3.17,5.95,29.55,29.55,0,0,0,7.25,6.55l-2.82,1.75a38.81,38.81,0,0,1-6.55-7.32,27.66,27.66,0,0,1-1.85-3.55c-.1.28-.17.53-.25.73a16.21,16.21,0,0,1-4.17,6,27.55,27.55,0,0,1-5.15,4l-2-1.85a29.08,29.08,0,0,0,4.85-3.35,14.89,14.89,0,0,0,3.87-4.92,22.22,22.22,0,0,0,1.72-9.2v-.8a14.88,14.88,0,0,0-.17-1.85Z" style="fill:#fff"/><rect x="739.34" y="245.18" width="181.72" height="66.88" rx="12.5" ry="12.5" style="fill:#0095d8"/><path d="M794.55,268.72v-1.37l2,.18c.38,0,.58.13.58.32s-.12.33-.37.58v.3H802V272h2.22V274H802v3.32H796.8v1.55h5.45v1.95H796.8v1.58h6v2h-6v2.75c1.33,0,2.82.08,4.47.08.75,0,1.72,0,2.92-.1l-1.08,2.45a100.59,100.59,0,0,1-10.1-.4,21.46,21.46,0,0,1-4.72-1,11.69,11.69,0,0,1-2.45-1.17,10.86,10.86,0,0,1-3,2.83l-1.65-1.78a8.07,8.07,0,0,0,2.87-2.47,15.65,15.65,0,0,1-2.5-3.67l1.77-.67a19.35,19.35,0,0,0,1.85,2.42,18,18,0,0,0,1.17-5.75h-2l-.8,1.65-1.95-.67,3.82-8h-3.72v-2h4.2l.6-.2a1.07,1.07,0,0,1,.58.2l1.22.75a.48.48,0,0,1,.25.32q0,.34-.6.67l-2.6,5.27h3.2c-.15,4-.62,7-1.42,8.87a2.65,2.65,0,0,1-.17.38,10.18,10.18,0,0,0,3.7,1.42,22.43,22.43,0,0,0,3.95.47v-2.65h-6v-2h6v-1.58h-5.27v-1.95h5.27v-1.55h-4.7v-1.95h4.7V274H787.8V272h6.75v-1.37h-4.7v-1.95ZM796.8,272h3v-1.37h-3Zm0,3.32h3V274h-3Z" style="fill:#fff"/><path d="M824.82,275.27c.3.1.47.22.47.38s-.2.35-.57.6c-.92,3-2.12,6.35-3.62,9.95h7.82v2.15H806.45v-2.15H818.8c.7-1.7,1.27-3.22,1.72-4.62a74.28,74.28,0,0,0,2-7.2Zm-6-7.85c.4,0,.62.15.62.33s-.17.33-.5.58v3.22h8.9v2H807.72v-2h8.9v-4.3Zm-2.9,16.82-2.15.4a62.28,62.28,0,0,0-2.72-8.9l2.15-.47A46.73,46.73,0,0,1,815.92,284.25Z" style="fill:#fff"/><path d="M839.27,269.3v16.8h-2.15v-1.28H834.3v2.35h-2.15V269.3Zm-2.15,7v-5.1H834.3v5.1Zm0,6.52V278.1H834.3v4.77Zm8.5-12.6V267l2,.17c.35.05.55.15.55.33s-.12.28-.37.5v2.22h6v2h-6v3.12h5.45v2h-2.72v2.52H854v2h-3.52v5.07a2,2,0,0,1-.95,1.82c-.53.4-1.83.63-3.92.63l-.87-2.15H847c.8,0,1.25-.22,1.3-.67V282h-8.1v-2h8.1v-2.52h-7.52v-2h4.8v-3.12h-5.37v-2Zm0,15-1.67,1.47a16.82,16.82,0,0,0-2.62-2.35l1.55-1.47A19.57,19.57,0,0,1,845.62,285.32Z" style="fill:#fff"/><path d="M866.32,267.75v8.4H859v13.37h-2.15V267.75Zm-2.15,3.42V269.6H859v1.57Zm0,3.12v-1.47H859v1.47Zm8.7,3.2v8.8h-8.5v1h-2.15V277.5Zm-2.15,3.42v-1.55h-6.35v1.55Zm0,3.52v-1.67h-6.35v1.67ZM869,276v-8.3h9.47v19.42c0,1-.65,1.75-1.95,2.08a12.68,12.68,0,0,1-3,.37l-.87-2.15,2.6,0c.72,0,1.1-.33,1.1-.92V276Zm2.15-6.55v1.58h5.17V269.5Zm0,3.22v1.57h5.17v-1.57Z" style="fill:#fff"/><rect x="739.34" y="345.18" width="181.72" height="66.88" rx="12.5" ry="12.5" style="fill:#0095d8"/><path d="M789.85,368v1.75h-1.17v19.82h-1.95v-4.55c-1.1.3-2.55.65-4.3,1-.15.27-.33.4-.47.4s-.25-.12-.28-.37l-.5-2.17c.4,0,.83-.08,1.25-.12v-14h-1.08V368Zm-3.12,1.75h-2.35v3.12h2.35Zm0,4.87h-2.35v3.22h2.35Zm0,8.5v-3.52h-2.35v3.92C785.17,383.47,785.95,383.32,786.72,383.17Zm7.22-15.22c.2.1.3.2.3.27s-.15.3-.4.4l-1.82,2.7c.4.25.75.5,1.1.75l1.32-2.27,1.42.9a.44.44,0,0,1,.23.38c0,.15-.12.22-.37.27l-3.12,4.95c.55,0,1.12-.12,1.67-.2-.15-.45-.27-.92-.42-1.42l1.58-.37a23.22,23.22,0,0,1,1.07,3.9l-1.75.38c-.05-.33-.1-.65-.15-1-1.1.23-2.5.5-4.25.83-.15.2-.27.27-.4.27s-.2-.07-.2-.27l-.37-1.77c.4,0,.8,0,1.2-.1l1.78-3.1c-1-.65-2-1.33-3.17-2l1-1.27c.17.1.33.2.48.27l2-3.2ZM792.1,379.4c.32,0,.5.1.5.25s-.15.3-.4.5V383h1.95v-2.42c0-.4,0-.9-.1-1.47l1.95.15c.33,0,.5.1.5.25s-.17.38-.5.58v3.8a6.46,6.46,0,0,1-.57,2.82,5.24,5.24,0,0,1-1.65,1.83,11.68,11.68,0,0,1-2.07,1.22l-1.55-1.47a15,15,0,0,0,1.85-.85,4.59,4.59,0,0,0,1.5-1.22,3.62,3.62,0,0,0,.55-1.42H792.2v1.15h-1.85v-6.62Zm8.77-11.45c.2.1.3.2.3.27s-.12.3-.37.4L799.15,371c.45.35.85.65,1.2,1l1.52-2.7,1.42.9a.44.44,0,0,1,.22.38c0,.15-.15.25-.4.3l-3,5.07q.79-.08,1.57-.23c-.15-.35-.32-.75-.47-1.15l1.47-.37a20.33,20.33,0,0,1,1.47,4l-1.67.38a11.09,11.09,0,0,0-.32-1.4c-1.12.25-2.65.57-4.55.92-.15.2-.28.3-.4.3s-.2-.1-.2-.3l-.37-1.75,1.42-.15,1.5-2.7a38.59,38.59,0,0,0-3.22-2.42l1.08-1.27.42.3,1.72-2.85ZM799.4,379.1c.35,0,.52.13.52.28s-.15.28-.4.47V383h1.95v-3.7l1.83.13c.35,0,.52.1.52.25s-.15.3-.4.5v6.45h-2v-1.78h-1.95v4.8h-1.95V379Z" style="fill:#fff"/><path d="M812.35,368.1c.22.13.35.23.35.33s-.12.35-.37.5l-2.5,3c.55.35,1.07.72,1.62,1.07l2-2.5,1.6,1a.59.59,0,0,1,.25.42c0,.15-.17.25-.5.3l-4.62,5.32c1.13-.1,2.22-.22,3.27-.37-.15-.42-.33-.85-.5-1.25l1.95-.4a26.35,26.35,0,0,1,1.13,3.07,25.5,25.5,0,0,0,4.85-2.3,5.15,5.15,0,0,1-.5-.58,11.46,11.46,0,0,1-1.62-2.55c-.6.78-1.25,1.53-1.9,2.25l-1.95-1a22.82,22.82,0,0,0,5.07-7.22l2.07.5c.3,0,.47.15.47.3s-.22.33-.67.47c-.25.48-.52.92-.77,1.38h5.32a1.07,1.07,0,0,1,.53-.2l.3.2.9,1a1.14,1.14,0,0,1,.15.45q0,.23-.67.6a15.36,15.36,0,0,1-3,4.1l-.48.45a6.89,6.89,0,0,0,1,.5,15,15,0,0,0,4.17,1.5l-1.35,2a19.55,19.55,0,0,1-4.2-1.85,7.22,7.22,0,0,1-1.2-.83l-.65.42a30.4,30.4,0,0,1-4.6,2.25l-1-1.08c0,.2.08.4.13.58l-1.95.4c-.12-.5-.25-1-.4-1.45-.45.08-.9.15-1.37.2v10.62h-2.15v-10.3c-1,.15-2,.28-3.2.42-.17.28-.35.4-.5.4s-.23-.1-.23-.33l-.45-2c.55,0,1.1-.08,1.62-.12l2.47-3.17c-1.35-1-2.6-1.75-3.72-2.45l1.17-1.57c.17.1.38.22.57.33l2.55-3.65Zm-2.67,14c.2,0,.3.13.3.3a.87.87,0,0,1-.4.58,31.28,31.28,0,0,1-1.35,5.47l-2-.67a17.47,17.47,0,0,0,.85-2.45,28.74,28.74,0,0,0,.7-3.8Zm7,5.47-1.95.38a52,52,0,0,0-1.55-6l1.95-.37A34.66,34.66,0,0,1,816.7,387.57Zm10.65-7v9.17H825.2v-1.37H820v1.38h-2.15v-9.17Zm-5.55-5.95a5.82,5.82,0,0,0,.55.55,13.65,13.65,0,0,0,1.2-1.2,18.6,18.6,0,0,0,1.62-2.3h-5.22A10.41,10.41,0,0,0,821.8,374.6Zm3.4,11.8v-3.9H820v3.9Z" style="fill:#fff"/><path d="M844.1,367.55c.42,0,.65.1.65.3s-.2.53-.6.78V370a32.63,32.63,0,0,1-.37,5.17,23.11,23.11,0,0,0,3.17,5.95,29.55,29.55,0,0,0,7.25,6.55l-2.82,1.75a38.81,38.81,0,0,1-6.55-7.32,27.66,27.66,0,0,1-1.85-3.55c-.1.28-.17.53-.25.73a16.21,16.21,0,0,1-4.17,6,27.55,27.55,0,0,1-5.15,4l-2-1.85a29.08,29.08,0,0,0,4.85-3.35,14.89,14.89,0,0,0,3.87-4.92,22.22,22.22,0,0,0,1.72-9.2v-.8a14.88,14.88,0,0,0-.17-1.85Z" style="fill:#fff"/><path d="M862.5,368.52v-1.27l1.85.15c.33,0,.5.1.5.25s-.12.27-.37.47v.4h4.77v2.82h1.27V373h-1.27v2.82h-4.77v1H869a17.81,17.81,0,0,0,1.92-4.3,33.14,33.14,0,0,0,1-5.07l2.17.35c.25.1.38.2.38.33s-.23.42-.67.6c-.2,1.15-.37,2.13-.55,2.92h5.62v2h-1a36.67,36.67,0,0,1-.62,7,15.52,15.52,0,0,1-1.37,4,18.59,18.59,0,0,0,3.35,3.12l-1.65,1.75a21.52,21.52,0,0,1-2.92-2.95,14.27,14.27,0,0,1-3.32,2.95l-1.75-1.75a8.52,8.52,0,0,0,3.62-2.75,1.14,1.14,0,0,0,.2-.28,4.06,4.06,0,0,1-.48-.85,18.08,18.08,0,0,1-1.75-6.6c-.17.35-.35.7-.53,1l-1.17-1v3.75h-5.72c-.2.4-.42.75-.62,1.07h7.62v1.75H868.4a10.91,10.91,0,0,1-1.9,2.75,30.52,30.52,0,0,1,3.15,1.55l-1.47,1.47a30.69,30.69,0,0,0-3.3-1.72,9.88,9.88,0,0,1-2.1.95,26.89,26.89,0,0,1-4.95.78,10.94,10.94,0,0,0-1.17-1.85,28.63,28.63,0,0,0,4.87-.55,4.77,4.77,0,0,0,.85-.25c-.75-.2-1.52-.4-2.35-.6a4.72,4.72,0,0,1-.45.5l-1.95-.48a23.52,23.52,0,0,0,2.1-2.55h-2.87V382.2h4.07c.22-.35.42-.72.63-1.07h-3.92v-4.3h4.87v-1h-4.67V373h-1.37v-1.67h1.37v-2.82Zm-2.92,9.87v1.15h2.92V378.4Zm2.92-7v-1.17h-2.72v1.17Zm0,1.67h-2.72v1.17h2.72Zm-.5,10.92c-.27.4-.55.75-.8,1.1,1.2.27,2.27.57,3.27.9a8.1,8.1,0,0,0,1.72-2Zm2.47-12.6h2.82v-1.17h-2.82ZM867.3,373h-2.82v1.17h2.82Zm.2,6.52V378.4h-3v1.15Zm5.45-2.72a15.18,15.18,0,0,0,1.6,5.95c.15-.4.3-.83.42-1.27a29,29,0,0,0,.92-7.8h-3.22a.25.25,0,0,0,0,.1,20,20,0,0,1-1.3,3.2Z" style="fill:#fff"/><rect x="739.34" y="445.18" width="181.72" height="66.88" rx="12.5" ry="12.5" style="fill:#0095d8"/><path d="M823.58,468.32v2.15H811.34l-.73,3.32h10.92l-1.9,12.8h5.12v2.25H802.29v-2.25h15l.55-3.62h-9.22l-.35,1.57-2.35-.1,3.1-14h-5.55v-2.15Zm-4.72,7.62h-8.72l-1,4.87h9.07Z" style="fill:#fff"/><path d="M845.91,469.4a25.45,25.45,0,0,1-2.67.5v1.45h5.17v1.88h-5.17v1.15h4.67V482h-4.67v1.28h4.5v1.85h-4.5v1.4q2.47-.23,4.87-.53v1.13a14.93,14.93,0,0,0,1.47-3,28.76,28.76,0,0,0,1.1-5.17c.13-1.08.22-2.7.27-4.9h-2v-2h2c0-1.37,0-2.9,0-4.6l2,.1c.35,0,.53.1.53.2a1.48,1.48,0,0,1-.4.47c0,1.4,0,2.67,0,3.82h4.42a118.11,118.11,0,0,1-.42,13,6.46,6.46,0,0,1-1.17,3.57,4.08,4.08,0,0,1-3.17,1l-1.07-2.25c1.5,0,2.4-.2,2.67-.6a4.83,4.83,0,0,0,.65-2.3c.2-1.3.32-4.77.38-10.47h-2.33c-.1,2.52-.25,4.52-.45,6a30.4,30.4,0,0,1-1.12,5.15,18.33,18.33,0,0,1-2.15,4.55l-2.15-1.27c.13-.2.25-.35.35-.5q-3.67.49-10.8,1.27c-.18.25-.33.4-.48.4s-.27-.12-.27-.37l-.53-2.17c1.92-.1,3.82-.22,5.67-.37v-1.57h-4.7v-1.85h4.7V482h-4.77v-7.62h4.77v-1.15h-5.47v-1.87h5.47v-1.22c-1.35.1-2.82.15-4.37.15l-.9-1.85h2.72a23.84,23.84,0,0,0,7.72-1.17l1.6,1.65a.46.46,0,0,1,.15.4c0,.15-.05.2-.1.2a.77.77,0,0,1-.5-.17,3.57,3.57,0,0,0-.57-.12A5,5,0,0,0,845.91,469.4Zm-4.72,8v-1.28h-2.72v1.28Zm0,1.55h-2.72v1.27h2.72Zm2-1.55h2.62v-1.28h-2.62Zm2.62,1.55h-2.62v1.27h2.62Z" style="fill:#fff"/></svg>