<svg version="1.1" id="圖層_1" xmlns="http://www.w3.org/2000/svg" x="0" y="0" width="450" height="180" style="enable-background:new 0 0 450 180" xml:space="preserve">
  <style>
    .st0{fill:#f7c7c6}.st1{fill:#ef8582}.st2{fill:#eb6164}.st5{fill:#b9d98f}.st7{fill:#fff}.st10,.st9{stroke-width:.7172;stroke-miterlimit:10}.st9{fill:#cce7f3;stroke:#8bcae8}.st10{fill:#ffe893;stroke:#fdd762}.st14{fill:#f7d8d7}.st15{fill:#0d74b4}.st16{fill:#666464}.st17{fill:#d3d3d4}
  </style>
  <switch>
    <g>
      <path class="st0" d="M373.2 90.4h-6.3c-.3 0-.6.3-.6.6v13.9c0 .3.3.6.6.6h6.3c.3 0 .6-.3.6-.6V91c.1-.4-.2-.6-.6-.6z"/>
      <path class="st0" d="M368.2 104.9V91c0-.3.3-.6.6-.6h-1.9c-.3 0-.6.3-.6.6v13.9c0 .3.3.6.6.6h1.9c-.3 0-.6-.2-.6-.6z"/>
      <path class="st1" d="M385.2 87.2h-6.3c-.3 0-.6.3-.6.6v17.1c0 .3.3.6.6.6h6.3c.3 0 .6-.3.6-.6V87.8c.1-.3-.2-.6-.6-.6z"/>
      <path class="st1" d="M380.2 104.9V87.8c0-.3.3-.6.6-.6h-1.9c-.3 0-.6.3-.6.6v17.1c0 .3.3.6.6.6h1.9c-.3 0-.6-.2-.6-.6z"/>
      <path class="st2" d="M397.3 80.2H391c-.3 0-.6.3-.6.6v24c0 .3.3.6.6.6h6.3c.3 0 .6-.3.6-.6v-24c0-.3-.3-.6-.6-.6z"/>
      <path class="st2" d="M392.2 104.9v-24c0-.3.3-.6.6-.6h-1.9c-.3 0-.6.3-.6.6v24c0 .3.3.6.6.6h1.9c-.3 0-.6-.2-.6-.6zm7.8-39.3c-.3-.2-.6-.4-1-.3l-5.1.6c-.7.1-1.2.7-1.1 1.4.1.7.7 1.2 1.4 1.1l1.9-.2c-6.4 8-14.3 12.1-20 14.1-6.6 2.4-11.7 2.6-11.8 2.6-.7 0-1.2.6-1.2 1.3 0 .7.6 1.2 1.3 1.2.2 0 5.5-.2 12.5-2.7 4.1-1.5 7.9-3.4 11.4-5.8 3.6-2.5 6.8-5.5 9.6-8.8v1.5c0 .7.6 1.3 1.3 1.3s1.3-.6 1.3-1.3v-5.1c-.1-.3-.2-.6-.5-.9z"/>
      <ellipse cx="225" cy="144.6" rx="204.4" ry="15.9" style="fill:#f9f9f9"/>
      <path d="M116.7 146.8c-6.9 0-13.4-1.2-19.4-3.5-6-2.3-11.3-5.8-15.9-10.3-4.6-4.5-8.3-10.3-11-17.3-2.7-7.1-4-15-4-23.8 0-8.6 1.4-16.5 4.1-23.7C73.3 61 77 55.1 81.7 50.4c4.7-4.7 10.2-8.3 16.3-10.8 6.1-2.5 12.6-3.8 19.5-3.8 9.5 0 18.2 2.9 26.1 8.6 2.1 1.4 3.1 3.5 3.1 6.2 0 2.1-.7 3.9-2 5.6l-3.1 3.5c-1.3 1.7-3.1 2.7-5.5 2.9h-1c-2 0-3.7-.5-5.3-1.5-3.7-2.2-7.7-3.4-11.9-3.4-7.1 0-13.1 3-17.9 9.1-4.8 6-7.2 14.1-7.2 24.2 0 10.6 2.2 18.8 6.7 24.8 4.4 5.9 10.5 8.9 18.2 8.9 5 0 9.7-1.5 14.2-4.5 1.6-1.1 3.4-1.7 5.5-1.7h.6c2.2.2 4.1 1.1 5.5 2.7l2.9 3.5c1.4 1.7 2.1 3.7 2.1 5.9 0 2.5-.9 4.6-2.8 6.2-8.2 6.7-17.8 10-29 10zm133.2-9.2c.4.7.6 1.5.6 2.4 0 .8-.2 1.5-.7 2.4-.9 1.6-2.3 2.4-4.1 2.4h-12.2c-2.5 0-4.9-.7-7.1-2-2.2-1.3-3.9-3.1-5.1-5.3L205.9 108c-.4-.6-.9-.8-1.5-.8h-10.3c-.8 0-1.1.3-1.1 1v28.4c0 2.2-.8 4.2-2.4 5.8-1.6 1.6-3.6 2.5-5.9 2.5h-9.1c-2.2 0-4.2-.8-5.8-2.5-1.6-1.6-2.5-3.6-2.5-5.8V46.1c0-2.2.8-4.2 2.5-5.8 1.6-1.6 3.6-2.5 5.8-2.5h31c27.9 0 41.9 11.2 41.9 33.7 0 14.4-5.9 24.6-17.6 30.5-.6.3-.7.7-.4 1.3l19.4 34.3zm-55.8-79.5c-.8 0-1.1.3-1.1 1v26.7c0 .7.4 1 1.1 1h10.4c6.2 0 10.8-1.3 14-3.9 3.1-2.6 4.7-6.4 4.7-11.4 0-4.9-1.5-8.3-4.6-10.3-3-2-7.7-3-14.1-3h-10.4zm83.2 86.7c-2.2 0-4.2-.8-5.8-2.5-1.6-1.6-2.5-3.6-2.5-5.8V46.1c0-2.2.8-4.2 2.5-5.8 1.6-1.6 3.6-2.5 5.8-2.5h11.2c2.4 0 4.7.7 6.7 2.2 2.1 1.5 3.5 3.3 4.4 5.7L313.8 84c.6 1.8 1.2 3.7 1.8 5.9.7 2.2 1.4 4.5 2.1 7.2.7 2.6 1.4 4.7 1.8 6.2.1.2.3.3.5.3s.4-.1.4-.3c.7-2.2 1.8-5.5 3-9.8 1.3-4.3 2.2-7.4 2.9-9.4l13.6-38.3c.7-2.3 2.2-4.2 4.2-5.7 2.1-1.5 4.3-2.2 6.7-2.2h11.4c2.2 0 4.2.8 5.8 2.5 1.6 1.6 2.5 3.6 2.5 5.8v90.5c0 2.2-.8 4.2-2.5 5.8-1.6 1.6-3.6 2.5-5.8 2.5h-6.9c-2.2 0-4.2-.8-5.8-2.5-1.6-1.6-2.5-3.6-2.5-5.8v-28.4c0-6.8 1.1-19.1 3.2-36.8.1-.2 0-.3-.1-.3-.2 0-.3.1-.4.3l-8.8 25.3-11.9 32.3c-.7 2.1-2 3.7-3.7 4.8-1.7 1.2-3.7 1.8-5.8 1.8-2.1 0-4-.6-5.8-1.8-1.7-1.2-3-2.8-3.7-4.8l-12.1-32.4-8.6-25.3c-.1-.2-.2-.3-.4-.3s-.2.1-.1.3c2.2 17.7 3.2 30 3.2 36.8v28.4c0 2.2-.8 4.2-2.5 5.8-1.6 1.6-3.6 2.5-5.8 2.5h-6.4z" style="fill:#f8b500"/>
      <circle class="st5" cx="161.6" cy="119.2" r="7.2"/>
      <path class="st5" d="M164.6 127.6h-6.1c-5.1 0-9.2 4.1-9.2 9.2v7.5l.5.2c4.8 1.5 9 2 12.5 2 6.7 0 10.6-1.9 10.9-2l.5-.2h.1v-7.4c0-5.2-4.1-9.3-9.2-9.3z"/>
      <circle cx="177.9" cy="136.2" r="9.9" style="fill:#8fd3f3"/>
      <path class="st7" d="M181.1 140.4c-.3 0-.7-.1-1-.3l-3.2-2.7c-.3-.3-.5-.7-.5-1.1V131c0-.8.7-1.5 1.5-1.5s1.5.7 1.5 1.5v4.6l2.6 2.2c1 .8.5 2.6-.9 2.6z"/>
      <path class="st5" d="M40.2 108.2s-12.9-16.3-9.1-25.1c3.8-8.8 9.8-10.4 20.4-10.4s39.6-2 45.2 3.1c5.6 5.1 11 20.9-4.4 23-15.4 2.1-43.3.5-45.9.3-2.5-.1-6.2 9.1-6.2 9.1z"/>
      <path d="M385.1 107.2s12.3-10.2 18.1-1.2c5.7 9 17.3 37.5-7.3 41.4-24.7 3.8-54.2 3.4-44-7.8 10.2-11.3 24.4-27.1 33.2-32.4z" style="fill:#fadbda"/>
      <path class="st0" d="M395.4 102.4s13.3 12.4 1.4 26-34.8 18.6-42.1 8.2c-.1-.1 24.1-34 40.7-34.2z"/>
      <path class="st9" d="m361.9 137-.3-.3c-1-1-1-2.5 0-3.5l3.8-3.8c1-1 2.5-1 3.5 0l.3.3c1 1 1 2.5 0 3.5l-3.8 3.8c-1 1-2.5 1-3.5 0z"/>
      <path class="st10" d="m362.1 132.7-2 2-.7-.7c-.9-.9-2.4-.9-3.3 0s-.9 2.4 0 3.3l2.9 2.8c.9.9 2.4.9 3.3 0l3.6-3.6-3.8-3.8z"/>
      <path class="st9" d="m372 139.7-.4-.3c-1-.9-1.1-2.5-.2-3.5l3.5-4c.9-1 2.5-1.1 3.5-.2l.4.3c1 .9 1.1 2.5.2 3.5l-3.5 4c-.9 1-2.5 1.1-3.5.2z"/>
      <path class="st10" d="m371.9 135.4-1.8 2-.7-.6c-.9-.8-2.4-.8-3.3.2s-.8 2.4.2 3.3l3 2.7c.9.8 2.4.8 3.3-.2l3.4-3.8-4.1-3.6z"/>
      <path d="M380.9 134.5c8.2.9 15.5-5 16.4-13.2.8-7.6-4.2-14.5-11.5-16.1-1.7-3.8-5.3-6.6-9.8-7.1-6.4-.7-12.1 3.6-13.3 9.8-6.2 0-11.5 4.6-12.2 10.9-.7 6.7 4.1 12.8 10.8 13.5l19.6 2.2z" style="fill:#cce7f3;stroke:#8bcae8;stroke-width:.6501;stroke-miterlimit:10"/>
      <path d="m359.7 117.9 3 4.8c.5.9.3 2-.6 2.5v0c-.9.5-2 .3-2.5-.6l-3-4.8" style="fill:#cce7f3;stroke:#8bcae8;stroke-width:.6501;stroke-linecap:round;stroke-linejoin:round;stroke-miterlimit:10"/>
      <path d="m382.6 122.2-5.3 2c-1 .4-1.4 1.4-1.1 2.4v0c.4 1 1.4 1.4 2.4 1.1l5.3-2" style="fill:#cce7f3;stroke:#8bcae8;stroke-width:.6618;stroke-linecap:round;stroke-linejoin:round;stroke-miterlimit:10"/>
      <circle transform="rotate(-87.4 364.956 113.293) scale(1.00003)" class="st14" cx="365" cy="113.3" r="3.8"/>
      <path class="st15" d="M370.4 115.2c-.1 0-.2.1-.1.2.1.6.8 2.7 3.1 2.9 2.6.2 3.7-1.7 4-2.3 0-.1 0-.2-.1-.2l-6.9-.6z"/>
      <path class="st7" d="m372 115.3-.1 1.2c0 .1.1.2.2.2l2.2.2c.1 0 .2-.1.2-.2l.1-1.2-2.6-.2z"/>
      <circle transform="rotate(-87.4 383.664 114.622) scale(1.00003)" class="st14" cx="383.7" cy="114.6" r="3.8"/>
      <ellipse transform="rotate(-84.818 369.766 108.251) scale(.99999)" class="st7" cx="369.8" cy="108.3" rx="3.2" ry="2.9"/>
      <ellipse transform="rotate(-84.818 369.757 108.35) scale(.99999)" class="st15" cx="369.8" cy="108.3" rx="2" ry="1.7"/>
      <ellipse transform="rotate(-84.818 378.503 108.747) scale(.99999)" class="st7" cx="378.5" cy="108.7" rx="3.2" ry="2.9"/>
      <ellipse transform="rotate(-84.818 378.484 108.747) scale(.99999)" class="st15" cx="378.5" cy="108.7" rx="2" ry="1.7"/>
      <path class="st16" d="M369.8 104.4h.3c1.9.2 3.3 2.1 3.1 4.2-.2 2-1.7 3.6-3.5 3.6h-.3c-1.9-.2-3.3-2.1-3.1-4.2.2-2.1 1.7-3.6 3.5-3.6m0-.9c-2.2 0-4.1 1.9-4.3 4.3-.2 2.6 1.5 4.9 3.8 5.1h.4c2.2 0 4.1-1.9 4.3-4.3.2-2.6-1.5-4.9-3.8-5.1-.1.1-.2 0-.4 0zm8.8 1.4h.3c1.9.2 3.3 2.1 3.1 4.2-.2 2-1.7 3.6-3.5 3.6h-.3c-1.9-.2-3.3-2.1-3.1-4.2.1-2.1 1.7-3.6 3.5-3.6m0-.8c-2.2 0-4.1 1.9-4.3 4.3-.2 2.6 1.5 4.9 3.8 5.1h.4c2.2 0 4.1-1.9 4.3-4.3.2-2.6-1.5-4.9-3.8-5.1h-.4z"/>
      <path transform="matrix(.999 .04436 -.04436 .999 5.107 -16.493)" class="st16" d="M373.3 106.4h1.9v.9h-1.9z"/>
      <path transform="rotate(-88.794 373.155 129.837) scale(1.00002)" class="st17" d="M372.4 122.3h1.4v15.1h-1.4z"/>
      <path class="st17" d="m341.8 115.5 21 .4 4.1 14.5-21.1-.4z"/>
      <circle transform="matrix(.02126 -.9998 .9998 .02126 222.833 473.993)" cx="353.5" cy="123.2" style="fill:#efefef" r="1.9"/>
      <path d="M83.9 137.8s11.7-.1 13.9 3.7c1.3 2.2 1.3 6.5-5.4 7-5.7.5-5.5-2.3-4.4-3 1.5-1 5.9 1 6.7-1.5.8-2.5-2.5-2.7-10.3-2.6-7.8.1-.5-3.6-.5-3.6" style="fill:#cce7f3;stroke:#8bcae8;stroke-width:.6359;stroke-miterlimit:10"/>
      <path d="M77.7 147.7c6.9 0 12.6-6.3 12.6-14 0-7.2-4.9-13.1-11.2-13.9-1.6-2.2-4.8-4.1-8.6-4.1-4.9 0-9.3 2.8-10.6 7.1-5.2.6-9.2 7.3-9.2 13.3 0 6.3 4.6 11.5 10.3 11.5h16.7z" style="fill:#cce7f3;stroke:#8bcae8;stroke-width:.6702;stroke-miterlimit:10"/>
      <ellipse class="st7" cx="61.7" cy="130.4" rx="2.4" ry="2.7"/>
      <ellipse class="st7" cx="69.1" cy="130.4" rx="2.4" ry="2.7"/>
      <path d="M60.8 124.3s-3.4-2.5-4.4-1.8c-1 .7-.7 3.9-.7 3.9m20.8-.6s-.5-3.4-1.6-3.6-3.3 2.2-3.3 2.2m2.1 7.9 4.7-.9m-4.6 2.6 4.8.4m-21.4-2.2-4.7-.9m4.6 2.6-4.8.3" style="fill:#cce7f3;stroke:#8bcae8;stroke-width:.6359;stroke-linecap:round;stroke-miterlimit:10;stroke-linejoin:round"/>
      <path d="M70.8 144.3s-4.4-.1-4.5 1.3c-.1 1.3 1.1 2.1 4.5 2.1m-10.3-3.4s4.3-.1 4.4 1.3c.1 1.3-1.1 2.1-4.5 2.1" style="fill:#cce7f3;stroke:#8bcae8;stroke-width:.6359;stroke-linecap:round;stroke-miterlimit:10"/>
      <path d="M63.4 134.4s.3.9 1.1.9c.9 0 1-.9 1-.9m0 0s.3.9 1.1.9 1-.9 1-.9" style="fill:none;stroke:#005fa3;stroke-linejoin:round;stroke-width:.6359;stroke-linecap:round;stroke-miterlimit:10"/>
      <path d="M62.1 131.2c0-.1 0-.3-.1-.3-.1-.1-.2-.2-.4-.2-.2-.1-.4-.1-.5-.2-.1-.1-.3-.2-.4-.2-.1-.1-.2-.2-.2-.3-.1-.1-.1-.3-.1-.4 0-.3.1-.5.3-.7.2-.2.4-.3.8-.3v-.6h.4v.6c.3 0 .6.2.7.4.2.2.3.5.3.8h-.8c0-.2 0-.4-.1-.5-.1-.1-.2-.2-.3-.2-.1 0-.3 0-.3.1s-.1.2-.1.3c0 .1 0 .2.1.3.1.1.2.2.4.2.2.1.4.2.5.2l.3.3c.1.1.2.2.2.3 0 .1.1.3.1.4 0 .3-.1.5-.3.7-.2.2-.4.3-.8.3v.5h-.4v-.5c-.4 0-.6-.2-.8-.4-.2-.2-.3-.5-.3-.9h.8c0 .2 0 .4.1.5.1.1.2.2.4.2s.3 0 .4-.1.1-.2.1-.3zm7.5 0c0-.1 0-.3-.1-.3-.1-.1-.2-.2-.4-.2-.2-.1-.4-.1-.5-.2-.1-.1-.3-.2-.4-.2-.1-.1-.2-.2-.2-.3-.1-.1-.1-.3-.1-.4 0-.3.1-.5.3-.7.2-.2.4-.3.8-.3v-.6h.4v.6c.3 0 .6.2.7.4.2.2.3.5.3.8h-.8c0-.2 0-.4-.1-.5-.1-.1-.2-.2-.3-.2-.1 0-.3 0-.3.1s-.1.2-.1.3c0 .1 0 .2.1.3.1.1.2.2.4.2.2.1.4.2.5.2l.3.3c.1.1.2.2.2.3 0 .1.1.3.1.4 0 .3-.1.5-.3.7-.2.2-.4.3-.8.3v.5h-.4v-.5c-.4 0-.6-.2-.8-.4-.2-.2-.3-.5-.3-.9h.8c0 .2 0 .4.1.5.1.1.2.2.4.2s.3 0 .4-.1.1-.2.1-.3z" style="fill:#ffe893"/>
      <path d="M66.8 135.3h-.6l-.6-.2-.6.2h-.6s-.3 2.1 1.2 2.1 1.2-2.1 1.2-2.1z" style="fill:#005fa3"/>
      <path d="M55 84.5c-.1-.2-.3-.4-.6-.4l-3.4-.3-1.4-3.3c-.1-.2-.3-.4-.6-.4s-.5.2-.6.4L47 83.8l-3.5.3c-.3 0-.5.2-.6.4s0 .5.2.7l2.7 2.3L45 91c-.1.3 0 .5.3.7.1.1.2.1.4.1.1 0 .2 0 .3-.1l3-1.8 3 1.8c.2.1.5.1.7 0 .2-.2.3-.4.3-.7l-.8-3.5 2.7-2.3c.1-.1.2-.4.1-.7zm18 0c-.1-.2-.3-.4-.6-.4l-3.5-.3-1.4-3.3c-.1-.2-.3-.4-.6-.4s-.5.2-.6.4l-1.4 3.3-3.5.3c-.3 0-.5.2-.6.4s0 .5.2.7l2.7 2.3-.8 3.5c-.1.3 0 .5.3.7.1.1.2.1.4.1.1 0 .2 0 .3-.1l3-1.8 3 1.8c.2.1.5.1.7 0 .2-.2.3-.4.3-.7l-.8-3.5 2.7-2.3c.2-.1.2-.4.2-.7zm17 0c-.1-.2-.3-.4-.6-.4l-3.5-.3-1.4-3.3c-.1-.2-.3-.4-.6-.4s-.5.2-.6.4l-1.4 3.3-3.5.3c-.3 0-.5.2-.6.4s0 .5.2.7l2.7 2.3-.8 3.5c-.1.3 0 .5.3.7.1.1.2.1.4.1.1 0 .2 0 .3-.1l3-1.8 3 1.8c.2.1.5.1.7 0 .2-.2.3-.4.3-.7l-.8-3.5 2.7-2.3c.2-.1.2-.4.2-.7zm190.4 20.8c0-3.4-2.7-6.1-6.1-6.1h-38.9c-3.4 0-6.1 2.7-6.1 6.1v12.4c0 3.4 2.7 6.1 6.1 6.1h7.2v7.5l10-7.5h21.6c3.4 0 6.1-2.7 6.1-6.1v-12.4h.1z" style="fill:#fff2c2"/>
      <circle class="st7" cx="240.1" cy="111" r="2.7"/>
      <circle class="st7" cx="254.5" cy="111" r="2.7"/>
      <circle class="st7" cx="268.2" cy="111" r="2.7"/>
    </g>
  </switch>
</svg>