<?xml version="1.0" encoding="utf-8"?>
<!-- Generator: Adobe Illustrator 25.4.1, SVG Export Plug-In . SVG Version: 6.00 Build 0)  -->
<svg version="1.1" xmlns="http://www.w3.org/2000/svg" xmlns:xlink="http://www.w3.org/1999/xlink" x="0px" y="0px"
	 viewBox="0 0 793.56 291.12" enable-background="new 0 0 793.56 291.12" xml:space="preserve">
<g id="背景">
</g>
<g id="導覽列">
</g>
<g id="Banner">
	<g>
		<line fill="none" stroke="#005085" x1="281.36" y1="24.99" x2="423.32" y2="24.99"/>
		<g>
			<path fill="#005085" d="M160.1,38.93c-0.93-0.75-2.48-1.8-3.9-2.64c-1.72,1.49-3.78,2.67-5.87,3.48
				c-0.29-0.56-1.07-1.59-1.59-2.05c3.23-1.06,6.25-2.83,7.73-5.22l2.53,0.59c-0.29,0.5-0.65,0.99-1.03,1.43
				c1.46,0.75,3.05,1.74,3.98,2.46L160.1,38.93z M167,17.95c-0.27,0.22-0.54,0.44-0.77,0.65c2.67,1.8,7.97,3.39,12.45,4.07
				c-0.64,0.59-1.51,1.68-1.95,2.39c-2.38-0.5-4.95-1.34-7.31-2.36l-0.16,1.8h-10.48l0.15-1.71c-2.33,0.99-4.79,1.83-7.18,2.46
				c-0.25-0.68-0.85-1.68-1.42-2.3c5.2-1.15,11.17-3.33,14.47-6.22L167,17.95z M156.23,15.31c-1.14,1.68-2.39,3.2-3.55,4.32
				c-0.52-0.47-1.6-1.21-2.25-1.59c2.08-1.71,3.99-4.41,5.19-7.09l2.64,0.72c-0.23,0.5-0.46,0.93-0.72,1.43h7.52l-0.19,2.21h-5.22
				c0.51,0.9,0.96,2.14,1.14,2.95l-2.43,1.18c-0.14-0.87-0.65-2.21-1.08-3.23l2.01-0.9H156.23z M153.76,25.79h9.76l-0.57,6.56h-9.76
				L153.76,25.79z M155.72,30.39h4.91l0.23-2.64h-4.91L155.72,30.39z M168.97,22.52c-1.74-0.78-3.27-1.68-4.53-2.64
				c-1.48,0.96-3.15,1.86-4.89,2.64H168.97z M170.88,32.97c-0.27,0.56-0.53,1.12-0.88,1.59c2.44,0.87,5.2,2.05,6.89,2.92l-1.95,2.05
				c-1.54-0.9-4.2-2.08-6.58-2.98c-1.46,1.4-3.26,2.42-5.19,3.23c-0.33-0.5-1.15-1.43-1.64-1.9c3.1-1.03,5.68-2.77,6.81-5.32
				L170.88,32.97z M165.08,25.79h9.92l-0.57,6.56h-9.92L165.08,25.79z M168.91,15.37c-0.69,0.81-1.41,1.55-2.15,2.14
				c-0.46-0.47-1.57-1.27-2.22-1.59c1.73-1.27,3.29-3.11,4.23-5l2.68,0.68c-0.26,0.53-0.56,1.03-0.88,1.55h8.76l-0.19,2.21h-5.44
				c0.81,0.99,1.69,2.36,2.01,3.33l-2.44,1.24c-0.35-1.03-1.24-2.55-2.07-3.67l1.94-0.9H168.91z M167.07,30.39h5l0.23-2.64h-5
				L167.07,30.39z"/>
			<path fill="#005085" d="M185.02,31.66c-0.7,2.67-1.79,5.6-2.7,7.43c-0.57-0.28-1.71-0.65-2.41-0.84
				c1.03-1.87,1.96-4.63,2.61-7.09L185.02,31.66z M191.49,29.8c-0.05-0.47-0.13-1.03-0.23-1.65c-7.69,1.21-8.83,1.49-9.55,1.83
				c-0.11-0.53-0.42-1.9-0.7-2.67c0.79-0.16,1.6-0.84,2.78-1.96c0.54-0.5,1.73-1.68,3.05-3.2c-3.39,0.4-4.18,0.56-4.64,0.81
				c-0.11-0.56-0.43-1.86-0.7-2.61c0.63-0.09,1.27-0.72,2.07-1.62c0.86-0.9,3.52-4.32,5.24-7.65l2.54,1.15
				c-1.7,2.7-3.78,5.5-5.8,7.74l3.35-0.28c0.98-1.21,1.93-2.52,2.79-3.82l2.32,1.59c-2.42,3.2-5.26,6.43-8.04,9.08l4.84-0.65
				c-0.2-0.9-0.46-1.83-0.7-2.64l2.38-0.59c0.66,2.08,1.32,4.79,1.49,6.43L191.49,29.8z M188.59,30.95
				c0.25,2.18,0.47,4.94,0.43,6.81l-2.48,0.65c0.07-1.9-0.08-4.73-0.27-6.9L188.59,30.95z M192.23,30.23
				c0.62,1.83,1.25,4.2,1.48,5.78l-2.31,0.84c-0.21-1.55-0.8-4.01-1.35-5.91L192.23,30.23z M209.38,16.77c0,0-0.12,1.06-0.16,1.46
				c-1.56,13.55-2.34,18.25-3.66,19.74c-0.83,1.03-1.64,1.34-2.8,1.49c-1.1,0.16-2.93,0.09-4.69,0c0-0.78-0.26-2.05-0.68-2.86
				c1.88,0.16,3.62,0.16,4.4,0.16c0.56,0,0.94-0.09,1.29-0.5c0.95-0.96,1.78-5.47,3.08-16.76h-8.21c-0.89,1.65-1.86,3.14-2.8,4.32
				c-0.52-0.4-1.69-1.24-2.37-1.65c2.41-2.64,4.42-6.84,5.72-11l2.81,0.56c-0.58,1.71-1.26,3.42-1.96,5.04H209.38z M200.69,31.54
				c-0.8-1.86-2.82-4.76-4.76-6.75l2.15-1.46c1.92,1.9,4.07,4.66,4.9,6.53L200.69,31.54z"/>
			<path fill="#005085" d="M222.66,28.8c1.36,2.52,2.97,5.88,3.59,7.96l-2.77,1.43c-0.24-0.78-0.56-1.8-0.99-2.89
				c-7.81,2.55-8.97,3.02-9.76,3.57c-0.11-0.87-0.49-2.27-0.92-2.95c0.62-0.31,1.45-0.9,1.55-2.05l1.85-21.14h12.34l-1.3,14.83
				h-9.39l-0.61,6.93l5.23-1.55c-0.47-1.03-0.91-2.02-1.39-2.92L222.66,28.8z M223.59,24.98l0.32-3.64h-6.5l-0.32,3.64H223.59z
				 M217.94,15.31l-0.3,3.45h6.5l0.3-3.45H217.94z M238.82,30.67c-0.12,1.43-0.45,2.27-1.39,2.7c-1.01,0.5-2.41,0.53-4.52,0.53
				c-0.03-0.78-0.26-1.99-0.6-2.74c1.36,0.06,2.7,0.06,3.08,0.03c0.44-0.03,0.57-0.16,0.61-0.56l1.32-15.05h-4.79l-2.11,24.09h-2.89
				l2.34-26.73h10.51L238.82,30.67z"/>
			<path fill="#005085" d="M247.42,33.28c-1.02,2.05-2.44,4.41-3.57,5.97c-0.4-0.4-1.31-1.03-1.81-1.34
				c1.12-1.43,2.39-3.51,3.26-5.32L247.42,33.28z M252.39,31.82h-8.55l1.68-19.21h8.55L252.39,31.82z M250.53,26.07h-3.92l-0.3,3.42
				h3.92L250.53,26.07z M251.02,20.47h-3.92l-0.29,3.36h3.92L251.02,20.47z M251.51,14.94h-3.92l-0.29,3.33h3.92L251.51,14.94z
				 M250.49,32.56c0.86,1.49,1.88,3.39,2.3,4.6l-1.98,1.31c-0.44-1.34-1.42-3.36-2.22-4.85L250.49,32.56z M271.13,15.22l-0.95,10.88
				h-15.6l0.95-10.88h3.79c-0.32-0.96-0.89-2.3-1.49-3.26l2.37-0.84c0.71,1.09,1.43,2.52,1.72,3.48l-1.52,0.62h4.51
				c0.89-1.24,1.94-2.95,2.57-4.17l2.53,0.87c-0.78,1.09-1.69,2.3-2.5,3.29H271.13z M255.78,27.53h12.96l-1.04,11.94h-2.55l0.1-1.15
				h-7.99l-0.11,1.27h-2.42L255.78,27.53z M257.03,23.89h4.51l0.57-6.47h-4.51L257.03,23.89z M265.44,36.14l0.19-2.14h-7.99
				l-0.19,2.14H265.44z M258.01,29.76l-0.2,2.24h7.99l0.2-2.24H258.01z M259.61,18.23c0.54,1.34,1.15,3.17,1.37,4.23l-1.7,0.62
				c-0.18-1.12-0.73-2.98-1.26-4.38L259.61,18.23z M268.51,17.42h-4.48l-0.57,6.47h4.48L268.51,17.42z M264.3,22.58
				c0.66-1.18,1.64-3.08,2.06-4.35l1.72,0.56c-0.76,1.52-1.58,3.17-2.31,4.32L264.3,22.58z"/>
		</g>
		<g>
			<g>
				<path fill="#FDD762" d="M140.29,50.02c-15.01,0-28.36,12.28-29.68,27.29L95.27,252.73c-1.31,15.01,9.89,27.29,24.9,27.29h323.27
					l20.12-230H140.29z"/>
			</g>
			<g>
				<path fill="#EF8582" d="M748.44,251.02c15.01,0,28.36-12.28,29.68-27.29l15.35-175.42c1.31-15.01-9.89-27.29-24.9-27.29H445.28
					l-20.12,230H748.44z"/>
			</g>
			<g>
				<g>
					<path fill="none" stroke="#F8B500" stroke-width="5" d="M226.48,169.19h-19.57l5.45-62.29l-19.71,5.61l1.3-14.82l38.11-12.79
						h1.79L226.48,169.19z"/>
					<path fill="none" stroke="#F8B500" stroke-width="5" d="M271.71,123.13c-1.56,3.58-3.36,7.21-5.37,10.79l-3.52,40.26h-6.42
						l2.54-29.08c-1.4,1.76-2.8,3.41-4.23,4.88c-0.37-1.65-1.67-5.62-2.54-7.33c5.16-5.17,10.19-13.29,13.46-21.47L271.71,123.13z
						 M306.33,123.98l-4.34,49.58h-6.42l0.24-2.78h-21.35l-0.29,3.29h-6.13l4.38-50.09H306.33z M296.33,164.93l3.07-35.1h-21.35
						l-3.07,35.1H296.33z M290.18,141.7l-0.43,4.88h5.45l-1.33,15.22h-15.73l1.33-15.22h5.05l0.43-4.88h-6.53l0.43-4.88h6.53
						l0.51-5.79h5.22l-0.51,5.79h6.87l-0.43,4.88H290.18z M289.75,151.24h-5.79l-0.52,5.96h5.79L289.75,151.24z"/>
					<path fill="none" stroke="#F8B500" stroke-width="5" d="M354.99,165.5c-0.36,4.09-1.49,6.02-4.2,7.16
						c-2.83,1.19-6.81,1.31-12.66,1.31c-0.22-1.99-1.3-5.22-2.22-7.1c3.96,0.23,8.73,0.17,9.98,0.17c1.36,0,1.86-0.45,1.96-1.65
						l0.72-8.23h-24.3c-2.03,6.36-5.41,12.55-11.08,16.98c-0.9-1.42-3.4-3.92-4.8-4.88c9.21-7.33,10.96-18.17,11.71-26.8l1.63-18.68
						h36.91L354.99,165.5z M349.14,150.62l0.61-6.93h-22.77c-0.25,2.16-0.57,4.54-1,6.93H349.14z M328.15,130.34l-0.61,6.93h22.77
						l0.61-6.93H328.15z"/>
					<path fill="none" stroke="#F8B500" stroke-width="5" d="M202.26,225.27c-0.64,2.96-1.7,5.79-3.36,8.32
						c4.22,2.1,9.6,3.44,16,4.02c-1.3,1.24-2.99,3.59-3.84,5.07c-6.38-0.81-11.69-2.49-15.92-5.02c-2.48,2.1-5.89,3.87-10.25,5.12
						c-0.61-1.24-2.08-3.54-3.12-4.73c3.9-0.86,6.83-2.1,9.03-3.68c-2.17-1.96-3.87-4.4-5.26-7.13l4.76-1.43
						c0.98,1.87,2.37,3.49,4.02,4.93c1.11-1.72,1.79-3.49,2.25-5.45H185.9l1.22-13.96h11l0.29-3.35h-12l0.38-4.4
						c-1.02,1.82-2.14,3.68-3.35,5.5l-2.96,33.81h-5.4l2.25-25.68c-1.43,1.63-2.86,3.16-4.31,4.5c-0.41-1.39-1.67-4.45-2.5-5.83
						c4.92-4.3,9.96-11.05,13.13-17.84l5.11,1.72c-0.52,1-1.04,2.01-1.56,3.06h11.67l0.38-4.35h5.64l-0.38,4.35h12.67l-0.45,5.16
						h-12.67l-0.29,3.35h11.38l-1.22,13.96H202.26z M197.3,220.68l0.05-0.62l0.36-4.11h-5.88l-0.41,4.73H197.3z M203.36,215.95
						l-0.36,4.16l-0.05,0.57h5.93l0.41-4.73H203.36z"/>
					<path fill="none" stroke="#F8B500" stroke-width="5" d="M259.8,236.03c-0.27,3.06-1.07,4.59-3.06,5.45
						c-2.04,0.96-4.97,1.05-9.27,1c-0.06-1.53-0.75-3.97-1.34-5.45c2.67,0.14,5.83,0.1,6.69,0.1c0.91,0,1.27-0.29,1.34-1.15
						l0.63-7.17H244.7l-1.17,13.34h-5.74l1.17-13.34h-9.76c-1.32,5.21-3.5,10.47-7.27,14.2c-0.82-1.05-2.94-3.01-4.17-3.68
						c5.71-5.74,6.89-14.25,7.48-20.95l1.49-17.07h36.1L259.8,236.03z M239.43,223.46l0.51-5.88h-8.99l-0.08,0.86
						c-0.13,1.53-0.33,3.25-0.58,5.02H239.43z M231.9,206.72l-0.49,5.55h8.99l0.49-5.55H231.9z M255.26,223.46l0.51-5.88h-10.09
						l-0.51,5.88H255.26z M256.72,206.72h-10.09l-0.49,5.55h10.09L256.72,206.72z"/>
					<path fill="none" stroke="#F8B500" stroke-width="5" d="M294.83,221.5c2.68,7.6,8.31,13.2,17.42,15.64
						c-1.49,1.2-3.43,3.68-4.38,5.31c-8.74-2.87-14.04-8.42-17.37-16.26c-3.19,6.36-9.12,12.39-20.23,16.4
						c-0.64-1.43-2.15-3.83-3.3-4.93c11.39-3.92,16.62-10.09,19.11-16.16h-16.02l0.51-5.83h17.22c0.21-1.29,0.36-2.49,0.47-3.68
						l0.42-4.83h-15.64l0.51-5.83h37.87l-0.51,5.83h-16.26l-0.43,4.93c-0.1,1.15-0.25,2.34-0.41,3.59h18.22l-0.51,5.83H294.83z"/>
					<path fill="none" stroke="#F8B500" stroke-width="5" d="M359.52,211.79c-1.38,7.03-3.15,13.01-5.69,18.03
						c1.55,3.63,3.78,6.55,6.82,8.46c-1.17,0.81-2.72,2.63-3.54,3.87c-2.7-1.91-4.68-4.45-6.27-7.56c-2.45,3.4-5.51,6.17-9.3,8.46
						c-0.26-0.81-1.09-2.34-1.85-3.44l-3.29,2.63c-1.53-1.05-3.58-2.2-5.88-3.3c-3.28,1.43-7.69,2.68-13.7,3.54
						c-0.29-1.1-1.1-2.73-1.74-3.63c4.26-0.57,7.62-1.29,10.28-2.15c-2.08-0.86-4.21-1.63-6.17-2.2c0.74-0.77,1.58-1.72,2.35-2.77
						l-4.33,0.24l-0.1-3.78c2.11-0.1,4.61-0.19,7.39-0.33c0.7-0.96,1.37-2.01,1.93-2.96h-7.03l0.76-8.66h8.56l0.12-1.34h-7.27
						l0.44-5.02h-3.63l0.35-4.02h3.63l0.42-4.83h7.27l0.25-2.92h4.3l-0.25,2.92h7.7l-0.42,4.83h3.25l-0.35,4.02h-3.25l-0.44,5.02
						h-7.7l-0.12,1.34h8.75l-0.31,3.49c3.6-5.12,5.89-13.25,7.47-21.47l4.73,0.62c-0.57,2.68-1.19,5.36-1.94,7.94h11.33l-0.44,4.97
						H359.52z M324.34,221.45h3.92l0.15-1.77h-3.92L324.34,221.45z M325.98,232.73c1.53,0.53,3.11,1.1,4.63,1.72
						c1.86-1.05,2.97-2.25,3.65-3.4l-7.3,0.38L325.98,232.73z M329.14,211.31l0.15-1.72h-2.58l-0.15,1.72H329.14z M327.15,204.62
						l-0.13,1.53h2.58l0.13-1.53H327.15z M339.16,230.77c-0.6,1.91-1.82,3.83-4.13,5.64c1.65,0.77,3.12,1.53,4.4,2.2
						c4.02-2.25,7.06-5.26,9.31-9.13c-0.85-2.87-1.53-6.07-1.99-9.52c-0.63,1.24-1.36,2.44-2.12,3.49c-0.64-0.86-2.2-2.68-3.19-3.49
						l-0.43,4.93h-9.56c-0.56,0.91-1.16,1.82-1.77,2.77l5.62-0.29l0.15-1.67h4.45l-0.13,1.48l1.54-0.1l-0.36,3.59L339.16,230.77z
						 M332.71,219.68l-0.15,1.77h3.83l0.15-1.77H332.71z M336.22,211.31l0.15-1.72h-2.77l-0.15,1.72H336.22z M334.03,204.62
						l-0.13,1.53h2.77l0.13-1.53H334.03z M350.24,211.79c0.22,4.06,0.69,7.94,1.43,11.48c1.3-3.4,2.26-7.22,3.06-11.48H350.24z"/>
				</g>
				<g>
					<path fill="#FFFFFF" d="M229.48,166.19h-19.57l5.45-62.29l-19.71,5.61l1.3-14.82l38.11-12.79h1.79L229.48,166.19z"/>
					<path fill="#FFFFFF" d="M274.71,120.13c-1.56,3.58-3.36,7.21-5.37,10.79l-3.52,40.26h-6.42l2.54-29.08
						c-1.4,1.76-2.8,3.41-4.23,4.88c-0.37-1.65-1.67-5.62-2.54-7.33c5.16-5.17,10.19-13.29,13.46-21.47L274.71,120.13z
						 M309.33,120.98l-4.34,49.58h-6.42l0.24-2.78h-21.35l-0.29,3.29h-6.13l4.38-50.09H309.33z M299.33,161.93l3.07-35.1h-21.35
						l-3.07,35.1H299.33z M293.18,138.7l-0.43,4.88h5.45l-1.33,15.22h-15.73l1.33-15.22h5.05l0.43-4.88h-6.53l0.43-4.88h6.53
						l0.51-5.79h5.22l-0.51,5.79h6.87l-0.43,4.88H293.18z M292.75,148.24h-5.79l-0.52,5.96h5.79L292.75,148.24z"/>
					<path fill="#FFFFFF" d="M357.99,162.5c-0.36,4.09-1.49,6.02-4.2,7.16c-2.83,1.19-6.81,1.31-12.66,1.31
						c-0.22-1.99-1.3-5.22-2.22-7.1c3.96,0.23,8.73,0.17,9.98,0.17c1.36,0,1.86-0.45,1.96-1.65l0.72-8.23h-24.3
						c-2.03,6.36-5.41,12.55-11.08,16.98c-0.9-1.42-3.4-3.92-4.8-4.88c9.21-7.33,10.96-18.17,11.71-26.8l1.63-18.68h36.91
						L357.99,162.5z M352.14,147.62l0.61-6.93h-22.77c-0.25,2.16-0.57,4.54-1,6.93H352.14z M331.15,127.34l-0.61,6.93h22.77
						l0.61-6.93H331.15z"/>
					<path fill="#FFFFFF" d="M205.26,222.27c-0.64,2.96-1.7,5.79-3.36,8.32c4.22,2.1,9.6,3.44,16,4.02
						c-1.3,1.24-2.99,3.59-3.84,5.07c-6.38-0.81-11.69-2.49-15.92-5.02c-2.48,2.1-5.89,3.87-10.25,5.12
						c-0.61-1.24-2.08-3.54-3.12-4.73c3.9-0.86,6.83-2.1,9.03-3.68c-2.17-1.96-3.87-4.4-5.26-7.13l4.76-1.43
						c0.98,1.87,2.37,3.49,4.02,4.93c1.11-1.72,1.79-3.49,2.25-5.45H188.9l1.22-13.96h11l0.29-3.35h-12l0.38-4.4
						c-1.02,1.82-2.14,3.68-3.35,5.5l-2.96,33.81h-5.4l2.25-25.68c-1.43,1.63-2.86,3.16-4.31,4.5c-0.41-1.39-1.67-4.45-2.5-5.83
						c4.92-4.3,9.96-11.05,13.13-17.84l5.11,1.72c-0.52,1-1.04,2.01-1.56,3.06h11.67l0.38-4.35h5.64l-0.38,4.35h12.67l-0.45,5.16
						h-12.67l-0.29,3.35h11.38l-1.22,13.96H205.26z M200.3,217.68l0.05-0.62l0.36-4.11h-5.88l-0.41,4.73H200.3z M206.36,212.95
						l-0.36,4.16l-0.05,0.57h5.93l0.41-4.73H206.36z"/>
					<path fill="#FFFFFF" d="M262.8,233.03c-0.27,3.06-1.07,4.59-3.06,5.45c-2.04,0.96-4.97,1.05-9.27,1
						c-0.06-1.53-0.75-3.97-1.34-5.45c2.67,0.14,5.83,0.1,6.69,0.1c0.91,0,1.27-0.29,1.34-1.15l0.63-7.17H247.7l-1.17,13.34h-5.74
						l1.17-13.34h-9.76c-1.32,5.21-3.5,10.47-7.27,14.2c-0.82-1.05-2.94-3.01-4.17-3.68c5.71-5.74,6.89-14.25,7.48-20.95l1.49-17.07
						h36.1L262.8,233.03z M242.43,220.46l0.51-5.88h-8.99l-0.08,0.86c-0.13,1.53-0.33,3.25-0.58,5.02H242.43z M234.9,203.72
						l-0.49,5.55h8.99l0.49-5.55H234.9z M258.26,220.46l0.51-5.88h-10.09l-0.51,5.88H258.26z M259.72,203.72h-10.09l-0.49,5.55
						h10.09L259.72,203.72z"/>
					<path fill="#FFFFFF" d="M297.83,218.5c2.68,7.6,8.31,13.2,17.42,15.64c-1.49,1.2-3.43,3.68-4.38,5.31
						c-8.74-2.87-14.04-8.42-17.37-16.26c-3.19,6.36-9.12,12.39-20.23,16.4c-0.64-1.43-2.15-3.83-3.3-4.93
						c11.39-3.92,16.62-10.09,19.11-16.16h-16.02l0.51-5.83h17.22c0.21-1.29,0.36-2.49,0.47-3.68l0.42-4.83h-15.64l0.51-5.83h37.87
						l-0.51,5.83h-16.26l-0.43,4.93c-0.1,1.15-0.25,2.34-0.41,3.59h18.22l-0.51,5.83H297.83z"/>
					<path fill="#FFFFFF" d="M362.52,208.79c-1.38,7.03-3.15,13.01-5.69,18.03c1.55,3.63,3.78,6.55,6.82,8.46
						c-1.17,0.81-2.72,2.63-3.54,3.87c-2.7-1.91-4.68-4.45-6.27-7.56c-2.45,3.4-5.51,6.17-9.3,8.46c-0.26-0.81-1.09-2.34-1.85-3.44
						l-3.29,2.63c-1.53-1.05-3.58-2.2-5.88-3.3c-3.28,1.43-7.69,2.68-13.7,3.54c-0.29-1.1-1.1-2.73-1.74-3.63
						c4.26-0.57,7.62-1.29,10.28-2.15c-2.08-0.86-4.21-1.63-6.17-2.2c0.74-0.77,1.58-1.72,2.35-2.77l-4.33,0.24l-0.1-3.78
						c2.11-0.1,4.61-0.19,7.39-0.33c0.7-0.96,1.37-2.01,1.93-2.96h-7.03l0.76-8.66h8.56l0.12-1.34h-7.27l0.44-5.02h-3.63l0.35-4.02
						h3.63l0.42-4.83h7.27l0.25-2.92h4.3l-0.25,2.92h7.7l-0.42,4.83h3.25l-0.35,4.02h-3.25l-0.44,5.02h-7.7l-0.12,1.34h8.75
						l-0.31,3.49c3.6-5.12,5.89-13.25,7.47-21.47l4.73,0.62c-0.57,2.68-1.19,5.36-1.94,7.94h11.33l-0.44,4.97H362.52z
						 M327.34,218.45h3.92l0.15-1.77h-3.92L327.34,218.45z M328.98,229.73c1.53,0.53,3.11,1.1,4.63,1.72
						c1.86-1.05,2.97-2.25,3.65-3.4l-7.3,0.38L328.98,229.73z M332.14,208.31l0.15-1.72h-2.58l-0.15,1.72H332.14z M330.15,201.62
						l-0.13,1.53h2.58l0.13-1.53H330.15z M342.16,227.77c-0.6,1.91-1.82,3.83-4.13,5.64c1.65,0.77,3.12,1.53,4.4,2.2
						c4.02-2.25,7.06-5.26,9.31-9.13c-0.85-2.87-1.53-6.07-1.99-9.52c-0.63,1.24-1.36,2.44-2.12,3.49c-0.64-0.86-2.2-2.68-3.19-3.49
						l-0.43,4.93h-9.56c-0.56,0.91-1.16,1.82-1.77,2.77l5.62-0.29l0.15-1.67h4.45l-0.13,1.48l1.54-0.1l-0.36,3.59L342.16,227.77z
						 M335.71,216.68l-0.15,1.77h3.83l0.15-1.77H335.71z M339.22,208.31l0.15-1.72h-2.77l-0.15,1.72H339.22z M337.03,201.62
						l-0.13,1.53h2.77l0.13-1.53H337.03z M353.24,208.79c0.22,4.06,0.69,7.94,1.43,11.48c1.3-3.4,2.26-7.22,3.06-11.48H353.24z"/>
				</g>
			</g>
			<g>
				<g>
					<path fill="none" stroke="#E60012" stroke-width="5" d="M562.69,139.84h-19.57l5.45-62.29l-19.71,5.61l1.3-14.82l38.11-12.79
						h1.79L562.69,139.84z"/>
					<path fill="none" stroke="#E60012" stroke-width="5" d="M652.02,105.4c-1,11.38-4.32,20.16-9.97,26.34
						c-5.65,6.18-13.13,9.26-22.43,9.26c-9.38,0-16.36-3.11-20.95-9.32c-4.59-6.21-6.39-14.97-5.4-26.28l1.35-15.4
						c1-11.38,4.32-20.16,9.97-26.34c5.65-6.17,13.15-9.26,22.49-9.26c9.34,0,16.3,3.11,20.89,9.32c4.59,6.21,6.39,14.99,5.39,26.34
						L652.02,105.4z M634.07,87.51c0.53-6.06,0.13-10.58-1.19-13.57c-1.32-2.99-3.7-4.49-7.13-4.49c-3.36,0-5.92,1.39-7.69,4.17
						c-1.77,2.78-2.96,6.99-3.56,12.62l-1.88,21.53c-0.55,6.29-0.16,10.89,1.17,13.81c1.33,2.91,3.71,4.37,7.14,4.37
						c3.32,0,5.89-1.42,7.72-4.25s3.03-7.28,3.6-13.34L634.07,87.51z"/>
					<path fill="none" stroke="#E60012" stroke-width="5" d="M678.59,119.34c0,0-0.21,1.7-0.34,2.56
						c-1.8,12.83-2.91,18.29-4.72,20.16c-1.33,1.53-2.56,2.04-4.46,2.33c-1.61,0.23-4.23,0.28-6.94,0.17
						c0.07-2.1-0.43-4.83-1.46-6.64c2.48,0.23,4.75,0.28,5.88,0.28c0.91,0,1.49-0.11,2.1-0.68c0.93-0.91,1.8-4.32,2.96-12.38h-10.45
						c0.88-4.88,1.89-12.55,2.37-18.63h9.71l0.55-6.3h-10.56l0.53-6.02h16.75l-1.6,18.34h-10.11c-0.26,2.33-0.52,4.66-0.82,6.81
						H678.59z M711.17,127.8c-2.7,1.7-5.53,3.46-7.97,4.77c2.5,2.56,5.38,4.66,8.55,6.08c-1.59,1.31-3.85,3.8-5.02,5.51
						c-7.54-4.09-13.03-12.04-16.04-21.13h-2.84l-1.16,13.29l7.51-2.1c-0.15,1.7-0.25,4.15-0.08,5.51
						c-10.91,3.35-12.86,4.26-14.14,5.17c-0.33-1.48-1.57-4.15-2.37-5.4c1.14-0.74,2.69-2.16,2.91-4.66l1.03-11.81h-2.5l0.5-5.74
						h3.46l2.03-23.23h28.45l-0.46,5.28h-21.86l-0.24,2.73h19.59l-0.41,4.71h-19.59l-0.25,2.9h19.65l-0.41,4.71h-19.65l-0.25,2.9
						h22.77l-0.5,5.74h-15.05c0.79,2.04,1.92,3.98,3.24,5.85c2.36-1.65,4.87-3.69,6.48-5.28L711.17,127.8z"/>
					<path fill="none" stroke="#E60012" stroke-width="5" d="M520.66,186.89h-5.21l0.94-10.76h18.08l0.17-1.91h-15.92l0.33-3.73
						h37.49l-0.33,3.73h-16.02l-0.17,1.91h18.46l-0.94,10.76h-5.5l-1.3,3.44c-2.46-0.91-7.28-2.1-10.81-2.68l1.38-3.2
						c3.36,0.38,8.01,1.39,10.56,2.25l0.6-6.84h-2.58l1.51,2.44c-2.63,1.05-6.18,1.82-8.71,2.3l-1.53-2.68
						c1.9-0.43,4.66-1.29,6.73-2.06h-8.18l-0.87,9.95h-5.55l0.87-9.95h-9.13c2.54,0.48,5.53,1.29,7.29,1.96l-1.8,3.06
						c-1.84-0.77-5.34-1.77-8.02-2.34l1.57-2.68h-2.58l-0.57,6.55c2.95-0.33,7.01-0.91,11.18-1.53l-0.09,3.25
						c-3.66,0.81-7.27,1.63-10.34,2.3L520.66,186.89z M549.29,208.45c2.44,0,2.93-0.72,3.62-4.73c1.03,0.77,3.12,1.48,4.58,1.77
						c-1.17,5.74-2.88,7.27-8.1,7.27h-10.04c-6.5,0-8.25-1.34-7.82-6.31l0.01-0.14h-7.94l-0.18,2.06h-5.45l1.52-17.36h33.14
						l-1.34,15.3h-14.3l-0.01,0.14c-0.15,1.72,0.4,2.01,3.27,2.01H549.29z M531.88,202.48l0.19-2.15h-7.94l-0.19,2.15H531.88z
						 M524.61,194.83l-0.19,2.15h7.94l0.19-2.15H524.61z M545.98,202.48l0.19-2.15h-8.66l-0.19,2.15H545.98z M546.65,194.83H538
						l-0.19,2.15h8.66L546.65,194.83z"/>
					<path fill="none" stroke="#E60012" stroke-width="5" d="M606.26,195.11H587.7l-1.01,11.52c-0.28,3.2-1.13,4.78-3.46,5.69
						c-2.42,0.91-5.69,1.05-10.08,1c-0.19-1.67-1.11-4.26-1.92-5.88c3.33,0.19,7.06,0.19,8.07,0.14c1.06-0.05,1.41-0.29,1.48-1.1
						l1-11.38h-18.94l0.5-5.69h18.94l0.58-6.65c3.14-1.43,6.77-3.59,9.72-5.64h-23.43l0.49-5.64h29.79l1.36-0.29l4.01,3.3
						c-4.42,4.02-10.53,8.32-16.29,11.29l-0.32,3.63h18.55L606.26,195.11z"/>
					<path fill="none" stroke="#E60012" stroke-width="5" d="M653.66,195.97c-2.85,2.01-6.18,3.97-9.05,5.6
						c2.7,2.53,6.11,4.54,10.31,5.74c-1.34,1.15-3.22,3.49-4.17,5.02c-9.6-3.4-14.92-10.33-17.65-20.23
						c-1.98,1.86-4.24,3.68-6.63,5.31l-0.71,8.13l10.58-2.82c0.01,1.53,0.24,3.83,0.51,5.07c-14.03,4.06-16.24,4.73-17.75,5.59
						c-0.22-1.34-1.14-3.87-1.9-5.02c1.1-0.53,2.54-1.67,2.72-3.78l0.31-3.49c-2.3,1.15-4.54,2.15-6.81,2.92
						c-0.65-1.29-2.19-3.44-3.28-4.59c5.5-1.63,11.44-4.54,15.94-7.84h-13.58l0.42-4.83h18.12l0.23-2.68h-13.72l0.4-4.54h13.72
						l0.22-2.49h-16.07l0.42-4.83h16.07l0.3-3.44h5.74l-0.3,3.44h16.64l-0.42,4.83h-16.64l-0.22,2.49h14.78l-0.4,4.54h-14.78
						l-0.23,2.68h18.27l-0.42,4.83h-16.07c0.7,2.39,1.8,4.54,3.11,6.5c2.68-1.72,5.6-3.87,7.57-5.59L653.66,195.97z"/>
					<path fill="none" stroke="#E60012" stroke-width="5" d="M702.3,207.35h-18.6l-0.53,6.07h-5.83l0.53-6.07h-18.17l0.43-4.88
						h18.17l0.22-2.49h-13.63l1.57-17.93h33.91l-1.57,17.93h-14.44l-0.22,2.49h18.6L702.3,207.35z M681.96,180.19h-17.07l0.84-9.56
						h17.07L681.96,180.19z M677.2,174.02h-6.7l-0.24,2.77h6.7L677.2,174.02z M678.89,195.64l0.23-2.58h-8.08l-0.23,2.58H678.89z
						 M671.39,188.99h8.08l0.22-2.53h-8.08L671.39,188.99z M693.56,193.06h-8.61l-0.23,2.58h8.61L693.56,193.06z M702.05,180.19
						h-17.17l0.84-9.56h17.17L702.05,180.19z M694.14,186.46h-8.61l-0.22,2.53h8.61L694.14,186.46z M697.28,174.02h-6.84l-0.24,2.77
						h6.84L697.28,174.02z"/>
				</g>
				<g>
					<path fill="#FFFFFF" d="M565.69,136.84h-19.57l5.45-62.29l-19.71,5.61l1.3-14.82l38.11-12.79h1.79L565.69,136.84z"/>
					<path fill="#FFFFFF" d="M655.02,102.4c-1,11.38-4.32,20.16-9.97,26.34c-5.65,6.18-13.13,9.26-22.43,9.26
						c-9.38,0-16.36-3.11-20.95-9.32c-4.59-6.21-6.39-14.97-5.4-26.28l1.35-15.4c1-11.38,4.32-20.16,9.97-26.34
						c5.65-6.17,13.15-9.26,22.49-9.26c9.34,0,16.3,3.11,20.89,9.32c4.59,6.21,6.39,14.99,5.39,26.34L655.02,102.4z M637.07,84.51
						c0.53-6.06,0.13-10.58-1.19-13.57c-1.32-2.99-3.7-4.49-7.13-4.49c-3.36,0-5.92,1.39-7.69,4.17c-1.77,2.78-2.96,6.99-3.56,12.62
						l-1.88,21.53c-0.55,6.29-0.16,10.89,1.17,13.81c1.33,2.91,3.71,4.37,7.14,4.37c3.32,0,5.89-1.42,7.72-4.25s3.03-7.28,3.6-13.34
						L637.07,84.51z"/>
					<path fill="#FFFFFF" d="M681.59,116.34c0,0-0.21,1.7-0.34,2.56c-1.8,12.83-2.91,18.29-4.72,20.16
						c-1.33,1.53-2.56,2.04-4.46,2.33c-1.61,0.23-4.23,0.28-6.94,0.17c0.07-2.1-0.43-4.83-1.46-6.64c2.48,0.23,4.75,0.28,5.88,0.28
						c0.91,0,1.49-0.11,2.1-0.68c0.93-0.91,1.8-4.32,2.96-12.38h-10.45c0.88-4.88,1.89-12.55,2.37-18.63h9.71l0.55-6.3h-10.56
						l0.53-6.02h16.75l-1.6,18.34h-10.11c-0.26,2.33-0.52,4.66-0.82,6.81H681.59z M714.17,124.8c-2.7,1.7-5.53,3.46-7.97,4.77
						c2.5,2.56,5.38,4.66,8.55,6.08c-1.59,1.31-3.85,3.8-5.02,5.51c-7.54-4.09-13.03-12.04-16.04-21.13h-2.84l-1.16,13.29l7.51-2.1
						c-0.15,1.7-0.25,4.15-0.08,5.51c-10.91,3.35-12.86,4.26-14.14,5.17c-0.33-1.48-1.57-4.15-2.37-5.4
						c1.14-0.74,2.69-2.16,2.91-4.66l1.03-11.81h-2.5l0.5-5.74h3.46l2.03-23.23h28.45l-0.46,5.28h-21.86l-0.24,2.73h19.59
						l-0.41,4.71h-19.59l-0.25,2.9h19.65l-0.41,4.71h-19.65l-0.25,2.9h22.77l-0.5,5.74h-15.05c0.79,2.04,1.92,3.98,3.24,5.85
						c2.36-1.65,4.87-3.69,6.48-5.28L714.17,124.8z"/>
					<path fill="#FFFFFF" d="M523.66,183.89h-5.21l0.94-10.76h18.08l0.17-1.91h-15.92l0.33-3.73h37.49l-0.33,3.73h-16.02l-0.17,1.91
						h18.46l-0.94,10.76h-5.5l-1.3,3.44c-2.46-0.91-7.28-2.1-10.81-2.68l1.38-3.2c3.36,0.38,8.01,1.39,10.56,2.25l0.6-6.84h-2.58
						l1.51,2.44c-2.63,1.05-6.18,1.82-8.71,2.3l-1.53-2.68c1.9-0.43,4.66-1.29,6.73-2.06h-8.18l-0.87,9.95h-5.55l0.87-9.95h-9.13
						c2.54,0.48,5.53,1.29,7.29,1.96l-1.8,3.06c-1.84-0.77-5.34-1.77-8.02-2.34l1.57-2.68h-2.58l-0.57,6.55
						c2.95-0.33,7.01-0.91,11.18-1.53l-0.09,3.25c-3.66,0.81-7.27,1.63-10.34,2.3L523.66,183.89z M552.29,205.45
						c2.44,0,2.93-0.72,3.62-4.73c1.03,0.77,3.12,1.48,4.58,1.77c-1.17,5.74-2.88,7.27-8.1,7.27h-10.04c-6.5,0-8.25-1.34-7.82-6.31
						l0.01-0.14h-7.94l-0.18,2.06h-5.45l1.52-17.36h33.14l-1.34,15.3h-14.3l-0.01,0.14c-0.15,1.72,0.4,2.01,3.27,2.01H552.29z
						 M534.88,199.48l0.19-2.15h-7.94l-0.19,2.15H534.88z M527.61,191.83l-0.19,2.15h7.94l0.19-2.15H527.61z M548.98,199.48
						l0.19-2.15h-8.66l-0.19,2.15H548.98z M549.65,191.83H541l-0.19,2.15h8.66L549.65,191.83z"/>
					<path fill="#FFFFFF" d="M609.26,192.11H590.7l-1.01,11.52c-0.28,3.2-1.13,4.78-3.46,5.69c-2.42,0.91-5.69,1.05-10.08,1
						c-0.19-1.67-1.11-4.26-1.92-5.88c3.33,0.19,7.06,0.19,8.07,0.14c1.06-0.05,1.41-0.29,1.48-1.1l1-11.38h-18.94l0.5-5.69h18.94
						l0.58-6.65c3.14-1.43,6.77-3.59,9.72-5.64h-23.43l0.49-5.64h29.79l1.36-0.29l4.01,3.3c-4.42,4.02-10.53,8.32-16.29,11.29
						l-0.32,3.63h18.55L609.26,192.11z"/>
					<path fill="#FFFFFF" d="M656.66,192.97c-2.85,2.01-6.18,3.97-9.05,5.6c2.7,2.53,6.11,4.54,10.31,5.74
						c-1.34,1.15-3.22,3.49-4.17,5.02c-9.6-3.4-14.92-10.33-17.65-20.23c-1.98,1.86-4.24,3.68-6.63,5.31l-0.71,8.13l10.58-2.82
						c0.01,1.53,0.24,3.83,0.51,5.07c-14.03,4.06-16.24,4.73-17.75,5.59c-0.22-1.34-1.14-3.87-1.9-5.02
						c1.1-0.53,2.54-1.67,2.72-3.78l0.31-3.49c-2.3,1.15-4.54,2.15-6.81,2.92c-0.65-1.29-2.19-3.44-3.28-4.59
						c5.5-1.63,11.44-4.54,15.94-7.84h-13.58l0.42-4.83h18.12l0.23-2.68h-13.72l0.4-4.54h13.72l0.22-2.49h-16.07l0.42-4.83h16.07
						l0.3-3.44h5.74l-0.3,3.44h16.64l-0.42,4.83h-16.64l-0.22,2.49h14.78l-0.4,4.54h-14.78l-0.23,2.68h18.27l-0.42,4.83h-16.07
						c0.7,2.39,1.8,4.54,3.11,6.5c2.68-1.72,5.6-3.87,7.57-5.59L656.66,192.97z"/>
					<path fill="#FFFFFF" d="M705.3,204.35h-18.6l-0.53,6.07h-5.83l0.53-6.07h-18.17l0.43-4.88h18.17l0.22-2.49h-13.63l1.57-17.93
						h33.91l-1.57,17.93h-14.44l-0.22,2.49h18.6L705.3,204.35z M684.96,177.19h-17.07l0.84-9.56h17.07L684.96,177.19z M680.2,171.02
						h-6.7l-0.24,2.77h6.7L680.2,171.02z M681.89,192.64l0.23-2.58h-8.08l-0.23,2.58H681.89z M674.39,185.99h8.08l0.22-2.53h-8.08
						L674.39,185.99z M696.56,190.06h-8.61l-0.23,2.58h8.61L696.56,190.06z M705.05,177.19h-17.17l0.84-9.56h17.17L705.05,177.19z
						 M697.14,183.46h-8.61l-0.22,2.53h8.61L697.14,183.46z M700.28,171.02h-6.84l-0.24,2.77h6.84L700.28,171.02z"/>
				</g>
			</g>
			<g>
				<g>
					<g opacity="0.05">
						<ellipse transform="matrix(0.7224 -0.6915 0.6915 0.7224 15.3435 338.2512)" cx="428.94" cy="150.02" rx="26.02" ry="23.84"/>
					</g>
					<g>
						
							<ellipse transform="matrix(0.7224 -0.6915 0.6915 0.7224 20.189 340.3205)" fill="#FFFFFF" cx="433.94" cy="145.02" rx="26.02" ry="23.84"/>
					</g>
				</g>
				<g>
					<polygon fill="#F5A200" points="449.43,148.17 417.9,148.17 418.46,141.86 449.98,141.86 					"/>
					<polygon fill="#F5A200" points="429.41,160.78 432.17,129.25 438.47,129.25 435.71,160.78 					"/>
				</g>
			</g>
			<polygon fill="#EB6164" points="425.16,251.02 445.98,251.02 443.44,280.02 			"/>
		</g>
		<g>
			<g opacity="0.05">
				<path d="M111.48,112.21H14.54c-8.76,0-15.24-7.1-14.47-15.86l6.6-75.49C7.43,12.1,15.16,5,23.92,5h96.95
					c8.76,0,15.24,7.1,14.47,15.86l-6.6,75.49C127.96,105.11,120.24,112.21,111.48,112.21z"/>
			</g>
			<g>
				<path fill="#FFFFFF" d="M116.48,107.21H19.54c-8.76,0-15.24-7.1-14.47-15.86l6.6-75.49C12.43,7.1,20.16,0,28.92,0l96.95,0
					c8.76,0,15.24,7.1,14.47,15.86l-6.6,75.49C132.96,100.11,125.24,107.21,116.48,107.21z"/>
			</g>
		</g>
		<g>
			<path fill="#3DB4E8" d="M61.17,92.41h-4.94c-0.94,0-1.64-0.88-1.44-1.8l5.35-23.64c0.15-0.67,0.75-1.15,1.44-1.15h8.3
				c0.94,0,1.64,0.88,1.44,1.8l-4.6,20.36C66.12,90.58,63.82,92.41,61.17,92.41z"/>
			<path fill="#F8B500" d="M103.06,50.57l-4.57,1.03l-3.55-15.69l4.57-1.03c4.33-0.98,8.64,1.74,9.62,6.07l0,0
				C110.12,45.28,107.4,49.59,103.06,50.57z"/>
			<path fill="#F8B500" d="M44.85,73.6l17.32-3.92l-7.68-33.97l-17.32,3.92c-2.25,0.51-3.66,2.74-3.15,4.99l5.84,25.84
				C40.37,72.7,42.6,74.1,44.85,73.6z"/>
			<path fill="#FFE893" d="M54.48,35.71l39.79-16.12c1.98-0.8,4.22,0.36,4.69,2.45l9.13,40.36c0.47,2.07-1.02,4.08-3.14,4.23
				l-42.79,3.05L54.48,35.71z"/>
			<g>
				<g>
					<path fill="#FFE893" d="M50.73,45.07l-8.28,1.87c-0.51,0.11-1.01-0.2-1.13-0.71l0,0c-0.11-0.51,0.2-1.01,0.71-1.13l8.28-1.87
						c0.51-0.11,1.01,0.2,1.13,0.71l0,0C51.56,44.45,51.24,44.96,50.73,45.07z"/>
					<path fill="#FFE893" d="M51.51,48.52l-8.28,1.87c-0.51,0.11-1.01-0.2-1.13-0.71l0,0c-0.11-0.51,0.2-1.01,0.71-1.13l8.28-1.87
						c0.51-0.11,1.01,0.2,1.13,0.71l0,0C52.34,47.9,52.02,48.41,51.51,48.52z"/>
				</g>
			</g>
		</g>
	</g>
</g>
<g id="banner2">
</g>
<g id="banner2_文字">
</g>
<g id="footer">
</g>
<g id="圖層_12">
</g>
<g id="圖層_11">
</g>
<g id="圖層_5">
</g>
</svg>
