<?xml version="1.0" encoding="utf-8"?>
<!-- Generator: Adobe Illustrator 25.4.1, SVG Export Plug-In . SVG Version: 6.00 Build 0)  -->
<svg version="1.1" xmlns="http://www.w3.org/2000/svg" xmlns:xlink="http://www.w3.org/1999/xlink" x="0px" y="0px"
	 viewBox="0 0 350.31 538.78" enable-background="new 0 0 350.31 538.78" xml:space="preserve">
<g id="背景">
</g>
<g id="導覽列">
</g>
<g id="Banner">
	<g>
		<g>
			<path fill="#FDD762" d="M350.23,69.52c0.99-11.28-7.43-20.51-18.71-20.51H61.71c-11.28,0-21.32,9.23-22.3,20.51L18.63,307.02
				h310.82L350.23,69.52z"/>
		</g>
		<g>
			<path fill="#EF8582" d="M18.21,512.51c-0.99,11.28,7.43,20.51,18.71,20.51h269.81c11.28,0,21.32-9.23,22.3-20.51l20.78-237.49
				H38.99L18.21,512.51z"/>
		</g>
		<line fill="none" stroke="#005085" x1="261.91" y1="18.99" x2="332.45" y2="18.99"/>
		<g>
			<path fill="#005085" d="M135.94,30.94c-0.93-0.75-2.48-1.8-3.9-2.64c-1.72,1.49-3.78,2.67-5.87,3.48
				c-0.29-0.56-1.07-1.58-1.59-2.05c3.23-1.06,6.25-2.83,7.73-5.22l2.53,0.59c-0.29,0.5-0.65,0.99-1.03,1.43
				c1.46,0.75,3.05,1.74,3.98,2.46L135.94,30.94z M142.84,9.95c-0.27,0.22-0.54,0.44-0.77,0.65c2.67,1.8,7.97,3.39,12.45,4.07
				c-0.64,0.59-1.51,1.68-1.95,2.39c-2.38-0.5-4.95-1.34-7.31-2.36l-0.16,1.8h-10.48l0.15-1.71c-2.33,1-4.79,1.83-7.18,2.46
				c-0.25-0.68-0.85-1.68-1.42-2.3c5.2-1.15,11.17-3.33,14.47-6.22L142.84,9.95z M132.07,7.31c-1.14,1.68-2.39,3.2-3.55,4.32
				c-0.52-0.47-1.6-1.21-2.25-1.58c2.08-1.71,3.99-4.41,5.19-7.09l2.64,0.72c-0.23,0.5-0.46,0.93-0.72,1.43h7.52l-0.19,2.21h-5.22
				c0.51,0.9,0.96,2.14,1.14,2.95l-2.43,1.18c-0.14-0.87-0.65-2.21-1.08-3.23l2.01-0.9H132.07z M129.6,17.79h9.76l-0.57,6.56h-9.76
				L129.6,17.79z M131.56,22.39h4.91l0.23-2.64h-4.91L131.56,22.39z M144.8,14.52c-1.74-0.78-3.27-1.68-4.53-2.64
				c-1.48,0.96-3.15,1.87-4.89,2.64H144.8z M146.72,24.97c-0.27,0.56-0.53,1.12-0.88,1.59c2.44,0.87,5.2,2.05,6.89,2.92l-1.95,2.05
				c-1.54-0.9-4.2-2.08-6.58-2.98c-1.46,1.4-3.26,2.42-5.19,3.23c-0.33-0.5-1.15-1.43-1.64-1.9c3.1-1.03,5.68-2.77,6.81-5.32
				L146.72,24.97z M140.91,17.79h9.92l-0.57,6.56h-9.92L140.91,17.79z M144.75,7.37c-0.69,0.81-1.41,1.55-2.15,2.15
				c-0.46-0.47-1.57-1.27-2.22-1.59c1.73-1.27,3.29-3.11,4.23-5l2.68,0.68c-0.26,0.53-0.56,1.03-0.88,1.55h8.76l-0.19,2.21h-5.44
				c0.81,0.99,1.69,2.36,2.01,3.33l-2.44,1.24c-0.35-1.03-1.24-2.55-2.07-3.67l1.94-0.9H144.75z M142.9,22.39h5l0.23-2.64h-5
				L142.9,22.39z"/>
			<path fill="#005085" d="M160.85,23.66c-0.7,2.67-1.79,5.6-2.7,7.43c-0.57-0.28-1.71-0.65-2.41-0.84
				c1.03-1.87,1.96-4.63,2.61-7.09L160.85,23.66z M167.33,21.8c-0.05-0.47-0.13-1.03-0.23-1.65c-7.69,1.21-8.83,1.49-9.55,1.83
				c-0.11-0.53-0.42-1.9-0.7-2.67c0.79-0.16,1.6-0.84,2.78-1.96c0.54-0.5,1.73-1.68,3.05-3.2c-3.39,0.4-4.18,0.56-4.64,0.81
				c-0.11-0.56-0.43-1.86-0.7-2.61c0.63-0.09,1.27-0.72,2.07-1.62c0.86-0.9,3.52-4.32,5.24-7.65l2.54,1.15
				c-1.7,2.7-3.78,5.5-5.8,7.74l3.35-0.28c0.98-1.21,1.93-2.52,2.79-3.82l2.32,1.58c-2.42,3.2-5.26,6.43-8.04,9.08l4.84-0.65
				c-0.2-0.9-0.46-1.83-0.7-2.64l2.38-0.59c0.66,2.08,1.32,4.79,1.49,6.43L167.33,21.8z M164.43,22.95
				c0.25,2.18,0.47,4.94,0.43,6.81l-2.48,0.65c0.07-1.9-0.08-4.73-0.27-6.9L164.43,22.95z M168.06,22.23
				c0.62,1.83,1.25,4.2,1.48,5.78l-2.31,0.84c-0.21-1.55-0.8-4.01-1.35-5.91L168.06,22.23z M185.22,8.77c0,0-0.12,1.06-0.16,1.46
				c-1.56,13.55-2.34,18.25-3.66,19.74c-0.83,1.03-1.64,1.34-2.8,1.49c-1.1,0.16-2.93,0.09-4.69,0c0-0.78-0.26-2.05-0.68-2.86
				c1.88,0.16,3.62,0.16,4.4,0.16c0.56,0,0.94-0.09,1.29-0.5c0.95-0.96,1.78-5.47,3.08-16.75h-8.21c-0.89,1.65-1.86,3.14-2.8,4.32
				c-0.52-0.4-1.69-1.24-2.37-1.65c2.41-2.64,4.42-6.84,5.72-11l2.81,0.56c-0.58,1.71-1.26,3.42-1.96,5.04H185.22z M176.53,23.54
				c-0.8-1.87-2.82-4.76-4.76-6.75l2.15-1.46c1.92,1.9,4.07,4.66,4.9,6.53L176.53,23.54z"/>
			<path fill="#005085" d="M198.5,20.8c1.36,2.52,2.97,5.88,3.59,7.96l-2.77,1.43c-0.24-0.78-0.56-1.8-0.99-2.89
				c-7.81,2.55-8.97,3.02-9.76,3.57c-0.11-0.87-0.49-2.27-0.92-2.95c0.62-0.31,1.45-0.9,1.55-2.05l1.85-21.14h12.34l-1.3,14.83
				h-9.39l-0.61,6.93l5.23-1.55c-0.47-1.03-0.91-2.02-1.39-2.92L198.5,20.8z M199.42,16.98l0.32-3.64h-6.5l-0.32,3.64H199.42z
				 M193.77,7.31l-0.3,3.45h6.5l0.3-3.45H193.77z M214.65,22.67c-0.12,1.43-0.45,2.27-1.39,2.7c-1.01,0.5-2.41,0.53-4.52,0.53
				c-0.03-0.78-0.26-1.99-0.6-2.74c1.36,0.06,2.7,0.06,3.08,0.03c0.44-0.03,0.57-0.16,0.61-0.56l1.32-15.05h-4.79l-2.11,24.09h-2.89
				l2.34-26.73h10.51L214.65,22.67z"/>
			<path fill="#005085" d="M223.25,25.28c-1.02,2.05-2.44,4.41-3.57,5.97c-0.4-0.4-1.31-1.03-1.81-1.34
				c1.12-1.43,2.39-3.51,3.26-5.32L223.25,25.28z M228.23,23.82h-8.55l1.68-19.21h8.55L228.23,23.82z M226.37,18.07h-3.92l-0.3,3.42
				h3.92L226.37,18.07z M226.86,12.47h-3.92l-0.29,3.36h3.92L226.86,12.47z M227.34,6.94h-3.92l-0.29,3.33h3.92L227.34,6.94z
				 M226.33,24.56c0.86,1.49,1.88,3.39,2.3,4.6l-1.98,1.31c-0.44-1.34-1.42-3.36-2.22-4.85L226.33,24.56z M246.96,7.22l-0.95,10.88
				h-15.6l0.95-10.88h3.79c-0.32-0.96-0.89-2.3-1.49-3.26l2.37-0.84c0.71,1.09,1.43,2.52,1.72,3.48l-1.52,0.62h4.51
				c0.89-1.24,1.94-2.95,2.57-4.17l2.53,0.87c-0.78,1.09-1.69,2.3-2.5,3.29H246.96z M231.62,19.53h12.96l-1.04,11.94h-2.55l0.1-1.15
				h-7.99l-0.11,1.27h-2.42L231.62,19.53z M232.87,15.89h4.51l0.57-6.47h-4.51L232.87,15.89z M241.28,28.14l0.19-2.14h-7.99
				l-0.19,2.14H241.28z M233.85,21.76l-0.2,2.24h7.99l0.2-2.24H233.85z M235.45,10.23c0.54,1.34,1.15,3.17,1.37,4.23l-1.7,0.62
				c-0.18-1.12-0.73-2.98-1.26-4.38L235.45,10.23z M244.35,9.42h-4.48l-0.57,6.47h4.48L244.35,9.42z M240.13,14.58
				c0.66-1.18,1.64-3.08,2.06-4.35l1.72,0.56c-0.76,1.52-1.58,3.17-2.31,4.32L240.13,14.58z"/>
		</g>
		<g>
			<g>
				<g opacity="0.05">
					
						<ellipse transform="matrix(0.7224 -0.6915 0.6915 0.7224 -149.4474 203.7788)" cx="179.07" cy="288.02" rx="26.02" ry="23.84"/>
				</g>
				<g>
					
						<ellipse transform="matrix(0.7224 -0.6915 0.6915 0.7224 -144.6019 205.8481)" fill="#FFFFFF" cx="184.07" cy="283.02" rx="26.02" ry="23.84"/>
				</g>
			</g>
			<g>
				<polygon fill="#F5A200" points="199.56,286.17 168.03,286.17 168.58,279.86 200.11,279.86 				"/>
				<polygon fill="#F5A200" points="179.54,298.78 182.3,267.25 188.6,267.25 185.84,298.78 				"/>
			</g>
		</g>
		<g>
			<g opacity="0.05">
				<path d="M81.12,83.02H10.58c-6.37,0-11.09-5.17-10.53-11.54l4.81-54.93C5.41,10.17,11.03,5,17.4,5h70.54
					c6.37,0,11.09,5.17,10.53,11.54l-4.81,54.93C93.12,77.85,87.5,83.02,81.12,83.02z"/>
			</g>
			<g>
				<path fill="#FFFFFF" d="M86.12,78.02H15.58c-6.37,0-11.09-5.17-10.53-11.54l4.81-54.93C10.41,5.17,16.03,0,22.4,0h70.54
					c6.37,0,11.09,5.17,10.53,11.54l-4.81,54.93C98.12,72.85,92.5,78.02,86.12,78.02z"/>
			</g>
		</g>
		<g>
			<path fill="#3DB4E8" d="M45.88,67.25h-3.59c-0.69,0-1.2-0.64-1.04-1.31l3.89-17.2c0.11-0.49,0.54-0.83,1.04-0.83h6.04
				c0.69,0,1.2,0.64,1.04,1.31L49.9,64.03C49.48,65.91,47.8,67.25,45.88,67.25z"/>
			<path fill="#F8B500" d="M76.36,36.8l-3.33,0.75l-2.58-11.42l3.33-0.75c3.15-0.71,6.29,1.26,7,4.42l0,0
				C81.49,32.95,79.51,36.09,76.36,36.8z"/>
			<path fill="#F8B500" d="M35.1,53.3l11.49-2.6L41,25.98l-11.49,2.6c-2.25,0.51-3.66,2.74-3.15,4.99l3.75,16.59
				C30.62,52.4,32.86,53.81,35.1,53.3z"/>
			<path fill="#FFE893" d="M41,25.98l28.96-11.73c1.44-0.58,3.07,0.26,3.41,1.78l6.64,29.37c0.34,1.51-0.74,2.97-2.28,3.08
				L46.59,50.7L41,25.98z"/>
			<g>
				<g>
					<path fill="#FFE893" d="M38.28,32.8l-6.02,1.36c-0.37,0.08-0.74-0.15-0.82-0.52l0,0c-0.08-0.37,0.15-0.74,0.52-0.82l6.02-1.36
						c0.37-0.08,0.74,0.15,0.82,0.52l0,0C38.88,32.35,38.65,32.72,38.28,32.8z"/>
					<path fill="#FFE893" d="M38.85,35.31l-6.02,1.36c-0.37,0.08-0.74-0.15-0.82-0.52l0,0c-0.08-0.37,0.15-0.74,0.52-0.82l6.02-1.36
						c0.37-0.08,0.74,0.15,0.82,0.52l0,0C39.45,34.86,39.22,35.23,38.85,35.31z"/>
				</g>
			</g>
		</g>
		<g>
			<g>
				<path fill="none" stroke="#F8B500" stroke-width="5" d="M138.25,166.19h-19.57l5.45-62.29l-19.71,5.62l1.3-14.82l38.11-12.79
					h1.79L138.25,166.19z"/>
				<path fill="none" stroke="#F8B500" stroke-width="5" d="M183.48,120.13c-1.56,3.58-3.36,7.21-5.37,10.79l-3.52,40.26h-6.42
					l2.54-29.08c-1.4,1.76-2.8,3.41-4.23,4.88c-0.37-1.65-1.67-5.62-2.54-7.33c5.16-5.17,10.19-13.29,13.46-21.47L183.48,120.13z
					 M218.1,120.98l-4.34,49.58h-6.42l0.24-2.78h-21.35l-0.29,3.29h-6.13l4.38-50.09H218.1z M208.1,161.93l3.07-35.1h-21.35
					l-3.07,35.1H208.1z M201.95,138.7l-0.43,4.88h5.45l-1.33,15.22h-15.73l1.33-15.22h5.05l0.43-4.88h-6.53l0.43-4.88h6.53
					l0.51-5.79h5.22l-0.51,5.79h6.87l-0.43,4.88H201.95z M201.52,148.24h-5.79l-0.52,5.96h5.79L201.52,148.24z"/>
				<path fill="none" stroke="#F8B500" stroke-width="5" d="M266.76,162.5c-0.36,4.09-1.49,6.02-4.2,7.16
					c-2.83,1.19-6.81,1.31-12.66,1.31c-0.22-1.99-1.3-5.22-2.22-7.1c3.96,0.23,8.73,0.17,9.98,0.17c1.36,0,1.86-0.45,1.96-1.65
					l0.72-8.24h-24.3c-2.03,6.36-5.41,12.55-11.08,16.98c-0.9-1.42-3.4-3.92-4.8-4.88c9.21-7.33,10.96-18.17,11.71-26.8l1.63-18.68
					h36.91L266.76,162.5z M260.91,147.62l0.61-6.93h-22.77c-0.25,2.16-0.57,4.54-1,6.93H260.91z M239.92,127.34l-0.61,6.93h22.77
					l0.61-6.93H239.92z"/>
				<path fill="none" stroke="#F8B500" stroke-width="5" d="M114.03,222.27c-0.64,2.96-1.7,5.79-3.36,8.32
					c4.22,2.1,9.6,3.44,16,4.02c-1.3,1.24-2.99,3.59-3.84,5.07c-6.38-0.81-11.69-2.49-15.92-5.02c-2.48,2.1-5.89,3.87-10.25,5.12
					c-0.61-1.24-2.08-3.54-3.12-4.73c3.9-0.86,6.83-2.1,9.03-3.68c-2.17-1.96-3.87-4.4-5.26-7.12l4.76-1.43
					c0.98,1.87,2.37,3.49,4.02,4.93c1.11-1.72,1.79-3.49,2.25-5.45H97.67l1.22-13.96h11l0.29-3.35h-12l0.38-4.4
					c-1.02,1.82-2.14,3.68-3.35,5.5l-2.96,33.81h-5.4l2.25-25.68c-1.43,1.63-2.86,3.16-4.31,4.5c-0.41-1.39-1.67-4.45-2.5-5.83
					c4.92-4.3,9.96-11.05,13.13-17.84l5.11,1.72c-0.52,1-1.04,2.01-1.56,3.06h11.67l0.38-4.35h5.64l-0.38,4.35h12.67l-0.45,5.16
					h-12.67l-0.29,3.35h11.38l-1.22,13.96H114.03z M109.07,217.68l0.05-0.62l0.36-4.11h-5.88l-0.41,4.73H109.07z M115.13,212.95
					l-0.36,4.16l-0.05,0.57h5.93l0.41-4.73H115.13z"/>
				<path fill="none" stroke="#F8B500" stroke-width="5" d="M171.57,233.03c-0.27,3.06-1.07,4.59-3.06,5.45
					c-2.04,0.96-4.97,1.05-9.27,1c-0.06-1.53-0.75-3.97-1.34-5.45c2.67,0.14,5.83,0.1,6.69,0.1c0.91,0,1.27-0.29,1.34-1.15
					l0.63-7.17h-10.09l-1.17,13.34h-5.74l1.17-13.34h-9.76c-1.32,5.21-3.5,10.47-7.27,14.2c-0.82-1.05-2.94-3.01-4.17-3.68
					c5.71-5.74,6.89-14.25,7.48-20.95l1.49-17.07h36.1L171.57,233.03z M151.2,220.46l0.51-5.88h-8.99l-0.08,0.86
					c-0.13,1.53-0.33,3.25-0.58,5.02H151.2z M143.67,203.72l-0.49,5.55h8.99l0.49-5.55H143.67z M167.03,220.46l0.51-5.88h-10.09
					l-0.51,5.88H167.03z M168.49,203.72H158.4l-0.49,5.55H168L168.49,203.72z"/>
				<path fill="none" stroke="#F8B500" stroke-width="5" d="M206.6,218.5c2.68,7.6,8.31,13.2,17.42,15.64
					c-1.49,1.2-3.43,3.68-4.38,5.31c-8.74-2.87-14.04-8.42-17.37-16.26c-3.19,6.36-9.12,12.39-20.23,16.4
					c-0.64-1.43-2.15-3.83-3.3-4.93c11.39-3.92,16.62-10.09,19.11-16.16h-16.02l0.51-5.83h17.22c0.21-1.29,0.36-2.49,0.47-3.68
					l0.42-4.83H184.8l0.51-5.83h37.87l-0.51,5.83h-16.26l-0.43,4.93c-0.1,1.15-0.25,2.34-0.41,3.59h18.22l-0.51,5.83H206.6z"/>
				<path fill="none" stroke="#F8B500" stroke-width="5" d="M271.28,208.79c-1.38,7.03-3.15,13.01-5.69,18.03
					c1.55,3.63,3.78,6.55,6.82,8.46c-1.17,0.81-2.72,2.63-3.54,3.87c-2.7-1.91-4.68-4.45-6.27-7.56c-2.45,3.4-5.51,6.17-9.3,8.46
					c-0.26-0.81-1.09-2.34-1.85-3.44l-3.29,2.63c-1.53-1.05-3.58-2.2-5.88-3.3c-3.28,1.43-7.69,2.68-13.7,3.54
					c-0.29-1.1-1.1-2.73-1.74-3.63c4.26-0.57,7.62-1.29,10.28-2.15c-2.08-0.86-4.21-1.63-6.17-2.2c0.74-0.76,1.58-1.72,2.35-2.77
					l-4.33,0.24l-0.1-3.78c2.11-0.1,4.61-0.19,7.39-0.33c0.7-0.96,1.37-2.01,1.93-2.96h-7.03l0.76-8.66h8.56l0.12-1.34h-7.27
					l0.44-5.02h-3.63l0.35-4.02h3.63l0.42-4.83h7.27l0.25-2.92h4.3l-0.25,2.92h7.7l-0.42,4.83h3.25l-0.35,4.02h-3.25l-0.44,5.02
					h-7.7l-0.12,1.34h8.75l-0.31,3.49c3.6-5.12,5.89-13.25,7.47-21.47l4.73,0.62c-0.57,2.68-1.19,5.36-1.94,7.94h11.33l-0.44,4.97
					H271.28z M236.1,218.45h3.92l0.15-1.77h-3.92L236.1,218.45z M237.75,229.73c1.53,0.53,3.11,1.1,4.63,1.72
					c1.86-1.05,2.97-2.25,3.65-3.4l-7.3,0.38L237.75,229.73z M240.91,208.31l0.15-1.72h-2.58l-0.15,1.72H240.91z M238.92,201.62
					l-0.13,1.53h2.58l0.13-1.53H238.92z M250.93,227.77c-0.6,1.91-1.82,3.83-4.13,5.64c1.65,0.77,3.12,1.53,4.4,2.2
					c4.02-2.25,7.06-5.26,9.31-9.13c-0.85-2.87-1.53-6.07-1.99-9.52c-0.63,1.24-1.36,2.44-2.12,3.49c-0.64-0.86-2.2-2.68-3.19-3.49
					l-0.43,4.93h-9.56c-0.56,0.91-1.16,1.82-1.77,2.77l5.62-0.29l0.15-1.67h4.45l-0.13,1.48l1.54-0.1l-0.36,3.59L250.93,227.77z
					 M244.48,216.68l-0.15,1.77h3.83l0.15-1.77H244.48z M247.99,208.31l0.15-1.72h-2.77l-0.15,1.72H247.99z M245.8,201.62
					l-0.13,1.53h2.77l0.13-1.53H245.8z M262.01,208.79c0.22,4.06,0.69,7.94,1.43,11.48c1.3-3.4,2.26-7.22,3.06-11.48H262.01z"/>
			</g>
			<g>
				<path fill="#FFFFFF" d="M141.25,163.19h-19.57l5.45-62.29l-19.71,5.62l1.3-14.82l38.11-12.79h1.79L141.25,163.19z"/>
				<path fill="#FFFFFF" d="M186.48,117.13c-1.56,3.58-3.36,7.21-5.37,10.79l-3.52,40.26h-6.42l2.54-29.08
					c-1.4,1.76-2.8,3.41-4.23,4.88c-0.37-1.65-1.67-5.62-2.54-7.33c5.16-5.17,10.19-13.29,13.46-21.47L186.48,117.13z M221.1,117.98
					l-4.34,49.58h-6.42l0.24-2.78h-21.35l-0.29,3.29h-6.13l4.38-50.09H221.1z M211.1,158.93l3.07-35.1h-21.35l-3.07,35.1H211.1z
					 M204.95,135.7l-0.43,4.88h5.45l-1.33,15.22h-15.73l1.33-15.22h5.05l0.43-4.88h-6.53l0.43-4.88h6.53l0.51-5.79h5.22l-0.51,5.79
					h6.87l-0.43,4.88H204.95z M204.52,145.24h-5.79l-0.52,5.96h5.79L204.52,145.24z"/>
				<path fill="#FFFFFF" d="M269.76,159.5c-0.36,4.09-1.49,6.02-4.2,7.16c-2.83,1.19-6.81,1.31-12.66,1.31
					c-0.22-1.99-1.3-5.22-2.22-7.1c3.96,0.23,8.73,0.17,9.98,0.17c1.36,0,1.86-0.45,1.96-1.65l0.72-8.24h-24.3
					c-2.03,6.36-5.41,12.55-11.08,16.98c-0.9-1.42-3.4-3.92-4.8-4.88c9.21-7.33,10.96-18.17,11.71-26.8l1.63-18.68h36.91
					L269.76,159.5z M263.91,144.62l0.61-6.93h-22.77c-0.25,2.16-0.57,4.54-1,6.93H263.91z M242.92,124.34l-0.61,6.93h22.77
					l0.61-6.93H242.92z"/>
				<path fill="#FFFFFF" d="M117.03,219.27c-0.64,2.96-1.7,5.79-3.36,8.32c4.22,2.1,9.6,3.44,16,4.02c-1.3,1.24-2.99,3.59-3.84,5.07
					c-6.38-0.81-11.69-2.49-15.92-5.02c-2.48,2.1-5.89,3.87-10.25,5.12c-0.61-1.24-2.08-3.54-3.12-4.73c3.9-0.86,6.83-2.1,9.03-3.68
					c-2.17-1.96-3.87-4.4-5.26-7.12l4.76-1.43c0.98,1.87,2.37,3.49,4.02,4.93c1.11-1.72,1.79-3.49,2.25-5.45h-10.66l1.22-13.96h11
					l0.29-3.35h-12l0.38-4.4c-1.02,1.82-2.14,3.68-3.35,5.5l-2.96,33.81h-5.4l2.25-25.68c-1.43,1.63-2.86,3.16-4.31,4.5
					c-0.41-1.39-1.67-4.45-2.5-5.83c4.92-4.3,9.96-11.05,13.13-17.84l5.11,1.72c-0.52,1-1.04,2.01-1.56,3.06h11.67l0.38-4.35h5.64
					l-0.38,4.35h12.67l-0.45,5.16h-12.67l-0.29,3.35h11.38l-1.22,13.96H117.03z M112.07,214.68l0.05-0.62l0.36-4.11h-5.88
					l-0.41,4.73H112.07z M118.13,209.95l-0.36,4.16l-0.05,0.57h5.93l0.41-4.73H118.13z"/>
				<path fill="#FFFFFF" d="M174.57,230.03c-0.27,3.06-1.07,4.59-3.06,5.45c-2.04,0.96-4.97,1.05-9.27,1
					c-0.06-1.53-0.75-3.97-1.34-5.45c2.67,0.14,5.83,0.1,6.69,0.1c0.91,0,1.27-0.29,1.34-1.15l0.63-7.17h-10.09l-1.17,13.34h-5.74
					l1.17-13.34h-9.76c-1.32,5.21-3.5,10.47-7.27,14.2c-0.82-1.05-2.94-3.01-4.17-3.68c5.71-5.74,6.89-14.25,7.48-20.95l1.49-17.07
					h36.1L174.57,230.03z M154.2,217.46l0.51-5.88h-8.99l-0.08,0.86c-0.13,1.53-0.33,3.25-0.58,5.02H154.2z M146.67,200.72
					l-0.49,5.55h8.99l0.49-5.55H146.67z M170.03,217.46l0.51-5.88h-10.09l-0.51,5.88H170.03z M171.49,200.72H161.4l-0.49,5.55H171
					L171.49,200.72z"/>
				<path fill="#FFFFFF" d="M209.6,215.5c2.68,7.6,8.31,13.2,17.42,15.64c-1.49,1.2-3.43,3.68-4.38,5.31
					c-8.74-2.87-14.04-8.42-17.37-16.26c-3.19,6.36-9.12,12.39-20.23,16.4c-0.64-1.43-2.15-3.83-3.3-4.93
					c11.39-3.92,16.62-10.09,19.11-16.16h-16.02l0.51-5.83h17.22c0.21-1.29,0.36-2.49,0.47-3.68l0.42-4.83H187.8l0.51-5.83h37.87
					l-0.51,5.83h-16.26l-0.43,4.93c-0.1,1.15-0.25,2.34-0.41,3.59h18.22l-0.51,5.83H209.6z"/>
				<path fill="#FFFFFF" d="M274.28,205.79c-1.38,7.03-3.15,13.01-5.69,18.03c1.55,3.63,3.78,6.55,6.82,8.46
					c-1.17,0.81-2.72,2.63-3.54,3.87c-2.7-1.91-4.68-4.45-6.27-7.56c-2.45,3.4-5.51,6.17-9.3,8.46c-0.26-0.81-1.09-2.34-1.85-3.44
					l-3.29,2.63c-1.53-1.05-3.58-2.2-5.88-3.3c-3.28,1.43-7.69,2.68-13.7,3.54c-0.29-1.1-1.1-2.73-1.74-3.63
					c4.26-0.57,7.62-1.29,10.28-2.15c-2.08-0.86-4.21-1.63-6.17-2.2c0.74-0.76,1.58-1.72,2.35-2.77l-4.33,0.24l-0.1-3.78
					c2.11-0.1,4.61-0.19,7.39-0.33c0.7-0.96,1.37-2.01,1.93-2.96h-7.03l0.76-8.66h8.56l0.12-1.34h-7.27l0.44-5.02h-3.63l0.35-4.02
					h3.63l0.42-4.83h7.27l0.25-2.92h4.3l-0.25,2.92h7.7l-0.42,4.83h3.25l-0.35,4.02h-3.25l-0.44,5.02h-7.7l-0.12,1.34h8.75
					l-0.31,3.49c3.6-5.12,5.89-13.25,7.47-21.47l4.73,0.62c-0.57,2.68-1.19,5.36-1.94,7.94h11.33l-0.44,4.97H274.28z M239.1,215.45
					h3.92l0.15-1.77h-3.92L239.1,215.45z M240.75,226.73c1.53,0.53,3.11,1.1,4.63,1.72c1.86-1.05,2.97-2.25,3.65-3.4l-7.3,0.38
					L240.75,226.73z M243.91,205.31l0.15-1.72h-2.58l-0.15,1.72H243.91z M241.92,198.62l-0.13,1.53h2.58l0.13-1.53H241.92z
					 M253.93,224.77c-0.6,1.91-1.82,3.83-4.13,5.64c1.65,0.77,3.12,1.53,4.4,2.2c4.02-2.25,7.06-5.26,9.31-9.13
					c-0.85-2.87-1.53-6.07-1.99-9.52c-0.63,1.24-1.36,2.44-2.12,3.49c-0.64-0.86-2.2-2.68-3.19-3.49l-0.43,4.93h-9.56
					c-0.56,0.91-1.16,1.82-1.77,2.77l5.62-0.29l0.15-1.67h4.45l-0.13,1.48l1.54-0.1l-0.36,3.59L253.93,224.77z M247.48,213.68
					l-0.15,1.77h3.83l0.15-1.77H247.48z M250.99,205.31l0.15-1.72h-2.77l-0.15,1.72H250.99z M248.8,198.62l-0.13,1.53h2.77
					l0.13-1.53H248.8z M265.01,205.79c0.22,4.06,0.69,7.94,1.43,11.48c1.3-3.4,2.26-7.22,3.06-11.48H265.01z"/>
			</g>
		</g>
		<polygon fill="#EB6164" points="18.63,307.02 36.19,307.02 38.99,275.02 		"/>
		<g>
			<g>
				<path fill="none" stroke="#E60012" stroke-width="5" d="M131.61,416.84h-19.57l5.45-62.29l-19.71,5.61l1.3-14.82l38.11-12.79
					h1.79L131.61,416.84z"/>
				<path fill="none" stroke="#E60012" stroke-width="5" d="M220.93,382.4c-1,11.38-4.32,20.16-9.97,26.34
					c-5.65,6.18-13.13,9.26-22.43,9.26c-9.38,0-16.36-3.11-20.95-9.32c-4.59-6.21-6.39-14.97-5.4-26.28l1.35-15.4
					c0.99-11.38,4.32-20.16,9.97-26.34c5.65-6.17,13.15-9.26,22.49-9.26c9.34,0,16.3,3.11,20.89,9.32
					c4.59,6.21,6.39,14.99,5.39,26.34L220.93,382.4z M202.99,364.51c0.53-6.06,0.13-10.58-1.19-13.57c-1.32-2.99-3.7-4.49-7.13-4.49
					c-3.36,0-5.92,1.39-7.69,4.17c-1.77,2.78-2.96,6.99-3.56,12.62l-1.88,21.53c-0.55,6.29-0.16,10.89,1.17,13.81
					c1.33,2.91,3.71,4.37,7.14,4.37c3.32,0,5.89-1.42,7.72-4.25c1.83-2.84,3.03-7.28,3.6-13.34L202.99,364.51z"/>
				<path fill="none" stroke="#E60012" stroke-width="5" d="M247.5,396.34c0,0-0.21,1.7-0.34,2.56c-1.8,12.83-2.9,18.29-4.71,20.16
					c-1.33,1.53-2.56,2.04-4.46,2.33c-1.61,0.23-4.23,0.28-6.94,0.17c0.07-2.1-0.43-4.83-1.46-6.64c2.48,0.23,4.74,0.28,5.88,0.28
					c0.91,0,1.49-0.11,2.1-0.68c0.93-0.91,1.8-4.32,2.96-12.38h-10.45c0.88-4.88,1.89-12.55,2.37-18.63h9.71l0.55-6.3h-10.56
					l0.53-6.02h16.75l-1.61,18.34h-10.11c-0.26,2.33-0.52,4.66-0.82,6.81H247.5z M280.09,404.8c-2.7,1.7-5.53,3.46-7.97,4.77
					c2.5,2.56,5.38,4.66,8.55,6.08c-1.59,1.31-3.85,3.81-5.02,5.51c-7.54-4.09-13.03-12.04-16.04-21.13h-2.84l-1.16,13.29l7.51-2.1
					c-0.15,1.7-0.25,4.15-0.08,5.51c-10.91,3.35-12.87,4.26-14.14,5.17c-0.33-1.48-1.57-4.15-2.37-5.4
					c1.14-0.74,2.69-2.16,2.91-4.66l1.03-11.81h-2.5l0.5-5.74h3.46l2.03-23.23h28.45l-0.46,5.28h-21.86l-0.24,2.73h19.59l-0.41,4.71
					h-19.59l-0.25,2.9h19.64l-0.41,4.71h-19.64l-0.25,2.9h22.77l-0.5,5.74h-15.04c0.79,2.04,1.92,3.98,3.23,5.85
					c2.36-1.65,4.87-3.69,6.48-5.28L280.09,404.8z"/>
				<path fill="none" stroke="#E60012" stroke-width="5" d="M89.57,463.89h-5.21l0.94-10.76h18.08l0.17-1.91H87.62l0.33-3.73h37.49
					l-0.33,3.73H109.1l-0.17,1.91h18.46l-0.94,10.76h-5.5l-1.3,3.44c-2.46-0.91-7.28-2.1-10.81-2.68l1.38-3.2
					c3.36,0.38,8.01,1.39,10.56,2.25l0.6-6.84h-2.58l1.51,2.44c-2.63,1.05-6.18,1.82-8.71,2.3l-1.54-2.68
					c1.9-0.43,4.66-1.29,6.73-2.06h-8.18l-0.87,9.95h-5.55l0.87-9.95h-9.13c2.54,0.48,5.53,1.29,7.29,1.96l-1.8,3.06
					c-1.85-0.77-5.34-1.77-8.02-2.34l1.57-2.68h-2.58l-0.57,6.55c2.95-0.33,7.01-0.91,11.18-1.53l-0.09,3.25
					c-3.66,0.81-7.27,1.63-10.34,2.3L89.57,463.89z M118.2,485.45c2.44,0,2.93-0.72,3.62-4.73c1.03,0.76,3.12,1.48,4.58,1.77
					c-1.17,5.74-2.88,7.27-8.1,7.27h-10.04c-6.5,0-8.25-1.34-7.82-6.31l0.01-0.14h-7.94l-0.18,2.06h-5.45L88.4,468h33.14l-1.34,15.3
					h-14.3l-0.01,0.14c-0.15,1.72,0.4,2.01,3.27,2.01H118.2z M100.79,479.48l0.19-2.15h-7.94l-0.19,2.15H100.79z M93.52,471.83
					l-0.19,2.15h7.94l0.19-2.15H93.52z M114.89,479.48l0.19-2.15h-8.65l-0.19,2.15H114.89z M115.56,471.83h-8.66l-0.19,2.15h8.65
					L115.56,471.83z"/>
				<path fill="none" stroke="#E60012" stroke-width="5" d="M175.17,472.11h-18.55l-1.01,11.52c-0.28,3.2-1.13,4.78-3.46,5.69
					c-2.42,0.91-5.69,1.05-10.08,1c-0.19-1.67-1.11-4.26-1.93-5.88c3.33,0.19,7.06,0.19,8.07,0.14c1.06-0.05,1.41-0.29,1.48-1.1
					l1-11.38h-18.94l0.5-5.69h18.94l0.58-6.65c3.14-1.44,6.77-3.59,9.72-5.64h-23.43l0.49-5.64h29.79l1.37-0.29l4.01,3.3
					c-4.42,4.02-10.53,8.32-16.29,11.29l-0.32,3.63h18.55L175.17,472.11z"/>
				<path fill="none" stroke="#E60012" stroke-width="5" d="M222.58,472.97c-2.85,2.01-6.18,3.97-9.05,5.59
					c2.7,2.54,6.11,4.54,10.3,5.74c-1.34,1.15-3.22,3.49-4.17,5.02c-9.6-3.39-14.92-10.33-17.64-20.23
					c-1.98,1.86-4.24,3.68-6.63,5.31l-0.71,8.13l10.58-2.82c0.01,1.53,0.24,3.83,0.51,5.07c-14.03,4.06-16.24,4.73-17.75,5.6
					c-0.22-1.34-1.14-3.87-1.9-5.02c1.1-0.53,2.54-1.67,2.72-3.78l0.31-3.49c-2.3,1.15-4.54,2.15-6.81,2.92
					c-0.65-1.29-2.19-3.44-3.28-4.59c5.5-1.63,11.44-4.54,15.94-7.84H181.4l0.42-4.83h18.12l0.23-2.68h-13.72l0.4-4.54h13.72
					l0.22-2.49h-16.07l0.42-4.83h16.07l0.3-3.44h5.74l-0.3,3.44h16.64l-0.42,4.83h-16.64l-0.22,2.49h14.78l-0.4,4.54h-14.78
					l-0.23,2.68h18.27l-0.42,4.83h-16.07c0.7,2.39,1.8,4.54,3.11,6.5c2.69-1.72,5.6-3.87,7.57-5.6L222.58,472.97z"/>
				<path fill="none" stroke="#E60012" stroke-width="5" d="M271.22,484.35h-18.6l-0.53,6.07h-5.84l0.53-6.07h-18.17l0.43-4.88
					h18.17l0.22-2.49h-13.63l1.57-17.93h33.91l-1.57,17.93h-14.44l-0.22,2.49h18.6L271.22,484.35z M250.88,457.19H233.8l0.84-9.56
					h17.07L250.88,457.19z M246.11,451.02h-6.7l-0.24,2.77h6.7L246.11,451.02z M247.8,472.64l0.23-2.58h-8.08l-0.23,2.58H247.8z
					 M240.3,465.99h8.08l0.22-2.53h-8.08L240.3,465.99z M262.47,470.06h-8.61l-0.23,2.58h8.61L262.47,470.06z M270.96,457.19h-17.17
					l0.84-9.56h17.17L270.96,457.19z M263.05,463.46h-8.61l-0.22,2.53h8.61L263.05,463.46z M266.19,451.02h-6.84l-0.24,2.77h6.84
					L266.19,451.02z"/>
			</g>
			<g>
				<path fill="#FFFFFF" d="M134.61,413.84h-19.57l5.45-62.29l-19.71,5.61l1.3-14.82l38.11-12.79h1.79L134.61,413.84z"/>
				<path fill="#FFFFFF" d="M223.93,379.4c-1,11.38-4.32,20.16-9.97,26.34c-5.65,6.18-13.13,9.26-22.43,9.26
					c-9.38,0-16.36-3.11-20.95-9.32c-4.59-6.21-6.39-14.97-5.4-26.28l1.35-15.4c0.99-11.38,4.32-20.16,9.97-26.34
					c5.65-6.17,13.15-9.26,22.49-9.26c9.34,0,16.3,3.11,20.89,9.32c4.59,6.21,6.39,14.99,5.39,26.34L223.93,379.4z M205.99,361.51
					c0.53-6.06,0.13-10.58-1.19-13.57c-1.32-2.99-3.7-4.49-7.13-4.49c-3.36,0-5.92,1.39-7.69,4.17c-1.77,2.78-2.96,6.99-3.56,12.62
					l-1.88,21.53c-0.55,6.29-0.16,10.89,1.17,13.81c1.33,2.91,3.71,4.37,7.14,4.37c3.32,0,5.89-1.42,7.72-4.25
					c1.83-2.84,3.03-7.28,3.6-13.34L205.99,361.51z"/>
				<path fill="#FFFFFF" d="M250.5,393.34c0,0-0.21,1.7-0.34,2.56c-1.8,12.83-2.9,18.29-4.71,20.16c-1.33,1.53-2.56,2.04-4.46,2.33
					c-1.61,0.23-4.23,0.28-6.94,0.17c0.07-2.1-0.43-4.83-1.46-6.64c2.48,0.23,4.74,0.28,5.88,0.28c0.91,0,1.49-0.11,2.1-0.68
					c0.93-0.91,1.8-4.32,2.96-12.38h-10.45c0.88-4.88,1.89-12.55,2.37-18.63h9.71l0.55-6.3h-10.56l0.53-6.02h16.75l-1.61,18.34
					h-10.11c-0.26,2.33-0.52,4.66-0.82,6.81H250.5z M283.09,401.8c-2.7,1.7-5.53,3.46-7.97,4.77c2.5,2.56,5.38,4.66,8.55,6.08
					c-1.59,1.31-3.85,3.81-5.02,5.51c-7.54-4.09-13.03-12.04-16.04-21.13h-2.84l-1.16,13.29l7.51-2.1c-0.15,1.7-0.25,4.15-0.08,5.51
					c-10.91,3.35-12.87,4.26-14.14,5.17c-0.33-1.48-1.57-4.15-2.37-5.4c1.14-0.74,2.69-2.16,2.91-4.66l1.03-11.81h-2.5l0.5-5.74
					h3.46l2.03-23.23h28.45l-0.46,5.28h-21.86l-0.24,2.73h19.59l-0.41,4.71h-19.59l-0.25,2.9h19.64l-0.41,4.71h-19.64l-0.25,2.9
					h22.77l-0.5,5.74h-15.04c0.79,2.04,1.92,3.98,3.23,5.85c2.36-1.65,4.87-3.69,6.48-5.28L283.09,401.8z"/>
				<path fill="#FFFFFF" d="M92.57,460.89h-5.21l0.94-10.76h18.08l0.17-1.91H90.62l0.33-3.73h37.49l-0.33,3.73H112.1l-0.17,1.91
					h18.46l-0.94,10.76h-5.5l-1.3,3.44c-2.46-0.91-7.28-2.1-10.81-2.68l1.38-3.2c3.36,0.38,8.01,1.39,10.56,2.25l0.6-6.84h-2.58
					l1.51,2.44c-2.63,1.05-6.18,1.82-8.71,2.3l-1.54-2.68c1.9-0.43,4.66-1.29,6.73-2.06h-8.18l-0.87,9.95h-5.55l0.87-9.95h-9.13
					c2.54,0.48,5.53,1.29,7.29,1.96l-1.8,3.06c-1.85-0.77-5.34-1.77-8.02-2.34l1.57-2.68h-2.58l-0.57,6.55
					c2.95-0.33,7.01-0.91,11.18-1.53l-0.09,3.25c-3.66,0.81-7.27,1.63-10.34,2.3L92.57,460.89z M121.2,482.45
					c2.44,0,2.93-0.72,3.62-4.73c1.03,0.76,3.12,1.48,4.58,1.77c-1.17,5.74-2.88,7.27-8.1,7.27h-10.04c-6.5,0-8.25-1.34-7.82-6.31
					l0.01-0.14h-7.94l-0.18,2.06h-5.45L91.4,465h33.14l-1.34,15.3h-14.3l-0.01,0.14c-0.15,1.72,0.4,2.01,3.27,2.01H121.2z
					 M103.79,476.48l0.19-2.15h-7.94l-0.19,2.15H103.79z M96.52,468.83l-0.19,2.15h7.94l0.19-2.15H96.52z M117.89,476.48l0.19-2.15
					h-8.65l-0.19,2.15H117.89z M118.56,468.83h-8.66l-0.19,2.15h8.65L118.56,468.83z"/>
				<path fill="#FFFFFF" d="M178.17,469.11h-18.55l-1.01,11.52c-0.28,3.2-1.13,4.78-3.46,5.69c-2.42,0.91-5.69,1.05-10.08,1
					c-0.19-1.67-1.11-4.26-1.93-5.88c3.33,0.19,7.06,0.19,8.07,0.14c1.06-0.05,1.41-0.29,1.48-1.1l1-11.38h-18.94l0.5-5.69h18.94
					l0.58-6.65c3.14-1.44,6.77-3.59,9.72-5.64h-23.43l0.49-5.64h29.79l1.37-0.29l4.01,3.3c-4.42,4.02-10.53,8.32-16.29,11.29
					l-0.32,3.63h18.55L178.17,469.11z"/>
				<path fill="#FFFFFF" d="M225.58,469.97c-2.85,2.01-6.18,3.97-9.05,5.59c2.7,2.54,6.11,4.54,10.3,5.74
					c-1.34,1.15-3.22,3.49-4.17,5.02c-9.6-3.39-14.92-10.33-17.64-20.23c-1.98,1.86-4.24,3.68-6.63,5.31l-0.71,8.13l10.58-2.82
					c0.01,1.53,0.24,3.83,0.51,5.07c-14.03,4.06-16.24,4.73-17.75,5.6c-0.22-1.34-1.14-3.87-1.9-5.02c1.1-0.53,2.54-1.67,2.72-3.78
					l0.31-3.49c-2.3,1.15-4.54,2.15-6.81,2.92c-0.65-1.29-2.19-3.44-3.28-4.59c5.5-1.63,11.44-4.54,15.94-7.84H184.4l0.42-4.83
					h18.12l0.23-2.68h-13.72l0.4-4.54h13.72l0.22-2.49h-16.07l0.42-4.83h16.07l0.3-3.44h5.74l-0.3,3.44h16.64l-0.42,4.83h-16.64
					l-0.22,2.49h14.78l-0.4,4.54h-14.78l-0.23,2.68h18.27l-0.42,4.83h-16.07c0.7,2.39,1.8,4.54,3.11,6.5
					c2.69-1.72,5.6-3.87,7.57-5.6L225.58,469.97z"/>
				<path fill="#FFFFFF" d="M274.22,481.35h-18.6l-0.53,6.07h-5.84l0.53-6.07h-18.17l0.43-4.88h18.17l0.22-2.49h-13.63l1.57-17.93
					h33.91l-1.57,17.93h-14.44l-0.22,2.49h18.6L274.22,481.35z M253.88,454.19H236.8l0.84-9.56h17.07L253.88,454.19z M249.11,448.02
					h-6.7l-0.24,2.77h6.7L249.11,448.02z M250.8,469.64l0.23-2.58h-8.08l-0.23,2.58H250.8z M243.3,462.99h8.08l0.22-2.53h-8.08
					L243.3,462.99z M265.47,467.06h-8.61l-0.23,2.58h8.61L265.47,467.06z M273.96,454.19h-17.17l0.84-9.56h17.17L273.96,454.19z
					 M266.05,460.46h-8.61l-0.22,2.53h8.61L266.05,460.46z M269.19,448.02h-6.84l-0.24,2.77h6.84L269.19,448.02z"/>
			</g>
		</g>
	</g>
</g>
<g id="banner2">
</g>
<g id="banner2_文字">
</g>
<g id="footer">
</g>
<g id="圖層_12">
</g>
<g id="圖層_11">
</g>
<g id="圖層_5">
</g>
</svg>
