<?xml version="1.0" encoding="utf-8"?>
<!-- Generator: Adobe Illustrator 25.4.1, SVG Export Plug-In . SVG Version: 6.00 Build 0)  -->
<svg version="1.1" xmlns="http://www.w3.org/2000/svg" xmlns:xlink="http://www.w3.org/1999/xlink" x="0px" y="0px"
	 viewBox="0 0 80.54 60.3" enable-background="new 0 0 80.54 60.3" xml:space="preserve">
<g id="背景">
</g>
<g id="導覽列">
</g>
<g id="Banner">
</g>
<g id="banner2">
</g>
<g id="banner2_文字">
</g>
<g id="footer">
</g>
<g id="圖層_12">
</g>
<g id="圖層_11">
	<g>
		<path fill="#FCD661" d="M44.76,8.12V4.49c0-2.48-2.01-4.49-4.49-4.49c-2.48,0-4.49,2.01-4.49,4.49v3.63l-0.12,8.7l8.62,0.15
			L44.76,8.12z"/>
		<path fill="#FCD661" d="M46.79,52.79v0.99c0,3.6-2.92,6.52-6.52,6.52c-3.6,0-6.52-2.92-6.52-6.52v-0.99l-0.13-7.54l11.72-0.82
			L46.79,52.79z"/>
		<path fill="#F4A100" d="M27.99,32.98l-5.48,6.74l-4.36,8.83c-0.95,1.92,0.45,4.17,2.59,4.17l39.06,0c2.14,0,3.54-2.25,2.59-4.17
			l-4.36-8.83l-4.21-7.74L27.99,32.98z"/>
		<path fill="#DF8700" d="M48.24,40.41l4.58,9.35c0.49,1.01,0.37,2.11-0.15,2.96h7.13c2.14,0,3.54-2.25,2.59-4.17l-4.36-8.83
			l-4.21-7.74l-5.52,0.21L48.24,40.41z"/>
		<path fill="#FCD661" d="M40.27,8.12c4.9,0,9.34,1.99,12.56,5.2c3.21,3.21,5.2,7.65,5.2,12.56v13.84h-0.47l-35.04,0l0-13.84
			C22.51,16.07,30.46,8.12,40.27,8.12z"/>
		<path fill="#F7B400" d="M40.27,8.12c-1.12,0-2.22,0.1-3.29,0.3c2.22,0.94,4.23,2.3,5.91,3.98c3.39,3.39,5.48,8.1,5.44,13.3
			l-0.08,14.01l9.31,0h0.47V25.88c0-4.9-1.99-9.34-5.2-12.56C49.61,10.11,45.17,8.12,40.27,8.12L40.27,8.12z"/>
		<g>
			<path fill="#FFF1C1" d="M6.73,45.33c-0.03,0.03-0.06,0.05-0.09,0.08c-0.81,0.72-2.05,0.65-2.77-0.16
				c-2.77-3.12-4.13-7.13-3.83-11.28c0.31-4.15,2.24-7.91,5.45-10.59c0.83-0.7,2.07-0.58,2.77,0.25c0.7,0.83,0.58,2.07-0.25,2.77
				c-2.38,1.99-3.82,4.79-4.05,7.87c-0.23,3.08,0.78,6.06,2.84,8.38C7.5,43.42,7.45,44.61,6.73,45.33L6.73,45.33z"/>
		</g>
		<g>
			<path fill="#FFF1C1" d="M12.87,40.42c-0.76,0.76-1.98,0.77-2.75,0.02c-1.59-1.54-2.41-3.69-2.24-5.89
				c0.16-2.2,1.29-4.2,3.09-5.49c0.88-0.63,2.11-0.43,2.74,0.45c0.63,0.88,0.43,2.11-0.45,2.74c-0.85,0.61-1.38,1.55-1.46,2.59
				c-0.08,1.04,0.31,2.05,1.06,2.78c0.78,0.75,0.8,2,0.04,2.78C12.88,40.41,12.88,40.41,12.87,40.42L12.87,40.42z"/>
		</g>
		<g>
			<path fill="#FFF1C1" d="M76.59,45.34c-0.73,0.73-1.91,0.77-2.69,0.08c-0.81-0.72-0.88-1.96-0.16-2.77
				c2.06-2.32,3.07-5.3,2.84-8.38c-0.23-3.08-1.67-5.88-4.05-7.87c-0.83-0.7-0.94-1.93-0.25-2.77c0.69-0.83,1.93-0.94,2.77-0.25
				c3.21,2.68,5.14,6.44,5.45,10.59c0.31,4.15-1.05,8.16-3.83,11.28C76.65,45.28,76.62,45.31,76.59,45.34L76.59,45.34z"/>
		</g>
		<g>
			<path fill="#FFF1C1" d="M70.51,40.36c-0.03,0.03-0.06,0.05-0.08,0.08c-0.78,0.75-2.02,0.74-2.78-0.04
				c-0.75-0.78-0.72-2.02,0.04-2.78c0.75-0.73,1.14-1.74,1.06-2.78c-0.08-1.04-0.61-1.98-1.46-2.59c-0.88-0.63-1.08-1.86-0.45-2.74
				c0.63-0.88,1.86-1.08,2.74-0.45c1.8,1.29,2.92,3.29,3.09,5.49C72.83,36.72,72.04,38.83,70.51,40.36L70.51,40.36z"/>
		</g>
	</g>
</g>
<g id="圖層_5">
</g>
</svg>
