<svg xmlns="http://www.w3.org/2000/svg" viewBox="0 0 275.2 240.56"><defs><style>.cls-1,.cls-3{fill:#cce7f3;stroke:#8bcae8;}.cls-1,.cls-2{stroke-miterlimit:10;}.cls-1,.cls-2,.cls-3{stroke-width:3.49px;}.cls-2{fill:#fdd762;stroke:#f8b500;}.cls-3{stroke-linecap:round;stroke-linejoin:round;}.cls-4{fill:#f7d8d7;}.cls-5{fill:#0d74b4;}.cls-6{fill:#fff;}</style></defs><title>資產4</title><g id="圖層_2" data-name="圖層 2"><g id="Banner"><rect class="cls-1" x="64.78" y="163.06" width="26.29" height="49.81" rx="10.66" transform="translate(87.36 -15.29) rotate(25.17)"/><path class="cls-2" d="M62.05,190.81l-5.86,12.47-4.07-1.92a11.2,11.2,0,1,0-9.53,20.28L60.32,230a11.22,11.22,0,0,0,14.91-5.38L85.85,202Z"/><rect class="cls-1" x="117.11" y="171.99" width="26.29" height="49.81" rx="10.66" transform="translate(115.17 -38.71) rotate(29.82)"/><path class="cls-2" d="M114,198.79l-6.65,11.6-3.91-2.24a11.2,11.2,0,1,0-11.14,19.44l17,9.75a11.22,11.22,0,0,0,15.29-4.15l12.23-21.32Z"/><path class="cls-1" d="M158.14,199.89A79.77,79.77,0,0,0,198.25,45.74a65.58,65.58,0,0,0-125,3.55A65.66,65.66,0,0,0,54.49,179.06Z"/><path class="cls-3" d="M240.33,129,267.7,116.6a9.82,9.82,0,0,0,4.89-12.94h0a9.82,9.82,0,0,0-12.94-4.89l-27.37,12.36"/><circle class="cls-4" cx="75.27" cy="78.78" r="20.36"/><path class="cls-5" d="M101.47,90.35a.69.69,0,0,0-.86.7c.22,3.4,1.84,15.08,13.84,18a20.79,20.79,0,0,0,23.11-8.91.7.7,0,0,0-.43-1Z"/><path class="cls-6" d="M109.87,92.42l-1.57,6.35A1,1,0,0,0,109,100l11.55,2.85a1,1,0,0,0,1.21-.73l1.57-6.36Z"/><circle class="cls-4" cx="173.42" cy="101.13" r="20.36"/><ellipse class="cls-6" cx="104.61" cy="57.83" rx="17.3" ry="15.43" transform="translate(23.28 145.42) rotate(-76.05)"/><ellipse class="cls-6" cx="150.55" cy="67.61" rx="17.3" ry="15.43" transform="translate(48.65 197.43) rotate(-76.05)"/><ellipse class="cls-5" cx="104.49" cy="58.35" rx="10.8" ry="8.96" transform="translate(22.67 145.69) rotate(-76.05)"/><ellipse class="cls-5" cx="150.45" cy="67.59" rx="10.8" ry="8.96" transform="translate(48.6 197.32) rotate(-76.05)"/></g></g></svg>