<svg xmlns="http://www.w3.org/2000/svg" viewBox="0 0 155.16 125.54"><defs><style>.cls-1,.cls-3,.cls-4{fill:#cbe4ef;stroke:#89c2de;}.cls-1,.cls-4{stroke-miterlimit:10;}.cls-1{stroke-width:2.58px;}.cls-2{fill:#fff;}.cls-3,.cls-4,.cls-5{stroke-linecap:round;stroke-width:2.45px;}.cls-3,.cls-5{stroke-linejoin:round;}.cls-5{fill:none;stroke:#055b99;}.cls-6{fill:#f8e292;}.cls-7{fill:#055b99;}</style></defs><title>cat_1</title><g id="圖層_2" data-name="圖層 2"><g id="圖層_1-2" data-name="圖層 1"><path class="cls-1" d="M105.4,124.25c26.77,0,48.46-24.1,48.46-53.83,0-27.68-18.82-50.48-43-53.48C104.54,8.43,92.17,1.29,77.58,1.29c-19.07,0-35.9,10.63-40.74,27.55-20,2.41-35.55,28.26-35.55,51.1,0,24.47,17.86,44.31,39.89,44.31Z"/><ellipse class="cls-2" cx="43.93" cy="57.22" rx="9.37" ry="10.51"/><ellipse class="cls-2" cx="72.45" cy="57.22" rx="9.37" ry="10.51"/><path class="cls-3" d="M40.35,33.94S27.1,24.43,23.43,27.13s-2.82,14.94-2.82,14.94"/><path class="cls-3" d="M100.82,39.65s-1.82-13-6.31-13.76-12.69,8.38-12.69,8.38"/><line class="cls-3" x1="89.95" y1="64.84" x2="108.11" y2="61.16"/><line class="cls-3" x1="90.47" y1="71.16" x2="108.94" y2="72.66"/><line class="cls-3" x1="26.68" y1="64.37" x2="8.52" y2="60.68"/><line class="cls-3" x1="26.15" y1="70.68" x2="7.68" y2="72.19"/><path class="cls-4" d="M78.77,111s-16.87-.55-17.27,5c-.36,5,4.11,8.25,17.31,8.25"/><path class="cls-4" d="M39.07,110.89s16.74-.55,17.09,5.11c.31,5.12-4.12,8-17.31,8"/><path class="cls-5" d="M50.41,72.75s1,3.3,4.32,3.3a4.2,4.2,0,0,0,4-3.3"/><path class="cls-5" d="M58.51,72.75s1,3.3,4.32,3.3a4.19,4.19,0,0,0,4-3.3"/><path class="cls-6" d="M45.51,60.48a1.86,1.86,0,0,0-.46-1.33,4.2,4.2,0,0,0-1.57-.91,17.21,17.21,0,0,1-1.91-.83,6,6,0,0,1-1.38-.94,3.88,3.88,0,0,1-.9-1.26A4.26,4.26,0,0,1,39,53.49a3.85,3.85,0,0,1,1.1-2.82A4.64,4.64,0,0,1,43,49.39V47.22h1.63v2.2a4.22,4.22,0,0,1,2.81,1.5,4.94,4.94,0,0,1,1,3.23H45.51a2.82,2.82,0,0,0-.5-1.82,1.66,1.66,0,0,0-1.35-.61,1.71,1.71,0,0,0-1.29.47,1.81,1.81,0,0,0-.46,1.31,1.7,1.7,0,0,0,.45,1.24,5,5,0,0,0,1.66,1,17.06,17.06,0,0,1,2,.92,5.94,5.94,0,0,1,1.32,1,3.91,3.91,0,0,1,.83,1.24,4.32,4.32,0,0,1,.28,1.63,3.77,3.77,0,0,1-1.08,2.8,4.68,4.68,0,0,1-3,1.27v2H42.79v-2a4.93,4.93,0,0,1-3.23-1.48,4.77,4.77,0,0,1-1.15-3.35h2.94a2.68,2.68,0,0,0,.58,1.86,2.09,2.09,0,0,0,1.65.65A2,2,0,0,0,45,61.75,1.62,1.62,0,0,0,45.51,60.48Z"/><path class="cls-6" d="M74.13,60.48a1.86,1.86,0,0,0-.46-1.33,4.2,4.2,0,0,0-1.57-.91,17.21,17.21,0,0,1-1.91-.83,6,6,0,0,1-1.38-.94,3.85,3.85,0,0,1-.89-1.26,4.09,4.09,0,0,1-.33-1.72,3.85,3.85,0,0,1,1.1-2.82,4.67,4.67,0,0,1,2.92-1.28V47.22h1.63v2.2a4.26,4.26,0,0,1,2.82,1.5,5,5,0,0,1,1,3.23H74.13a2.76,2.76,0,0,0-.5-1.82,1.65,1.65,0,0,0-1.35-.61,1.75,1.75,0,0,0-1.29.47,1.85,1.85,0,0,0-.46,1.31A1.7,1.7,0,0,0,71,54.74a5,5,0,0,0,1.66,1,17.06,17.06,0,0,1,2,.92,5.94,5.94,0,0,1,1.32,1,3.91,3.91,0,0,1,.83,1.24,4.32,4.32,0,0,1,.28,1.63A3.77,3.77,0,0,1,76,63.26a4.63,4.63,0,0,1-3,1.27v2H71.41v-2a4.93,4.93,0,0,1-3.23-1.48A4.81,4.81,0,0,1,67,59.72H70a2.73,2.73,0,0,0,.58,1.86,2.09,2.09,0,0,0,1.65.65,2,2,0,0,0,1.42-.48A1.64,1.64,0,0,0,74.13,60.48Z"/><path class="cls-7" d="M63.6,76.23H61.25l-2.34-.8-2.34.8H54.22s-1.17,8,4.69,8S63.6,76.23,63.6,76.23Z"/></g></g></svg>