<svg xmlns="http://www.w3.org/2000/svg" viewBox="0 0 707.01 666.19"><defs><style>.b7a429c3-2ac7-4cf9-9bf8-5999542175d2{isolation:isolate;}.fc3922a3-a171-48dd-9e42-b7119496c3e1{fill:#fff;}.b41a0a40-afdc-48a8-a821-5dd89b7801be{fill:#3eb3e8;}.b41a0a40-afdc-48a8-a821-5dd89b7801be,.b9124a96-5925-4588-bdf9-5ddff5a2a27d,.e0fc572b-1386-4d64-8dd5-23f10de92c1c{mix-blend-mode:multiply;}.e0fc572b-1386-4d64-8dd5-23f10de92c1c{fill:#fcd661;}.b9124a96-5925-4588-bdf9-5ddff5a2a27d{fill:#ea6064;}</style></defs><title>資產 1</title><g class="b7a429c3-2ac7-4cf9-9bf8-5999542175d2"><g id="b9f211fa-b3ce-4144-bb06-8554b59837f4" data-name="圖層 2"><g id="a1ec21f6-d108-44ce-b6d6-52ea9f13dafe" data-name="圖層 11"><path class="fc3922a3-a171-48dd-9e42-b7119496c3e1" d="M543.46,267.42a200.81,200.81,0,0,0,11.19-66.28C554.65,90.05,464.59,0,353.51,0S152.36,90.05,152.36,201.14a200.56,200.56,0,0,0,11.2,66.28C70.43,285,0,366.8,0,465.05,0,576.13,90.05,666.19,201.14,666.19a200.7,200.7,0,0,0,152.37-69.83,200.67,200.67,0,0,0,152.36,69.83C617,666.19,707,576.13,707,465.05,707,366.8,636.58,285,543.46,267.42Z"/><circle class="b41a0a40-afdc-48a8-a821-5dd89b7801be" cx="353.51" cy="201.14" r="201.14"/><circle class="e0fc572b-1386-4d64-8dd5-23f10de92c1c" cx="201.14" cy="465.05" r="201.14"/><circle class="b9124a96-5925-4588-bdf9-5ddff5a2a27d" cx="505.87" cy="465.05" r="201.14"/><path class="fc3922a3-a171-48dd-9e42-b7119496c3e1" d="M333.5,106h-6.25V93H315v13h-6.25V75.61H315V87.92h12.21V75.61h6.25Z"/><path class="fc3922a3-a171-48dd-9e42-b7119496c3e1" d="M350.21,94.86h-5V106H339V75.61h11.28q5.38,0,8.3,2.4a8.27,8.27,0,0,1,2.92,6.78A9.38,9.38,0,0,1,360.13,90a9.24,9.24,0,0,1-4.08,3.31l6.57,12.41V106H355.9Zm-5-5.07h5a5.16,5.16,0,0,0,3.65-1.2,4.29,4.29,0,0,0,1.3-3.3A4.61,4.61,0,0,0,354,81.91a5.1,5.1,0,0,0-3.75-1.23h-5Z"/><path class="fc3922a3-a171-48dd-9e42-b7119496c3e1" d="M374.41,75.61l7.8,22,7.76-22h8.21V106h-6.27v-8.3l.62-14.33L384.33,106H380l-8.18-22.61.63,14.31V106h-6.26V75.61Z"/><path class="fc3922a3-a171-48dd-9e42-b7119496c3e1" d="M299.28,176.75a19.15,19.15,0,0,1-4.58,7.86,18,18,0,0,0,6.29,2.77,11.26,11.26,0,0,0-1.92,2.53,20.09,20.09,0,0,1-6.56-3.32,24.3,24.3,0,0,1-6.46,3.49,8.9,8.9,0,0,0-1.67-2.47v2.57h-3V187c-4.1.45-8.17.93-11.28,1.3l-.27-2.8,3.11-.27v-11h-2.8v-2.56H300.1v2.56H284.38v13.23a18.52,18.52,0,0,0,5.94-3,19.63,19.63,0,0,1-3.62-5.74l.82-.24h-2v-2.5h11.28l.51-.1Zm-22-6.4h-3V159.9h22.05v10.45h-3.18v-8.16H277.23Zm-1.43,3.93v1.92h5.6v-1.92Zm0,6.12h5.6v-1.91h-5.6Zm0,4.58c1.78-.17,3.69-.37,5.6-.61v-1.64h-5.6Zm15.72-21.15v2h-13v-2Zm-13,3.62h13v2h-13Zm11,11.11a16.18,16.18,0,0,0,2.94,4.17,15.1,15.1,0,0,0,3-4.17Z"/><path class="fc3922a3-a171-48dd-9e42-b7119496c3e1" d="M321,158.9c0,1.3-.07,3.08-.24,5.1.48,4.27,2.56,17.91,14.49,23.2a9.38,9.38,0,0,0-2.32,2.71c-8-3.8-11.76-11.32-13.57-17.44-1.71,6.43-5.34,13.33-13.06,17.61a9.82,9.82,0,0,0-2.63-2.53c14-7.25,13.6-23.18,13.7-28.65Z"/><path class="fc3922a3-a171-48dd-9e42-b7119496c3e1" d="M337.41,174.08a40.81,40.81,0,0,0,1.71-8.82l2.29.34a43.27,43.27,0,0,1-1.61,9.3ZM368.89,186v3H347.94v-3h9.5v-7.76H350.5v-3h6.94v-6.43H353a30.58,30.58,0,0,1-2.19,5.06,18.1,18.1,0,0,0-2.84-1.47,14.86,14.86,0,0,0,1.27-2.36l-1.92.92a30.17,30.17,0,0,0-2.05-5.36v24.5h-3.18V158.8h3.18v6.32l2-.82a31.34,31.34,0,0,1,2.22,5.13,40.45,40.45,0,0,0,2.26-9.09l3.11.51a45.88,45.88,0,0,1-1,5h3.59v-6.9h3.18v6.9H368v3h-7.38v6.43h6.63v3h-6.63V186Z"/><path class="fc3922a3-a171-48dd-9e42-b7119496c3e1" d="M383.79,159.93a52.13,52.13,0,0,1-3.35,6.46v23.75h-3V170.76a35.74,35.74,0,0,1-4.07,4.55,16.34,16.34,0,0,0-1.74-3.21A37,37,0,0,0,380.88,159Zm14,26.39c1.84,0,2.15-1.44,2.42-7.18a9.42,9.42,0,0,0,2.87,1.4c-.44,6.39-1.23,8.65-5.09,8.65h-6.12c-3.76,0-4.82-1.13-4.82-5.23V159.38h3.05v9h12v3h-12V184c0,1.91.34,2.29,2.05,2.29Z"/><path class="fc3922a3-a171-48dd-9e42-b7119496c3e1" d="M436.55,164.1s0,1.09,0,1.5c-.48,15.42-.89,20.72-2.26,22.43a3.81,3.81,0,0,1-3,1.6,36.59,36.59,0,0,1-5.16,0,7.45,7.45,0,0,0-1-3.07c2.19.17,4.17.2,5,.2a1.52,1.52,0,0,0,1.43-.58c1.1-1.13,1.54-6.29,2-19.18h-8.07a35.18,35.18,0,0,1-3.11,5.75,16.1,16.1,0,0,0-2.5-1.78v15.69h-9.26v2.6h-2.9v-25h3.82a40.64,40.64,0,0,0,1.2-5.54l3.45.58c-.58,1.71-1.23,3.52-1.78,5h5.47v6.46c2.26-2.94,4.07-7.49,5.1-12l3.07.72c-.41,1.57-.85,3.15-1.4,4.65ZM410.61,167v6.49H417V167ZM417,183.86V176.3h-6.36v7.56Zm11.38-2.67a55.74,55.74,0,0,0-5-7.9l2.49-1.4a61.68,61.68,0,0,1,5.17,7.62Z"/><path class="fc3922a3-a171-48dd-9e42-b7119496c3e1" d="M235.54,213.15c0,1.3-.06,3.08-.24,5.1.48,4.27,2.57,17.91,14.5,23.2a9.42,9.42,0,0,0-2.33,2.71c-8-3.8-11.75-11.32-13.57-17.44-1.71,6.43-5.33,13.33-13.05,17.61a10,10,0,0,0-2.63-2.53c14-7.25,13.6-23.18,13.7-28.65Z"/><path class="fc3922a3-a171-48dd-9e42-b7119496c3e1" d="M273.75,218.18a3.53,3.53,0,0,1-.07.82c1.85,1.88,5.5,3,10,3.31a9.23,9.23,0,0,0-1.71,2.6c-3.9-.55-7-1.78-9.16-3.76-1.23,1.57-3.93,3-9.81,3.86a9.19,9.19,0,0,0-1.61-2.35h-8.68v-2.5h9.91v2.26c7.42-1,8.21-2.87,8.21-4.34v-.45H268a15.85,15.85,0,0,1-2.5,3.18,14.44,14.44,0,0,0-2.39-1.61,14,14,0,0,0,3.93-6.29l2.84.62c-.21.58-.41,1.13-.65,1.71H279.9l.45-.14,2.18.72a31.15,31.15,0,0,1-3,5.06l-2.49-.89c.44-.62.95-1.5,1.43-2.36h-4.75Zm-.27,20.71a88.21,88.21,0,0,1,9.64,3.73l-2.88,1.74a65.35,65.35,0,0,0-9.19-3.86l2-1.61H262.81l2.84,1.3a46.79,46.79,0,0,1-10.46,4.27,25.3,25.3,0,0,0-2.36-2.39,37,37,0,0,0,9.85-3.18h-5.51V225.15h22.29v13.74Zm-11.66-21.57h-8.37v-2.39h8.37Zm-1.57,11.8h16v-2h-16Zm0,3.82h16V231h-16Zm0,3.93h16v-2h-16Z"/><path class="fc3922a3-a171-48dd-9e42-b7119496c3e1" d="M292.34,217.84a23.3,23.3,0,0,1-3.52,4.34,25.47,25.47,0,0,0-2.16-2.09,19.52,19.52,0,0,0,5.06-7.31l2.87.82c-.24.58-.51,1.16-.82,1.74h8.17v2.5H296.2a19.82,19.82,0,0,1,2.56,2.53l-2.05,1.77a21.52,21.52,0,0,0-3.11-3.24l1.27-1.06Zm10.42,2a14,14,0,0,1,1.4,2.6H316.5v5.77h-3.21V225H291.42v3.28h-3.05v-5.77H301c-.31-.69-.65-1.41-1-2Zm-7.31,16h18.69v8.47H311v-1H295.45v1.06h-3.21v-17.7h20.09v7.14H295.45Zm0-6.77v2.39h13.81v-2.39Zm0,9.16V241H311v-2.67Zm22.25-23v2.5H311a20.12,20.12,0,0,1,3.11,2.8L312,222.45a30.36,30.36,0,0,0-3.66-3.42l1.47-1.19h-3.52a17.22,17.22,0,0,1-2.42,2.73,17.51,17.51,0,0,0-2.4-1.91,14,14,0,0,0,4.24-5.85l2.91.72a19.4,19.4,0,0,1-.82,1.81Z"/><path class="fc3922a3-a171-48dd-9e42-b7119496c3e1" d="M332.08,237.46c-3.72,1.29-7.69,2.63-10.76,3.62l-.76-3.25c1.23-.34,2.74-.75,4.38-1.26v-8.68h-3.69V225h3.69v-6.81h-4V215.2h10.86v2.94H328V225h3.25v2.94H328v7.72c1.16-.38,2.39-.75,3.56-1.16Zm20.2,3v2.9H330.44v-2.9h9.91v-4.07h-7.41v-2.87h7.41V230h-7.11V214.59h17.5V230H343.6v3.52h7.59v2.87H343.6v4.07ZM336.15,221h4.48v-3.69h-4.48Zm0,6.29h4.48v-3.76h-4.48Zm11.55-10h-4.37V221h4.37Zm0,6.22h-4.37v3.76h4.37Z"/><path class="fc3922a3-a171-48dd-9e42-b7119496c3e1" d="M377.77,217.39c-.68,4-2.25,7.15-6.46,9a8.39,8.39,0,0,0-1.5-2v16.72c0,1.36-.27,2.25-1.2,2.73s-2.32.48-4.54.48a10.3,10.3,0,0,0-1-2.67c1.64,0,3.07,0,3.48,0s.62-.17.62-.62v-5.57h-7.59a20.26,20.26,0,0,1-2.63,8.92,12.26,12.26,0,0,0-2.26-1.4c2.29-3.59,2.53-8.61,2.53-12.44v-5.43l-.31.37a20.88,20.88,0,0,0-2.32-1.88A24.68,24.68,0,0,0,359.76,213l2.91.65c-.24.82-.48,1.64-.76,2.46h3.59L366,216l1.84,1.16a41.92,41.92,0,0,1-2.05,4.51h4.07v2.47c3.25-1.44,4.48-3.83,5-6.74H370.6v-2.63h14.86s0,.75,0,1.09c-.24,5.54-.55,7.83-1.26,8.65a2.55,2.55,0,0,1-1.95,1,22.31,22.31,0,0,1-3.46,0,7.66,7.66,0,0,0-.71-2.63,23.76,23.76,0,0,0,2.77.14.94.94,0,0,0,.92-.31c.37-.41.61-1.81.78-5.3ZM361,218.59c-.45,1.06-.93,2.12-1.44,3.07H363a27.58,27.58,0,0,0,1.26-3.07Zm-1.16,12.06c0,.79,0,1.61,0,2.46h2.63v-3.45H359.8Zm0-3.35h2.59v-3.24H359.8Zm4.81,0h2.57v-3.24h-2.57Zm2.57,5.81v-3.45h-2.57v3.45Zm19.21,5.13h-6.22v6h-3v-6h-6.77v-2.77h6.77v-3.69h-3.35a16.9,16.9,0,0,1-1.61,3,13.92,13.92,0,0,0-2.39-1.26,19.39,19.39,0,0,0,2.94-7.52l2.63.55c-.17.82-.37,1.64-.61,2.46h2.39v-3.28h3v3.28h5.57v2.73h-5.57v3.69h6.22Z"/><path class="fc3922a3-a171-48dd-9e42-b7119496c3e1" d="M395.51,228.77a27.22,27.22,0,0,0-6.33-3.69l1.68-2.39a26.84,26.84,0,0,1,6.39,3.42Zm3.59,4.38c-1.75,3.55-4,7.62-6.05,10.83l-2.7-2.12A96.1,96.1,0,0,0,396.77,231Zm-1.68-13.6a24.5,24.5,0,0,0-6.32-3.76l1.71-2.36A24.64,24.64,0,0,1,399.3,217Zm11.9,11.82c-.86,5-3.29,9.64-9.54,13.06a13.63,13.63,0,0,0-2.56-2.26c5.57-2.94,7.89-6.7,8.78-10.8h-7.62v-3h8.1c.1-1.2.14-2.46.14-3.69v-3.35h-6.46v-3h6.46v-5.29h3.17v5.29h8v10h2.66v3Zm.47-6.66c0,1.23,0,2.46-.13,3.69h5v-7h-4.86Zm3.52,7.24c2.4,3.42,5.71,8.07,7.32,10.8l-2.84,1.64c-1.47-2.76-4.65-7.55-7.11-11.1Z"/><path class="fc3922a3-a171-48dd-9e42-b7119496c3e1" d="M436.58,221.84c-.1,1.6-.2,3.24-.41,4.85H450.7a9.78,9.78,0,0,1-.14,1.43c-.65,9.44-1.3,13.2-2.66,14.6a4.61,4.61,0,0,1-3.25,1.33,46.1,46.1,0,0,1-5.78-.07,6.24,6.24,0,0,0-1.12-3.11c2.42.21,4.75.24,5.7.24a2.44,2.44,0,0,0,1.65-.41c.95-.78,1.57-4,2.11-10.93H435.7c-1.1,5.87-3.59,11.38-9.92,14.8a9.81,9.81,0,0,0-2.32-2.6c8.48-4.31,9.26-12.61,9.6-20.13h-8.95v-3.11h14.63a34.25,34.25,0,0,0-2.16-4.79l3.11-1.16a35.08,35.08,0,0,1,2.43,4.95l-2.29,1h14.05v3.11Z"/><path class="fc3922a3-a171-48dd-9e42-b7119496c3e1" d="M488.39,236.4H479.1a47.28,47.28,0,0,1,8.85,5.19l-2.43,2.26a45.66,45.66,0,0,0-8.68-5.47l2.15-2h-4.37v8h-3.18v-8h-13.5v-2.64h13.5v-2.59h3.18v2.59h13.77Zm-3.62-3.87a77,77,0,0,0-10.46-3c-3.69,1.54-8.65,2.26-15.07,2.67a9.92,9.92,0,0,0-1.13-2.64A63.57,63.57,0,0,0,469,228.43c-2.15-.41-4.38-.82-6.6-1.16,1-.85,2-2,3.11-3.11h-7.24v-2.53h9.47a35.4,35.4,0,0,0,2.56-3.49l3,1a28.09,28.09,0,0,1-2,2.53h7.63a14.33,14.33,0,0,0,.92-2.22l3.11.65c-.17.55-.38,1.06-.58,1.57h5.67v2.53h-7a13.14,13.14,0,0,1-3.42,3.55c4,.93,7.52,1.88,10.22,2.77Zm-15.69,5.3a24.88,24.88,0,0,1-8.3,5.74,21.26,21.26,0,0,0-2.67-2.15,20.14,20.14,0,0,0,7.83-4.61Zm15.42-19.69H461.77v2.36h-2.94v-5h12.58c-.35-.62-.69-1.2-1-1.74l3.28-.76c.45.76,1.06,1.68,1.5,2.5h12.31v5h-3Zm-15.49,6c-.54.55-1.09,1.06-1.6,1.57,2.08.34,4.17.72,6.18,1.13a12,12,0,0,0,3.59-2.7Z"/><rect class="fc3922a3-a171-48dd-9e42-b7119496c3e1" x="335.99" y="129.12" width="35.02" height="2.94"/><path class="fc3922a3-a171-48dd-9e42-b7119496c3e1" d="M488.73,413.33V383h10.63c3.69,0,6.48.71,8.39,2.12a7.24,7.24,0,0,1,2.85,6.2,6.93,6.93,0,0,1-1.14,3.94,6.68,6.68,0,0,1-3.19,2.49,6.44,6.44,0,0,1,3.68,2.35,7,7,0,0,1,1.34,4.34A8,8,0,0,1,508.5,411q-2.79,2.25-8,2.29ZM495,395.68h4.63q4.74-.07,4.74-3.77a3.47,3.47,0,0,0-1.2-3,6.27,6.27,0,0,0-3.79-.91H495Zm0,4.43v8.19h5.36a5.2,5.2,0,0,0,3.46-1.05,3.63,3.63,0,0,0,1.24-2.91q0-4.17-4.32-4.23Z"/><path class="fc3922a3-a171-48dd-9e42-b7119496c3e1" d="M522.64,413.33h-6.26V383h6.26Z"/><path class="fc3922a3-a171-48dd-9e42-b7119496c3e1" d="M433.25,490.15c-.68-1-2-2.5-3.14-3.83v14.05H427V487.1a29.76,29.76,0,0,1-4.34,3.46,15.62,15.62,0,0,0-1.33-3.15,26.69,26.69,0,0,0,9.4-9.77h-8.44v-2.87h6.32a24.72,24.72,0,0,0-2.87-4.14l2.39-1.5a19.07,19.07,0,0,1,3.11,4.23l-2,1.41h3.21l.58-.14,1.71,1.19a31.39,31.39,0,0,1-4.13,7.22c1.37,1.26,4,3.79,4.65,4.47ZM450,497.46c.61,0,.75-.48.85-4.1a7.54,7.54,0,0,0,2.63,1.2c-.27,4.54-1,5.67-3.18,5.67h-2.56c-2.56,0-3.18-.89-3.18-3.73v-7.45h-2.49c-.52,5.57-2,9.3-8.14,11.42a8.22,8.22,0,0,0-1.67-2.33c5.43-1.67,6.53-4.61,6.94-9.09h-2.67V470.46H451.4v18.59h-3.82v7.42c0,.85.06,1,.68,1Zm-10.57-21.64h8.89V473h-8.89Zm0,5.34h8.89v-2.87h-8.89Zm0,5.33h8.89v-2.91h-8.89Z"/><path class="fc3922a3-a171-48dd-9e42-b7119496c3e1" d="M483.08,497.46c1.23,0,1.44-.38,1.61-3.08a7.47,7.47,0,0,0,2.63,1c-.34,3.69-1.16,4.62-3.9,4.62H478c-3.58,0-4.47-.72-4.47-3.35v-2.16H469c-1.19,3.42-4,5.1-11.65,5.92a9,9,0,0,0-1.37-2.43c6.5-.48,8.82-1.4,9.81-3.49H462V483.21h19.28v11.24h-4.72v2.16c0,.78.28.85,1.75.85ZM460,484.68h-2.8v-4.92h3.52l-.48-8.14,0,0a46.59,46.59,0,0,0,6-2.57l1.74,1.34a33.66,33.66,0,0,1-4.88,2.05l.06,1.09h4v1.81h-3.93l.1,1.3h4v1.81h-3.86l.07,1.34h5.3a10.38,10.38,0,0,0-1.2-1,19.29,19.29,0,0,0,2.91-1.71c-.62-.41-1.27-.82-1.85-1.13l1.27-1.16a22.75,22.75,0,0,1,2,1.2,15.35,15.35,0,0,0,1.43-1.61l1.85.48a12.66,12.66,0,0,1-1.81,2.12,20,20,0,0,1,1.78,1.5l-1.34,1.27a17.37,17.37,0,0,0-1.77-1.58,21.7,21.7,0,0,1-2.43,1.65H480l.1-1.34h-3.93v-1.81h4.07l.1-1.3h-4V473.5h4.1l.07-1.3H476v-2h7.45c-.1,3.07-.27,6.9-.51,9.57h3.32v4.92h-2.91v-2.84H460Zm5,1.74h13.13V485H465Zm0,3.11h13.13V488.1H465Zm0,3.18h13.13v-1.47H465Zm8.37-18.46a18.08,18.08,0,0,0-1.6-1.4,15.11,15.11,0,0,1-2.63,1.71,11.05,11.05,0,0,0-1.44-1.33,13.82,13.82,0,0,0,2.56-1.44c-.58-.37-1.16-.68-1.71-1l1.24-1.13c.61.31,1.23.69,1.88,1.06a10.23,10.23,0,0,0,1.4-1.5l1.81.51a11.82,11.82,0,0,1-1.74,2,13.45,13.45,0,0,1,1.5,1.27Z"/><path class="fc3922a3-a171-48dd-9e42-b7119496c3e1" d="M502,470.12a52.85,52.85,0,0,1-3.35,6.46v23.75h-3V481a35.74,35.74,0,0,1-4.07,4.55,16.7,16.7,0,0,0-1.74-3.22,37,37,0,0,0,9.26-13.12Zm14,26.38c1.84,0,2.15-1.43,2.42-7.17a9.53,9.53,0,0,0,2.87,1.4c-.44,6.39-1.23,8.64-5.09,8.64H510c-3.76,0-4.82-1.12-4.82-5.22V469.57h3v9h12v3.05h-12v12.57c0,1.92.34,2.29,2.05,2.29Z"/><path class="fc3922a3-a171-48dd-9e42-b7119496c3e1" d="M554.4,470.25v30.08h-3.07v-1.26H528.77v1.26h-3V470.25Zm-3.07,26.19V472.92H528.77v23.52ZM550,481v1.85h-19.9V481h8.45v-1.33h-5.34v-5.33h13.54v5.33h-5.5V481Zm-17.88,3.11h15.76V494.9H532.15Zm2.46,9h10.7v-7.11h-10.7Zm1.23-15.14h8.24V476h-8.24Zm.58,9.26h7.08v4.61h-7.08Zm1.85,3.11h3.31v-1.61h-3.31Z"/><path class="fc3922a3-a171-48dd-9e42-b7119496c3e1" d="M588.3,487.69a71.52,71.52,0,0,1-6.36,4.4,20.4,20.4,0,0,0,8.17,4.52,13.83,13.83,0,0,0-2.05,2.76c-7-2.35-11.52-7.38-14.15-14.45a30.36,30.36,0,0,1-4.89,4.13v6.77l7.83-2.26a16.08,16.08,0,0,0,.55,2.81c-9.54,2.94-10.91,3.38-11.79,4a10.76,10.76,0,0,0-1.37-2.88,2.59,2.59,0,0,0,1.47-2.42v-3.93a39.07,39.07,0,0,1-5.3,2.46,14.91,14.91,0,0,0-2.12-2.57,35.3,35.3,0,0,0,11.62-6.28H559.39V482h13.15v-2.56h-10v-2.57h10v-2.39H560.79v-2.73h11.75V469h3.18v2.74h12.17v2.73H575.72v2.39h10.77v2.57H575.72V482H589v2.74H577a21.75,21.75,0,0,0,3.14,5.4,38,38,0,0,0,5.54-4.41Z"/><path class="fc3922a3-a171-48dd-9e42-b7119496c3e1" d="M394.57,541.94v8.85c0,1.57-.31,2.42-1.2,2.9s-2.29.62-4.44.62a10.24,10.24,0,0,0-.86-2.94c1.37,0,2.64,0,3,0s.58-.13.58-.61v-7.93L388.07,544l-.71-3.07c1.19-.31,2.7-.72,4.3-1.17v-6.87h-4V529.9h4v-6.59h2.91v6.59h3.62v2.94h-3.62v6l3.28-1,.44,2.87Zm15.28,9.26a20,20,0,0,0,2.83.17c1,0,5.44,0,6.7,0a10.47,10.47,0,0,0-.89,2.81h-5.87c-4.76,0-8.31-.86-10.53-5.37a14.93,14.93,0,0,1-3.86,5.85,13.39,13.39,0,0,0-2.4-1.92c3-2.36,4.45-6.18,5-11l2.87.34c-.17,1.26-.37,2.46-.64,3.59a7.67,7.67,0,0,0,3.82,4.71v-10h-8.2v-2.59h19.72v2.59h-8.54v3.56h6.83v2.53h-6.83Zm6.76-15.52H400.28V524.33h16.33Zm-3-9H403.18v2.25h10.39Zm0,4.41H403.18v2.25h10.39Z"/><path class="fc3922a3-a171-48dd-9e42-b7119496c3e1" d="M452.91,539.82h-7.15v14.76h-3.24V539.82h-9.68c-.27,5.53-1.88,11-8.68,14.83a11.71,11.71,0,0,0-2.25-2.43c5.94-3.28,7.45-7.82,7.75-12.4h-7.45v-3.05h7.52v-6.9c-2.05.58-4.13,1.09-6.12,1.54a9.74,9.74,0,0,0-1.12-2.6c5.33-1.23,11.17-3.14,14.63-5.2l2.32,2.6a48.86,48.86,0,0,1-6.53,2.7v7.86h9.61V523.85h3.24v12.92h7.15Z"/><path class="fc3922a3-a171-48dd-9e42-b7119496c3e1" d="M461.79,528a23.3,23.3,0,0,1-3.52,4.34,25.42,25.42,0,0,0-2.16-2.08,19.8,19.8,0,0,0,5.06-7.31l2.87.82c-.24.58-.51,1.16-.82,1.74h8.17V528h-5.74a20.48,20.48,0,0,1,2.56,2.53l-2,1.78a22,22,0,0,0-3.11-3.25l1.27-1.06Zm10.42,2.05a14.63,14.63,0,0,1,1.4,2.6H486v5.78h-3.21v-3.28H460.86v3.28h-3v-5.78H470.4c-.31-.68-.65-1.4-1-2Zm-7.31,16h18.69v8.47h-3.14v-1H464.9v1.06h-3.22V537h20.1v7.14H464.9Zm0-6.77v2.39h13.81v-2.39Zm0,9.16v2.66h15.55V548.5Zm22.25-23V528h-6.7a20.13,20.13,0,0,1,3.11,2.81l-2.12,1.81a30.36,30.36,0,0,0-3.66-3.42l1.47-1.2h-3.52a17.31,17.31,0,0,1-2.42,2.74,18.35,18.35,0,0,0-2.4-1.92,14,14,0,0,0,4.24-5.84l2.91.72c-.24.61-.52,1.19-.82,1.81Z"/><path class="fc3922a3-a171-48dd-9e42-b7119496c3e1" d="M501.53,547.64c-3.72,1.3-7.69,2.64-10.77,3.63L490,548c1.23-.34,2.74-.75,4.38-1.27v-8.68H490.7v-2.94h3.69v-6.8h-4v-2.94h10.87v2.94h-3.79v6.8h3.25v2.94h-3.25v7.73c1.16-.38,2.39-.75,3.55-1.16Zm20.2,3v2.9H499.89v-2.9h9.91v-4.07h-7.41v-2.87h7.41v-3.52h-7.11V524.78h17.5v15.38h-7.14v3.52h7.59v2.87h-7.59v4.07ZM505.6,531.17h4.48v-3.69H505.6Zm0,6.29h4.48V533.7H505.6Zm11.55-10h-4.37v3.69h4.37Zm0,6.22h-4.37v3.76h4.37Z"/><path class="fc3922a3-a171-48dd-9e42-b7119496c3e1" d="M530.44,538.65a42.1,42.1,0,0,0-6.22-3.48l1.64-2.43a36.49,36.49,0,0,1,6.32,3.28Zm-5.3,13.23A102.89,102.89,0,0,0,531,541.29l2.46,2.08c-1.64,3.52-3.62,7.45-5.47,10.63Zm2.46-28.13a40.68,40.68,0,0,1,6.09,3.39l-1.85,2.56a37.18,37.18,0,0,0-6-3.59Zm27,27.07c0,1.75-.34,2.7-1.4,3.21s-2.77.62-5.37.62a14,14,0,0,0-1-3.18c1.75.1,3.45.07,4,.07s.68-.21.68-.75V527.48H537v27.14h-3v-30h20.54ZM549.89,533H538.78v-2.63h11.11Zm-7.79,13.91V549h-2.5V535.89H549v11Zm0-8.34v5.68h4.3v-5.68Z"/><path class="fc3922a3-a171-48dd-9e42-b7119496c3e1" d="M587.48,531.48a26.87,26.87,0,0,1-5.13,7,20.12,20.12,0,0,0,7.42,3.55,11.15,11.15,0,0,0-1.88,2.5c-.72-.24-1.4-.45-2.08-.75v2.53h-10v8.3h-3.22v-8.3H562.8v-2.43c-.89.41-1.81.75-2.7,1.09a8.36,8.36,0,0,0-1.57-2.25,23.5,23.5,0,0,0,8.37-4.55,24,24,0,0,0-2.46-3.25,22.54,22.54,0,0,1-4.06,2.4,6.83,6.83,0,0,0-1.75-1.95,16.31,16.31,0,0,0,7.8-6.22l2.8.51a14.89,14.89,0,0,1-1.06,1.57h3.9l.47-.13,1.78.88a19.24,19.24,0,0,1-4.34,6.84h8.72a22.49,22.49,0,0,1-3.87-5.81l1.61-.48v-2h8.65l.55-.18.06,0v-1.81H562.56v2.83h-3v-5.46h13.3a18.76,18.76,0,0,0-1-2.16l3.11-.68a23.59,23.59,0,0,1,1.43,2.84h12.51V531h-2.22ZM565.2,539l-5.75,1.44-.58-2.12c1.68-.28,3.83-.65,6.15-1.13Zm5.16,9a25.84,25.84,0,0,1-8.34,5.7,15.65,15.65,0,0,0-2.16-2.32,21.08,21.08,0,0,0,7.63-4.41Zm15.07-4.34a21.83,21.83,0,0,1-5.26-3.35v1.19H568.68v-1.36a26,26,0,0,1-5.3,3.52Zm-19.38-10a23.48,23.48,0,0,1,2.5,3,18.06,18.06,0,0,0,2.29-3.32h-4.48ZM577.6,533a18.48,18.48,0,0,0,2.84,3.86,19.83,19.83,0,0,0,3-3.86Zm2.6,13.8a58,58,0,0,1,8.37,4.76l-2.18,2.29a51.59,51.59,0,0,0-8.21-5Z"/><path class="fc3922a3-a171-48dd-9e42-b7119496c3e1" d="M622.3,530.49s0,1.12-.07,1.57c-.75,13.84-1.4,18.9-2.9,20.64a4.11,4.11,0,0,1-3.15,1.57,38.89,38.89,0,0,1-5.43,0,8,8,0,0,0-1.13-3.28c2.26.21,4.34.21,5.2.21a1.91,1.91,0,0,0,1.57-.51c1.16-1.1,1.88-5.78,2.46-17h-10.7c-.51,7-2.83,15.31-12.54,21.06a13.3,13.3,0,0,0-2.46-2.57c8.88-5.09,11.11-12.34,11.62-18.49h-10.6v-3.24h10.77v-7.18h3.35v7.18Z"/><rect class="fc3922a3-a171-48dd-9e42-b7119496c3e1" x="488.36" y="436.47" width="35.02" height="2.94"/><rect class="fc3922a3-a171-48dd-9e42-b7119496c3e1" x="183.63" y="436.47" width="35.02" height="2.94"/><path class="fc3922a3-a171-48dd-9e42-b7119496c3e1" d="M181.38,403.21a10.75,10.75,0,0,1-3.62,7.72,12.69,12.69,0,0,1-8.6,2.82,11.42,11.42,0,0,1-9.19-3.93c-2.23-2.63-3.35-6.22-3.35-10.8v-1.85a18.15,18.15,0,0,1,1.54-7.72,11.52,11.52,0,0,1,4.42-5.12,13.75,13.75,0,0,1,15.13,1,11.54,11.54,0,0,1,3.71,7.9h-6.26a6.35,6.35,0,0,0-1.63-4.26,6.09,6.09,0,0,0-4.29-1.32,5.29,5.29,0,0,0-4.68,2.24q-1.56,2.24-1.6,6.95v2.3q0,4.92,1.49,7.19a5.22,5.22,0,0,0,4.71,2.28,6.12,6.12,0,0,0,4.32-1.33,6,6,0,0,0,1.64-4.1Z"/><path class="fc3922a3-a171-48dd-9e42-b7119496c3e1" d="M196.73,402.21h-5v11.12h-6.25V383h11.28q5.39,0,8.3,2.4a8.27,8.27,0,0,1,2.92,6.78,9.38,9.38,0,0,1-1.34,5.18,9.17,9.17,0,0,1-4.08,3.31L209.14,413v.29h-6.72Zm-5-5.07h5a5.21,5.21,0,0,0,3.65-1.19,4.31,4.31,0,0,0,1.3-3.31,4.57,4.57,0,0,0-1.23-3.38,5.06,5.06,0,0,0-3.74-1.23h-5Z"/><path class="fc3922a3-a171-48dd-9e42-b7119496c3e1" d="M220.92,383l7.8,22,7.76-22h8.22v30.37h-6.28V405l.63-14.33-8.2,22.63h-4.29l-8.18-22.61L219,405v8.3h-6.26V383Z"/><path class="fc3922a3-a171-48dd-9e42-b7119496c3e1" d="M133.79,481.53a38.61,38.61,0,0,0,1.7-8.78l2.33.34a40.86,40.86,0,0,1-1.64,9.26Zm10-2.46a32.78,32.78,0,0,0-2.16-5.78v24.2H138.5V466.15h3.11v6.29l1.88-.79a31.18,31.18,0,0,1,2.6,6.29Zm21.77,2.43v3h-10.6a18.46,18.46,0,0,1-9.67,13.15A13.5,13.5,0,0,0,143,495.2c5.64-2.8,7.87-6.7,8.72-10.69h-7.45v-3h7.89c.11-1.3.14-2.6.14-3.8v-3.31H146v-2.94h6.29v-5.3h3.21v5.3H163V481.5Zm-10-3.8a35.29,35.29,0,0,1-.17,3.8h4.51v-7.11h-4.34Zm2.77,7.39c2.36,3.35,5.54,7.93,7.15,10.66l-2.91,1.64c-1.43-2.77-4.55-7.48-6.9-11Z"/><path class="fc3922a3-a171-48dd-9e42-b7119496c3e1" d="M177.77,482.52a28.17,28.17,0,0,1-3.11,8.62c.54.3,1.26.85,2.29,1.43,2.39,1.37,5.57,1.57,9.47,1.57a129.31,129.31,0,0,0,13.8-.78,11.17,11.17,0,0,0-1,3.35c-2.59.17-8.92.37-12.95.37-4.41,0-7.35-.34-9.85-1.77-1.4-.76-2.63-1.85-3.34-1.85s-2,2.15-3,4.14l-2.08-3a14.44,14.44,0,0,1,3-3.11l0,0a19.71,19.71,0,0,0,3.32-6.87H169.5c.92-2,2.08-4.82,3.07-7.45h-4v-2.87h8.06c-.88,2.43-1.94,5.23-3,7.59h1.71l.48-.1Zm-4.92-9.7c-.59-1.44-1.78-3.9-2.64-5.71l2.77-1c.86,1.78,2.05,4,2.7,5.47Zm13.87-.69H178v-2.66h8.75v-3.25h3.08v3.25h9.33v2.66H189.8v2.4h8v8.68h-6.94a55.24,55.24,0,0,1,7.93,6l-1.94,2.16a46.16,46.16,0,0,0-7-5.71v7.07h-3.08v-7.17a22.81,22.81,0,0,1-7.31,6.35,13.84,13.84,0,0,0-2-2.42,20.65,20.65,0,0,0,8-6.29h-6.25v-8.68h7.58ZM182,480.71h4.68V477H182ZM189.8,477v3.69h4.89V477Z"/><path class="fc3922a3-a171-48dd-9e42-b7119496c3e1" d="M233.2,492.88H219.73v1.71c0,1.57-.44,2.22-1.67,2.6a25.37,25.37,0,0,1-6.15.41,14.11,14.11,0,0,0-1.06-2.5c2.08.1,4.37.07,4.92,0s.82-.18.82-.65v-1.61h-13.3v-2.22h13.3v-1.88H205.24v-2.22h11.35v-1.71c-3.28.17-6.63.2-9.71.2a7.72,7.72,0,0,0-.58-2.08c7.45,0,16.44-.45,21.3-1.27l2,1.92c-2.74.44-6.15.82-9.85,1.06v1.88h11.73v2.22H219.73v1.88H233.2Zm-26.39-15.31h-3v-7h5.37a21.07,21.07,0,0,0-2.16-3.22l2.77-1.09a18.85,18.85,0,0,1,2.57,3.55l-1.64.76h5.81v-4.34h3.17v4.34h5.82l-1.68-.65a26.53,26.53,0,0,0,2.8-3.63l3.25,1a41.61,41.61,0,0,1-3.08,3.25h5.92v7h-3.11v-4.41H206.81Zm2,3.65V474.9h18.94v6.32Zm2.94-2h12.85v-2.29H211.77Z"/><path class="fc3922a3-a171-48dd-9e42-b7119496c3e1" d="M247,483.75c-1.2.41-2.46.82-3.69,1.17v8.81c0,1.54-.31,2.43-1.2,2.91a9.45,9.45,0,0,1-4.37.65,11.93,11.93,0,0,0-.89-3c1.33,0,2.56,0,2.94,0s.58-.14.58-.62v-7.86l-3.25,1-.75-3c1.16-.27,2.49-.61,4-1.06v-7h-3.49v-2.94h3.49v-6.6h2.94v6.6h3.48v2.94h-3.48v6.15l3.28-1Zm21.16,10.57v2.52h-19v-2.52h8.2v-3.25H251.1v-2.46h6.19V486c-3.72.27-4.51.37-5.13.61a23.62,23.62,0,0,0-1-2.6,3.25,3.25,0,0,0,1.64-1.13,22.77,22.77,0,0,0,2.53-3.17H250.9c-.14,5.57-.89,12.92-4.1,17.91a9.42,9.42,0,0,0-2.67-1.58c3.42-5.33,3.69-13,3.69-18.38V467.48h18.94v7.76H250.93v2h16v2.46h-8.1a33.08,33.08,0,0,1-3.24,3.89l7-.41c-.58-.75-1.23-1.5-1.81-2.15l2.29-1a21.92,21.92,0,0,1,4.1,5.47l-2.5,1.09a10.55,10.55,0,0,0-.58-1.19l-3.79.31v2.87h6.35v2.46h-6.35v3.25ZM250.93,470v2.73h12.62V470Z"/><path class="fc3922a3-a171-48dd-9e42-b7119496c3e1" d="M104.77,529.66a28.57,28.57,0,0,1-2.9,2.77,17,17,0,0,0-2-2.53,29,29,0,0,0,8-9.6l2.81,1a37.28,37.28,0,0,1-2.87,4.64V540h-3ZM100.26,549a36.25,36.25,0,0,0,3.35-7.35l2.8,1.16a62.1,62.1,0,0,1-3.17,7.63Zm20-.75c1.74,0,2-.48,2.25-3.86a7.81,7.81,0,0,0,2.91,1.16c-.41,4.51-1.37,5.6-4.92,5.6h-7.45c-4.38,0-5.51-.89-5.51-4v-5.57h3.18v5.51c0,1,.41,1.16,2.53,1.16ZM115,526.11a24.37,24.37,0,0,1-3.41,4.34,15.1,15.1,0,0,0-2.36-2,19,19,0,0,0,5.19-8l2.91.71c-.28.79-.55,1.51-.89,2.26h11.79l.48-.1,2.22.54c-.85,2-1.88,4.38-2.7,5.85l-2.7-.58c.41-.79.92-1.92,1.37-3Zm2.26,4.55a22.54,22.54,0,0,1-4.79,7.07,21.26,21.26,0,0,0-2.35-1.88,15.64,15.64,0,0,0,4.23-6Zm.1,15.51a26.44,26.44,0,0,0-4.58-5.91l2.46-1.33a27.32,27.32,0,0,1,4.79,5.7Zm5-6.32h-3V527.2h3Zm4-10.05a29.64,29.64,0,0,1,4.17,6.56l-2.67,1.4a35.76,35.76,0,0,0-4.06-6.76Zm.85,11.21a31.39,31.39,0,0,1,3.73,7.73l-3,1.19a31.12,31.12,0,0,0-3.49-7.82Z"/><path class="fc3922a3-a171-48dd-9e42-b7119496c3e1" d="M164.58,525.7s0,1.09,0,1.5c-.48,15.42-.89,20.72-2.26,22.42a3.79,3.79,0,0,1-3,1.61,36.6,36.6,0,0,1-5.16,0,7.45,7.45,0,0,0-1-3.07c2.19.17,4.17.2,5,.2a1.52,1.52,0,0,0,1.43-.58c1.09-1.13,1.54-6.29,2-19.18h-8.06a35.18,35.18,0,0,1-3.11,5.75,16.59,16.59,0,0,0-2.5-1.78v15.69h-9.26v2.6h-2.91v-25h3.83a40.64,40.64,0,0,0,1.2-5.54l3.45.58c-.58,1.71-1.23,3.52-1.78,5h5.47v6.46c2.26-2.94,4.07-7.49,5.09-12l3.08.72c-.41,1.57-.85,3.15-1.4,4.65Zm-25.94,2.94v6.49H145v-6.49ZM145,545.45V537.9h-6.36v7.55Zm11.38-2.66a55.74,55.74,0,0,0-5-7.9l2.49-1.4a61.52,61.52,0,0,1,5.16,7.62Z"/><path class="fc3922a3-a171-48dd-9e42-b7119496c3e1" d="M193.7,530.14a23.38,23.38,0,0,1-6.5,6.46,48.19,48.19,0,0,0,12.72,3.11,16.06,16.06,0,0,0-2,3,38.21,38.21,0,0,1-4.21-.82v9.75h-3.28v-1H177.84v1.09h-3.11v-9.6c-1.64.48-3.32.85-5,1.16a11.84,11.84,0,0,0-1.5-2.8,49.06,49.06,0,0,0,12.81-3.83,27.17,27.17,0,0,1-3.86-3.28,30.18,30.18,0,0,1-4.82,2.84,9.73,9.73,0,0,0-2.08-2.36,21.24,21.24,0,0,0,9.64-7.32l3.38.65c-.41.62-.89,1.16-1.37,1.75h9l.51-.14Zm-20.92,0h-3.11v-6.81h13.12c-.44-.85-.92-1.74-1.33-2.52l3.14-.76c.59,1,1.34,2.23,1.85,3.28h12v6.81h-3.22v-3.93H172.78Zm18.35,11.1a39.45,39.45,0,0,1-7.07-2.8,42.43,42.43,0,0,1-6.56,2.8Zm-.75,6.74v-4.1H177.84V548Zm-10.9-16.44a20.11,20.11,0,0,0,4.65,3.52,22.22,22.22,0,0,0,4.71-3.69h-9.16Z"/><path class="fc3922a3-a171-48dd-9e42-b7119496c3e1" d="M229.89,529.29V543h-3.22v-1.78H209.82A19.61,19.61,0,0,1,204.87,552a11.78,11.78,0,0,0-2.46-2.22c4.37-4.41,4.78-10.87,4.78-15.83V523.78c6.87-.68,14.73-1.91,19.21-3.34l2.6,2.46a120,120,0,0,1-18.6,3.24v3.15Zm-3.22,9v-6H210.4v1.71c0,1.3,0,2.8-.17,4.3Z"/><path class="fc3922a3-a171-48dd-9e42-b7119496c3e1" d="M250.56,537.73c.61,1.2,1.33,2.8,1.67,3.69l-1.33.51h.44v3.15c0,2.6-.61,5-4.88,6.53A7.32,7.32,0,0,0,245,549.8a5.63,5.63,0,0,0,3.56-2.4h-4.24v-4.92h2v3h2.7v-3.59h1.4c-.1-.3-.24-.61-.34-.95-5,.51-5.88.68-6.36.89a16.28,16.28,0,0,0-.61-2A4,4,0,0,0,245,539a19.48,19.48,0,0,0,1.81-1.57,11.45,11.45,0,0,0-2.87.41,11.21,11.21,0,0,0-.65-2,2.29,2.29,0,0,0,1.09-.61,15.23,15.23,0,0,0,2.29-2.84h-5.3v19.38h-3v-30H251v10.66h-3.56l1.27.65a22.85,22.85,0,0,1-2.53,2.87l2.22-.1c.48-.55,1-1.09,1.4-1.67l1.67,1.16a38.53,38.53,0,0,1-4.81,4.37l2.83-.24-.58-1.26ZM241.36,524v2.12h6.7V524Zm0,6.19h6.7v-2h-6.7ZM266.66,548c0,1.64-.28,2.57-1.27,3.08s-2.49.62-4.68.62a11.42,11.42,0,0,0-.92-3.11c1.36,0,2.8,0,3.21,0s.61-.17.61-.65V532.43h-7l1.3.69a25.49,25.49,0,0,1-2.46,2.83l2.15-.1a16,16,0,0,0,1.47-1.71l1.68,1.16a41.66,41.66,0,0,1-4.82,4.45l2.8-.24a12.83,12.83,0,0,0-.61-1.23l1.57-.55a25.75,25.75,0,0,1,1.78,3.73l-1.64.65c-.11-.31-.28-.69-.45-1.13-5,.54-5.88.72-6.39.95a9.34,9.34,0,0,0-.58-1.91,4.39,4.39,0,0,0,1.81-1,20.38,20.38,0,0,0,1.78-1.57,8.77,8.77,0,0,0-2.87.44c-.14-.44-.41-1.43-.65-2a2.19,2.19,0,0,0,1.09-.62,12.38,12.38,0,0,0,2.29-2.87H253.7V521.77h13Zm-8.38.41v-1h-2.73v3.9h-2.29v-9.37h2.29v3.59h2.73v-3h2.16v5.91ZM256.71,524v2.12h6.9V524Zm6.9,6.19v-2h-6.9v2Z"/><path class="fc3922a3-a171-48dd-9e42-b7119496c3e1" d="M280.77,521.46a59.73,59.73,0,0,1-2.77,6.63v23.65h-3.08V533.42a35,35,0,0,1-2.77,3.66,25.55,25.55,0,0,0-1.71-3.25,37.93,37.93,0,0,0,7.39-13.26Zm5.77,21a33.94,33.94,0,0,1-5.23,7.49,21.52,21.52,0,0,0-2.39-1.64,23.24,23.24,0,0,0,4.68-6.74Zm5.68-2.12v8.14c0,1.43-.31,2.25-1.34,2.66a13,13,0,0,1-4.68.48,12.51,12.51,0,0,0-.92-2.77c1.3.07,2.8.07,3.14.07s.58-.1.58-.48V540.6c-5.91.55-7,.72-7.79,1.06-.14-.58-.55-1.88-.85-2.67a11.77,11.77,0,0,0,4-1.88c.92-.54,2.77-1.77,5-3.38-5.78.38-6.77.51-7.42.82a24.39,24.39,0,0,0-.89-2.66,6,6,0,0,0,2.53-1.2,39.56,39.56,0,0,0,6.46-5.3c-2.67.82-5.54,1.57-8.17,2.19a10.61,10.61,0,0,0-1-2.43c5.33-1.37,11.24-3.28,14.73-5.23l2.22,2.46a52.16,52.16,0,0,1-7,2.77l2.19,1.13a51,51,0,0,1-6.46,5.13l6.15-.31a53.4,53.4,0,0,0,4.2-3.79l2.23,1.74a80.74,80.74,0,0,1-12,9l9.33-.72c-.68-.85-1.43-1.74-2.12-2.53l2.33-1.43a45.2,45.2,0,0,1,5.37,6.6l-2.53,1.64a18.33,18.33,0,0,0-1.2-1.85Zm4.88.89a31.24,31.24,0,0,1,4.82,6.73l-2.66,1.41a37,37,0,0,0-4.68-6.91Z"/></g></g></g></svg>