<svg xmlns="http://www.w3.org/2000/svg" width="132.226" height="103.301" viewBox="0 0 132.226 103.301">
  <g id="Group_11" data-name="Group 11" transform="translate(-6947.25 -3629.833)">
    <path id="Path_163" data-name="Path 163" d="M6975.142,3682h-2.583q-9.645,0-17.475-7.833a25.3,25.3,0,0,1-7.834-18.509,24.306,24.306,0,0,1,7.834-18.422,26.907,26.907,0,0,1,19.2-7.4,25.7,25.7,0,0,1,21.091,10.33q8.175,10.33,8.178,28.752a72.511,72.511,0,0,1-7.145,31.765q-7.146,14.893-17.561,23.674t-18.853,8.78a11.765,11.765,0,0,1-8.694-3.357,11.131,11.131,0,0,1-3.358-8.178q0-7.748,7.059-11.363a51.733,51.733,0,0,0,14.29-11.708Q6974.451,3692.16,6975.142,3682Zm75.754,0h-2.067q-9.813,0-17.819-7.748a24.959,24.959,0,0,1-8.006-18.594,24.261,24.261,0,0,1,7.92-18.336,27.03,27.03,0,0,1,19.283-7.489,25.793,25.793,0,0,1,21.177,10.158q8.09,10.161,8.092,28.924a72.559,72.559,0,0,1-7.146,32.109q-7.146,14.721-17.56,23.415t-19.026,8.7a11.858,11.858,0,0,1-8.78-3.271,11.194,11.194,0,0,1-3.272-8.264q0-7.575,7.06-11.363,9.813-5.682,14.634-11.794T7050.9,3682Z" fill="#cbcbcb"/>
  </g>
</svg>
