<svg xmlns="http://www.w3.org/2000/svg" width="132.224" height="103.301" viewBox="0 0 132.224 103.301">
  <g id="Group_10" data-name="Group 10" transform="translate(-6122.136 -3386.944)">
    <path id="Path_162" data-name="Path 162" d="M6150.716,3438.422h2.41q9.813,0,17.647,7.49a24.785,24.785,0,0,1,7.833,18.68,23.5,23.5,0,0,1-7.833,18.163q-7.836,7.148-19.369,7.145-12.57,0-20.919-10.071t-8.349-28.666a71.421,71.421,0,0,1,7.316-31.937q7.317-14.891,17.906-23.588t18.853-8.694q5.508,0,8.608,3.271a11.768,11.768,0,0,1,3.1,8.436,11.9,11.9,0,0,1-6.715,11.191,46.843,46.843,0,0,0-14.462,11.708Q6151.4,3428.264,6150.716,3438.422Zm76.1,0h2.239q9.641,0,17.475,7.49a24.782,24.782,0,0,1,7.833,18.68,24.116,24.116,0,0,1-7.833,18.25,27.121,27.121,0,0,1-19.369,7.4q-12.743,0-21.005-10.33t-8.263-28.752a71.784,71.784,0,0,1,4.3-24.965,74.609,74.609,0,0,1,11.106-20.4,60.738,60.738,0,0,1,14.634-13.773q7.831-5.076,14.032-5.079,5.681,0,8.694,3.185a11.906,11.906,0,0,1,3.013,8.522q0,7.748-6.714,11.191-9.471,5.338-14.29,11.794T6226.813,3438.422Z" fill="#cbcbcb"/>
  </g>
</svg>
