<svg xmlns="http://www.w3.org/2000/svg" viewBox="0 0 50.71 50.71"><defs><style>.cls-1{fill:#0093d6;}.cls-2{fill:#3db4e8;}.cls-3{fill:#fff;}</style></defs><title>fbIcon</title><g id="圖層_2" data-name="圖層 2"><g id="banner2_文字" data-name="banner2 文字"><path class="cls-1" d="M25.36,49.21A23.86,23.86,0,1,1,49.21,25.36,23.88,23.88,0,0,1,25.36,49.21Z"/><path class="cls-2" d="M25.36,3A22.36,22.36,0,1,1,3,25.36,22.36,22.36,0,0,1,25.36,3m0-3A25.36,25.36,0,1,0,50.71,25.36,25.39,25.39,0,0,0,25.36,0Z"/><path class="cls-3" d="M21.87,16.65V21h-5V26.8h5v15h6v-15h5.78V21H27.9V17.23c0-1.69.47-2.84,2.89-2.84h3.1V8.94H29.38C24.92,8.93,21.87,11.66,21.87,16.65Z"/><path class="cls-2" d="M25.36,3A22.36,22.36,0,1,0,47.71,25.36,22.36,22.36,0,0,0,25.36,3Zm8.53,11.38h-3.1c-2.42,0-2.89,1.15-2.89,2.84V21h5.78V26.8H27.9v15h-6v-15h-5V21h5V16.65c0-5,3.05-7.72,7.51-7.72h4.51Z"/></g></g></svg>