<svg xmlns="http://www.w3.org/2000/svg" viewBox="0 0 149.38 138.15"><defs><style>.cls-1{fill:#eb6164;}.cls-2{fill:#fdd762;}.cls-3{fill:#ffe893;}</style></defs><title>資產 2</title><g id="圖層_2" data-name="圖層 2"><g id="圖層_11" data-name="圖層 11"><path class="cls-1" d="M99.79,14.05C94.76,15,74.67,42,74.67,42L74,43.82s36.35-4,37.67-5.59C115.18,34,103.92,13.24,99.79,14.05ZM74.93,42.53c6.63-8.47,21.74-20.85,25-23.48,2.91,3,7.31,11.75,7.89,15.72C103.65,35.63,85.53,41.25,74.93,42.53Z"/><path class="cls-1" d="M57.65,8.53C49.81-2.09,45.63-.3,42.66,1s-14,15-10.55,22.19,37.4,21.25,37.4,21.25l1.23-2.65S65.48,19.15,57.65,8.53ZM36.11,21.23C34.39,17.65,41.7,6.91,44.57,5a5.15,5.15,0,0,1,1.84-.55c.63,0,3.06.48,7.66,6.72,5,6.81,13.05,23.61,15,30.67C55.42,35.77,37.75,24.26,36.11,21.23Z"/><rect class="cls-1" x="68.14" y="38.36" width="7.48" height="10.65" rx="2.92"/><path class="cls-2" d="M126.91,138H23.62a10.6,10.6,0,0,1-10.57-9.91l-5.41-83H142.15l-5.64,86.41C136.27,135.16,132.05,138,126.91,138Z"/><path class="cls-3" d="M147.7,63.24l-146,.28L.13,54.13A9.22,9.22,0,0,1,9.26,43.4l132.13.36c4.7,0,8.38,2.91,8,6.26Z"/><rect class="cls-1" x="71.73" y="43.52" width="2.78" height="19.9"/><rect class="cls-1" x="74.55" y="63.33" width="3.47" height="74.81"/></g></g></svg>