<svg xmlns="http://www.w3.org/2000/svg" viewBox="0 0 433.55 350.05"><defs><style>.cls-1{fill:#8fd3f3;}.cls-2{fill:#c70011;}.cls-3{fill:#eb6164;}.cls-4{fill:#ef8582;}.cls-5{fill:#b75742;}.cls-6{fill:#ffe893;}.cls-7{fill:#fdd762;}.cls-8{fill:#80b94a;}.cls-9{fill:#f8b500;}</style></defs><title>gifts</title><g id="圖層_2" data-name="圖層 2"><g id="圖層_11" data-name="圖層 11"><path class="cls-1" d="M371.37,184.37c-5.45,1.07-27.26,30.29-27.26,30.29l-.77,2s39.45-4.39,40.88-6.08C388.08,206.06,375.86,183.49,371.37,184.37Zm-27,30.92c7.2-9.2,23.6-22.64,27.14-25.49,3.17,3.22,7.94,12.75,8.57,17.06C375.56,207.79,355.9,213.89,344.39,215.29Z"/><path class="cls-1" d="M318.52,189.36c-10.73-7-13.67-7-16.8-5.18s-14.66,18.32-9.51,23.48,46,8.84,46,8.84l.92-2.5S329.26,196.36,318.52,189.36Zm-19.2,16.48c-2.39-2.38,3.55-12.28,6.25-14.39.69-.39,28.2,17.11,32,23.09C322.26,212.88,301.54,207.81,299.32,205.84Z"/><rect class="cls-1" x="334.45" y="209.23" width="10.56" height="15.02" rx="4.13"/><path class="cls-2" d="M425.79,216.81l-187-.56a8.13,8.13,0,0,0-8,9.34l2.9,19.08,9.37,0,5.65,96a9.72,9.72,0,0,0,9.7,9.15H407.61l6.21-105.55,8.83,0Z"/><path class="cls-3" d="M410.81,349.85H296.22l-6.13-131H426.23l-5.71,121.94A9.65,9.65,0,0,1,410.81,349.85Z"/><path class="cls-4" d="M431.85,244.35l-147.79.39-3.37-28.44,144.77.56a8.11,8.11,0,0,1,8.05,8.84Z"/><polygon class="cls-5" points="284.06 244.74 425.02 244.35 288.53 251.8 284.06 244.74"/><rect class="cls-1" x="339.52" y="216.52" width="3.92" height="28.08"/><rect class="cls-1" x="350.89" y="244.48" width="4.9" height="105.57"/><rect class="cls-6" x="125" y="153.5" width="151.66" height="196.34"/><rect class="cls-7" x="143.56" y="153.5" width="5.49" height="196.34"/><rect class="cls-7" x="159.77" y="153.5" width="5.49" height="196.34"/><rect class="cls-7" x="175.99" y="153.5" width="5.49" height="196.34"/><rect class="cls-7" x="192.2" y="153.5" width="5.49" height="196.34"/><rect class="cls-7" x="208.41" y="153.5" width="5.49" height="196.34"/><rect class="cls-7" x="224.62" y="153.5" width="5.49" height="196.34"/><rect class="cls-7" x="240.83" y="153.5" width="5.49" height="196.34"/><rect class="cls-7" x="257.04" y="153.5" width="5.49" height="196.34"/><rect class="cls-7" x="125" y="153.49" width="151.64" height="8.09"/><path class="cls-8" d="M.65,92.3c4.85,5,50.2,7.78,50.2,7.78l2.64-.58S22,61.34,19.27,61C11.89,60.08-3.33,88.22.65,92.3Zm50.66,7.07C36.8,98.13,11.6,90.19,6.2,88.43c1.21-5.5,7.9-17,12-20.57C22.23,72,42,88.31,51.31,99.37Z"/><path class="cls-8" d="M41.9,144c0,16,2.08,19,6.07,21.06s29.1,2.8,31-6.1-22.17-54.06-22.17-54.06l-3.24.74S41.89,128.06,41.9,144Zm30.3,8.79c-.85,4.11-15.24,4.67-19.28,3.29C52,155.66,51.54,115,55.16,107,63.9,124.1,72.74,149.17,72.2,152.83Z"/><path class="cls-8" d="M51.8,96.66h8.44a5.14,5.14,0,0,1,5.14,5.14v2.87a5.14,5.14,0,0,1-5.14,5.14H51.8a5.15,5.15,0,0,1-5.15-5.15V101.8a5.15,5.15,0,0,1,5.15-5.15Z" transform="translate(-47.36 47.48) rotate(-33.18)"/><rect class="cls-9" x="-20.72" y="67.78" width="175.71" height="35.04" transform="translate(25.19 185.42) rotate(-119.06)"/></g></g></svg>