<svg xmlns="http://www.w3.org/2000/svg" width="27.393" height="25.912" viewBox="0 0 27.393 25.912">
  <g id="Group_63" data-name="Group 63" transform="translate(-3612.681 -1358.688)">
    <path id="Path_408" data-name="Path 408" d="M3639.957,1370.965a7.131,7.131,0,0,0,.108-.828,10.448,10.448,0,0,0-.014-1.064c-.332-5.78-6.329-10.385-13.678-10.385-7.562,0-13.692,4.876-13.692,10.891,0,5.529,5.179,10.095,11.889,10.8a.743.743,0,0,1,.66.822l-.286,2.572a.746.746,0,0,0,1.068.753c5.669-2.736,9.059-5.55,11.083-7.989.369-.444,1.569-2.126,1.815-2.569a9.192,9.192,0,0,0,1.047-3Zm0,0" fill="#0093d6"/>
    <path id="Path_409" data-name="Path 409" d="M3618.844,1371.785V1367.2a.7.7,0,0,0-1.4,0v5.288a.7.7,0,0,0,.7.7h2.8a.7.7,0,1,0,0-1.4Zm0,0" fill="#fff"/>
    <path id="Path_410" data-name="Path 410" d="M3623.165,1373.186h-.306a.548.548,0,0,1-.548-.548v-5.594a.548.548,0,0,1,.548-.547h.306a.547.547,0,0,1,.547.547v5.594a.547.547,0,0,1-.547.548Zm0,0" fill="#fff"/>
    <path id="Path_411" data-name="Path 411" d="M3628.825,1367.2v3.231s-2.8-3.649-2.84-3.7a.7.7,0,0,0-.549-.233.718.718,0,0,0-.673.728v5.259a.7.7,0,1,0,1.4,0v-3.211s2.84,3.681,2.882,3.721a.7.7,0,0,0,.474.191.726.726,0,0,0,.707-.729v-5.26a.7.7,0,0,0-1.4,0Zm0,0" fill="#fff"/>
    <path id="Path_412" data-name="Path 412" d="M3635.479,1367.2a.7.7,0,0,0-.7-.7h-2.8a.7.7,0,0,0-.7.7v5.288a.7.7,0,0,0,.7.7h2.8a.7.7,0,1,0,0-1.4h-2.1v-1.243h2.1a.7.7,0,1,0,0-1.4h-2.1V1367.9h2.1a.7.7,0,0,0,.7-.7Zm0,0" fill="#fff"/>
  </g>
</svg>
