<svg xmlns="http://www.w3.org/2000/svg" viewBox="0 0 275.2 240.56"><defs><style>.a0c56dd1-a69d-4dc8-8276-5ccfac7d2a9b,.b5bc2a29-89bf-4909-9672-a75ef970b61b{fill:#cce7f3;stroke:#8bcae8;}.a0c56dd1-a69d-4dc8-8276-5ccfac7d2a9b,.ae505fc0-7351-4ab5-8505-d3ad43371bb1{stroke-miterlimit:10;}.a0c56dd1-a69d-4dc8-8276-5ccfac7d2a9b,.ae505fc0-7351-4ab5-8505-d3ad43371bb1,.b5bc2a29-89bf-4909-9672-a75ef970b61b{stroke-width:3.49px;}.ae505fc0-7351-4ab5-8505-d3ad43371bb1{fill:#fdd762;stroke:#f8b500;}.b5bc2a29-89bf-4909-9672-a75ef970b61b{stroke-linecap:round;stroke-linejoin:round;}.f853b18f-6e74-4b10-b197-773b9178bc32{fill:#f7d8d7;}.af55f564-1d1b-4aa7-85e0-25f09a0b8acf{fill:#0d74b4;}.f2f5edb1-52e7-4756-9ea9-0cec3757fb27{fill:#fff;}</style></defs><title>資產 1</title><g id="f3ddabe6-3294-40af-ae79-9d51fae87e10" data-name="圖層 2"><g id="b4b9f10b-ebd3-48f4-9e6d-05407be99dcd" data-name="Banner"><rect class="a0c56dd1-a69d-4dc8-8276-5ccfac7d2a9b" x="64.78" y="163.06" width="26.29" height="49.81" rx="10.66" transform="translate(87.36 -15.29) rotate(25.17)"/><path class="ae505fc0-7351-4ab5-8505-d3ad43371bb1" d="M62.05,190.81l-5.86,12.47-4.07-1.92a11.2,11.2,0,1,0-9.53,20.28L60.32,230a11.22,11.22,0,0,0,14.91-5.38L85.85,202Z"/><rect class="a0c56dd1-a69d-4dc8-8276-5ccfac7d2a9b" x="117.11" y="171.99" width="26.29" height="49.81" rx="10.66" transform="translate(115.17 -38.71) rotate(29.82)"/><path class="ae505fc0-7351-4ab5-8505-d3ad43371bb1" d="M114,198.79l-6.65,11.6-3.91-2.24a11.2,11.2,0,1,0-11.14,19.44l17,9.75a11.22,11.22,0,0,0,15.29-4.15l12.23-21.32Z"/><path class="a0c56dd1-a69d-4dc8-8276-5ccfac7d2a9b" d="M158.14,199.89A79.77,79.77,0,0,0,198.25,45.74a65.58,65.58,0,0,0-125,3.55A65.66,65.66,0,0,0,54.49,179.06Z"/><path class="b5bc2a29-89bf-4909-9672-a75ef970b61b" d="M240.33,129,267.7,116.6a9.82,9.82,0,0,0,4.89-12.94h0a9.82,9.82,0,0,0-12.94-4.89l-27.37,12.36"/><circle class="f853b18f-6e74-4b10-b197-773b9178bc32" cx="75.27" cy="78.78" r="20.36"/><path class="af55f564-1d1b-4aa7-85e0-25f09a0b8acf" d="M101.47,90.35a.69.69,0,0,0-.86.7c.22,3.4,1.84,15.08,13.84,18a20.79,20.79,0,0,0,23.11-8.91.7.7,0,0,0-.43-1Z"/><path class="f2f5edb1-52e7-4756-9ea9-0cec3757fb27" d="M109.87,92.42l-1.57,6.35A1,1,0,0,0,109,100l11.55,2.85a1,1,0,0,0,1.21-.73l1.57-6.36Z"/><circle class="f853b18f-6e74-4b10-b197-773b9178bc32" cx="173.42" cy="101.13" r="20.36"/><ellipse class="f2f5edb1-52e7-4756-9ea9-0cec3757fb27" cx="104.61" cy="57.83" rx="17.3" ry="15.43" transform="translate(23.28 145.42) rotate(-76.05)"/><ellipse class="f2f5edb1-52e7-4756-9ea9-0cec3757fb27" cx="150.55" cy="67.61" rx="17.3" ry="15.43" transform="translate(48.65 197.43) rotate(-76.05)"/><ellipse class="af55f564-1d1b-4aa7-85e0-25f09a0b8acf" cx="104.49" cy="58.35" rx="10.8" ry="8.96" transform="translate(22.67 145.69) rotate(-76.05)"/><ellipse class="af55f564-1d1b-4aa7-85e0-25f09a0b8acf" cx="150.45" cy="67.59" rx="10.8" ry="8.96" transform="translate(48.6 197.32) rotate(-76.05)"/><path class="b5bc2a29-89bf-4909-9672-a75ef970b61b" d="M20,79.27,3.54,50.09A10.94,10.94,0,0,1,7.69,35.23h0a11,11,0,0,1,14.86,4.15L39,68.56"/></g></g></svg>