<svg xmlns="http://www.w3.org/2000/svg" viewBox="0 0 301.83 243.61"><defs><style>.cls-1,.cls-3{fill:#cce7f3;stroke:#8bcae8;}.cls-1,.cls-2{stroke-miterlimit:10;}.cls-1,.cls-2,.cls-3{stroke-width:3.66px;}.cls-2{fill:#e3807d;stroke:#dd5f60;}.cls-3{stroke-linecap:round;stroke-linejoin:round;}.cls-4{fill:#0d74b4;}.cls-5{fill:#fff;}.cls-6{fill:#f7d8d7;}.cls-7{fill:#007bc2;}</style></defs><title>nuBao</title><g id="圖層_2" data-name="圖層 2"><g id="圖層_11" data-name="圖層 11"><rect class="cls-1" x="114.36" y="166.8" width="27.56" height="52.22" rx="11.18" transform="matrix(0.99, 0.17, -0.17, 0.99, 34.63, -18.96)"/><path class="cls-2" d="M112.89,200.21l-2.45,14.23-4.65-.81a11.75,11.75,0,0,0-4,23.16L122,240.28a11.76,11.76,0,0,0,13.57-9.59l4.45-25.8Z"/><rect class="cls-1" x="168.86" y="167.98" width="27.56" height="52.22" rx="11.18" transform="translate(25.56 -21.21) rotate(7.14)"/><path class="cls-2" d="M167.7,202.49,166,216.41l-4.69-.59a11.75,11.75,0,0,0-2.92,23.31l20.39,2.55a11.75,11.75,0,0,0,13.11-10.19l3.21-25.57Z"/><path class="cls-1" d="M207.11,195.89a83.63,83.63,0,0,0-9.47-166.73A68.76,68.76,0,0,0,74.05,72.83,68.84,68.84,0,0,0,97,208.38Z"/><path class="cls-3" d="M41.71,131l-31.14-4.66A10.28,10.28,0,0,1,1.94,114.7h0a10.29,10.29,0,0,1,11.66-8.63l31.14,4.65"/><path class="cls-3" d="M263,107.27l30-9.72a10.3,10.3,0,0,0,6.59-12.93h0A10.29,10.29,0,0,0,286.58,78l-29.95,9.72"/><path class="cls-4" d="M120.79,126.6a.73.73,0,0,0-.63,1c1.3,3.31,6.68,14.45,19.6,13.55A21.77,21.77,0,0,0,160,124.83a.73.73,0,0,0-.75-.91Z"/><path class="cls-5" d="M129.84,126l.48,6.85a1,1,0,0,0,1.11,1l12.45-.87a1.05,1.05,0,0,0,1-1.12l-.48-6.84Z"/><circle class="cls-6" cx="84.05" cy="134.36" r="21.35"/><circle class="cls-6" cx="198.31" cy="123.09" r="21.35"/><rect class="cls-7" x="99.89" y="90.53" width="27.27" height="4.79" rx="2.4" transform="translate(46.45 -37.55) rotate(23.49)"/><rect class="cls-7" x="99.61" y="103.09" width="29.97" height="4.79" rx="2.4" transform="translate(269.65 120.33) rotate(142.84)"/><rect class="cls-7" x="146.5" y="85.01" width="27.27" height="4.79" rx="2.4" transform="translate(336.6 41.13) rotate(136.68)"/><rect class="cls-7" x="147.78" y="99.84" width="27.58" height="4.79" rx="2.3" transform="translate(89.1 -74.7) rotate(35.4)"/></g></g></svg>