<svg xmlns="http://www.w3.org/2000/svg" viewBox="0 0 379 114.2"><defs><style>.cls-1,.cls-4,.cls-5,.cls-6{fill:none;stroke-miterlimit:10;}.cls-1{stroke:#898989;stroke-width:3px;}.cls-2{fill:#f5a200;}.cls-3{fill:#fdd762;}.cls-4{stroke:#f5a200;stroke-width:1.5px;}.cls-5,.cls-6{stroke:#fff;stroke-width:2.92px;opacity:0.75;}.cls-5{stroke-dasharray:57.65 360.28;}.cls-6{stroke-dasharray:14.62 487.34;}</style></defs><title>資產 1</title><g id="圖層_2" data-name="圖層 2"><g id="Banner"><path class="cls-1" d="M59,112.7a54.5,54.5,0,0,1,0-109H323a54.5,54.5,0,0,1,0,109Z"/><path class="cls-1" d="M56,110.5a54.5,54.5,0,0,1,0-109H320a54.5,54.5,0,0,1,0,109Z"/><rect class="cls-2" x="7.5" y="6.5" width="369" height="105" rx="52.5"/><rect class="cls-3" x="3.5" y="3.5" width="369" height="105" rx="52.5"/><rect class="cls-4" x="3.5" y="3.5" width="369" height="105" rx="52.5"/><path class="cls-5" d="M320,105.88H56C27.13,105.88,3.5,83.43,3.5,56S27.13,6.13,56,6.13H320c28.88,0,52.5,22.44,52.5,49.87S348.88,105.88,320,105.88Z"/><path class="cls-6" d="M320,105.87H56C27.12,105.87,3.5,83.43,3.5,56h0C3.5,28.57,27.12,6.12,56,6.12H320c28.88,0,52.5,22.44,52.5,49.87h0C372.5,83.43,348.88,105.87,320,105.87Z"/></g></g></svg>