<svg xmlns="http://www.w3.org/2000/svg" viewBox="0 0 405.26 436"><defs><style>.cls-1{fill:#3e3a39;}.cls-2{fill:#3db4e8;}.cls-3{fill:#fdd762;}.cls-4{fill:#fff;}.cls-5{fill:#ffc7a1;}.cls-6{fill:#bfc0c0;}.cls-7{fill:#b5b5b6;}.cls-8{fill:#ffd5b3;}.cls-9{fill:#775436;}.cls-10{fill:#c6a07d;}.cls-11{fill:#fb8276;}.cls-12{fill:#0095d8;}.cls-13{fill:#f8b500;}</style></defs><title>tabImg-1</title><g id="圖層_2" data-name="圖層 2"><g id="banner3文字"><path class="cls-1" d="M198.52,17.7h47a83.69,83.69,0,0,1,21.61,2.83A28.34,28.34,0,0,0,239.68,0H204.76a28.34,28.34,0,0,0-27.39,20.41,83.74,83.74,0,0,1,21.15-2.71Z"/><path class="cls-1" d="M198.52,43.35h47a57.49,57.49,0,0,1,16,2.27,27.5,27.5,0,0,0,6.23-13.35,72.24,72.24,0,0,0-22.23-3.5h-47a72.19,72.19,0,0,0-21.83,3.37,27.51,27.51,0,0,0,6.17,13.38,57.78,57.78,0,0,1,15.66-2.17Z"/><path class="cls-1" d="M245.5,42.5h-47c-31.66,0-57.42,25.17-57.42,56.11v28.73a5.07,5.07,0,0,1,5.08-5h57a46.16,46.16,0,0,0,38.45-20.41,5.1,5.1,0,0,1,8.46,0,46.18,46.18,0,0,0,38.46,20.41h9.25a5.07,5.07,0,0,1,5.09,5V98.61c0-30.94-25.76-56.11-57.42-56.11Z"/><path class="cls-2" d="M282,271.12H247.28v11.8a16.46,16.46,0,0,1-16.45,16.44H213.19a16.46,16.46,0,0,1-16.45-16.44v-11.8H162.05a42.6,42.6,0,0,0-42.69,42.42v94.77h205.3V313.54A42.6,42.6,0,0,0,282,271.12Z"/><path class="cls-3" d="M247.28,282.92a16.46,16.46,0,0,1-16.45,16.44H213.19a16.46,16.46,0,0,1-16.45-16.44v-11.8H166.35L222,388.81l55.65-117.69H247.28Z"/><path class="cls-4" d="M222,329.43a145.56,145.56,0,0,1-29.5-3L222,388.81l29.49-62.38a145.39,145.39,0,0,1-29.49,3Z"/><path class="cls-5" d="M240.42,257c-1.42.09-2.84.15-4.28.15H207.88a66.76,66.76,0,0,1-12-1.1v26.83a17.35,17.35,0,0,0,17.3,17.3h17.64a17.35,17.35,0,0,0,17.3-17.3v-16a12.7,12.7,0,0,1-7.71-9.9Z"/><path class="cls-6" d="M323.2,188.52h-7.31v57.14a2.29,2.29,0,0,1-2.26,2.25H275.87A12.46,12.46,0,0,1,277,260.69h36.62a15.05,15.05,0,0,0,15-15V186.28a7.78,7.78,0,0,1-5.46,2.24Z"/><path class="cls-6" d="M120.81,130.32h7.32V98.61c0-38,31.58-69,70.39-69h47c38.81,0,70.39,31,70.39,69v31.71h7.31a7.78,7.78,0,0,1,5.46,2.24V98.61c0-45.09-37.31-81.76-83.16-81.76h-47c-45.86,0-83.16,36.67-83.16,81.76v34a7.75,7.75,0,0,1,5.45-2.24Z"/><path class="cls-7" d="M323.2,129.47H302.07v59.9H323.2a8.67,8.67,0,0,0,8.65-8.65v-42.6a8.67,8.67,0,0,0-8.65-8.65Z"/><path class="cls-7" d="M142,129.47H120.81a8.67,8.67,0,0,0-8.64,8.65v42.6a8.67,8.67,0,0,0,8.64,8.65H142Z"/><path class="cls-8" d="M297.83,120.63h-9.25a46.18,46.18,0,0,1-38.46-20.41,5.1,5.1,0,0,0-8.46,0,46.16,46.16,0,0,1-38.45,20.41h-57a5.07,5.07,0,0,0-5.08,5.05v66c0,36.57,30,66.32,66.78,66.32h28.26c1.48,0,3-.07,4.42-.17a12.52,12.52,0,0,1-.28-2.62A12.68,12.68,0,0,1,253,242.63h12.58a12.69,12.69,0,0,1,8.73,3.48,66.12,66.12,0,0,0,28.63-54.37V125.68a5.07,5.07,0,0,0-5.09-5.05Z"/><path class="cls-9" d="M182.19,166.56a6.39,6.39,0,0,1-6.38-6.39v-15.3a6.39,6.39,0,1,1,12.77,0v15.3a6.39,6.39,0,0,1-6.39,6.39Z"/><path class="cls-9" d="M261.82,166.56a6.38,6.38,0,0,1-6.38-6.39v-15.3a6.39,6.39,0,1,1,12.77,0v15.3a6.39,6.39,0,0,1-6.39,6.39Z"/><path class="cls-10" d="M233.57,183.56H222.48a10.72,10.72,0,0,1-10.71-10.71V157a6.39,6.39,0,1,1,12.77,0v13.8h9a6.39,6.39,0,0,1,0,12.77Z"/><path class="cls-11" d="M222,235.05c-18.46,0-33.49-13.53-33.49-30.17a4.87,4.87,0,0,1,4.88-4.85h57.23a4.86,4.86,0,0,1,4.88,4.85c0,16.64-15,30.17-33.5,30.17Z"/><path class="cls-7" d="M279.11,255.26a13.52,13.52,0,0,1-13.55,13.49H253a13.49,13.49,0,1,1,0-27h12.58a13.51,13.51,0,0,1,13.55,13.48Z"/><path class="cls-12" d="M146,396.48h14.09V390a8.57,8.57,0,0,1,2.8-6.33H152.36V327.48a6.39,6.39,0,0,0-12.77,0v62.61a6.39,6.39,0,0,0,6.39,6.39Z"/><path class="cls-5" d="M199.89,408.31V390a8.67,8.67,0,0,0-8.65-8.64H168.72a8.67,8.67,0,0,0-8.65,8.64v18.27Z"/><path class="cls-12" d="M284,390v6.44H298a6.39,6.39,0,0,0,6.39-6.39V327.48a6.39,6.39,0,0,0-12.77,0v56.23H281.15A8.57,8.57,0,0,1,284,390Z"/><path class="cls-5" d="M284,408.31V390a8.68,8.68,0,0,0-8.65-8.64H252.78a8.67,8.67,0,0,0-8.65,8.64v18.27Z"/><path class="cls-10" d="M347.11,424.08v-12.3a4.33,4.33,0,0,0-4.32-4.32H101.23a4.33,4.33,0,0,0-4.32,4.32v12.3Z"/><path class="cls-9" d="M398.88,436H45.14a6.39,6.39,0,0,1,0-12.77H398.88a6.39,6.39,0,0,1,0,12.77Z"/><path class="cls-13" d="M0,43.65a4.34,4.34,0,0,1,4.32-4.32h94a4.33,4.33,0,0,1,4.32,4.32v70.54a4.33,4.33,0,0,1-4.32,4.32H87.52a4.33,4.33,0,0,0-4.32,4.32v13.81c0,2.37-1.52,3.11-3.39,1.63L58.38,121.2a14.49,14.49,0,0,0-7.71-2.69H4.32A4.33,4.33,0,0,1,0,114.19Z"/><path class="cls-6" d="M79.25,67H23.41a6.39,6.39,0,0,1,0-12.78H79.25a6.39,6.39,0,0,1,0,12.78Z"/><path class="cls-6" d="M79.25,85.31H23.41a6.39,6.39,0,0,1,0-12.78H79.25a6.39,6.39,0,0,1,0,12.78Z"/><path class="cls-6" d="M48.36,103.62H23.41a6.39,6.39,0,0,1,0-12.78h25a6.39,6.39,0,0,1,0,12.78Z"/></g></g></svg>