<svg xmlns="http://www.w3.org/2000/svg" viewBox="0 0 61.51 65"><defs><style>.cls-1{fill:#666464;}.cls-2{fill:#3db4e8;}.cls-3{fill:#80b94a;}.cls-4{fill:#fdd762;}.cls-5{fill:none;}</style></defs><title>tabIcon-a-3</title><g id="圖層_2" data-name="圖層 2"><g id="圖層_11" data-name="圖層 11"><path class="cls-1" d="M14.84,63.84a2.9,2.9,0,0,1-2.93-2.93V59.16a12.61,12.61,0,0,1-2.27-1.32l-.05,0C9,58.24,7.64,59,7.43,59.15l-.14.08a2.95,2.95,0,0,1-4-1.14l-.48-.84c-.37-.65-1.06-1.87-1.2-2.07l-.07-.1a2.92,2.92,0,0,1,1-4l.28-.17h0c.44-.24,1.4-.79,2.05-1.17a11.15,11.15,0,0,1-.08-1.35,9.5,9.5,0,0,1,.08-1.31c-.82-.44-2-1.1-2.34-1.35A2.91,2.91,0,0,1,1.26,44a2.94,2.94,0,0,1,.3-2.23L2,41c.75-1.32,1.15-2,1.34-2.3a2.88,2.88,0,0,1,2.49-1.43,3,3,0,0,1,1.42.36c.33.19,1.56.89,2.39,1.38a11.83,11.83,0,0,1,2.26-1.32V27.34A11.82,11.82,0,0,1,9.64,26l-.05,0c-.63.37-1.95,1.13-2.16,1.28l-.06,0-.08,0a2.95,2.95,0,0,1-4-1.14l-.48-.83c-.37-.66-1.06-1.88-1.2-2.08l-.07-.1a2.92,2.92,0,0,1,1-4l.28-.17h0c.44-.24,1.4-.79,2.05-1.17a10.45,10.45,0,0,1-.08-1.34,9.55,9.55,0,0,1,.08-1.32c-.82-.44-2-1.1-2.34-1.35a2.88,2.88,0,0,1-1.32-1.77,2.94,2.94,0,0,1,.3-2.23L2,9.15c.75-1.32,1.14-2,1.34-2.3A2.87,2.87,0,0,1,5.84,5.41a3,3,0,0,1,1.42.36L9.65,7.15a11.83,11.83,0,0,1,2.26-1.32V4.09a2.9,2.9,0,0,1,2.93-2.93h3.53A2.9,2.9,0,0,1,21.3,4.09V5.83a11.43,11.43,0,0,1,2.25,1.34l.07,0c.63-.37,2-1.13,2.17-1.28l.13-.08a3,3,0,0,1,3.95,1.05c.77,1.36,1.62,2.85,1.74,3A3,3,0,0,1,32,12.15,3,3,0,0,1,30.59,14l-.05,0-.05,0c-.25.11-1.45.78-2.21,1.22a8.84,8.84,0,0,1,.1,1.37,11.77,11.77,0,0,1-.08,1.3l4.81,2.59,4.8,2.6a12.11,12.11,0,0,1,2.29-1.33V20.12a2.9,2.9,0,0,1,2.93-2.93h3.54a2.9,2.9,0,0,1,2.93,2.93v1.62a11.75,11.75,0,0,1,2.24,1.34l.07,0c.64-.36,2-1.12,2.17-1.27l.13-.09a3.08,3.08,0,0,1,1.42-.36,3,3,0,0,1,2.53,1.42c.77,1.36,1.62,2.84,1.74,3a2.94,2.94,0,0,1-1,4.09l-.11.05c-.25.12-1.45.79-2.2,1.22a10.28,10.28,0,0,1,.09,1.37,11.77,11.77,0,0,1-.08,1.3c.81.45,2,1.11,2.34,1.37a2.89,2.89,0,0,1,1,4c-.35.62-1.48,2.63-1.77,3.09a2.91,2.91,0,0,1-2.54,1.46h0a3.08,3.08,0,0,1-1.42-.36l-.75-.44-1.62-.94a11.55,11.55,0,0,1-2.24,1.32v1.62a2.9,2.9,0,0,1-2.93,2.93H43.13a2.9,2.9,0,0,1-2.93-2.93V43.26a12.07,12.07,0,0,1-2.29-1.35l-9.62,5.18a9.76,9.76,0,0,1,.09,1.32,12,12,0,0,1-.08,1.31c.81.44,2,1.11,2.34,1.36a2.92,2.92,0,0,1,1,4c-.35.61-1.49,2.63-1.78,3.08a2.88,2.88,0,0,1-2.53,1.46,2.94,2.94,0,0,1-1.42-.36l-.76-.44-1.61-.93a12.36,12.36,0,0,1-2.25,1.3v1.75a2.9,2.9,0,0,1-2.93,2.93ZM21.3,37.66A11.85,11.85,0,0,1,23.59,39l4.81-2.6,4.8-2.59a12,12,0,0,1-.07-1.31,11.41,11.41,0,0,1,.08-1.32L23.59,26c-.36.26-.71.49-1,.71s-.85.46-1.25.64Z"/><path class="cls-1" d="M18.37,2.32a1.75,1.75,0,0,1,1.77,1.77V6.61a10.62,10.62,0,0,1,3.29,2h0c.35-.21,2.72-1.56,3-1.77a1.84,1.84,0,0,1,.87-.22,1.81,1.81,0,0,1,1.54.86s1.55,2.75,1.77,3.07A1.79,1.79,0,0,1,30,12.94c-.39.18-2.72,1.49-3,1.7a9,9,0,0,1,.22,1.95A12.38,12.38,0,0,1,27,18.53l5.52,3,5.48,3a10.74,10.74,0,0,1,3.32-1.94V20.12a1.75,1.75,0,0,1,1.77-1.77h3.54a1.75,1.75,0,0,1,1.77,1.77v2.41a10.51,10.51,0,0,1,3.28,1.94h0c.35-.21,2.72-1.55,3-1.77a1.78,1.78,0,0,1,.86-.22,1.8,1.8,0,0,1,1.54.86s1.56,2.76,1.77,3.08a1.79,1.79,0,0,1-.64,2.44c-.39.17-2.72,1.48-3,1.69a9,9,0,0,1,.21,1.95,11.4,11.4,0,0,1-.18,2c.39.17,2.69,1.48,3,1.69a1.76,1.76,0,0,1,.64,2.41s-1.56,2.76-1.77,3.07a1.74,1.74,0,0,1-1.54.9,2,2,0,0,1-.87-.22c-.35-.22-2.72-1.56-3-1.77a10.76,10.76,0,0,1-3.33,1.94v2.41a1.75,1.75,0,0,1-1.76,1.77H43.13a1.75,1.75,0,0,1-1.77-1.77V42.47A10.71,10.71,0,0,1,38,40.53l-5.52,3h0l-5.52,3a8.94,8.94,0,0,1,.22,1.94,12.4,12.4,0,0,1-.18,2c.39.18,2.69,1.48,3,1.7a1.74,1.74,0,0,1,.64,2.4s-1.56,2.76-1.77,3.08a1.75,1.75,0,0,1-1.54.89,1.81,1.81,0,0,1-.87-.22c-.35-.21-2.72-1.56-3-1.77a11.41,11.41,0,0,1-3.33,2v2.52a1.75,1.75,0,0,1-1.77,1.77H14.84a1.75,1.75,0,0,1-1.77-1.77V58.39a11.36,11.36,0,0,1-3.32-2c-.36.21-2.73,1.56-3,1.77a1.79,1.79,0,0,1-.87.22,1.76,1.76,0,0,1-1.54-.89c-.21-.35-1.55-2.76-1.76-3a1.76,1.76,0,0,1,.6-2.41s2.68-1.52,3-1.73a12.73,12.73,0,0,1-.17-2,8.94,8.94,0,0,1,.21-1.94c-.39-.18-2.73-1.49-3-1.7a1.78,1.78,0,0,1-.63-2.44c.21-.35,1.55-2.76,1.76-3a1.7,1.7,0,0,1,1.51-.89,1.75,1.75,0,0,1,.86.22s2.73,1.55,3.05,1.77a10.76,10.76,0,0,1,3.32-2V32.5h0V26.56a10.54,10.54,0,0,1-3.32-1.95c-.36.22-2.73,1.56-3,1.77a1.79,1.79,0,0,1-.87.22,1.74,1.74,0,0,1-1.54-.89c-.21-.35-1.55-2.76-1.76-3a1.76,1.76,0,0,1,.6-2.41s2.68-1.52,3-1.73A12.38,12.38,0,0,1,6,16.59a9,9,0,0,1,.21-1.95c-.39-.18-2.73-1.48-3-1.7a1.78,1.78,0,0,1-.63-2.44c.21-.35,1.55-2.76,1.76-3a1.72,1.72,0,0,1,1.51-.89,1.75,1.75,0,0,1,.86.22S9.43,8.35,9.75,8.56a10.76,10.76,0,0,1,3.32-1.95V4.09a1.75,1.75,0,0,1,1.77-1.77h3.53m5.1,38.07,5.48-3h0l5.52-3a11.4,11.4,0,0,1-.18-2,9,9,0,0,1,.21-1.95l-5.52-3h0l-5.51-3a16.78,16.78,0,0,1-1.56,1.14,11.76,11.76,0,0,1-1.77.81V32.5h0v5.94a10.81,10.81,0,0,1,3.33,2M18.37,0H14.84a4.09,4.09,0,0,0-4.09,4.09v1c-.4.21-.78.43-1.16.67l-1.74-1h0a4.08,4.08,0,0,0-2-.5,4,4,0,0,0-3.48,2c-.2.29-.53.86-1.35,2.31l-.44.77A4.1,4.1,0,0,0,2,14.92c.36.23,1,.63,1.71,1,0,.22,0,.44,0,.67s0,.47,0,.71l-1.13.64h0L2,18.28a4.11,4.11,0,0,0-1.4,5.56L.63,24,.68,24c.18.28.83,1.43,1.16,2,.21.38.39.7.48.84a4.1,4.1,0,0,0,5.52,1.56L8,28.34l.1-.08c.2-.13.9-.54,1.48-.87a11.47,11.47,0,0,0,1.17.68v8.86c-.4.21-.78.43-1.16.67l-1.74-1h0a4.08,4.08,0,0,0-2-.5,4,4,0,0,0-3.48,2c-.2.29-.53.86-1.35,2.3l-.44.78A4.09,4.09,0,0,0,2,46.74c.36.24,1.06.64,1.72,1,0,.22,0,.44,0,.66s0,.49,0,.72l-1.13.64h0L2,50.11a4.11,4.11,0,0,0-1.4,5.56l.07.11.05.07c.18.28.83,1.43,1.16,2,.21.38.39.69.48.84a4.1,4.1,0,0,0,5.52,1.56L8,60.17l.1-.08c.2-.13.91-.54,1.49-.88a13.08,13.08,0,0,0,1.16.68v1A4.09,4.09,0,0,0,14.84,65h3.53a4.09,4.09,0,0,0,4.09-4.09v-1q.6-.31,1.14-.66l1,.56.7.41,0,0,.05,0a4.11,4.11,0,0,0,5.51-1.53c.29-.48,1.12-1.93,1.79-3.12a4.05,4.05,0,0,0-1.43-5.51c-.36-.24-1-.65-1.72-1,0-.22,0-.44,0-.66s0-.44,0-.66l4.06-2.19h0l0,0,4.21-2.27c.39.26.8.5,1.21.72v.89A4.09,4.09,0,0,0,43.13,49h3.54a4.1,4.1,0,0,0,4.09-4.09V44c.39-.21.77-.43,1.14-.67l1,.56.7.41,0,0,0,0a4.24,4.24,0,0,0,2,.5,4.07,4.07,0,0,0,3.54-2c.3-.48,1.12-1.94,1.79-3.12a4.06,4.06,0,0,0-1.42-5.51c-.36-.24-1.06-.65-1.73-1,0-.22,0-.43,0-.65s0-.49,0-.73c.62-.35,1.28-.72,1.46-.8l.09,0,.11-.06a4.1,4.1,0,0,0,1.47-5.61l0-.06,0-.06c-.14-.21-1-1.66-1.68-2.93l0,0,0,0a4.16,4.16,0,0,0-3.52-2,4.24,4.24,0,0,0-2,.5l-.15.08-.1.08c-.21.13-.92.55-1.5.88A12.37,12.37,0,0,0,50.76,21v-.9A4.1,4.1,0,0,0,46.67,16H43.13A4.09,4.09,0,0,0,39,20.12V21a13.13,13.13,0,0,0-1.21.7l-4.17-2.26-4.14-2.23c0-.22,0-.43,0-.64s0-.5,0-.74l1.47-.8.09,0,.11-.06a4.08,4.08,0,0,0,1.9-2.51,4.13,4.13,0,0,0-.43-3.11l0-.06,0,0c-.14-.22-1-1.67-1.68-2.93l0,0,0,0a4.13,4.13,0,0,0-3.52-2,4.09,4.09,0,0,0-2,.5l-.16.08-.1.08c-.2.13-.91.54-1.49.88a11.33,11.33,0,0,0-1.16-.68v-1A4.09,4.09,0,0,0,18.37,0Zm4.09,28.08.59-.31.08,0,.07-.05.47-.32,4.21,2.27L32,31.84c0,.22,0,.44,0,.66s0,.43,0,.64l-4.13,2.23-4.18,2.27a11.26,11.26,0,0,0-1.21-.71V28.08Z"/><path class="cls-2" d="M58.94,38.55s-1.56,2.76-1.77,3.07a1.79,1.79,0,0,1-2.41.68c-.35-.22-2.72-1.56-3-1.77a10.76,10.76,0,0,1-3.33,1.94v2.41a1.75,1.75,0,0,1-1.76,1.77H43.13a1.75,1.75,0,0,1-1.77-1.77V42.47A10.71,10.71,0,0,1,38,40.53l-5.52,3-5.13.81L29,37.42l5.52-3a11.4,11.4,0,0,1-.18-2,9,9,0,0,1,.21-1.95l-5.52-3-1.8-6.5,5.38.42,5.48,3a10.74,10.74,0,0,1,3.32-1.94V20.12a1.75,1.75,0,0,1,1.77-1.77h3.54a1.75,1.75,0,0,1,1.77,1.77v2.41a10.51,10.51,0,0,1,3.28,1.94h0c.35-.21,2.72-1.55,3-1.77a1.81,1.81,0,0,1,2.4.64s1.56,2.76,1.77,3.08a1.79,1.79,0,0,1-.64,2.44c-.39.17-2.72,1.48-3,1.69a9,9,0,0,1,.21,1.95,11.4,11.4,0,0,1-.18,2c.39.17,2.69,1.48,3,1.69a1.76,1.76,0,0,1,.64,2.41Z"/><path class="cls-3" d="M30.65,54.46s-1.56,2.76-1.77,3.08a1.78,1.78,0,0,1-2.41.67c-.35-.21-2.72-1.56-3-1.77a11.41,11.41,0,0,1-3.33,2v2.52a1.75,1.75,0,0,1-1.77,1.77H14.84a1.75,1.75,0,0,1-1.77-1.77V58.39a11.55,11.55,0,0,1-3.33-2c-.35.21-2.72,1.56-3,1.77a1.78,1.78,0,0,1-2.41-.67c-.21-.36-1.55-2.76-1.76-3a1.76,1.76,0,0,1,.6-2.41s2.68-1.52,3-1.73a12.73,12.73,0,0,1-.17-2,8.94,8.94,0,0,1,.21-1.94c-.39-.18-2.73-1.49-3-1.7a1.78,1.78,0,0,1-.63-2.44c.21-.35,1.55-2.76,1.76-3a1.74,1.74,0,0,1,2.37-.67s2.73,1.55,3,1.77a10.93,10.93,0,0,1,3.33-2V32.5L16.61,29l3.53,3.54v5.94a10.81,10.81,0,0,1,3.33,2l5.48-3,3.57,6.08-5.52,3a8.94,8.94,0,0,1,.22,1.94,12.4,12.4,0,0,1-.18,2c.39.18,2.69,1.48,3,1.7a1.74,1.74,0,0,1,.64,2.4Z"/><path class="cls-4" d="M32.56,21.5,29,27.58l-5.51-3a16.78,16.78,0,0,1-1.56,1.14,11.76,11.76,0,0,1-1.77.81V32.5H13.07V26.56a10.71,10.71,0,0,1-3.33-1.95c-.35.22-2.72,1.56-3,1.77a1.78,1.78,0,0,1-2.41-.67c-.21-.35-1.55-2.76-1.76-3a1.76,1.76,0,0,1,.6-2.41s2.68-1.52,3-1.73A12.38,12.38,0,0,1,6,16.59a9,9,0,0,1,.21-1.95c-.39-.18-2.73-1.49-3-1.7a1.78,1.78,0,0,1-.63-2.44c.21-.35,1.55-2.76,1.76-3A1.74,1.74,0,0,1,6.7,6.79s2.73,1.56,3,1.77a10.93,10.93,0,0,1,3.33-1.95V4.09a1.75,1.75,0,0,1,1.77-1.77h3.53a1.75,1.75,0,0,1,1.77,1.77V6.61a10.62,10.62,0,0,1,3.29,2h0c.35-.21,2.72-1.56,3-1.77a1.81,1.81,0,0,1,2.41.64s1.55,2.75,1.77,3.07A1.79,1.79,0,0,1,30,12.94c-.39.18-2.72,1.49-3,1.7a9,9,0,0,1,.22,1.95A12.38,12.38,0,0,1,27,18.53Z"/><rect class="cls-5" x="2.32" y="2.32" width="56.94" height="60.36"/><path class="cls-1" d="M51.44,27.73a1.7,1.7,0,0,0-2.47,0l-4.07,4-1.77,1.77-2.3-2.27a1.75,1.75,0,1,0-2.47,2.48l3.53,3.53a1.72,1.72,0,0,0,2.48,0l7.07-7.07a1.7,1.7,0,0,0,0-2.47Z"/><path class="cls-1" d="M23.15,43.64a1.71,1.71,0,0,0-2.48,0l-4.06,4-1.77,1.77-2.3-2.26a1.75,1.75,0,0,0-2.48,2.47l3.54,3.54a1.72,1.72,0,0,0,2.48,0l7.07-7.07a1.71,1.71,0,0,0,0-2.48Z"/><path class="cls-1" d="M23.15,11.81a1.71,1.71,0,0,0-2.48,0l-4.06,4-1.77,1.77-2.3-2.26a1.75,1.75,0,0,0-2.48,2.47l3.54,3.54a1.72,1.72,0,0,0,2.48,0l7.07-7.07a1.71,1.71,0,0,0,0-2.48Z"/></g></g></svg>