<svg xmlns="http://www.w3.org/2000/svg" xmlns:xlink="http://www.w3.org/1999/xlink" viewBox="0 0 72.54 64.36"><defs><style>.cls-1{fill:none;}.cls-2{fill:#fff2c2;}.cls-3{fill:#f8b500;}.cls-4{fill:#0b9531;}.cls-5{fill:#666464;}.cls-6{clip-path:url(#clip-path);}</style><clipPath id="clip-path" transform="translate(-0.11 -0.64)"><rect class="cls-1" width="72.7" height="65"/></clipPath></defs><title>tabIcon-a-2</title><g id="圖層_2" data-name="圖層 2"><g id="圖層_11" data-name="圖層 11"><path class="cls-2" d="M52.21,50l11.85-5.6a5.49,5.49,0,0,1,7.24,2.2L47.21,62.13A16.54,16.54,0,0,1,36.88,63.3L20.26,58.64a6.13,6.13,0,0,0-4.56.5L12.22,61l.47-17h.14a16.23,16.23,0,0,1,16.89-1.18l1,.51a11.55,11.55,0,0,0,5,1.3L45.5,45a7.26,7.26,0,0,1,6.71,5Z" transform="translate(-0.11 -0.64)"/><path class="cls-3" d="M55.46,20.23A18.24,18.24,0,1,1,37.23,2,18.23,18.23,0,0,1,55.46,20.23Z" transform="translate(-0.11 -0.64)"/><path class="cls-4" d="M12.22,61l-.05,1.91-10.71-.3.65-23.5,10.71.29-.13,4.65Z" transform="translate(-0.11 -0.64)"/><path class="cls-5" d="M37.34,27.6a1.42,1.42,0,0,0-.46,0,3,3,0,0,1-2.72-3,1.35,1.35,0,1,0-2.7,0,5.73,5.73,0,0,0,4.25,5.56v1.35a1.35,1.35,0,1,0,2.7,0V30.19a5.77,5.77,0,0,0-1.18-11.42,3.07,3.07,0,1,1,3.06-3.06,1.35,1.35,0,1,0,2.7,0,5.78,5.78,0,0,0-4.58-5.65V8.83a1.35,1.35,0,0,0-2.7,0v1.32a5.76,5.76,0,0,0,1.52,11.32,3.07,3.07,0,0,1,.11,6.13Z" transform="translate(-0.11 -0.64)"/><g class="cls-6"><path class="cls-5" d="M17.64,20.23A19.59,19.59,0,1,0,37.23.64,19.59,19.59,0,0,0,17.64,20.23ZM37.23,3.34A16.89,16.89,0,1,1,20.34,20.23,16.89,16.89,0,0,1,37.23,3.34Z" transform="translate(-0.11 -0.64)"/><path class="cls-5" d="M63.47,43.14l-10.58,5a8.62,8.62,0,0,0-7.35-4.53l-9.76-.27a10.38,10.38,0,0,1-4.44-1.15l-1-.51a17.5,17.5,0,0,0-16.23,0l.06-2.25a1.36,1.36,0,0,0-1.31-1.39L2.15,37.76a1.34,1.34,0,0,0-1,.37,1.36,1.36,0,0,0-.42.94L.11,62.57A1.35,1.35,0,0,0,1.43,64l10.71.3h0a1.36,1.36,0,0,0,1.35-1.32l0-1.12,2.79-1.49a4.75,4.75,0,0,1,3.56-.39L36.51,64.6l.09,0a17.88,17.88,0,0,0,3.65.38,18.1,18.1,0,0,0,7.53-1.64l.16-.09L72,47.68a1.33,1.33,0,0,0,.44-1.79,6.8,6.8,0,0,0-9-2.75ZM10.89,61l0,.56-8-.22.57-20.8,8,.22Zm35.67,0a15.36,15.36,0,0,1-9.36,1L20.63,57.34a7.45,7.45,0,0,0-5.57.61l-1.42.76L14,44.88a14.81,14.81,0,0,1,15.08-.8l1,.51A13,13,0,0,0,35.7,46l9.77.27a5.94,5.94,0,0,1,5.46,4.07c.07.21.12.43.17.65l-14.55-.41a1.35,1.35,0,1,0-.07,2.7l16.05.45h0a1.35,1.35,0,0,0,1.35-1.32,9.38,9.38,0,0,0-.13-1.75l10.85-5.12,0,0a4.12,4.12,0,0,1,4.66.65Z" transform="translate(-0.11 -0.64)"/></g></g></g></svg>