<svg xmlns="http://www.w3.org/2000/svg" viewBox="0 0 56 56"><defs><style>.cls-1{fill:#666464;}.cls-2{fill:none;}</style></defs><title>tabIcon-4</title><g id="圖層_2" data-name="圖層 2"><g id="圖層_11" data-name="圖層 11"><path class="cls-1" d="M19.82,7.67a1.79,1.79,0,0,0-3.35,0L11.1,22a1.79,1.79,0,0,0,3.35,1.26l.91-2.43h5.58l.9,2.43A1.79,1.79,0,0,0,25.2,22ZM16.7,17.25l1.45-3.85,1.44,3.85Z"/><path class="cls-2" d="M32.55,25.39c.17-.49.17-.55.17-3.16V19.94a2.43,2.43,0,0,1,1.16-2.08l3.83-2.4-3.83-2.4A2.43,2.43,0,0,1,32.71,11V6.5a2.92,2.92,0,0,0-2.92-2.92H6.5A2.92,2.92,0,0,0,3.58,6.5V24.42A2.92,2.92,0,0,0,6.5,27.34H29.79A2.92,2.92,0,0,0,32.55,25.39Z"/><path class="cls-2" d="M49.5,28.66H36.37a7.86,7.86,0,0,1-6.58,3.58h-6.5v3.82a2.43,2.43,0,0,1-1.16,2.08l-3.83,2.4,3.83,2.4A2.43,2.43,0,0,1,23.29,45V49.5a2.92,2.92,0,0,0,2.92,2.92H49.5a2.92,2.92,0,0,0,2.92-2.92V31.58A2.92,2.92,0,0,0,49.5,28.66Z"/><path class="cls-1" d="M49.5,25.08H36.3V20.57l6.63-4.15a1.13,1.13,0,0,0,0-1.92L36.3,10.36V6.5A6.51,6.51,0,0,0,29.79,0H6.5A6.51,6.51,0,0,0,0,6.5V24.42a6.51,6.51,0,0,0,6.5,6.5H19.7v4.51l-6.63,4.15a1.13,1.13,0,0,0,0,1.92l6.63,4.14V49.5A6.51,6.51,0,0,0,26.21,56H49.5A6.51,6.51,0,0,0,56,49.5V31.58A6.51,6.51,0,0,0,49.5,25.08Zm-43,3.58a4.24,4.24,0,0,1-4.24-4.24V6.5A4.24,4.24,0,0,1,6.5,2.26H29.79A4.25,4.25,0,0,1,34,6.5V11a1.11,1.11,0,0,0,.53,1l5.63,3.52L34.57,19a1.11,1.11,0,0,0-.53,1v2.29c0,2.67,0,2.88-.25,3.6a4.24,4.24,0,0,1-4,2.83ZM53.74,49.5a4.24,4.24,0,0,1-4.24,4.24H26.21A4.25,4.25,0,0,1,22,49.5V45a1.11,1.11,0,0,0-.53-1L15.8,40.54,21.43,37a1.11,1.11,0,0,0,.53-1V30.92h7.83a6.51,6.51,0,0,0,5.63-3.25l.2-.33H49.5a4.24,4.24,0,0,1,4.24,4.24Z"/><path class="cls-1" d="M45.38,34.9H39.73V33A1.88,1.88,0,1,0,36,33V34.9H30.33a1.88,1.88,0,0,0,0,3.76h1.3a15.32,15.32,0,0,0,3.07,6.51,24.92,24.92,0,0,1-3,1.09,1.88,1.88,0,0,0,1.08,3.61,23.81,23.81,0,0,0,5.1-2.09A23.69,23.69,0,0,0,43,49.87,1.88,1.88,0,1,0,44,46.27a25.75,25.75,0,0,1-3-1.1,15.43,15.43,0,0,0,3.07-6.51h1.3a1.88,1.88,0,0,0,0-3.76Zm-7.53,8.15a9.86,9.86,0,0,1-2.34-4.39H40.2A9.88,9.88,0,0,1,37.85,43.05Z"/></g></g></svg>