<svg xmlns="http://www.w3.org/2000/svg" viewBox="0 0 58.4 65"><defs><style>.cls-1{fill:#cfebf8;}.cls-2{fill:#fff;}.cls-3{fill:#fff2c2;}.cls-4{fill:#ef8582;}.cls-5{fill:#666464;}</style></defs><title>tabIcon-a-1</title><g id="圖層_2" data-name="圖層 2"><g id="banner3文字"><path class="cls-1" d="M45.89,47.37,39.36,45.2H19l-6.53,2.17C5.8,49.61,1.27,56.65,1.27,63.73H57.13C57.13,56.65,52.6,49.61,45.89,47.37Z"/><path class="cls-2" d="M41.85,20.49l-3-.43A21.54,21.54,0,0,1,26.66,14,10.13,10.13,0,0,0,18.54,18l-2,2.64a82.15,82.15,0,0,0,.81,8.91c.54,3.57,1,6.93,4.52,10l-.06.07L19,45.2a49.72,49.72,0,0,0,7.36,14l2.8,4.49L32,59.24A49,49,0,0,0,35.44,54a49.31,49.31,0,0,0,3.92-8.78l-2.78-5.56-.07-.07a12.53,12.53,0,0,0,4.09-7.31c.25-1.49.33-2,.45-2.73a82,82,0,0,0,.8-9Z"/><path class="cls-3" d="M41.85,20.49l-3-.43A21.54,21.54,0,0,1,26.66,14,10.13,10.13,0,0,0,18.54,18l-2,2.64a82.15,82.15,0,0,0,.81,8.91c.54,3.57,1,6.93,4.52,10l-.06.07c-.93,1.86,7.51,7.46,7.51,7.46l7.25-7.46-.07-.07a12.53,12.53,0,0,0,4.09-7.31c.25-1.49.33-2,.45-2.73a82,82,0,0,0,.8-9Z"/><path class="cls-4" d="M47,19v8a2.54,2.54,0,0,1-2.54,2.54h-3l-.34,0a82,82,0,0,0,.8-9c0-.49,0-1,0-1.45H47Z"/><path class="cls-1" d="M30.34,6.35A11.58,11.58,0,0,1,41.89,18c0,.64,0,1.67,0,2.54l-3-.43A21.54,21.54,0,0,1,26.66,14,10.13,10.13,0,0,0,18.54,18l-2,2.64c0-.89-.05-1.92-.05-2.72A11.6,11.6,0,0,1,28.06,6.35h2.28Z"/><path class="cls-4" d="M29.2,32.12a2.54,2.54,0,0,1,0,5.08H26.66a2.54,2.54,0,1,1,0-5.08Z"/><path class="cls-4" d="M17.36,29.58H14A2.54,2.54,0,0,1,11.43,27V19h5.08c0,.54,0,1.08,0,1.63A82.15,82.15,0,0,0,17.36,29.58Z"/><path class="cls-5" d="M1.27,65H57.13a1.27,1.27,0,0,0,1.27-1.27c0-7.84-5.09-15.22-12.11-17.56l-6-2-2.17-4.34a13.83,13.83,0,0,0,3.76-7.35l.27-1.62h2.31A3.82,3.82,0,0,0,48.24,27V19a19,19,0,0,0-38.08,0v8a3.8,3.8,0,0,0,2.54,3.59v1.49a3.81,3.81,0,0,0,3.8,3.81h1.12a13.9,13.9,0,0,0,2.13,3.3l.56.6-2.17,4.33-6,2C5.09,48.51,0,55.89,0,63.73A1.27,1.27,0,0,0,1.27,65ZM29.2,61.33l-1.72-2.76-.06-.1a46.72,46.72,0,0,1-2.86-4.27l4.52-4.79,4.77,4.77A47.82,47.82,0,0,1,31,58.47Zm5.94-9.45-4.31-4.31,5.42-5.74L38,45.28A47.55,47.55,0,0,1,35.14,51.88ZM29,45.77l-2.48-2.48a12.43,12.43,0,0,0,2.65.28,13.26,13.26,0,0,0,2.08-.17Zm-7.1-3.51,5.36,5.36-4,4.26a48.07,48.07,0,0,1-2.84-6.6Zm33.88,20.2H31.49L33.05,60a52.16,52.16,0,0,0,3.5-5.34l0,0h0a51.48,51.48,0,0,0,3.57-7.77l5.35,1.78C51.12,50.46,55.31,56.17,55.81,62.46ZM14,28.31A1.26,1.26,0,0,1,12.7,27V20.31h2.57c0,.13,0,.27,0,.4v0h0c.09,2.54.3,5.14.61,7.58ZM40.62,19h0L39,18.8a20.35,20.35,0,0,1-11.47-5.73,1.26,1.26,0,0,0-.9-.37,11.49,11.49,0,0,0-8.83,4.17A10.31,10.31,0,0,1,28.06,7.62h2.28A10.33,10.33,0,0,1,40.63,18C40.63,18.35,40.62,18.7,40.62,19Zm5.08,8a1.27,1.27,0,0,1-1.27,1.27H42.5c.32-2.5.53-5.16.62-7.78a1.7,1.7,0,0,1,0-.22H45.7ZM29.2,2.54A16.52,16.52,0,0,1,45.65,17.77H43.16A12.85,12.85,0,0,0,30.34,5.08H28.06A12.85,12.85,0,0,0,15.24,17.77h-2.5A16.5,16.5,0,0,1,29.2,2.54Zm-14,29.58V30.85h1.05l.27,1.62c.05.31.11.61.18.92H16.5A1.27,1.27,0,0,1,15.23,32.12Zm7.84,3.81a3.81,3.81,0,0,0,3.59,2.54H29.2a3.81,3.81,0,1,0,0-7.62H26.66a3.8,3.8,0,0,0-3.59,2.54h-3.7a72.1,72.1,0,0,1-1.53-12.32l1.71-2.28a8.94,8.94,0,0,1,6.61-3.54,23,23,0,0,0,12.51,6.07l1.87.26c-.13,2.65-.38,5.31-.75,7.76h0c-.12.79-.21,1.3-.44,2.71a10.77,10.77,0,0,1-7.66,8.67,10,10,0,0,1-11.21-4.79Zm2.32-1.27a1.27,1.27,0,0,1,1.27-1.27H29.2a1.27,1.27,0,1,1,0,2.54H26.66A1.27,1.27,0,0,1,25.39,34.66ZM12.91,48.58l5.35-1.78a50.42,50.42,0,0,0,3.61,7.83v0h0A49.23,49.23,0,0,0,25.35,60l1.56,2.51H2.59C3.09,56.17,7.28,50.46,12.91,48.58Z"/></g></g></svg>