<svg xmlns="http://www.w3.org/2000/svg" viewBox="0 0 405.26 430.59"><defs><style>.cls-1{fill:#8fd3f3;}.cls-2{fill:#3db4e8;}.cls-3{fill:#fdd762;}.cls-4{fill:#f8b500;}.cls-5{fill:#b9d98f;}.cls-6{fill:#22ac38;}</style></defs><title>tabImg-4</title><g id="圖層_2" data-name="圖層 2"><g id="圖層_11" data-name="圖層 11"><path class="cls-1" d="M337.72,211.08A135.09,135.09,0,1,1,202.63,76,135.09,135.09,0,0,1,337.72,211.08Z"/><path class="cls-2" d="M202.63,67.54c-79.14,0-143.53,64.39-143.53,143.54s64.39,143.53,143.53,143.53,143.53-64.39,143.53-143.53S281.77,67.54,202.63,67.54Zm82.62,135.09A343.28,343.28,0,0,0,279.91,150c9.65-2.22,19.2-5,28.68-8.08a125.76,125.76,0,0,1,20.26,60.73Zm43.6,16.89a125.6,125.6,0,0,1-20.41,61c-9.45-3.08-18.95-5.88-28.56-8.12a344.54,344.54,0,0,0,5.38-52.85Zm-31.18-91.89c-7,2.15-14,4.14-21.13,5.79-2.41-10.4-5.52-20.66-8.93-30.85a127.09,127.09,0,0,1,30.05,25.06ZM260,136.79a327.27,327.27,0,0,1-48.9,4.93V84.86a125.37,125.37,0,0,1,35,7.41A328.74,328.74,0,0,1,260,136.79ZM157.2,93a125.54,125.54,0,0,1,37-8.14v56.86a328.08,328.08,0,0,1-50.51-5.24A329.94,329.94,0,0,1,157.19,93Zm37,65.61v44h-59A326.41,326.41,0,0,1,140.28,153a343.53,343.53,0,0,0,53.91,5.59Zm0,60.91v44A343.87,343.87,0,0,0,140.24,269a326.83,326.83,0,0,1-5-49.45Zm-50.54,66a326.92,326.92,0,0,1,50.54-5.1V337.3a125.92,125.92,0,0,1-37-8.14,328.41,328.41,0,0,1-13.54-43.65Zm67.42-5.05a325.46,325.46,0,0,1,48.86,5.05,330.8,330.8,0,0,1-13.83,44.37,125.88,125.88,0,0,1-35,7.42Zm0-16.89v-44h57.29a326.83,326.83,0,0,1-5,49.45,344.51,344.51,0,0,0-52.26-5.41Zm0-60.94v-44a342.07,342.07,0,0,0,52.29-5.28,327.67,327.67,0,0,1,5,49.3Zm-75.54-98.76c-3.18,9.63-6.1,19.33-8.39,29.15-6.55-1.56-13.06-3.42-19.53-5.4a127.21,127.21,0,0,1,27.92-23.75Zm-17.21,98.76H76.42a125.72,125.72,0,0,1,20.26-60.72c8.95,2.88,18,5.52,27.06,7.67a344.67,344.67,0,0,0-5.42,53Zm5.38,69.74c-9.13,2.13-18.18,4.75-27.17,7.63a125.63,125.63,0,0,1-20.11-60.48h41.9a343.29,343.29,0,0,0,5.38,52.85Zm-16.28,21.95c6.52-2,13.07-3.83,19.67-5.38,2.3,9.88,5.23,19.64,8.43,29.35a127.6,127.6,0,0,1-28.1-24ZM267.6,319.59c3.39-10.13,6.48-20.33,8.88-30.65,7,1.65,14,3.65,21,5.78a127.14,127.14,0,0,1-29.88,24.86Z"/><path class="cls-3" d="M143.53,0H25.33A25.33,25.33,0,0,0,0,25.33V102a33.75,33.75,0,0,0,12.68,26.37L42.21,152V118.2H143.53a25.33,25.33,0,0,0,25.33-25.33V25.33A25.33,25.33,0,0,0,143.53,0Z"/><path class="cls-4" d="M97.09,54.88A12.66,12.66,0,1,1,84.43,42.22,12.66,12.66,0,0,1,97.09,54.88Z"/><path class="cls-4" d="M143.53,54.88a12.67,12.67,0,1,1-12.66-12.66,12.66,12.66,0,0,1,12.66,12.66Z"/><path class="cls-4" d="M50.66,54.88A12.67,12.67,0,1,1,38,42.22,12.66,12.66,0,0,1,50.66,54.88Z"/><path class="cls-5" d="M261.73,430.59h118.2a25.33,25.33,0,0,0,25.33-25.33V328.62a33.77,33.77,0,0,0-12.67-26.37l-29.54-23.63v33.77H261.73a25.33,25.33,0,0,0-25.33,25.33v67.54a25.33,25.33,0,0,0,25.33,25.33Z"/><path class="cls-6" d="M333.5,375.71a12.67,12.67,0,1,1-12.67-12.66,12.67,12.67,0,0,1,12.67,12.66Z"/><path class="cls-6" d="M379.93,375.71a12.66,12.66,0,1,1-12.66-12.66,12.66,12.66,0,0,1,12.66,12.66Z"/><path class="cls-6" d="M287.06,375.71a12.67,12.67,0,1,1-12.66-12.66,12.66,12.66,0,0,1,12.66,12.66Z"/></g></g></svg>