<svg xmlns="http://www.w3.org/2000/svg" viewBox="0 0 65 65"><defs><style>.cls-1{fill:#8fd3f3;}.cls-2{fill:#ffe893;}.cls-3{fill:#666464;}.cls-4{fill:none;}.cls-5{fill:#fff;}</style></defs><title>tabIcon-a-4</title><g id="圖層_2" data-name="圖層 2"><g id="圖層_11" data-name="圖層 11"><polygon class="cls-1" points="19.39 20.02 22.74 20.02 21.06 15.55 19.39 20.02"/><path class="cls-2" d="M43.94,50a11.57,11.57,0,0,0,2.72-5.1H41.21A11.49,11.49,0,0,0,43.94,50Z"/><path class="cls-3" d="M23,8.9a2.08,2.08,0,0,0-3.89,0L12.88,25.53A2.08,2.08,0,1,0,16.77,27l1.06-2.81H24.3L25.36,27a2.08,2.08,0,1,0,3.89-1.46ZM19.39,20l1.67-4.47L22.74,20Z"/><path class="cls-4" d="M37.78,29.47c.2-.57.2-.64.19-3.67V23.14a2.83,2.83,0,0,1,1.34-2.41L43.76,18l-4.45-2.79A2.81,2.81,0,0,1,38,12.75V7.55a3.39,3.39,0,0,0-3.39-3.39h-27A3.39,3.39,0,0,0,4.16,7.55V28.34a3.39,3.39,0,0,0,3.39,3.39h27A3.41,3.41,0,0,0,37.78,29.47Z"/><path class="cls-4" d="M57.45,33.27H42.21a9.12,9.12,0,0,1-7.63,4.16H27v4.43a2.83,2.83,0,0,1-1.34,2.41l-4.45,2.78,4.45,2.79A2.81,2.81,0,0,1,27,52.25v5.2a3.39,3.39,0,0,0,3.39,3.39h27a3.39,3.39,0,0,0,3.39-3.39V36.66A3.39,3.39,0,0,0,57.45,33.27Z"/><path class="cls-3" d="M57.45,29.11H42.13V23.87l7.7-4.81a1.32,1.32,0,0,0,0-2.23L42.13,12V7.55A7.56,7.56,0,0,0,34.58,0h-27A7.56,7.56,0,0,0,0,7.55V28.34a7.56,7.56,0,0,0,7.55,7.55H22.87v5.24l-7.7,4.81a1.32,1.32,0,0,0,0,2.23L22.87,53v4.47A7.56,7.56,0,0,0,30.42,65h27A7.56,7.56,0,0,0,65,57.45V36.66A7.56,7.56,0,0,0,57.45,29.11ZM7.55,33.27a4.93,4.93,0,0,1-4.93-4.93V7.55A4.93,4.93,0,0,1,7.55,2.62h27a4.93,4.93,0,0,1,4.93,4.93v5.2a1.31,1.31,0,0,0,.61,1.11L46.66,18,40.12,22a1.31,1.31,0,0,0-.61,1.11V25.8c0,3.1,0,3.35-.28,4.18a5,5,0,0,1-4.65,3.29ZM62.38,57.45a4.93,4.93,0,0,1-4.93,4.93h-27a4.93,4.93,0,0,1-4.93-4.93v-5.2a1.31,1.31,0,0,0-.61-1.11l-6.54-4.09L24.88,43a1.31,1.31,0,0,0,.61-1.11v-6h9.09a7.59,7.59,0,0,0,6.54-3.77l.22-.39H57.45a4.93,4.93,0,0,1,4.93,4.93Z"/><path class="cls-5" d="M38.5,29.73c.31-.88.24-.93.24-6.59a2.08,2.08,0,0,1,1-1.76L45.21,18l-5.49-3.44a2.08,2.08,0,0,1-1-1.76V7.55a4.17,4.17,0,0,0-4.16-4.16h-27A4.17,4.17,0,0,0,3.39,7.55V28.34A4.17,4.17,0,0,0,7.55,32.5h27A4.15,4.15,0,0,0,38.5,29.73ZM4.16,28.34V7.55A3.39,3.39,0,0,1,7.55,4.16h27A3.39,3.39,0,0,1,38,7.55v5.2a2.81,2.81,0,0,0,1.34,2.41L43.76,18l-4.45,2.78A2.83,2.83,0,0,0,38,23.14V25.8c0,3,0,3.1-.19,3.67a3.41,3.41,0,0,1-3.2,2.26h-27A3.39,3.39,0,0,1,4.16,28.34Z"/><path class="cls-5" d="M57.45,32.5H41.78a8.32,8.32,0,0,1-7.2,4.16H26.26v5.2a2.08,2.08,0,0,1-1,1.76l-5.49,3.43,5.49,3.44a2.08,2.08,0,0,1,1,1.76v5.2a4.17,4.17,0,0,0,4.16,4.16h27a4.17,4.17,0,0,0,4.16-4.16V36.66A4.17,4.17,0,0,0,57.45,32.5Zm3.39,25a3.39,3.39,0,0,1-3.39,3.39h-27A3.39,3.39,0,0,1,27,57.45v-5.2a2.81,2.81,0,0,0-1.34-2.41l-4.45-2.79,4.45-2.78A2.83,2.83,0,0,0,27,41.86V37.43h7.55a9.12,9.12,0,0,0,7.63-4.16H57.45a3.39,3.39,0,0,1,3.39,3.39Z"/><path class="cls-1" d="M40.12,13.86a1.31,1.31,0,0,1-.61-1.11V7.55a4.93,4.93,0,0,0-4.93-4.93h-27A4.93,4.93,0,0,0,2.62,7.55V28.34a4.93,4.93,0,0,0,4.93,4.93h27A5,5,0,0,0,39.23,30c.29-.83.29-1.08.28-4.18V23.14A1.31,1.31,0,0,1,40.12,22L46.66,18ZM28,28.21A2.07,2.07,0,0,1,25.36,27L24.3,24.18H17.83L16.77,27a2.08,2.08,0,1,1-3.89-1.46L19.12,8.9A2.08,2.08,0,0,1,23,8.9l6.24,16.63A2.08,2.08,0,0,1,28,28.21Z"/><path class="cls-2" d="M57.45,31.73H41.34l-.22.39a7.59,7.59,0,0,1-6.54,3.77H25.49v6A1.31,1.31,0,0,1,24.88,43l-6.54,4.08,6.54,4.09a1.31,1.31,0,0,1,.61,1.11v5.2a4.93,4.93,0,0,0,4.93,4.93h27a4.93,4.93,0,0,0,4.93-4.93V36.66A4.93,4.93,0,0,0,57.45,31.73ZM52.67,44.87H51.16a17.76,17.76,0,0,1-3.56,7.56,28,28,0,0,0,3.51,1.27,2.18,2.18,0,1,1-1.25,4.18,26.52,26.52,0,0,1-5.93-2.43A26.24,26.24,0,0,1,38,57.88a2.18,2.18,0,1,1-1.25-4.18,28,28,0,0,0,3.51-1.27,17.76,17.76,0,0,1-3.56-7.56H35.2a2.18,2.18,0,0,1,0-4.36h6.55V38.33a2.19,2.19,0,1,1,4.37,0v2.18h6.55a2.18,2.18,0,0,1,0,4.36Z"/><path class="cls-3" d="M52.67,40.51H46.12V38.33a2.19,2.19,0,1,0-4.37,0v2.18H35.2a2.18,2.18,0,0,0,0,4.36h1.51a17.76,17.76,0,0,0,3.56,7.56,28,28,0,0,1-3.51,1.27A2.18,2.18,0,1,0,38,57.88a26.24,26.24,0,0,0,5.92-2.43,26.52,26.52,0,0,0,5.93,2.43,2.18,2.18,0,1,0,1.25-4.18,28,28,0,0,1-3.51-1.27,17.76,17.76,0,0,0,3.56-7.56h1.51a2.18,2.18,0,0,0,0-4.36ZM43.94,50a11.49,11.49,0,0,1-2.73-5.1h5.45A11.57,11.57,0,0,1,43.94,50Z"/></g></g></svg>