<svg xmlns="http://www.w3.org/2000/svg" viewBox="0 0 52.99 56"><defs><style>.cls-1{fill:#666464;}.cls-2{fill:none;}</style></defs><title>tabIcon-3</title><g id="圖層_2" data-name="圖層 2"><g id="圖層_11" data-name="圖層 11"><path class="cls-1" d="M15.83,2a1.51,1.51,0,0,1,1.52,1.52V5.7a9.13,9.13,0,0,1,2.84,1.67h0c.3-.18,2.34-1.34,2.59-1.52a1.51,1.51,0,0,1,.74-.19,1.54,1.54,0,0,1,1.33.74s1.34,2.37,1.52,2.65a1.53,1.53,0,0,1-.55,2.1c-.33.15-2.34,1.28-2.59,1.46a7.21,7.21,0,0,1,.19,1.68A9.09,9.09,0,0,1,23.29,16l4.76,2.56,4.72,2.56a9.16,9.16,0,0,1,2.87-1.67V17.34a1.51,1.51,0,0,1,1.52-1.53h3.05a1.51,1.51,0,0,1,1.52,1.53v2.07a8.87,8.87,0,0,1,2.83,1.67h0c.31-.18,2.35-1.34,2.59-1.52a1.58,1.58,0,0,1,.75-.19,1.53,1.53,0,0,1,1.32.74s1.35,2.38,1.53,2.65a1.54,1.54,0,0,1-.55,2.1c-.34.15-2.35,1.28-2.59,1.46A7.79,7.79,0,0,1,47.82,28a10.29,10.29,0,0,1-.15,1.68C48,29.83,50,31,50.23,31.14a1.51,1.51,0,0,1,.55,2.07s-1.34,2.38-1.53,2.65a1.47,1.47,0,0,1-1.32.77,1.58,1.58,0,0,1-.75-.19c-.3-.18-2.34-1.34-2.59-1.52a9,9,0,0,1-2.86,1.67v2.07a1.51,1.51,0,0,1-1.53,1.53h-3a1.52,1.52,0,0,1-1.53-1.53V36.59a9.13,9.13,0,0,1-2.86-1.67L28,37.48h0L23.26,40a7.07,7.07,0,0,1,.19,1.67,9.29,9.29,0,0,1-.16,1.68c.34.15,2.32,1.28,2.56,1.46a1.49,1.49,0,0,1,.55,2.07s-1.34,2.38-1.52,2.65a1.49,1.49,0,0,1-1.33.77,1.51,1.51,0,0,1-.74-.19c-.31-.18-2.35-1.34-2.59-1.52a9.79,9.79,0,0,1-2.87,1.67v2.18A1.51,1.51,0,0,1,15.83,54H12.78a1.51,1.51,0,0,1-1.52-1.52V50.3A9.61,9.61,0,0,1,8.4,48.63c-.31.18-2.35,1.34-2.59,1.52a1.58,1.58,0,0,1-.75.19,1.49,1.49,0,0,1-1.33-.77c-.18-.3-1.34-2.37-1.52-2.62a1.52,1.52,0,0,1,.52-2.07S5,43.57,5.32,43.39a10.6,10.6,0,0,1-.15-1.68A7.63,7.63,0,0,1,5.35,40C5,39.88,3,38.76,2.76,38.57a1.53,1.53,0,0,1-.55-2.1c.18-.3,1.34-2.38,1.52-2.62A1.47,1.47,0,0,1,5,33.08a1.54,1.54,0,0,1,.74.19s2.34,1.34,2.62,1.52a9.11,9.11,0,0,1,2.86-1.67V28h0V22.88A9,9,0,0,1,8.4,21.21c-.31.18-2.35,1.34-2.59,1.52a1.58,1.58,0,0,1-.75.19,1.49,1.49,0,0,1-1.33-.77c-.18-.3-1.34-2.38-1.52-2.62a1.52,1.52,0,0,1,.52-2.07S5,16.15,5.32,16a10.07,10.07,0,0,1-.15-1.67,7.79,7.79,0,0,1,.18-1.68C5,12.46,3,11.33,2.76,11.15a1.54,1.54,0,0,1-.55-2.1c.18-.31,1.34-2.38,1.52-2.62A1.47,1.47,0,0,1,5,5.66a1.54,1.54,0,0,1,.74.19S8.12,7.19,8.4,7.37A9.11,9.11,0,0,1,11.26,5.7V3.52A1.51,1.51,0,0,1,12.78,2h3.05m4.39,32.79,4.72-2.55h0l4.75-2.56A10.29,10.29,0,0,1,29.54,28a7.79,7.79,0,0,1,.18-1.68L25,23.76h0l-4.75-2.55a15.13,15.13,0,0,1-1.34,1,10,10,0,0,1-1.53.7V28h0v5.12a9.27,9.27,0,0,1,2.87,1.67M15.83,0H12.78A3.53,3.53,0,0,0,9.26,3.52V4.4a9.75,9.75,0,0,0-1,.57l-1.5-.86A3.66,3.66,0,0,0,5,3.66a3.48,3.48,0,0,0-3,1.7c-.17.26-.46.75-1.17,2L.5,8a3.55,3.55,0,0,0,1.2,4.83c.31.2.91.55,1.48.87,0,.19,0,.38,0,.57s0,.41,0,.61l-1,.56h0l-.48.29A3.55,3.55,0,0,0,.48,20.54l.06.1,0,.06c.15.23.72,1.23,1,1.72.19.32.34.6.42.72a3.49,3.49,0,0,0,3.06,1.78,3.61,3.61,0,0,0,1.7-.43l.13-.07L7,24.35c.17-.11.78-.47,1.28-.75a10,10,0,0,0,1,.58v7.64a9.84,9.84,0,0,0-1,.58l-1.5-.87A3.66,3.66,0,0,0,5,31.08a3.47,3.47,0,0,0-3,1.71c-.17.25-.46.74-1.17,2l-.37.66a3.52,3.52,0,0,0-.38,2.7A3.48,3.48,0,0,0,1.7,40.27c.31.2.91.55,1.48.87,0,.19,0,.38,0,.57s0,.42,0,.61l-1,.56h0l-.48.29A3.55,3.55,0,0,0,.48,48l.06.1,0,.06c.15.24.72,1.23,1,1.72l.42.73a3.5,3.5,0,0,0,3.06,1.77,3.61,3.61,0,0,0,1.7-.43l.13-.07L7,51.77c.17-.11.78-.47,1.28-.75a10.8,10.8,0,0,0,1,.57v.89A3.53,3.53,0,0,0,12.78,56h3.05a3.53,3.53,0,0,0,3.52-3.52v-.89a10.38,10.38,0,0,0,1-.56l.85.49.6.35,0,0,0,0a3.61,3.61,0,0,0,1.7.43,3.51,3.51,0,0,0,3.05-1.75c.26-.41,1-1.66,1.54-2.69a3.43,3.43,0,0,0,.36-2.64,3.57,3.57,0,0,0-1.58-2.11c-.31-.2-.91-.55-1.49-.88,0-.19,0-.37,0-.56s0-.38,0-.57L29,39.24l3.63-2c.34.23.69.43,1,.62v.76a3.54,3.54,0,0,0,3.53,3.53h3a3.53,3.53,0,0,0,3.53-3.53V37.9c.33-.18.66-.37,1-.58l.84.49.6.34,0,0,0,0a3.61,3.61,0,0,0,1.7.43,3.51,3.51,0,0,0,3-1.75c.25-.41,1-1.67,1.54-2.69a3.51,3.51,0,0,0-1.23-4.75c-.3-.2-.91-.55-1.48-.88,0-.19,0-.37,0-.56s0-.42,0-.63c.54-.3,1.11-.62,1.27-.69l.07,0,.1-.05a3.49,3.49,0,0,0,1.63-2.16,3.53,3.53,0,0,0-.36-2.68l0-.05,0-.05c-.12-.19-.83-1.43-1.44-2.52l0,0,0,0a3.55,3.55,0,0,0-3-1.7,3.61,3.61,0,0,0-1.7.43l-.13.07-.09.07-1.29.76a9.94,9.94,0,0,0-1-.59v-.77a3.53,3.53,0,0,0-3.52-3.53H37.16a3.53,3.53,0,0,0-3.52,3.53v.77a9.69,9.69,0,0,0-1,.6L29,16.77l-3.57-1.93c0-.18,0-.37,0-.55s0-.42,0-.63c.53-.3,1.1-.62,1.26-.69l.08,0,.09,0A3.53,3.53,0,0,0,28.13,8l0,0,0,0c-.12-.19-.83-1.43-1.45-2.52l0,0v0a3.56,3.56,0,0,0-4.73-1.27l-.14.07-.09.07L20.35,5a11.37,11.37,0,0,0-1-.59V3.52A3.53,3.53,0,0,0,15.83,0Zm3.52,24.19.51-.27.06,0,.07-.05.4-.27,3.63,2,3.54,1.9c0,.19,0,.38,0,.57s0,.37,0,.56L24,30.47l-3.6,2a9.69,9.69,0,0,0-1-.6V24.19Z"/><rect class="cls-2" x="2" y="2" width="49.05" height="52"/><path class="cls-1" d="M44.32,23.89a1.47,1.47,0,0,0-2.13,0l-3.51,3.47-1.52,1.52-2-1.95a1.48,1.48,0,0,0-2.14,0,1.5,1.5,0,0,0,0,2.14l3.05,3a1.42,1.42,0,0,0,1.07.46,1.4,1.4,0,0,0,1.06-.46L44.32,26a1.47,1.47,0,0,0,0-2.13Z"/><path class="cls-1" d="M19.94,37.6a1.47,1.47,0,0,0-2.13,0l-3.5,3.47-1.53,1.52-2-2a1.51,1.51,0,1,0-2.13,2.14l3.05,3a1.46,1.46,0,0,0,2.13,0l6.09-6.09a1.47,1.47,0,0,0,0-2.13Z"/><path class="cls-1" d="M19.94,10.18a1.47,1.47,0,0,0-2.13,0l-3.5,3.47-1.53,1.52-2-1.95a1.51,1.51,0,1,0-2.13,2.14l3.05,3a1.46,1.46,0,0,0,2.13,0l6.09-6.09a1.47,1.47,0,0,0,0-2.13Z"/></g></g></svg>