<svg xmlns="http://www.w3.org/2000/svg" xmlns:xlink="http://www.w3.org/1999/xlink" viewBox="0 0 58.03 51.49"><defs><style>.cls-1{fill:none;}.cls-2{fill:#666464;}.cls-3{clip-path:url(#clip-path);}</style><clipPath id="clip-path" transform="translate(-0.09 -0.51)"><rect class="cls-1" width="58.16" height="52"/></clipPath></defs><title>tabIcon-2</title><g id="圖層_2" data-name="圖層 2"><g id="圖層_11" data-name="圖層 11"><path class="cls-2" d="M29.87,22.08a.92.92,0,0,0-.37,0,2.44,2.44,0,0,1-2.17-2.44,1.08,1.08,0,1,0-2.16,0,4.57,4.57,0,0,0,3.4,4.45v1.08a1.08,1.08,0,0,0,2.16,0v-1A4.61,4.61,0,0,0,29.78,15a2.46,2.46,0,1,1,2.45-2.45,1.08,1.08,0,0,0,2.16,0,4.62,4.62,0,0,0-3.66-4.52v-1a1.08,1.08,0,0,0-2.16,0v1a4.61,4.61,0,0,0,1.21,9.06,2.45,2.45,0,0,1,.09,4.9Z" transform="translate(-0.09 -0.51)"/><g class="cls-3"><path class="cls-2" d="M14.11,16.18A15.67,15.67,0,1,0,29.78.51,15.68,15.68,0,0,0,14.11,16.18ZM29.78,2.68a13.51,13.51,0,1,1-13.51,13.5A13.5,13.5,0,0,1,29.78,2.68Z" transform="translate(-0.09 -0.51)"/><path class="cls-2" d="M50.77,34.51l-8.46,4a6.9,6.9,0,0,0-5.88-3.62l-7.81-.22a8.28,8.28,0,0,1-3.55-.92l-.8-.41a14,14,0,0,0-13,0l.05-1.8a1.1,1.1,0,0,0-1.05-1.11l-8.57-.23A1.07,1.07,0,0,0,1,30.5a1.09,1.09,0,0,0-.34.76L.09,50.06a1.09,1.09,0,0,0,1,1.11l8.57.23h0a1.08,1.08,0,0,0,1.08-1l0-.9,2.23-1.19A3.82,3.82,0,0,1,15.92,48l13.29,3.73.07,0a14.33,14.33,0,0,0,2.92.3,14.53,14.53,0,0,0,6-1.31l.14-.08L57.63,38.15A1.08,1.08,0,0,0,58,36.71a5.46,5.46,0,0,0-7.21-2.2ZM8.71,48.77l0,.44L2.29,49,2.74,32.4l6.41.17Zm28.54,0a12.21,12.21,0,0,1-7.49.83L16.5,45.87a5.94,5.94,0,0,0-4.45.49L10.91,47l.31-11.07a11.88,11.88,0,0,1,12.06-.64l.8.41a10.32,10.32,0,0,0,4.48,1.16l7.81.22a4.72,4.72,0,0,1,4.37,3.25,4.42,4.42,0,0,1,.14.52L29.24,40.5a1.08,1.08,0,1,0-.06,2.16L42,43h0a1.07,1.07,0,0,0,1.08-1,6.56,6.56,0,0,0-.1-1.4l8.68-4.1h0a3.3,3.3,0,0,1,3.74.52Z" transform="translate(-0.09 -0.51)"/></g></g></g></svg>