<svg xmlns="http://www.w3.org/2000/svg" viewBox="0 0 405.26 405.16"><defs><style>.cls-1{fill:#f8b500;}.cls-2{fill:#f5a200;}.cls-3{fill:#ffe893;}.cls-4{fill:#fff;}.cls-5{fill:#fec9a3;}.cls-6{fill:#f7bb8f;}.cls-7{fill:#0095d8;}.cls-8{fill:#007bc2;}.cls-9{fill:#949495;}</style></defs><title>tabImg-2</title><g id="圖層_2" data-name="圖層 2"><g id="圖層_12" data-name="圖層 12"><path class="cls-1" d="M70,263.15a16.34,16.34,0,0,1,2.44-8.66L88,229.41A27.42,27.42,0,0,0,90.91,217V139.71A90.81,90.81,0,0,1,181.72,48.9h41.92a90.81,90.81,0,0,1,90.81,90.81V217a27.43,27.43,0,0,0,2.94,12.44L333,254.49a16.44,16.44,0,0,1,2.45,8.66h0a16.34,16.34,0,0,1-16.28,16.27H86.23A16.33,16.33,0,0,1,70,263.15Z"/><polygon class="cls-1" points="181.72 48.9 146.8 0 258.57 0 223.64 48.9 223.64 62.87 181.72 62.87 181.72 48.9"/><path class="cls-2" d="M332.83,254.49l-15.58-25.08A27.42,27.42,0,0,1,314.32,217V139.71a90.8,90.8,0,0,0-19.07-55.88c-18.65,102.76-84.32,162-146,195.59H319a16.34,16.34,0,0,0,14-24.93Z"/><path class="cls-3" d="M63,69.86h0A34,34,0,0,1,90.91,41.91h0A33.93,33.93,0,0,1,63,14h0A33.94,33.94,0,0,1,35,41.91h0A34,34,0,0,1,63,69.86Z"/><path class="cls-3" d="M377.32,209.57h0a33.94,33.94,0,0,1,27.94-27.94h0a34,34,0,0,1-27.94-27.95h0a34,34,0,0,1-27.94,27.95h0A33.93,33.93,0,0,1,377.32,209.57Z"/><path class="cls-4" d="M237.51,153.68v-4.47A23.54,23.54,0,0,0,214,125.74h-4.47v-14h-14v14h-4.47a23.47,23.47,0,0,0-8.25,45.48L195.6,176v26.61h-4.47a9.5,9.5,0,0,1-9.5-9.5h0v-4.47h-14v4.47a23.54,23.54,0,0,0,23.48,23.47H214a23.47,23.47,0,0,0,8.24-45.47l-12.71-4.75V139.71H214a9.51,9.51,0,0,1,9.5,9.5h0v4.47Zm-20.12,30.46a9.64,9.64,0,0,1,6.15,8.94,9.5,9.5,0,0,1-9.5,9.5h-4.47V181.21Zm-21.79-23-7.83-2.94a9.63,9.63,0,0,1-6.14-8.94,9.5,9.5,0,0,1,9.5-9.5h4.47Z"/><path class="cls-5" d="M3.1,243.73a21,21,0,0,1,28-7.76l99.12,42.34a14,14,0,0,0,5.52,1.11H258.57a14,14,0,1,0,0-27.94H202.68a41.91,41.91,0,0,1-41.91-41.91H277a63.53,63.53,0,0,1,49.53,23.82l43.8,53L321,376.8l-189.8-45.61a100.76,100.76,0,0,1-23.61-8.67L9.81,272.44A21,21,0,0,1,3.1,243.73Z"/><path class="cls-6" d="M336.74,348,321,376.8l-189.8-45.61a100.76,100.76,0,0,1-23.61-8.67L54.73,295.35C142.61,322.25,259.27,339,336.74,348Z"/><polygon class="cls-7" points="405.26 279.42 405.26 405.17 314.45 405.17 293.49 384.21 377.32 258.47 405.26 279.42"/><path class="cls-8" d="M405.26,405.16H314.45l-21-21,15.37-23a494.75,494.75,0,0,0,96.4,28.71Z"/><circle class="cls-9" cx="342.39" cy="370.26" r="13.97"/></g></g></svg>