<?xml version="1.0" encoding="utf-8"?>
<!-- Generator: Adobe Illustrator 21.1.0, SVG Export Plug-In . SVG Version: 6.00 Build 0)  -->
<svg version="1.1" xmlns="http://www.w3.org/2000/svg" xmlns:xlink="http://www.w3.org/1999/xlink" x="0px" y="0px"
	 viewBox="0 0 2902.7 1632.8" style="enable-background:new 0 0 2902.7 1632.8;" xml:space="preserve">
<style type="text/css">
	.st0{clip-path:url(#SVGID_2_);fill-rule:evenodd;clip-rule:evenodd;fill:#D98A6E;}
	.st1{clip-path:url(#SVGID_2_);fill-rule:evenodd;clip-rule:evenodd;fill:#656464;}
	.st2{clip-path:url(#SVGID_2_);fill-rule:evenodd;clip-rule:evenodd;fill:#4D4D4D;}
	.st3{clip-path:url(#SVGID_2_);fill-rule:evenodd;clip-rule:evenodd;fill:#FFFFFF;}
	.st4{clip-path:url(#SVGID_2_);fill-rule:evenodd;clip-rule:evenodd;fill:#E3807D;}
	.st5{clip-path:url(#SVGID_2_);fill-rule:evenodd;clip-rule:evenodd;fill:#DD5E60;}
	.st6{clip-path:url(#SVGID_2_);fill-rule:evenodd;clip-rule:evenodd;fill:#717171;}
	.st7{clip-path:url(#SVGID_2_);fill-rule:evenodd;clip-rule:evenodd;fill:#EFEFEF;}
	.st8{clip-path:url(#SVGID_2_);}
	.st9{fill-rule:evenodd;clip-rule:evenodd;fill:#888988;}
	.st10{fill-rule:evenodd;clip-rule:evenodd;fill:#FFFFFF;stroke:#EFEFEF;stroke-width:0.9649;stroke-miterlimit:10;}
	.st11{fill-rule:evenodd;clip-rule:evenodd;fill:#F3B99D;}
	.st12{clip-path:url(#SVGID_2_);fill-rule:evenodd;clip-rule:evenodd;fill:#F6C8B5;}
	.st13{fill-rule:evenodd;clip-rule:evenodd;fill:#11141C;}
	.st14{fill-rule:evenodd;clip-rule:evenodd;fill:#FFFFFF;}
	.st15{fill-rule:evenodd;clip-rule:evenodd;fill:#C75D6C;}
	.st16{clip-path:url(#SVGID_2_);fill-rule:evenodd;clip-rule:evenodd;fill:#E9F1D7;}
	.st17{fill-rule:evenodd;clip-rule:evenodd;fill:#E9F1D7;}
	.st18{fill-rule:evenodd;clip-rule:evenodd;fill:#CDE2BB;}
	.st19{opacity:0.3;fill:#8FD3F3;}
	.st20{fill:#8FD3F3;}
	.st21{fill:#EB6164;}
	.st22{fill:#0095D8;}
	.st23{fill:#FFFFFF;}
	.st24{font-family:'DFHeiStd-W7-B5pc-H';}
	.st25{font-size:85px;}
	.st26{fill:none;stroke:#3DB4E8;stroke-width:5;stroke-miterlimit:10;}
	.st27{fill:none;stroke:#3DB4E8;stroke-width:5;stroke-miterlimit:10;stroke-dasharray:9.7481,9.7481;}
	.st28{fill:#EF8582;}
	.st29{fill:none;stroke:#3DB4E8;stroke-width:5;stroke-miterlimit:10;stroke-dasharray:9.908,9.908;}
	.st30{fill:none;stroke:#3DB4E8;stroke-width:5;stroke-miterlimit:10;stroke-dasharray:10.0166,10.0166;}
	.st31{fill:#898989;}
	.st32{font-size:60px;}
	.st33{fill:#22AC38;}
	.st34{font-family:'Roboto-Medium';}
</style>
<g id="圖層_1">
</g>
<g id="圖層_2">
	<g>
		<g>
			<g>
				<defs>
					<rect id="SVGID_1_" x="950.3" y="238.8" width="1008.1" height="1155.1"/>
				</defs>
				<clipPath id="SVGID_2_">
					<use xlink:href="#SVGID_1_"  style="overflow:visible;"/>
				</clipPath>
				<path class="st0" d="M1454.2,661.2L1454.2,661.2c50.3,0,91.5,70.4,91.5,156.5v127.1c0,86.1-41.2,156.5-91.5,156.5l0,0
					c-50.3,0-91.5-70.4-91.5-156.5V817.7C1362.6,731.6,1403.8,661.2,1454.2,661.2z"/>
				<path class="st1" d="M1743.7,972.1c0,0,53.6,14.4,84.2,80.7c30.6,66.3,105.3,275.6,123.9,334.4c18.7,58.7-49.1,310-135.4,443.9
					H1703c0,0,109.6-335,114.3-367.2c4.7-32.2-103.7-219.7-103.7-219.7C1683.7,1150.2,1685.6,1056.4,1743.7,972.1z"/>
				<path class="st2" d="M1951.5,1457.3c-14.1,101.2-69.1,271.6-135,373.8h-70.4c-11.3-15.4-19.4-27-19.4-27l10.9-79.6
					C1863.9,1854.7,1937.2,1537.1,1951.5,1457.3z"/>
				<path class="st3" d="M1478.2,982.4l-14.8,1.8l-9.2,6.3l-9.2-6.3l-14.8-1.8l-87.4-68.5L1153,990.7l-9.5,182.1
					c14.2,181,56.6,471.1,56.6,485.1c0,14-30.1,112.3-48.7,172h302.7h300.6c-18.6-59.7-48.7-158-48.7-172
					c0-14,44.6-304.1,58.7-485.1l-9.4-182.1l-189.7-76.8L1478.2,982.4z"/>
				<polygon class="st4" points="1474.6,1030.1 1478.7,1051.9 1520.1,1591.3 1454.2,1731.5 1388.2,1591.3 1429.6,1051.9 
					1433.7,1030.1 1454.2,1043.3 				"/>
				<path class="st5" d="M1474.6,1030.1l4.1,21.8l41.4,539.4l-65.9,140.2c0,0,38.7-120.7,40.2-139.4c1.5-18.7-23.3-533.2-30.6-538
					c-7.3-4.8-21.8-4.3-21.8-4.3l9.3-8.3l2.9,1.9L1474.6,1030.1z"/>
				<path class="st6" d="M1436.1,985.4l8.9-1.3c0,0,1.8,1.6,2,4.4c0.3,2.8,0.4,11,0.4,11l-6.8,2.1c0,0-13.4,0.3-13.3-0.2
					C1427.5,1001,1436.1,985.4,1436.1,985.4z"/>
				<path class="st6" d="M1472.2,985.4l-8.9-1.3c0,0-1.7,1.6-2,4.4c-0.3,2.8-0.5,11-0.5,11l6.8,2.1c0,0,13.4,0.3,13.3-0.2
					C1480.9,1001,1472.2,985.4,1472.2,985.4z"/>
				<path class="st4" d="M1429.6,1051.9l-19.3-42.4c16.7-15.7,71-15.7,87.7,0l-19.3,42.4C1465.1,1048.3,1443.2,1048.3,1429.6,1051.9
					z"/>
				<path class="st5" d="M1418,1026.4l-7.7-16.9c6-5.7,16.9-9.3,29.1-10.9L1418,1026.4L1418,1026.4z M1454.6,997.7
					c17.6,0.1,35.1,4,43.4,11.8l-19.3,42.4c-5.2-1.4-11.7-2.2-18.5-2.6c3.6-2.9,8.5-7,8.6-7.9c0.3-1.6-0.1-38-1.6-38.6L1454.6,997.7
					z"/>
				<path class="st7" d="M1545.7,877.2c0,0,7.9-1.2,10.6,0c2.7,1.2,22.9,56.3,19.1,67.4c-3.8,11.1-53.6,102.5-53.6,102.5
					s-3.5,4.9-9.2,0.1c-5.7-4.7-49.1-63.1-49.1-63.1l82.4-99.6V877.2z"/>
				<path class="st1" d="M1572.9,910.1l167.9,60.8c3.5,1.3,38.3,15.2,42.5,65.6c2,23.8-14.7,135.8-28.6,266.8
					c-17.1,161.3-32.4,345.3-32.4,354.6c0,16.8,30.4,113.3,49,173h-244.7l42.9-914C1569.5,916.8,1569.6,911.9,1572.9,910.1z"/>
				<path class="st7" d="M1362.6,876.8c0,0-7.9-1.2-10.6,0c-2.7,1.2-12,42-17.7,50c0,0-5.2,6.6-1.4,17.8
					c3.8,11.1,53.6,102.5,53.6,102.5s3.5,4.9,9.3,0.1c5.7-4.7,49.1-63.1,49.1-63.1l-82.3-100V876.8z"/>
				<path class="st1" d="M1335.4,915.2l-167.9,55.6c-3.5,1.3-38.3,15.2-42.5,65.6c-2,24.4,17.1,141.3,31.5,276
					c16.8,158.3,29.5,336.2,29.5,345.3c0,16.8-30.4,113.3-49,173h244.8l-46.3-888.7C1335.4,942.1,1338.7,917,1335.4,915.2z"/>
				<path class="st2" d="M1778.1,990.2c-15.3,43.4-58.1,186.6-17.3,334.1c0.3,1.1-0.3,2.1-1.4,2.5c-2.1-4-4.2-7.9-6.2-11.7
					c-37-146.9,6.1-287.4,20.7-328C1775.2,988.2,1776.6,989.2,1778.1,990.2z"/>
				<path class="st1" d="M1167.6,972.1c0,0-53.6,14.4-84.2,80.7c-30.6,66.3-105.3,275.6-123.9,334.4
					c-18.7,58.7,49.1,310,135.4,443.9h113.5c0,0-109.6-335-114.3-367.2c-4.7-32.2,103.7-219.7,103.7-219.7
					C1227.5,1150.2,1225.7,1056.4,1167.6,972.1z"/>
				<path class="st2" d="M959.8,1457.3c14.1,101.2,69.1,271.6,135,373.8h52.1c0.9-1.3,21.2-106.6,22.2-117.6
					c-20.5,14.5-37.8,30.7-82.4,15.9C1030.2,1710.7,974.6,1539.5,959.8,1457.3z"/>
				<path class="st2" d="M1096.1,1473.6c-1.1-4.3-1.8-7.6-2.1-9.7c-2.8-18.9,29.8-88.5,60.1-145.1c4.8-8.9,8.5,85.9,12.8,78.1
					c-1.5-18.5,2-136.1,1.9-137c-1.1-5.2-75.7,146.3-80,158.2C1084.4,1429.9,1096,1473.6,1096.1,1473.6L1096.1,1473.6z"/>
				<path class="st2" d="M1133.2,990.2c15.3,43.4,58.1,186.6,17.3,334.1c-0.3,1.1,0.3,2.1,1.4,2.5c2.1-4,4.2-7.9,6.2-11.7
					c37-146.9-6.1-287.4-20.7-328C1136.1,988.2,1134.7,989.2,1133.2,990.2z"/>
				<g class="st8">
					<path class="st9" d="M1540.9,1427.1l13.1-367l3.9-0.9c-6.9,149.5-17,368.4-17,368.4L1540.9,1427.1z"/>
					<path class="st10" d="M1571,909.5l33.2,11.6c0,0,2.9,0.7,3.8,4.2c0.9,3.4,46.8,110.8,47.9,114.6c1.1,3.8-1.9,7.8-8.2,9.7
						c-6.3,1.9-94.1,25.8-94.1,25.8l12.9-161C1566.4,914.3,1567.1,909.6,1571,909.5z"/>
				</g>
				<g class="st8">
					<path class="st9" d="M1367.3,1427.1l-13.1-367l-3.9-0.9c6.9,149.5,17,368.4,17,368.4L1367.3,1427.1z"/>
					<path class="st10" d="M1338.6,911.4l-34.5,9.7c0,0-2.9,0.7-3.8,4.2c-0.9,3.4-46.8,110.8-47.9,114.6c-1.1,3.8,1.9,7.8,8.2,9.7
						c6.3,1.9,94.1,25.8,94.1,25.8S1341.2,948.5,1338.6,911.4z"/>
				</g>
				<g class="st8">
					<path class="st11" d="M1620.3,635.2c1.2,0.2,2.4,0.4,3.7,0.6l0,0l0,0c22.2,4.8,39,24.5,39.3,48.2c0.3,27.5-21.7,50.1-49.3,50.5
						c-27.5,0.3-50.1-21.7-50.5-49.3c-0.2-16,7.2-30.4,18.8-39.6c-1.4,14.7,0.8,33,19.6,34.9l-0.3-28.8
						C1601.5,640.1,1612.4,634.8,1620.3,635.2z"/>
					<path class="st11" d="M1291.6,635.1c-1.2,0.2-2.5,0.4-3.7,0.6l0,0v0c-22.3,4.5-39.3,23.9-39.9,47.6
						c-0.7,27.5,21,50.4,48.6,51.2c27.5,0.7,50.4-21,51.2-48.6c0.4-16-6.8-30.4-18.2-39.9c1.2,14.7-1.3,32.9-20.1,34.6l0.7-28.8
						C1310.4,640.3,1299.6,634.9,1291.6,635.1z"/>
				</g>
				<path class="st12" d="M1455.7,885c-93.1,0-170.8-114.9-170.8-205.6V558.8c0-93.9,76.9-170.8,170.8-170.8h0
					c93.9,0,170.8,76.9,170.8,170.8v118C1626.4,776.2,1558.7,885,1455.7,885z"/>
				<g class="st8">
					<path class="st13" d="M1491.5,751.5c0,19.8-16.1,35.9-35.9,35.9c-19.8,0-35.9-16.1-35.9-35.9c0-3.6,3-6.6,6.6-6.6h58.6
						C1488.6,744.9,1491.5,747.8,1491.5,751.5z"/>
					<path class="st14" d="M1430,744.9h51.3v6.1c0,3.2-2.6,5.8-5.7,5.8h-39.8c-3.2,0-5.8-2.6-5.8-5.8V744.9z"/>
					<path class="st15" d="M1481.7,776.2c-6.5,6.9-15.8,11.2-26,11.2c-10.2,0-19.5-4.3-26-11.2c6.5-6.9,15.8-11.2,26-11.2
						C1465.9,765.1,1475.1,769.3,1481.7,776.2z"/>
				</g>
				<path class="st1" d="M1284.9,674.6l16.5-66.8c0,0,53.2-39,34.3-93.3c-18.9-54.3-22.6-48.9-22.6-48.9s-70.8,31.9-39.3,175.8
					L1284.9,674.6z"/>
				<path class="st1" d="M1626.4,674.6l-16.5-66.8c0,0-53.2-39-34.3-93.3c18.9-54.3,22.6-48.9,22.6-48.9s70.8,31.9,39.3,175.8
					L1626.4,674.6z"/>
				<path class="st16" d="M1588.3,708.6c-0.4,1.4-1.9,2.2-3.2,1.7c-1.4-0.4-2.2-1.9-1.7-3.2c0-0.2,13.1-44.5,35.6-62.9l1.4,5.5
					C1600.4,667.5,1588.3,708.4,1588.3,708.6z"/>
				<path class="st16" d="M1581.9,811.3c-1.4,0.2-2.7-0.9-2.9-2.3c-0.2-1.4,0.9-2.7,2.3-2.9l0.9-0.1c15.5-1.9,28.2-16.2,36.7-33.5
					c6.6-13.4,10.6-28.4,11.6-41.1c1.8-0.7,3.6-1.4,5.3-2.3c-0.6,13.9-5,30.9-12.3,45.7c-9.2,18.7-23.2,34.2-40.7,36.3L1581.9,811.3
					z"/>
				<path class="st16" d="M1323,708.6c0.4,1.4,1.9,2.2,3.2,1.7c1.4-0.4,2.2-1.9,1.7-3.2c0-0.2-13.1-44.5-35.6-62.9l-1.4,5.5
					C1310.9,667.5,1323,708.4,1323,708.6z"/>
				<path class="st16" d="M1329.3,811.3c1.4,0.2,2.7-0.9,2.9-2.3c0.2-1.4-0.9-2.7-2.3-2.9l-0.9-0.1c-15.5-1.9-28.2-16.2-36.7-33.5
					c-6.6-13.4-10.6-28.4-11.6-41.1c-1.8-0.7-3.6-1.4-5.3-2.3c0.6,13.9,5,30.9,12.3,45.7c9.2,18.7,23.2,34.2,40.7,36.3L1329.3,811.3
					z"/>
				<g class="st8">
					<path class="st14" d="M1455.6,688.7l133,7.1c0,0,5.3,1.5,5.2,6.4c-0.2,4.9-4.8,99.1-4.8,99.1s-0.2,8.5-5.5,15.8
						c-5.3,7.3-47.1,76.3-127.9,76.3c-80.7,0-122.6-69-127.9-76.3c-5.3-7.3-5.5-15.8-5.5-15.8s-4.7-94.3-4.8-99.1
						c-0.2-4.9,5.2-6.4,5.2-6.4L1455.6,688.7z"/>
					<path class="st17" d="M1455.7,699l-127.8,6.8c1.1,31.7,3.3,63.5,4.7,95.1c0.2,3.4,1.6,7.6,3.6,10.3c3.6,5,6.7,9.8,10.6,14.6
						c7,8.9,14.8,17.1,23.4,24.5c24.4,20.9,53.2,33,85.6,33c32.4,0,61.2-12.1,85.6-33c8.6-7.3,16.4-15.6,23.4-24.5
						c3.8-4.8,7-9.7,10.6-14.6c2-2.7,3.4-6.9,3.6-10.3c1.4-31.7,3.6-63.5,4.7-95.1L1455.7,699z"/>
					<path class="st18" d="M1329.7,746.9c0.7,12.4,1.4,24.8,2,37.1l117.9-45.5L1329.7,746.9L1329.7,746.9z M1332.3,796.7l0.2,4.2
						c0.2,3.4,1.6,7.6,3.6,10.3c3.6,5,6.7,9.8,10.6,14.6c7,8.9,14.8,17.1,23.4,24.5c24.4,20.9,53.2,33,85.6,33
						c32.4,0,61.2-12.1,85.6-33c8.6-7.3,16.4-15.6,23.4-24.5c3.8-4.8,7-9.7,10.6-14.6c0.5-0.7,1-1.6,1.5-2.5
						c0,0-20.7,22.4-92.7,22.4C1412,831.1,1332.3,796.7,1332.3,796.7L1332.3,796.7z M1579.2,792.1c0.4-9.1,0.9-18.1,1.4-27.2
						l-87.9-6.1L1579.2,792.1z"/>
				</g>
				<path class="st1" d="M1332.4,531.7c0,0,91.4,75.3,239.6-0.7c0,0,38-46.3,61.8-23.5c0,0,9.4-127.8-82.5-129.1
					c0,0,16.6-17.9,11.8-32.4c-4.7-14.5-43.5-49.4-125.2,2.3c0,0-6.1-37.7-36.7-38.9C1342,307,1204.6,442.8,1332.4,531.7z"/>
				<path class="st2" d="M1815.2,1473.6c1.1-4.3,1.8-7.6,2.1-9.7c2.8-19.3-29.3-89.5-60-146.5c-4.2-7.7-13.7,127.5-17.5,120.6
					c1.5-18.5,2.5-177.3,2.7-178.1c1.1-5.2,75.7,146.3,80,158.2C1826.9,1429.9,1815.2,1473.6,1815.2,1473.6L1815.2,1473.6z"/>
			</g>
			<g>
				<rect x="1241.8" y="500.6" class="st19" width="17.4" height="361.3"/>
				<rect x="1651.2" y="500.6" class="st19" width="17.4" height="361.3"/>
				
					<rect x="1446.5" y="271.1" transform="matrix(-1.836970e-16 1 -1 -1.836970e-16 1908.0984 -1002.2823)" class="st19" width="17.5" height="363.7"/>
				
					<rect x="1446.5" y="729" transform="matrix(-1.836970e-16 1 -1 -1.836970e-16 2366.0173 -544.3635)" class="st19" width="17.5" height="363.7"/>
				<g>
					<polygon class="st20" points="1267.6,514.4 1234.2,514.4 1234.2,436.2 1331.3,436.2 1331.3,469.6 1267.6,469.6 					"/>
					<polygon class="st20" points="1676.3,514.4 1642.9,514.4 1642.9,469.6 1579.2,469.6 1579.2,436.2 1676.3,436.2 					"/>
					<polygon class="st20" points="1676.3,927.1 1579.2,927.1 1579.2,893.7 1642.9,893.7 1642.9,848.9 1676.3,848.9 					"/>
					<polygon class="st20" points="1331.3,927.1 1234.2,927.1 1234.2,848.9 1267.6,848.9 1267.6,893.7 1331.3,893.7 					"/>
				</g>
			</g>
			<g>
				<polygon class="st21" points="1352.8,681 1322.8,681 1310.1,681 1310.1,693.7 1310.1,713.8 1322.8,713.8 1322.8,693.7 
					1352.8,693.7 				"/>
				<polygon class="st21" points="1559,681 1589,681 1601.6,681 1601.6,693.7 1601.6,713.8 1589,713.8 1589,693.7 1559,693.7 				
					"/>
				<polygon class="st21" points="1352.8,857.8 1322.8,857.8 1310.1,857.8 1310.1,845.1 1310.1,825 1322.8,825 1322.8,845.1 
					1352.8,845.1 				"/>
				<polygon class="st21" points="1559,857.8 1589,857.8 1601.6,857.8 1601.6,845.1 1601.6,825 1589,825 1589,845.1 1559,845.1 				
					"/>
			</g>
		</g>
		<g>
			<path class="st22" d="M772.9,617.6H339.2c-7.8,0-14.2-6.4-14.2-14.2V427.8c0-7.8,6.4-14.2,14.2-14.2h433.7
				c7.8,0,14.2,6.4,14.2,14.2v175.7C787.1,611.2,780.7,617.6,772.9,617.6z"/>
			<text transform="matrix(1 0 0 1 442.7267 545.792)" class="st23 st24 st25">地  點</text>
		</g>
		<g>
			<path class="st22" d="M772.9,913.6H339.2c-7.8,0-14.2-6.4-14.2-14.2V723.8c0-7.8,6.4-14.2,14.2-14.2h433.7
				c7.8,0,14.2,6.4,14.2,14.2v175.7C787.1,907.2,780.7,913.6,772.9,913.6z"/>
			<text transform="matrix(1 0 0 1 442.7267 841.792)" class="st23 st24 st25">體  溫</text>
		</g>
		<g>
			<path class="st22" d="M772.9,1205.6H339.2c-7.8,0-14.2-6.4-14.2-14.2v-175.7c0-7.8,6.4-14.2,14.2-14.2h433.7
				c7.8,0,14.2,6.4,14.2,14.2v175.7C787.1,1199.2,780.7,1205.6,772.9,1205.6z"/>
			<text transform="matrix(1 0 0 1 442.7267 1133.792)" class="st23 st24 st25">口  罩</text>
		</g>
		<g>
			<g>
				<line class="st26" x1="1661.1" y1="444.1" x2="1666" y2="443.2"/>
				<line class="st27" x1="1675.6" y1="441.4" x2="2015.9" y2="378.4"/>
				<line class="st26" x1="2020.7" y1="377.5" x2="2025.6" y2="376.6"/>
			</g>
		</g>
		<g>
			<line class="st28" x1="1445.1" y1="624.1" x2="2019.6" y2="642.1"/>
			<g>
				<line class="st26" x1="1445.1" y1="624.1" x2="1450.1" y2="624.3"/>
				<line class="st29" x1="1460" y1="624.6" x2="2009.6" y2="641.8"/>
				<line class="st26" x1="2014.6" y1="641.9" x2="2019.6" y2="642.1"/>
			</g>
		</g>
		<g>
			<g>
				<line class="st26" x1="2011" y1="925" x2="2006.1" y2="924.2"/>
				<line class="st30" x1="1996.2" y1="922.5" x2="1606" y2="857.3"/>
				<line class="st26" x1="1601" y1="856.4" x2="1596.1" y2="855.6"/>
			</g>
		</g>
		<text transform="matrix(1 0 0 1 2085.0088 391)" class="st31 st24 st32">謝 查 理（5樓）</text>
		<g>
			<circle class="st33" cx="2565.3" cy="365.6" r="48.4"/>
			<g>
				<path class="st23" d="M2566.5,376.4c2.1,2.1,2.1,5.8,0,7.9l-4.4,4.4c-2.1,2.1-5.8,2.1-7.9,0l-19.4-19.5c-2.1-2.1-2.1-5.8,0-7.9
					l4.4-4.4c2.1-2.1,5.8-2.1,7.9,0L2566.5,376.4z"/>
				<path class="st23" d="M2583.4,342.7c2.1-2.1,5.8-2.1,7.9,0l4.4,4.4c2.1,2.1,2.1,5.8,0,7.9l-33.6,33.4c-2.1,2.1-5.8,2.1-7.9,0
					l-4.4-4.4c-2.1-2.1-2.1-5.8,0-7.9L2583.4,342.7z"/>
			</g>
		</g>
		<text transform="matrix(1 0 0 1 2085.0088 948.9721)" class="st31 st24 st32">口 罩（有）</text>
		<g>
			<circle class="st33" cx="2456.3" cy="923.6" r="48.4"/>
			<g>
				<path class="st23" d="M2457.5,934.4c2.1,2.1,2.1,5.8,0,7.9l-4.4,4.4c-2.1,2.1-5.8,2.1-7.9,0l-19.4-19.5c-2.1-2.1-2.1-5.8,0-7.9
					l4.4-4.4c2.1-2.1,5.8-2.1,7.9,0L2457.5,934.4z"/>
				<path class="st23" d="M2474.4,900.7c2.1-2.1,5.8-2.1,7.9,0l4.4,4.4c2.1,2.1,2.1,5.8,0,7.9l-33.6,33.4c-2.1,2.1-5.8,2.1-7.9,0
					l-4.4-4.4c-2.1-2.1-2.1-5.8,0-7.9L2474.4,900.7z"/>
			</g>
		</g>
		<text transform="matrix(1 0 0 1 2085.0088 659)" class="st31 st34 st32">36.5 °</text>
		<g>
			<circle class="st33" cx="2324.8" cy="633.6" r="48.4"/>
			<g>
				<path class="st23" d="M2326.1,644.4c2.1,2.1,2.1,5.8,0,7.9l-4.4,4.4c-2.1,2.1-5.8,2.1-7.9,0l-19.4-19.5c-2.1-2.1-2.1-5.8,0-7.9
					l4.4-4.4c2.1-2.1,5.8-2.1,7.9,0L2326.1,644.4z"/>
				<path class="st23" d="M2343,610.7c2.1-2.1,5.8-2.1,7.9,0l4.4,4.4c2.1,2.1,2.1,5.8,0,7.9l-33.6,33.4c-2.1,2.1-5.8,2.1-7.9,0
					l-4.4-4.4c-2.1-2.1-2.1-5.8,0-7.9L2343,610.7z"/>
			</g>
		</g>
	</g>
</g>
<g id="圖層_3">
</g>
</svg>
