<svg xmlns="http://www.w3.org/2000/svg" width="450" height="180" xml:space="preserve">
  <style>
    .st0{fill:#f7c7c6}.st1{fill:#ffe893}.st2{fill:#8fd3f3}.st3{fill:#eb6164}.st4{fill:#ef8582}.st7{fill:#cce7f3}.st8{fill:#8bcae8}.st9{fill:#fdd762}.st10{fill:#f8b500}.st11{fill:#f7d8d7}.st12{fill:#0d74b4}.st13{fill:#fff}.st15{fill:#005fa3}.st16{fill:#3db4e8}.st17{fill:#7d7d7d}
  </style>
  <switch>
    <g>
      <path class="st0" d="M295.1 112.2h-6.9c-.4 0-.7.3-.7.6v14c0 .4.3.6.7.6h6.9c.4 0 .7-.3.7-.6v-14c0-.3-.4-.6-.7-.6z"/>
      <path class="st0" d="M289.6 126.8v-14c0-.4.3-.6.7-.6h-2.1c-.4 0-.7.3-.7.6v14c0 .4.3.6.7.6h2.1c-.4 0-.7-.3-.7-.6z"/>
      <path class="st1" d="M306.5 109h-6.9c-.4 0-.7.3-.7.6v17.1c0 .4.3.6.7.6h6.9c.4 0 .7-.3.7-.6v-17.1c0-.3-.3-.6-.7-.6z"/>
      <path class="st1" d="M301 126.8v-17.1c0-.4.3-.6.7-.6h-2.1c-.4 0-.7.3-.7.6v17.1c0 .4.3.6.7.6h2.1c-.4 0-.7-.3-.7-.6z"/>
      <path class="st2" d="M317.9 102H311c-.4 0-.7.3-.7.6v24.1c0 .4.3.6.7.6h6.9c.4 0 .7-.3.7-.6v-24.1c0-.3-.3-.6-.7-.6z"/>
      <path class="st2" d="M312.4 126.8v-24.1c0-.4.3-.6.7-.6H311c-.4 0-.7.3-.7.6v24.1c0 .4.3.6.7.6h2.1c-.4 0-.7-.3-.7-.6z"/>
      <path class="st3" d="M296.7 96.1zm0 0zm0 0z"/>
      <path class="st1" d="M304.7 100.8c.8-1.4 1.2-2.9 1.2-4.6h-9.3l8.1 4.6z"/>
      <path class="st3" d="M296.7 96.1z"/>
      <path class="st4" d="m296.7 96.1 8-4.6c-.8-1.4-2-2.6-3.4-3.4l-4.6 8z"/>
      <path class="st3" d="M296.7 96.1zm0 0z"/>
      <path class="st1" d="M296.7 96.1h9.3c0-1.7-.5-3.3-1.2-4.6l-8.1 4.6z"/>
      <path class="st2" d="m296.7 96.1-4.6 8c1.4.8 2.9 1.2 4.6 1.2v-9.2z"/>
      <path class="st1" d="M296.7 105.4c1.7 0 3.3-.5 4.6-1.2l-4.6-8v9.2z"/>
      <path class="st1" d="m304.7 100.8-8-4.6 4.6 8c1.4-.9 2.6-2 3.4-3.4z"/>
      <path class="st2" d="m296.7 96.1-8 4.6c.8 1.4 2 2.6 3.4 3.4l4.6-8z"/>
      <path class="st4" d="M301.3 88.1c-1.4-.8-2.9-1.2-4.6-1.2v9.3l4.6-8.1z"/>
      <path class="st2" d="M292.1 88.1c-1.4.8-2.6 2-3.4 3.4l8 4.6-4.6-8z"/>
      <path class="st2" d="M296.7 96.1v-9.3c-1.7 0-3.3.5-4.6 1.2l4.6 8.1zm-9.3 0c0 1.7.5 3.3 1.2 4.6l8-4.6h-9.2z"/>
      <path class="st2" d="m296.7 96.1-8-4.6c-.8 1.4-1.2 2.9-1.2 4.6h9.2z"/>
      <ellipse cx="225" cy="144.5" rx="127.3" ry="15.9" style="fill:#f9f9f9"/>
      <path d="M168.2 145.4c-2.4-.2-4.3-1.2-5.9-3.1-1.6-1.9-2.4-4-2.4-6.3V46.6c0-2.5.8-4.6 2.4-6.4 1.6-1.8 3.6-2.8 6-3 7.7-.8 15.2-1.2 22.6-1.2 28.5 0 42.8 9.2 42.8 27.6 0 6.2-2 11.5-6 15.8-4 4.3-9.3 7.1-16 8.3-.1 0-.1.1-.1.3 0 .1.1.1.3.1 7.8 1.1 13.9 4 18.5 8.9 4.6 4.8 6.9 10.6 6.9 17.3 0 10.9-3.6 19.1-10.8 24.4-7.2 5.4-18.6 8-34 8-7.9-.1-15.9-.5-24.3-1.3zm16.4-88.2v21.7c0 .8.4 1.2 1.2 1.2h3.7c14.4 0 21.5-4.3 21.5-12.8 0-8.2-6-12.2-18-12.2-2.9 0-5.3.2-7.2.6-.8.1-1.2.7-1.2 1.5zm0 42.2v26c0 .9.4 1.4 1.3 1.6 2.1.4 4.6.6 7.5.6 7 0 12.1-1.3 15.3-3.9 3.2-2.6 4.9-6.6 4.9-12 0-9-7.4-13.6-22.1-13.6h-5.8c-.7 0-1.1.4-1.1 1.3zm86.3 45.8c-2.3 0-4.2-.8-5.8-2.5-1.6-1.7-2.4-3.6-2.4-5.9V45.9c0-2.3.8-4.2 2.4-5.9 1.6-1.7 3.6-2.5 5.8-2.5h10.9c2.3 0 4.2.8 5.8 2.5 1.6 1.7 2.4 3.6 2.4 5.9v90.9c0 2.3-.8 4.2-2.4 5.9-1.6 1.7-3.6 2.5-5.8 2.5h-10.9z" style="fill:#22ac38"/>
      <path class="st7" d="m128.3 135.6-.4-.2c-1.1-.5-1.6-1.9-1.1-3l2-4.3c.5-1.1 1.9-1.6 3-1.1l.4.2c1.1.5 1.6 1.9 1.1 3l-2 4.3c-.5 1.1-1.8 1.6-3 1.1z"/>
      <path class="st8" d="M129.4 136.2c-.3 0-.7-.1-1-.2l-.8-.4c-.6-.3-1-.7-1.2-1.3-.2-.6-.2-1.2.1-1.8l2.3-4.8c.3-.6.7-1 1.3-1.2.6-.2 1.2-.2 1.8.1l.8.4c.6.3 1 .7 1.2 1.3.2.6.2 1.2-.1 1.8l-2.3 4.8c-.4.8-1.2 1.3-2.1 1.3zm-.7-.8c.8.4 1.8 0 2.2-.8l2.3-4.8c.2-.4.2-.8.1-1.3-.2-.4-.5-.8-.9-.9l-.8-.4c-.4-.2-.8-.2-1.3-.1-.4.2-.8.5-.9.9l-2.3 4.8c-.2.4-.2.8-.1 1.3.2.4.5.8.9.9l.8.4z"/>
      <path class="st9" d="m127.2 131.8-1.1 2.3-.8-.4c-1-.5-2.3 0-2.8 1s0 2.3 1 2.8l3.3 1.6c1 .5 2.3 0 2.8-1l2-4.2-4.4-2.1z"/>
      <path class="st10" d="M127.8 139.6c-.3 0-.7-.1-1-.2l-3.3-1.6c-1.2-.6-1.7-2-1.2-3.2.3-.6.8-1 1.4-1.2.6-.2 1.3-.2 1.8.1l.5.2 1.1-2.3 5 2.4-2.1 4.5c-.3.6-.8 1-1.4 1.2-.3.1-.6.1-.8.1zm-3.3-5.7c-.2 0-.4 0-.6.1-.4.2-.8.5-1 .9-.4.9 0 1.9.8 2.3l3.3 1.6c.4.2.9.2 1.3.1.4-.2.8-.5 1-.9l1.8-3.9-3.8-1.8-1.1 2.3-1.1-.5c-.1-.1-.4-.2-.6-.2z"/>
      <path class="st7" d="m137.8 137.1-.3-.2c-1.1-.6-1.4-2-.8-3.1l2.4-4.1c.6-1.1 2-1.4 3.1-.8l.3.2c1.1.6 1.4 2 .8 3.1l-2.4 4.1c-.7 1-2.1 1.4-3.1.8z"/>
      <path class="st8" d="M139 137.8c-.4 0-.8-.1-1.1-.3l-.9-.5c-.5-.3-.9-.8-1.1-1.4-.2-.6-.1-1.2.2-1.8l2.6-4.6c.6-1.1 2-1.5 3.2-.9l.8.5c1.1.6 1.5 2 .9 3.2l-2.6 4.6c-.5.8-1.2 1.2-2 1.2zm1.8-9c-.6 0-1.1.3-1.4.8l-2.6 4.6c-.2.4-.3.8-.2 1.3s.4.8.8 1l.8.5c.8.5 1.8.2 2.3-.6l2.6-4.6c.5-.8.2-1.8-.6-2.3l-.8-.5c-.3-.2-.6-.2-.9-.2z"/>
      <path class="st9" d="m136.9 133.3-1.2 2.2-.7-.4c-1-.6-2.3-.2-2.8.8-.6 1-.2 2.3.8 2.8l3.2 1.8c1 .6 2.3.2 2.8-.8l2.3-4-4.4-2.4z"/>
      <path class="st10" d="M137 141.1c-.4 0-.8-.1-1.2-.3l-3.2-1.8c-1.2-.7-1.6-2.1-.9-3.3.7-1.2 2.1-1.6 3.3-.9l.4.3 1.2-2.2 4.8 2.8-2.4 4.3c-.3.7-1.1 1.1-2 1.1zm-3.1-6c-.6 0-1.2.3-1.5.9-.5.8-.2 1.9.7 2.4l3.2 1.8c.8.5 1.9.2 2.4-.7l2.1-3.7-3.7-2.1-1.2 2.2-1-.6c-.4-.1-.7-.2-1-.2z"/>
      <path class="st7" d="M145.1 133.5c8 1.6 15.9-3.6 17.5-11.6 1.5-7.5-2.9-14.8-10-17.1-1.4-3.9-4.7-7.1-9.1-7.9-6.3-1.3-12.4 2.5-14.2 8.6-6.1-.6-11.8 3.6-13.1 9.8-1.3 6.6 3 13.1 9.6 14.4l19.3 3.8z"/>
      <path class="st8" d="M148 134.1c-1 0-2-.1-3-.3l-19.3-3.9c-3.3-.7-6.1-2.6-8-5.4-1.9-2.8-2.5-6.1-1.9-9.4 1.2-6.2 6.9-10.5 13.2-10 .9-2.9 2.8-5.4 5.4-7 2.7-1.7 5.9-2.2 9-1.6 4.3.9 7.8 3.9 9.3 8 7.3 2.4 11.6 9.9 10.1 17.4-.8 4-3.1 7.4-6.5 9.6-2.4 1.8-5.3 2.6-8.3 2.6zm-19.8-28.3c-5.6 0-10.5 3.9-11.6 9.6-1.3 6.4 2.9 12.7 9.3 14l19.3 3.9c3.8.8 7.7 0 10.9-2.1s5.4-5.4 6.2-9.2c1.5-7.3-2.8-14.4-9.8-16.7h-.2l-.1-.2c-1.4-4-4.8-6.9-8.9-7.7-6-1.2-12.1 2.5-13.8 8.4l-.1.3h-.3c-.2-.3-.6-.3-.9-.3z"/>
      <path class="st7" d="m120 111.4-2.7-4.9c-.5-.9-.2-2 .7-2.5.9-.5 2-.2 2.5.7l2.7 4.9"/>
      <path class="st8" d="M120 111.7c-.1 0-.2-.1-.3-.2l-2.7-4.9c-.6-1-.2-2.3.8-2.9 1-.6 2.3-.2 2.9.8l2.7 4.9c.1.2 0 .4-.1.4-.2.1-.4 0-.4-.1l-2.7-4.9c-.4-.7-1.3-1-2-.6s-1 1.3-.6 2l2.7 4.9c.1.2 0 .4-.1.4 0 .2-.1.2-.2.2z"/>
      <path class="st7" d="m160.4 120.3 5.1-2.3c.9-.4 1.3-1.5.9-2.4-.4-.9-1.5-1.3-2.4-.9l-5.1 2.3"/>
      <path class="st8" d="M160.4 120.6c-.1 0-.2-.1-.3-.2-.1-.2 0-.4.2-.4l5.1-2.3c.4-.2.6-.5.8-.8.1-.4.1-.8 0-1.1-.3-.8-1.2-1.1-2-.7l-5.1 2.3c-.2.1-.4 0-.4-.2-.1-.2 0-.4.2-.4l5.1-2.3c1.1-.5 2.4 0 2.8 1.1.2.5.3 1.1 0 1.6-.2.5-.6 1-1.1 1.2l-5.1 2.3c-.1-.1-.2-.1-.2-.1z"/>
      <circle class="st11" cx="129.7" cy="111" r="3.8"/>
      <path class="st12" d="M134.5 113.1c-.1 0-.2 0-.2.1 0 .6.3 2.8 2.6 3.4 2.6.6 4-1.1 4.3-1.7 0-.1 0-.2-.1-.2l-6.6-1.6z"/>
      <path class="st13" d="m136.1 113.5-.3 1.2c0 .1 0 .2.1.2l2.2.5c.1 0 .2 0 .2-.1l.3-1.2-2.5-.6z"/>
      <circle class="st11" cx="147.9" cy="115.1" r="3.8"/>
      <ellipse transform="rotate(-76.054 135.112 107.072)" class="st13" cx="135.1" cy="107.1" rx="3.2" ry="2.9"/>
      <ellipse transform="rotate(-76.054 143.666 108.893)" class="st13" cx="143.7" cy="108.9" rx="3.2" ry="2.9"/>
      <ellipse transform="rotate(-76.054 135.088 107.169)" class="st12" cx="135.1" cy="107.2" rx="2" ry="1.7"/>
      <ellipse transform="rotate(-76.054 143.647 108.89)" class="st12" cx="143.7" cy="108.9" rx="2" ry="1.7"/>
      <ellipse cx="133.2" cy="144.4" rx="12.7" ry="2.3" style="fill:#e5e5e5"/>
      <path class="st7" d="M320.4 136.9s11.7-.1 13.9 3.7c1.3 2.2 1.3 6.5-5.4 7-5.7.5-5.5-2.3-4.4-3 1.5-1 5.9 1 6.7-1.5.8-2.5-2.5-2.7-10.3-2.6s-.5-3.6-.5-3.6"/>
      <path class="st8" d="M327.7 148c-3 0-3.8-1-4-1.7-.3-.8.1-1.6.7-1.9.7-.4 1.8-.4 2.9-.3 1.9.1 3.2.1 3.6-1.1.2-.6.1-1-.1-1.1-.8-1.1-4.6-1.1-9.9-1.1-2.5 0-3.7-.3-3.9-1.1-.3-1.2 2.4-2.7 3.3-3.1h.2c.5 0 11.9-.1 14.2 3.9.7 1.1 1.1 2.9.2 4.5-.6 1.2-2.1 2.6-5.9 2.9-.5 0-.9.1-1.3.1zm-1.7-3.3c-.5 0-1 .1-1.3.2-.3.2-.6.7-.4 1.2.1.4.8 1.5 4.6 1.2 2.7-.2 4.6-1.1 5.4-2.6.7-1.4.3-3-.2-3.9-2-3.5-12.6-3.5-13.6-3.5-1.5.8-3 1.9-2.9 2.4 0 .1.3.6 3.3.6 6.6-.1 9.5.1 10.5 1.3.3.4.4 1 .2 1.7-.6 1.8-2.5 1.6-4.3 1.5-.5-.1-.9-.1-1.3-.1z"/>
      <path class="st7" d="M314.1 146.9c6.9 0 12.6-6.3 12.6-14 0-7.2-4.9-13.1-11.2-13.9-1.6-2.2-4.8-4.1-8.6-4.1-4.9 0-9.3 2.8-10.6 7.1-5.2.6-9.2 7.3-9.2 13.3 0 6.3 4.6 11.5 10.3 11.5h16.7z"/>
      <path class="st8" d="M314.1 147.2h-16.7c-5.9 0-10.7-5.3-10.7-11.8 0-5.8 4-12.7 9.3-13.6 1.3-4.3 5.7-7.2 10.8-7.2 3.5 0 6.9 1.6 8.8 4.1 6.5.9 11.3 7 11.3 14.2.2 7.9-5.6 14.3-12.8 14.3zm-7.2-31.9c-4.9 0-9.1 2.8-10.2 6.9l-.1.2h-.2c-5.1.6-8.9 7.3-8.9 12.9 0 6.2 4.5 11.2 10 11.2h16.7c6.7 0 12.2-6.1 12.2-13.6 0-7-4.7-12.8-10.9-13.5h-.1l-.1-.1c-1.8-2.5-5.1-4-8.4-4z"/>
      <ellipse class="st13" cx="298.2" cy="129.5" rx="2.4" ry="2.7"/>
      <ellipse class="st13" cx="305.6" cy="129.5" rx="2.4" ry="2.7"/>
      <path class="st7" d="M297.3 123.4s-3.4-2.5-4.4-1.8c-1 .7-.7 3.9-.7 3.9"/>
      <path class="st8" d="M292.2 125.9c-.2 0-.3-.1-.3-.3 0-.3-.2-3.4.9-4.2 1.1-.8 3.9 1.2 4.8 1.8.1.1.2.3.1.4-.1.1-.3.2-.4.1-1.6-1.1-3.5-2.1-4-1.8-.6.4-.7 2.4-.6 3.6-.2.2-.4.4-.5.4z"/>
      <path class="st7" d="M313 124.9s-.5-3.4-1.6-3.6c-1.2-.2-3.3 2.2-3.3 2.2"/>
      <path class="st8" d="M313 125.2c-.2 0-.3-.1-.3-.3-.2-1.3-.7-3.2-1.4-3.3-.7-.1-2.2 1.2-3 2.1-.1.1-.3.1-.4 0-.1-.1-.1-.3 0-.4.2-.3 2.3-2.5 3.6-2.3 1.3.2 1.8 3.2 1.9 3.8-.1.2-.2.4-.4.4z"/>
      <path class="st7" d="m310.1 131.5 4.7-1"/>
      <path class="st8" d="M310.1 131.8c-.1 0-.3-.1-.3-.3 0-.2.1-.3.2-.4l4.7-1c.2 0 .3.1.4.2 0 .2-.1.3-.2.4l-4.8 1.1c.1 0 .1 0 0 0z"/>
      <path class="st7" d="m310.3 133.1 4.8.4"/>
      <path class="st8" d="M315.1 133.8s-.1 0 0 0l-4.8-.4c-.2 0-.3-.2-.3-.3 0-.2.2-.3.3-.3l4.8.4c.2 0 .3.2.3.3 0 .2-.2.3-.3.3z"/>
      <path class="st7" d="m293.7 131.3-4.7-.9"/>
      <path class="st8" d="m293.7 131.6-4.8-1c-.2 0-.3-.2-.2-.4 0-.2.2-.3.4-.2l4.7 1c.2 0 .3.2.2.4 0 .1-.1.2-.3.2z"/>
      <path class="st7" d="m293.6 133-4.8.4"/>
      <path class="st8" d="M288.8 133.7c-.2 0-.3-.1-.3-.3 0-.2.1-.3.3-.3l4.8-.4c.2 0 .3.1.3.3 0 .2-.1.3-.3.3l-4.8.4z"/>
      <path class="st7" d="M307.2 143.4s-4.4-.1-4.5 1.3c-.1 1.3 1.1 2.1 4.5 2.1"/>
      <path class="st8" d="M307.2 147.2c-2.2 0-3.7-.4-4.3-1.1-.3-.4-.5-.8-.5-1.4.1-1.7 4-1.6 4.8-1.6.2 0 .3.2.3.3 0 .2-.1.3-.3.3-1.6-.1-4.1.2-4.2 1 0 .4.1.7.3.9.5.6 1.9.9 3.9.9.2 0 .3.1.3.3s-.1.4-.3.4z"/>
      <path class="st7" d="M296.9 143.4s4.3-.1 4.4 1.3c.1 1.3-1.1 2.1-4.5 2.1"/>
      <path class="st8" d="M296.9 147.1c-.2 0-.3-.1-.3-.3s.1-.3.3-.3c2 0 3.4-.3 3.9-.8.2-.2.3-.5.3-.9 0-.8-2.5-1.1-4.1-1-.2 0-.3-.1-.3-.3 0-.2.1-.3.3-.3.8 0 4.7-.1 4.8 1.6 0 .6-.1 1-.5 1.4-.7.6-2.1.9-4.4.9z"/>
      <path class="st15" d="M301 134.7c-.9 0-1.3-.7-1.4-1.1-.1-.2 0-.3.2-.4.2-.1.3 0 .4.2 0 0 .2.6.8.6.6 0 .7-.5.7-.6 0-.2.2-.3.4-.2.2 0 .3.2.2.4 0 .4-.4 1.1-1.3 1.1z"/>
      <path class="st15" d="M303.1 134.7c-.9 0-1.3-.7-1.4-1.1-.1-.2 0-.3.2-.4.2-.1.3 0 .4.2 0 0 .2.6.8.6.6 0 .7-.5.7-.6 0-.2.2-.3.4-.2.2 0 .3.2.2.4 0 .4-.4 1.1-1.3 1.1z"/>
      <path class="st4" d="m299.9 128.9-1.6-1.5c-.1-.1-.2-.1-.2 0l-1.6 1.5c-.1.1 0 .3.1.3h.7v2.1c0 .1.1.2.2.2h1.4c.1 0 .2-.1.2-.2v-2.1h.7c.1 0 .2-.2.1-.3zm7.4 0-1.6-1.5c-.1-.1-.2-.1-.2 0l-1.6 1.5c-.1.1 0 .3.1.3h.7v2.1c0 .1.1.2.2.2h1.4c.1 0 .2-.1.2-.2v-2.1h.7c.1 0 .2-.2.1-.3z"/>
      <path class="st15" d="M303.3 134.4h-.6l-.6-.2-.6.2h-.6s-.3 2.1 1.2 2.1 1.2-2.1 1.2-2.1z"/>
      <path class="st4" d="M136.8 58.8h-17c-1.7 0-3 1.4-3 3v17c0 1.7 1.4 3 3 3h13.1l5.9 5.9c.4.4 1 .1 1-.4V61.9c.1-1.7-1.3-3.1-3-3.1z"/>
      <path class="st3" d="m132.9 72.5-1.5-1.5 1.5-1.5c.4-.4.6-.9.6-1.4v-1.4c0-.3 0-.5-.1-.7 0-.1-.1-.2-.2-.3l-.3-.3c-.4-.4-.9-.6-1.4-.6-.5 0-1 .2-1.4.6l-2.3 2.3-2.3-2.3c-.8-.8-2-.8-2.8 0l-.3.3c-.1.1-.1.2-.2.3-.1.2-.1.5-.1.7V68c0 .5.2 1 .6 1.4l1.5 1.5-1.5 1.5c-.4.4-.6.9-.6 1.4v1.4c0 .5.2 1 .6 1.4.4.4.9.6 1.4.6.5 0 1-.2 1.4-.6l2.3-2.3 2.3 2.3c.4.4.9.6 1.4.6.5 0 1-.2 1.4-.6.4-.4.6-.9.6-1.4v-1.4c0-.4-.2-.9-.6-1.3z"/>
      <path class="st2" d="M163.1 58.8h-17c-1.7 0-3 1.4-3 3v25.5c0 .5.6.8 1 .4l5.9-5.9h13.1c1.7 0 3-1.4 3-3v-17c.1-1.6-1.3-3-3-3z"/>
      <path class="st16" d="M162.2 65.2c-.8-.8-2-.8-2.8 0l-5.9 5.9-2.5-2.5c-.8-.8-2-.8-2.8 0l-.3.3c-.1.1-.1.2-.2.3-.1.2-.1.5-.1.8v1.4c0 .5.2 1 .6 1.4l3.9 3.9c.4.4.9.6 1.4.6h.4c.4-.1.7-.3 1-.5l7.3-7.3c.4-.4.6-.9.6-1.4v-1.4c0-.6-.2-1.1-.6-1.5z"/>
      <path class="st13" d="m132.9 72.3-2.3-2.3 2.3-2.3c.8-.8.8-2 0-2.8-.4-.4-.9-.6-1.4-.6-.5 0-1 .2-1.4.6l-2.3 2.3-2.3-2.3c-.8-.8-2-.8-2.8 0-.8.8-.8 2 0 2.8L125 70l-2.3 2.3c-.4.4-.6.9-.6 1.4 0 .5.2 1 .6 1.4.4.4.9.6 1.4.6.5 0 1-.2 1.4-.6l2.3-2.3 2.3 2.3c.4.4.9.6 1.4.6.5 0 1-.2 1.4-.6.4-.4.6-.9.6-1.4 0-.6-.2-1.1-.6-1.4zm29.9-6c0-.5-.2-1-.6-1.4-.8-.8-2-.8-2.8 0l-5.9 5.9-2.5-2.5c-.8-.8-2-.8-2.8 0-.8.8-.8 2 0 2.8l3.9 3.9c.4.4.9.6 1.4.6h.4c.4-.1.7-.3 1-.5l7.3-7.3c.4-.4.6-.9.6-1.5z"/>
      <path class="st17" d="m248.4 106.8 4.5 4.5c.4.4.6 1 .6 1.6 0 1.2-1 2.2-2.2 2.2-.6 0-1.1-.2-1.6-.6l-4.5-4.5 3.2-3.2z"/>
      <path class="st2" d="m242.67 107.321 3.112-3.111 2.616 2.616-3.11 3.112z"/>
      <path d="M247.6 107.8c.7 0 1.3 0 1.9.1l-1.2-1.2-1 1c.1.1.2.1.3.1z" style="fill:#666464"/>
      <path class="st16" d="m248.4 106.8-2.6-2.6-3.1 3.1 1 1c1.2-.3 2.4-.5 3.6-.5l1.1-1z"/>
      <circle cx="236" cy="97.4" r="10.4" style="fill:#ebf6fb"/>
      <path d="M239.9 87.9c4.4 3.6 5.1 10.2 1.4 14.6-2.9 3.5-7.8 4.8-12 3 4.4 3.6 11 3 14.6-1.4 3.6-4.4 3-11-1.4-14.6-.8-.7-1.6-1.3-2.6-1.6z" style="fill:#cfebf8"/>
      <path class="st17" d="M236 85c-6.9 0-12.4 5.6-12.4 12.4s5.6 12.4 12.4 12.4 12.4-5.6 12.4-12.4S242.8 85 236 85zm0 22.8c-5.7 0-10.4-4.6-10.4-10.4 0-5.7 4.6-10.4 10.4-10.4s10.4 4.6 10.4 10.4c-.1 5.8-4.7 10.4-10.4 10.4z"/>
    </g>
  </switch>
</svg>