<svg id="圖層_1" data-name="圖層 1" xmlns="http://www.w3.org/2000/svg" viewBox="0 0 334 365.1"><defs><style>.cls-1{fill:#fff;}</style></defs><title>aboutus_2</title><g id="圖層_5" data-name="圖層 5"><path class="cls-1" d="M278.9,297.7l-33.6-33.5a5.09,5.09,0,1,0-7.2,7.2l33.6,33.5a5.07,5.07,0,0,0,7.2,0A5.16,5.16,0,0,0,278.9,297.7Z"/><path class="cls-1" d="M183,328.5a5,5,0,0,0-4-1.5l-1.6.1a37.15,37.15,0,0,1-21.2-4.6l3.3-3.3a79,79,0,0,0,51.1-23l49.3-49.3a19.14,19.14,0,0,0-9.2-32.2,18.47,18.47,0,0,0,1.8-8.1,19,19,0,0,0-5.6-13.5,18.65,18.65,0,0,0-10.3-5.3,19.19,19.19,0,0,0-4.6-19.5,18.66,18.66,0,0,0-10.3-5.3,19.86,19.86,0,0,0,1-6,19.11,19.11,0,0,0-28.2-16.8l-.5-.5a34.16,34.16,0,0,0-24.7-10.8H129.4a5.12,5.12,0,0,0-5.1,5.1v6.7a24.39,24.39,0,0,0,1.3,7.7,18.35,18.35,0,0,0-7.3-1.5A19.08,19.08,0,0,0,100.2,172,19.64,19.64,0,0,0,84,190.9a17.18,17.18,0,0,0,1,6,19.67,19.67,0,0,0-10.3,5.3,19.17,19.17,0,0,0-3.8,21.6,18.3,18.3,0,0,0-9.2,5.1,19.13,19.13,0,0,0,0,27.1l10.1,10.1L21.9,316a5.09,5.09,0,1,0,7.2,7.2l50.3-50.3a19.52,19.52,0,0,0,9.5,2.5A19.15,19.15,0,0,0,108,255.5h.8a19.12,19.12,0,0,0,19.1-19.1v-.8h.8a19.12,19.12,0,0,0,19.1-19.1v-.8h.8a19.09,19.09,0,0,0,13.5-5.6,19.29,19.29,0,0,0,1.3-25.7l33.7-33.7a8.94,8.94,0,0,1,6.3-2.6,8.6,8.6,0,0,1,6.3,2.6,8.94,8.94,0,0,1,2.6,6.3,8.6,8.6,0,0,1-2.6,6.3l-5,5-18,18a5.09,5.09,0,1,0,7.2,7.2l18-18a9,9,0,0,1,12.7,12.7l-5,5-13.1,13.1a5.09,5.09,0,1,0,7.2,7.2l13.1-13.1a8.94,8.94,0,0,1,6.3-2.6,8.6,8.6,0,0,1,6.3,2.6,8.94,8.94,0,0,1,2.6,6.3,8.6,8.6,0,0,1-2.6,6.3l-6.8,6.8-6.2,6.2a5.09,5.09,0,1,0,7.2,7.2l6.2-6.2a9,9,0,0,1,12.7,12.7L203.2,289a69,69,0,0,1-46.3,20.2,4.86,4.86,0,0,0-3.4,1.5L108,356.4a5.09,5.09,0,1,0,7.2,7.2L148.7,330a47.44,47.44,0,0,0,28.7,7.4l26.2,26.2a5.09,5.09,0,0,0,7.2-7.2ZM134.3,139.1H169a23.77,23.77,0,0,1,17.3,7.5l.2.2-30.3,30.3-13.9-13.9a26.26,26.26,0,0,0,4.9.5h.1l13.9-.1a5.1,5.1,0,1,0,0-10.2h0l-13.9.1h-.1a12.55,12.55,0,0,1-9.1-3.8,13,13,0,0,1-3.8-9.1v-1.5Zm-39,123.4a8.94,8.94,0,0,1-6.3,2.6,8.6,8.6,0,0,1-6.3-2.6L69,248.8a9,9,0,0,1,6.3-15.3,8.6,8.6,0,0,1,6.3,2.6l13.7,13.7A9,9,0,0,1,95.3,262.5Zm22.5-26.2a8.6,8.6,0,0,1-2.6,6.3,9,9,0,0,1-12.7,0L88.8,228.9,82,222.1a9,9,0,0,1,6.3-15.3,8.6,8.6,0,0,1,6.3,2.6l20.5,20.5h0A9.27,9.27,0,0,1,117.8,236.3Zm19.8-19.9a8.6,8.6,0,0,1-2.6,6.3,9,9,0,0,1-12.7,0L96.8,197.2a8.94,8.94,0,0,1-2.6-6.3,8.6,8.6,0,0,1,2.6-6.3,8.69,8.69,0,0,1,6.3-2.6,8.94,8.94,0,0,1,6.3,2.6L121,196.2l13.9,13.9h0A8.47,8.47,0,0,1,137.6,216.4Zm17.3-13.5a9,9,0,0,1-12.7,0l-25.5-25.5h0l-5-5a9,9,0,0,1,0-12.7,8.69,8.69,0,0,1,6.3-2.6,8.94,8.94,0,0,1,6.3,2.6l30.5,30.5a8.94,8.94,0,0,1,2.6,6.3A8.37,8.37,0,0,1,154.9,202.9Z"/><path class="cls-1" d="M163.4,91.7a5.7,5.7,0,0,1-5.7-5.7V5.7A5.7,5.7,0,0,1,163.4,0a5.76,5.76,0,0,1,5.7,5.7V86A5.7,5.7,0,0,1,163.4,91.7Z"/><path class="cls-1" d="M62.5,133.5a6,6,0,0,1-4.1-1.7L1.7,75.1a5.8,5.8,0,0,1,0-8.1,5.8,5.8,0,0,1,8.1,0l56.7,56.7a5.8,5.8,0,0,1,0,8.1A5.23,5.23,0,0,1,62.5,133.5Z"/><path class="cls-1" d="M264.2,133.5a6,6,0,0,1-4.1-1.7,5.8,5.8,0,0,1,0-8.1l41.5-41.5a5.73,5.73,0,0,1,8.1,8.1l-41.5,41.5A5.09,5.09,0,0,1,264.2,133.5Z"/><circle class="cls-1" cx="327.1" cy="66.1" r="6.9"/></g></svg>