<svg id="圖層_1" data-name="圖層 1" xmlns="http://www.w3.org/2000/svg" viewBox="0 0 334 329.4"><defs><style>.cls-1{fill:#fff;}</style></defs><title>aboutus_1</title><path class="cls-1" d="M134.1,143.3A14.3,14.3,0,1,1,148.4,129,14.3,14.3,0,0,1,134.1,143.3Zm0-18.5a4.2,4.2,0,1,0,4.2,4.2A4.23,4.23,0,0,0,134.1,124.8Z"/><path class="cls-1" d="M152.3,177.9a5,5,0,0,1-5-5v-3.5a7.17,7.17,0,0,0-7.2-7.2H128.2a7.17,7.17,0,0,0-7.2,7.2v3.5a5,5,0,0,1-10,0v-3.5a17.31,17.31,0,0,1,17.3-17.3H140a17.31,17.31,0,0,1,17.3,17.3v3.5A5.08,5.08,0,0,1,152.3,177.9Z"/><path class="cls-1" d="M168.6,159.7a19.2,19.2,0,1,1,19.2-19.2A19.2,19.2,0,0,1,168.6,159.7Zm0-28.3a9.1,9.1,0,1,0,9.1,9.1A9,9,0,0,0,168.6,131.4Z"/><path class="cls-1" d="M196.5,202.7a5,5,0,0,1-5-5v-5.4a13.72,13.72,0,0,0-13.7-13.7H159.6a13.72,13.72,0,0,0-13.7,13.7v5.4a5,5,0,0,1-10,0v-5.4a23.86,23.86,0,0,1,23.8-23.8h18.2a23.86,23.86,0,0,1,23.8,23.8v5.4A5.26,5.26,0,0,1,196.5,202.7Z"/><path class="cls-1" d="M202.9,143.3A14.3,14.3,0,1,1,217.2,129,14.3,14.3,0,0,1,202.9,143.3Zm0-18.5a4.2,4.2,0,1,0,4.2,4.2A4.23,4.23,0,0,0,202.9,124.8Z"/><path class="cls-1" d="M221.1,177.9a5,5,0,0,1-5-5v-3.5a7.17,7.17,0,0,0-7.2-7.2H197a7.17,7.17,0,0,0-7.2,7.2v3.5a5,5,0,1,1-10,0v-3.5a17.31,17.31,0,0,1,17.3-17.3H209a17.31,17.31,0,0,1,17.3,17.3v3.5A5.4,5.4,0,0,1,221.1,177.9Z"/><path class="cls-1" d="M169.3,67.5a5,5,0,0,1-5-5V5a5,5,0,0,1,10,0V62.5A5,5,0,0,1,169.3,67.5Z"/><path class="cls-1" d="M97,97.5A5.08,5.08,0,0,1,93.4,96L52.8,55.3a5,5,0,1,1,7.1-7.1l40.6,40.7a5,5,0,0,1,0,7.1A4.69,4.69,0,0,1,97,97.5Z"/><path class="cls-1" d="M67.1,169.7H25.7a5,5,0,1,1,0-10H67.1a5,5,0,0,1,0,10Z"/><path class="cls-1" d="M56.4,282.7a5.08,5.08,0,0,1-3.6-1.5,5,5,0,0,1,0-7.1l40.6-40.7a5,5,0,1,1,7.1,7.1L59.9,281.2A4.85,4.85,0,0,1,56.4,282.7Z"/><path class="cls-1" d="M169.3,329.4a5,5,0,0,1-5-5V266.9a5,5,0,0,1,10,0v57.5A5,5,0,0,1,169.3,329.4Z"/><path class="cls-1" d="M282.2,282.7a5.08,5.08,0,0,1-3.6-1.5L238,240.5a5,5,0,0,1,7.1-7.1l40.7,40.7a5,5,0,0,1,0,7.1A5.08,5.08,0,0,1,282.2,282.7Z"/><path class="cls-1" d="M329,169.7H271.5a5,5,0,0,1,0-10H329a5,5,0,0,1,0,10Z"/><path class="cls-1" d="M241.6,97.5A5.08,5.08,0,0,1,238,96a5,5,0,0,1,0-7.1l29.8-29.8a5,5,0,1,1,7.1,7.1L245.1,96A5,5,0,0,1,241.6,97.5Z"/><circle class="cls-1" cx="285.9" cy="47.6" r="7.3"/><circle class="cls-1" cx="7.3" cy="164.7" r="7.3"/></svg>