<svg xmlns="http://www.w3.org/2000/svg" width="610" height="343">
  <path fill="#f3c5c4" d="M514.207 160.664h-8.914a.89.89 0 0 0-.89.89v19.622c0 .492.398.89.89.89h8.914a.894.894 0 0 0 .895-.89v-19.621a.894.894 0 0 0-.895-.89"/>
  <path fill="#f3c5c4" d="M507.074 181.176v-19.621c0-.493.403-.89.895-.89h-2.676a.89.89 0 0 0-.89.89v19.62c0 .493.398.895.89.895h2.676a.897.897 0 0 1-.895-.894"/>
  <path fill="#e48582" d="M531.148 156.203h-8.914a.897.897 0 0 0-.894.895v24.078c0 .492.402.894.894.894h8.914a.893.893 0 0 0 .891-.894v-24.078a.894.894 0 0 0-.89-.895"/>
  <path fill="#e48582" d="M524.016 181.176v-24.078c0-.493.398-.895.89-.895h-2.672a.897.897 0 0 0-.894.895v24.078c0 .492.402.894.894.894h2.672a.894.894 0 0 1-.89-.894"/>
  <path fill="#df6566" d="M548.09 146.395h-8.918a.89.89 0 0 0-.89.89v33.89c0 .493.398.895.89.895h8.918c.492 0 .89-.402.89-.894v-33.89a.89.89 0 0 0-.89-.891"/>
  <path fill="#df6566" d="M540.957 181.176v-33.89a.89.89 0 0 1 .89-.891h-2.675a.89.89 0 0 0-.89.89v33.89c0 .493.398.895.89.895h2.676a.894.894 0 0 1-.891-.894m10.988-55.406a1.784 1.784 0 0 0-1.402-.434l-7.133.894a1.778 1.778 0 0 0-1.547 1.989 1.781 1.781 0 0 0 1.989 1.55l2.683-.335c-9.074 11.293-20.226 17.046-28.23 19.918-9.344 3.351-16.563 3.617-16.633 3.62a1.781 1.781 0 0 0-1.727 1.837 1.78 1.78 0 0 0 1.782 1.73h.054c.309-.012 7.75-.273 17.594-3.781 5.777-2.059 11.191-4.817 16.09-8.2a65.305 65.305 0 0 0 13.515-12.48v2.164a1.784 1.784 0 0 0 3.567 0v-7.137c0-.511-.219-.996-.602-1.335"/>
  <path fill="#fafafb" d="M593.43 237.184c0 12.359-129.078 22.379-288.305 22.379S16.82 249.542 16.82 237.183c0-12.359 129.078-22.374 288.305-22.374s288.305 10.015 288.305 22.375"/>
  <path fill="#eeb22e" d="M152.414 240.258c-9.777 0-18.89-1.653-27.344-4.953-8.453-3.301-15.949-8.13-22.488-14.47-6.535-6.343-11.687-14.5-15.453-24.476-3.766-9.976-5.645-21.172-5.645-33.593 0-12.157 1.946-23.29 5.844-33.395 3.895-10.11 9.18-18.46 15.852-25.07 6.668-6.606 14.328-11.696 22.98-15.262 8.653-3.566 17.797-5.352 27.442-5.352 13.34 0 25.625 4.032 36.851 12.09 2.902 1.98 4.36 4.891 4.36 8.72 0 2.91-.926 5.55-2.774 7.929l-4.36 4.953c-1.85 2.379-4.425 3.766-7.726 4.164h-1.387c-2.773 0-5.285-.727-7.53-2.18-5.282-3.172-10.895-4.758-16.84-4.758-10.04 0-18.462 4.262-25.258 12.782-6.81 8.523-10.208 19.918-10.208 34.191 0 14.93 3.137 26.59 9.41 34.98 6.274 8.391 14.829 12.583 25.66 12.583 7 0 13.673-2.11 20.012-6.34 2.243-1.586 4.82-2.38 7.727-2.38h.793c3.168.267 5.746 1.52 7.727 3.767l4.16 4.953c1.98 2.379 2.972 5.156 2.972 8.324 0 3.57-1.324 6.476-3.964 8.722-11.493 9.383-25.098 14.07-40.813 14.07M261.582 115.2c-1.059 0-1.586.464-1.586 1.386v37.656c0 .926.527 1.387 1.586 1.387h14.66c8.719 0 15.29-1.813 19.715-5.45 4.422-3.632 6.637-9.015 6.637-16.152 0-6.867-2.149-11.722-6.438-14.566-4.297-2.84-10.933-4.262-19.914-4.262Zm78.656 112.175a7.454 7.454 0 0 1 .793 3.371c0 1.059-.332 2.18-.992 3.371-1.32 2.246-3.238 3.367-5.746 3.367h-17.234c-3.567 0-6.907-.925-10.008-2.777-3.106-1.848-5.516-4.355-7.23-7.531l-21.594-41.617c-.532-.793-1.258-1.192-2.184-1.192h-14.461c-1.059 0-1.586.465-1.586 1.387v40.035c0 3.172-1.125 5.914-3.367 8.227-2.246 2.312-5.024 3.468-8.324 3.468H235.43c-3.172 0-5.914-1.156-8.223-3.468-2.312-2.313-3.469-5.055-3.469-8.227V98.156c0-3.172 1.157-5.914 3.469-8.226 2.309-2.309 5.05-3.47 8.223-3.47h43.785c39.36 0 59.043 15.856 59.043 47.567 0 20.348-8.258 34.684-24.766 43.008-.793.395-.992.992-.594 1.785Zm38.637 10.109c-3.172 0-5.914-1.156-8.223-3.468-2.312-2.313-3.468-5.055-3.468-8.227V98.156c0-3.172 1.156-5.914 3.468-8.226 2.309-2.309 5.051-3.47 8.223-3.47h15.848c3.433 0 6.605 1.028 9.511 3.071 2.903 2.051 4.954 4.727 6.141 8.031l20.012 54.106a866.58 866.58 0 0 1 2.578 8.324c.922 3.04 1.91 6.41 2.969 10.106 1.058 3.703 1.914 6.609 2.578 8.722.129.266.36.395.691.395.328 0 .496-.13.496-.395 1.055-3.172 2.477-7.793 4.262-13.875 1.781-6.074 3.137-10.504 4.059-13.277l19.218-54.106c1.055-3.304 3.04-5.98 5.946-8.03 2.902-2.044 6.074-3.071 9.511-3.071h16.047c3.172 0 5.91 1.16 8.223 3.469 2.308 2.312 3.469 5.054 3.469 8.226V225.79c0 3.172-1.16 5.914-3.47 8.227-2.312 2.312-5.05 3.468-8.222 3.468h-9.707c-3.172 0-5.914-1.156-8.223-3.468-2.312-2.313-3.468-5.055-3.468-8.227v-40.035c0-9.64 1.515-26.953 4.554-51.926.133-.262.067-.394-.195-.394-.265 0-.465.132-.594.394l-12.484 35.676-16.84 45.781c-1.058 2.91-2.808 5.188-5.25 6.84-2.445 1.652-5.152 2.477-8.125 2.477-2.969 0-5.68-.825-8.12-2.477-2.446-1.652-4.196-3.93-5.25-6.84L408 169.504l-12.086-35.676c-.133-.262-.332-.394-.594-.394-.27 0-.332.132-.199.394 3.035 24.973 4.555 42.285 4.555 51.926v40.035c0 3.172-1.156 5.914-3.465 8.227-2.313 2.312-5.055 3.468-8.223 3.468Zm0 0"/>
  <path fill="#b4d391" d="M215.664 211.473c5.578 0 10.098-4.524 10.098-10.102s-4.52-10.101-10.098-10.101c-5.574 0-10.098 4.523-10.098 10.101 0 5.578 4.524 10.102 10.098 10.102m4.281 1.781h-8.566c-7.129 0-12.926 5.805-12.926 12.934v10.48l.024.164.722.227c6.805 2.129 12.715 2.836 17.578 2.836 9.504 0 15.008-2.711 15.348-2.883l.676-.34h.07v-10.484c.004-7.13-5.797-12.934-12.926-12.934"/>
  <path fill="#8fccea" d="M238.734 211.457c7.676 0 13.895 6.223 13.895 13.898 0 7.676-6.219 13.899-13.895 13.899-7.675 0-13.894-6.223-13.894-13.899 0-7.675 6.219-13.898 13.894-13.898"/>
  <path fill="#fff" d="M243.184 231.195c-.473 0-.95-.16-1.344-.492l-4.45-3.754a2.089 2.089 0 0 1-.742-1.594v-7.437a2.086 2.086 0 1 1 4.172 0v6.469l3.707 3.129c1.407 1.183.66 3.68-1.343 3.68"/>
  <path fill="#b4d391" d="M44.422 185.836s-18.242-23.004-12.86-35.406c5.383-12.403 13.833-14.618 28.79-14.618 14.957 0 55.875-2.753 63.804 4.438 7.93 7.195 15.528 29.527-6.261 32.516-21.782 2.984-61.118.71-64.696.386-3.574-.328-8.777 12.684-8.777 12.684"/>
  <path fill="#f8dad9" d="M531.008 184.352s17.375-14.332 25.472-1.633c8.098 12.695 24.454 52.953-10.351 58.347-34.809 5.395-76.512 4.793-62.102-11.011 14.414-15.805 34.54-38.094 46.98-45.703"/>
  <path fill="#f3c5c4" d="M545.414 177.586s18.762 17.476 1.973 36.637c-16.785 19.16-49.04 26.195-59.41 11.504 0 0 34.144-47.856 57.437-48.141"/>
  <path fill="#cbe4f0" d="m498.945 227.191-1.906-1.902a2.474 2.474 0 0 1 0-3.488l6.719-6.73a2.47 2.47 0 0 1 3.484-.005l1.906 1.907a2.47 2.47 0 0 1 .004 3.484l-6.722 6.734a2.473 2.473 0 0 1-3.485 0"/>
  <path fill="none" stroke="#8dc4df" stroke-miterlimit="10" stroke-width=".717" d="m0 0-1.905 1.901a2.472 2.472 0 0 0 0 3.486l6.716 6.726a2.47 2.47 0 0 0 3.483.004l1.905-1.905c.96-.957.96-2.526.004-3.482L3.483 0A2.473 2.473 0 0 0 0 0Zm0 0" transform="matrix(1.00041 0 0 -1.00073 498.945 227.192)"/>
  <path fill="#f8e395" stroke="#f5d26b" stroke-miterlimit="10" stroke-width=".717" d="m-.001.001-2.82-2.826-.921.921a3.254 3.254 0 0 1-4.596 0 3.255 3.255 0 0 1 .004-4.594l4.018-4.013a3.25 3.25 0 0 1 4.592.004L5.39-5.386Zm0 0" transform="matrix(1.00041 0 0 -1.00073 498.486 220.349)"/>
  <path fill="#cbe4f0" d="m513.234 230.969-2.007-1.793a2.472 2.472 0 0 1-.196-3.48l6.336-7.098a2.472 2.472 0 0 1 3.48-.196l2.008 1.797a2.472 2.472 0 0 1 .196 3.48l-6.336 7.094a2.472 2.472 0 0 1-3.48.196"/>
  <path fill="none" stroke="#8dc4df" stroke-miterlimit="10" stroke-width=".717" d="m0 0-2.007 1.792a2.47 2.47 0 0 0-.195 3.478l6.333 7.093a2.472 2.472 0 0 0 3.48.195l2.006-1.796a2.47 2.47 0 0 0 .195-3.478L3.48.196A2.472 2.472 0 0 0-.001 0Zm0 0" transform="matrix(1.00041 0 0 -1.00073 513.234 230.97)"/>
  <path fill="#f8e395" stroke="#f5d26b" stroke-miterlimit="10" stroke-width=".717" d="m0 0-2.584-2.89-.972.871a3.252 3.252 0 0 1-4.584-.258 3.25 3.25 0 0 1 .257-4.586l4.237-3.782a3.249 3.249 0 0 1 4.584.257l4.744 5.313Zm0 0" transform="matrix(1.00041 0 0 -1.00073 512.32 224.25)"/>
  <path fill="#cbe4f0" stroke="#8dc4df" stroke-miterlimit="10" stroke-width=".65" d="M0 0c11.504-1.265 21.855 7.037 23.12 18.54 1.175 10.716-5.943 20.423-16.22 22.73-2.436 5.356-7.536 9.337-13.81 10.028-8.997.988-17.126-5.137-18.805-13.873-8.696.016-16.181-6.522-17.154-15.36-1.042-9.47 5.791-17.99 15.264-19.032Zm0 0" transform="matrix(1.00041 0 0 -1.00073 524.984 222.945)"/>
  <path fill="#cbe4f0" stroke="#8dc4df" stroke-linecap="round" stroke-linejoin="round" stroke-miterlimit="10" stroke-width=".65" d="m0 0 4.165-6.7a2.58 2.58 0 0 0-.824-3.54A2.58 2.58 0 0 0-.2-9.412l-4.162 6.698" transform="matrix(1.00041 0 0 -1.00073 495.141 199.55)"/>
  <path fill="#cbe4f0" stroke="#8dc4df" stroke-linecap="round" stroke-linejoin="round" stroke-miterlimit="10" stroke-width=".662" d="m.001.001-7.505-2.86a2.62 2.62 0 0 1-1.515-3.373A2.624 2.624 0 0 1-5.64-7.747L1.863-4.89" transform="matrix(1.00041 0 0 -1.00073 527.437 205.533)"/>
  <path fill="#f5d7d6" d="M507.879 193.258a5.351 5.351 0 1 1-10.692-.485 5.354 5.354 0 0 1 5.59-5.105 5.355 5.355 0 0 1 5.102 5.59"/>
  <path fill="#2d73ab" d="M510.156 195.68a.181.181 0 0 0-.195.218c.191.872 1.082 3.844 4.316 4.13 3.739.331 5.27-2.407 5.645-3.239a.182.182 0 0 0-.152-.254Zm0 0"/>
  <path fill="#fff" d="m512.422 195.883-.152 1.71a.26.26 0 0 0 .238.286l3.113.277a.26.26 0 0 0 .285-.238l.153-1.715Zm0 0"/>
  <path fill="#f5d7d6" d="M534.266 195.133a5.351 5.351 0 1 1-10.692-.485 5.354 5.354 0 0 1 5.59-5.105 5.355 5.355 0 0 1 5.102 5.59"/>
  <path fill="#fff" d="M513.355 186.27c-.226 2.5-2.218 4.363-4.449 4.164-2.23-.204-3.855-2.395-3.629-4.899.23-2.5 2.22-4.363 4.45-4.16 2.23.2 3.855 2.39 3.628 4.895"/>
  <path fill="#2d73ab" d="M511.648 186.254c-.14 1.562-1.304 2.734-2.601 2.617-1.293-.117-2.23-1.48-2.09-3.039.145-1.562 1.309-2.734 2.606-2.617 1.292.117 2.23 1.48 2.085 3.039"/>
  <path fill="#fff" d="M525.676 186.969c-.227 2.504-2.215 4.367-4.446 4.164-2.23-.203-3.855-2.395-3.628-4.895.226-2.504 2.218-4.367 4.449-4.164 2.23.203 3.851 2.395 3.625 4.895"/>
  <path fill="#2d73ab" d="M523.957 186.816c-.14 1.559-1.305 2.73-2.602 2.614-1.293-.118-2.23-1.48-2.085-3.04.14-1.562 1.304-2.734 2.601-2.617 1.293.118 2.23 1.48 2.086 3.043"/>
  <path fill="#6b6a6a" d="M509.414 179.598c-2.95 0-5.492 2.543-5.785 5.789-.149 1.66.289 3.281 1.234 4.558.969 1.305 2.348 2.102 3.883 2.239.16.015.317.023.477.023 2.945 0 5.488-2.543 5.78-5.789.153-1.66-.288-3.277-1.233-4.555-.97-1.308-2.348-2.101-3.883-2.242a4.846 4.846 0 0 0-.473-.023m0 .804c.133 0 .266.004.399.016 2.699.246 4.667 2.898 4.39 5.93-.258 2.875-2.45 5.054-4.98 5.054-.133 0-.27-.004-.403-.015-2.699-.246-4.668-2.899-4.39-5.926.261-2.879 2.449-5.059 4.984-5.059m12.305-.027c-2.95 0-5.492 2.543-5.785 5.79-.313 3.464 1.98 6.515 5.117 6.8.16.012.316.02.472.02 2.95 0 5.489-2.544 5.786-5.79.312-3.465-1.985-6.511-5.118-6.797a4.846 4.846 0 0 0-.472-.023m0 .805c.133 0 .265.004.398.02 2.7.241 4.664 2.894 4.39 5.925-.26 2.875-2.448 5.055-4.984 5.055-.132 0-.265-.004-.398-.016-2.703-.246-4.668-2.898-4.39-5.926.257-2.879 2.449-5.058 4.984-5.058"/>
  <path fill="#6b6a6a" d="m516.902 184.563-2.691-.122.05-1.199 2.696.117Zm0 0"/>
  <path fill="#d3d3d4" d="m524.754 217.605-21.356-.449.043-2.043 21.36.45Zm0 0"/>
  <path fill="#d3d3d4" d="m469.82 196.098 29.739.62 5.71 20.477-29.718-.632Zm0 0"/>
  <path fill="#f0efef" d="M488.996 207.031a2.614 2.614 0 0 1-5.227-.11 2.615 2.615 0 0 1 5.227.11"/>
  <path fill="#cbe4f0" stroke="#8dc4df" stroke-miterlimit="10" stroke-width=".636" d="M-.002.001s16.486.195 19.64-5.207c1.781-3.045 1.808-9.099-7.613-9.872-8.052-.66-7.728 3.2-6.209 4.173 2.167 1.382 8.294-1.405 9.41 2.147C16.343-5.206 11.67-4.937.678-5.081-10.318-5.23-.002 0-.002 0" transform="matrix(1.00041 0 0 -1.00073 106.107 227.571)"/>
  <path fill="#cbe4f0" stroke="#8dc4df" stroke-miterlimit="10" stroke-width=".67" d="M.001-.002c9.785 0 17.72 8.814 17.72 19.685 0 10.125-6.88 18.46-15.732 19.56-2.308 3.11-6.83 5.722-12.163 5.722-6.978 0-13.128-3.887-14.9-10.074-7.31-.883-12.999-10.337-12.999-18.69 0-8.946 6.529-16.203 14.588-16.203Zm0 0" transform="matrix(1.00041 0 0 -1.00073 97.315 241.63)"/>
  <path fill="#fff" d="M78.254 217.102c0 2.12-1.535 3.843-3.43 3.843-1.894 0-3.43-1.722-3.43-3.843 0-2.125 1.536-3.848 3.43-3.848 1.895 0 3.43 1.723 3.43 3.848m10.43 0c0 2.12-1.532 3.843-3.426 3.843-1.895 0-3.43-1.722-3.43-3.843 0-2.125 1.535-3.848 3.43-3.848 1.894 0 3.426 1.723 3.426 3.848"/>
  <path fill="#cbe4f0" stroke="#8dc4df" stroke-linecap="round" stroke-linejoin="round" stroke-miterlimit="10" stroke-width=".636" d="M0 .001s-4.845 3.478-6.188 2.49c-1.34-.983-1.031-5.464-1.031-5.464" transform="matrix(1.00041 0 0 -1.00073 73.515 208.583)"/>
  <path fill="#cbe4f0" stroke="#8dc4df" stroke-linecap="round" stroke-linejoin="round" stroke-miterlimit="10" stroke-width=".636" d="M-.002-.002S-.669 4.753-2.309 5.03c-1.64.277-4.643-3.064-4.643-3.064" transform="matrix(1.00041 0 0 -1.00073 95.638 210.67)"/>
  <path fill="#cbe4f0" stroke="#8dc4df" stroke-linecap="round" stroke-linejoin="round" stroke-miterlimit="10" stroke-width=".636" d="m.001 0 6.642 1.346" transform="matrix(1.00041 0 0 -1.00073 91.66 219.89)"/>
  <path fill="#cbe4f0" stroke="#8dc4df" stroke-linecap="round" stroke-linejoin="round" stroke-miterlimit="10" stroke-width=".636" d="m0 0 6.755-.551" transform="matrix(1.00041 0 0 -1.00073 91.852 222.202)"/>
  <path fill="#cbe4f0" stroke="#8dc4df" stroke-linecap="round" stroke-linejoin="round" stroke-miterlimit="10" stroke-width=".636" d="m-.002-.002-6.642 1.35" transform="matrix(1.00041 0 0 -1.00073 68.513 219.717)"/>
  <path fill="#cbe4f0" stroke="#8dc4df" stroke-linecap="round" stroke-linejoin="round" stroke-miterlimit="10" stroke-width=".636" d="m0 .002-6.756-.554" transform="matrix(1.00041 0 0 -1.00073 68.321 222.03)"/>
  <path fill="#cbe4f0" stroke="#8dc4df" stroke-linecap="round" stroke-miterlimit="10" stroke-width=".636" d="M0-.001s-6.168.207-6.317-1.811C-6.45-3.627-4.81-4.83.017-4.83" transform="matrix(1.00041 0 0 -1.00073 87.57 236.8)"/>
  <path fill="#cbe4f0" stroke="#8dc4df" stroke-linecap="round" stroke-miterlimit="10" stroke-width=".636" d="M-.001.002S6.117.2 6.246-1.868C6.363-3.74 4.74-4.81-.084-4.81" transform="matrix(1.00041 0 0 -1.00073 73.048 236.744)"/>
  <path fill="none" stroke="#25619c" stroke-linecap="round" stroke-linejoin="round" stroke-miterlimit="10" stroke-width=".636" d="M-.002 0S.37-1.21 1.583-1.21C2.798-1.21 3.052 0 3.052 0" transform="matrix(1.00041 0 0 -1.00073 77.193 222.786)"/>
  <path fill="none" stroke="#25619c" stroke-linecap="round" stroke-linejoin="round" stroke-miterlimit="10" stroke-width=".636" d="M-.001 0s.37-1.21 1.581-1.21C2.798-1.21 3.052 0 3.052 0" transform="matrix(1.00041 0 0 -1.00073 80.158 222.786)"/>
  <path fill="#f8e395" d="M75.402 218.293c0-.203-.054-.363-.168-.484-.113-.121-.304-.23-.574-.332a6.188 6.188 0 0 1-.7-.305 2.049 2.049 0 0 1-.503-.348 1.366 1.366 0 0 1-.328-.457 1.545 1.545 0 0 1-.117-.629c0-.422.133-.765.398-1.031.27-.27.625-.426 1.07-.469v-.797h.594v.809c.442.059.785.242 1.031.547.25.305.372.7.372 1.183h-1.075c0-.3-.058-.523-.183-.667a.602.602 0 0 0-.492-.223c-.204 0-.364.058-.473.172-.113.117-.168.273-.168.48 0 .188.055.34.164.453.11.114.313.23.61.348.292.121.538.234.73.34.191.105.351.222.48.355.133.133.235.285.305.453.066.172.102.371.102.594 0 .422-.13.766-.391 1.028-.266.265-.629.417-1.09.464v.743h-.59v-.739c-.508-.054-.902-.234-1.18-.539-.28-.308-.421-.715-.421-1.222h1.078c0 .292.07.52.207.68.14.155.344.234.605.234.22 0 .39-.059.516-.172a.601.601 0 0 0 .191-.469m10.473 0c0-.203-.055-.363-.168-.484-.113-.121-.309-.23-.578-.332a6.517 6.517 0 0 1-.7-.305 2.209 2.209 0 0 1-.503-.348 1.366 1.366 0 0 1-.328-.457 1.545 1.545 0 0 1-.118-.629c0-.422.137-.765.403-1.031.27-.27.625-.426 1.07-.469v-.797h.594v.809c.441.059.781.242 1.031.547.246.305.371.7.371 1.183h-1.074c0-.3-.063-.523-.184-.667a.615.615 0 0 0-.496-.223c-.203 0-.36.058-.468.172-.114.117-.168.273-.168.48 0 .188.054.34.164.453.105.114.308.23.605.348.297.121.543.234.73.34.192.105.356.222.485.355.133.133.234.285.305.453.066.172.101.371.101.594 0 .422-.133.766-.394 1.028-.262.265-.625.417-1.086.464v.743h-.59v-.739c-.512-.054-.902-.234-1.184-.539-.277-.308-.418-.715-.418-1.222h1.075c0 .292.07.52.21.68.141.155.344.234.606.234.219 0 .39-.059.516-.172a.601.601 0 0 0 .191-.469"/>
  <path fill="#25619c" d="M82.02 224.059h-.86l-.855-.293-.86.293h-.855s-.43 2.918 1.715 2.918c2.144 0 1.715-2.918 1.715-2.918"/>
  <path fill="#fcefc1" d="M65.395 152.45a.907.907 0 0 0-.79-.63l-4.968-.453-1.965-4.601a.923.923 0 0 0-.844-.555.913.913 0 0 0-.84.555l-1.965 4.601-4.972.453a.915.915 0 0 0-.52 1.602l3.758 3.297-1.11 4.879a.914.914 0 0 0 1.364.988l4.285-2.563 4.285 2.563a.903.903 0 0 0 1.008-.043.914.914 0 0 0 .356-.945l-1.11-4.88 3.758-3.296a.915.915 0 0 0 .27-.973m25.269.001a.907.907 0 0 0-.789-.63l-4.973-.453-1.965-4.601a.913.913 0 0 0-.84-.555.918.918 0 0 0-.843.555l-1.965 4.601-4.973.453a.906.906 0 0 0-.785.63.92.92 0 0 0 .266.972l3.758 3.297-1.106 4.879a.907.907 0 0 0 .356.945.905.905 0 0 0 1.004.043l4.289-2.563 4.285 2.563a.903.903 0 0 0 1.008-.043.921.921 0 0 0 .355-.945l-1.11-4.88 3.759-3.296a.915.915 0 0 0 .27-.973m23.975.001a.907.907 0 0 0-.788-.63l-4.97-.453-1.964-4.601a.919.919 0 0 0-.844-.555.913.913 0 0 0-.84.555l-1.964 4.601-4.973.453a.915.915 0 0 0-.52 1.602l3.758 3.297-1.11 4.879a.914.914 0 0 0 .895 1.12.89.89 0 0 0 .47-.132l4.284-2.563 4.29 2.563a.897.897 0 0 0 1.003-.043.914.914 0 0 0 .356-.945l-1.106-4.88 3.758-3.296a.92.92 0 0 0 .266-.973m268.589 29.344c0-4.77-3.859-8.633-8.625-8.633h-54.851c-4.762 0-8.625 3.863-8.625 8.633v17.45c0 4.765 3.863 8.628 8.625 8.628h10.226v10.535l14.149-10.535h30.476a8.626 8.626 0 0 0 8.625-8.629Zm0 0"/>
  <path fill="#fff" d="M330.238 189.777a3.87 3.87 0 0 1-3.867 3.871 3.87 3.87 0 0 1 0-7.738 3.866 3.866 0 0 1 3.867 3.867m20.367 0a3.87 3.87 0 0 1-3.867 3.871 3.868 3.868 0 0 1 0-7.738 3.866 3.866 0 0 1 3.867 3.867m19.274 0a3.87 3.87 0 0 1-3.867 3.871 3.868 3.868 0 0 1 0-7.738 3.866 3.866 0 0 1 3.867 3.867"/>
</svg>