<svg xmlns="http://www.w3.org/2000/svg" width="610" height="343">
  <path fill="#f3c5c4" d="M404.27 191.383h-9.7c-.535 0-.968.402-.968.898v19.758c0 .496.433.899.968.899h9.7c.535 0 .968-.403.968-.899v-19.758c0-.496-.433-.898-.968-.898"/>
  <path fill="#f3c5c4" d="M396.512 212.04v-19.76c0-.496.433-.898.968-.898h-2.91c-.535 0-.968.402-.968.898v19.758c0 .496.433.899.968.899h2.91c-.535 0-.968-.403-.968-.899"/>
  <path fill="#f8e395" d="M420.438 186.895h-9.7c-.535 0-.968.402-.968.898v24.246c0 .496.433.899.968.899h9.7c.535 0 .968-.403.968-.899v-24.246c0-.496-.433-.898-.969-.898"/>
  <path fill="#f8e395" d="M412.68 212.04v-24.247c0-.496.433-.898.968-.898h-2.91c-.535 0-.968.402-.968.898v24.246c0 .496.433.899.968.899h2.91c-.535 0-.968-.403-.968-.899"/>
  <path fill="#8fccea" d="M436.605 177.016h-9.699c-.535 0-.969.402-.969.898v34.125c0 .496.434.899.97.899h9.698c.536 0 .973-.403.973-.899v-34.125c0-.496-.437-.898-.973-.898"/>
  <path fill="#8fccea" d="M428.848 212.04v-34.126c0-.496.433-.898.968-.898h-2.91c-.535 0-.969.402-.969.898v34.125c0 .496.434.899.97.899h2.91c-.536 0-.97-.403-.97-.899"/>
  <path fill="#f8e395" d="M417.934 175.207a13.08 13.08 0 0 0 1.765-6.566h-13.133Zm0 0"/>
  <path fill="#e48582" d="m406.566 168.64 11.368-6.562a13.25 13.25 0 0 0-4.805-4.808Zm0 0"/>
  <path fill="#f8e395" d="M406.566 168.64H419.7c0-2.394-.648-4.628-1.765-6.562Zm0 0"/>
  <path fill="#8fccea" d="m406.566 168.64-6.562 11.372a13.057 13.057 0 0 0 6.562 1.77Zm0 0"/>
  <path fill="#f8e395" d="M406.566 181.781c2.391 0 4.63-.652 6.563-1.77l-6.563-11.37Zm11.368-6.574-11.368-6.566 6.563 11.37a13.21 13.21 0 0 0 4.805-4.804"/>
  <path fill="#8fccea" d="m406.566 168.64-11.367 6.567a13.18 13.18 0 0 0 4.805 4.805Zm0 0"/>
  <path fill="#e48582" d="M413.129 157.273a13.029 13.029 0 0 0-6.563-1.77v13.138Zm0 0"/>
  <path fill="#8fccea" d="M400.004 157.273a13.15 13.15 0 0 0-4.805 4.805l11.367 6.563Zm6.562 11.367v-13.136c-2.394 0-4.632.648-6.562 1.766Zm-13.136 0c0 2.395.652 4.633 1.77 6.567l11.366-6.566Zm0 0"/>
  <path fill="#8fccea" d="m406.566 168.64-11.367-6.562a13.068 13.068 0 0 0-1.77 6.563Zm0 0"/>
  <path fill="#fafafb" d="M485.27 237.172c0 12.445-80.653 22.531-180.145 22.531S124.98 249.617 124.98 237.172c0-12.445 80.653-22.535 180.145-22.535s180.145 10.09 180.145 22.535"/>
  <path fill="#3aa643" d="M247.941 173.32v36.743c0 1.253.625 2.019 1.875 2.296 2.926.559 6.473.836 10.645.836 9.879 0 17.117-1.843 21.707-5.535 4.59-3.683 6.887-9.355 6.887-17.012 0-12.804-10.434-19.207-31.305-19.207h-8.14c-1.114 0-1.669.625-1.669 1.88m0-59.712v30.692c0 1.113.555 1.668 1.668 1.668h5.22c20.312 0 30.468-6.055 30.468-18.16 0-11.555-8.488-17.332-25.461-17.332-4.04 0-7.445.28-10.227.835-1.113.282-1.668 1.047-1.668 2.297m-23.168 124.848c-3.34-.281-6.125-1.738-8.347-4.387-2.227-2.64-3.34-5.636-3.34-8.976V98.578c0-3.476 1.148-6.504 3.445-9.082 2.293-2.574 5.114-4 8.45-4.277 10.855-1.114 21.5-1.672 31.933-1.672 40.348 0 60.524 13.016 60.524 39.039 0 8.77-2.817 16.219-8.454 22.34-5.632 6.129-13.183 10.023-22.64 11.691-.14 0-.211.14-.211.418 0 .14.137.207.418.207 10.988 1.535 19.722 5.711 26.191 12.528 6.469 6.82 9.707 14.964 9.707 24.425 0 15.45-5.113 26.97-15.34 34.555-10.226 7.586-26.265 11.375-48.109 11.375-10.992 0-22.402-.559-34.227-1.668m145.258-.417c-3.203 0-5.945-1.18-8.242-3.552-2.297-2.363-3.445-5.144-3.445-8.351V97.535c0-3.2 1.148-5.984 3.445-8.351 2.297-2.368 5.04-3.551 8.242-3.551h15.446c3.199 0 5.949 1.183 8.242 3.55 2.297 2.368 3.445 5.153 3.445 8.352v128.602c0 3.207-1.148 5.988-3.445 8.351-2.293 2.371-5.043 3.551-8.242 3.551Zm0 0"/>
  <path fill="#cbe4f0" d="m168.477 224.547-.72-.34a3.075 3.075 0 0 1-1.472-4.078l2.977-6.332a3.074 3.074 0 0 1 4.078-1.469l.722.34a3.077 3.077 0 0 1 1.47 4.078l-2.977 6.332a3.073 3.073 0 0 1-4.078 1.469"/>
  <path fill="#8dc4df" d="M168.906 224.238a2.348 2.348 0 0 0 3.125-1.125l3.192-6.797a2.34 2.34 0 0 0 .082-1.793 2.343 2.343 0 0 0-1.207-1.332l-1.184-.554a2.331 2.331 0 0 0-1.797-.082c-.594.21-1.066.64-1.332 1.207l-3.191 6.797a2.338 2.338 0 0 0-.082 1.793 2.337 2.337 0 0 0 1.21 1.332Zm.992 1.145a3.28 3.28 0 0 1-1.382-.309l-1.188-.558a3.252 3.252 0 0 1-1.68-1.852 3.246 3.246 0 0 1 .114-2.5l3.191-6.793a3.246 3.246 0 0 1 1.852-1.684 3.236 3.236 0 0 1 2.496.118l1.187.554a3.252 3.252 0 0 1 1.68 1.852c.297.824.258 1.71-.113 2.5l-3.192 6.793a3.271 3.271 0 0 1-2.965 1.879"/>
  <path fill="#f5d26b" d="m166.727 219.188-1.543 3.285-1.075-.504a2.949 2.949 0 0 0-3.925 1.418 2.954 2.954 0 0 0 1.414 3.925l4.672 2.2a2.961 2.961 0 0 0 3.93-1.418l2.796-5.957Zm0 0"/>
  <path fill="#eeb22e" d="M162.86 222.148c-.286 0-.575.047-.848.149a2.488 2.488 0 0 0-1.414 1.285 2.5 2.5 0 0 0 1.195 3.316l4.676 2.196a2.472 2.472 0 0 0 1.902.086 2.474 2.474 0 0 0 1.41-1.282l2.606-5.543-5.438-2.554-1.543 3.285-1.492-.703a2.498 2.498 0 0 0-1.055-.235m4.66 8.102c-.492 0-.984-.105-1.445-.324l-4.672-2.196a3.411 3.411 0 0 1 .297-6.3 3.389 3.389 0 0 1 2.606.12l.66.313 1.543-3.285 7.101 3.336-2.996 6.375a3.378 3.378 0 0 1-1.93 1.758 3.4 3.4 0 0 1-1.163.203"/>
  <path fill="#cbe4f0" d="m181.781 226.68-.691-.395a3.076 3.076 0 0 1-1.137-4.183l3.48-6.07a3.074 3.074 0 0 1 4.18-1.137l.696.398a3.074 3.074 0 0 1 1.132 4.184l-3.476 6.07a3.074 3.074 0 0 1-4.184 1.133"/>
  <path fill="#8dc4df" d="M186 214.855a2.35 2.35 0 0 0-2.043 1.184l-3.73 6.512a2.334 2.334 0 0 0-.227 1.785 2.333 2.333 0 0 0 1.094 1.422l1.136.652a2.351 2.351 0 0 0 3.208-.87l3.734-6.513a2.355 2.355 0 0 0-.871-3.207l-1.137-.652a2.336 2.336 0 0 0-1.164-.313m-2.605 12.786a3.26 3.26 0 0 1-1.622-.434l-1.132-.648a3.24 3.24 0 0 1-1.528-1.985 3.236 3.236 0 0 1 .317-2.48l3.73-6.512a3.269 3.269 0 0 1 4.461-1.21l1.137.648a3.28 3.28 0 0 1 1.21 4.464l-3.734 6.512a3.265 3.265 0 0 1-2.84 1.645"/>
  <path fill="#f5d26b" d="m180.418 221.29-1.754 3.058-1.027-.59a2.953 2.953 0 0 0-2.938 5.12l4.48 2.571c1.41.809 3.22.32 4.028-1.094l3.223-5.62Zm0 0"/>
  <path fill="#eeb22e" d="M176.172 223.824c-.863 0-1.707.453-2.168 1.254a2.496 2.496 0 0 0 .922 3.402l4.48 2.57a2.494 2.494 0 0 0 3.403-.925l2.992-5.219-5.211-2.988-1.754 3.059-1.43-.82a2.482 2.482 0 0 0-1.234-.333m4.469 8.477a3.413 3.413 0 0 1-1.692-.453l-4.48-2.57a3.419 3.419 0 0 1-1.262-4.657 3.413 3.413 0 0 1 4.656-1.262l.633.36 1.754-3.059 6.805 3.906-3.45 6.016a3.41 3.41 0 0 1-2.964 1.719"/>
  <path fill="#cbe4f0" d="M192.043 221.582c11.383 2.29 22.46-5.086 24.75-16.473 2.129-10.601-4.117-20.937-14.18-24.16-1.957-5.57-6.699-10.004-12.902-11.25-8.902-1.789-17.566 3.606-20.027 12.188-8.684-.79-16.746 5.078-18.504 13.824-1.883 9.371 4.183 18.496 13.554 20.379Zm0 0"/>
  <path fill="#8dc4df" d="M168.102 182.273c-7.942 0-14.875 5.59-16.47 13.528-1.831 9.11 4.087 18.008 13.192 19.84l27.309 5.488a20.425 20.425 0 0 0 15.441-3.04 20.438 20.438 0 0 0 8.77-13.07c2.066-10.28-3.899-20.437-13.871-23.628l-.22-.07-.073-.216c-1.965-5.597-6.778-9.792-12.563-10.957-8.531-1.714-17.094 3.497-19.492 11.864l-.105.367-.375-.035a17.12 17.12 0 0 0-1.543-.07m28.128 40.187a21.81 21.81 0 0 1-4.277-.43l-27.312-5.492a17.646 17.646 0 0 1-11.286-7.574 17.644 17.644 0 0 1-2.625-13.344c1.766-8.789 9.739-14.844 18.622-14.223a17.709 17.709 0 0 1 7.687-9.886 17.68 17.68 0 0 1 12.762-2.262c6.023 1.21 11.05 5.543 13.168 11.332 10.289 3.414 16.418 13.953 14.273 24.621a21.337 21.337 0 0 1-9.16 13.652 21.344 21.344 0 0 1-11.852 3.606"/>
  <path fill="#cbe4f0" d="m156.617 190.29-3.883-6.9a2.584 2.584 0 0 1 .977-3.511 2.587 2.587 0 0 1 3.512.98l3.886 6.895"/>
  <path fill="#8dc4df" d="M156.621 190.746a.46.46 0 0 1-.402-.234l-3.887-6.895a3.04 3.04 0 0 1 1.156-4.137 3.04 3.04 0 0 1 4.137 1.153l3.883 6.894a.464.464 0 0 1-.172.63.461.461 0 0 1-.629-.177l-3.883-6.894a2.124 2.124 0 0 0-2.887-.805 2.123 2.123 0 0 0-.804 2.887l3.887 6.894a.458.458 0 0 1-.399.684"/>
  <path fill="#cbe4f0" d="m213.7 202.887 7.21-3.258a2.588 2.588 0 0 0 1.29-3.41 2.582 2.582 0 0 0-3.41-1.29l-7.212 3.258"/>
  <path fill="#8dc4df" d="M213.7 203.344a.455.455 0 0 1-.419-.27.453.453 0 0 1 .23-.605l7.212-3.262a2.09 2.09 0 0 0 1.105-1.18 2.12 2.12 0 0 0-.047-1.62 2.121 2.121 0 0 0-2.804-1.06l-7.211 3.258c-.23.106-.5 0-.606-.23a.459.459 0 0 1 .23-.61l7.212-3.257a3.04 3.04 0 0 1 4.015 1.52c.332.738.36 1.562.07 2.324a3.007 3.007 0 0 1-1.585 1.695l-7.211 3.258a.48.48 0 0 1-.192.039"/>
  <path fill="#f5d7d6" d="M175.469 190.719a5.365 5.365 0 1 1-10.52-2.117 5.36 5.36 0 0 1 6.317-4.204 5.365 5.365 0 0 1 4.203 6.32"/>
  <path fill="#2d73ab" d="M177.113 192.707a.184.184 0 0 0-.226.188c.058.894.484 3.972 3.644 4.753 3.653.899 5.59-1.582 6.09-2.347a.186.186 0 0 0-.113-.278Zm0 0"/>
  <path fill="#fff" d="m179.324 193.254-.41 1.676a.26.26 0 0 0 .191.316l3.047.754a.266.266 0 0 0 .317-.195l.414-1.676Zm0 0"/>
  <path fill="#f5d7d6" d="M201.328 196.61a5.366 5.366 0 0 1-6.316 4.202 5.37 5.37 0 0 1-4.203-6.32 5.365 5.365 0 0 1 6.316-4.203 5.365 5.365 0 0 1 4.203 6.32"/>
  <path fill="#fff" d="M181.887 185.117c-.61 2.446-2.867 3.988-5.043 3.446-2.18-.54-3.453-2.961-2.848-5.407.606-2.441 2.863-3.984 5.043-3.445 2.18.543 3.453 2.96 2.848 5.406m12.101 2.578c-.605 2.442-2.863 3.989-5.043 3.446-2.175-.543-3.453-2.961-2.843-5.407.605-2.445 2.863-3.984 5.043-3.445 2.18.543 3.453 2.961 2.843 5.406"/>
  <path fill="#2d73ab" d="M180.2 184.844c-.38 1.527-1.712 2.508-2.977 2.195-1.266-.316-1.985-1.809-1.606-3.336.38-1.523 1.711-2.508 2.977-2.191 1.265.316 1.984 1.804 1.605 3.332m12.114 2.433c-.38 1.528-1.715 2.508-2.981 2.196-1.266-.313-1.984-1.805-1.605-3.332.378-1.528 1.714-2.508 2.98-2.196 1.266.317 1.984 1.809 1.606 3.332"/>
  <path fill="#e6e6e6" d="M193.152 236.918c0 1.816-8.02 3.289-17.906 3.289-9.89 0-17.906-1.473-17.906-3.289s8.015-3.29 17.906-3.29c9.887 0 17.906 1.474 17.906 3.29"/>
  <path fill="#cbe4f0" d="M440.082 226.36s16.543-.196 19.715 5.226c1.781 3.055 1.808 9.133-7.645 9.91-8.078.664-7.757-3.21-6.23-4.187 2.172-1.387 8.324 1.41 9.445-2.157 1.117-3.562-3.57-3.84-14.605-3.691-11.032.148-.68-5.102-.68-5.102"/>
  <path fill="#8dc4df" d="M448.016 237.34c-.762 0-1.43.078-1.852.347-.453.293-.812.97-.582 1.657.172.511 1.156 2.148 6.535 1.707 3.871-.32 6.496-1.598 7.59-3.696 1.02-1.96.477-4.21-.3-5.542-2.876-4.918-17.813-4.997-19.216-5.004-2.113 1.09-4.226 2.68-4.058 3.363.039.152.441.902 4.625.84 9.355-.125 13.48.105 14.793 1.875.465.625.547 1.433.246 2.402-.785 2.5-3.578 2.305-6.04 2.133a24.68 24.68 0 0 0-1.741-.082m2.382 4.683c-4.183 0-5.351-1.453-5.668-2.39-.378-1.121.207-2.23.95-2.703.98-.625 2.515-.52 4.14-.407 2.743.192 4.582.192 5.118-1.503.285-.918.078-1.348-.106-1.594-1.164-1.563-6.562-1.613-14.062-1.512-3.54.047-5.239-.426-5.508-1.527-.426-1.719 3.425-3.825 4.617-4.43l.094-.047h.105c.684-.012 16.84-.137 20.106 5.45.933 1.6 1.511 4.124.32 6.413-.867 1.665-3.012 3.739-8.313 4.172-.652.055-1.25.078-1.793.078"/>
  <path fill="#cbe4f0" d="M431.262 240.465c9.824 0 17.785-8.848 17.785-19.762 0-10.164-6.906-18.535-15.79-19.637-2.316-3.125-6.85-5.746-12.206-5.746-7 0-13.176 3.907-14.953 10.118-7.336.882-13.051 10.375-13.051 18.757 0 8.985 6.558 16.27 14.644 16.27Zm0 0"/>
  <path fill="#8dc4df" d="M421.047 195.797c-6.996 0-12.82 3.926-14.496 9.77l-.086.304-.313.035c-7.226.871-12.629 10.375-12.629 18.29 0 8.71 6.356 15.792 14.168 15.792h23.57c9.548 0 17.313-8.648 17.313-19.285 0-9.84-6.61-18.078-15.375-19.164l-.203-.027-.121-.16c-2.496-3.375-7.14-5.555-11.828-5.555m10.215 45.14h-23.57c-8.337 0-15.118-7.507-15.118-16.742 0-8.199 5.606-18.035 13.156-19.187 1.899-6.09 8.012-10.16 15.317-10.16 4.902 0 9.77 2.261 12.469 5.773 9.14 1.246 16.007 9.84 16.007 20.082 0 11.156-8.191 20.234-18.261 20.234"/>
  <path fill="#fff" d="M412.137 215.855c0 2.13-1.54 3.856-3.438 3.856-1.898 0-3.441-1.727-3.441-3.856 0-2.132 1.543-3.859 3.441-3.859 1.899 0 3.438 1.727 3.438 3.86m10.468-.001c0 2.13-1.539 3.856-3.44 3.856-1.9 0-3.438-1.727-3.438-3.856 0-2.132 1.539-3.859 3.437-3.859 1.902 0 3.441 1.727 3.441 3.86"/>
  <path fill="#cbe4f0" d="M407.387 207.309s-4.867-3.493-6.211-2.504c-1.348.992-1.035 5.488-1.035 5.488"/>
  <path fill="#8dc4df" d="M400.14 210.742a.449.449 0 0 1-.449-.418c-.035-.484-.285-4.773 1.215-5.879 1.496-1.101 5.54 1.633 6.742 2.496.2.149.247.43.102.63a.45.45 0 0 1-.629.105c-2.21-1.59-5.012-3-5.68-2.508-.836.617-.964 3.45-.851 5.094a.453.453 0 0 1-.418.48h-.031"/>
  <path fill="#cbe4f0" d="M429.582 209.402s-.672-4.77-2.32-5.05c-1.649-.274-4.657 3.078-4.657 3.078"/>
  <path fill="#8dc4df" d="M429.578 209.852a.452.452 0 0 1-.445-.387c-.258-1.844-1.035-4.512-1.945-4.668-1.02-.172-3.149 1.707-4.25 2.933a.446.446 0 0 1-.633.032.443.443 0 0 1-.035-.633c.324-.363 3.23-3.527 5.066-3.219 1.879.317 2.57 4.578 2.691 5.43a.45.45 0 0 1-.386.508c-.02.004-.04.004-.063.004"/>
  <path fill="#cbe4f0" d="m425.59 218.652 6.664-1.351"/>
  <path fill="#8dc4df" d="M425.586 219.102a.45.45 0 0 1-.086-.89l6.664-1.353a.45.45 0 0 1 .531.352.452.452 0 0 1-.351.531l-6.668 1.352c-.028.008-.059.008-.09.008"/>
  <path fill="#cbe4f0" d="m425.781 220.973 6.781.554"/>
  <path fill="#8dc4df" d="M432.563 221.977h-.04l-6.777-.555a.45.45 0 1 1 .07-.899l6.782.555c.246.02.433.234.41.484a.447.447 0 0 1-.445.415"/>
  <path fill="#cbe4f0" d="m402.367 218.48-6.668-1.351"/>
  <path fill="#8dc4df" d="M402.367 218.93c-.027 0-.058-.004-.09-.008l-6.664-1.352a.455.455 0 0 1-.355-.53.447.447 0 0 1 .531-.352l6.668 1.351a.45.45 0 0 1-.09.89"/>
  <path fill="#cbe4f0" d="m402.176 220.8-6.781.552"/>
  <path fill="#8dc4df" d="M395.395 221.8a.448.448 0 0 1-.45-.41.452.452 0 0 1 .414-.488l6.778-.55a.445.445 0 0 1 .484.41.445.445 0 0 1-.41.484l-6.781.555h-.035"/>
  <path fill="#cbe4f0" d="M421.484 235.617s-6.191-.203-6.34 1.82c-.132 1.825 1.512 3.028 6.356 3.028"/>
  <path fill="#8dc4df" d="M421.5 240.914c-3.168 0-5.176-.504-6.145-1.547-.492-.531-.714-1.191-.656-1.965.168-2.336 5.696-2.27 6.801-2.234a.45.45 0 0 1 .434.465c-.008.25-.211.43-.465.433-2.32-.074-5.793.317-5.875 1.403-.035.52.101.941.418 1.285.777.836 2.625 1.262 5.488 1.262a.45.45 0 0 1 0 .898"/>
  <path fill="#cbe4f0" d="M406.918 235.563s6.14-.204 6.27 1.875c.113 1.882-1.512 2.953-6.356 2.953"/>
  <path fill="#8dc4df" d="M406.832 240.84a.45.45 0 0 1 0-.899c2.898 0 4.746-.402 5.492-1.195.317-.336.446-.742.414-1.281-.07-1.117-3.504-1.528-5.808-1.453a.451.451 0 0 1-.461-.434.445.445 0 0 1 .433-.465c1.098-.035 6.586-.097 6.735 2.293.047.785-.176 1.442-.657 1.957-.949 1.008-2.902 1.477-6.148 1.477"/>
  <path fill="#25619c" d="M412.664 223.219c-1.23 0-1.86-1-2.02-1.531a.45.45 0 0 1 .86-.262c.012.035.297.894 1.16.894.816 0 1.016-.77 1.035-.86a.447.447 0 0 1 .535-.339c.243.05.395.29.344.527-.113.547-.66 1.57-1.914 1.57"/>
  <path fill="#25619c" d="M415.637 223.219c-1.227 0-1.86-1-2.02-1.531a.45.45 0 0 1 .301-.56.448.448 0 0 1 .562.298c.012.043.297.894 1.157.894.816 0 1.015-.77 1.035-.86a.447.447 0 0 1 .535-.339c.242.05.395.29.344.527-.113.547-.66 1.57-1.914 1.57"/>
  <path fill="#e48582" d="m411.098 215.008-2.243-2.13a.23.23 0 0 0-.312 0l-2.242 2.13a.224.224 0 0 0 .152.39h1.016v3.004c0 .137.113.246.246.246h1.965a.245.245 0 0 0 .246-.246v-3.004h1.015c.207 0 .309-.25.157-.39m10.468 0-2.246-2.13a.23.23 0 0 0-.312 0l-2.242 2.13a.225.225 0 0 0 .156.39h1.015v3.004c0 .137.11.246.243.246h1.968a.242.242 0 0 0 .243-.246v-3.004h1.02c.202 0 .304-.25.155-.39"/>
  <path fill="#25619c" d="M415.918 222.832h-.863l-.86-.289-.86.289h-.858s-.43 2.93 1.718 2.93c2.153 0 1.723-2.93 1.723-2.93"/>
  <path fill="#e48582" d="M180.395 115.867h-24.063a4.267 4.267 0 0 0-4.266 4.27v24.07a4.266 4.266 0 0 0 4.266 4.266h18.523l8.352 8.355c.535.54 1.457.156 1.457-.605v-36.086c0-2.36-1.91-4.27-4.27-4.27Zm0 0"/>
  <path fill="#df6566" d="m174.863 135.266-2.175-2.176 2.175-2.176a2.83 2.83 0 0 0 .82-2.027v-1.98a2.9 2.9 0 0 0-.19-1.06c-.005-.007-.005-.015-.009-.023a2.637 2.637 0 0 0-.222-.43c-.016-.023-.024-.046-.035-.07a2.805 2.805 0 0 0-2.355-1.27 2.8 2.8 0 0 0-1.993.825l-3.2 3.2-3.199-3.2a2.822 2.822 0 0 0-4.347.445c-.012.024-.02.043-.035.063-.086.14-.164.289-.223.437-.004.008-.004.016-.008.02a2.82 2.82 0 0 0-.191 1.062v1.98c-.008.731.262 1.47.82 2.028l2.176 2.176-2.176 2.176a2.798 2.798 0 0 0-.824 1.992v2.047a2.8 2.8 0 0 0 .824 1.992 2.785 2.785 0 0 0 1.992.828c.754 0 1.461-.293 1.992-.828l3.2-3.2 3.199 3.2a2.785 2.785 0 0 0 1.992.828c.75 0 1.461-.293 1.992-.828a2.798 2.798 0 0 0 .825-1.992v-2.047c0-.754-.293-1.461-.825-1.992"/>
  <path fill="#8fccea" d="M217.602 115.867h-24.063c-2.36 0-4.27 1.91-4.27 4.27v36.086c0 .761.918 1.144 1.458.605l8.351-8.355h18.524a4.266 4.266 0 0 0 4.265-4.266v-24.07c0-2.36-1.91-4.27-4.265-4.27Zm0 0"/>
  <path fill="#4dacda" d="M216.332 124.879a2.819 2.819 0 0 0-3.984 0l-8.383 8.387-3.524-3.524a2.822 2.822 0 0 0-4.347.446c-.016.019-.02.042-.035.062-.086.14-.164.285-.227.438 0 .007 0 .011-.004.019-.133.34-.2.7-.191 1.063v1.976a2.807 2.807 0 0 0 .82 2.031l5.465 5.465c.016.02.027.04.043.055a2.792 2.792 0 0 0 1.992.828c.09 0 .176-.02.266-.027.093-.008.191-.012.285-.028.027-.007.047-.015.074-.023a2.78 2.78 0 0 0 1.379-.75c.02-.02.031-.04.047-.059l10.324-10.324a2.814 2.814 0 0 0 .824-1.996v-2.047a2.8 2.8 0 0 0-.824-1.992Zm0 0"/>
  <path fill="#fff" d="m174.863 134.883-3.199-3.2 3.2-3.199a2.827 2.827 0 0 0 0-3.988 2.805 2.805 0 0 0-1.993-.824 2.8 2.8 0 0 0-1.992.824l-3.2 3.2-3.199-3.2a2.822 2.822 0 0 0-3.984 0 2.827 2.827 0 0 0 0 3.988l3.2 3.2-3.2 3.199a2.805 2.805 0 0 0-.824 1.992 2.8 2.8 0 0 0 .824 1.992 2.785 2.785 0 0 0 1.992.828c.754 0 1.461-.293 1.992-.828l3.2-3.199 3.199 3.2a2.785 2.785 0 0 0 1.992.827c.75 0 1.461-.293 1.992-.828a2.798 2.798 0 0 0 .825-1.992c0-.75-.293-1.46-.825-1.992m42.293-8.395c0-.75-.293-1.457-.824-1.992a2.822 2.822 0 0 0-3.984 0l-8.383 8.39-3.524-3.527a2.822 2.822 0 0 0-3.984 0 2.827 2.827 0 0 0 0 3.989l5.461 5.464c.02.016.031.04.047.055a2.802 2.802 0 0 0 1.992.828c.09 0 .176-.02.266-.027.093-.008.191-.012.285-.027l.074-.024c.504-.11.984-.355 1.379-.75.02-.02.031-.039.047-.058l10.324-10.329a2.798 2.798 0 0 0 .824-1.992Zm0 0"/>
  <path fill="#818181" d="m338.23 183.7 6.422 6.421a3.113 3.113 0 0 1-2.2 5.316h-.003a3.108 3.108 0 0 1-2.199-.914l-6.422-6.421Zm0 0"/>
  <path fill="#8fccea" d="m338.23 183.695-4.402 4.403-3.664-3.668 4.399-4.399Zm0 0"/>
  <path fill="#6b6a6a" d="M337.129 185.164c.922.004 1.84.066 2.754.188l-1.653-1.653-1.476 1.477c.125-.004.25-.012.375-.012"/>
  <path fill="#4dacda" d="m338.23 183.7-3.668-3.669-4.398 4.403 1.465 1.464a21.017 21.017 0 0 1 5.121-.726Zm0 0"/>
  <path fill="#eaf5fa" d="M320.629 155.824c8.101 0 14.668 6.567 14.668 14.672 0 8.102-6.567 14.672-14.668 14.672-8.102 0-14.668-6.57-14.668-14.672 0-8.105 6.566-14.672 14.668-14.672"/>
  <path fill="#cee8f4" d="M326.258 156.945c6.262 5.137 7.18 14.383 2.043 20.649a14.668 14.668 0 0 1-16.965 4.25c6.262 5.136 15.504 4.219 20.64-2.047 5.137-6.262 4.22-15.508-2.042-20.645a14.598 14.598 0 0 0-3.676-2.207"/>
  <path fill="#818181" d="M320.629 185.164c-8.102 0-14.668-6.566-14.668-14.668 0-8.105 6.566-14.672 14.668-14.672 8.101 0 14.668 6.567 14.668 14.672 0 8.102-6.567 14.668-14.668 14.668m0-32.277c-9.719 0-17.602 7.883-17.602 17.61 0 9.722 7.883 17.605 17.602 17.605 9.719 0 17.601-7.883 17.601-17.606 0-9.726-7.878-17.61-17.601-17.61"/>
</svg>