<svg xmlns="http://www.w3.org/2000/svg" width="507" height="507">
  <defs>
    <clipPath id="a">
      <path d="M269.582 39.95h.73v.093h-.73Zm0 0"/>
    </clipPath>
    <clipPath id="b">
      <path d="M346.082 77.984h36.863v95.547h-36.863Zm0 0"/>
    </clipPath>
    <clipPath id="c">
      <path d="M213.648 453.047h1.993v1.031h-1.993Zm0 0"/>
    </clipPath>
    <clipPath id="d">
      <path d="M138.809 466.898h20.011v1.043h-20.01Zm0 0"/>
    </clipPath>
    <clipPath id="e">
      <path d="M167.2 467.191h2.034v.2H167.2Zm0 0"/>
    </clipPath>
    <clipPath id="f">
      <path d="M163.656 467.516h2.13v.148h-2.13Zm0 0"/>
    </clipPath>
    <clipPath id="g">
      <path d="M131.102 208.887h122.32v86.843h-122.32Zm0 0"/>
    </clipPath>
    <clipPath id="h">
      <path d="M341.055 467.516h2.129v.148h-2.13Zm0 0"/>
    </clipPath>
    <clipPath id="i">
      <path d="M344.527 467.75h2.368v.098h-2.368Zm0 0"/>
    </clipPath>
    <clipPath id="j">
      <path d="M337.605 467.191h2.036v.2h-2.036Zm0 0"/>
    </clipPath>
    <clipPath id="k">
      <path d="M320.445 464.176h2.243v.535h-2.243Zm0 0"/>
    </clipPath>
    <clipPath id="l">
      <path d="M297.281 456.055h1.926v.87h-1.926Zm0 0"/>
    </clipPath>
    <clipPath id="m">
      <path d="M253.422 208.887h122.316v86.843H253.422Zm0 0"/>
    </clipPath>
    <clipPath id="n">
      <path d="M222.008 295.73h62.824v127.243h-62.824Zm0 0"/>
    </clipPath>
    <clipPath id="o">
      <path d="M229.215 253.855h48.406V298h-48.406Zm0 0"/>
    </clipPath>
  </defs>
  <path fill="#fff" d="M201.395 459.488c-.372.14-.739.285-1.11.422.371-.137.738-.281 1.11-.422m-175.497-126.5c.012-.242.016-.484.028-.726-.012.242-.016.484-.028.726m.372-5.828.082-.91-.082.91m133.675 140.688c-.375.015-.75.035-1.125.043.375-.008.75-.028 1.125-.043m38.18-7.164c-.332.117-.66.238-.992.351.332-.113.66-.234.992-.351m-13.973 4.026a81.78 81.78 0 0 1-1.254.274c.418-.09.84-.18 1.254-.273m-20.496 2.953c-.449.027-.894.063-1.344.086.45-.023.895-.059 1.344-.086m30.871-5.777c-.191.062-.382.129-.578.187.196-.058.387-.125.578-.187M30.246 304.594c.074-.262.145-.524.215-.785-.07.261-.14.523-.215.785M180.84 465.418c-.45.09-.906.172-1.36.258.454-.086.91-.168 1.36-.258m9.84-2.371c-.118.035-.239.066-.356.098.117-.032.238-.063.356-.098m-13.192 2.993c-.468.081-.941.16-1.41.233.469-.078.942-.152 1.41-.234M167.2 467.39c-.473.044-.942.09-1.415.126.473-.036.942-.082 1.414-.125m6.906-.813c-.48.067-.96.137-1.445.2.485-.063.965-.133 1.445-.2m-84.8-239.625c.03-.02.058-.039.09-.055-.032.016-.06.036-.09.055m20.039-9.663.027-.013-.027.012m14.691-42.891c-.015-.293-.023-.585-.035-.878.012.292.02.585.035.878M71.348 239.79l.18-.153c-.06.05-.118.101-.18.152m53.586-87.812c2.886-22.692 11.64-43.547 24.691-61-13.05 17.453-21.805 38.308-24.691 61m.847 38.593c-.027-.14-.047-.285-.074-.425.027.14.047.285.074.425m-1.367-10.539c-.023-.261-.05-.523-.07-.785.02.262.047.524.07.785M37.969 283.504c.093-.195.18-.387.273-.582-.094.195-.18.387-.273.582m29.222-40.016c.075-.066.145-.136.22-.203-.075.067-.145.137-.22.203m-35.32 55.582c.078-.254.16-.504.242-.754-.082.25-.164.5-.242.754m8.589-20.593c.106-.207.216-.41.325-.614-.11.203-.219.407-.324.614m-6.699 15.082c.047-.137.101-.266.148-.403-.047.137-.101.266-.148.403m2.047-5.199c.023-.055.046-.114.07-.169l-.07.168m20.058-32.941c.074-.09.153-.176.227-.266-.074.09-.153.176-.227.266m-3.515 4.402c.105-.136.207-.273.312-.41-.105.137-.207.274-.312.41m-3.235 4.418c.07-.097.137-.199.207-.297-.07.098-.136.2-.207.297m35.52-34.383c.011-.007.02-.011.031-.02-.012.009-.02.013-.031.02m194.234 215.793-.441-.304.441.304m37.641 17.497c-.117-.036-.235-.063-.356-.098.121.035.239.062.356.098m-40.34-19.383c-.23-.164-.457-.332-.684-.496.227.164.453.332.684.496m36.718 18.312c-.195-.058-.386-.125-.577-.187.19.062.382.129.578.187m-39.375-20.265c-.258-.196-.516-.399-.774-.594.258.195.516.398.774.594m46.929 22.367c-.347-.086-.695-.168-1.039-.254.344.086.692.168 1.04.254m-52.11-26.5c-.262-.219-.524-.438-.781-.656.257.218.52.437.78.656m28.946 18.379c-.37-.172-.742-.344-1.113-.52.371.176.742.348 1.113.52m3.059 1.367c-.38-.164-.758-.332-1.133-.496.375.164.754.332 1.133.496m-37.047-24.203c-.215-.203-.434-.399-.648-.602.214.203.433.399.648.602m24.817 18.144a59.318 59.318 0 0 1-.001 0m21.598 9.672c-.332-.113-.66-.234-.992-.351.332.117.66.238.992.351m-18.507-7.988c-.313-.164-.63-.328-.938-.496.308.168.625.332.937.496m15.356 6.863c-.371-.137-.739-.281-1.11-.422.371.14.739.285 1.11.422m-78.165-14.555c-.14.098-.277.196-.417.293l.418-.293m2.949-2.082c-.223.16-.445.329-.668.489.223-.16.445-.328.668-.489m-11.88 7.684c-.237.137-.483.27-.726.402.243-.132.489-.265.727-.402m104.48 14.027c-.418-.09-.84-.18-1.253-.273.414.094.835.184 1.253.273m-89.855-23.761c-.254.195-.504.39-.758.578.254-.188.504-.383.758-.578m-26.453 15.703c-.375.164-.754.332-1.133.496.379-.164.758-.332 1.133-.496m6.015-2.848c-.347.176-.699.348-1.046.524.347-.176.699-.348 1.046-.524m2.93-1.528c-.308.169-.625.333-.937.497.312-.164.629-.328.937-.496m41.547-24.414c-.047-.047-.094-.094-.14-.145.046.051.093.098.14.145m-11.575 2.199c-.155.156-.312.305-.468.457.156-.152.313-.3.469-.457m-7.274 6.687c-.254.215-.507.434-.765.649.258-.215.511-.434.765-.649m4.911-4.402c-.208.2-.418.39-.63.586.212-.195.422-.387.63-.586m-7.465 6.524c-.262.21-.52.421-.782.628.262-.207.52-.418.782-.628m-49.285 24.777c-.352.086-.7.168-1.047.254.347-.086.695-.168 1.047-.254M470.96 288.188c.024.062.052.125.075.183l-.074-.183m-2.363-5.266c.093.191.183.39.273.586-.09-.195-.18-.395-.273-.586M344.527 467.75c-.449-.023-.894-.059-1.343-.086.449.027.894.063 1.343.086m3.493.14c-.375-.011-.75-.027-1.125-.042.375.015.75.03 1.125.043M466.055 277.86l.328.62-.328-.62m11.761 31.636c.04.172.075.348.114.52-.04-.172-.075-.348-.114-.52m-4.89-16.348c.05.137.105.274.156.414-.05-.14-.105-.277-.156-.414m1.797 5.161.25.765-.25-.765m-11.325-25.215.223.375-.223-.375m-12.652-17.946c.074.09.152.18.227.27-.075-.09-.153-.18-.227-.27m-11.32-11.867c.078.07.152.14.222.211-.074-.07-.144-.14-.222-.21m-4.113-3.645.18.152c-.06-.05-.122-.101-.18-.152m-94.258 227.879c-.473-.036-.942-.082-1.414-.125.472.043.941.09 1.414.125m116.461-203.578.21.304-.21-.305m-3.344-4.527.316.41-.316-.41m24.778 55.613.058.305-.059-.305m2.114 23.383v.008-.008M124.934 151.977a130.607 130.607 0 0 0-1.04 16.496v.007-.007c0-5.59.352-11.094 1.04-16.496m355.98 180.277c.012.25.016.496.027.746-.011-.25-.015-.496-.027-.746m-1.101-11.824c.039.273.078.543.113.812-.035-.27-.074-.539-.113-.812m-57.645-90.598c.016.008.027.02.043.027-.016-.007-.027-.02-.043-.027m-46.43-18.676c0-.004 0-.004.004-.008-.004.004-.004.004-.004.008m5.391-21.008c-.024.141-.043.282-.067.422.024-.14.043-.28.067-.422m-1.035 5.442c-.02.101-.047.203-.067.308a6.96 6.96 0 0 1 .067-.308m17.375 21.687.027.012-.027-.012m-14.629-43.746c-.012.29-.02.574-.035.86.015-.286.023-.57.035-.86m-.344 5.723-.07.77.07-.77m34.945 47.644c.036.016.067.036.098.055a.71.71 0 0 0-.098-.055"/>
  <g clip-path="url(#a)">
    <path fill="#8fccea" d="M269.582 39.95c.246.03.488.062.73.093l-.73-.094"/>
  </g>
  <g clip-path="url(#b)">
    <path fill="#8fccea" d="M382.84 173.531c.062-1.68.105-3.363.105-5.058 0-35.215-14.058-67.141-36.863-90.489 22.805 23.348 36.863 55.274 36.863 90.489 0 1.695-.043 3.379-.105 5.058"/>
  </g>
  <path fill="#fff" d="M155.305 208.887c39.218 0 74.363 17.433 98.117 44.968 23.75-27.535 58.894-44.968 98.113-44.968 8.274 0 16.363.785 24.203 2.27v-.005a128.772 128.772 0 0 0 4.29-15.254c.023-.105.042-.207.066-.312.355-1.66.676-3.332.965-5.016.027-.14.046-.28.07-.422.566-3.332.996-6.71 1.297-10.125.023-.257.05-.511.07-.77.133-1.612.234-3.233.309-4.862.015-.286.023-.57.035-.86.062-1.68.105-3.363.105-5.058 0-35.215-14.058-67.141-36.863-90.493a131.756 131.756 0 0 0-10.27-9.457 129.063 129.063 0 0 0-13.574-9.793 123.72 123.72 0 0 0-3.246-1.972 129.589 129.589 0 0 0-9.418-5.04 128.56 128.56 0 0 0-39.262-11.675l-.73-.094a130.667 130.667 0 0 0-32.66.04 128.683 128.683 0 0 0-39.656 11.73 129.463 129.463 0 0 0-28.61 18.812 129.89 129.89 0 0 0-13.176 13.176 128.969 128.969 0 0 0-5.855 7.266c-13.055 17.457-21.805 38.312-24.691 61.004a131.34 131.34 0 0 0-1.04 16.496v.007c0 1.688.043 3.368.106 5.036.012.297.02.59.035.882.074 1.625.176 3.243.309 4.848l.07.785c.3 3.41.734 6.781 1.293 10.114a125.073 125.073 0 0 0 1.04 5.445c.023.101.042.203.066.305a128.37 128.37 0 0 0 4.289 15.257v.004a130.04 130.04 0 0 1 24.203-2.27"/>
  <path fill="#8fccea" d="M155.305 208.887c39.218 0 74.363 17.433 98.117 44.968 23.75-27.535 58.894-44.968 98.113-44.968 8.274 0 16.363.785 24.203 2.27v-.005a128.772 128.772 0 0 0 4.29-15.254c.023-.105.042-.207.066-.312.355-1.66.676-3.332.965-5.016.027-.14.046-.28.07-.422.566-3.332.996-6.71 1.297-10.125.023-.257.05-.511.07-.77.133-1.612.234-3.233.309-4.862.015-.286.023-.57.035-.86.062-1.68.105-3.363.105-5.058 0-35.215-14.058-67.141-36.863-90.493a131.756 131.756 0 0 0-10.27-9.457 129.063 129.063 0 0 0-13.574-9.793 123.72 123.72 0 0 0-3.246-1.972 129.589 129.589 0 0 0-9.418-5.04 128.56 128.56 0 0 0-39.262-11.675l-.73-.094a130.667 130.667 0 0 0-32.66.04 128.683 128.683 0 0 0-39.656 11.73 129.463 129.463 0 0 0-28.61 18.812 129.89 129.89 0 0 0-13.176 13.176 128.969 128.969 0 0 0-5.855 7.266c-13.055 17.457-21.805 38.312-24.691 61.004a131.34 131.34 0 0 0-1.04 16.496v.007c0 1.688.043 3.368.106 5.036.012.297.02.59.035.882.074 1.625.176 3.243.309 4.848l.07.785c.3 3.41.734 6.781 1.293 10.114a125.073 125.073 0 0 0 1.04 5.445c.023.101.042.203.066.305a128.37 128.37 0 0 0 4.289 15.257v.004a130.04 130.04 0 0 1 24.203-2.27"/>
  <g clip-path="url(#c)">
    <path fill="#f8e395" d="M215.64 453.047c-.663.348-1.324.695-1.992 1.031.668-.336 1.329-.683 1.993-1.031"/>
  </g>
  <g clip-path="url(#d)">
    <path fill="#f8e395" d="M138.809 466.898a130.605 130.605 0 0 0 16.496 1.043c1.175 0 2.347-.02 3.515-.05a131.438 131.438 0 0 1-20.011-.993"/>
  </g>
  <g clip-path="url(#e)">
    <path fill="#f8e395" d="M169.234 467.191c-.675.075-1.355.137-2.035.2.68-.063 1.36-.125 2.035-.2"/>
  </g>
  <g clip-path="url(#f)">
    <path fill="#f8e395" d="M165.785 467.516c-.707.058-1.418.101-2.125.148.707-.047 1.418-.09 2.125-.148"/>
  </g>
  <path fill="#fff" d="M222.008 338.414c0-14.957 2.547-29.316 7.207-42.684-45.785-8.656-83.05-41.406-98.113-84.574a128.545 128.545 0 0 0-21.73 6.121l-.028.012a128.87 128.87 0 0 0-19.95 9.61c-.03.019-.062.035-.09.05a130.38 130.38 0 0 0-4.636 2.883c-.012.008-.02.02-.031.023a129.592 129.592 0 0 0-13.11 9.786l-.18.144a133.904 133.904 0 0 0-3.937 3.5c-.074.067-.144.137-.219.203a130.449 130.449 0 0 0-11.097 11.664c-.078.09-.153.176-.227.266a131.332 131.332 0 0 0-3.203 3.992c-.105.137-.207.274-.312.41a125.403 125.403 0 0 0-3.028 4.121c-.07.098-.136.2-.207.297a129.195 129.195 0 0 0-5.68 8.86c-.07.125-.144.242-.214.367a123.442 123.442 0 0 0-2.438 4.398 138.634 138.634 0 0 0-2.547 5.059c-.09.191-.18.387-.265.578-.73 1.55-1.43 3.11-2.094 4.691-.027.055-.047.114-.07.168a121.069 121.069 0 0 0-1.895 4.797c-.05.133-.105.266-.152.399a131.612 131.612 0 0 0-1.649 4.761c-.082.25-.164.5-.242.754a126.84 126.84 0 0 0-1.41 4.739c-.074.261-.14.523-.211.785a128.602 128.602 0 0 0-1.23 4.906l-.106.504a124.816 124.816 0 0 0-1.027 5.035c-.016.094-.04.188-.055.281a130.333 130.333 0 0 0-.805 5.118c-.039.269-.078.535-.113.804a130.792 130.792 0 0 0-.562 5.008l-.082.91a136.88 136.88 0 0 0-.344 5.102c-.008.242-.016.484-.028.726-.074 1.801-.12 3.61-.12 5.426 0 5.59.355 11.094 1.042 16.496a128.469 128.469 0 0 0 5.766 25.047 124.08 124.08 0 0 0 2.176 5.95 129.713 129.713 0 0 0 8.176 16.98 129.723 129.723 0 0 0 6.738 10.508 129.269 129.269 0 0 0 11.867 14.382 136.973 136.973 0 0 0 7.902 7.606 130.082 130.082 0 0 0 5.89 4.93 127.11 127.11 0 0 0 6.036 4.457 130.122 130.122 0 0 0 6.77 4.418 135.311 135.311 0 0 0 5.421 3.12 133.851 133.851 0 0 0 6.918 3.481 128.606 128.606 0 0 0 38.329 11.11 130.607 130.607 0 0 0 20.011.992c.375-.012.75-.028 1.125-.043.79-.028 1.582-.059 2.368-.098.449-.023.898-.059 1.343-.086.711-.047 1.422-.09 2.13-.148.472-.036.94-.082 1.413-.125.68-.063 1.36-.125 2.035-.2.48-.05.965-.105 1.442-.164.664-.078 1.324-.16 1.984-.25.485-.062.965-.129 1.445-.199a159.056 159.056 0 0 0 3.383-.539 81.494 81.494 0 0 0 1.992-.363c.454-.082.907-.168 1.36-.258.687-.14 1.375-.285 2.058-.434.418-.09.836-.18 1.254-.273.75-.172 1.493-.352 2.239-.535.347-.086.699-.168 1.047-.254.964-.25 1.93-.508 2.886-.777.117-.036.238-.063.356-.098 1.097-.309 2.187-.633 3.27-.973.195-.058.386-.125.577-.187.871-.278 1.743-.559 2.602-.852.336-.113.664-.234.996-.351.723-.254 1.445-.508 2.16-.774.371-.137.738-.281 1.11-.422.671-.258 1.343-.515 2.011-.781.383-.152.762-.312 1.14-.465.653-.27 1.306-.543 1.954-.82.379-.164.758-.332 1.133-.496.644-.285 1.289-.578 1.926-.871.37-.172.742-.344 1.109-.52.648-.305 1.289-.617 1.934-.933.347-.176.699-.348 1.046-.524.668-.336 1.332-.683 1.993-1.031.312-.164.629-.328.941-.496.723-.387 1.438-.79 2.152-1.188.243-.136.485-.27.727-.41.89-.508 1.777-1.027 2.656-1.558.059-.036.121-.07.18-.106a132.085 132.085 0 0 0 5.676-3.64l.418-.294a132.25 132.25 0 0 0 2.28-1.593c.224-.16.446-.328.669-.489a121.31 121.31 0 0 0 1.988-1.468c.254-.192.504-.387.758-.582.621-.477 1.242-.961 1.855-1.45.262-.207.52-.418.782-.628a108.505 108.505 0 0 0 2.554-2.122c.594-.507 1.184-1.02 1.77-1.539.238-.21.48-.421.719-.636.601-.54 1.199-1.086 1.793-1.641.21-.195.421-.39.629-.586.64-.601 1.269-1.21 1.894-1.828.156-.152.313-.3.469-.457a143.56 143.56 0 0 0 2.187-2.223c.035-.039.075-.078.11-.117a126.492 126.492 0 0 0 4.574-5.023c-19.574-22.692-31.414-52.243-31.414-84.559"/>
  <path fill="#f8e395" d="M222.008 338.414c0-14.957 2.547-29.316 7.207-42.684-45.785-8.656-83.05-41.406-98.113-84.574a128.545 128.545 0 0 0-21.73 6.121l-.028.012a128.87 128.87 0 0 0-19.95 9.61c-.03.019-.062.035-.09.05a130.38 130.38 0 0 0-4.636 2.883c-.012.008-.02.02-.031.023a129.592 129.592 0 0 0-13.11 9.786l-.18.144a133.904 133.904 0 0 0-3.937 3.5c-.074.067-.144.137-.219.203a130.449 130.449 0 0 0-11.097 11.664c-.078.09-.153.176-.227.266a131.332 131.332 0 0 0-3.203 3.992c-.105.137-.207.274-.312.41a125.403 125.403 0 0 0-3.028 4.121c-.07.098-.136.2-.207.297a129.195 129.195 0 0 0-5.68 8.86c-.07.125-.144.242-.214.367a123.442 123.442 0 0 0-2.438 4.398 138.634 138.634 0 0 0-2.547 5.059c-.09.191-.18.387-.265.578-.73 1.55-1.43 3.11-2.094 4.691-.027.055-.047.114-.07.168a121.069 121.069 0 0 0-1.895 4.797c-.05.133-.105.266-.152.399a131.612 131.612 0 0 0-1.649 4.761c-.082.25-.164.5-.242.754a126.84 126.84 0 0 0-1.41 4.739c-.074.261-.14.523-.211.785a128.602 128.602 0 0 0-1.23 4.906l-.106.504a124.816 124.816 0 0 0-1.027 5.035c-.016.094-.04.188-.055.281a130.333 130.333 0 0 0-.805 5.118c-.039.269-.078.535-.113.804a130.792 130.792 0 0 0-.562 5.008l-.082.91a136.88 136.88 0 0 0-.344 5.102c-.008.242-.016.484-.028.726-.074 1.801-.12 3.61-.12 5.426 0 5.59.355 11.094 1.042 16.496a128.469 128.469 0 0 0 5.766 25.047 124.08 124.08 0 0 0 2.176 5.95 129.713 129.713 0 0 0 8.176 16.98 129.723 129.723 0 0 0 6.738 10.508 129.269 129.269 0 0 0 11.867 14.382 136.973 136.973 0 0 0 7.902 7.606 130.082 130.082 0 0 0 5.89 4.93 127.11 127.11 0 0 0 6.036 4.457 130.122 130.122 0 0 0 6.77 4.418 135.311 135.311 0 0 0 5.421 3.12 133.851 133.851 0 0 0 6.918 3.481 128.606 128.606 0 0 0 38.329 11.11 130.607 130.607 0 0 0 20.011.992c.375-.012.75-.028 1.125-.043.79-.028 1.582-.059 2.368-.098.449-.023.898-.059 1.343-.086.711-.047 1.422-.09 2.13-.148.472-.036.94-.082 1.413-.125.68-.063 1.36-.125 2.035-.2.48-.05.965-.105 1.442-.164.664-.078 1.324-.16 1.984-.25.485-.062.965-.129 1.445-.199a159.056 159.056 0 0 0 3.383-.539 81.494 81.494 0 0 0 1.992-.363c.454-.082.907-.168 1.36-.258.687-.14 1.375-.285 2.058-.434.418-.09.836-.18 1.254-.273.75-.172 1.493-.352 2.239-.535.347-.086.699-.168 1.047-.254.964-.25 1.93-.508 2.886-.777.117-.036.238-.063.356-.098 1.097-.309 2.187-.633 3.27-.973.195-.058.386-.125.577-.187.871-.278 1.743-.559 2.602-.852.336-.113.664-.234.996-.351.723-.254 1.445-.508 2.16-.774.371-.137.738-.281 1.11-.422.671-.258 1.343-.515 2.011-.781.383-.152.762-.312 1.14-.465.653-.27 1.306-.543 1.954-.82.379-.164.758-.332 1.133-.496.644-.285 1.289-.578 1.926-.871.37-.172.742-.344 1.109-.52.648-.305 1.289-.617 1.934-.933.347-.176.699-.348 1.046-.524.668-.336 1.332-.683 1.993-1.031.312-.164.629-.328.941-.496.723-.387 1.438-.79 2.152-1.188.243-.136.485-.27.727-.41.89-.508 1.777-1.027 2.656-1.558.059-.036.121-.07.18-.106a132.085 132.085 0 0 0 5.676-3.64l.418-.294a132.25 132.25 0 0 0 2.28-1.593c.224-.16.446-.328.669-.489a121.31 121.31 0 0 0 1.988-1.468c.254-.192.504-.387.758-.582.621-.477 1.242-.961 1.855-1.45.262-.207.52-.418.782-.628a108.505 108.505 0 0 0 2.554-2.122c.594-.507 1.184-1.02 1.77-1.539.238-.21.48-.421.719-.636.601-.54 1.199-1.086 1.793-1.641.21-.195.421-.39.629-.586.64-.601 1.269-1.21 1.894-1.828.156-.152.313-.3.469-.457a143.56 143.56 0 0 0 2.187-2.223c.035-.039.075-.078.11-.117a126.492 126.492 0 0 0 4.574-5.023c-19.574-22.692-31.414-52.243-31.414-84.559"/>
  <path fill="#fff" d="M155.305 208.887c-8.274 0-16.364.785-24.203 2.27 15.062 43.167 52.328 75.917 98.113 84.573a129.39 129.39 0 0 1 24.207-41.875c-23.754-27.535-58.899-44.968-98.117-44.968"/>
  <g clip-path="url(#g)">
    <path fill="#8fccea" d="M155.305 208.887c-8.274 0-16.364.785-24.203 2.27 15.062 43.167 52.328 75.917 98.113 84.573a129.39 129.39 0 0 1 24.207-41.875c-23.754-27.535-58.899-44.968-98.117-44.968"/>
  </g>
  <path fill="#91b38b" d="M155.305 208.887c-8.274 0-16.364.785-24.203 2.27 15.062 43.167 52.328 75.917 98.113 84.573a129.39 129.39 0 0 1 24.207-41.875c-23.754-27.535-58.899-44.968-98.117-44.968"/>
  <g clip-path="url(#h)">
    <path fill="#e48582" d="M343.184 467.664c-.711-.047-1.422-.09-2.13-.148.708.058 1.419.101 2.13.148"/>
  </g>
  <g clip-path="url(#i)">
    <path fill="#e48582" d="M346.895 467.848c-.79-.028-1.579-.055-2.368-.098.79.043 1.578.07 2.368.098"/>
  </g>
  <g clip-path="url(#j)">
    <path fill="#e48582" d="M339.64 467.39c-.68-.062-1.359-.124-2.035-.199.676.075 1.356.137 2.036.2"/>
  </g>
  <g clip-path="url(#k)">
    <path fill="#e48582" d="M322.688 464.71c-.75-.17-1.497-.355-2.243-.534.746.18 1.493.363 2.243.535"/>
  </g>
  <g clip-path="url(#l)">
    <path fill="#e48582" d="M299.207 456.926c-.644-.285-1.285-.578-1.926-.871.64.293 1.281.586 1.926.87"/>
  </g>
  <path fill="#fff" d="M481.063 338.406c0-1.812-.047-3.613-.122-5.406-.011-.246-.015-.496-.027-.742-.082-1.707-.2-3.403-.344-5.09l-.082-.926a131.27 131.27 0 0 0-.562-5c-.035-.27-.074-.539-.113-.808-.239-1.715-.5-3.418-.805-5.106l-.059-.305c-.304-1.68-.648-3.351-1.02-5.007-.038-.172-.074-.348-.113-.52a127.94 127.94 0 0 0-1.222-4.894c-.074-.266-.145-.536-.215-.801-.442-1.586-.91-3.164-1.406-4.727l-.25-.765c-.52-1.594-1.063-3.18-1.641-4.747-.05-.14-.105-.277-.156-.414a126.41 126.41 0 0 0-1.89-4.777c-.024-.058-.048-.121-.075-.183a122.637 122.637 0 0 0-2.09-4.68c-.09-.195-.18-.39-.273-.586a132.133 132.133 0 0 0-2.215-4.442l-.328-.62a129.492 129.492 0 0 0-2.434-4.391l-.223-.375a130.43 130.43 0 0 0-5.671-8.852l-.211-.305a125.246 125.246 0 0 0-3.028-4.117l-.316-.41a121.057 121.057 0 0 0-3.2-3.988c-.074-.094-.152-.184-.23-.274a130.243 130.243 0 0 0-11.09-11.656c-.078-.07-.148-.14-.222-.21a133.644 133.644 0 0 0-3.938-3.493l-.18-.152a130.301 130.301 0 0 0-13.101-9.778c-.016-.007-.031-.02-.043-.027-1.52-.992-3.066-1.95-4.629-2.879a.71.71 0 0 0-.098-.055 128.657 128.657 0 0 0-19.945-9.609l-.031-.012a128.4 128.4 0 0 0-21.727-6.12c-15.062 43.167-52.324 75.917-98.117 84.573 4.664 13.368 7.211 27.727 7.211 42.684 0 32.316-11.84 61.867-31.41 84.559 1.476 1.714 3 3.39 4.562 5.023.047.047.098.094.141.14.71.743 1.43 1.473 2.16 2.196.16.16.328.32.492.48.618.61 1.239 1.208 1.868 1.805.214.203.433.399.648.602a116.766 116.766 0 0 0 2.508 2.273c.582.516 1.164 1.024 1.754 1.528a125.91 125.91 0 0 0 2.555 2.117l.796.644c.606.485 1.219.961 1.836 1.434.258.195.516.398.774.594.652.492 1.308.976 1.972 1.457.227.164.453.332.684.496.746.535 1.5 1.062 2.258 1.582l.441.304a126.029 126.029 0 0 0 5.672 3.641c.062.04.129.074.191.113.875.528 1.754 1.047 2.645 1.551.242.14.488.274.73.41.715.403 1.43.801 2.153 1.188.308.168.625.332.937.496.664.348 1.324.695 1.992 1.031.348.18.7.352 1.051.524.64.316 1.281.628 1.926.933.371.176.742.348 1.113.52.64.293 1.281.586 1.926.87.375.165.754.333 1.133.497.648.277 1.3.55 1.953.816.379.16.758.317 1.14.469.669.27 1.34.527 2.012.781.371.14.739.285 1.11.422.715.266 1.437.52 2.16.774.332.117.66.238.996.351.86.293 1.73.574 2.601.852.192.062.387.129.579.187a116.1 116.1 0 0 0 3.27.973c.116.035.234.062.35.098.962.27 1.926.527 2.895.777.344.086.692.168 1.04.254.745.18 1.491.363 2.241.535.415.094.836.184 1.254.273.684.149 1.372.297 2.059.434.45.09.902.176 1.36.258a105.717 105.717 0 0 0 3.402.597 100.455 100.455 0 0 0 3.418.505c.66.09 1.32.171 1.984.25.48.058.957.113 1.441.163.676.075 1.356.137 2.036.2.472.043.941.09 1.414.125.707.058 1.418.101 2.129.148.445.027.894.063 1.343.086.79.043 1.578.07 2.368.098.375.015.75.035 1.125.043a130.605 130.605 0 0 0 20.012-.992 128.675 128.675 0 0 0 45.241-14.59c1.497-.813 2.97-1.66 4.426-2.532a131 131 0 0 0 8.816-5.734 130.27 130.27 0 0 0 22.962-20.863 129.269 129.269 0 0 0 7.687-9.785c1.43-2.012 2.797-4.07 4.113-6.165a124.755 124.755 0 0 0 3.602-6.098c.45-.808.89-1.624 1.32-2.44a131.582 131.582 0 0 0 2.09-4.126 128.555 128.555 0 0 0 11.73-39.656 130.605 130.605 0 0 0 1.043-16.496v-.008"/>
  <path fill="#e48582" d="M481.063 338.406c0-1.812-.047-3.613-.122-5.406-.011-.246-.015-.496-.027-.742-.082-1.707-.2-3.403-.344-5.09l-.082-.926a131.27 131.27 0 0 0-.562-5c-.035-.27-.074-.539-.113-.808-.239-1.715-.5-3.418-.805-5.106l-.059-.305c-.304-1.68-.648-3.351-1.02-5.007-.038-.172-.074-.348-.113-.52a127.94 127.94 0 0 0-1.222-4.894c-.074-.266-.145-.536-.215-.801-.442-1.586-.91-3.164-1.406-4.727l-.25-.765c-.52-1.594-1.063-3.18-1.641-4.747-.05-.14-.105-.277-.156-.414a126.41 126.41 0 0 0-1.89-4.777c-.024-.058-.048-.121-.075-.183a122.637 122.637 0 0 0-2.09-4.68c-.09-.195-.18-.39-.273-.586a132.133 132.133 0 0 0-2.215-4.442l-.328-.62a129.492 129.492 0 0 0-2.434-4.391l-.223-.375a130.43 130.43 0 0 0-5.671-8.852l-.211-.305a125.246 125.246 0 0 0-3.028-4.117l-.316-.41a121.057 121.057 0 0 0-3.2-3.988c-.074-.094-.152-.184-.23-.274a130.243 130.243 0 0 0-11.09-11.656c-.078-.07-.148-.14-.222-.21a133.644 133.644 0 0 0-3.938-3.493l-.18-.152a130.301 130.301 0 0 0-13.101-9.778c-.016-.007-.031-.02-.043-.027-1.52-.992-3.066-1.95-4.629-2.879a.71.71 0 0 0-.098-.055 128.657 128.657 0 0 0-19.945-9.609l-.031-.012a128.4 128.4 0 0 0-21.727-6.12c-15.062 43.167-52.324 75.917-98.117 84.573 4.664 13.368 7.211 27.727 7.211 42.684 0 32.316-11.84 61.867-31.41 84.559 1.476 1.714 3 3.39 4.562 5.023.047.047.098.094.141.14.71.743 1.43 1.473 2.16 2.196.16.16.328.32.492.48.618.61 1.239 1.208 1.868 1.805.214.203.433.399.648.602a116.766 116.766 0 0 0 2.508 2.273c.582.516 1.164 1.024 1.754 1.528a125.91 125.91 0 0 0 2.555 2.117l.796.644c.606.485 1.219.961 1.836 1.434.258.195.516.398.774.594.652.492 1.308.976 1.972 1.457.227.164.453.332.684.496.746.535 1.5 1.062 2.258 1.582l.441.304a126.029 126.029 0 0 0 5.672 3.641c.062.04.129.074.191.113.875.528 1.754 1.047 2.645 1.551.242.14.488.274.73.41.715.403 1.43.801 2.153 1.188.308.168.625.332.937.496.664.348 1.324.695 1.992 1.031.348.18.7.352 1.051.524.64.316 1.281.628 1.926.933.371.176.742.348 1.113.52.64.293 1.281.586 1.926.87.375.165.754.333 1.133.497.648.277 1.3.55 1.953.816.379.16.758.317 1.14.469.669.27 1.34.527 2.012.781.371.14.739.285 1.11.422.715.266 1.437.52 2.16.774.332.117.66.238.996.351.86.293 1.73.574 2.601.852.192.062.387.129.579.187a116.1 116.1 0 0 0 3.27.973c.116.035.234.062.35.098.962.27 1.926.527 2.895.777.344.086.692.168 1.04.254.745.18 1.491.363 2.241.535.415.094.836.184 1.254.273.684.149 1.372.297 2.059.434.45.09.902.176 1.36.258a105.717 105.717 0 0 0 3.402.597 100.455 100.455 0 0 0 3.418.505c.66.09 1.32.171 1.984.25.48.058.957.113 1.441.163.676.075 1.356.137 2.036.2.472.043.941.09 1.414.125.707.058 1.418.101 2.129.148.445.027.894.063 1.343.086.79.043 1.578.07 2.368.098.375.015.75.035 1.125.043a130.605 130.605 0 0 0 20.012-.992 128.675 128.675 0 0 0 45.241-14.59c1.497-.813 2.97-1.66 4.426-2.532a131 131 0 0 0 8.816-5.734 130.27 130.27 0 0 0 22.962-20.863 129.269 129.269 0 0 0 7.687-9.785c1.43-2.012 2.797-4.07 4.113-6.165a124.755 124.755 0 0 0 3.602-6.098c.45-.808.89-1.624 1.32-2.44a131.582 131.582 0 0 0 2.09-4.126 128.555 128.555 0 0 0 11.73-39.656 130.605 130.605 0 0 0 1.043-16.496v-.008"/>
  <path fill="#fff" d="M253.418 253.855a129.27 129.27 0 0 1 24.203 41.875c45.79-8.656 83.055-41.406 98.117-84.574a130.006 130.006 0 0 0-24.203-2.27c-39.219 0-74.363 17.434-98.117 44.97"/>
  <g clip-path="url(#m)">
    <path fill="#8fccea" d="M253.418 253.855a129.27 129.27 0 0 1 24.203 41.875c45.79-8.656 83.055-41.406 98.117-84.574a130.006 130.006 0 0 0-24.203-2.27c-39.219 0-74.363 17.434-98.117 44.97"/>
  </g>
  <path fill="#926f7b" d="M253.418 253.855a129.27 129.27 0 0 1 24.203 41.875c45.79-8.656 83.055-41.406 98.117-84.574a130.006 130.006 0 0 0-24.203-2.27c-39.219 0-74.363 17.434-98.117 44.97"/>
  <path fill="#fff" d="M229.215 295.73c-4.664 13.368-7.203 27.727-7.203 42.684 0 32.316 11.836 61.867 31.406 84.559 19.574-22.692 31.41-52.243 31.41-84.559 0-14.957-2.539-29.316-7.203-42.684a130.079 130.079 0 0 1-24.207 2.27c-8.27 0-16.36-.785-24.203-2.27"/>
  <g clip-path="url(#n)">
    <path fill="#f8e395" d="M229.215 295.73c-4.664 13.368-7.203 27.727-7.203 42.684 0 32.316 11.836 61.867 31.406 84.559 19.574-22.692 31.41-52.243 31.41-84.559 0-14.957-2.539-29.316-7.203-42.684a130.079 130.079 0 0 1-24.207 2.27c-8.27 0-16.36-.785-24.203-2.27"/>
  </g>
  <path fill="#d57652" d="M229.215 295.73c-4.664 13.368-7.203 27.727-7.203 42.684 0 32.316 11.836 61.867 31.406 84.559 19.574-22.692 31.41-52.243 31.41-84.559 0-14.957-2.539-29.316-7.203-42.684a130.079 130.079 0 0 1-24.207 2.27c-8.27 0-16.36-.785-24.203-2.27"/>
  <path fill="#fff" d="M229.215 295.73a130.068 130.068 0 0 0 24.203 2.27c8.273 0 16.363-.785 24.207-2.27a129.35 129.35 0 0 0-24.207-41.875 129.41 129.41 0 0 0-24.203 41.875"/>
  <g clip-path="url(#o)">
    <path fill="#8fccea" d="M229.215 295.73a130.068 130.068 0 0 0 24.203 2.27c8.273 0 16.363-.785 24.207-2.27a129.35 129.35 0 0 0-24.207-41.875 129.41 129.41 0 0 0-24.203 41.875"/>
    <path fill="#f8e395" d="M229.215 295.73a130.068 130.068 0 0 0 24.203 2.27c8.273 0 16.363-.785 24.207-2.27a129.35 129.35 0 0 0-24.207-41.875 129.41 129.41 0 0 0-24.203 41.875"/>
  </g>
  <path fill="#8f6856" d="M229.215 295.73a130.068 130.068 0 0 0 24.203 2.27c8.273 0 16.363-.785 24.207-2.27a129.35 129.35 0 0 0-24.207-41.875 129.41 129.41 0 0 0-24.203 41.875"/>
  <path fill="#fff" d="M225.953 182.094h-8.594v-17.871h-16.754v17.87h-8.593v-41.702h8.593v16.898h16.754v-16.898h8.594Zm16.097-22.227h6.93c2.157 0 3.829-.547 5.012-1.644 1.188-1.098 1.778-2.614 1.778-4.54 0-1.968-.56-3.515-1.676-4.64-1.117-1.129-2.832-1.691-5.14-1.691h-6.903Zm6.845 6.961h-6.844v15.266h-8.594V140.39h15.496c4.926 0 8.727 1.097 11.399 3.297 2.675 2.195 4.011 5.296 4.011 9.304 0 2.848-.617 5.219-1.847 7.121-1.23 1.899-3.098 3.41-5.602 4.54l9.024 17.042v.399h-9.223Zm33.226-26.438 10.711 30.247 10.656-30.246h11.285v41.703h-8.62v-11.399l.859-19.68-11.258 31.079h-5.899l-11.23-31.047.86 19.648v11.399h-8.59V140.39ZM140.352 343.656v11.258h7.363c2.023 0 3.605-.48 4.738-1.445 1.137-.965 1.707-2.297 1.707-3.996 0-3.82-1.976-5.758-5.93-5.817Zm0-6.07h6.359c4.336-.078 6.504-1.805 6.504-5.184 0-1.89-.55-3.25-1.649-4.082-1.097-.832-2.832-1.246-5.199-1.246h-6.015Zm-8.59 24.23v-41.703h14.605c5.063 0 8.899.969 11.516 2.907 2.613 1.94 3.926 4.78 3.926 8.523 0 2.043-.528 3.844-1.579 5.398-1.05 1.555-2.511 2.696-4.382 3.422 2.14.535 3.824 1.614 5.054 3.239 1.235 1.62 1.848 3.609 1.848 5.957 0 4.007-1.277 7.046-3.836 9.109-2.559 2.059-6.207 3.11-10.941 3.148Zm46.57 0h-8.59v-41.703h8.59Zm151.368-13.89c-.325 4.488-1.981 8.02-4.97 10.597-2.992 2.579-6.93 3.868-11.816 3.868-5.348 0-9.55-1.801-12.617-5.399-3.063-3.601-4.598-8.543-4.598-14.824v-2.547c0-4.012.707-7.543 2.121-10.598 1.414-3.054 3.43-5.402 6.059-7.035 2.625-1.629 5.676-2.445 9.148-2.445 4.813 0 8.688 1.285 11.63 3.863 2.94 2.578 4.64 6.2 5.097 10.856h-8.59c-.21-2.692-.96-4.645-2.25-5.856-1.289-1.21-3.25-1.82-5.887-1.82-2.863 0-5.007 1.027-6.43 3.082-1.421 2.05-2.152 5.234-2.19 9.55v3.15c0 4.507.683 7.8 2.05 9.882 1.363 2.082 3.516 3.121 6.457 3.121 2.652 0 4.637-.605 5.941-1.816 1.31-1.215 2.06-3.09 2.25-5.63Zm14.234-8.336h6.93c2.16 0 3.827-.547 5.011-1.645 1.188-1.097 1.777-2.613 1.777-4.543 0-1.964-.558-3.511-1.675-4.636-1.118-1.13-2.832-1.692-5.141-1.692h-6.902Zm6.843 6.96h-6.843v15.266h-8.594v-41.703h15.496c4.926 0 8.726 1.098 11.398 3.293 2.676 2.2 4.012 5.301 4.012 9.309 0 2.848-.617 5.219-1.848 7.12-1.23 1.9-3.097 3.411-5.601 4.54l9.023 17.04v.401h-9.222Zm33.227-26.437 10.71 30.246 10.657-30.246h11.285v41.703h-8.62v-11.398l.859-19.68-11.258 31.078h-5.899l-11.23-31.046.86 19.648v11.398h-8.59v-41.703Zm0 0"/>
</svg>