<svg xmlns="http://www.w3.org/2000/svg" width="155" height="155" viewBox="0 0 155 155">
  <g id="Group_198" data-name="Group 198" transform="translate(-4351 -4768)">
    <rect id="Rectangle_60" data-name="Rectangle 60" width="155" height="155" transform="translate(4351 4768)" fill="none"/>
    <g id="Group_197" data-name="Group 197" transform="translate(1612.738 -205.942)">
      <path id="Path_558" data-name="Path 558" d="M2857.437,5109.379a3.044,3.044,0,0,1-2.06-.744,2.868,2.868,0,0,1,.024-4.1,2.949,2.949,0,0,1,2.036-.789,3.013,3.013,0,0,1,1.983.717,2.55,2.55,0,0,1,.867,2.088,2.631,2.631,0,0,1-.843,2.079A2.922,2.922,0,0,1,2857.437,5109.379Zm2.849,5.136V5129.6a3.719,3.719,0,0,1-.823,2.619,2.723,2.723,0,0,1-2.089.884,2.616,2.616,0,0,1-2.059-.905,3.841,3.841,0,0,1-.791-2.6v-14.922a3.7,3.7,0,0,1,.791-2.574,2.652,2.652,0,0,1,2.059-.867,2.747,2.747,0,0,1,2.089.867A3.345,3.345,0,0,1,2860.286,5114.515Z" transform="translate(-6.425 -7.535)" fill="#e50012"/>
      <path id="Path_559" data-name="Path 559" d="M2754.679,5107.188l11.061,16.738v-16.893a3.721,3.721,0,0,1,.708-2.47,2.393,2.393,0,0,1,1.907-.823,2.464,2.464,0,0,1,1.957.823,3.679,3.679,0,0,1,.717,2.47v22.335q0,3.738-3.1,3.738a4.131,4.131,0,0,1-1.4-.22,3.588,3.588,0,0,1-1.164-.707,7.028,7.028,0,0,1-1-1.136c-.312-.431-.62-.872-.933-1.325l-10.788-16.543v16.638a3.553,3.553,0,0,1-.755,2.462,2.51,2.51,0,0,1-1.937.831,2.47,2.47,0,0,1-1.957-.843,3.625,3.625,0,0,1-.735-2.45v-21.908a6.209,6.209,0,0,1,.31-2.189,3.117,3.117,0,0,1,1.22-1.423,3.315,3.315,0,0,1,1.84-.553,3.018,3.018,0,0,1,2.3.93,7.026,7.026,0,0,1,.853,1.1C2754.07,5106.227,2754.372,5106.7,2754.679,5107.188Z" transform="translate(0 -7.535)" fill="#0094d7"/>
      <path id="Path_560" data-name="Path 560" d="M2784.529,5120.885v-13.656a3.808,3.808,0,0,1,.785-2.616,2.638,2.638,0,0,1,2.062-.872,2.714,2.714,0,0,1,2.122.872,3.805,3.805,0,0,1,.786,2.616v13.966a12.819,12.819,0,0,0,.53,3.98,4.594,4.594,0,0,0,1.891,2.478,6.917,6.917,0,0,0,3.8.882q3.37,0,4.765-1.79a8.769,8.769,0,0,0,1.4-5.433v-14.083a3.826,3.826,0,0,1,.774-2.625,2.645,2.645,0,0,1,2.071-.863,2.73,2.73,0,0,1,2.1.863,3.725,3.725,0,0,1,.807,2.625v13.656a20.231,20.231,0,0,1-.648,5.561,8.6,8.6,0,0,1-2.453,3.912,9.5,9.5,0,0,1-3.6,2.091,15.744,15.744,0,0,1-4.8.658,19.781,19.781,0,0,1-5.638-.706,9.022,9.022,0,0,1-3.854-2.189,8.793,8.793,0,0,1-2.19-3.8A19.373,19.373,0,0,1,2784.529,5120.885Z" transform="translate(-2.232 -7.535)" fill="#0094d7"/>
      <path id="Path_561" data-name="Path 561" d="M2840.635,5108.175h-12.959v7.947h11.932a2.845,2.845,0,0,1,1.966.589,2.006,2.006,0,0,1,.65,1.558,2.087,2.087,0,0,1-.639,1.58,2.772,2.772,0,0,1-1.976.61h-11.932v8.076h13.4a2.934,2.934,0,0,1,2.044.631,2.157,2.157,0,0,1,.687,1.675,2.114,2.114,0,0,1-.687,1.637,2.929,2.929,0,0,1-2.044.628h-15.631a3.012,3.012,0,0,1-3.527-3.523v-22.319a4.761,4.761,0,0,1,.369-2.023,2.283,2.283,0,0,1,1.151-1.142,4.824,4.824,0,0,1,2.006-.358h15.186a2.96,2.96,0,0,1,2.044.608,2.066,2.066,0,0,1,.667,1.6,2.1,2.1,0,0,1-.667,1.619A2.969,2.969,0,0,1,2840.635,5108.175Z" transform="translate(-4.472 -7.535)" fill="#359f57"/>
      <path id="Path_562" data-name="Path 562" d="M2881.485,5121.076h-5.269v8.525a3.739,3.739,0,0,1-.812,2.615,2.865,2.865,0,0,1-4.145.01,3.74,3.74,0,0,1-.794-2.585v-22.376a3.575,3.575,0,0,1,.872-2.71,3.958,3.958,0,0,1,2.77-.813h7.38a19.369,19.369,0,0,1,5.037.5,7.5,7.5,0,0,1,3.011,1.606,7.229,7.229,0,0,1,1.929,2.752,9.7,9.7,0,0,1,.658,3.662q0,4.337-2.674,6.575T2881.485,5121.076Zm-1.4-13.017h-3.874v8.679h3.874a11.681,11.681,0,0,0,3.4-.424,3.985,3.985,0,0,0,2.082-1.4,4.151,4.151,0,0,0,.717-2.538,4.312,4.312,0,0,0-1.1-3.061Q2883.945,5108.061,2880.09,5108.059Z" transform="translate(-7.379 -7.535)" fill="#f7b400"/>
      <g id="Group_118" data-name="Group 118" transform="translate(2747.262 4977.942)">
        <path id="Path_563" data-name="Path 563" d="M2860.525,5002.326a41.91,41.91,0,0,0-16.425-5.008,33.765,33.765,0,0,0-63.062,16.83,33.806,33.806,0,0,0,0,67.612h59.232a42.327,42.327,0,0,0,20.255-79.433Z" transform="translate(-2747.262 -4978.085)" fill="#9e9e9f"/>
        <g id="Group_116" data-name="Group 116" transform="translate(2.253)">
          <path id="Path_564" data-name="Path 564" d="M2846.5,4994.92a33.766,33.766,0,0,0-63.063,16.83,33.806,33.806,0,0,0,0,67.612h.124l79.364-79.435A41.922,41.922,0,0,0,2846.5,4994.92Z" transform="translate(-2749.659 -4977.942)" fill="#0094d7"/>
        </g>
        <path id="Path_565" data-name="Path 565" d="M2817.8,5013.362a13.447,13.447,0,0,0-8.864,24.065l10.967,10.966,11.387-11.4-11.011-11.011a3.815,3.815,0,0,1,5.056-5.055l11.009,11.008,3.164-3.167-10.959-10.957A15.1,15.1,0,0,0,2817.8,5013.362Z" transform="translate(-2750.69 -4980.063)" fill="none"/>
        <path id="Path_566" data-name="Path 566" d="M2830.658,5015.811a15.195,15.195,0,0,0-21.5,0c-.314.314-.6.645-.885.979a15.187,15.187,0,0,1,20.5.907l10.959,10.957,1.884-1.885Z" transform="translate(-2750.917 -4979.943)" fill="gray"/>
        <path id="Path_567" data-name="Path 567" d="M2839.838,5069.345a13.781,13.781,0,0,1-9.808-4.062l-13.7-13.7-10.97-10.969a19.693,19.693,0,0,1-.8-26.957c-.372.322-.737.653-1.089,1a19.706,19.706,0,0,0,0,27.838l10.969,10.969,13.7,13.7a13.866,13.866,0,0,0,19.615,0c.312-.312.6-.639.879-.972A13.764,13.764,0,0,1,2839.838,5069.345Z" transform="translate(-2750.284 -4980.081)" fill="gray"/>
        <path id="Path_568" data-name="Path 568" d="M2847.844,5049.381l-13.708-13.708-11.01-11.009a2.235,2.235,0,0,1-.625-1.912,2.233,2.233,0,0,0-1.26,3.8l11.012,11.011,13.705,13.706a9.4,9.4,0,0,1,.864,12.264,9.53,9.53,0,0,0,1.019-.873A9.4,9.4,0,0,0,2847.844,5049.381Z" transform="translate(-2751.654 -4980.626)" fill="gray"/>
        <path id="Path_569" data-name="Path 569" d="M2849.766,5045.242l-13.709-13.708-11.009-11.008a2.242,2.242,0,0,0-3.171,3.171l11.01,11.009,13.708,13.708a9.4,9.4,0,0,1,0,13.275,9.53,9.53,0,0,1-1.019.873,9.365,9.365,0,0,1-12.254-.873l-13.7-13.7-10.967-10.966a15.217,15.217,0,0,1-.886-20.519c.281-.335.571-.665.885-.979a15.2,15.2,0,0,1,21.5,0l10.959,10.956,1.284-1.287,1.886-1.887-10.957-10.954a19.554,19.554,0,0,0-13.919-5.768h0a19.551,19.551,0,0,0-13.918,5.768c-.282.283-.533.584-.8.879a19.693,19.693,0,0,0,.8,26.957l10.97,10.969,13.7,13.7a13.871,13.871,0,0,0,18.608.913q.521-.429,1.006-.913A13.889,13.889,0,0,0,2849.766,5045.242Z" transform="translate(-2750.405 -4979.658)" fill="#fff"/>
        <g id="Group_117" data-name="Group 117" transform="translate(36.153 21.985)">
          <path id="Path_570" data-name="Path 570" d="M2841.225,5066.35a7.7,7.7,0,0,0,4.751-14.141l-13.706-13.706-11.386,11.4,13.7,13.7A9.333,9.333,0,0,0,2841.225,5066.35Z" transform="translate(-2787.824 -5003.554)" fill="#f7b400"/>
          <path id="Path_571" data-name="Path 571" d="M2865.082,5001.327l-21.646,21.666-1.886,1.887-1.284,1.286-1.884,1.886-3.164,3.167,13.709,13.709a13.889,13.889,0,0,1,0,19.617q-.484.483-1.006.913c-.277.333-.567.66-.879.972a13.866,13.866,0,0,1-19.615,0l-13.7-13.7-28.007,28.032h59.109a42.329,42.329,0,0,0,20.255-79.436Z" transform="translate(-2785.718 -5001.327)" fill="#f7b400"/>
        </g>
      </g>
    </g>
  </g>
</svg>
