<svg xmlns="http://www.w3.org/2000/svg" width="400" height="400" viewBox="0 0 400 400">
  <g id="Group_135" data-name="Group 135" transform="translate(-11442 -1696)">
    <text id="ICON" transform="translate(11583 1916)" fill="#f8b500" font-size="48" font-family="SegoeUI-Bold, Segoe UI" font-weight="700"><tspan x="0" y="0">ICON</tspan></text>
    <path id="Exclusion_1" data-name="Exclusion 1" d="M200,400a201.482,201.482,0,0,1-40.307-4.063,198.9,198.9,0,0,1-71.515-30.093,200.583,200.583,0,0,1-72.461-87.994A199,199,0,0,1,4.063,240.307a201.952,201.952,0,0,1,0-80.614A198.9,198.9,0,0,1,34.157,88.178a200.583,200.583,0,0,1,87.994-72.461A199,199,0,0,1,159.693,4.063a201.952,201.952,0,0,1,80.614,0,198.9,198.9,0,0,1,71.515,30.094,200.583,200.583,0,0,1,72.461,87.994,199,199,0,0,1,11.654,37.542,201.952,201.952,0,0,1,0,80.614,198.9,198.9,0,0,1-30.093,71.515,200.583,200.583,0,0,1-87.994,72.461,199,199,0,0,1-37.542,11.654A201.482,201.482,0,0,1,200,400Zm0-390C95.234,10,10,95.234,10,200S95.234,390,200,390s190-85.234,190-190S304.766,10,200,10Z" transform="translate(11442 1696)" fill="#0095d8"/>
    <path id="Exclusion_2" data-name="Exclusion 2" d="M160,320a161.187,161.187,0,0,1-32.246-3.251,159.125,159.125,0,0,1-57.212-24.075,160.467,160.467,0,0,1-57.969-70.4,159.2,159.2,0,0,1-9.323-30.034,161.562,161.562,0,0,1,0-64.491A159.124,159.124,0,0,1,27.325,70.542a160.467,160.467,0,0,1,70.4-57.969,159.2,159.2,0,0,1,30.034-9.323,161.562,161.562,0,0,1,64.491,0,159.124,159.124,0,0,1,57.212,24.075,160.466,160.466,0,0,1,57.969,70.4,159.2,159.2,0,0,1,9.323,30.034,161.562,161.562,0,0,1,0,64.491,159.125,159.125,0,0,1-24.075,57.212,160.466,160.466,0,0,1-70.4,57.969,159.2,159.2,0,0,1-30.034,9.323A161.187,161.187,0,0,1,160,320ZM160,8C76.187,8,8,76.187,8,160S76.187,312,160,312s152-68.187,152-152S243.813,8,160,8Z" transform="translate(11482 1736)" fill="#22ac38"/>
  </g>
</svg>
